<?xml version="1.0" encoding="utf-8"?>
<svg xmlns="http://www.w3.org/2000/svg" xmlns:xlink="http://www.w3.org/1999/xlink" width="1200" height="800" viewBox="0 0 4800 3200">
<defs>
  <clipPath id="clip070">
    <rect x="0" y="0" width="4800" height="3200"/>
  </clipPath>
</defs>
<path clip-path="url(#clip070)" d="M0 3200 L4800 3200 L4800 0 L0 0  Z" fill="#ffffff" fill-rule="evenodd" fill-opacity="1"/>
<defs>
  <clipPath id="clip071">
    <rect x="960" y="0" width="3361" height="3200"/>
  </clipPath>
</defs>
<path clip-path="url(#clip070)" d="M953.582 2645.13 L4611.02 2645.13 L4611.02 377.524 L953.582 377.524  Z" fill="#ffffff" fill-rule="evenodd" fill-opacity="1"/>
<defs>
  <clipPath id="clip072">
    <rect x="953" y="377" width="3658" height="2269"/>
  </clipPath>
</defs>
<polyline clip-path="url(#clip072)" style="stroke:#000000; stroke-linecap:round; stroke-linejoin:round; stroke-width:8; stroke-opacity:0.05; fill:none" stroke-dasharray="32, 20" points="1050.18,2645.13 1050.18,377.524 "/>
<polyline clip-path="url(#clip072)" style="stroke:#000000; stroke-linecap:round; stroke-linejoin:round; stroke-width:8; stroke-opacity:0.05; fill:none" stroke-dasharray="32, 20" points="1741.65,2645.13 1741.65,377.524 "/>
<polyline clip-path="url(#clip072)" style="stroke:#000000; stroke-linecap:round; stroke-linejoin:round; stroke-width:8; stroke-opacity:0.05; fill:none" stroke-dasharray="32, 20" points="2433.11,2645.13 2433.11,377.524 "/>
<polyline clip-path="url(#clip072)" style="stroke:#000000; stroke-linecap:round; stroke-linejoin:round; stroke-width:8; stroke-opacity:0.05; fill:none" stroke-dasharray="32, 20" points="3124.58,2645.13 3124.58,377.524 "/>
<polyline clip-path="url(#clip072)" style="stroke:#000000; stroke-linecap:round; stroke-linejoin:round; stroke-width:8; stroke-opacity:0.05; fill:none" stroke-dasharray="32, 20" points="3816.04,2645.13 3816.04,377.524 "/>
<polyline clip-path="url(#clip072)" style="stroke:#000000; stroke-linecap:round; stroke-linejoin:round; stroke-width:8; stroke-opacity:0.05; fill:none" stroke-dasharray="32, 20" points="4507.51,2645.13 4507.51,377.524 "/>
<polyline clip-path="url(#clip072)" style="stroke:#000000; stroke-linecap:round; stroke-linejoin:round; stroke-width:8; stroke-opacity:0.05; fill:none" stroke-dasharray="32, 20" points="953.582,2289.9 4611.02,2289.9 "/>
<polyline clip-path="url(#clip072)" style="stroke:#000000; stroke-linecap:round; stroke-linejoin:round; stroke-width:8; stroke-opacity:0.05; fill:none" stroke-dasharray="32, 20" points="953.582,1877.91 4611.02,1877.91 "/>
<polyline clip-path="url(#clip072)" style="stroke:#000000; stroke-linecap:round; stroke-linejoin:round; stroke-width:8; stroke-opacity:0.05; fill:none" stroke-dasharray="32, 20" points="953.582,1465.92 4611.02,1465.92 "/>
<polyline clip-path="url(#clip072)" style="stroke:#000000; stroke-linecap:round; stroke-linejoin:round; stroke-width:8; stroke-opacity:0.05; fill:none" stroke-dasharray="32, 20" points="953.582,1053.94 4611.02,1053.94 "/>
<polyline clip-path="url(#clip072)" style="stroke:#000000; stroke-linecap:round; stroke-linejoin:round; stroke-width:8; stroke-opacity:0.05; fill:none" stroke-dasharray="32, 20" points="953.582,641.95 4611.02,641.95 "/>
<polyline clip-path="url(#clip070)" style="stroke:#000000; stroke-linecap:round; stroke-linejoin:round; stroke-width:4; stroke-opacity:1; fill:none" points="953.582,2645.13 4611.02,2645.13 "/>
<polyline clip-path="url(#clip070)" style="stroke:#000000; stroke-linecap:round; stroke-linejoin:round; stroke-width:4; stroke-opacity:1; fill:none" points="1050.18,2645.13 1050.18,2626.23 "/>
<polyline clip-path="url(#clip070)" style="stroke:#000000; stroke-linecap:round; stroke-linejoin:round; stroke-width:4; stroke-opacity:1; fill:none" points="1741.65,2645.13 1741.65,2626.23 "/>
<polyline clip-path="url(#clip070)" style="stroke:#000000; stroke-linecap:round; stroke-linejoin:round; stroke-width:4; stroke-opacity:1; fill:none" points="2433.11,2645.13 2433.11,2626.23 "/>
<polyline clip-path="url(#clip070)" style="stroke:#000000; stroke-linecap:round; stroke-linejoin:round; stroke-width:4; stroke-opacity:1; fill:none" points="3124.58,2645.13 3124.58,2626.23 "/>
<polyline clip-path="url(#clip070)" style="stroke:#000000; stroke-linecap:round; stroke-linejoin:round; stroke-width:4; stroke-opacity:1; fill:none" points="3816.04,2645.13 3816.04,2626.23 "/>
<polyline clip-path="url(#clip070)" style="stroke:#000000; stroke-linecap:round; stroke-linejoin:round; stroke-width:4; stroke-opacity:1; fill:none" points="4507.51,2645.13 4507.51,2626.23 "/>
<path clip-path="url(#clip070)" d="M1050.18 2734.8 Q1034.38 2734.8 1026.38 2750.39 Q1018.48 2765.89 1018.48 2797.08 Q1018.48 2828.17 1026.38 2843.77 Q1034.38 2859.26 1050.18 2859.26 Q1066.08 2859.26 1073.98 2843.77 Q1081.98 2828.17 1081.98 2797.08 Q1081.98 2765.89 1073.98 2750.39 Q1066.08 2734.8 1050.18 2734.8 M1050.18 2718.59 Q1075.6 2718.59 1088.97 2738.75 Q1102.44 2758.8 1102.44 2797.08 Q1102.44 2835.26 1088.97 2855.41 Q1075.6 2875.46 1050.18 2875.46 Q1024.76 2875.46 1011.29 2855.41 Q997.923 2835.26 997.923 2797.08 Q997.923 2758.8 1011.29 2738.75 Q1024.76 2718.59 1050.18 2718.59 Z" fill="#000000" fill-rule="nonzero" fill-opacity="1" /><path clip-path="url(#clip070)" d="M1699.57 2855.31 L1732.99 2855.31 L1732.99 2739.96 L1696.63 2747.25 L1696.63 2728.62 L1732.78 2721.33 L1753.24 2721.33 L1753.24 2855.31 L1786.66 2855.31 L1786.66 2872.53 L1699.57 2872.53 L1699.57 2855.31 Z" fill="#000000" fill-rule="nonzero" fill-opacity="1" /><path clip-path="url(#clip070)" d="M2409.72 2855.31 L2481.12 2855.31 L2481.12 2872.53 L2385.11 2872.53 L2385.11 2855.31 Q2396.76 2843.26 2416.81 2823.01 Q2436.96 2802.65 2442.13 2796.78 Q2451.95 2785.74 2455.8 2778.14 Q2459.75 2770.44 2459.75 2763.05 Q2459.75 2751 2451.24 2743.4 Q2442.83 2735.81 2429.26 2735.81 Q2419.64 2735.81 2408.91 2739.15 Q2398.27 2742.49 2386.12 2749.28 L2386.12 2728.62 Q2398.48 2723.66 2409.21 2721.13 Q2419.95 2718.59 2428.86 2718.59 Q2452.35 2718.59 2466.33 2730.34 Q2480.31 2742.09 2480.31 2761.74 Q2480.31 2771.05 2476.76 2779.46 Q2473.32 2787.76 2464.1 2799.1 Q2461.57 2802.04 2448 2816.12 Q2434.43 2830.09 2409.72 2855.31 Z" fill="#000000" fill-rule="nonzero" fill-opacity="1" /><path clip-path="url(#clip070)" d="M3143.16 2791 Q3157.85 2794.14 3166.05 2804.07 Q3174.35 2813.99 3174.35 2828.58 Q3174.35 2850.96 3158.96 2863.21 Q3143.57 2875.46 3115.21 2875.46 Q3105.69 2875.46 3095.56 2873.54 Q3085.54 2871.72 3074.8 2867.97 L3074.8 2848.22 Q3083.31 2853.18 3093.44 2855.72 Q3103.56 2858.25 3114.6 2858.25 Q3133.84 2858.25 3143.87 2850.65 Q3154 2843.06 3154 2828.58 Q3154 2815.21 3144.58 2807.71 Q3135.26 2800.12 3118.55 2800.12 L3100.93 2800.12 L3100.93 2783.31 L3119.36 2783.31 Q3134.45 2783.31 3142.45 2777.33 Q3150.45 2771.25 3150.45 2759.91 Q3150.45 2748.27 3142.15 2742.09 Q3133.95 2735.81 3118.55 2735.81 Q3110.15 2735.81 3100.53 2737.63 Q3090.91 2739.46 3079.36 2743.3 L3079.36 2725.07 Q3091.01 2721.83 3101.13 2720.21 Q3111.36 2718.59 3120.38 2718.59 Q3143.67 2718.59 3157.24 2729.23 Q3170.81 2739.76 3170.81 2757.79 Q3170.81 2770.34 3163.62 2779.05 Q3156.43 2787.66 3143.16 2791 Z" fill="#000000" fill-rule="nonzero" fill-opacity="1" /><path clip-path="url(#clip070)" d="M3829.21 2739.15 L3777.56 2819.87 L3829.21 2819.87 L3829.21 2739.15 M3823.84 2721.33 L3849.57 2721.33 L3849.57 2819.87 L3871.14 2819.87 L3871.14 2836.88 L3849.57 2836.88 L3849.57 2872.53 L3829.21 2872.53 L3829.21 2836.88 L3760.95 2836.88 L3760.95 2817.13 L3823.84 2721.33 Z" fill="#000000" fill-rule="nonzero" fill-opacity="1" /><path clip-path="url(#clip070)" d="M4464.98 2721.33 L4545.29 2721.33 L4545.29 2738.54 L4483.71 2738.54 L4483.71 2775.61 Q4488.17 2774.09 4492.62 2773.38 Q4497.08 2772.57 4501.54 2772.57 Q4526.85 2772.57 4541.64 2786.45 Q4556.43 2800.32 4556.43 2824.02 Q4556.43 2848.42 4541.23 2862 Q4526.04 2875.46 4498.4 2875.46 Q4488.88 2875.46 4478.95 2873.84 Q4469.13 2872.22 4458.6 2868.98 L4458.6 2848.42 Q4467.71 2853.39 4477.43 2855.82 Q4487.16 2858.25 4497.99 2858.25 Q4515.51 2858.25 4525.74 2849.03 Q4535.97 2839.82 4535.97 2824.02 Q4535.97 2808.22 4525.74 2799 Q4515.51 2789.79 4497.99 2789.79 Q4489.79 2789.79 4481.59 2791.61 Q4473.48 2793.43 4464.98 2797.28 L4464.98 2721.33 Z" fill="#000000" fill-rule="nonzero" fill-opacity="1" /><path clip-path="url(#clip070)" d="M2617.84 2979.74 L2617.84 3011.94 L2656.22 3011.94 L2656.22 3026.42 L2617.84 3026.42 L2617.84 3088 Q2617.84 3101.87 2621.58 3105.82 Q2625.43 3109.77 2637.08 3109.77 L2656.22 3109.77 L2656.22 3125.37 L2637.08 3125.37 Q2615.51 3125.37 2607.3 3117.37 Q2599.1 3109.27 2599.1 3088 L2599.1 3026.42 L2585.43 3026.42 L2585.43 3011.94 L2599.1 3011.94 L2599.1 2979.74 L2617.84 2979.74 Z" fill="#000000" fill-rule="nonzero" fill-opacity="1" /><path clip-path="url(#clip070)" d="M2791.42 2967.99 Q2777.85 2991.28 2771.26 3014.07 Q2764.68 3036.86 2764.68 3060.25 Q2764.68 3083.64 2771.26 3106.63 Q2777.95 3129.52 2791.42 3152.71 L2775.21 3152.71 Q2760.02 3128.91 2752.43 3105.92 Q2744.93 3082.93 2744.93 3060.25 Q2744.93 3037.67 2752.43 3014.78 Q2759.92 2991.89 2775.21 2967.99 L2791.42 2967.99 Z" fill="#000000" fill-rule="nonzero" fill-opacity="1" /><path clip-path="url(#clip070)" d="M2899.88 3015.28 L2899.88 3032.91 Q2891.98 3028.85 2883.47 3026.83 Q2874.97 3024.8 2865.85 3024.8 Q2851.98 3024.8 2844.99 3029.06 Q2838.1 3033.31 2838.1 3041.82 Q2838.1 3048.3 2843.07 3052.05 Q2848.03 3055.69 2863.02 3059.03 L2869.4 3060.45 Q2889.25 3064.71 2897.55 3072.5 Q2905.96 3080.2 2905.96 3094.07 Q2905.96 3109.87 2893.4 3119.09 Q2880.94 3128.3 2859.07 3128.3 Q2849.95 3128.3 2840.03 3126.48 Q2830.2 3124.76 2819.27 3121.22 L2819.27 3101.97 Q2829.6 3107.34 2839.62 3110.08 Q2849.65 3112.71 2859.47 3112.71 Q2872.64 3112.71 2879.73 3108.25 Q2886.82 3103.7 2886.82 3095.49 Q2886.82 3087.9 2881.65 3083.85 Q2876.59 3079.79 2859.27 3076.05 L2852.79 3074.53 Q2835.47 3070.88 2827.77 3063.39 Q2820.08 3055.79 2820.08 3042.63 Q2820.08 3026.63 2831.42 3017.92 Q2842.76 3009.21 2863.62 3009.21 Q2873.95 3009.21 2883.07 3010.73 Q2892.18 3012.25 2899.88 3015.28 Z" fill="#000000" fill-rule="nonzero" fill-opacity="1" /><path clip-path="url(#clip070)" d="M2932.69 2967.99 L2948.9 2967.99 Q2964.09 2991.89 2971.58 3014.78 Q2979.18 3037.67 2979.18 3060.25 Q2979.18 3082.93 2971.58 3105.92 Q2964.09 3128.91 2948.9 3152.71 L2932.69 3152.71 Q2946.16 3129.52 2952.74 3106.63 Q2959.43 3083.64 2959.43 3060.25 Q2959.43 3036.86 2952.74 3014.07 Q2946.16 2991.28 2932.69 2967.99 Z" fill="#000000" fill-rule="nonzero" fill-opacity="1" /><polyline clip-path="url(#clip070)" style="stroke:#000000; stroke-linecap:round; stroke-linejoin:round; stroke-width:4; stroke-opacity:1; fill:none" points="953.582,2645.13 953.582,377.524 "/>
<polyline clip-path="url(#clip070)" style="stroke:#000000; stroke-linecap:round; stroke-linejoin:round; stroke-width:4; stroke-opacity:1; fill:none" points="953.582,2289.9 972.479,2289.9 "/>
<polyline clip-path="url(#clip070)" style="stroke:#000000; stroke-linecap:round; stroke-linejoin:round; stroke-width:4; stroke-opacity:1; fill:none" points="953.582,1877.91 972.479,1877.91 "/>
<polyline clip-path="url(#clip070)" style="stroke:#000000; stroke-linecap:round; stroke-linejoin:round; stroke-width:4; stroke-opacity:1; fill:none" points="953.582,1465.92 972.479,1465.92 "/>
<polyline clip-path="url(#clip070)" style="stroke:#000000; stroke-linecap:round; stroke-linejoin:round; stroke-width:4; stroke-opacity:1; fill:none" points="953.582,1053.94 972.479,1053.94 "/>
<polyline clip-path="url(#clip070)" style="stroke:#000000; stroke-linecap:round; stroke-linejoin:round; stroke-width:4; stroke-opacity:1; fill:none" points="953.582,641.95 972.479,641.95 "/>
<path clip-path="url(#clip070)" d="M347.672 2291.87 L477.504 2291.87 L477.504 2309.09 L347.672 2309.09 L347.672 2291.87 Z" fill="#000000" fill-rule="nonzero" fill-opacity="1" /><path clip-path="url(#clip070)" d="M525.203 2348.28 L558.623 2348.28 L558.623 2232.93 L522.266 2240.22 L522.266 2221.59 L558.421 2214.3 L578.878 2214.3 L578.878 2348.28 L612.298 2348.28 L612.298 2365.5 L525.203 2365.5 L525.203 2348.28 Z" fill="#000000" fill-rule="nonzero" fill-opacity="1" /><path clip-path="url(#clip070)" d="M697.367 2227.77 Q681.568 2227.77 673.568 2243.36 Q665.668 2258.86 665.668 2290.05 Q665.668 2321.14 673.568 2336.74 Q681.568 2352.23 697.367 2352.23 Q713.267 2352.23 721.166 2336.74 Q729.166 2321.14 729.166 2290.05 Q729.166 2258.86 721.166 2243.36 Q713.267 2227.77 697.367 2227.77 M697.367 2211.56 Q722.786 2211.56 736.154 2231.72 Q749.623 2251.77 749.623 2290.05 Q749.623 2328.23 736.154 2348.38 Q722.786 2368.43 697.367 2368.43 Q671.947 2368.43 658.478 2348.38 Q645.11 2328.23 645.11 2290.05 Q645.11 2251.77 658.478 2231.72 Q671.947 2211.56 697.367 2211.56 Z" fill="#000000" fill-rule="nonzero" fill-opacity="1" /><path clip-path="url(#clip070)" d="M829.325 2227.77 Q813.526 2227.77 805.526 2243.36 Q797.627 2258.86 797.627 2290.05 Q797.627 2321.14 805.526 2336.74 Q813.526 2352.23 829.325 2352.23 Q845.225 2352.23 853.124 2336.74 Q861.125 2321.14 861.125 2290.05 Q861.125 2258.86 853.124 2243.36 Q845.225 2227.77 829.325 2227.77 M829.325 2211.56 Q854.744 2211.56 868.112 2231.72 Q881.582 2251.77 881.582 2290.05 Q881.582 2328.23 868.112 2348.38 Q854.744 2368.43 829.325 2368.43 Q803.906 2368.43 790.436 2348.38 Q777.068 2328.23 777.068 2290.05 Q777.068 2251.77 790.436 2231.72 Q803.906 2211.56 829.325 2211.56 Z" fill="#000000" fill-rule="nonzero" fill-opacity="1" /><path clip-path="url(#clip070)" d="M829.325 1815.78 Q813.526 1815.78 805.526 1831.38 Q797.627 1846.87 797.627 1878.06 Q797.627 1909.15 805.526 1924.75 Q813.526 1940.24 829.325 1940.24 Q845.225 1940.24 853.124 1924.75 Q861.125 1909.15 861.125 1878.06 Q861.125 1846.87 853.124 1831.38 Q845.225 1815.78 829.325 1815.78 M829.325 1799.58 Q854.744 1799.58 868.112 1819.73 Q881.582 1839.78 881.582 1878.06 Q881.582 1916.24 868.112 1936.4 Q854.744 1956.45 829.325 1956.45 Q803.906 1956.45 790.436 1936.4 Q777.068 1916.24 777.068 1878.06 Q777.068 1839.78 790.436 1819.73 Q803.906 1799.58 829.325 1799.58 Z" fill="#000000" fill-rule="nonzero" fill-opacity="1" /><path clip-path="url(#clip070)" d="M525.203 1524.31 L558.623 1524.31 L558.623 1408.96 L522.266 1416.25 L522.266 1397.62 L558.421 1390.32 L578.878 1390.32 L578.878 1524.31 L612.298 1524.31 L612.298 1541.52 L525.203 1541.52 L525.203 1524.31 Z" fill="#000000" fill-rule="nonzero" fill-opacity="1" /><path clip-path="url(#clip070)" d="M697.367 1403.79 Q681.568 1403.79 673.568 1419.39 Q665.668 1434.88 665.668 1466.08 Q665.668 1497.17 673.568 1512.76 Q681.568 1528.26 697.367 1528.26 Q713.267 1528.26 721.166 1512.76 Q729.166 1497.17 729.166 1466.08 Q729.166 1434.88 721.166 1419.39 Q713.267 1403.79 697.367 1403.79 M697.367 1387.59 Q722.786 1387.59 736.154 1407.74 Q749.623 1427.79 749.623 1466.08 Q749.623 1504.26 736.154 1524.41 Q722.786 1544.46 697.367 1544.46 Q671.947 1544.46 658.478 1524.41 Q645.11 1504.26 645.11 1466.08 Q645.11 1427.79 658.478 1407.74 Q671.947 1387.59 697.367 1387.59 Z" fill="#000000" fill-rule="nonzero" fill-opacity="1" /><path clip-path="url(#clip070)" d="M829.325 1403.79 Q813.526 1403.79 805.526 1419.39 Q797.627 1434.88 797.627 1466.08 Q797.627 1497.17 805.526 1512.76 Q813.526 1528.26 829.325 1528.26 Q845.225 1528.26 853.124 1512.76 Q861.125 1497.17 861.125 1466.08 Q861.125 1434.88 853.124 1419.39 Q845.225 1403.79 829.325 1403.79 M829.325 1387.59 Q854.744 1387.59 868.112 1407.74 Q881.582 1427.79 881.582 1466.08 Q881.582 1504.26 868.112 1524.41 Q854.744 1544.46 829.325 1544.46 Q803.906 1544.46 790.436 1524.41 Q777.068 1504.26 777.068 1466.08 Q777.068 1427.79 790.436 1407.74 Q803.906 1387.59 829.325 1387.59 Z" fill="#000000" fill-rule="nonzero" fill-opacity="1" /><path clip-path="url(#clip070)" d="M539.28 1112.32 L610.677 1112.32 L610.677 1129.54 L514.671 1129.54 L514.671 1112.32 Q526.317 1100.27 546.369 1080.01 Q566.523 1059.66 571.687 1053.78 Q581.511 1042.75 585.359 1035.15 Q589.309 1027.45 589.309 1020.06 Q589.309 1008.01 580.802 1000.41 Q572.396 992.819 558.826 992.819 Q549.205 992.819 538.47 996.161 Q527.836 999.503 515.684 1006.29 L515.684 985.628 Q528.039 980.666 538.774 978.134 Q549.509 975.602 558.421 975.602 Q581.916 975.602 595.892 987.35 Q609.867 999.098 609.867 1018.74 Q609.867 1028.06 606.323 1036.47 Q602.879 1044.77 593.664 1056.11 Q591.132 1059.05 577.561 1073.13 Q563.991 1087.1 539.28 1112.32 Z" fill="#000000" fill-rule="nonzero" fill-opacity="1" /><path clip-path="url(#clip070)" d="M697.367 991.806 Q681.568 991.806 673.568 1007.4 Q665.668 1022.9 665.668 1054.09 Q665.668 1085.18 673.568 1100.78 Q681.568 1116.27 697.367 1116.27 Q713.267 1116.27 721.166 1100.78 Q729.166 1085.18 729.166 1054.09 Q729.166 1022.9 721.166 1007.4 Q713.267 991.806 697.367 991.806 M697.367 975.602 Q722.786 975.602 736.154 995.756 Q749.623 1015.81 749.623 1054.09 Q749.623 1092.27 736.154 1112.42 Q722.786 1132.47 697.367 1132.47 Q671.947 1132.47 658.478 1112.42 Q645.11 1092.27 645.11 1054.09 Q645.11 1015.81 658.478 995.756 Q671.947 975.602 697.367 975.602 Z" fill="#000000" fill-rule="nonzero" fill-opacity="1" /><path clip-path="url(#clip070)" d="M829.325 991.806 Q813.526 991.806 805.526 1007.4 Q797.627 1022.9 797.627 1054.09 Q797.627 1085.18 805.526 1100.78 Q813.526 1116.27 829.325 1116.27 Q845.225 1116.27 853.124 1100.78 Q861.125 1085.18 861.125 1054.09 Q861.125 1022.9 853.124 1007.4 Q845.225 991.806 829.325 991.806 M829.325 975.602 Q854.744 975.602 868.112 995.756 Q881.582 1015.81 881.582 1054.09 Q881.582 1092.27 868.112 1112.42 Q854.744 1132.47 829.325 1132.47 Q803.906 1132.47 790.436 1112.42 Q777.068 1092.27 777.068 1054.09 Q777.068 1015.81 790.436 995.756 Q803.906 975.602 829.325 975.602 Z" fill="#000000" fill-rule="nonzero" fill-opacity="1" /><path clip-path="url(#clip070)" d="M583.638 636.025 Q598.322 639.165 606.525 649.089 Q614.83 659.014 614.83 673.597 Q614.83 695.979 599.436 708.233 Q584.043 720.487 555.686 720.487 Q546.167 720.487 536.039 718.563 Q526.013 716.74 515.279 712.993 L515.279 693.244 Q523.786 698.207 533.913 700.739 Q544.04 703.27 555.079 703.27 Q574.321 703.27 584.347 695.675 Q594.474 688.079 594.474 673.597 Q594.474 660.229 585.055 652.735 Q575.738 645.14 559.028 645.14 L541.407 645.14 L541.407 628.329 L559.839 628.329 Q574.928 628.329 582.929 622.354 Q590.929 616.277 590.929 604.935 Q590.929 593.288 582.625 587.111 Q574.422 580.832 559.028 580.832 Q550.623 580.832 541.002 582.655 Q531.381 584.478 519.836 588.326 L519.836 570.097 Q531.482 566.856 541.609 565.236 Q551.838 563.615 560.851 563.615 Q584.144 563.615 597.715 574.249 Q611.285 584.781 611.285 602.808 Q611.285 615.366 604.095 624.075 Q596.904 632.683 583.638 636.025 Z" fill="#000000" fill-rule="nonzero" fill-opacity="1" /><path clip-path="url(#clip070)" d="M697.367 579.819 Q681.568 579.819 673.568 595.415 Q665.668 610.91 665.668 642.102 Q665.668 673.192 673.568 688.788 Q681.568 704.283 697.367 704.283 Q713.267 704.283 721.166 688.788 Q729.166 673.192 729.166 642.102 Q729.166 610.91 721.166 595.415 Q713.267 579.819 697.367 579.819 M697.367 563.615 Q722.786 563.615 736.154 583.769 Q749.623 603.821 749.623 642.102 Q749.623 680.281 736.154 700.435 Q722.786 720.487 697.367 720.487 Q671.947 720.487 658.478 700.435 Q645.11 680.281 645.11 642.102 Q645.11 603.821 658.478 583.769 Q671.947 563.615 697.367 563.615 Z" fill="#000000" fill-rule="nonzero" fill-opacity="1" /><path clip-path="url(#clip070)" d="M829.325 579.819 Q813.526 579.819 805.526 595.415 Q797.627 610.91 797.627 642.102 Q797.627 673.192 805.526 688.788 Q813.526 704.283 829.325 704.283 Q845.225 704.283 853.124 688.788 Q861.125 673.192 861.125 642.102 Q861.125 610.91 853.124 595.415 Q845.225 579.819 829.325 579.819 M829.325 563.615 Q854.744 563.615 868.112 583.769 Q881.582 603.821 881.582 642.102 Q881.582 680.281 868.112 700.435 Q854.744 720.487 829.325 720.487 Q803.906 720.487 790.436 700.435 Q777.068 680.281 777.068 642.102 Q777.068 603.821 790.436 583.769 Q803.906 563.615 829.325 563.615 Z" fill="#000000" fill-rule="nonzero" fill-opacity="1" /><path clip-path="url(#clip070)" d="M95.9237 2069.64 L152.738 2069.64 L152.738 2043.92 Q152.738 2029.64 145.345 2021.84 Q137.952 2014.04 124.28 2014.04 Q110.709 2014.04 103.317 2021.84 Q95.9237 2029.64 95.9237 2043.92 L95.9237 2069.64 M79.1124 2090.1 L79.1124 2043.92 Q79.1124 2018.5 90.6575 2005.54 Q102.101 1992.47 124.28 1992.47 Q146.661 1992.47 158.105 2005.54 Q169.549 2018.5 169.549 2043.92 L169.549 2069.64 L230.312 2069.64 L230.312 2090.1 L79.1124 2090.1 Z" fill="#000000" fill-rule="nonzero" fill-opacity="1" /><path clip-path="url(#clip070)" d="M264.745 1879.65 L279.227 1879.65 L279.227 1987.41 L264.745 1987.41 L264.745 1879.65 Z" fill="#000000" fill-rule="nonzero" fill-opacity="1" /><path clip-path="url(#clip070)" d="M173.296 1810.59 Q173.296 1833.17 178.461 1841.88 Q183.626 1850.59 196.082 1850.59 Q206.007 1850.59 211.881 1844.11 Q217.653 1837.53 217.653 1826.28 Q217.653 1810.79 206.716 1801.47 Q195.677 1792.05 177.448 1792.05 L173.296 1792.05 L173.296 1810.59 M165.599 1773.42 L230.312 1773.42 L230.312 1792.05 L213.096 1792.05 Q223.426 1798.43 228.388 1807.95 Q233.249 1817.47 233.249 1831.25 Q233.249 1848.67 223.527 1858.99 Q213.704 1869.22 197.298 1869.22 Q178.157 1869.22 168.435 1856.46 Q158.713 1843.6 158.713 1818.18 L158.713 1792.05 L156.89 1792.05 Q144.028 1792.05 137.04 1800.56 Q129.951 1808.97 129.951 1824.26 Q129.951 1833.98 132.281 1843.2 Q134.61 1852.41 139.268 1860.92 L122.052 1860.92 Q118.102 1850.69 116.178 1841.07 Q114.153 1831.45 114.153 1822.33 Q114.153 1797.72 126.913 1785.57 Q139.673 1773.42 165.599 1773.42 Z" fill="#000000" fill-rule="nonzero" fill-opacity="1" /><path clip-path="url(#clip070)" d="M121.242 1653.41 L138.661 1653.41 Q134.306 1661.31 132.179 1669.31 Q129.951 1677.21 129.951 1685.31 Q129.951 1703.44 141.496 1713.47 Q152.94 1723.49 173.701 1723.49 Q194.462 1723.49 206.007 1713.47 Q217.451 1703.44 217.451 1685.31 Q217.451 1677.21 215.324 1669.31 Q213.096 1661.31 208.741 1653.41 L225.958 1653.41 Q229.604 1661.21 231.426 1669.62 Q233.249 1677.92 233.249 1687.34 Q233.249 1712.96 217.147 1728.05 Q201.045 1743.14 173.701 1743.14 Q145.952 1743.14 130.053 1727.95 Q114.153 1712.66 114.153 1686.12 Q114.153 1677.51 115.976 1669.31 Q117.697 1661.11 121.242 1653.41 Z" fill="#000000" fill-rule="nonzero" fill-opacity="1" /><path clip-path="url(#clip070)" d="M121.242 1539.38 L138.661 1539.38 Q134.306 1547.28 132.179 1555.28 Q129.951 1563.18 129.951 1571.28 Q129.951 1589.41 141.496 1599.43 Q152.94 1609.46 173.701 1609.46 Q194.462 1609.46 206.007 1599.43 Q217.451 1589.41 217.451 1571.28 Q217.451 1563.18 215.324 1555.28 Q213.096 1547.28 208.741 1539.38 L225.958 1539.38 Q229.604 1547.18 231.426 1555.58 Q233.249 1563.89 233.249 1573.3 Q233.249 1598.93 217.147 1614.02 Q201.045 1629.11 173.701 1629.11 Q145.952 1629.11 130.053 1613.92 Q114.153 1598.62 114.153 1572.09 Q114.153 1563.48 115.976 1555.28 Q117.697 1547.08 121.242 1539.38 Z" fill="#000000" fill-rule="nonzero" fill-opacity="1" /><path clip-path="url(#clip070)" d="M72.9348 1396.28 Q96.2275 1409.85 119.014 1416.43 Q141.8 1423.02 165.194 1423.02 Q188.588 1423.02 211.577 1416.43 Q234.465 1409.75 257.656 1396.28 L257.656 1412.48 Q233.857 1427.67 210.868 1435.27 Q187.879 1442.76 165.194 1442.76 Q142.61 1442.76 119.723 1435.27 Q96.8351 1427.78 72.9348 1412.48 L72.9348 1396.28 Z" fill="#000000" fill-rule="nonzero" fill-opacity="1" /><path clip-path="url(#clip070)" d="M79.1124 1359.32 L79.1124 1328.83 L182.005 1290.25 L79.1124 1251.46 L79.1124 1220.98 L230.312 1220.98 L230.312 1240.93 L97.5441 1240.93 L201.247 1279.92 L201.247 1300.48 L97.5441 1339.47 L230.312 1339.47 L230.312 1359.32 L79.1124 1359.32 Z" fill="#000000" fill-rule="nonzero" fill-opacity="1" /><path clip-path="url(#clip070)" d="M79.1124 1193.84 L79.1124 1173.18 L206.918 1141.38 L79.1124 1109.68 L79.1124 1086.69 L206.918 1054.89 L79.1124 1023.19 L79.1124 1002.43 L230.312 1040.41 L230.312 1066.13 L99.0631 1098.03 L230.312 1130.24 L230.312 1155.96 L79.1124 1193.84 Z" fill="#000000" fill-rule="nonzero" fill-opacity="1" /><path clip-path="url(#clip070)" d="M72.9348 979.037 L72.9348 962.834 Q96.8351 947.643 119.723 940.148 Q142.61 932.553 165.194 932.553 Q187.879 932.553 210.868 940.148 Q233.857 947.643 257.656 962.834 L257.656 979.037 Q234.465 965.568 211.577 958.985 Q188.588 952.301 165.194 952.301 Q141.8 952.301 119.014 958.985 Q96.2275 965.568 72.9348 979.037 Z" fill="#000000" fill-rule="nonzero" fill-opacity="1" /><path clip-path="url(#clip070)" d="M1727.22 57.5923 L1695.5 143.587 L1759.04 143.587 L1727.22 57.5923 M1714.02 34.56 L1740.53 34.56 L1806.38 207.36 L1782.08 207.36 L1766.34 163.032 L1688.44 163.032 L1672.7 207.36 L1648.05 207.36 L1714.02 34.56 Z" fill="#000000" fill-rule="nonzero" fill-opacity="1" /><path clip-path="url(#clip070)" d="M1919.81 82.7079 L1919.81 102.615 Q1910.78 97.6384 1901.64 95.2078 Q1892.61 92.6615 1883.35 92.6615 Q1862.63 92.6615 1851.17 105.856 Q1839.72 118.935 1839.72 142.661 Q1839.72 166.388 1851.17 179.582 Q1862.63 192.661 1883.35 192.661 Q1892.61 192.661 1901.64 190.23 Q1910.78 187.684 1919.81 182.707 L1919.81 202.383 Q1910.9 206.55 1901.29 208.633 Q1891.8 210.716 1881.03 210.716 Q1851.75 210.716 1834.51 192.314 Q1817.26 173.911 1817.26 142.661 Q1817.26 110.948 1834.62 92.7773 Q1852.1 74.6061 1882.42 74.6061 Q1892.26 74.6061 1901.64 76.6894 Q1911.01 78.657 1919.81 82.7079 Z" fill="#000000" fill-rule="nonzero" fill-opacity="1" /><path clip-path="url(#clip070)" d="M2050.13 82.7079 L2050.13 102.615 Q2041.1 97.6384 2031.96 95.2078 Q2022.93 92.6615 2013.67 92.6615 Q1992.95 92.6615 1981.5 105.856 Q1970.04 118.935 1970.04 142.661 Q1970.04 166.388 1981.5 179.582 Q1992.95 192.661 2013.67 192.661 Q2022.93 192.661 2031.96 190.23 Q2041.1 187.684 2050.13 182.707 L2050.13 202.383 Q2041.22 206.55 2031.61 208.633 Q2022.12 210.716 2011.36 210.716 Q1982.08 210.716 1964.83 192.314 Q1947.58 173.911 1947.58 142.661 Q1947.58 110.948 1964.95 92.7773 Q1982.42 74.6061 2012.75 74.6061 Q2022.58 74.6061 2031.96 76.6894 Q2041.33 78.657 2050.13 82.7079 Z" fill="#000000" fill-rule="nonzero" fill-opacity="1" /><path clip-path="url(#clip070)" d="M2198.05 137.221 L2198.05 147.638 L2100.13 147.638 Q2101.52 169.629 2113.32 181.203 Q2125.25 192.661 2146.43 192.661 Q2158.69 192.661 2170.15 189.652 Q2181.73 186.643 2193.07 180.624 L2193.07 200.763 Q2181.61 205.624 2169.57 208.17 Q2157.54 210.716 2145.15 210.716 Q2114.13 210.716 2095.96 192.661 Q2077.91 174.606 2077.91 143.819 Q2077.91 111.99 2095.04 93.356 Q2112.28 74.6061 2141.45 74.6061 Q2167.61 74.6061 2182.77 91.5041 Q2198.05 108.286 2198.05 137.221 M2176.75 130.972 Q2176.52 113.495 2166.91 103.078 Q2157.42 92.6615 2141.68 92.6615 Q2123.86 92.6615 2113.09 102.731 Q2102.45 112.8 2100.82 131.087 L2176.75 130.972 Z" fill="#000000" fill-rule="nonzero" fill-opacity="1" /><path clip-path="url(#clip070)" d="M2233 27.2684 L2254.3 27.2684 L2254.3 207.36 L2233 207.36 L2233 27.2684 Z" fill="#000000" fill-rule="nonzero" fill-opacity="1" /><path clip-path="url(#clip070)" d="M2409.74 137.221 L2409.74 147.638 L2311.82 147.638 Q2313.21 169.629 2325.01 181.203 Q2336.93 192.661 2358.12 192.661 Q2370.38 192.661 2381.84 189.652 Q2393.42 186.643 2404.76 180.624 L2404.76 200.763 Q2393.3 205.624 2381.26 208.17 Q2369.23 210.716 2356.84 210.716 Q2325.82 210.716 2307.65 192.661 Q2289.6 174.606 2289.6 143.819 Q2289.6 111.99 2306.73 93.356 Q2323.97 74.6061 2353.14 74.6061 Q2379.3 74.6061 2394.46 91.5041 Q2409.74 108.286 2409.74 137.221 M2388.44 130.972 Q2388.21 113.495 2378.6 103.078 Q2369.11 92.6615 2353.37 92.6615 Q2335.55 92.6615 2324.78 102.731 Q2314.13 112.8 2312.51 131.087 L2388.44 130.972 Z" fill="#000000" fill-rule="nonzero" fill-opacity="1" /><path clip-path="url(#clip070)" d="M2519.8 97.6384 Q2516.22 95.555 2511.93 94.6291 Q2507.77 93.5875 2502.67 93.5875 Q2484.62 93.5875 2474.9 105.393 Q2465.29 117.083 2465.29 139.073 L2465.29 207.36 L2443.88 207.36 L2443.88 77.7311 L2465.29 77.7311 L2465.29 97.8698 Q2472 86.0644 2482.77 80.3931 Q2493.53 74.6061 2508.92 74.6061 Q2511.12 74.6061 2513.79 74.9533 Q2516.45 75.1848 2519.69 75.7635 L2519.8 97.6384 Z" fill="#000000" fill-rule="nonzero" fill-opacity="1" /><path clip-path="url(#clip070)" d="M2601.05 142.198 Q2575.24 142.198 2565.29 148.101 Q2555.34 154.004 2555.34 168.24 Q2555.34 179.582 2562.74 186.295 Q2570.27 192.892 2583.11 192.892 Q2600.82 192.892 2611.47 180.393 Q2622.23 167.777 2622.23 146.944 L2622.23 142.198 L2601.05 142.198 M2643.53 133.402 L2643.53 207.36 L2622.23 207.36 L2622.23 187.684 Q2614.94 199.49 2604.06 205.161 Q2593.18 210.716 2577.44 210.716 Q2557.54 210.716 2545.73 199.605 Q2534.04 188.379 2534.04 169.629 Q2534.04 147.754 2548.62 136.643 Q2563.32 125.532 2592.37 125.532 L2622.23 125.532 L2622.23 123.448 Q2622.23 108.749 2612.51 100.763 Q2602.91 92.6615 2585.43 92.6615 Q2574.32 92.6615 2563.79 95.3236 Q2553.25 97.9856 2543.53 103.31 L2543.53 83.6338 Q2555.22 79.1199 2566.22 76.9209 Q2577.21 74.6061 2587.63 74.6061 Q2615.75 74.6061 2629.64 89.1893 Q2643.53 103.773 2643.53 133.402 Z" fill="#000000" fill-rule="nonzero" fill-opacity="1" /><path clip-path="url(#clip070)" d="M2708.46 40.9257 L2708.46 77.7311 L2752.33 77.7311 L2752.33 94.2819 L2708.46 94.2819 L2708.46 164.652 Q2708.46 180.508 2712.74 185.022 Q2717.14 189.536 2730.45 189.536 L2752.33 189.536 L2752.33 207.36 L2730.45 207.36 Q2705.8 207.36 2696.42 198.217 Q2687.05 188.957 2687.05 164.652 L2687.05 94.2819 L2671.42 94.2819 L2671.42 77.7311 L2687.05 77.7311 L2687.05 40.9257 L2708.46 40.9257 Z" fill="#000000" fill-rule="nonzero" fill-opacity="1" /><path clip-path="url(#clip070)" d="M2780.34 77.7311 L2801.63 77.7311 L2801.63 207.36 L2780.34 207.36 L2780.34 77.7311 M2780.34 27.2684 L2801.63 27.2684 L2801.63 54.2358 L2780.34 54.2358 L2780.34 27.2684 Z" fill="#000000" fill-rule="nonzero" fill-opacity="1" /><path clip-path="url(#clip070)" d="M2953.95 129.12 L2953.95 207.36 L2932.65 207.36 L2932.65 129.814 Q2932.65 111.411 2925.47 102.268 Q2918.3 93.1245 2903.95 93.1245 Q2886.7 93.1245 2876.75 104.12 Q2866.79 115.115 2866.79 134.097 L2866.79 207.36 L2845.38 207.36 L2845.38 77.7311 L2866.79 77.7311 L2866.79 97.8698 Q2874.43 86.1801 2884.73 80.3931 Q2895.15 74.6061 2908.69 74.6061 Q2931.03 74.6061 2942.49 88.4949 Q2953.95 102.268 2953.95 129.12 Z" fill="#000000" fill-rule="nonzero" fill-opacity="1" /><path clip-path="url(#clip070)" d="M3081.72 141.041 Q3081.72 117.893 3072.12 105.161 Q3062.63 92.4301 3045.38 92.4301 Q3028.25 92.4301 3018.64 105.161 Q3009.15 117.893 3009.15 141.041 Q3009.15 164.073 3018.64 176.805 Q3028.25 189.536 3045.38 189.536 Q3062.63 189.536 3072.12 176.805 Q3081.72 164.073 3081.72 141.041 M3103.02 191.272 Q3103.02 224.374 3088.32 240.462 Q3073.62 256.665 3043.3 256.665 Q3032.07 256.665 3022.12 254.929 Q3012.16 253.309 3002.79 249.837 L3002.79 229.119 Q3012.16 234.212 3021.31 236.642 Q3030.45 239.073 3039.94 239.073 Q3060.89 239.073 3071.31 228.077 Q3081.72 217.198 3081.72 195.092 L3081.72 184.559 Q3075.13 196.017 3064.82 201.689 Q3054.52 207.36 3040.17 207.36 Q3016.33 207.36 3001.75 189.189 Q2987.16 171.018 2987.16 141.041 Q2987.16 110.948 3001.75 92.7773 Q3016.33 74.6061 3040.17 74.6061 Q3054.52 74.6061 3064.82 80.2773 Q3075.13 85.9486 3081.72 97.4069 L3081.72 77.7311 L3103.02 77.7311 L3103.02 191.272 Z" fill="#000000" fill-rule="nonzero" fill-opacity="1" /><path clip-path="url(#clip070)" d="M3246.54 53.7729 L3246.54 118.703 L3275.93 118.703 Q3292.25 118.703 3301.17 110.254 Q3310.08 101.805 3310.08 86.1801 Q3310.08 70.6709 3301.17 62.2219 Q3292.25 53.7729 3275.93 53.7729 L3246.54 53.7729 M3223.16 34.56 L3275.93 34.56 Q3304.99 34.56 3319.8 47.7544 Q3334.73 60.833 3334.73 86.1801 Q3334.73 111.759 3319.8 124.837 Q3304.99 137.916 3275.93 137.916 L3246.54 137.916 L3246.54 207.36 L3223.16 207.36 L3223.16 34.56 Z" fill="#000000" fill-rule="nonzero" fill-opacity="1" /><path clip-path="url(#clip070)" d="M3406.95 92.6615 Q3389.82 92.6615 3379.87 106.087 Q3369.92 119.398 3369.92 142.661 Q3369.92 165.925 3379.75 179.351 Q3389.71 192.661 3406.95 192.661 Q3423.97 192.661 3433.92 179.235 Q3443.87 165.809 3443.87 142.661 Q3443.87 119.629 3433.92 106.203 Q3423.97 92.6615 3406.95 92.6615 M3406.95 74.6061 Q3434.73 74.6061 3450.59 92.6615 Q3466.44 110.717 3466.44 142.661 Q3466.44 174.49 3450.59 192.661 Q3434.73 210.716 3406.95 210.716 Q3379.06 210.716 3363.2 192.661 Q3347.46 174.49 3347.46 142.661 Q3347.46 110.717 3363.2 92.6615 Q3379.06 74.6061 3406.95 74.6061 Z" fill="#000000" fill-rule="nonzero" fill-opacity="1" /><path clip-path="url(#clip070)" d="M3489.36 77.7311 L3510.66 77.7311 L3537.28 178.888 L3563.78 77.7311 L3588.9 77.7311 L3615.52 178.888 L3642.02 77.7311 L3663.32 77.7311 L3629.4 207.36 L3604.29 207.36 L3576.4 101.111 L3548.39 207.36 L3523.27 207.36 L3489.36 77.7311 Z" fill="#000000" fill-rule="nonzero" fill-opacity="1" /><path clip-path="url(#clip070)" d="M3806.49 137.221 L3806.49 147.638 L3708.57 147.638 Q3709.96 169.629 3721.77 181.203 Q3733.69 192.661 3754.87 192.661 Q3767.14 192.661 3778.59 189.652 Q3790.17 186.643 3801.51 180.624 L3801.51 200.763 Q3790.05 205.624 3778.01 208.17 Q3765.98 210.716 3753.59 210.716 Q3722.58 210.716 3704.4 192.661 Q3686.35 174.606 3686.35 143.819 Q3686.35 111.99 3703.48 93.356 Q3720.72 74.6061 3749.89 74.6061 Q3776.05 74.6061 3791.21 91.5041 Q3806.49 108.286 3806.49 137.221 M3785.19 130.972 Q3784.96 113.495 3775.35 103.078 Q3765.86 92.6615 3750.12 92.6615 Q3732.3 92.6615 3721.53 102.731 Q3710.89 112.8 3709.27 131.087 L3785.19 130.972 Z" fill="#000000" fill-rule="nonzero" fill-opacity="1" /><path clip-path="url(#clip070)" d="M3916.56 97.6384 Q3912.97 95.555 3908.69 94.6291 Q3904.52 93.5875 3899.43 93.5875 Q3881.37 93.5875 3871.65 105.393 Q3862.04 117.083 3862.04 139.073 L3862.04 207.36 L3840.63 207.36 L3840.63 77.7311 L3862.04 77.7311 L3862.04 97.8698 Q3868.76 86.0644 3879.52 80.3931 Q3890.28 74.6061 3905.68 74.6061 Q3907.88 74.6061 3910.54 74.9533 Q3913.2 75.1848 3916.44 75.7635 L3916.56 97.6384 Z" fill="#000000" fill-rule="nonzero" fill-opacity="1" /><polyline clip-path="url(#clip072)" style="stroke:#009af9; stroke-linecap:round; stroke-linejoin:round; stroke-width:12; stroke-opacity:1; fill:none" points="1057.09,1418.1 1064.01,1416.84 1070.92,1414.32 1077.84,1410.55 1084.75,1405.55 1091.67,1399.34 1098.58,1391.93 1105.5,1383.35 1112.41,1373.66 1119.33,1362.9 1126.24,1351.12 1133.16,1338.41 1140.07,1324.85 1146.98,1310.53 1153.9,1295.55 1160.81,1280.05 1167.73,1264.13 1174.64,1247.94 1181.56,1231.62 1188.47,1215.3 1195.39,1199.12 1202.3,1183.24 1209.22,1167.78 1216.13,1152.87 1223.05,1138.63 1229.96,1125.19 1236.88,1112.62 1243.79,1101.03 1250.7,1090.49 1257.62,1081.07 1264.53,1072.82 1264.53,999.142 1271.45,971.817 1278.36,948.637 1285.28,929.053 1292.19,912.578 1299.11,898.795 1306.02,887.363 1312.94,878.011 1319.85,870.531 1326.77,864.774 1333.68,860.635 1340.6,858.049 1347.51,856.98 1354.42,857.408 1361.34,859.325 1368.25,862.721 1375.17,867.584 1382.08,873.89 1389,881.599 1395.91,890.655 1402.83,900.984 1409.74,912.494 1416.66,925.082 1423.57,938.63 1430.49,953.019 1437.4,968.129 1444.32,983.844 1451.23,1000.06 1458.14,1016.71 1465.06,1033.72 1471.97,1051.08 1478.89,1068.79 1485.8,1086.91 1492.72,1105.52 1499.63,1124.77 1506.55,1144.82 1513.46,1165.87 1520.38,1188.19 1527.29,1212.01 1534.21,1237.62 1541.12,1265.29 1548.04,1295.26 1554.95,1327.75 1561.86,1362.93 1568.78,1400.89 1575.69,1441.66 1582.61,1485.18 1589.52,1531.28 1596.44,1579.74 1603.35,1630.23 1610.27,1682.39 1617.18,1735.79 1624.1,1789.98 1631.01,1844.51 1637.93,1898.93 1644.84,1952.83 1651.76,2005.81 1658.67,2057.52 1665.58,2107.63 1672.5,2155.87 1679.41,2201.96 1686.33,2245.69 1693.24,2286.84 1700.16,2325.24 1707.07,2360.73 1713.99,2393.21 1720.9,2422.6 1727.82,2448.87 1734.73,2472.04 1741.65,2492.2 1748.56,2509.47 1755.48,2524.04 1762.39,2536.15 1769.3,2546.04 1776.22,2554.01 1783.13,2560.33 1790.05,2565.27 1796.96,2569.08 1803.88,2571.94 1810.79,2574.01 1817.71,2575.32 1824.62,2575.87 1831.54,2575.52 1838.45,2574.07 1845.37,2571.21 1852.28,2566.51 1859.2,2559.48 1866.11,2549.56 1873.02,2536.14 1879.94,2518.57 1886.85,2496.25 1893.77,2468.62 1900.68,2435.22 1907.6,2395.75 1914.51,2350.07 1921.43,2298.25 1928.34,2240.58 1935.26,2177.59 1942.17,2109.96 1949.09,2038.59 1956,1964.45 1962.92,1888.62 1969.83,1812.17 1976.74,1736.13 1983.66,1661.48 1990.57,1589.06 1997.49,1519.61 2004.4,1453.72 2011.32,1391.84 2018.23,1334.29 2025.15,1281.29 2032.06,1232.93 2038.98,1189.23 2045.89,1150.11 2052.81,1115.46 2059.72,1085.1 2066.63,1058.8 2073.55,1036.31 2080.46,1017.37 2087.38,1001.67 2094.29,988.915 2101.21,978.789 2108.12,970.983 2115.04,965.189 2121.95,961.111 2128.87,958.463 2135.78,956.978 2142.7,956.407 2149.61,956.526 2156.53,957.135 2163.44,958.064 2170.35,959.169 2177.27,960.339 2184.18,961.495 2191.1,962.59 2198.01,963.611 2204.93,964.577 2211.84,965.544 2218.76,966.598 2225.67,967.861 2232.59,969.488 2239.5,971.664 2246.42,974.604 2253.33,978.552 2260.25,983.775 2267.16,990.562 2274.07,999.218 2280.99,1010.06 2287.9,1023.41 2294.82,1039.59 2301.73,1058.92 2308.65,1081.68 2315.56,1108.16 2322.48,1138.6 2329.39,1173.2 2336.31,1212.11 2343.22,1255.42 2350.14,1303.18 2357.05,1355.32 2363.97,1411.71 2370.88,1472.12 2377.79,1536.22 2384.71,1603.55 2391.62,1673.56 2398.54,1745.57 2405.45,1818.81 2412.37,1892.42 2419.28,1965.47 2426.2,2037 2433.11,2106.06 2440.03,2171.74 2446.94,2233.23 2453.86,2289.87 2460.77,2341.13 2467.69,2386.68 2474.6,2426.4 2481.51,2460.34 2488.43,2488.73 2495.34,2511.93 2502.26,2530.42 2509.17,2544.76 2516.09,2555.53 2523,2563.33 2529.92,2568.71 2536.83,2572.18 2543.75,2574.17 2550.66,2575.04 2557.58,2575.04 2564.49,2574.32 2571.41,2572.96 2578.32,2570.91 2585.23,2568.08 2592.15,2564.28 2599.06,2559.26 2605.98,2552.73 2612.89,2544.37 2619.81,2533.84 2626.72,2520.83 2633.64,2505.02 2640.55,2486.14 2647.47,2463.98 2654.38,2438.38 2661.3,2409.25 2668.21,2376.56 2675.13,2340.38 2682.04,2300.8 2688.95,2257.99 2695.87,2212.17 2702.78,2163.62 2709.7,2112.63 2716.61,2059.54 2723.53,2004.73 2730.44,1948.6 2737.36,1891.58 2744.27,1834.14 2751.19,1776.74 2758.1,1719.87 2765.02,1664.02 2771.93,1609.66 2778.85,1557.21 2785.76,1507.06 2792.67,1459.54 2799.59,1414.88 2806.5,1373.26 2813.42,1334.73 2820.33,1299.29 2827.25,1266.84 2834.16,1237.22 2841.08,1210.23 2847.99,1185.6 2854.91,1163.06 2861.82,1142.31 2868.74,1123.08 2875.65,1105.1 2882.57,1088.12 2889.48,1071.93 2896.39,1056.35 2903.31,1041.25 2910.22,1026.52 2917.14,1012.1 2924.05,997.974 2930.97,984.147 2937.88,970.658 2944.8,957.572 2951.71,944.971 2958.63,932.957 2965.54,921.637 2972.46,911.126 2979.37,901.539 2986.29,892.988 2993.2,885.578 3000.11,879.405 3007.03,874.558 3013.94,871.118 3020.86,869.158 3027.77,868.752 3034.69,869.972 3041.6,872.903 3048.52,877.643 3055.43,884.315 3062.35,893.07 3069.26,904.103 3076.18,917.651 3083.09,934.008 3090.01,953.519 3096.92,976.588 3103.83,1003.67 3110.75,1035.26 3117.66,1071.88 3124.58,1114.03 3131.49,1162.18 3138.41,1216.71 3145.32,1277.84 3152.24,1345.59 3159.15,1419.71 3166.07,1499.64 3172.98,1584.48 3179.9,1673 3186.81,1763.69 3193.73,1854.81 3200.64,1944.55 3207.55,2031.1 3214.47,2112.82 3221.38,2188.36 3228.3,2256.73 3235.21,2317.32 3242.13,2369.95 3249.04,2414.77 3255.96,2452.23 3262.87,2482.99 3269.79,2507.82 3276.7,2527.52 3283.62,2542.89 3290.53,2554.63 3297.45,2563.32 3304.36,2569.45 3311.27,2573.36 3318.19,2575.25 3325.1,2575.25 3332.02,2573.37 3338.93,2569.56 3345.85,2563.75 3352.76,2555.82 3359.68,2545.69 3366.59,2533.3 3373.51,2518.64 3380.42,2501.74 3387.34,2482.72 3394.25,2461.72 3401.16,2438.98 3408.08,2414.73 3414.99,2389.25 3421.91,2362.81 3428.82,2335.68 3435.74,2308.07 3442.65,2280.16 3449.57,2252.07 3456.48,2223.85 3463.4,2195.48 3470.31,2166.86 3477.23,2137.88 3484.14,2108.34 3491.06,2078.08 3497.97,2046.9 3504.88,2014.67 3511.8,1981.28 3518.71,1946.72 3525.63,1911.04 3532.54,1874.39 3539.46,1836.99 3546.37,1799.11 3553.29,1761.05 3560.2,1723.14 3567.12,1685.66 3574.03,1648.84 3580.95,1612.87 3587.86,1577.82 3594.78,1543.69 3601.69,1510.43 3608.6,1477.88 3615.52,1445.85 3622.43,1414.13 3629.35,1382.48 3636.26,1350.7 3643.18,1318.59 3650.09,1286.03 3657.01,1252.97 3663.92,1219.4 3670.84,1185.43 3677.75,1151.24 3684.67,1117.08 3691.58,1083.29 3698.5,1050.24 3705.41,1018.36 3712.32,988.081 3719.24,959.821 3726.15,933.978 3733.07,910.891 3739.98,890.831 3746.9,873.979 3753.81,860.424 3760.73,850.155 3767.64,843.067 3774.56,838.964 3781.47,837.575 3788.39,838.569 3795.3,841.569 3802.22,846.174 3809.13,851.973 3816.04,858.562 3822.96,865.557 3829.87,872.604 3836.79,879.389 3843.7,885.646 3850.62,891.16 3857.53,895.773 3864.45,899.389 3871.36,901.977 3878.28,903.583 3885.19,904.332 3892.11,904.441 3899.02,904.231 3905.94,904.14 3912.85,904.734 3919.76,906.722 3926.68,910.961 3933.59,918.454 3940.51,930.335 3947.42,947.839 3954.34,972.239 3961.25,1004.77 3968.17,1046.5 3975.08,1098.23 3982,1160.32 3988.91,1232.57 3995.83,1314.15 4002.74,1403.58 4009.66,1498.78 4016.57,1597.23 4023.48,1696.21 4030.4,1793.06 4037.31,1885.42 4044.23,1971.46 4051.14,2049.95 4058.06,2120.34 4064.97,2182.62 4071.89,2237.26 4078.8,2284.99 4085.72,2326.69 4092.63,2363.24 4099.55,2395.37 4106.46,2423.64 4113.38,2448.36 4120.29,2469.62 4127.2,2487.28 4134.12,2501.05 4141.03,2510.52 4147.95,2515.27 4154.86,2514.9 4161.78,2509.16 4168.69,2497.97 4175.61,2481.48 4182.52,2460.06 4189.44,2434.29 4196.35,2404.94 4203.27,2372.89 4210.18,2339.08 4217.1,2304.44 4224.01,2269.87 4230.92,2236.17 4237.84,2204.01 4244.75,2173.98 4251.67,2146.49 4258.58,2121.85 4265.5,2100.24 4272.41,2081.73 4279.33,2066.3 4286.24,2053.82 4293.16,2044.12 4300.07,2036.92 4306.99,2031.89 4313.9,2028.67 4320.82,2026.82 4327.73,2025.87 4334.64,2025.36 4341.56,2024.76 4348.47,2023.57 4355.39,2021.31 4362.3,2017.51 4369.22,2011.77 4376.13,2003.74 4383.05,1993.18 4389.96,1979.93 4396.88,1963.96 4403.79,1945.32 4410.71,1924.15 4417.62,1900.63 4424.54,1874.95 4431.45,1847.28 4438.36,1817.74 4445.28,1786.32 4452.19,1752.94 4459.11,1717.43 4466.02,1679.52 4472.94,1638.91 4479.85,1595.32 4486.77,1548.51 4493.68,1498.39 4500.6,1445.02 4507.51,1388.7 "/>
<polyline clip-path="url(#clip072)" style="stroke:#e26f46; stroke-linecap:round; stroke-linejoin:round; stroke-width:12; stroke-opacity:1; fill:none" points="1057.09,1357.8 1064.01,1357.8 1070.92,1357.8 1077.84,1357.8 1084.75,1357.8 1091.67,1357.8 1098.58,1357.8 1105.5,1357.8 1112.41,1357.8 1119.33,1357.8 1126.24,1357.8 1133.16,1357.8 1140.07,1357.8 1146.98,1357.8 1153.9,1357.8 1160.81,1357.8 1167.73,1357.8 1174.64,1357.8 1181.56,1357.8 1188.47,1357.8 1195.39,1357.8 1202.3,1357.8 1209.22,1357.8 1216.13,1357.8 1223.05,1357.8 1229.96,1357.8 1236.88,1357.8 1243.79,1357.8 1250.7,1357.8 1257.62,1357.8 1264.53,1357.8 1264.53,1856.58 1271.45,1865.5 1278.36,1877.02 1285.28,1891.09 1292.19,1907.63 1299.11,1926.57 1306.02,1947.77 1312.94,1971.07 1319.85,1996.25 1326.77,2023.06 1333.68,2051.2 1340.6,2080.33 1347.51,2110.08 1354.42,2140.05 1361.34,2169.86 1368.25,2199.13 1375.17,2227.52 1382.08,2254.71 1389,2280.48 1395.91,2304.63 1402.83,2327.06 1409.74,2347.71 1416.66,2366.6 1423.57,2383.78 1430.49,2399.35 1437.4,2413.43 1444.32,2426.12 1451.23,2437.52 1458.14,2447.68 1465.06,2456.62 1471.97,2464.29 1478.89,2470.55 1485.8,2475.18 1492.72,2477.87 1499.63,2478.24 1506.55,2475.79 1513.46,2469.98 1520.38,2460.2 1527.29,2445.82 1534.21,2426.24 1541.12,2400.89 1548.04,2369.3 1554.95,2331.15 1561.86,2286.32 1568.78,2234.87 1575.69,2177.13 1582.61,2113.67 1589.52,2045.29 1596.44,1972.98 1603.35,1897.9 1610.27,1821.3 1617.18,1744.47 1624.1,1668.65 1631.01,1595.04 1637.93,1524.69 1644.84,1458.5 1651.76,1397.22 1658.67,1341.4 1665.58,1291.46 1672.5,1247.62 1679.41,1210 1686.33,1178.58 1693.24,1153.25 1700.16,1133.83 1707.07,1120.06 1713.99,1111.62 1720.9,1108.17 1727.82,1109.3 1734.73,1114.6 1741.65,1123.62 1748.56,1135.89 1755.48,1150.93 1762.39,1168.27 1769.3,1187.42 1776.22,1207.9 1783.13,1229.28 1790.05,1251.13 1796.96,1273.07 1803.88,1294.77 1810.79,1315.94 1817.71,1336.34 1824.62,1355.8 1831.54,1374.21 1838.45,1391.48 1845.37,1407.61 1852.28,1422.63 1859.2,1436.62 1866.11,1449.7 1873.02,1462.04 1879.94,1473.83 1886.85,1485.3 1893.77,1496.71 1900.68,1508.33 1907.6,1520.46 1914.51,1533.38 1921.43,1547.39 1928.34,1562.74 1935.26,1579.68 1942.17,1598.39 1949.09,1619.01 1956,1641.64 1962.92,1666.28 1969.83,1692.91 1976.74,1721.42 1983.66,1751.67 1990.57,1783.47 1997.49,1816.6 2004.4,1850.8 2011.32,1885.8 2018.23,1921.34 2025.15,1957.11 2032.06,1992.85 2038.98,2028.25 2045.89,2063.05 2052.81,2096.95 2059.72,2129.71 2066.63,2161.06 2073.55,2190.79 2080.46,2218.7 2087.38,2244.62 2094.29,2268.44 2101.21,2290.07 2108.12,2309.48 2115.04,2326.68 2121.95,2341.75 2128.87,2354.76 2135.78,2365.86 2142.7,2375.19 2149.61,2382.93 2156.53,2389.24 2163.44,2394.29 2170.35,2398.23 2177.27,2401.18 2184.18,2403.23 2191.1,2404.44 2198.01,2404.83 2204.93,2404.38 2211.84,2403.01 2218.76,2400.63 2225.67,2397.09 2232.59,2392.22 2239.5,2385.84 2246.42,2377.73 2253.33,2367.68 2260.25,2355.51 2267.16,2341.03 2274.07,2324.08 2280.99,2304.57 2287.9,2282.42 2294.82,2257.62 2301.73,2230.23 2308.65,2200.33 2315.56,2168.09 2322.48,2133.71 2329.39,2097.44 2336.31,2059.57 2343.22,2020.42 2350.14,1980.33 2357.05,1939.66 2363.97,1898.79 2370.88,1858.1 2377.79,1817.95 2384.71,1778.73 2391.62,1740.79 2398.54,1704.46 2405.45,1670.03 2412.37,1637.75 2419.28,1607.83 2426.2,1580.38 2433.11,1555.5 2440.03,1533.16 2446.94,1513.29 2453.86,1495.76 2460.77,1480.36 2467.69,1466.84 2474.6,1454.92 2481.51,1444.29 2488.43,1434.61 2495.34,1425.58 2502.26,1416.87 2509.17,1408.19 2516.09,1399.29 2523,1389.93 2529.92,1379.92 2536.83,1369.11 2543.75,1357.4 2550.66,1344.73 2557.58,1331.11 2564.49,1316.56 2571.41,1301.21 2578.32,1285.18 2585.23,1268.71 2592.15,1252.03 2599.06,1235.47 2605.98,1219.38 2612.89,1204.15 2619.81,1190.21 2626.72,1178.02 2633.64,1168.04 2640.55,1160.75 2647.47,1156.62 2654.38,1156.12 2661.3,1159.69 2668.21,1167.73 2675.13,1180.62 2682.04,1198.67 2688.95,1222.14 2695.87,1251.21 2702.78,1285.99 2709.7,1326.48 2716.61,1372.57 2723.53,1424.02 2730.44,1480.48 2737.36,1541.44 2744.27,1606.24 2751.19,1674.1 2758.1,1744.12 2765.02,1815.26 2771.93,1886.46 2778.85,1956.6 2785.76,2024.6 2792.67,2089.43 2799.59,2150.17 2806.5,2206.06 2813.42,2256.53 2820.33,2301.2 2827.25,2339.89 2834.16,2372.62 2841.08,2399.57 2847.99,2421.08 2854.91,2437.59 2861.82,2449.6 2868.74,2457.64 2875.65,2462.27 2882.57,2464 2889.48,2463.28 2896.39,2460.54 2903.31,2456.09 2910.22,2450.2 2917.14,2443.04 2924.05,2434.71 2930.97,2425.25 2937.88,2414.65 2944.8,2402.84 2951.71,2389.73 2958.63,2375.22 2965.54,2359.22 2972.46,2341.63 2979.37,2322.41 2986.29,2301.55 2993.2,2279.09 3000.11,2255.13 3007.03,2229.83 3013.94,2203.41 3020.86,2176.13 3027.77,2148.31 3034.69,2120.26 3041.6,2092.35 3048.52,2064.9 3055.43,2038.25 3062.35,2012.7 3069.26,1988.5 3076.18,1965.89 3083.09,1945.06 3090.01,1926.14 3096.92,1909.27 3103.83,1894.51 3110.75,1881.92 3117.66,1871.53 3124.58,1863.35 3131.49,1857.37 3138.41,1853.54 3145.32,1851.75 3152.24,1851.88 3159.15,1853.7 3166.07,1856.96 3172.98,1861.27 3179.9,1866.22 3186.81,1871.28 3193.73,1875.92 3200.64,1879.56 3207.55,1881.64 3214.47,1881.63 3221.38,1879.09 3228.3,1873.66 3235.21,1865.05 3242.13,1853.09 3249.04,1837.67 3255.96,1818.74 3262.87,1796.29 3269.79,1770.31 3276.7,1740.83 3283.62,1707.87 3290.53,1671.45 3297.45,1631.66 3304.36,1588.6 3311.27,1542.49 3318.19,1493.61 3325.1,1442.4 3332.02,1389.4 3338.93,1335.28 3345.85,1280.81 3352.76,1226.85 3359.68,1174.27 3366.59,1123.94 3373.51,1076.65 3380.42,1033.13 3387.34,993.951 3394.25,959.585 3401.16,930.356 3408.08,906.481 3414.99,888.093 3421.91,875.275 3428.82,868.099 3435.74,866.661 3442.65,871.114 3449.57,881.692 3456.48,898.718 3463.4,922.609 3470.31,953.858 3477.23,993 3484.14,1040.56 3491.06,1096.99 3497.97,1162.59 3504.88,1237.39 3511.8,1321.09 3518.71,1412.97 3525.63,1511.83 3532.54,1615.99 3539.46,1723.35 3546.37,1831.47 3553.29,1937.75 3560.2,2039.62 3567.12,2134.73 3574.03,2221.14 3580.95,2297.43 3587.86,2362.8 3594.78,2417.01 3601.69,2460.4 3608.6,2493.69 3615.52,2517.94 3622.43,2534.36 3629.35,2544.22 3636.26,2548.75 3643.18,2549.04 3650.09,2546.06 3657.01,2540.53 3663.92,2533.01 3670.84,2523.85 3677.75,2513.21 3684.67,2501.08 3691.58,2487.33 3698.5,2471.72 3705.41,2453.96 3712.32,2433.72 3719.24,2410.67 3726.15,2384.56 3733.07,2355.19 3739.98,2322.52 3746.9,2286.59 3753.81,2247.64 3760.73,2206.01 3767.64,2162.2 3774.56,2116.82 3781.47,2070.55 3788.39,2024.12 3795.3,1978.26 3802.22,1933.67 3809.13,1891 3816.04,1850.8 3822.96,1813.51 3829.87,1779.49 3836.79,1748.98 3843.7,1722.13 3850.62,1699.01 3857.53,1679.64 3864.45,1663.99 3871.36,1652.04 3878.28,1643.73 3885.19,1639.05 3892.11,1638.01 3899.02,1640.65 3905.94,1647.08 3912.85,1657.44 3919.76,1671.89 3926.68,1690.64 3933.59,1713.89 3940.51,1741.8 3947.42,1774.44 3954.34,1811.76 3961.25,1853.55 3968.17,1899.32 3975.08,1948.34 3982,1999.58 3988.91,2051.73 3995.83,2103.3 4002.74,2152.63 4009.66,2198.1 4016.57,2238.21 4023.48,2271.74 4030.4,2297.84 4037.31,2316.02 4044.23,2326.21 4051.14,2328.64 4058.06,2323.75 4064.97,2312.05 4071.89,2294.06 4078.8,2270.13 4085.72,2240.41 4092.63,2204.82 4099.55,2163.02 4106.46,2114.48 4113.38,2058.57 4120.29,1994.69 4127.2,1922.41 4134.12,1841.66 4141.03,1752.87 4147.95,1657.1 4154.86,1556.05 4161.78,1452.01 4168.69,1347.69 4175.61,1245.94 4182.52,1149.53 4189.44,1060.85 4196.35,981.682 4203.27,913.141 4210.18,855.623 4217.1,808.892 4224.01,772.211 4230.92,744.508 4237.84,724.538 4244.75,711.036 4251.67,702.836 4258.58,698.966 4265.5,698.717 4272.41,701.684 4279.33,707.795 4286.24,717.329 4293.16,730.915 4300.07,749.523 4306.99,774.438 4313.9,807.203 4320.82,849.528 4327.73,903.156 4334.64,969.672 4341.56,1050.27 4348.47,1145.48 4355.39,1254.92 4362.3,1377.1 4369.22,1509.32 4376.13,1647.79 4383.05,1787.94 4389.96,1924.82 4396.88,2053.72 4403.79,2170.64 4410.71,2272.69 4417.62,2358.32 4424.54,2427.29 4431.45,2480.47 4438.36,2519.54 4445.28,2546.69 4452.19,2564.26 4459.11,2574.54 4466.02,2579.55 4472.94,2580.95 4479.85,2580.01 4486.77,2577.54 4493.68,2573.98 4500.6,2569.35 4507.51,2563.36 "/>
<polyline clip-path="url(#clip072)" style="stroke:#3da44d; stroke-linecap:round; stroke-linejoin:round; stroke-width:12; stroke-opacity:1; fill:none" points="1057.09,1510.11 1064.01,1511.36 1070.92,1513.83 1077.84,1517.52 1084.75,1522.41 1091.67,1528.44 1098.58,1535.58 1105.5,1543.76 1112.41,1552.92 1119.33,1562.98 1126.24,1573.85 1133.16,1585.41 1140.07,1597.57 1146.98,1610.19 1153.9,1623.14 1160.81,1636.28 1167.73,1649.47 1174.64,1662.56 1181.56,1675.41 1188.47,1687.87 1195.39,1699.81 1202.3,1711.08 1209.22,1721.58 1216.13,1731.19 1223.05,1739.81 1229.96,1747.35 1236.88,1753.75 1243.79,1758.95 1250.7,1762.89 1257.62,1765.55 1264.53,1766.91 1264.53,2396.96 1271.45,2388.07 1278.36,2375.14 1285.28,2358.8 1292.19,2339.52 1299.11,2317.68 1306.02,2293.59 1312.94,2267.48 1319.85,2239.57 1326.77,2210.03 1333.68,2179.05 1340.6,2146.84 1347.51,2113.62 1354.42,2079.65 1361.34,2045.19 1368.25,2010.54 1375.17,1975.99 1382.08,1941.86 1389,1908.42 1395.91,1875.96 1402.83,1844.72 1409.74,1814.92 1416.66,1786.74 1423.57,1760.36 1430.49,1735.91 1437.4,1713.51 1444.32,1693.29 1451.23,1675.35 1458.14,1659.83 1465.06,1646.87 1471.97,1636.62 1478.89,1629.27 1485.8,1625.02 1492.72,1624.09 1499.63,1626.7 1506.55,1633.08 1513.46,1643.42 1520.38,1657.88 1527.29,1676.55 1534.21,1699.41 1541.12,1726.36 1548.04,1757.12 1554.95,1791.27 1561.86,1828.23 1568.78,1867.27 1575.69,1907.51 1582.61,1947.96 1589.52,1987.57 1596.44,2025.31 1603.35,2060.13 1610.27,2091.12 1617.18,2117.47 1624.1,2138.55 1631.01,2153.88 1637.93,2163.18 1644.84,2166.34 1651.76,2163.4 1658.67,2154.52 1665.58,2140.01 1672.5,2120.23 1679.41,2095.64 1686.33,2066.73 1693.24,2034.04 1700.16,1998.12 1707.07,1959.55 1713.99,1918.89 1720.9,1876.7 1727.82,1833.55 1734.73,1789.95 1741.65,1746.4 1748.56,1703.37 1755.48,1661.32 1762.39,1620.63 1769.3,1581.69 1776.22,1544.84 1783.13,1510.4 1790.05,1478.69 1796.96,1449.98 1803.88,1424.56 1810.79,1402.71 1817.71,1384.71 1824.62,1370.84 1831.54,1361.39 1838.45,1356.65 1845.37,1356.91 1852.28,1362.45 1859.2,1373.53 1866.11,1390.35 1873.02,1413.04 1879.94,1441.65 1886.85,1476.1 1893.77,1516.14 1900.68,1561.37 1907.6,1611.19 1914.51,1664.81 1921.43,1721.3 1928.34,1779.55 1935.26,1838.36 1942.17,1896.49 1949.09,1952.72 1956,2005.87 1962.92,2054.91 1969.83,2098.98 1976.74,2137.38 1983.66,2169.63 1990.57,2195.45 1997.49,2214.74 2004.4,2227.57 2011.32,2234.13 2018.23,2234.74 2025.15,2229.79 2032.06,2219.76 2038.98,2205.14 2045.89,2186.5 2052.81,2164.39 2059.72,2139.4 2066.63,2112.11 2073.55,2083.1 2080.46,2052.95 2087.38,2022.21 2094.29,1991.4 2101.21,1961 2108.12,1931.46 2115.04,1903.17 2121.95,1876.46 2128.87,1851.62 2135.78,1828.89 2142.7,1808.43 2149.61,1790.4 2156.53,1774.88 2163.44,1761.96 2170.35,1751.67 2177.27,1744.04 2184.18,1739.1 2191.1,1736.85 2198.01,1737.3 2204.93,1740.46 2211.84,1746.33 2218.76,1754.9 2225.67,1766.15 2232.59,1780.06 2239.5,1796.58 2246.42,1815.61 2253.33,1837.03 2260.25,1860.68 2267.16,1886.33 2274.07,1913.7 2280.99,1942.45 2287.9,1972.2 2294.82,2002.47 2301.73,2032.76 2308.65,2062.53 2315.56,2091.19 2322.48,2118.14 2329.39,2142.77 2336.31,2164.46 2343.22,2182.63 2350.14,2196.69 2357.05,2206.13 2363.97,2210.46 2370.88,2209.27 2377.79,2202.24 2384.71,2189.13 2391.62,2169.85 2398.54,2144.42 2405.45,2113.03 2412.37,2076.05 2419.28,2033.99 2426.2,1987.57 2433.11,1937.62 2440.03,1885.13 2446.94,1831.14 2453.86,1776.75 2460.77,1723.04 2467.69,1671.05 2474.6,1621.7 2481.51,1575.81 2488.43,1534.03 2495.34,1496.85 2502.26,1464.61 2509.17,1437.54 2516.09,1415.69 2523,1399.05 2529.92,1387.53 2536.83,1380.97 2543.75,1379.18 2550.66,1381.96 2557.58,1389.1 2564.49,1400.4 2571.41,1415.63 2578.32,1434.61 2585.23,1457.14 2592.15,1483.02 2599.06,1512.04 2605.98,1543.97 2612.89,1578.57 2619.81,1615.56 2626.72,1654.61 2633.64,1695.36 2640.55,1737.4 2647.47,1780.27 2654.38,1823.46 2661.3,1866.42 2668.21,1908.57 2675.13,1949.31 2682.04,1988 2688.95,2024.04 2695.87,2056.81 2702.78,2085.74 2709.7,2110.29 2716.61,2129.99 2723.53,2144.42 2730.44,2153.28 2737.36,2156.35 2744.27,2153.54 2751.19,2144.9 2758.1,2130.61 2765.02,2111.04 2771.93,2086.67 2778.85,2058.14 2785.76,2026.23 2792.67,1991.78 2799.59,1955.71 2806.5,1918.96 2813.42,1882.43 2820.33,1846.97 2827.25,1813.32 2834.16,1782.12 2841.08,1753.86 2847.99,1728.9 2854.91,1707.5 2861.82,1689.78 2868.74,1675.75 2875.65,1665.38 2882.57,1658.57 2889.48,1655.17 2896.39,1655.03 2903.31,1657.99 2910.22,1663.88 2917.14,1672.56 2924.05,1683.9 2930.97,1697.77 2937.88,1714.08 2944.8,1732.73 2951.71,1753.62 2958.63,1776.66 2965.54,1801.72 2972.46,1828.69 2979.37,1857.4 2986.29,1887.66 2993.2,1919.26 3000.11,1951.95 3007.03,1985.44 3013.94,2019.45 3020.86,2053.65 3027.77,2087.73 3034.69,2121.38 3041.6,2154.27 3048.52,2186.13 3055.43,2216.66 3062.35,2245.6 3069.26,2272.67 3076.18,2297.57 3083.09,2320.01 3090.01,2339.6 3096.92,2355.92 3103.83,2368.47 3110.75,2376.63 3117.66,2379.7 3124.58,2376.9 3131.49,2367.38 3138.41,2350.27 3145.32,2324.78 3152.24,2290.19 3159.15,2246.04 3166.07,2192.18 3172.98,2128.86 3179.9,2056.78 3186.81,1977.16 3193.73,1891.67 3200.64,1802.38 3207.55,1711.64 3214.47,1621.88 3221.38,1535.52 3228.3,1454.74 3235.21,1381.4 3242.13,1316.97 3249.04,1262.46 3255.96,1218.5 3262.87,1185.31 3269.79,1162.86 3276.7,1150.86 3283.62,1148.88 3290.53,1156.36 3297.45,1172.69 3304.36,1197.19 3311.27,1229.11 3318.19,1267.68 3325.1,1312.06 3332.02,1361.37 3338.93,1414.65 3345.85,1470.96 3352.76,1529.32 3359.68,1588.79 3366.59,1648.51 3373.51,1707.68 3380.42,1765.62 3387.34,1821.78 3394.25,1875.72 3401.16,1927.15 3408.08,1975.85 3414.99,2021.67 3421.91,2064.54 3428.82,2104.37 3435.74,2141.09 3442.65,2174.56 3449.57,2204.6 3456.48,2230.92 3463.4,2253.13 3470.31,2270.73 3477.23,2283.09 3484.14,2289.5 3491.06,2289.17 3497.97,2281.3 3504.88,2265.16 3511.8,2240.16 3518.71,2205.96 3525.63,2162.59 3532.54,2110.52 3539.46,2050.7 3546.37,1984.56 3553.29,1913.97 3560.2,1841.1 3567.12,1768.26 3574.03,1697.74 3580.95,1631.61 3587.86,1571.62 3594.78,1519.11 3601.69,1474.93 3608.6,1439.53 3615.52,1412.96 3622.43,1394.96 3629.35,1385.05 3636.26,1382.6 3643.18,1386.9 3650.09,1397.24 3657.01,1412.91 3663.92,1433.23 3670.84,1457.6 3677.75,1485.47 3684.67,1516.35 3691.58,1549.8 3698.5,1585.43 3705.41,1622.9 3712.32,1661.88 3719.24,1702.05 3726.15,1743.11 3733.07,1784.73 3739.98,1826.56 3746.9,1868.26 3753.81,1909.44 3760.73,1949.71 3767.64,1988.69 3774.56,2026.01 3781.47,2061.34 3788.39,2094.41 3795.3,2125.03 3802.22,2153.1 3809.13,2178.61 3816.04,2201.64 3822.96,2222.39 3829.87,2241.09 3836.79,2258.08 3843.7,2273.7 3850.62,2288.34 3857.53,2302.36 3864.45,2316.1 3871.36,2329.86 3878.28,2343.85 3885.19,2358.17 3892.11,2372.82 3899.02,2387.63 3905.94,2402.26 3912.85,2416.17 3919.76,2428.59 3926.68,2438.51 3933.59,2444.68 3940.51,2445.6 3947.42,2439.56 3954.34,2424.76 3961.25,2399.32 3968.17,2361.54 3975.08,2310.01 3982,2243.83 3988.91,2162.85 3995.83,2067.79 4002.74,1960.33 4009.66,1843.09 4016.57,1719.46 4023.48,1593.31 4030.4,1468.72 4037.31,1349.55 4044.23,1239.2 4051.14,1140.35 4058.06,1054.93 4064.97,984.124 4071.89,928.487 4078.8,888.141 4085.72,862.949 4092.63,852.678 4099.55,857.102 4106.46,876.044 4113.38,909.342 4120.29,956.753 4127.2,1017.81 4134.12,1091.69 4141.03,1177.04 4147.95,1271.95 4154.86,1373.91 4161.78,1479.98 4168.69,1586.97 4175.61,1691.71 4182.52,1791.31 4189.44,1883.45 4196.35,1966.49 4203.27,2039.54 4210.18,2102.43 4217.1,2155.61 4224.01,2199.97 4230.92,2236.71 4237.84,2267.14 4244.75,2292.6 4251.67,2314.31 4258.58,2333.35 4265.5,2350.55 4272.41,2366.51 4279.33,2381.54 4286.24,2395.64 4293.16,2408.48 4300.07,2419.38 4306.99,2427.28 4313.9,2430.74 4320.82,2427.99 4327.73,2416.95 4334.64,2395.41 4341.56,2361.18 4348.47,2312.4 4355.39,2247.82 4362.3,2167.12 4369.22,2071.21 4376.13,1962.3 4383.05,1843.87 4389.96,1720.35 4396.88,1596.7 4403.79,1477.86 4410.71,1368.2 4417.62,1271.17 4424.54,1189.06 4431.45,1123.04 4438.36,1073.27 4445.28,1039.15 4452.19,1019.6 4459.11,1013.3 4466.02,1018.9 4472.94,1035.09 4479.85,1060.75 4486.77,1094.86 4493.68,1136.58 4500.6,1185.14 4507.51,1239.81 "/>
<polyline clip-path="url(#clip072)" style="stroke:#000000; stroke-linecap:round; stroke-linejoin:round; stroke-width:8; stroke-opacity:1; fill:none" points="1057.09,530.188 1064.01,530.17 1070.92,530.13 1077.84,530.058 1084.75,529.938 1091.67,529.753 1098.58,529.479 1105.5,529.091 1112.41,528.56 1119.33,527.856 1126.24,526.947 1133.16,525.804 1140.07,524.394 1146.98,522.691 1153.9,520.667 1160.81,518.302 1167.73,515.578 1174.64,512.481 1181.56,509.004 1188.47,505.145 1195.39,500.907 1202.3,496.3 1209.22,491.336 1216.13,486.035 1223.05,480.419 1229.96,474.514 1236.88,468.349 1243.79,461.953 1250.7,455.359 1257.62,448.598 1264.53,441.702 1264.53,1496.86 1271.45,1469.57 1278.36,1444.98 1285.28,1423.11 1292.19,1403.9 1299.11,1387.22 1306.02,1372.9 1312.94,1360.74 1319.85,1350.53 1326.77,1342.04 1333.68,1335.07 1340.6,1329.4 1347.51,1324.86 1354.42,1321.28 1361.34,1318.55 1368.25,1316.57 1375.17,1315.27 1382.08,1314.64 1389,1314.68 1395.91,1315.42 1402.83,1316.93 1409.74,1319.29 1416.66,1322.6 1423.57,1326.95 1430.49,1332.46 1437.4,1339.25 1444.32,1347.43 1451.23,1357.11 1458.14,1368.4 1465.06,1381.4 1471.97,1396.17 1478.89,1412.79 1485.8,1431.29 1492.72,1451.67 1499.63,1473.89 1506.55,1497.86 1513.46,1523.45 1520.38,1550.44 1527.29,1578.56 1534.21,1607.45 1541.12,1636.71 1548.04,1665.85 1554.95,1694.35 1561.86,1721.66 1568.78,1747.21 1575.69,1770.48 1582.61,1790.98 1589.52,1808.32 1596.44,1822.21 1603.35,1832.45 1610.27,1838.99 1617.18,1841.91 1624.1,1841.36 1631.01,1837.6 1637.93,1830.98 1644.84,1821.85 1651.76,1810.6 1658.67,1797.63 1665.58,1783.28 1672.5,1767.9 1679.41,1751.78 1686.33,1735.18 1693.24,1718.31 1700.16,1701.37 1707.07,1684.52 1713.99,1667.9 1720.9,1651.65 1727.82,1635.89 1734.73,1620.76 1741.65,1606.39 1748.56,1592.91 1755.48,1580.47 1762.39,1569.23 1769.3,1559.33 1776.22,1550.93 1783.13,1544.19 1790.05,1539.27 1796.96,1536.31 1803.88,1535.45 1810.79,1536.83 1817.71,1540.55 1824.62,1546.69 1831.54,1555.3 1838.45,1566.38 1845.37,1579.91 1852.28,1595.77 1859.2,1613.81 1866.11,1633.79 1873.02,1655.39 1879.94,1678.23 1886.85,1701.82 1893.77,1725.64 1900.68,1749.1 1907.6,1771.57 1914.51,1792.44 1921.43,1811.12 1928.34,1827.05 1935.26,1839.8 1942.17,1849.02 1949.09,1854.49 1956,1856.13 1962.92,1853.99 1969.83,1848.23 1976.74,1839.11 1983.66,1826.96 1990.57,1812.17 1997.49,1795.13 2004.4,1776.26 2011.32,1755.95 2018.23,1734.54 2025.15,1712.37 2032.06,1689.72 2038.98,1666.8 2045.89,1643.84 2052.81,1620.98 2059.72,1598.38 2066.63,1576.14 2073.55,1554.38 2080.46,1533.2 2087.38,1512.68 2094.29,1492.93 2101.21,1474.03 2108.12,1456.1 2115.04,1439.22 2121.95,1423.5 2128.87,1409.03 2135.78,1395.9 2142.7,1384.21 2149.61,1374.03 2156.53,1365.44 2163.44,1358.49 2170.35,1353.25 2177.27,1349.74 2184.18,1348 2191.1,1348.06 2198.01,1349.93 2204.93,1353.6 2211.84,1359.06 2218.76,1366.3 2225.67,1375.28 2232.59,1385.95 2239.5,1398.25 2246.42,1412.11 2253.33,1427.44 2260.25,1444.14 2267.16,1462.1 2274.07,1481.18 2280.99,1501.26 2287.9,1522.21 2294.82,1543.86 2301.73,1566.08 2308.65,1588.72 2315.56,1611.62 2322.48,1634.63 2329.39,1657.59 2336.31,1680.32 2343.22,1702.65 2350.14,1724.38 2357.05,1745.29 2363.97,1765.14 2370.88,1783.67 2377.79,1800.59 2384.71,1815.59 2391.62,1828.38 2398.54,1838.63 2405.45,1846.05 2412.37,1850.4 2419.28,1851.47 2426.2,1849.13 2433.11,1843.36 2440.03,1834.2 2446.94,1821.84 2453.86,1806.55 2460.77,1788.7 2467.69,1768.75 2474.6,1747.21 2481.51,1724.62 2488.43,1701.55 2495.34,1678.53 2502.26,1656.08 2509.17,1634.66 2516.09,1614.69 2523,1596.48 2529.92,1580.33 2536.83,1566.43 2543.75,1554.93 2550.66,1545.91 2557.58,1539.43 2564.49,1535.46 2571.41,1533.97 2578.32,1534.89 2585.23,1538.11 2592.15,1543.51 2599.06,1550.95 2605.98,1560.26 2612.89,1571.27 2619.81,1583.79 2626.72,1597.63 2633.64,1612.59 2640.55,1628.46 2647.47,1645.04 2654.38,1662.13 2661.3,1679.53 2668.21,1697.05 2675.13,1714.48 2682.04,1731.64 2688.95,1748.34 2695.87,1764.38 2702.78,1779.53 2709.7,1793.58 2716.61,1806.27 2723.53,1817.35 2730.44,1826.54 2737.36,1833.55 2744.27,1838.1 2751.19,1839.92 2758.1,1838.78 2765.02,1834.5 2771.93,1826.96 2778.85,1816.13 2785.76,1802.07 2792.67,1784.92 2799.59,1764.94 2806.5,1742.46 2813.42,1717.87 2820.33,1691.63 2827.25,1664.23 2834.16,1636.14 2841.08,1607.84 2847.99,1579.77 2854.91,1552.33 2861.82,1525.87 2868.74,1500.66 2875.65,1476.94 2882.57,1454.87 2889.48,1434.57 2896.39,1416.1 2903.31,1399.51 2910.22,1384.78 2917.14,1371.88 2924.05,1360.76 2930.97,1351.35 2937.88,1343.57 2944.8,1337.32 2951.71,1332.5 2958.63,1329.02 2965.54,1326.76 2972.46,1325.63 2979.37,1325.53 2986.29,1326.38 2993.2,1328.11 3000.11,1330.66 3007.03,1334.01 3013.94,1338.15 3020.86,1343.12 3027.77,1348.97 3034.69,1355.79 3041.6,1363.71 3048.52,1372.86 3055.43,1383.41 3062.35,1395.55 3069.26,1409.45 3076.18,1425.29 3083.09,1443.25 3090.01,1463.44 3096.92,1485.96 3103.83,1510.82 3110.75,1537.98 3117.66,1567.28 3124.58,1598.46 3131.49,1631.11 3138.41,1664.7 3145.32,1698.55 3152.24,1731.83 3159.15,1763.64 3166.07,1792.95 3172.98,1818.78 3179.9,1840.17 3186.81,1856.31 3193.73,1866.58 3200.64,1870.67 3207.55,1868.55 3214.47,1860.51 3221.38,1847.16 3228.3,1829.3 3235.21,1807.96 3242.13,1784.19 3249.04,1759.08 3255.96,1733.65 3262.87,1708.77 3269.79,1685.17 3276.7,1663.4 3283.62,1643.82 3290.53,1626.62 3297.45,1611.85 3304.36,1599.42 3311.27,1589.13 3318.19,1580.73 3325.1,1573.89 3332.02,1568.31 3338.93,1563.67 3345.85,1559.69 3352.76,1556.17 3359.68,1552.93 3366.59,1549.92 3373.51,1547.14 3380.42,1544.66 3387.34,1542.62 3394.25,1541.21 3401.16,1540.67 3408.08,1541.24 3414.99,1543.19 3421.91,1546.8 3428.82,1552.32 3435.74,1559.99 3442.65,1570.02 3449.57,1582.55 3456.48,1597.67 3463.4,1615.39 3470.31,1635.63 3477.23,1658.14 3484.14,1682.58 3491.06,1708.42 3497.97,1734.98 3504.88,1761.4 3511.8,1786.71 3518.71,1809.83 3525.63,1829.64 3532.54,1845.09 3539.46,1855.22 3546.37,1859.32 3553.29,1856.96 3560.2,1848.05 3567.12,1832.83 3574.03,1811.9 3580.95,1786.08 3587.86,1756.41 3594.78,1723.99 3601.69,1689.94 3608.6,1655.28 3615.52,1620.94 3622.43,1587.63 3629.35,1555.93 3636.26,1526.22 3643.18,1498.72 3650.09,1473.51 3657.01,1450.58 3663.92,1429.82 3670.84,1411.06 3677.75,1394.1 3684.67,1378.69 3691.58,1364.59 3698.5,1351.58 3705.41,1339.4 3712.32,1327.85 3719.24,1316.72 3726.15,1305.82 3733.07,1294.99 3739.98,1284.09 3746.9,1273.01 3753.81,1261.68 3760.73,1250.06 3767.64,1238.14 3774.56,1225.97 3781.47,1213.64 3788.39,1201.27 3795.3,1189.04 3802.22,1177.13 3809.13,1165.76 3816.04,1155.18 3822.96,1145.63 3829.87,1137.37 3836.79,1130.62 3843.7,1125.65 3850.62,1122.68 3857.53,1121.95 3864.45,1123.66 3871.36,1128.06 3878.28,1135.34 3885.19,1145.73 3892.11,1159.45 3899.02,1176.69 3905.94,1197.66 3912.85,1222.52 3919.76,1251.38 3926.68,1284.3 3933.59,1321.21 3940.51,1361.91 3947.42,1406.02 3954.34,1452.94 3961.25,1501.82 3968.17,1551.54 3975.08,1600.75 3982,1647.9 3988.91,1691.33 3995.83,1729.42 4002.74,1760.72 4009.66,1784.15 4016.57,1799.07 4023.48,1805.45 4030.4,1803.79 4037.31,1795.17 4044.23,1781.05 4051.14,1763.12 4058.06,1743.2 4064.97,1722.98 4071.89,1703.98 4078.8,1687.44 4085.72,1674.23 4092.63,1664.92 4099.55,1659.67 4106.46,1658.34 4113.38,1660.46 4120.29,1665.24 4127.2,1671.69 4134.12,1678.58 4141.03,1684.62 4147.95,1688.49 4154.86,1689.03 4161.78,1685.33 4168.69,1676.8 4175.61,1663.3 4182.52,1645.08 4189.44,1622.77 4196.35,1597.3 4203.27,1569.75 4210.18,1541.31 4217.1,1513.12 4224.01,1486.23 4230.92,1461.56 4237.84,1439.87 4244.75,1421.79 4251.67,1407.82 4258.58,1398.34 4265.5,1393.68 4272.41,1394.1 4279.33,1399.81 4286.24,1410.97 4293.16,1427.7 4300.07,1450 4306.99,1477.79 4313.9,1510.79 4320.82,1548.51 4327.73,1590.16 4334.64,1634.61 4341.56,1680.38 4348.47,1725.63 4355.39,1768.23 4362.3,1805.91 4369.22,1836.48 4376.13,1858.02 4383.05,1869.16 4389.96,1869.28 4396.88,1858.57 4403.79,1838 4410.71,1809.21 4417.62,1774.29 4424.54,1735.48 4431.45,1694.97 4438.36,1654.73 4445.28,1616.33 4452.19,1580.98 4459.11,1549.45 4466.02,1522.14 4472.94,1499.13 4479.85,1480.25 4486.77,1465.1 4493.68,1453.13 4500.6,1443.69 4507.51,1436.05 "/>
<polyline clip-path="url(#clip072)" style="stroke:#ff00ff; stroke-linecap:round; stroke-linejoin:round; stroke-width:4; stroke-opacity:1; fill:none" stroke-dasharray="16, 10" points="1264.53,4912.73 1264.53,-1890.08 "/>
<path clip-path="url(#clip070)" d="M3964.86 1036.31 L4489.11 1036.31 L4489.11 453.111 L3964.86 453.111  Z" fill="#ffffff" fill-rule="evenodd" fill-opacity="1"/>
<polyline clip-path="url(#clip070)" style="stroke:#000000; stroke-linecap:round; stroke-linejoin:round; stroke-width:4; stroke-opacity:1; fill:none" points="3964.86,1036.31 4489.11,1036.31 4489.11,453.111 3964.86,453.111 3964.86,1036.31 "/>
<polyline clip-path="url(#clip070)" style="stroke:#009af9; stroke-linecap:round; stroke-linejoin:round; stroke-width:22.5; stroke-opacity:1; fill:none" points="4005.5,550.311 4249.33,550.311 "/>
<path clip-path="url(#clip070)" d="M4337.88 573.466 L4337.88 556.062 L4323.56 556.062 L4323.56 548.857 L4346.56 548.857 L4346.56 576.678 Q4341.48 580.281 4335.36 582.147 Q4329.24 583.97 4322.3 583.97 Q4307.11 583.97 4298.51 575.116 Q4289.96 566.218 4289.96 550.376 Q4289.96 534.491 4298.51 525.637 Q4307.11 516.739 4322.3 516.739 Q4328.64 516.739 4334.32 518.302 Q4340.05 519.864 4344.87 522.902 L4344.87 532.234 Q4340.01 528.111 4334.54 526.027 Q4329.07 523.944 4323.04 523.944 Q4311.14 523.944 4305.16 530.585 Q4299.21 537.225 4299.21 550.376 Q4299.21 563.484 4305.16 570.124 Q4311.14 576.765 4323.04 576.765 Q4327.68 576.765 4331.33 575.984 Q4334.97 575.159 4337.88 573.466 Z" fill="#000000" fill-rule="nonzero" fill-opacity="1" /><path clip-path="url(#clip070)" d="M4364.88 575.333 L4379.2 575.333 L4379.2 525.897 L4363.62 529.022 L4363.62 521.036 L4379.11 517.911 L4387.88 517.911 L4387.88 575.333 L4402.2 575.333 L4402.2 582.711 L4364.88 582.711 L4364.88 575.333 Z" fill="#000000" fill-rule="nonzero" fill-opacity="1" /><polyline clip-path="url(#clip070)" style="stroke:#e26f46; stroke-linecap:round; stroke-linejoin:round; stroke-width:22.5; stroke-opacity:1; fill:none" points="4005.5,647.511 4249.33,647.511 "/>
<path clip-path="url(#clip070)" d="M4337.88 670.666 L4337.88 653.262 L4323.56 653.262 L4323.56 646.057 L4346.56 646.057 L4346.56 673.878 Q4341.48 677.481 4335.36 679.347 Q4329.24 681.17 4322.3 681.17 Q4307.11 681.17 4298.51 672.316 Q4289.96 663.418 4289.96 647.576 Q4289.96 631.691 4298.51 622.837 Q4307.11 613.939 4322.3 613.939 Q4328.64 613.939 4334.32 615.502 Q4340.05 617.064 4344.87 620.102 L4344.87 629.434 Q4340.01 625.311 4334.54 623.227 Q4329.07 621.144 4323.04 621.144 Q4311.14 621.144 4305.16 627.785 Q4299.21 634.425 4299.21 647.576 Q4299.21 660.684 4305.16 667.324 Q4311.14 673.965 4323.04 673.965 Q4327.68 673.965 4331.33 673.184 Q4334.97 672.359 4337.88 670.666 Z" fill="#000000" fill-rule="nonzero" fill-opacity="1" /><path clip-path="url(#clip070)" d="M4370.91 672.533 L4401.51 672.533 L4401.51 679.911 L4360.36 679.911 L4360.36 672.533 Q4365.35 667.368 4373.95 658.687 Q4382.59 649.963 4384.8 647.446 Q4389.01 642.715 4390.66 639.46 Q4392.35 636.161 4392.35 632.993 Q4392.35 627.828 4388.71 624.573 Q4385.1 621.318 4379.29 621.318 Q4375.16 621.318 4370.56 622.75 Q4366.01 624.182 4360.8 627.09 L4360.8 618.236 Q4366.09 616.109 4370.69 615.024 Q4375.29 613.939 4379.11 613.939 Q4389.18 613.939 4395.17 618.974 Q4401.16 624.009 4401.16 632.429 Q4401.16 636.422 4399.64 640.024 Q4398.17 643.583 4394.22 648.444 Q4393.13 649.703 4387.32 655.736 Q4381.5 661.726 4370.91 672.533 Z" fill="#000000" fill-rule="nonzero" fill-opacity="1" /><polyline clip-path="url(#clip070)" style="stroke:#3da44d; stroke-linecap:round; stroke-linejoin:round; stroke-width:22.5; stroke-opacity:1; fill:none" points="4005.5,744.711 4249.33,744.711 "/>
<path clip-path="url(#clip070)" d="M4337.88 767.866 L4337.88 750.462 L4323.56 750.462 L4323.56 743.257 L4346.56 743.257 L4346.56 771.078 Q4341.48 774.681 4335.36 776.547 Q4329.24 778.37 4322.3 778.37 Q4307.11 778.37 4298.51 769.516 Q4289.96 760.618 4289.96 744.776 Q4289.96 728.891 4298.51 720.037 Q4307.11 711.139 4322.3 711.139 Q4328.64 711.139 4334.32 712.702 Q4340.05 714.264 4344.87 717.302 L4344.87 726.634 Q4340.01 722.511 4334.54 720.427 Q4329.07 718.344 4323.04 718.344 Q4311.14 718.344 4305.16 724.985 Q4299.21 731.625 4299.21 744.776 Q4299.21 757.884 4305.16 764.524 Q4311.14 771.165 4323.04 771.165 Q4327.68 771.165 4331.33 770.384 Q4334.97 769.559 4337.88 767.866 Z" fill="#000000" fill-rule="nonzero" fill-opacity="1" /><path clip-path="url(#clip070)" d="M4389.92 742.172 Q4396.21 743.518 4399.73 747.771 Q4403.29 752.025 4403.29 758.274 Q4403.29 767.866 4396.69 773.118 Q4390.09 778.37 4377.94 778.37 Q4373.86 778.37 4369.52 777.545 Q4365.22 776.764 4360.62 775.158 L4360.62 766.695 Q4364.27 768.821 4368.61 769.906 Q4372.95 770.991 4377.68 770.991 Q4385.93 770.991 4390.22 767.736 Q4394.56 764.481 4394.56 758.274 Q4394.56 752.545 4390.53 749.334 Q4386.54 746.078 4379.37 746.078 L4371.82 746.078 L4371.82 738.874 L4379.72 738.874 Q4386.19 738.874 4389.62 736.313 Q4393.05 733.709 4393.05 728.848 Q4393.05 723.856 4389.49 721.209 Q4385.97 718.518 4379.37 718.518 Q4375.77 718.518 4371.65 719.299 Q4367.52 720.08 4362.58 721.73 L4362.58 713.917 Q4367.57 712.528 4371.91 711.834 Q4376.29 711.139 4380.16 711.139 Q4390.14 711.139 4395.95 715.697 Q4401.77 720.21 4401.77 727.936 Q4401.77 733.318 4398.69 737.051 Q4395.61 740.74 4389.92 742.172 Z" fill="#000000" fill-rule="nonzero" fill-opacity="1" /><polyline clip-path="url(#clip070)" style="stroke:#000000; stroke-linecap:round; stroke-linejoin:round; stroke-width:15; stroke-opacity:1; fill:none" points="4005.5,841.911 4249.33,841.911 "/>
<path clip-path="url(#clip070)" d="M4342.22 814.502 L4342.22 823.747 Q4337.79 819.624 4332.76 817.584 Q4327.77 815.544 4322.13 815.544 Q4311.01 815.544 4305.11 822.358 Q4299.21 829.129 4299.21 841.976 Q4299.21 854.78 4305.11 861.594 Q4311.01 868.365 4322.13 868.365 Q4327.77 868.365 4332.76 866.325 Q4337.79 864.285 4342.22 860.162 L4342.22 869.32 Q4337.62 872.445 4332.46 874.007 Q4327.33 875.57 4321.61 875.57 Q4306.89 875.57 4298.43 866.586 Q4289.96 857.558 4289.96 841.976 Q4289.96 826.351 4298.43 817.367 Q4306.89 808.339 4321.61 808.339 Q4327.42 808.339 4332.54 809.902 Q4337.71 811.421 4342.22 814.502 Z" fill="#000000" fill-rule="nonzero" fill-opacity="1" /><path clip-path="url(#clip070)" d="M4382.06 815.457 Q4372.52 815.457 4366.87 822.575 Q4361.27 829.693 4361.27 841.976 Q4361.27 854.216 4366.87 861.334 Q4372.52 868.452 4382.06 868.452 Q4391.61 868.452 4397.17 861.334 Q4402.77 854.216 4402.77 841.976 Q4402.77 829.693 4397.17 822.575 Q4391.61 815.457 4382.06 815.457 M4382.06 808.339 Q4395.69 808.339 4403.85 817.497 Q4412.01 826.612 4412.01 841.976 Q4412.01 857.297 4403.85 866.455 Q4395.69 875.57 4382.06 875.57 Q4368.39 875.57 4360.19 866.455 Q4352.03 857.341 4352.03 841.976 Q4352.03 826.612 4360.19 817.497 Q4368.39 808.339 4382.06 808.339 Z" fill="#000000" fill-rule="nonzero" fill-opacity="1" /><path clip-path="url(#clip070)" d="M4425.73 809.511 L4434.5 809.511 L4434.5 874.311 L4425.73 874.311 L4425.73 809.511 Z" fill="#000000" fill-rule="nonzero" fill-opacity="1" /><polyline clip-path="url(#clip070)" style="stroke:#ff00ff; stroke-linecap:round; stroke-linejoin:round; stroke-width:7.5; stroke-opacity:1; fill:none" stroke-dasharray="30, 19" points="4005.5,939.111 4249.33,939.111 "/>
<path clip-path="url(#clip070)" d="M4303.85 909.098 L4303.85 922.9 L4320.3 922.9 L4320.3 929.107 L4303.85 929.107 L4303.85 955.496 Q4303.85 961.442 4305.46 963.134 Q4307.11 964.827 4312.1 964.827 L4320.3 964.827 L4320.3 971.511 L4312.1 971.511 Q4302.86 971.511 4299.34 968.082 Q4295.82 964.61 4295.82 955.496 L4295.82 929.107 L4289.96 929.107 L4289.96 922.9 L4295.82 922.9 L4295.82 909.098 L4303.85 909.098 Z" fill="#000000" fill-rule="nonzero" fill-opacity="1" /><path clip-path="url(#clip070)" d="M4367.74 986.268 L4367.74 992.475 L4321.56 992.475 L4321.56 986.268 L4367.74 986.268 Z" fill="#000000" fill-rule="nonzero" fill-opacity="1" /><path clip-path="url(#clip070)" d="M4410.23 924.767 L4410.23 932.232 Q4406.85 930.366 4403.42 929.454 Q4400.03 928.499 4396.56 928.499 Q4388.79 928.499 4384.5 933.447 Q4380.2 938.352 4380.2 947.249 Q4380.2 956.147 4384.5 961.095 Q4388.79 965.999 4396.56 965.999 Q4400.03 965.999 4403.42 965.088 Q4406.85 964.133 4410.23 962.266 L4410.23 969.645 Q4406.89 971.207 4403.29 971.989 Q4399.73 972.77 4395.69 972.77 Q4384.71 972.77 4378.25 965.869 Q4371.78 958.968 4371.78 947.249 Q4371.78 935.357 4378.29 928.543 Q4384.84 921.728 4396.21 921.728 Q4399.9 921.728 4403.42 922.51 Q4406.93 923.248 4410.23 924.767 Z" fill="#000000" fill-rule="nonzero" fill-opacity="1" /><path clip-path="url(#clip070)" d="M4432.02 909.098 L4432.02 922.9 L4448.47 922.9 L4448.47 929.107 L4432.02 929.107 L4432.02 955.496 Q4432.02 961.442 4433.63 963.134 Q4435.28 964.827 4440.27 964.827 L4448.47 964.827 L4448.47 971.511 L4440.27 971.511 Q4431.02 971.511 4427.51 968.082 Q4423.99 964.61 4423.99 955.496 L4423.99 929.107 L4418.13 929.107 L4418.13 922.9 L4423.99 922.9 L4423.99 909.098 L4432.02 909.098 Z" fill="#000000" fill-rule="nonzero" fill-opacity="1" /></svg>
