<?xml version="1.0" encoding="utf-8"?>
<svg xmlns="http://www.w3.org/2000/svg" xmlns:xlink="http://www.w3.org/1999/xlink" width="1200" height="800" viewBox="0 0 4800 3200">
<defs>
  <clipPath id="clip110">
    <rect x="0" y="0" width="4800" height="3200"/>
  </clipPath>
</defs>
<path clip-path="url(#clip110)" d="M0 3200 L4800 3200 L4800 0 L0 0  Z" fill="#ffffff" fill-rule="evenodd" fill-opacity="1"/>
<defs>
  <clipPath id="clip111">
    <rect x="960" y="0" width="3361" height="3200"/>
  </clipPath>
</defs>
<path clip-path="url(#clip110)" d="M953.582 2645.13 L4611.02 2645.13 L4611.02 377.524 L953.582 377.524  Z" fill="#ffffff" fill-rule="evenodd" fill-opacity="1"/>
<defs>
  <clipPath id="clip112">
    <rect x="953" y="377" width="3658" height="2269"/>
  </clipPath>
</defs>
<polyline clip-path="url(#clip112)" style="stroke:#000000; stroke-linecap:round; stroke-linejoin:round; stroke-width:8; stroke-opacity:0.05; fill:none" stroke-dasharray="32, 20" points="1050.18,2645.13 1050.18,377.524 "/>
<polyline clip-path="url(#clip112)" style="stroke:#000000; stroke-linecap:round; stroke-linejoin:round; stroke-width:8; stroke-opacity:0.05; fill:none" stroke-dasharray="32, 20" points="1741.65,2645.13 1741.65,377.524 "/>
<polyline clip-path="url(#clip112)" style="stroke:#000000; stroke-linecap:round; stroke-linejoin:round; stroke-width:8; stroke-opacity:0.05; fill:none" stroke-dasharray="32, 20" points="2433.11,2645.13 2433.11,377.524 "/>
<polyline clip-path="url(#clip112)" style="stroke:#000000; stroke-linecap:round; stroke-linejoin:round; stroke-width:8; stroke-opacity:0.05; fill:none" stroke-dasharray="32, 20" points="3124.58,2645.13 3124.58,377.524 "/>
<polyline clip-path="url(#clip112)" style="stroke:#000000; stroke-linecap:round; stroke-linejoin:round; stroke-width:8; stroke-opacity:0.05; fill:none" stroke-dasharray="32, 20" points="3816.04,2645.13 3816.04,377.524 "/>
<polyline clip-path="url(#clip112)" style="stroke:#000000; stroke-linecap:round; stroke-linejoin:round; stroke-width:8; stroke-opacity:0.05; fill:none" stroke-dasharray="32, 20" points="4507.51,2645.13 4507.51,377.524 "/>
<polyline clip-path="url(#clip112)" style="stroke:#000000; stroke-linecap:round; stroke-linejoin:round; stroke-width:8; stroke-opacity:0.05; fill:none" stroke-dasharray="32, 20" points="953.582,2457.09 4611.02,2457.09 "/>
<polyline clip-path="url(#clip112)" style="stroke:#000000; stroke-linecap:round; stroke-linejoin:round; stroke-width:8; stroke-opacity:0.05; fill:none" stroke-dasharray="32, 20" points="953.582,2022.38 4611.02,2022.38 "/>
<polyline clip-path="url(#clip112)" style="stroke:#000000; stroke-linecap:round; stroke-linejoin:round; stroke-width:8; stroke-opacity:0.05; fill:none" stroke-dasharray="32, 20" points="953.582,1587.68 4611.02,1587.68 "/>
<polyline clip-path="url(#clip112)" style="stroke:#000000; stroke-linecap:round; stroke-linejoin:round; stroke-width:8; stroke-opacity:0.05; fill:none" stroke-dasharray="32, 20" points="953.582,1152.97 4611.02,1152.97 "/>
<polyline clip-path="url(#clip112)" style="stroke:#000000; stroke-linecap:round; stroke-linejoin:round; stroke-width:8; stroke-opacity:0.05; fill:none" stroke-dasharray="32, 20" points="953.582,718.26 4611.02,718.26 "/>
<polyline clip-path="url(#clip110)" style="stroke:#000000; stroke-linecap:round; stroke-linejoin:round; stroke-width:4; stroke-opacity:1; fill:none" points="953.582,2645.13 4611.02,2645.13 "/>
<polyline clip-path="url(#clip110)" style="stroke:#000000; stroke-linecap:round; stroke-linejoin:round; stroke-width:4; stroke-opacity:1; fill:none" points="1050.18,2645.13 1050.18,2626.23 "/>
<polyline clip-path="url(#clip110)" style="stroke:#000000; stroke-linecap:round; stroke-linejoin:round; stroke-width:4; stroke-opacity:1; fill:none" points="1741.65,2645.13 1741.65,2626.23 "/>
<polyline clip-path="url(#clip110)" style="stroke:#000000; stroke-linecap:round; stroke-linejoin:round; stroke-width:4; stroke-opacity:1; fill:none" points="2433.11,2645.13 2433.11,2626.23 "/>
<polyline clip-path="url(#clip110)" style="stroke:#000000; stroke-linecap:round; stroke-linejoin:round; stroke-width:4; stroke-opacity:1; fill:none" points="3124.58,2645.13 3124.58,2626.23 "/>
<polyline clip-path="url(#clip110)" style="stroke:#000000; stroke-linecap:round; stroke-linejoin:round; stroke-width:4; stroke-opacity:1; fill:none" points="3816.04,2645.13 3816.04,2626.23 "/>
<polyline clip-path="url(#clip110)" style="stroke:#000000; stroke-linecap:round; stroke-linejoin:round; stroke-width:4; stroke-opacity:1; fill:none" points="4507.51,2645.13 4507.51,2626.23 "/>
<path clip-path="url(#clip110)" d="M1050.18 2734.8 Q1034.38 2734.8 1026.38 2750.39 Q1018.48 2765.89 1018.48 2797.08 Q1018.48 2828.17 1026.38 2843.77 Q1034.38 2859.26 1050.18 2859.26 Q1066.08 2859.26 1073.98 2843.77 Q1081.98 2828.17 1081.98 2797.08 Q1081.98 2765.89 1073.98 2750.39 Q1066.08 2734.8 1050.18 2734.8 M1050.18 2718.59 Q1075.6 2718.59 1088.97 2738.75 Q1102.44 2758.8 1102.44 2797.08 Q1102.44 2835.26 1088.97 2855.41 Q1075.6 2875.46 1050.18 2875.46 Q1024.76 2875.46 1011.29 2855.41 Q997.923 2835.26 997.923 2797.08 Q997.923 2758.8 1011.29 2738.75 Q1024.76 2718.59 1050.18 2718.59 Z" fill="#000000" fill-rule="nonzero" fill-opacity="1" /><path clip-path="url(#clip110)" d="M1699.57 2855.31 L1732.99 2855.31 L1732.99 2739.96 L1696.63 2747.25 L1696.63 2728.62 L1732.78 2721.33 L1753.24 2721.33 L1753.24 2855.31 L1786.66 2855.31 L1786.66 2872.53 L1699.57 2872.53 L1699.57 2855.31 Z" fill="#000000" fill-rule="nonzero" fill-opacity="1" /><path clip-path="url(#clip110)" d="M2409.72 2855.31 L2481.12 2855.31 L2481.12 2872.53 L2385.11 2872.53 L2385.11 2855.31 Q2396.76 2843.26 2416.81 2823.01 Q2436.96 2802.65 2442.13 2796.78 Q2451.95 2785.74 2455.8 2778.14 Q2459.75 2770.44 2459.75 2763.05 Q2459.75 2751 2451.24 2743.4 Q2442.83 2735.81 2429.26 2735.81 Q2419.64 2735.81 2408.91 2739.15 Q2398.27 2742.49 2386.12 2749.28 L2386.12 2728.62 Q2398.48 2723.66 2409.21 2721.13 Q2419.95 2718.59 2428.86 2718.59 Q2452.35 2718.59 2466.33 2730.34 Q2480.31 2742.09 2480.31 2761.74 Q2480.31 2771.05 2476.76 2779.46 Q2473.32 2787.76 2464.1 2799.1 Q2461.57 2802.04 2448 2816.12 Q2434.43 2830.09 2409.72 2855.31 Z" fill="#000000" fill-rule="nonzero" fill-opacity="1" /><path clip-path="url(#clip110)" d="M3143.16 2791 Q3157.85 2794.14 3166.05 2804.07 Q3174.35 2813.99 3174.35 2828.58 Q3174.35 2850.96 3158.96 2863.21 Q3143.57 2875.46 3115.21 2875.46 Q3105.69 2875.46 3095.56 2873.54 Q3085.54 2871.72 3074.8 2867.97 L3074.8 2848.22 Q3083.31 2853.18 3093.44 2855.72 Q3103.56 2858.25 3114.6 2858.25 Q3133.84 2858.25 3143.87 2850.65 Q3154 2843.06 3154 2828.58 Q3154 2815.21 3144.58 2807.71 Q3135.26 2800.12 3118.55 2800.12 L3100.93 2800.12 L3100.93 2783.31 L3119.36 2783.31 Q3134.45 2783.31 3142.45 2777.33 Q3150.45 2771.25 3150.45 2759.91 Q3150.45 2748.27 3142.15 2742.09 Q3133.95 2735.81 3118.55 2735.81 Q3110.15 2735.81 3100.53 2737.63 Q3090.91 2739.46 3079.36 2743.3 L3079.36 2725.07 Q3091.01 2721.83 3101.13 2720.21 Q3111.36 2718.59 3120.38 2718.59 Q3143.67 2718.59 3157.24 2729.23 Q3170.81 2739.76 3170.81 2757.79 Q3170.81 2770.34 3163.62 2779.05 Q3156.43 2787.66 3143.16 2791 Z" fill="#000000" fill-rule="nonzero" fill-opacity="1" /><path clip-path="url(#clip110)" d="M3829.21 2739.15 L3777.56 2819.87 L3829.21 2819.87 L3829.21 2739.15 M3823.84 2721.33 L3849.57 2721.33 L3849.57 2819.87 L3871.14 2819.87 L3871.14 2836.88 L3849.57 2836.88 L3849.57 2872.53 L3829.21 2872.53 L3829.21 2836.88 L3760.95 2836.88 L3760.95 2817.13 L3823.84 2721.33 Z" fill="#000000" fill-rule="nonzero" fill-opacity="1" /><path clip-path="url(#clip110)" d="M4464.98 2721.33 L4545.29 2721.33 L4545.29 2738.54 L4483.71 2738.54 L4483.71 2775.61 Q4488.17 2774.09 4492.62 2773.38 Q4497.08 2772.57 4501.54 2772.57 Q4526.85 2772.57 4541.64 2786.45 Q4556.43 2800.32 4556.43 2824.02 Q4556.43 2848.42 4541.23 2862 Q4526.04 2875.46 4498.4 2875.46 Q4488.88 2875.46 4478.95 2873.84 Q4469.13 2872.22 4458.6 2868.98 L4458.6 2848.42 Q4467.71 2853.39 4477.43 2855.82 Q4487.16 2858.25 4497.99 2858.25 Q4515.51 2858.25 4525.74 2849.03 Q4535.97 2839.82 4535.97 2824.02 Q4535.97 2808.22 4525.74 2799 Q4515.51 2789.79 4497.99 2789.79 Q4489.79 2789.79 4481.59 2791.61 Q4473.48 2793.43 4464.98 2797.28 L4464.98 2721.33 Z" fill="#000000" fill-rule="nonzero" fill-opacity="1" /><path clip-path="url(#clip110)" d="M2617.84 2979.74 L2617.84 3011.94 L2656.22 3011.94 L2656.22 3026.42 L2617.84 3026.42 L2617.84 3088 Q2617.84 3101.87 2621.58 3105.82 Q2625.43 3109.77 2637.08 3109.77 L2656.22 3109.77 L2656.22 3125.37 L2637.08 3125.37 Q2615.51 3125.37 2607.3 3117.37 Q2599.1 3109.27 2599.1 3088 L2599.1 3026.42 L2585.43 3026.42 L2585.43 3011.94 L2599.1 3011.94 L2599.1 2979.74 L2617.84 2979.74 Z" fill="#000000" fill-rule="nonzero" fill-opacity="1" /><path clip-path="url(#clip110)" d="M2791.42 2967.99 Q2777.85 2991.28 2771.26 3014.07 Q2764.68 3036.86 2764.68 3060.25 Q2764.68 3083.64 2771.26 3106.63 Q2777.95 3129.52 2791.42 3152.71 L2775.21 3152.71 Q2760.02 3128.91 2752.43 3105.92 Q2744.93 3082.93 2744.93 3060.25 Q2744.93 3037.67 2752.43 3014.78 Q2759.92 2991.89 2775.21 2967.99 L2791.42 2967.99 Z" fill="#000000" fill-rule="nonzero" fill-opacity="1" /><path clip-path="url(#clip110)" d="M2899.88 3015.28 L2899.88 3032.91 Q2891.98 3028.85 2883.47 3026.83 Q2874.97 3024.8 2865.85 3024.8 Q2851.98 3024.8 2844.99 3029.06 Q2838.1 3033.31 2838.1 3041.82 Q2838.1 3048.3 2843.07 3052.05 Q2848.03 3055.69 2863.02 3059.03 L2869.4 3060.45 Q2889.25 3064.71 2897.55 3072.5 Q2905.96 3080.2 2905.96 3094.07 Q2905.96 3109.87 2893.4 3119.09 Q2880.94 3128.3 2859.07 3128.3 Q2849.95 3128.3 2840.03 3126.48 Q2830.2 3124.76 2819.27 3121.22 L2819.27 3101.97 Q2829.6 3107.34 2839.62 3110.08 Q2849.65 3112.71 2859.47 3112.71 Q2872.64 3112.71 2879.73 3108.25 Q2886.82 3103.7 2886.82 3095.49 Q2886.82 3087.9 2881.65 3083.85 Q2876.59 3079.79 2859.27 3076.05 L2852.79 3074.53 Q2835.47 3070.88 2827.77 3063.39 Q2820.08 3055.79 2820.08 3042.63 Q2820.08 3026.63 2831.42 3017.92 Q2842.76 3009.21 2863.62 3009.21 Q2873.95 3009.21 2883.07 3010.73 Q2892.18 3012.25 2899.88 3015.28 Z" fill="#000000" fill-rule="nonzero" fill-opacity="1" /><path clip-path="url(#clip110)" d="M2932.69 2967.99 L2948.9 2967.99 Q2964.09 2991.89 2971.58 3014.78 Q2979.18 3037.67 2979.18 3060.25 Q2979.18 3082.93 2971.58 3105.92 Q2964.09 3128.91 2948.9 3152.71 L2932.69 3152.71 Q2946.16 3129.52 2952.74 3106.63 Q2959.43 3083.64 2959.43 3060.25 Q2959.43 3036.86 2952.74 3014.07 Q2946.16 2991.28 2932.69 2967.99 Z" fill="#000000" fill-rule="nonzero" fill-opacity="1" /><polyline clip-path="url(#clip110)" style="stroke:#000000; stroke-linecap:round; stroke-linejoin:round; stroke-width:4; stroke-opacity:1; fill:none" points="953.582,2645.13 953.582,377.524 "/>
<polyline clip-path="url(#clip110)" style="stroke:#000000; stroke-linecap:round; stroke-linejoin:round; stroke-width:4; stroke-opacity:1; fill:none" points="953.582,2457.09 972.479,2457.09 "/>
<polyline clip-path="url(#clip110)" style="stroke:#000000; stroke-linecap:round; stroke-linejoin:round; stroke-width:4; stroke-opacity:1; fill:none" points="953.582,2022.38 972.479,2022.38 "/>
<polyline clip-path="url(#clip110)" style="stroke:#000000; stroke-linecap:round; stroke-linejoin:round; stroke-width:4; stroke-opacity:1; fill:none" points="953.582,1587.68 972.479,1587.68 "/>
<polyline clip-path="url(#clip110)" style="stroke:#000000; stroke-linecap:round; stroke-linejoin:round; stroke-width:4; stroke-opacity:1; fill:none" points="953.582,1152.97 972.479,1152.97 "/>
<polyline clip-path="url(#clip110)" style="stroke:#000000; stroke-linecap:round; stroke-linejoin:round; stroke-width:4; stroke-opacity:1; fill:none" points="953.582,718.26 972.479,718.26 "/>
<path clip-path="url(#clip110)" d="M347.672 2459.07 L477.504 2459.07 L477.504 2476.28 L347.672 2476.28 L347.672 2459.07 Z" fill="#000000" fill-rule="nonzero" fill-opacity="1" /><path clip-path="url(#clip110)" d="M539.28 2515.48 L610.677 2515.48 L610.677 2532.69 L514.671 2532.69 L514.671 2515.48 Q526.317 2503.42 546.369 2483.17 Q566.523 2462.81 571.687 2456.94 Q581.511 2445.9 585.359 2438.31 Q589.309 2430.61 589.309 2423.22 Q589.309 2411.17 580.802 2403.57 Q572.396 2395.97 558.826 2395.97 Q549.205 2395.97 538.47 2399.32 Q527.836 2402.66 515.684 2409.44 L515.684 2388.78 Q528.039 2383.82 538.774 2381.29 Q549.509 2378.76 558.421 2378.76 Q581.916 2378.76 595.892 2390.51 Q609.867 2402.25 609.867 2421.9 Q609.867 2431.22 606.323 2439.62 Q602.879 2447.93 593.664 2459.27 Q591.132 2462.21 577.561 2476.28 Q563.991 2490.26 539.28 2515.48 Z" fill="#000000" fill-rule="nonzero" fill-opacity="1" /><path clip-path="url(#clip110)" d="M697.367 2394.96 Q681.568 2394.96 673.568 2410.56 Q665.668 2426.05 665.668 2457.24 Q665.668 2488.34 673.568 2503.93 Q681.568 2519.43 697.367 2519.43 Q713.267 2519.43 721.166 2503.93 Q729.166 2488.34 729.166 2457.24 Q729.166 2426.05 721.166 2410.56 Q713.267 2394.96 697.367 2394.96 M697.367 2378.76 Q722.786 2378.76 736.154 2398.91 Q749.623 2418.96 749.623 2457.24 Q749.623 2495.42 736.154 2515.58 Q722.786 2535.63 697.367 2535.63 Q671.947 2535.63 658.478 2515.58 Q645.11 2495.42 645.11 2457.24 Q645.11 2418.96 658.478 2398.91 Q671.947 2378.76 697.367 2378.76 Z" fill="#000000" fill-rule="nonzero" fill-opacity="1" /><path clip-path="url(#clip110)" d="M829.325 2394.96 Q813.526 2394.96 805.526 2410.56 Q797.627 2426.05 797.627 2457.24 Q797.627 2488.34 805.526 2503.93 Q813.526 2519.43 829.325 2519.43 Q845.225 2519.43 853.124 2503.93 Q861.125 2488.34 861.125 2457.24 Q861.125 2426.05 853.124 2410.56 Q845.225 2394.96 829.325 2394.96 M829.325 2378.76 Q854.744 2378.76 868.112 2398.91 Q881.582 2418.96 881.582 2457.24 Q881.582 2495.42 868.112 2515.58 Q854.744 2535.63 829.325 2535.63 Q803.906 2535.63 790.436 2515.58 Q777.068 2495.42 777.068 2457.24 Q777.068 2418.96 790.436 2398.91 Q803.906 2378.76 829.325 2378.76 Z" fill="#000000" fill-rule="nonzero" fill-opacity="1" /><path clip-path="url(#clip110)" d="M347.672 2024.36 L477.504 2024.36 L477.504 2041.58 L347.672 2041.58 L347.672 2024.36 Z" fill="#000000" fill-rule="nonzero" fill-opacity="1" /><path clip-path="url(#clip110)" d="M525.203 2080.77 L558.623 2080.77 L558.623 1965.42 L522.266 1972.71 L522.266 1954.08 L558.421 1946.78 L578.878 1946.78 L578.878 2080.77 L612.298 2080.77 L612.298 2097.98 L525.203 2097.98 L525.203 2080.77 Z" fill="#000000" fill-rule="nonzero" fill-opacity="1" /><path clip-path="url(#clip110)" d="M697.367 1960.25 Q681.568 1960.25 673.568 1975.85 Q665.668 1991.34 665.668 2022.54 Q665.668 2053.63 673.568 2069.22 Q681.568 2084.72 697.367 2084.72 Q713.267 2084.72 721.166 2069.22 Q729.166 2053.63 729.166 2022.54 Q729.166 1991.34 721.166 1975.85 Q713.267 1960.25 697.367 1960.25 M697.367 1944.05 Q722.786 1944.05 736.154 1964.2 Q749.623 1984.26 749.623 2022.54 Q749.623 2060.72 736.154 2080.87 Q722.786 2100.92 697.367 2100.92 Q671.947 2100.92 658.478 2080.87 Q645.11 2060.72 645.11 2022.54 Q645.11 1984.26 658.478 1964.2 Q671.947 1944.05 697.367 1944.05 Z" fill="#000000" fill-rule="nonzero" fill-opacity="1" /><path clip-path="url(#clip110)" d="M829.325 1960.25 Q813.526 1960.25 805.526 1975.85 Q797.627 1991.34 797.627 2022.54 Q797.627 2053.63 805.526 2069.22 Q813.526 2084.72 829.325 2084.72 Q845.225 2084.72 853.124 2069.22 Q861.125 2053.63 861.125 2022.54 Q861.125 1991.34 853.124 1975.85 Q845.225 1960.25 829.325 1960.25 M829.325 1944.05 Q854.744 1944.05 868.112 1964.2 Q881.582 1984.26 881.582 2022.54 Q881.582 2060.72 868.112 2080.87 Q854.744 2100.92 829.325 2100.92 Q803.906 2100.92 790.436 2080.87 Q777.068 2060.72 777.068 2022.54 Q777.068 1984.26 790.436 1964.2 Q803.906 1944.05 829.325 1944.05 Z" fill="#000000" fill-rule="nonzero" fill-opacity="1" /><path clip-path="url(#clip110)" d="M829.325 1525.55 Q813.526 1525.55 805.526 1541.14 Q797.627 1556.64 797.627 1587.83 Q797.627 1618.92 805.526 1634.52 Q813.526 1650.01 829.325 1650.01 Q845.225 1650.01 853.124 1634.52 Q861.125 1618.92 861.125 1587.83 Q861.125 1556.64 853.124 1541.14 Q845.225 1525.55 829.325 1525.55 M829.325 1509.34 Q854.744 1509.34 868.112 1529.5 Q881.582 1549.55 881.582 1587.83 Q881.582 1626.01 868.112 1646.16 Q854.744 1666.21 829.325 1666.21 Q803.906 1666.21 790.436 1646.16 Q777.068 1626.01 777.068 1587.83 Q777.068 1549.55 790.436 1529.5 Q803.906 1509.34 829.325 1509.34 Z" fill="#000000" fill-rule="nonzero" fill-opacity="1" /><path clip-path="url(#clip110)" d="M525.203 1211.35 L558.623 1211.35 L558.623 1096 L522.266 1103.29 L522.266 1084.66 L558.421 1077.37 L578.878 1077.37 L578.878 1211.35 L612.298 1211.35 L612.298 1228.57 L525.203 1228.57 L525.203 1211.35 Z" fill="#000000" fill-rule="nonzero" fill-opacity="1" /><path clip-path="url(#clip110)" d="M697.367 1090.84 Q681.568 1090.84 673.568 1106.43 Q665.668 1121.93 665.668 1153.12 Q665.668 1184.21 673.568 1199.81 Q681.568 1215.3 697.367 1215.3 Q713.267 1215.3 721.166 1199.81 Q729.166 1184.21 729.166 1153.12 Q729.166 1121.93 721.166 1106.43 Q713.267 1090.84 697.367 1090.84 M697.367 1074.63 Q722.786 1074.63 736.154 1094.79 Q749.623 1114.84 749.623 1153.12 Q749.623 1191.3 736.154 1211.45 Q722.786 1231.51 697.367 1231.51 Q671.947 1231.51 658.478 1211.45 Q645.11 1191.3 645.11 1153.12 Q645.11 1114.84 658.478 1094.79 Q671.947 1074.63 697.367 1074.63 Z" fill="#000000" fill-rule="nonzero" fill-opacity="1" /><path clip-path="url(#clip110)" d="M829.325 1090.84 Q813.526 1090.84 805.526 1106.43 Q797.627 1121.93 797.627 1153.12 Q797.627 1184.21 805.526 1199.81 Q813.526 1215.3 829.325 1215.3 Q845.225 1215.3 853.124 1199.81 Q861.125 1184.21 861.125 1153.12 Q861.125 1121.93 853.124 1106.43 Q845.225 1090.84 829.325 1090.84 M829.325 1074.63 Q854.744 1074.63 868.112 1094.79 Q881.582 1114.84 881.582 1153.12 Q881.582 1191.3 868.112 1211.45 Q854.744 1231.51 829.325 1231.51 Q803.906 1231.51 790.436 1211.45 Q777.068 1191.3 777.068 1153.12 Q777.068 1114.84 790.436 1094.79 Q803.906 1074.63 829.325 1074.63 Z" fill="#000000" fill-rule="nonzero" fill-opacity="1" /><path clip-path="url(#clip110)" d="M539.28 776.644 L610.677 776.644 L610.677 793.86 L514.671 793.86 L514.671 776.644 Q526.317 764.593 546.369 744.338 Q566.523 723.982 571.687 718.108 Q581.511 707.07 585.359 699.474 Q589.309 691.778 589.309 684.385 Q589.309 672.333 580.802 664.738 Q572.396 657.142 558.826 657.142 Q549.205 657.142 538.47 660.484 Q527.836 663.826 515.684 670.612 L515.684 649.952 Q528.039 644.99 538.774 642.458 Q549.509 639.926 558.421 639.926 Q581.916 639.926 595.892 651.674 Q609.867 663.421 609.867 683.068 Q609.867 692.385 606.323 700.791 Q602.879 709.095 593.664 720.438 Q591.132 723.375 577.561 737.452 Q563.991 751.427 539.28 776.644 Z" fill="#000000" fill-rule="nonzero" fill-opacity="1" /><path clip-path="url(#clip110)" d="M697.367 656.13 Q681.568 656.13 673.568 671.726 Q665.668 687.22 665.668 718.412 Q665.668 749.503 673.568 765.099 Q681.568 780.594 697.367 780.594 Q713.267 780.594 721.166 765.099 Q729.166 749.503 729.166 718.412 Q729.166 687.22 721.166 671.726 Q713.267 656.13 697.367 656.13 M697.367 639.926 Q722.786 639.926 736.154 660.079 Q749.623 680.131 749.623 718.412 Q749.623 756.592 736.154 776.745 Q722.786 796.797 697.367 796.797 Q671.947 796.797 658.478 776.745 Q645.11 756.592 645.11 718.412 Q645.11 680.131 658.478 660.079 Q671.947 639.926 697.367 639.926 Z" fill="#000000" fill-rule="nonzero" fill-opacity="1" /><path clip-path="url(#clip110)" d="M829.325 656.13 Q813.526 656.13 805.526 671.726 Q797.627 687.22 797.627 718.412 Q797.627 749.503 805.526 765.099 Q813.526 780.594 829.325 780.594 Q845.225 780.594 853.124 765.099 Q861.125 749.503 861.125 718.412 Q861.125 687.22 853.124 671.726 Q845.225 656.13 829.325 656.13 M829.325 639.926 Q854.744 639.926 868.112 660.079 Q881.582 680.131 881.582 718.412 Q881.582 756.592 868.112 776.745 Q854.744 796.797 829.325 796.797 Q803.906 796.797 790.436 776.745 Q777.068 756.592 777.068 718.412 Q777.068 680.131 790.436 660.079 Q803.906 639.926 829.325 639.926 Z" fill="#000000" fill-rule="nonzero" fill-opacity="1" /><path clip-path="url(#clip110)" d="M95.9237 2306.11 L152.738 2306.11 L152.738 2280.39 Q152.738 2266.11 145.345 2258.31 Q137.952 2250.51 124.28 2250.51 Q110.709 2250.51 103.317 2258.31 Q95.9237 2266.11 95.9237 2280.39 L95.9237 2306.11 M79.1124 2326.57 L79.1124 2280.39 Q79.1124 2254.97 90.6575 2242.01 Q102.101 2228.94 124.28 2228.94 Q146.661 2228.94 158.105 2242.01 Q169.549 2254.97 169.549 2280.39 L169.549 2306.11 L230.312 2306.11 L230.312 2326.57 L79.1124 2326.57 Z" fill="#000000" fill-rule="nonzero" fill-opacity="1" /><path clip-path="url(#clip110)" d="M264.745 2116.13 L279.227 2116.13 L279.227 2223.88 L264.745 2223.88 L264.745 2116.13 Z" fill="#000000" fill-rule="nonzero" fill-opacity="1" /><path clip-path="url(#clip110)" d="M173.296 2047.06 Q173.296 2069.64 178.461 2078.35 Q183.626 2087.06 196.082 2087.06 Q206.007 2087.06 211.881 2080.58 Q217.653 2074 217.653 2062.76 Q217.653 2047.26 206.716 2037.94 Q195.677 2028.53 177.448 2028.53 L173.296 2028.53 L173.296 2047.06 M165.599 2009.89 L230.312 2009.89 L230.312 2028.53 L213.096 2028.53 Q223.426 2034.91 228.388 2044.42 Q233.249 2053.94 233.249 2067.72 Q233.249 2085.14 223.527 2095.47 Q213.704 2105.69 197.298 2105.69 Q178.157 2105.69 168.435 2092.93 Q158.713 2080.07 158.713 2054.65 L158.713 2028.53 L156.89 2028.53 Q144.028 2028.53 137.04 2037.03 Q129.951 2045.44 129.951 2060.73 Q129.951 2070.45 132.281 2079.67 Q134.61 2088.88 139.268 2097.39 L122.052 2097.39 Q118.102 2087.16 116.178 2077.54 Q114.153 2067.92 114.153 2058.81 Q114.153 2034.2 126.913 2022.04 Q139.673 2009.89 165.599 2009.89 Z" fill="#000000" fill-rule="nonzero" fill-opacity="1" /><path clip-path="url(#clip110)" d="M121.242 1889.88 L138.661 1889.88 Q134.306 1897.78 132.179 1905.78 Q129.951 1913.68 129.951 1921.78 Q129.951 1939.91 141.496 1949.94 Q152.94 1959.96 173.701 1959.96 Q194.462 1959.96 206.007 1949.94 Q217.451 1939.91 217.451 1921.78 Q217.451 1913.68 215.324 1905.78 Q213.096 1897.78 208.741 1889.88 L225.958 1889.88 Q229.604 1897.68 231.426 1906.09 Q233.249 1914.39 233.249 1923.81 Q233.249 1949.43 217.147 1964.52 Q201.045 1979.61 173.701 1979.61 Q145.952 1979.61 130.053 1964.42 Q114.153 1949.13 114.153 1922.59 Q114.153 1913.99 115.976 1905.78 Q117.697 1897.58 121.242 1889.88 Z" fill="#000000" fill-rule="nonzero" fill-opacity="1" /><path clip-path="url(#clip110)" d="M121.242 1775.85 L138.661 1775.85 Q134.306 1783.75 132.179 1791.75 Q129.951 1799.65 129.951 1807.75 Q129.951 1825.88 141.496 1835.9 Q152.94 1845.93 173.701 1845.93 Q194.462 1845.93 206.007 1835.9 Q217.451 1825.88 217.451 1807.75 Q217.451 1799.65 215.324 1791.75 Q213.096 1783.75 208.741 1775.85 L225.958 1775.85 Q229.604 1783.65 231.426 1792.05 Q233.249 1800.36 233.249 1809.78 Q233.249 1835.4 217.147 1850.49 Q201.045 1865.58 173.701 1865.58 Q145.952 1865.58 130.053 1850.39 Q114.153 1835.09 114.153 1808.56 Q114.153 1799.95 115.976 1791.75 Q117.697 1783.55 121.242 1775.85 Z" fill="#000000" fill-rule="nonzero" fill-opacity="1" /><path clip-path="url(#clip110)" d="M264.745 1657.26 L279.227 1657.26 L279.227 1765.01 L264.745 1765.01 L264.745 1657.26 Z" fill="#000000" fill-rule="nonzero" fill-opacity="1" /><path clip-path="url(#clip110)" d="M90.7588 1525.71 L112.33 1525.71 Q102.709 1536.04 97.9491 1547.78 Q93.1893 1559.43 93.1893 1572.6 Q93.1893 1598.52 109.089 1612.29 Q124.888 1626.07 154.864 1626.07 Q184.74 1626.07 200.64 1612.29 Q216.438 1598.52 216.438 1572.6 Q216.438 1559.43 211.678 1547.78 Q206.918 1536.04 197.298 1525.71 L218.666 1525.71 Q225.958 1536.44 229.604 1548.49 Q233.249 1560.44 233.249 1573.81 Q233.249 1608.14 212.286 1627.89 Q191.221 1647.64 154.864 1647.64 Q118.406 1647.64 97.4428 1627.89 Q76.3781 1608.14 76.3781 1573.81 Q76.3781 1560.24 80.0239 1548.29 Q83.5684 1536.24 90.7588 1525.71 Z" fill="#000000" fill-rule="nonzero" fill-opacity="1" /><path clip-path="url(#clip110)" d="M92.9868 1432.74 Q92.9868 1455.02 109.595 1468.18 Q126.204 1481.25 154.864 1481.25 Q183.423 1481.25 200.032 1468.18 Q216.641 1455.02 216.641 1432.74 Q216.641 1410.46 200.032 1397.5 Q183.423 1384.43 154.864 1384.43 Q126.204 1384.43 109.595 1397.5 Q92.9868 1410.46 92.9868 1432.74 M76.3781 1432.74 Q76.3781 1400.94 97.7466 1381.9 Q119.014 1362.86 154.864 1362.86 Q190.614 1362.86 211.982 1381.9 Q233.249 1400.94 233.249 1432.74 Q233.249 1464.64 211.982 1483.78 Q190.715 1502.82 154.864 1502.82 Q119.014 1502.82 97.7466 1483.78 Q76.3781 1464.64 76.3781 1432.74 Z" fill="#000000" fill-rule="nonzero" fill-opacity="1" /><path clip-path="url(#clip110)" d="M79.1124 1330.86 L79.1124 1310.4 L230.312 1310.4 L230.312 1330.86 L79.1124 1330.86 Z" fill="#000000" fill-rule="nonzero" fill-opacity="1" /><path clip-path="url(#clip110)" d="M72.9348 1159.81 Q96.2275 1173.38 119.014 1179.96 Q141.8 1186.54 165.194 1186.54 Q188.588 1186.54 211.577 1179.96 Q234.465 1173.28 257.656 1159.81 L257.656 1176.01 Q233.857 1191.2 210.868 1198.8 Q187.879 1206.29 165.194 1206.29 Q142.61 1206.29 119.723 1198.8 Q96.8351 1191.3 72.9348 1176.01 L72.9348 1159.81 Z" fill="#000000" fill-rule="nonzero" fill-opacity="1" /><path clip-path="url(#clip110)" d="M79.1124 1122.84 L79.1124 1092.36 L182.005 1053.78 L79.1124 1014.99 L79.1124 984.506 L230.312 984.506 L230.312 1004.46 L97.5441 1004.46 L201.247 1043.45 L201.247 1064 L97.5441 1102.99 L230.312 1102.99 L230.312 1122.84 L79.1124 1122.84 Z" fill="#000000" fill-rule="nonzero" fill-opacity="1" /><path clip-path="url(#clip110)" d="M79.1124 957.365 L79.1124 936.705 L206.918 904.906 L79.1124 873.207 L79.1124 850.218 L206.918 818.419 L79.1124 786.72 L79.1124 765.96 L230.312 803.937 L230.312 829.66 L99.0631 861.561 L230.312 893.766 L230.312 919.489 L79.1124 957.365 Z" fill="#000000" fill-rule="nonzero" fill-opacity="1" /><path clip-path="url(#clip110)" d="M72.9348 742.566 L72.9348 726.362 Q96.8351 711.171 119.723 703.677 Q142.61 696.082 165.194 696.082 Q187.879 696.082 210.868 703.677 Q233.857 711.171 257.656 726.362 L257.656 742.566 Q234.465 729.096 211.577 722.514 Q188.588 715.83 165.194 715.83 Q141.8 715.83 119.014 722.514 Q96.2275 729.096 72.9348 742.566 Z" fill="#000000" fill-rule="nonzero" fill-opacity="1" /><path clip-path="url(#clip110)" d="M1168.77 57.5923 L1137.06 143.587 L1200.6 143.587 L1168.77 57.5923 M1155.58 34.56 L1182.08 34.56 L1247.94 207.36 L1223.63 207.36 L1207.89 163.032 L1130 163.032 L1114.26 207.36 L1089.6 207.36 L1155.58 34.56 Z" fill="#000000" fill-rule="nonzero" fill-opacity="1" /><path clip-path="url(#clip110)" d="M1361.36 82.7079 L1361.36 102.615 Q1352.33 97.6384 1343.19 95.2078 Q1334.16 92.6615 1324.9 92.6615 Q1304.19 92.6615 1292.73 105.856 Q1281.27 118.935 1281.27 142.661 Q1281.27 166.388 1292.73 179.582 Q1304.19 192.661 1324.9 192.661 Q1334.16 192.661 1343.19 190.23 Q1352.33 187.684 1361.36 182.707 L1361.36 202.383 Q1352.45 206.55 1342.84 208.633 Q1333.35 210.716 1322.59 210.716 Q1293.31 210.716 1276.06 192.314 Q1258.82 173.911 1258.82 142.661 Q1258.82 110.948 1276.18 92.7773 Q1293.65 74.6061 1323.98 74.6061 Q1333.82 74.6061 1343.19 76.6894 Q1352.56 78.657 1361.36 82.7079 Z" fill="#000000" fill-rule="nonzero" fill-opacity="1" /><path clip-path="url(#clip110)" d="M1491.68 82.7079 L1491.68 102.615 Q1482.66 97.6384 1473.51 95.2078 Q1464.49 92.6615 1455.23 92.6615 Q1434.51 92.6615 1423.05 105.856 Q1411.59 118.935 1411.59 142.661 Q1411.59 166.388 1423.05 179.582 Q1434.51 192.661 1455.23 192.661 Q1464.49 192.661 1473.51 190.23 Q1482.66 187.684 1491.68 182.707 L1491.68 202.383 Q1482.77 206.55 1473.17 208.633 Q1463.68 210.716 1452.91 210.716 Q1423.63 210.716 1406.38 192.314 Q1389.14 173.911 1389.14 142.661 Q1389.14 110.948 1406.5 92.7773 Q1423.98 74.6061 1454.3 74.6061 Q1464.14 74.6061 1473.51 76.6894 Q1482.89 78.657 1491.68 82.7079 Z" fill="#000000" fill-rule="nonzero" fill-opacity="1" /><path clip-path="url(#clip110)" d="M1639.6 137.221 L1639.6 147.638 L1541.68 147.638 Q1543.07 169.629 1554.88 181.203 Q1566.8 192.661 1587.98 192.661 Q1600.25 192.661 1611.71 189.652 Q1623.28 186.643 1634.62 180.624 L1634.62 200.763 Q1623.17 205.624 1611.13 208.17 Q1599.09 210.716 1586.71 210.716 Q1555.69 210.716 1537.52 192.661 Q1519.46 174.606 1519.46 143.819 Q1519.46 111.99 1536.59 93.356 Q1553.84 74.6061 1583 74.6061 Q1609.16 74.6061 1624.32 91.5041 Q1639.6 108.286 1639.6 137.221 M1618.3 130.972 Q1618.07 113.495 1608.47 103.078 Q1598.98 92.6615 1583.23 92.6615 Q1565.41 92.6615 1554.65 102.731 Q1544 112.8 1542.38 131.087 L1618.3 130.972 Z" fill="#000000" fill-rule="nonzero" fill-opacity="1" /><path clip-path="url(#clip110)" d="M1674.55 27.2684 L1695.85 27.2684 L1695.85 207.36 L1674.55 207.36 L1674.55 27.2684 Z" fill="#000000" fill-rule="nonzero" fill-opacity="1" /><path clip-path="url(#clip110)" d="M1851.29 137.221 L1851.29 147.638 L1753.37 147.638 Q1754.76 169.629 1766.57 181.203 Q1778.49 192.661 1799.67 192.661 Q1811.94 192.661 1823.4 189.652 Q1834.97 186.643 1846.31 180.624 L1846.31 200.763 Q1834.85 205.624 1822.82 208.17 Q1810.78 210.716 1798.4 210.716 Q1767.38 210.716 1749.21 192.661 Q1731.15 174.606 1731.15 143.819 Q1731.15 111.99 1748.28 93.356 Q1765.53 74.6061 1794.69 74.6061 Q1820.85 74.6061 1836.01 91.5041 Q1851.29 108.286 1851.29 137.221 M1829.99 130.972 Q1829.76 113.495 1820.15 103.078 Q1810.66 92.6615 1794.92 92.6615 Q1777.1 92.6615 1766.34 102.731 Q1755.69 112.8 1754.07 131.087 L1829.99 130.972 Z" fill="#000000" fill-rule="nonzero" fill-opacity="1" /><path clip-path="url(#clip110)" d="M1961.36 97.6384 Q1957.77 95.555 1953.49 94.6291 Q1949.32 93.5875 1944.23 93.5875 Q1926.17 93.5875 1916.45 105.393 Q1906.84 117.083 1906.84 139.073 L1906.84 207.36 L1885.43 207.36 L1885.43 77.7311 L1906.84 77.7311 L1906.84 97.8698 Q1913.56 86.0644 1924.32 80.3931 Q1935.08 74.6061 1950.48 74.6061 Q1952.68 74.6061 1955.34 74.9533 Q1958 75.1848 1961.24 75.7635 L1961.36 97.6384 Z" fill="#000000" fill-rule="nonzero" fill-opacity="1" /><path clip-path="url(#clip110)" d="M2042.61 142.198 Q2016.8 142.198 2006.84 148.101 Q1996.89 154.004 1996.89 168.24 Q1996.89 179.582 2004.3 186.295 Q2011.82 192.892 2024.67 192.892 Q2042.38 192.892 2053.02 180.393 Q2063.79 167.777 2063.79 146.944 L2063.79 142.198 L2042.61 142.198 M2085.08 133.402 L2085.08 207.36 L2063.79 207.36 L2063.79 187.684 Q2056.5 199.49 2045.62 205.161 Q2034.74 210.716 2019 210.716 Q1999.09 210.716 1987.28 199.605 Q1975.59 188.379 1975.59 169.629 Q1975.59 147.754 1990.18 136.643 Q2004.88 125.532 2033.93 125.532 L2063.79 125.532 L2063.79 123.448 Q2063.79 108.749 2054.07 100.763 Q2044.46 92.6615 2026.98 92.6615 Q2015.87 92.6615 2005.34 95.3236 Q1994.81 97.9856 1985.08 103.31 L1985.08 83.6338 Q1996.77 79.1199 2007.77 76.9209 Q2018.77 74.6061 2029.18 74.6061 Q2057.31 74.6061 2071.2 89.1893 Q2085.08 103.773 2085.08 133.402 Z" fill="#000000" fill-rule="nonzero" fill-opacity="1" /><path clip-path="url(#clip110)" d="M2150.01 40.9257 L2150.01 77.7311 L2193.88 77.7311 L2193.88 94.2819 L2150.01 94.2819 L2150.01 164.652 Q2150.01 180.508 2154.3 185.022 Q2158.69 189.536 2172 189.536 L2193.88 189.536 L2193.88 207.36 L2172 207.36 Q2147.35 207.36 2137.98 198.217 Q2128.6 188.957 2128.6 164.652 L2128.6 94.2819 L2112.98 94.2819 L2112.98 77.7311 L2128.6 77.7311 L2128.6 40.9257 L2150.01 40.9257 Z" fill="#000000" fill-rule="nonzero" fill-opacity="1" /><path clip-path="url(#clip110)" d="M2221.89 77.7311 L2243.19 77.7311 L2243.19 207.36 L2221.89 207.36 L2221.89 77.7311 M2221.89 27.2684 L2243.19 27.2684 L2243.19 54.2358 L2221.89 54.2358 L2221.89 27.2684 Z" fill="#000000" fill-rule="nonzero" fill-opacity="1" /><path clip-path="url(#clip110)" d="M2395.5 129.12 L2395.5 207.36 L2374.2 207.36 L2374.2 129.814 Q2374.2 111.411 2367.03 102.268 Q2359.85 93.1245 2345.5 93.1245 Q2328.25 93.1245 2318.3 104.12 Q2308.35 115.115 2308.35 134.097 L2308.35 207.36 L2286.93 207.36 L2286.93 77.7311 L2308.35 77.7311 L2308.35 97.8698 Q2315.99 86.1801 2326.29 80.3931 Q2336.7 74.6061 2350.24 74.6061 Q2372.58 74.6061 2384.04 88.4949 Q2395.5 102.268 2395.5 129.12 Z" fill="#000000" fill-rule="nonzero" fill-opacity="1" /><path clip-path="url(#clip110)" d="M2523.28 141.041 Q2523.28 117.893 2513.67 105.161 Q2504.18 92.4301 2486.93 92.4301 Q2469.8 92.4301 2460.2 105.161 Q2450.71 117.893 2450.71 141.041 Q2450.71 164.073 2460.2 176.805 Q2469.8 189.536 2486.93 189.536 Q2504.18 189.536 2513.67 176.805 Q2523.28 164.073 2523.28 141.041 M2544.57 191.272 Q2544.57 224.374 2529.87 240.462 Q2515.17 256.665 2484.85 256.665 Q2473.62 256.665 2463.67 254.929 Q2453.72 253.309 2444.34 249.837 L2444.34 229.119 Q2453.72 234.212 2462.86 236.642 Q2472 239.073 2481.49 239.073 Q2502.44 239.073 2512.86 228.077 Q2523.28 217.198 2523.28 195.092 L2523.28 184.559 Q2516.68 196.017 2506.38 201.689 Q2496.08 207.36 2481.73 207.36 Q2457.88 207.36 2443.3 189.189 Q2428.72 171.018 2428.72 141.041 Q2428.72 110.948 2443.3 92.7773 Q2457.88 74.6061 2481.73 74.6061 Q2496.08 74.6061 2506.38 80.2773 Q2516.68 85.9486 2523.28 97.4069 L2523.28 77.7311 L2544.57 77.7311 L2544.57 191.272 Z" fill="#000000" fill-rule="nonzero" fill-opacity="1" /><path clip-path="url(#clip110)" d="M2688.09 53.7729 L2688.09 118.703 L2717.49 118.703 Q2733.81 118.703 2742.72 110.254 Q2751.63 101.805 2751.63 86.1801 Q2751.63 70.6709 2742.72 62.2219 Q2733.81 53.7729 2717.49 53.7729 L2688.09 53.7729 M2664.71 34.56 L2717.49 34.56 Q2746.54 34.56 2761.35 47.7544 Q2776.28 60.833 2776.28 86.1801 Q2776.28 111.759 2761.35 124.837 Q2746.54 137.916 2717.49 137.916 L2688.09 137.916 L2688.09 207.36 L2664.71 207.36 L2664.71 34.56 Z" fill="#000000" fill-rule="nonzero" fill-opacity="1" /><path clip-path="url(#clip110)" d="M2848.51 92.6615 Q2831.38 92.6615 2821.42 106.087 Q2811.47 119.398 2811.47 142.661 Q2811.47 165.925 2821.31 179.351 Q2831.26 192.661 2848.51 192.661 Q2865.52 192.661 2875.47 179.235 Q2885.43 165.809 2885.43 142.661 Q2885.43 119.629 2875.47 106.203 Q2865.52 92.6615 2848.51 92.6615 M2848.51 74.6061 Q2876.28 74.6061 2892.14 92.6615 Q2908 110.717 2908 142.661 Q2908 174.49 2892.14 192.661 Q2876.28 210.716 2848.51 210.716 Q2820.61 210.716 2804.76 192.661 Q2789.02 174.49 2789.02 142.661 Q2789.02 110.717 2804.76 92.6615 Q2820.61 74.6061 2848.51 74.6061 Z" fill="#000000" fill-rule="nonzero" fill-opacity="1" /><path clip-path="url(#clip110)" d="M2930.91 77.7311 L2952.21 77.7311 L2978.83 178.888 L3005.33 77.7311 L3030.45 77.7311 L3057.07 178.888 L3083.57 77.7311 L3104.87 77.7311 L3070.96 207.36 L3045.84 207.36 L3017.95 101.111 L2989.94 207.36 L2964.82 207.36 L2930.91 77.7311 Z" fill="#000000" fill-rule="nonzero" fill-opacity="1" /><path clip-path="url(#clip110)" d="M3248.04 137.221 L3248.04 147.638 L3150.12 147.638 Q3151.51 169.629 3163.32 181.203 Q3175.24 192.661 3196.42 192.661 Q3208.69 192.661 3220.15 189.652 Q3231.72 186.643 3243.06 180.624 L3243.06 200.763 Q3231.61 205.624 3219.57 208.17 Q3207.53 210.716 3195.15 210.716 Q3164.13 210.716 3145.96 192.661 Q3127.9 174.606 3127.9 143.819 Q3127.9 111.99 3145.03 93.356 Q3162.28 74.6061 3191.44 74.6061 Q3217.6 74.6061 3232.76 91.5041 Q3248.04 108.286 3248.04 137.221 M3226.74 130.972 Q3226.51 113.495 3216.91 103.078 Q3207.42 92.6615 3191.68 92.6615 Q3173.85 92.6615 3163.09 102.731 Q3152.44 112.8 3150.82 131.087 L3226.74 130.972 Z" fill="#000000" fill-rule="nonzero" fill-opacity="1" /><path clip-path="url(#clip110)" d="M3358.11 97.6384 Q3354.52 95.555 3350.24 94.6291 Q3346.07 93.5875 3340.98 93.5875 Q3322.92 93.5875 3313.2 105.393 Q3303.6 117.083 3303.6 139.073 L3303.6 207.36 L3282.18 207.36 L3282.18 77.7311 L3303.6 77.7311 L3303.6 97.8698 Q3310.31 86.0644 3321.07 80.3931 Q3331.84 74.6061 3347.23 74.6061 Q3349.43 74.6061 3352.09 74.9533 Q3354.75 75.1848 3357.99 75.7635 L3358.11 97.6384 Z" fill="#000000" fill-rule="nonzero" fill-opacity="1" /><path clip-path="url(#clip110)" d="M3506.95 27.4999 Q3491.44 54.1201 3483.92 80.1616 Q3476.4 106.203 3476.4 132.939 Q3476.4 159.675 3483.92 185.948 Q3491.56 212.105 3506.95 238.61 L3488.43 238.61 Q3471.07 211.411 3462.39 185.138 Q3453.83 158.865 3453.83 132.939 Q3453.83 107.129 3462.39 80.9718 Q3470.96 54.8145 3488.43 27.4999 L3506.95 27.4999 Z" fill="#000000" fill-rule="nonzero" fill-opacity="1" /><path clip-path="url(#clip110)" d="M3623.39 97.6384 Q3619.8 95.555 3615.52 94.6291 Q3611.35 93.5875 3606.26 93.5875 Q3588.2 93.5875 3578.48 105.393 Q3568.87 117.083 3568.87 139.073 L3568.87 207.36 L3547.46 207.36 L3547.46 77.7311 L3568.87 77.7311 L3568.87 97.8698 Q3575.59 86.0644 3586.35 80.3931 Q3597.11 74.6061 3612.51 74.6061 Q3614.71 74.6061 3617.37 74.9533 Q3620.03 75.1848 3623.27 75.7635 L3623.39 97.6384 Z" fill="#000000" fill-rule="nonzero" fill-opacity="1" /><path clip-path="url(#clip110)" d="M3751.39 137.221 L3751.39 147.638 L3653.48 147.638 Q3654.87 169.629 3666.67 181.203 Q3678.59 192.661 3699.77 192.661 Q3712.04 192.661 3723.5 189.652 Q3735.08 186.643 3746.42 180.624 L3746.42 200.763 Q3734.96 205.624 3722.92 208.17 Q3710.89 210.716 3698.5 210.716 Q3667.48 210.716 3649.31 192.661 Q3631.26 174.606 3631.26 143.819 Q3631.26 111.99 3648.39 93.356 Q3665.63 74.6061 3694.8 74.6061 Q3720.95 74.6061 3736.12 91.5041 Q3751.39 108.286 3751.39 137.221 M3730.1 130.972 Q3729.87 113.495 3720.26 103.078 Q3710.77 92.6615 3695.03 92.6615 Q3677.21 92.6615 3666.44 102.731 Q3655.79 112.8 3654.17 131.087 L3730.1 130.972 Z" fill="#000000" fill-rule="nonzero" fill-opacity="1" /><path clip-path="url(#clip110)" d="M3851.97 27.2684 L3851.97 44.9766 L3831.6 44.9766 Q3820.14 44.9766 3815.63 49.6062 Q3811.23 54.2358 3811.23 66.2728 L3811.23 77.7311 L3846.3 77.7311 L3846.3 94.2819 L3811.23 94.2819 L3811.23 207.36 L3789.82 207.36 L3789.82 94.2819 L3769.45 94.2819 L3769.45 77.7311 L3789.82 77.7311 L3789.82 68.7033 Q3789.82 47.0599 3799.89 37.222 Q3809.96 27.2684 3831.83 27.2684 L3851.97 27.2684 Z" fill="#000000" fill-rule="nonzero" fill-opacity="1" /><path clip-path="url(#clip110)" d="M3855.56 177.962 L3879.98 177.962 L3879.98 207.36 L3855.56 207.36 L3855.56 177.962 Z" fill="#000000" fill-rule="nonzero" fill-opacity="1" /><path clip-path="url(#clip110)" d="M4133.57 47.8701 L4133.57 72.5228 Q4121.76 61.5274 4108.34 56.0877 Q4095.03 50.6479 4079.98 50.6479 Q4050.35 50.6479 4034.61 68.8191 Q4018.87 86.8745 4018.87 121.134 Q4018.87 155.277 4034.61 173.448 Q4050.35 191.504 4079.98 191.504 Q4095.03 191.504 4108.34 186.064 Q4121.76 180.624 4133.57 169.629 L4133.57 194.05 Q4121.3 202.383 4107.53 206.55 Q4093.87 210.716 4078.59 210.716 Q4039.36 210.716 4016.79 186.758 Q3994.22 162.684 3994.22 121.134 Q3994.22 79.4672 4016.79 55.509 Q4039.36 31.435 4078.59 31.435 Q4094.1 31.435 4107.76 35.6017 Q4121.53 39.6526 4133.57 47.8701 Z" fill="#000000" fill-rule="nonzero" fill-opacity="1" /><path clip-path="url(#clip110)" d="M4239.82 50.4164 Q4214.36 50.4164 4199.31 69.3978 Q4184.38 88.3792 4184.38 121.134 Q4184.38 153.772 4199.31 172.754 Q4214.36 191.735 4239.82 191.735 Q4265.28 191.735 4280.1 172.754 Q4295.03 153.772 4295.03 121.134 Q4295.03 88.3792 4280.1 69.3978 Q4265.28 50.4164 4239.82 50.4164 M4239.82 31.435 Q4276.16 31.435 4297.92 55.8562 Q4319.68 80.1616 4319.68 121.134 Q4319.68 161.99 4297.92 186.411 Q4276.16 210.716 4239.82 210.716 Q4203.36 210.716 4181.48 186.411 Q4159.73 162.106 4159.73 121.134 Q4159.73 80.1616 4181.48 55.8562 Q4203.36 31.435 4239.82 31.435 Z" fill="#000000" fill-rule="nonzero" fill-opacity="1" /><path clip-path="url(#clip110)" d="M4356.25 34.56 L4379.63 34.56 L4379.63 207.36 L4356.25 207.36 L4356.25 34.56 Z" fill="#000000" fill-rule="nonzero" fill-opacity="1" /><path clip-path="url(#clip110)" d="M4421.88 27.4999 L4440.4 27.4999 Q4457.76 54.8145 4466.32 80.9718 Q4475 107.129 4475 132.939 Q4475 158.865 4466.32 185.138 Q4457.76 211.411 4440.4 238.61 L4421.88 238.61 Q4437.27 212.105 4444.79 185.948 Q4452.43 159.675 4452.43 132.939 Q4452.43 106.203 4444.79 80.1616 Q4437.27 54.1201 4421.88 27.4999 Z" fill="#000000" fill-rule="nonzero" fill-opacity="1" /><polyline clip-path="url(#clip112)" style="stroke:#009af9; stroke-linecap:round; stroke-linejoin:round; stroke-width:12; stroke-opacity:1; fill:none" points="1057.09,2119.67 1064.01,2118.35 1070.92,2115.72 1077.84,2111.81 1084.75,2106.62 1091.67,2100.2 1098.58,2092.59 1105.5,2083.84 1112.41,2074.01 1119.33,2063.18 1126.24,2051.45 1133.16,2038.9 1140.07,2025.65 1146.98,2011.82 1153.9,1997.55 1160.81,1982.97 1167.73,1968.24 1174.64,1953.49 1181.56,1938.89 1188.47,1924.58 1195.39,1910.72 1202.3,1897.43 1209.22,1884.87 1216.13,1873.14 1223.05,1862.35 1229.96,1852.62 1236.88,1844.02 1243.79,1836.62 1250.7,1830.47 1257.62,1825.63 1264.53,1822.13 1264.53,948.036 1271.45,939.8 1278.36,933.898 1285.28,929.737 1292.19,926.852 1299.11,924.9 1306.02,923.648 1312.94,922.957 1319.85,922.772 1326.77,923.1 1333.68,923.996 1340.6,925.545 1347.51,927.845 1354.42,930.994 1361.34,935.079 1368.25,940.162 1375.17,946.272 1382.08,953.402 1389,961.507 1395.91,970.499 1402.83,980.256 1409.74,990.62 1416.66,1001.41 1423.57,1012.42 1430.49,1023.44 1437.4,1034.26 1444.32,1044.67 1451.23,1054.48 1458.14,1063.52 1465.06,1071.67 1471.97,1078.83 1478.89,1084.97 1485.8,1090.13 1492.72,1094.39 1499.63,1097.93 1506.55,1100.98 1513.46,1103.89 1520.38,1107.06 1527.29,1110.98 1534.21,1116.2 1541.12,1123.31 1548.04,1132.94 1554.95,1145.71 1561.86,1162.22 1568.78,1183 1575.69,1208.45 1582.61,1238.89 1589.52,1274.45 1596.44,1315.1 1603.35,1360.65 1610.27,1410.75 1617.18,1464.89 1624.1,1522.48 1631.01,1582.85 1637.93,1645.28 1644.84,1709.04 1651.76,1773.43 1658.67,1837.78 1665.58,1901.49 1672.5,1963.99 1679.41,2024.79 1686.33,2083.46 1693.24,2139.61 1700.16,2192.91 1707.07,2243.08 1713.99,2289.9 1720.9,2333.17 1727.82,2372.78 1734.73,2408.65 1741.65,2440.77 1748.56,2469.16 1755.48,2493.93 1762.39,2515.19 1769.3,2533.1 1776.22,2547.85 1783.13,2559.6 1790.05,2568.53 1796.96,2574.78 1803.88,2578.45 1810.79,2579.58 1817.71,2578.16 1824.62,2574.11 1831.54,2567.25 1838.45,2557.35 1845.37,2544.12 1852.28,2527.19 1859.2,2506.16 1866.11,2480.62 1873.02,2450.14 1879.94,2414.37 1886.85,2373.02 1893.77,2325.88 1900.68,2272.94 1907.6,2214.33 1914.51,2150.38 1921.43,2081.61 1928.34,2008.73 1935.26,1932.64 1942.17,1854.33 1949.09,1774.89 1956,1695.43 1962.92,1617.03 1969.83,1540.71 1976.74,1467.36 1983.66,1397.76 1990.57,1332.52 1997.49,1272.1 2004.4,1216.81 2011.32,1166.85 2018.23,1122.28 2025.15,1083.09 2032.06,1049.16 2038.98,1020.34 2045.89,996.402 2052.81,977.09 2059.72,962.111 2066.63,951.143 2073.55,943.842 2080.46,939.843 2087.38,938.763 2094.29,940.211 2101.21,943.786 2108.12,949.085 2115.04,955.711 2121.95,963.274 2128.87,971.401 2135.78,979.738 2142.7,987.96 2149.61,995.766 2156.53,1002.9 2163.44,1009.12 2170.35,1014.25 2177.27,1018.13 2184.18,1020.66 2191.1,1021.77 2198.01,1021.44 2204.93,1019.69 2211.84,1016.58 2218.76,1012.23 2225.67,1006.79 2232.59,1000.45 2239.5,993.461 2246.42,986.102 2253.33,978.698 2260.25,971.606 2267.16,965.218 2274.07,959.948 2280.99,956.231 2287.9,954.513 2294.82,955.242 2301.73,958.86 2308.65,965.795 2315.56,976.451 2322.48,991.201 2329.39,1010.38 2336.31,1034.28 2343.22,1063.13 2350.14,1097.12 2357.05,1136.36 2363.97,1180.88 2370.88,1230.64 2377.79,1285.5 2384.71,1345.22 2391.62,1409.44 2398.54,1477.69 2405.45,1549.36 2412.37,1623.75 2419.28,1700.02 2426.2,1777.26 2433.11,1854.49 2440.03,1930.7 2446.94,2004.91 2453.86,2076.21 2460.77,2143.77 2467.69,2206.89 2474.6,2265.06 2481.51,2317.92 2488.43,2365.29 2495.34,2407.14 2502.26,2443.59 2509.17,2474.89 2516.09,2501.33 2523,2523.3 2529.92,2541.16 2536.83,2555.32 2543.75,2566.1 2550.66,2573.82 2557.58,2578.71 2564.49,2580.95 2571.41,2580.63 2578.32,2577.79 2585.23,2572.37 2592.15,2564.28 2599.06,2553.37 2605.98,2539.45 2612.89,2522.32 2619.81,2501.77 2626.72,2477.59 2633.64,2449.61 2640.55,2417.71 2647.47,2381.81 2654.38,2341.9 2661.3,2298.04 2668.21,2250.33 2675.13,2198.99 2682.04,2144.28 2688.95,2086.5 2695.87,2026.06 2702.78,1963.39 2709.7,1898.99 2716.61,1833.39 2723.53,1767.19 2730.44,1701.04 2737.36,1635.58 2744.27,1571.54 2751.19,1509.6 2758.1,1450.46 2765.02,1394.76 2771.93,1343.08 2778.85,1295.91 2785.76,1253.62 2792.67,1216.41 2799.59,1184.38 2806.5,1157.42 2813.42,1135.32 2820.33,1117.73 2827.25,1104.18 2834.16,1094.13 2841.08,1087.01 2847.99,1082.2 2854.91,1079.12 2861.82,1077.21 2868.74,1075.94 2875.65,1074.87 2882.57,1073.61 2889.48,1071.85 2896.39,1069.35 2903.31,1065.94 2910.22,1061.51 2917.14,1056.03 2924.05,1049.52 2930.97,1042.03 2937.88,1033.67 2944.8,1024.58 2951.71,1014.92 2958.63,1004.87 2965.54,994.633 2972.46,984.395 2979.37,974.354 2986.29,964.69 2993.2,955.568 3000.11,947.129 3007.03,939.488 3013.94,932.73 3020.86,926.914 3027.77,922.07 3034.69,918.208 3041.6,915.328 3048.52,913.423 3055.43,912.497 3062.35,912.576 3069.26,913.725 3076.18,916.061 3083.09,919.769 3090.01,925.117 3096.92,932.465 3103.83,942.274 3110.75,955.109 3117.66,971.63 3124.58,992.577 3131.49,1018.74 3138.41,1050.93 3145.32,1089.89 3152.24,1136.25 3159.15,1190.45 3166.07,1252.66 3172.98,1322.68 3179.9,1399.95 3186.81,1483.46 3193.73,1571.85 3200.64,1663.45 3207.55,1756.38 3214.47,1848.67 3221.38,1938.46 3228.3,2024.07 3235.21,2104.12 3242.13,2177.58 3249.04,2243.82 3255.96,2302.55 3262.87,2353.78 3269.79,2397.79 3276.7,2435.01 3283.62,2466.01 3290.53,2491.37 3297.45,2511.69 3304.36,2527.54 3311.27,2539.43 3318.19,2547.77 3325.1,2552.93 3332.02,2555.15 3338.93,2554.64 3345.85,2551.5 3352.76,2545.8 3359.68,2537.55 3366.59,2526.75 3373.51,2513.38 3380.42,2497.42 3387.34,2478.89 3394.25,2457.8 3401.16,2434.22 3408.08,2408.2 3414.99,2379.84 3421.91,2349.22 3428.82,2316.42 3435.74,2281.5 3442.65,2244.49 3449.57,2205.4 3456.48,2164.2 3463.4,2120.88 3470.31,2075.42 3477.23,2027.84 3484.14,1978.24 3491.06,1926.8 3497.97,1873.87 3504.88,1819.91 3511.8,1765.58 3518.71,1711.66 3525.63,1659.06 3532.54,1608.74 3539.46,1561.63 3546.37,1518.56 3553.29,1480.19 3560.2,1446.91 3567.12,1418.84 3574.03,1395.8 3580.95,1377.32 3587.86,1362.73 3594.78,1351.2 3601.69,1341.8 3608.6,1333.6 3615.52,1325.73 3622.43,1317.4 3629.35,1307.93 3636.26,1296.82 3643.18,1283.7 3650.09,1268.37 3657.01,1250.78 3663.92,1231.03 3670.84,1209.35 3677.75,1186.08 3684.67,1161.67 3691.58,1136.65 3698.5,1111.6 3705.41,1087.15 3712.32,1063.92 3719.24,1042.5 3726.15,1023.46 3733.07,1007.27 3739.98,994.331 3746.9,984.91 3753.81,979.16 3760.73,977.099 3767.64,978.615 3774.56,983.469 3781.47,991.31 3788.39,1001.69 3795.3,1014.09 3802.22,1027.94 3809.13,1042.64 3816.04,1057.57 3822.96,1072.16 3829.87,1085.84 3836.79,1098.08 3843.7,1108.44 3850.62,1116.5 3857.53,1121.92 3864.45,1124.44 3871.36,1123.86 3878.28,1120.05 3885.19,1113 3892.11,1102.76 3899.02,1089.53 3905.94,1073.6 3912.85,1055.47 3919.76,1035.79 3926.68,1015.42 3933.59,995.466 3940.51,977.285 3947.42,962.461 3954.34,952.795 3961.25,950.228 3968.17,956.736 3975.08,974.177 3982,1004.1 3988.91,1047.56 3995.83,1104.9 4002.74,1175.63 4009.66,1258.4 4016.57,1351.02 4023.48,1450.64 4030.4,1554.08 4037.31,1658.04 4044.23,1759.49 4051.14,1855.84 4058.06,1945.15 4064.97,2026.12 4071.89,2098.11 4078.8,2160.96 4085.72,2214.93 4092.63,2260.53 4099.55,2298.39 4106.46,2329.22 4113.38,2353.71 4120.29,2372.52 4127.2,2386.3 4134.12,2395.62 4141.03,2401.06 4147.95,2403.14 4154.86,2402.34 4161.78,2399.08 4168.69,2393.71 4175.61,2386.5 4182.52,2377.65 4189.44,2367.3 4196.35,2355.56 4203.27,2342.53 4210.18,2328.32 4217.1,2313.05 4224.01,2296.86 4230.92,2279.92 4237.84,2262.36 4244.75,2244.32 4251.67,2225.86 4258.58,2207.01 4265.5,2187.72 4272.41,2167.88 4279.33,2147.29 4286.24,2125.7 4293.16,2102.84 4300.07,2078.41 4306.99,2052.14 4313.9,2023.83 4320.82,1993.4 4327.73,1960.98 4334.64,1926.88 4341.56,1891.7 4348.47,1856.3 4355.39,1821.76 4362.3,1789.31 4369.22,1760.19 4376.13,1735.46 4383.05,1715.9 4389.96,1701.84 4396.88,1693.07 4403.79,1688.93 4410.71,1688.31 4417.62,1689.85 4424.54,1692.05 4431.45,1693.43 4438.36,1692.63 4445.28,1688.45 4452.19,1679.92 4459.11,1666.24 4466.02,1646.85 4472.94,1621.37 4479.85,1589.63 4486.77,1551.67 4493.68,1507.82 4500.6,1458.63 4507.51,1404.97 "/>
<polyline clip-path="url(#clip112)" style="stroke:#e26f46; stroke-linecap:round; stroke-linejoin:round; stroke-width:12; stroke-opacity:1; fill:none" points="1057.09,1314.26 1064.01,1314.26 1070.92,1314.27 1077.84,1314.28 1084.75,1314.31 1091.67,1314.34 1098.58,1314.4 1105.5,1314.48 1112.41,1314.59 1119.33,1314.73 1126.24,1314.92 1133.16,1315.15 1140.07,1315.44 1146.98,1315.79 1153.9,1316.2 1160.81,1316.68 1167.73,1317.24 1174.64,1317.87 1181.56,1318.58 1188.47,1319.37 1195.39,1320.24 1202.3,1321.18 1209.22,1322.19 1216.13,1323.28 1223.05,1324.42 1229.96,1325.63 1236.88,1326.89 1243.79,1328.19 1250.7,1329.54 1257.62,1330.92 1264.53,1332.33 1264.53,1643.03 1271.45,1658.02 1278.36,1675.2 1285.28,1694.5 1292.19,1715.89 1299.11,1739.28 1306.02,1764.57 1312.94,1791.64 1319.85,1820.3 1326.77,1850.33 1333.68,1881.44 1340.6,1913.34 1347.51,1945.65 1354.42,1978.01 1361.34,2010.02 1368.25,2041.31 1375.17,2071.52 1382.08,2100.35 1389,2127.53 1395.91,2152.86 1402.83,2176.21 1409.74,2197.52 1416.66,2216.78 1423.57,2234.02 1430.49,2249.33 1437.4,2262.79 1444.32,2274.51 1451.23,2284.56 1458.14,2292.98 1465.06,2299.76 1471.97,2304.83 1478.89,2308.03 1485.8,2309.14 1492.72,2307.82 1499.63,2303.66 1506.55,2296.18 1513.46,2284.82 1520.38,2268.98 1527.29,2248.07 1534.21,2221.51 1541.12,2188.78 1548.04,2149.49 1554.95,2103.42 1561.86,2050.53 1568.78,1991.02 1575.69,1925.35 1582.61,1854.2 1589.52,1778.5 1596.44,1699.37 1603.35,1618.06 1610.27,1535.9 1617.18,1454.23 1624.1,1374.35 1631.01,1297.44 1637.93,1224.56 1644.84,1156.59 1651.76,1094.23 1658.67,1037.99 1665.58,988.217 1672.5,945.104 1679.41,908.7 1686.33,878.941 1693.24,855.666 1700.16,838.635 1707.07,827.544 1713.99,822.037 1720.9,821.71 1727.82,826.125 1734.73,834.808 1741.65,847.261 1748.56,862.964 1755.48,881.382 1762.39,901.972 1769.3,924.197 1776.22,947.529 1783.13,971.461 1790.05,995.522 1796.96,1019.28 1803.88,1042.35 1810.79,1064.4 1817.71,1085.17 1824.62,1104.45 1831.54,1122.11 1838.45,1138.08 1845.37,1152.33 1852.28,1164.94 1859.2,1176.01 1866.11,1185.73 1873.02,1194.33 1879.94,1202.11 1886.85,1209.39 1893.77,1216.56 1900.68,1224.03 1907.6,1232.24 1914.51,1241.61 1921.43,1252.57 1928.34,1265.52 1935.26,1280.78 1942.17,1298.64 1949.09,1319.29 1956,1342.82 1962.92,1369.26 1969.83,1398.53 1976.74,1430.48 1983.66,1464.89 1990.57,1501.46 1997.49,1539.89 2004.4,1579.84 2011.32,1620.92 2018.23,1662.79 2025.15,1705.07 2032.06,1747.41 2038.98,1789.45 2045.89,1830.85 2052.81,1871.29 2059.72,1910.47 2066.63,1948.1 2073.55,1983.92 2080.46,2017.69 2087.38,2049.24 2094.29,2078.4 2101.21,2105.08 2108.12,2129.23 2115.04,2150.83 2121.95,2169.94 2128.87,2186.63 2135.78,2201.02 2142.7,2213.26 2149.61,2223.51 2156.53,2231.92 2163.44,2238.67 2170.35,2243.89 2177.27,2247.72 2184.18,2250.24 2191.1,2251.51 2198.01,2251.54 2204.93,2250.31 2211.84,2247.75 2218.76,2243.76 2225.67,2238.19 2232.59,2230.87 2239.5,2221.62 2246.42,2210.23 2253.33,2196.5 2260.25,2180.25 2267.16,2161.3 2274.07,2139.52 2280.99,2114.82 2287.9,2087.17 2294.82,2056.59 2301.73,2023.14 2308.65,1986.97 2315.56,1948.27 2322.48,1907.29 2329.39,1864.33 2336.31,1819.73 2343.22,1773.86 2350.14,1727.11 2357.05,1679.93 2363.97,1632.75 2370.88,1586.02 2377.79,1540.21 2384.71,1495.76 2391.62,1453.12 2398.54,1412.69 2405.45,1374.84 2412.37,1339.89 2419.28,1308.1 2426.2,1279.62 2433.11,1254.54 2440.03,1232.84 2446.94,1214.4 2453.86,1199.03 2460.77,1186.43 2467.69,1176.24 2474.6,1168.07 2481.51,1161.46 2488.43,1155.97 2495.34,1151.14 2502.26,1146.53 2509.17,1141.75 2516.09,1136.44 2523,1130.28 2529.92,1123.02 2536.83,1114.46 2543.75,1104.45 2550.66,1092.93 2557.58,1079.88 2564.49,1065.34 2571.41,1049.44 2578.32,1032.35 2585.23,1014.3 2592.15,995.607 2599.06,976.613 2605.98,957.731 2612.89,939.412 2619.81,922.146 2626.72,906.451 2633.64,892.864 2640.55,881.928 2647.47,874.187 2654.38,870.168 2661.3,870.377 2668.21,875.285 2675.13,885.321 2682.04,900.859 2688.95,922.211 2695.87,949.613 2702.78,983.214 2709.7,1023.06 2716.61,1069.1 2723.53,1121.13 2730.44,1178.82 2737.36,1241.71 2744.27,1309.16 2751.19,1380.39 2758.1,1454.5 2765.02,1530.44 2771.93,1607.11 2778.85,1683.33 2785.76,1757.95 2792.67,1829.86 2799.59,1898.03 2806.5,1961.6 2813.42,2019.88 2820.33,2072.37 2827.25,2118.79 2834.16,2159.07 2841.08,2193.29 2847.99,2221.72 2854.91,2244.75 2861.82,2262.82 2868.74,2276.46 2875.65,2286.19 2882.57,2292.52 2889.48,2295.92 2896.39,2296.8 2903.31,2295.5 2910.22,2292.29 2917.14,2287.37 2924.05,2280.85 2930.97,2272.79 2937.88,2263.19 2944.8,2252.01 2951.71,2239.16 2958.63,2224.57 2965.54,2208.14 2972.46,2189.82 2979.37,2169.56 2986.29,2147.37 2993.2,2123.32 3000.11,2097.51 3007.03,2070.13 3013.94,2041.41 3020.86,2011.61 3027.77,1981.06 3034.69,1950.08 3041.6,1919.01 3048.52,1888.18 3055.43,1857.9 3062.35,1828.45 3069.26,1800.08 3076.18,1772.99 3083.09,1747.34 3090.01,1723.26 3096.92,1700.85 3103.83,1680.19 3110.75,1661.36 3117.66,1644.41 3124.58,1629.42 3131.49,1616.43 3138.41,1605.52 3145.32,1596.72 3152.24,1590.05 3159.15,1585.49 3166.07,1582.93 3172.98,1582.2 3179.9,1583.05 3186.81,1585.1 3193.73,1587.89 3200.64,1590.9 3207.55,1593.52 3214.47,1595.16 3221.38,1595.21 3228.3,1593.12 3235.21,1588.4 3242.13,1580.64 3249.04,1569.5 3255.96,1554.72 3262.87,1536.11 3269.79,1513.53 3276.7,1486.87 3283.62,1456.09 3290.53,1421.18 3297.45,1382.2 3304.36,1339.32 3311.27,1292.76 3318.19,1242.91 3325.1,1190.27 3332.02,1135.48 3338.93,1079.33 3345.85,1022.67 3352.76,966.454 3359.68,911.634 3366.59,859.136 3373.51,809.811 3380.42,764.393 3387.34,723.475 3394.25,687.501 3401.16,656.772 3408.08,631.464 3414.99,611.662 3421.91,597.399 3428.82,588.699 3435.74,585.614 3442.65,588.266 3449.57,596.867 3456.48,611.742 3463.4,633.329 3470.31,662.167 3477.23,698.867 3484.14,744.058 3491.06,798.323 3497.97,862.111 3504.88,935.637 3511.8,1018.78 3518.71,1111.01 3525.63,1211.27 3532.54,1318.02 3539.46,1429.23 3546.37,1542.48 3553.29,1655.1 3560.2,1764.41 3567.12,1867.87 3574.03,1963.32 3580.95,2049.1 3587.86,2124.13 3594.78,2187.96 3601.69,2240.7 3608.6,2282.91 3615.52,2315.51 3622.43,2339.64 3629.35,2356.52 3636.26,2367.37 3643.18,2373.3 3650.09,2375.3 3657.01,2374.15 3663.92,2370.46 3670.84,2364.63 3677.75,2356.87 3684.67,2347.22 3691.58,2335.59 3698.5,2321.78 3705.41,2305.53 3712.32,2286.53 3719.24,2264.48 3726.15,2239.15 3733.07,2210.39 3739.98,2178.14 3746.9,2142.5 3753.81,2103.71 3760.73,2062.16 3767.64,2018.37 3774.56,1972.97 3781.47,1926.67 3788.39,1880.2 3795.3,1834.31 3802.22,1789.7 3809.13,1747 3816.04,1706.74 3822.96,1669.35 3829.87,1635.14 3836.79,1604.32 3843.7,1577.01 3850.62,1553.22 3857.53,1532.93 3864.45,1516.07 3871.36,1502.56 3878.28,1492.31 3885.19,1485.25 3892.11,1481.34 3899.02,1480.61 3905.94,1483.11 3912.85,1488.96 3919.76,1498.31 3926.68,1511.37 3933.59,1528.36 3940.51,1549.49 3947.42,1574.92 3954.34,1604.71 3961.25,1638.81 3968.17,1676.95 3975.08,1718.62 3982,1763.05 3988.91,1809.21 3995.83,1855.83 4002.74,1901.49 4009.66,1944.68 4016.57,1983.95 4023.48,2018.04 4030.4,2045.91 4037.31,2066.86 4044.23,2080.49 4051.14,2086.72 4058.06,2085.63 4064.97,2077.42 4071.89,2062.32 4078.8,2040.45 4085.72,2011.79 4092.63,1976.13 4099.55,1933.1 4106.46,1882.15 4113.38,1822.73 4120.29,1754.35 4127.2,1676.77 4134.12,1590.15 4141.03,1495.23 4147.95,1393.39 4154.86,1286.66 4161.78,1177.64 4168.69,1069.3 4175.61,964.701 4182.52,866.702 4189.44,777.684 4196.35,699.358 4203.27,632.665 4210.18,577.786 4217.1,534.237 4224.01,501.027 4230.92,476.837 4237.84,460.198 4244.75,449.645 4251.67,443.848 4258.58,441.702 4265.5,442.391 4272.41,445.435 4279.33,450.718 4286.24,458.496 4293.16,469.414 4300.07,484.492 4306.99,505.103 4313.9,532.931 4320.82,569.884 4327.73,617.959 4334.64,679.06 4341.56,754.749 4348.47,845.967 4355.39,952.743 4362.3,1073.96 4369.22,1207.22 4376.13,1348.93 4383.05,1494.53 4389.96,1638.94 4396.88,1777.14 4403.79,1904.7 4410.71,2018.26 4417.62,2115.76 4424.54,2196.46 4431.45,2260.84 4438.36,2310.3 4445.28,2346.79 4452.19,2372.55 4459.11,2389.84 4466.02,2400.7 4472.94,2406.88 4479.85,2409.74 4486.77,2410.24 4493.68,2408.93 4500.6,2405.97 4507.51,2401.21 "/>
<polyline clip-path="url(#clip112)" style="stroke:#3da44d; stroke-linecap:round; stroke-linejoin:round; stroke-width:12; stroke-opacity:1; fill:none" points="1057.09,1329.11 1064.01,1330.42 1070.92,1333.04 1077.84,1336.94 1084.75,1342.1 1091.67,1348.48 1098.58,1356.04 1105.5,1364.71 1112.41,1374.43 1119.33,1385.12 1126.24,1396.67 1133.16,1408.98 1140.07,1421.94 1146.98,1435.42 1153.9,1449.28 1160.81,1463.37 1167.73,1477.55 1174.64,1491.66 1181.56,1505.56 1188.47,1519.08 1195.39,1532.08 1202.3,1544.42 1209.22,1555.97 1216.13,1566.62 1223.05,1576.25 1229.96,1584.78 1236.88,1592.12 1243.79,1598.22 1250.7,1603.02 1257.62,1606.48 1264.53,1608.57 1264.53,2171.97 1271.45,2165.21 1278.36,2153.93 1285.28,2138.79 1292.19,2120.29 1299.11,2098.85 1306.02,2074.81 1312.94,2048.43 1319.85,2019.96 1326.77,1989.6 1333.68,1957.59 1340.6,1924.15 1347.51,1889.53 1354.42,1854.03 1361.34,1817.93 1368.25,1781.56 1375.17,1745.23 1382.08,1709.28 1389,1673.99 1395.91,1639.67 1402.83,1606.56 1409.74,1574.89 1416.66,1544.84 1423.57,1516.59 1430.49,1490.26 1437.4,1465.97 1444.32,1443.85 1451.23,1423.99 1458.14,1406.53 1465.06,1391.61 1471.97,1379.38 1478.89,1370.02 1485.8,1363.76 1492.72,1360.82 1499.63,1361.44 1506.55,1365.87 1513.46,1374.32 1520.38,1386.98 1527.29,1403.97 1534.21,1425.33 1541.12,1450.94 1548.04,1480.6 1554.95,1513.9 1561.86,1550.28 1568.78,1589.01 1575.69,1629.23 1582.61,1669.94 1589.52,1710.07 1596.44,1748.55 1603.35,1784.31 1610.27,1816.38 1617.18,1843.91 1624.1,1866.2 1631.01,1882.74 1637.93,1893.19 1644.84,1897.4 1651.76,1895.37 1658.67,1887.26 1665.58,1873.32 1672.5,1853.94 1679.41,1829.54 1686.33,1800.63 1693.24,1767.75 1700.16,1731.48 1707.07,1692.4 1713.99,1651.09 1720.9,1608.15 1727.82,1564.12 1734.73,1519.57 1741.65,1475 1748.56,1430.9 1755.48,1387.72 1762.39,1345.87 1769.3,1305.73 1776.22,1267.66 1783.13,1231.97 1790.05,1198.98 1796.96,1168.97 1803.88,1142.24 1810.79,1119.05 1817.71,1099.7 1824.62,1084.47 1831.54,1073.67 1838.45,1067.6 1845.37,1066.58 1852.28,1070.9 1859.2,1080.86 1866.11,1096.68 1873.02,1118.55 1879.94,1146.55 1886.85,1180.63 1893.77,1220.59 1900.68,1266.05 1907.6,1316.46 1914.51,1371.04 1921.43,1428.85 1928.34,1488.78 1935.26,1549.61 1942.17,1610.06 1949.09,1668.86 1956,1724.78 1962.92,1776.74 1969.83,1823.79 1976.74,1865.18 1983.66,1900.38 1990.57,1929.05 1997.49,1951.04 2004.4,1966.38 2011.32,1975.26 2018.23,1977.96 2025.15,1974.87 2032.06,1966.46 2038.98,1953.24 2045.89,1935.78 2052.81,1914.65 2059.72,1890.45 2066.63,1863.79 2073.55,1835.27 2080.46,1805.49 2087.38,1775.03 2094.29,1744.42 2101.21,1714.16 2108.12,1684.72 2115.04,1656.48 2121.95,1629.82 2128.87,1605 2135.78,1582.27 2142.7,1561.81 2149.61,1543.76 2156.53,1528.21 2163.44,1515.24 2170.35,1504.89 2177.27,1497.18 2184.18,1492.13 2191.1,1489.76 2198.01,1490.05 2204.93,1493.03 2211.84,1498.7 2218.76,1507.04 2225.67,1518.05 2232.59,1531.71 2239.5,1547.95 2246.42,1566.7 2253.33,1587.83 2260.25,1611.18 2267.16,1636.52 2274.07,1663.56 2280.99,1691.97 2287.9,1721.34 2294.82,1751.2 2301.73,1781.03 2308.65,1810.27 2315.56,1838.31 2322.48,1864.54 2329.39,1888.32 2336.31,1909.02 2343.22,1926.04 2350.14,1938.79 2357.05,1946.74 2363.97,1949.4 2370.88,1946.37 2377.79,1937.32 2384.71,1922.05 2391.62,1900.47 2398.54,1872.66 2405.45,1838.83 2412.37,1799.38 2419.28,1754.91 2426.2,1706.15 2433.11,1654 2440.03,1599.49 2446.94,1543.71 2453.86,1487.79 2460.77,1432.84 2467.69,1379.9 2474.6,1329.9 2481.51,1283.65 2488.43,1241.77 2495.34,1204.76 2502.26,1172.9 2509.17,1146.39 2516.09,1125.26 2523,1109.45 2529.92,1098.84 2536.83,1093.26 2543.75,1092.48 2550.66,1096.28 2557.58,1104.44 2564.49,1116.74 2571.41,1132.96 2578.32,1152.9 2585.23,1176.36 2592.15,1203.14 2599.06,1233.04 2605.98,1265.84 2612.89,1301.29 2619.81,1339.12 2626.72,1378.99 2633.64,1420.55 2640.55,1463.39 2647.47,1507.03 2654.38,1550.96 2661.3,1594.62 2668.21,1637.41 2675.13,1678.72 2682.04,1717.89 2688.95,1754.31 2695.87,1787.35 2702.78,1816.42 2709.7,1840.98 2716.61,1860.54 2723.53,1874.71 2730.44,1883.17 2737.36,1885.73 2744.27,1882.33 2751.19,1873.04 2758.1,1858.08 2765.02,1837.83 2771.93,1812.84 2778.85,1783.78 2785.76,1751.46 2792.67,1716.76 2799.59,1680.63 2806.5,1644.01 2813.42,1607.83 2820.33,1572.93 2827.25,1540.06 2834.16,1509.83 2841.08,1482.73 2847.99,1459.1 2854.91,1439.16 2861.82,1423 2868.74,1410.62 2875.65,1401.96 2882.57,1396.89 2889.48,1395.26 2896.39,1396.89 2903.31,1401.6 2910.22,1409.23 2917.14,1419.63 2924.05,1432.66 2930.97,1448.2 2937.88,1466.16 2944.8,1486.44 2951.71,1508.95 2958.63,1533.59 2965.54,1560.25 2972.46,1588.82 2979.37,1619.12 2986.29,1650.97 2993.2,1684.14 3000.11,1718.39 3007.03,1753.41 3013.94,1788.89 3020.86,1824.5 3027.77,1859.9 3034.69,1894.74 3041.6,1928.69 3048.52,1961.43 3055.43,1992.63 3062.35,2022 3069.26,2049.22 3076.18,2073.98 3083.09,2095.92 3090.01,2114.66 3096.92,2129.72 3103.83,2140.56 3110.75,2146.56 3117.66,2146.99 3124.58,2141.03 3131.49,2127.85 3138.41,2106.58 3145.32,2076.42 3152.24,2036.73 3159.15,1987.09 3166.07,1927.44 3172.98,1858.14 3179.9,1780.04 3186.81,1694.47 3193.73,1603.28 3200.64,1508.68 3207.55,1413.13 3214.47,1319.2 3221.38,1229.36 3228.3,1145.84 3235.21,1070.51 3242.13,1004.81 3249.04,949.707 3255.96,905.759 3262.87,873.136 3269.79,851.714 3276.7,841.146 3283.62,840.935 3290.53,850.485 3297.45,869.134 3304.36,896.171 3311.27,930.844 3318.19,972.351 3325.1,1019.84 3332.02,1072.4 3338.93,1129.07 3345.85,1188.86 3352.76,1250.78 3359.68,1313.84 3366.59,1377.14 3373.51,1439.84 3380.42,1501.21 3387.34,1560.67 3394.25,1617.73 3401.16,1672.04 3408.08,1723.37 3414.99,1771.53 3421.91,1816.41 3428.82,1857.91 3435.74,1895.92 3442.65,1930.28 3449.57,1960.77 3456.48,1987.09 3463.4,2008.82 3470.31,2025.44 3477.23,2036.32 3484.14,2040.73 3491.06,2037.9 3497.97,2027.05 3504.88,2007.48 3511.8,1978.67 3518.71,1940.36 3525.63,1892.7 3532.54,1836.27 3539.46,1772.17 3546.37,1702 3553.29,1627.74 3560.2,1551.71 3567.12,1476.31 3574.03,1403.91 3580.95,1336.61 3587.86,1276.17 3594.78,1223.87 3601.69,1180.54 3608.6,1146.52 3615.52,1121.78 3622.43,1105.99 3629.35,1098.57 3636.26,1098.84 3643.18,1106.03 3650.09,1119.36 3657.01,1138.09 3663.92,1161.53 3670.84,1189.05 3677.75,1220.09 3684.67,1254.15 3691.58,1290.79 3698.5,1329.64 3705.41,1370.35 3712.32,1412.59 3719.24,1456.05 3726.15,1500.42 3733.07,1545.37 3739.98,1590.56 3746.9,1635.62 3753.81,1680.16 3760.73,1723.77 3767.64,1766.05 3774.56,1806.59 3781.47,1845.05 3788.39,1881.14 3795.3,1914.62 3802.22,1945.38 3809.13,1973.39 3816.04,1998.72 3822.96,2021.52 3829.87,2042.05 3836.79,2060.62 3843.7,2077.58 3850.62,2093.31 3857.53,2108.18 3864.45,2122.52 3871.36,2136.61 3878.28,2150.67 3885.19,2164.78 3892.11,2178.92 3899.02,2192.89 3905.94,2206.31 3912.85,2218.6 3919.76,2228.93 3926.68,2236.24 3933.59,2239.2 3940.51,2236.26 3947.42,2225.65 3954.34,2205.52 3961.25,2173.99 3968.17,2129.34 3975.08,2070.24 3982,1995.88 3988.91,1906.26 3995.83,1802.3 4002.74,1685.91 4009.66,1559.95 4016.57,1428.06 4023.48,1294.35 4030.4,1163.04 4037.31,1038.13 4044.23,923.047 4051.14,820.47 4058.06,732.257 4064.97,659.486 4071.89,602.606 4078.8,561.624 4085.72,536.312 4092.63,526.37 4099.55,531.542 4106.46,551.657 4113.38,586.588 4120.29,636.153 4127.2,699.963 4134.12,777.253 4141.03,866.733 4147.95,966.498 4154.86,1074.03 4161.78,1186.31 4168.69,1300.02 4175.61,1411.83 4182.52,1518.68 4189.44,1618.04 4196.35,1708.11 4203.27,1787.83 4210.18,1856.92 4217.1,1915.74 4224.01,1965.14 4230.92,2006.27 4237.84,2040.47 4244.75,2069.07 4251.67,2093.32 4258.58,2114.32 4265.5,2132.91 4272.41,2149.72 4279.33,2165.03 4286.24,2178.83 4293.16,2190.77 4300.07,2200.13 4306.99,2205.79 4313.9,2206.27 4320.82,2199.74 4327.73,2184.09 4334.64,2157.09 4341.56,2116.58 4348.47,2060.76 4355.39,1988.52 4362.3,1899.76 4369.22,1795.62 4376.13,1678.64 4383.05,1552.6 4389.96,1422.25 4396.88,1292.82 4403.79,1169.4 4410.71,1056.45 4417.62,957.426 4424.54,874.524 4431.45,808.757 4438.36,760.106 4445.28,727.791 4452.19,710.56 4459.11,706.947 4466.02,715.475 4472.94,734.777 4479.85,763.659 4486.77,801.114 4493.68,846.286 4500.6,898.43 4507.51,956.845 "/>
<polyline clip-path="url(#clip112)" style="stroke:#ff00ff; stroke-linecap:round; stroke-linejoin:round; stroke-width:4; stroke-opacity:1; fill:none" stroke-dasharray="16, 10" points="1264.53,4912.73 1264.53,-1890.08 "/>
<path clip-path="url(#clip110)" d="M1075.5 939.111 L1599.75 939.111 L1599.75 453.111 L1075.5 453.111  Z" fill="#ffffff" fill-rule="evenodd" fill-opacity="1"/>
<polyline clip-path="url(#clip110)" style="stroke:#000000; stroke-linecap:round; stroke-linejoin:round; stroke-width:4; stroke-opacity:1; fill:none" points="1075.5,939.111 1599.75,939.111 1599.75,453.111 1075.5,453.111 1075.5,939.111 "/>
<polyline clip-path="url(#clip110)" style="stroke:#009af9; stroke-linecap:round; stroke-linejoin:round; stroke-width:22.5; stroke-opacity:1; fill:none" points="1116.13,550.311 1359.96,550.311 "/>
<path clip-path="url(#clip110)" d="M1448.52 573.466 L1448.52 556.062 L1434.2 556.062 L1434.2 548.857 L1457.2 548.857 L1457.2 576.678 Q1452.12 580.281 1446 582.147 Q1439.88 583.97 1432.94 583.97 Q1417.75 583.97 1409.15 575.116 Q1400.6 566.218 1400.6 550.376 Q1400.6 534.491 1409.15 525.637 Q1417.75 516.739 1432.94 516.739 Q1439.27 516.739 1444.96 518.302 Q1450.69 519.864 1455.51 522.902 L1455.51 532.234 Q1450.65 528.111 1445.18 526.027 Q1439.71 523.944 1433.68 523.944 Q1421.78 523.944 1415.79 530.585 Q1409.85 537.225 1409.85 550.376 Q1409.85 563.484 1415.79 570.124 Q1421.78 576.765 1433.68 576.765 Q1438.32 576.765 1441.96 575.984 Q1445.61 575.159 1448.52 573.466 Z" fill="#000000" fill-rule="nonzero" fill-opacity="1" /><path clip-path="url(#clip110)" d="M1475.52 575.333 L1489.84 575.333 L1489.84 525.897 L1474.26 529.022 L1474.26 521.036 L1489.75 517.911 L1498.52 517.911 L1498.52 575.333 L1512.84 575.333 L1512.84 582.711 L1475.52 582.711 L1475.52 575.333 Z" fill="#000000" fill-rule="nonzero" fill-opacity="1" /><polyline clip-path="url(#clip110)" style="stroke:#e26f46; stroke-linecap:round; stroke-linejoin:round; stroke-width:22.5; stroke-opacity:1; fill:none" points="1116.13,647.511 1359.96,647.511 "/>
<path clip-path="url(#clip110)" d="M1448.52 670.666 L1448.52 653.262 L1434.2 653.262 L1434.2 646.057 L1457.2 646.057 L1457.2 673.878 Q1452.12 677.481 1446 679.347 Q1439.88 681.17 1432.94 681.17 Q1417.75 681.17 1409.15 672.316 Q1400.6 663.418 1400.6 647.576 Q1400.6 631.691 1409.15 622.837 Q1417.75 613.939 1432.94 613.939 Q1439.27 613.939 1444.96 615.502 Q1450.69 617.064 1455.51 620.102 L1455.51 629.434 Q1450.65 625.311 1445.18 623.227 Q1439.71 621.144 1433.68 621.144 Q1421.78 621.144 1415.79 627.785 Q1409.85 634.425 1409.85 647.576 Q1409.85 660.684 1415.79 667.324 Q1421.78 673.965 1433.68 673.965 Q1438.32 673.965 1441.96 673.184 Q1445.61 672.359 1448.52 670.666 Z" fill="#000000" fill-rule="nonzero" fill-opacity="1" /><path clip-path="url(#clip110)" d="M1481.55 672.533 L1512.15 672.533 L1512.15 679.911 L1471 679.911 L1471 672.533 Q1475.99 667.368 1484.59 658.687 Q1493.22 649.963 1495.44 647.446 Q1499.65 642.715 1501.3 639.46 Q1502.99 636.161 1502.99 632.993 Q1502.99 627.828 1499.34 624.573 Q1495.74 621.318 1489.92 621.318 Q1485.8 621.318 1481.2 622.75 Q1476.64 624.182 1471.44 627.09 L1471.44 618.236 Q1476.73 616.109 1481.33 615.024 Q1485.93 613.939 1489.75 613.939 Q1499.82 613.939 1505.81 618.974 Q1511.8 624.009 1511.8 632.429 Q1511.8 636.422 1510.28 640.024 Q1508.8 643.583 1504.86 648.444 Q1503.77 649.703 1497.95 655.736 Q1492.14 661.726 1481.55 672.533 Z" fill="#000000" fill-rule="nonzero" fill-opacity="1" /><polyline clip-path="url(#clip110)" style="stroke:#3da44d; stroke-linecap:round; stroke-linejoin:round; stroke-width:22.5; stroke-opacity:1; fill:none" points="1116.13,744.711 1359.96,744.711 "/>
<path clip-path="url(#clip110)" d="M1448.52 767.866 L1448.52 750.462 L1434.2 750.462 L1434.2 743.257 L1457.2 743.257 L1457.2 771.078 Q1452.12 774.681 1446 776.547 Q1439.88 778.37 1432.94 778.37 Q1417.75 778.37 1409.15 769.516 Q1400.6 760.618 1400.6 744.776 Q1400.6 728.891 1409.15 720.037 Q1417.75 711.139 1432.94 711.139 Q1439.27 711.139 1444.96 712.702 Q1450.69 714.264 1455.51 717.302 L1455.51 726.634 Q1450.65 722.511 1445.18 720.427 Q1439.71 718.344 1433.68 718.344 Q1421.78 718.344 1415.79 724.985 Q1409.85 731.625 1409.85 744.776 Q1409.85 757.884 1415.79 764.524 Q1421.78 771.165 1433.68 771.165 Q1438.32 771.165 1441.96 770.384 Q1445.61 769.559 1448.52 767.866 Z" fill="#000000" fill-rule="nonzero" fill-opacity="1" /><path clip-path="url(#clip110)" d="M1500.56 742.172 Q1506.85 743.518 1510.37 747.771 Q1513.93 752.025 1513.93 758.274 Q1513.93 767.866 1507.33 773.118 Q1500.73 778.37 1488.58 778.37 Q1484.5 778.37 1480.16 777.545 Q1475.86 776.764 1471.26 775.158 L1471.26 766.695 Q1474.91 768.821 1479.25 769.906 Q1483.59 770.991 1488.32 770.991 Q1496.57 770.991 1500.86 767.736 Q1505.2 764.481 1505.2 758.274 Q1505.2 752.545 1501.17 749.334 Q1497.17 746.078 1490.01 746.078 L1482.46 746.078 L1482.46 738.874 L1490.36 738.874 Q1496.83 738.874 1500.25 736.313 Q1503.68 733.709 1503.68 728.848 Q1503.68 723.856 1500.12 721.209 Q1496.61 718.518 1490.01 718.518 Q1486.41 718.518 1482.29 719.299 Q1478.16 720.08 1473.21 721.73 L1473.21 713.917 Q1478.21 712.528 1482.55 711.834 Q1486.93 711.139 1490.79 711.139 Q1500.78 711.139 1506.59 715.697 Q1512.41 720.21 1512.41 727.936 Q1512.41 733.318 1509.33 737.051 Q1506.24 740.74 1500.56 742.172 Z" fill="#000000" fill-rule="nonzero" fill-opacity="1" /><polyline clip-path="url(#clip110)" style="stroke:#ff00ff; stroke-linecap:round; stroke-linejoin:round; stroke-width:7.5; stroke-opacity:1; fill:none" stroke-dasharray="30, 19" points="1116.13,841.911 1359.96,841.911 "/>
<path clip-path="url(#clip110)" d="M1414.49 811.898 L1414.49 825.7 L1430.94 825.7 L1430.94 831.907 L1414.49 831.907 L1414.49 858.296 Q1414.49 864.242 1416.1 865.934 Q1417.75 867.627 1422.74 867.627 L1430.94 867.627 L1430.94 874.311 L1422.74 874.311 Q1413.49 874.311 1409.98 870.882 Q1406.46 867.41 1406.46 858.296 L1406.46 831.907 L1400.6 831.907 L1400.6 825.7 L1406.46 825.7 L1406.46 811.898 L1414.49 811.898 Z" fill="#000000" fill-rule="nonzero" fill-opacity="1" /><path clip-path="url(#clip110)" d="M1478.38 889.068 L1478.38 895.275 L1432.2 895.275 L1432.2 889.068 L1478.38 889.068 Z" fill="#000000" fill-rule="nonzero" fill-opacity="1" /><path clip-path="url(#clip110)" d="M1520.87 827.567 L1520.87 835.032 Q1517.49 833.166 1514.06 832.254 Q1510.67 831.299 1507.2 831.299 Q1499.43 831.299 1495.13 836.247 Q1490.84 841.152 1490.84 850.049 Q1490.84 858.947 1495.13 863.895 Q1499.43 868.799 1507.2 868.799 Q1510.67 868.799 1514.06 867.888 Q1517.49 866.933 1520.87 865.066 L1520.87 872.445 Q1517.53 874.007 1513.93 874.789 Q1510.37 875.57 1506.33 875.57 Q1495.35 875.57 1488.88 868.669 Q1482.42 861.768 1482.42 850.049 Q1482.42 838.157 1488.93 831.343 Q1495.48 824.528 1506.85 824.528 Q1510.54 824.528 1514.06 825.31 Q1517.57 826.048 1520.87 827.567 Z" fill="#000000" fill-rule="nonzero" fill-opacity="1" /><path clip-path="url(#clip110)" d="M1542.66 811.898 L1542.66 825.7 L1559.11 825.7 L1559.11 831.907 L1542.66 831.907 L1542.66 858.296 Q1542.66 864.242 1544.26 865.934 Q1545.91 867.627 1550.91 867.627 L1559.11 867.627 L1559.11 874.311 L1550.91 874.311 Q1541.66 874.311 1538.14 870.882 Q1534.63 867.41 1534.63 858.296 L1534.63 831.907 L1528.77 831.907 L1528.77 825.7 L1534.63 825.7 L1534.63 811.898 L1542.66 811.898 Z" fill="#000000" fill-rule="nonzero" fill-opacity="1" /></svg>
