<?xml version="1.0" encoding="utf-8"?>
<svg xmlns="http://www.w3.org/2000/svg" xmlns:xlink="http://www.w3.org/1999/xlink" width="1200" height="800" viewBox="0 0 4800 3200">
<defs>
  <clipPath id="clip670">
    <rect x="0" y="0" width="4800" height="3200"/>
  </clipPath>
</defs>
<path clip-path="url(#clip670)" d="M0 3200 L4800 3200 L4800 0 L0 0  Z" fill="#ffffff" fill-rule="evenodd" fill-opacity="1"/>
<defs>
  <clipPath id="clip671">
    <rect x="960" y="0" width="3361" height="3200"/>
  </clipPath>
</defs>
<path clip-path="url(#clip670)" d="M821.623 2645.13 L4611.02 2645.13 L4611.02 377.524 L821.623 377.524  Z" fill="#ffffff" fill-rule="evenodd" fill-opacity="1"/>
<defs>
  <clipPath id="clip672">
    <rect x="821" y="377" width="3790" height="2269"/>
  </clipPath>
</defs>
<polyline clip-path="url(#clip672)" style="stroke:#000000; stroke-linecap:round; stroke-linejoin:round; stroke-width:8; stroke-opacity:0.05; fill:none" stroke-dasharray="32, 20" points="921.706,2645.13 921.706,377.524 "/>
<polyline clip-path="url(#clip672)" style="stroke:#000000; stroke-linecap:round; stroke-linejoin:round; stroke-width:8; stroke-opacity:0.05; fill:none" stroke-dasharray="32, 20" points="1638.12,2645.13 1638.12,377.524 "/>
<polyline clip-path="url(#clip672)" style="stroke:#000000; stroke-linecap:round; stroke-linejoin:round; stroke-width:8; stroke-opacity:0.05; fill:none" stroke-dasharray="32, 20" points="2354.53,2645.13 2354.53,377.524 "/>
<polyline clip-path="url(#clip672)" style="stroke:#000000; stroke-linecap:round; stroke-linejoin:round; stroke-width:8; stroke-opacity:0.05; fill:none" stroke-dasharray="32, 20" points="3070.95,2645.13 3070.95,377.524 "/>
<polyline clip-path="url(#clip672)" style="stroke:#000000; stroke-linecap:round; stroke-linejoin:round; stroke-width:8; stroke-opacity:0.05; fill:none" stroke-dasharray="32, 20" points="3787.36,2645.13 3787.36,377.524 "/>
<polyline clip-path="url(#clip672)" style="stroke:#000000; stroke-linecap:round; stroke-linejoin:round; stroke-width:8; stroke-opacity:0.05; fill:none" stroke-dasharray="32, 20" points="4503.78,2645.13 4503.78,377.524 "/>
<polyline clip-path="url(#clip672)" style="stroke:#000000; stroke-linecap:round; stroke-linejoin:round; stroke-width:8; stroke-opacity:0.05; fill:none" stroke-dasharray="32, 20" points="821.623,2361.81 4611.02,2361.81 "/>
<polyline clip-path="url(#clip672)" style="stroke:#000000; stroke-linecap:round; stroke-linejoin:round; stroke-width:8; stroke-opacity:0.05; fill:none" stroke-dasharray="32, 20" points="821.623,1721.77 4611.02,1721.77 "/>
<polyline clip-path="url(#clip672)" style="stroke:#000000; stroke-linecap:round; stroke-linejoin:round; stroke-width:8; stroke-opacity:0.05; fill:none" stroke-dasharray="32, 20" points="821.623,1081.74 4611.02,1081.74 "/>
<polyline clip-path="url(#clip672)" style="stroke:#000000; stroke-linecap:round; stroke-linejoin:round; stroke-width:8; stroke-opacity:0.05; fill:none" stroke-dasharray="32, 20" points="821.623,441.702 4611.02,441.702 "/>
<polyline clip-path="url(#clip670)" style="stroke:#000000; stroke-linecap:round; stroke-linejoin:round; stroke-width:4; stroke-opacity:1; fill:none" points="821.623,2645.13 4611.02,2645.13 "/>
<polyline clip-path="url(#clip670)" style="stroke:#000000; stroke-linecap:round; stroke-linejoin:round; stroke-width:4; stroke-opacity:1; fill:none" points="921.706,2645.13 921.706,2626.23 "/>
<polyline clip-path="url(#clip670)" style="stroke:#000000; stroke-linecap:round; stroke-linejoin:round; stroke-width:4; stroke-opacity:1; fill:none" points="1638.12,2645.13 1638.12,2626.23 "/>
<polyline clip-path="url(#clip670)" style="stroke:#000000; stroke-linecap:round; stroke-linejoin:round; stroke-width:4; stroke-opacity:1; fill:none" points="2354.53,2645.13 2354.53,2626.23 "/>
<polyline clip-path="url(#clip670)" style="stroke:#000000; stroke-linecap:round; stroke-linejoin:round; stroke-width:4; stroke-opacity:1; fill:none" points="3070.95,2645.13 3070.95,2626.23 "/>
<polyline clip-path="url(#clip670)" style="stroke:#000000; stroke-linecap:round; stroke-linejoin:round; stroke-width:4; stroke-opacity:1; fill:none" points="3787.36,2645.13 3787.36,2626.23 "/>
<polyline clip-path="url(#clip670)" style="stroke:#000000; stroke-linecap:round; stroke-linejoin:round; stroke-width:4; stroke-opacity:1; fill:none" points="4503.78,2645.13 4503.78,2626.23 "/>
<path clip-path="url(#clip670)" d="M921.706 2734.8 Q905.908 2734.8 897.907 2750.39 Q890.008 2765.89 890.008 2797.08 Q890.008 2828.17 897.907 2843.77 Q905.908 2859.26 921.706 2859.26 Q937.606 2859.26 945.506 2843.77 Q953.506 2828.17 953.506 2797.08 Q953.506 2765.89 945.506 2750.39 Q937.606 2734.8 921.706 2734.8 M921.706 2718.59 Q947.126 2718.59 960.494 2738.75 Q973.963 2758.8 973.963 2797.08 Q973.963 2835.26 960.494 2855.41 Q947.126 2875.46 921.706 2875.46 Q896.287 2875.46 882.818 2855.41 Q869.45 2835.26 869.45 2797.08 Q869.45 2758.8 882.818 2738.75 Q896.287 2718.59 921.706 2718.59 Z" fill="#000000" fill-rule="nonzero" fill-opacity="1" /><path clip-path="url(#clip670)" d="M1596.04 2855.31 L1629.46 2855.31 L1629.46 2739.96 L1593.1 2747.25 L1593.1 2728.62 L1629.26 2721.33 L1649.72 2721.33 L1649.72 2855.31 L1683.14 2855.31 L1683.14 2872.53 L1596.04 2872.53 L1596.04 2855.31 Z" fill="#000000" fill-rule="nonzero" fill-opacity="1" /><path clip-path="url(#clip670)" d="M2331.14 2855.31 L2402.54 2855.31 L2402.54 2872.53 L2306.53 2872.53 L2306.53 2855.31 Q2318.18 2843.26 2338.23 2823.01 Q2358.38 2802.65 2363.55 2796.78 Q2373.37 2785.74 2377.22 2778.14 Q2381.17 2770.44 2381.17 2763.05 Q2381.17 2751 2372.66 2743.4 Q2364.26 2735.81 2350.69 2735.81 Q2341.07 2735.81 2330.33 2739.15 Q2319.7 2742.49 2307.54 2749.28 L2307.54 2728.62 Q2319.9 2723.66 2330.63 2721.13 Q2341.37 2718.59 2350.28 2718.59 Q2373.78 2718.59 2387.75 2730.34 Q2401.73 2742.09 2401.73 2761.74 Q2401.73 2771.05 2398.18 2779.46 Q2394.74 2787.76 2385.52 2799.1 Q2382.99 2802.04 2369.42 2816.12 Q2355.85 2830.09 2331.14 2855.31 Z" fill="#000000" fill-rule="nonzero" fill-opacity="1" /><path clip-path="url(#clip670)" d="M3089.53 2791 Q3104.22 2794.14 3112.42 2804.07 Q3120.72 2813.99 3120.72 2828.58 Q3120.72 2850.96 3105.33 2863.21 Q3089.94 2875.46 3061.58 2875.46 Q3052.06 2875.46 3041.93 2873.54 Q3031.91 2871.72 3021.17 2867.97 L3021.17 2848.22 Q3029.68 2853.18 3039.81 2855.72 Q3049.93 2858.25 3060.97 2858.25 Q3080.21 2858.25 3090.24 2850.65 Q3100.37 2843.06 3100.37 2828.58 Q3100.37 2815.21 3090.95 2807.71 Q3081.63 2800.12 3064.92 2800.12 L3047.3 2800.12 L3047.3 2783.31 L3065.73 2783.31 Q3080.82 2783.31 3088.82 2777.33 Q3096.82 2771.25 3096.82 2759.91 Q3096.82 2748.27 3088.52 2742.09 Q3080.32 2735.81 3064.92 2735.81 Q3056.52 2735.81 3046.9 2737.63 Q3037.28 2739.46 3025.73 2743.3 L3025.73 2725.07 Q3037.38 2721.83 3047.5 2720.21 Q3057.73 2718.59 3066.75 2718.59 Q3090.04 2718.59 3103.61 2729.23 Q3117.18 2739.76 3117.18 2757.79 Q3117.18 2770.34 3109.99 2779.05 Q3102.8 2787.66 3089.53 2791 Z" fill="#000000" fill-rule="nonzero" fill-opacity="1" /><path clip-path="url(#clip670)" d="M3800.53 2739.15 L3748.88 2819.87 L3800.53 2819.87 L3800.53 2739.15 M3795.16 2721.33 L3820.88 2721.33 L3820.88 2819.87 L3842.45 2819.87 L3842.45 2836.88 L3820.88 2836.88 L3820.88 2872.53 L3800.53 2872.53 L3800.53 2836.88 L3732.27 2836.88 L3732.27 2817.13 L3795.16 2721.33 Z" fill="#000000" fill-rule="nonzero" fill-opacity="1" /><path clip-path="url(#clip670)" d="M4461.24 2721.33 L4541.55 2721.33 L4541.55 2738.54 L4479.98 2738.54 L4479.98 2775.61 Q4484.43 2774.09 4488.89 2773.38 Q4493.35 2772.57 4497.8 2772.57 Q4523.12 2772.57 4537.91 2786.45 Q4552.69 2800.32 4552.69 2824.02 Q4552.69 2848.42 4537.5 2862 Q4522.31 2875.46 4494.66 2875.46 Q4485.14 2875.46 4475.22 2873.84 Q4465.39 2872.22 4454.86 2868.98 L4454.86 2848.42 Q4463.98 2853.39 4473.7 2855.82 Q4483.42 2858.25 4494.26 2858.25 Q4511.78 2858.25 4522.01 2849.03 Q4532.23 2839.82 4532.23 2824.02 Q4532.23 2808.22 4522.01 2799 Q4511.78 2789.79 4494.26 2789.79 Q4486.05 2789.79 4477.85 2791.61 Q4469.75 2793.43 4461.24 2797.28 L4461.24 2721.33 Z" fill="#000000" fill-rule="nonzero" fill-opacity="1" /><path clip-path="url(#clip670)" d="M2551.86 2979.74 L2551.86 3011.94 L2590.24 3011.94 L2590.24 3026.42 L2551.86 3026.42 L2551.86 3088 Q2551.86 3101.87 2555.6 3105.82 Q2559.45 3109.77 2571.1 3109.77 L2590.24 3109.77 L2590.24 3125.37 L2571.1 3125.37 Q2549.53 3125.37 2541.32 3117.37 Q2533.12 3109.27 2533.12 3088 L2533.12 3026.42 L2519.45 3026.42 L2519.45 3011.94 L2533.12 3011.94 L2533.12 2979.74 L2551.86 2979.74 Z" fill="#000000" fill-rule="nonzero" fill-opacity="1" /><path clip-path="url(#clip670)" d="M2725.44 2967.99 Q2711.87 2991.28 2705.28 3014.07 Q2698.7 3036.86 2698.7 3060.25 Q2698.7 3083.64 2705.28 3106.63 Q2711.97 3129.52 2725.44 3152.71 L2709.23 3152.71 Q2694.04 3128.91 2686.45 3105.92 Q2678.95 3082.93 2678.95 3060.25 Q2678.95 3037.67 2686.45 3014.78 Q2693.94 2991.89 2709.23 2967.99 L2725.44 2967.99 Z" fill="#000000" fill-rule="nonzero" fill-opacity="1" /><path clip-path="url(#clip670)" d="M2833.9 3015.28 L2833.9 3032.91 Q2826 3028.85 2817.49 3026.83 Q2808.99 3024.8 2799.87 3024.8 Q2786 3024.8 2779.01 3029.06 Q2772.12 3033.31 2772.12 3041.82 Q2772.12 3048.3 2777.09 3052.05 Q2782.05 3055.69 2797.04 3059.03 L2803.42 3060.45 Q2823.27 3064.71 2831.57 3072.5 Q2839.98 3080.2 2839.98 3094.07 Q2839.98 3109.87 2827.42 3119.09 Q2814.96 3128.3 2793.09 3128.3 Q2783.97 3128.3 2774.05 3126.48 Q2764.23 3124.76 2753.29 3121.22 L2753.29 3101.97 Q2763.62 3107.34 2773.64 3110.08 Q2783.67 3112.71 2793.49 3112.71 Q2806.66 3112.71 2813.75 3108.25 Q2820.84 3103.7 2820.84 3095.49 Q2820.84 3087.9 2815.67 3083.85 Q2810.61 3079.79 2793.29 3076.05 L2786.81 3074.53 Q2769.49 3070.88 2761.79 3063.39 Q2754.1 3055.79 2754.1 3042.63 Q2754.1 3026.63 2765.44 3017.92 Q2776.78 3009.21 2797.65 3009.21 Q2807.98 3009.21 2817.09 3010.73 Q2826.2 3012.25 2833.9 3015.28 Z" fill="#000000" fill-rule="nonzero" fill-opacity="1" /><path clip-path="url(#clip670)" d="M2866.71 2967.99 L2882.92 2967.99 Q2898.11 2991.89 2905.6 3014.78 Q2913.2 3037.67 2913.2 3060.25 Q2913.2 3082.93 2905.6 3105.92 Q2898.11 3128.91 2882.92 3152.71 L2866.71 3152.71 Q2880.18 3129.52 2886.77 3106.63 Q2893.45 3083.64 2893.45 3060.25 Q2893.45 3036.86 2886.77 3014.07 Q2880.18 2991.28 2866.71 2967.99 Z" fill="#000000" fill-rule="nonzero" fill-opacity="1" /><polyline clip-path="url(#clip670)" style="stroke:#000000; stroke-linecap:round; stroke-linejoin:round; stroke-width:4; stroke-opacity:1; fill:none" points="821.623,2645.13 821.623,377.524 "/>
<polyline clip-path="url(#clip670)" style="stroke:#000000; stroke-linecap:round; stroke-linejoin:round; stroke-width:4; stroke-opacity:1; fill:none" points="821.623,2361.81 840.521,2361.81 "/>
<polyline clip-path="url(#clip670)" style="stroke:#000000; stroke-linecap:round; stroke-linejoin:round; stroke-width:4; stroke-opacity:1; fill:none" points="821.623,1721.77 840.521,1721.77 "/>
<polyline clip-path="url(#clip670)" style="stroke:#000000; stroke-linecap:round; stroke-linejoin:round; stroke-width:4; stroke-opacity:1; fill:none" points="821.623,1081.74 840.521,1081.74 "/>
<polyline clip-path="url(#clip670)" style="stroke:#000000; stroke-linecap:round; stroke-linejoin:round; stroke-width:4; stroke-opacity:1; fill:none" points="821.623,441.702 840.521,441.702 "/>
<path clip-path="url(#clip670)" d="M347.672 2363.78 L477.504 2363.78 L477.504 2381 L347.672 2381 L347.672 2363.78 Z" fill="#000000" fill-rule="nonzero" fill-opacity="1" /><path clip-path="url(#clip670)" d="M521.861 2286.21 L602.17 2286.21 L602.17 2303.42 L540.597 2303.42 L540.597 2340.49 Q545.053 2338.97 549.509 2338.26 Q553.965 2337.45 558.421 2337.45 Q583.739 2337.45 598.525 2351.33 Q613.31 2365.2 613.31 2388.9 Q613.31 2413.3 598.12 2426.87 Q582.929 2440.34 555.281 2440.34 Q545.762 2440.34 535.837 2438.72 Q526.013 2437.1 515.481 2433.86 L515.481 2413.3 Q524.596 2418.27 534.318 2420.7 Q544.04 2423.13 554.876 2423.13 Q572.396 2423.13 582.625 2413.91 Q592.853 2404.7 592.853 2388.9 Q592.853 2373.1 582.625 2363.88 Q572.396 2354.67 554.876 2354.67 Q546.673 2354.67 538.47 2356.49 Q530.368 2358.31 521.861 2362.16 L521.861 2286.21 Z" fill="#000000" fill-rule="nonzero" fill-opacity="1" /><path clip-path="url(#clip670)" d="M697.367 2299.68 Q681.568 2299.68 673.568 2315.27 Q665.668 2330.77 665.668 2361.96 Q665.668 2393.05 673.568 2408.65 Q681.568 2424.14 697.367 2424.14 Q713.267 2424.14 721.166 2408.65 Q729.166 2393.05 729.166 2361.96 Q729.166 2330.77 721.166 2315.27 Q713.267 2299.68 697.367 2299.68 M697.367 2283.47 Q722.786 2283.47 736.154 2303.63 Q749.623 2323.68 749.623 2361.96 Q749.623 2400.14 736.154 2420.29 Q722.786 2440.34 697.367 2440.34 Q671.947 2440.34 658.478 2420.29 Q645.11 2400.14 645.11 2361.96 Q645.11 2323.68 658.478 2303.63 Q671.947 2283.47 697.367 2283.47 Z" fill="#000000" fill-rule="nonzero" fill-opacity="1" /><path clip-path="url(#clip670)" d="M697.367 1659.64 Q681.568 1659.64 673.568 1675.24 Q665.668 1690.73 665.668 1721.92 Q665.668 1753.01 673.568 1768.61 Q681.568 1784.11 697.367 1784.11 Q713.267 1784.11 721.166 1768.61 Q729.166 1753.01 729.166 1721.92 Q729.166 1690.73 721.166 1675.24 Q713.267 1659.64 697.367 1659.64 M697.367 1643.44 Q722.786 1643.44 736.154 1663.59 Q749.623 1683.64 749.623 1721.92 Q749.623 1760.1 736.154 1780.26 Q722.786 1800.31 697.367 1800.31 Q671.947 1800.31 658.478 1780.26 Q645.11 1760.1 645.11 1721.92 Q645.11 1683.64 658.478 1663.59 Q671.947 1643.44 697.367 1643.44 Z" fill="#000000" fill-rule="nonzero" fill-opacity="1" /><path clip-path="url(#clip670)" d="M521.861 1006.14 L602.17 1006.14 L602.17 1023.35 L540.597 1023.35 L540.597 1060.42 Q545.053 1058.9 549.509 1058.19 Q553.965 1057.38 558.421 1057.38 Q583.739 1057.38 598.525 1071.26 Q613.31 1085.13 613.31 1108.83 Q613.31 1133.23 598.12 1146.8 Q582.929 1160.27 555.281 1160.27 Q545.762 1160.27 535.837 1158.65 Q526.013 1157.03 515.481 1153.79 L515.481 1133.23 Q524.596 1138.2 534.318 1140.63 Q544.04 1143.06 554.876 1143.06 Q572.396 1143.06 582.625 1133.84 Q592.853 1124.63 592.853 1108.83 Q592.853 1093.03 582.625 1083.81 Q572.396 1074.6 554.876 1074.6 Q546.673 1074.6 538.47 1076.42 Q530.368 1078.24 521.861 1082.09 L521.861 1006.14 Z" fill="#000000" fill-rule="nonzero" fill-opacity="1" /><path clip-path="url(#clip670)" d="M697.367 1019.61 Q681.568 1019.61 673.568 1035.2 Q665.668 1050.7 665.668 1081.89 Q665.668 1112.98 673.568 1128.58 Q681.568 1144.07 697.367 1144.07 Q713.267 1144.07 721.166 1128.58 Q729.166 1112.98 729.166 1081.89 Q729.166 1050.7 721.166 1035.2 Q713.267 1019.61 697.367 1019.61 M697.367 1003.4 Q722.786 1003.4 736.154 1023.56 Q749.623 1043.61 749.623 1081.89 Q749.623 1120.07 736.154 1140.22 Q722.786 1160.27 697.367 1160.27 Q671.947 1160.27 658.478 1140.22 Q645.11 1120.07 645.11 1081.89 Q645.11 1043.61 658.478 1023.56 Q671.947 1003.4 697.367 1003.4 Z" fill="#000000" fill-rule="nonzero" fill-opacity="1" /><path clip-path="url(#clip670)" d="M393.245 500.086 L426.665 500.086 L426.665 384.736 L390.308 392.028 L390.308 373.393 L426.463 366.102 L446.92 366.102 L446.92 500.086 L480.34 500.086 L480.34 517.302 L393.245 517.302 L393.245 500.086 Z" fill="#000000" fill-rule="nonzero" fill-opacity="1" /><path clip-path="url(#clip670)" d="M565.409 379.571 Q549.61 379.571 541.609 395.167 Q533.71 410.662 533.71 441.854 Q533.71 472.944 541.609 488.54 Q549.61 504.035 565.409 504.035 Q581.308 504.035 589.208 488.54 Q597.208 472.944 597.208 441.854 Q597.208 410.662 589.208 395.167 Q581.308 379.571 565.409 379.571 M565.409 363.368 Q590.828 363.368 604.196 383.521 Q617.665 403.573 617.665 441.854 Q617.665 480.034 604.196 500.187 Q590.828 520.239 565.409 520.239 Q539.989 520.239 526.52 500.187 Q513.152 480.034 513.152 441.854 Q513.152 403.573 526.52 383.521 Q539.989 363.368 565.409 363.368 Z" fill="#000000" fill-rule="nonzero" fill-opacity="1" /><path clip-path="url(#clip670)" d="M697.367 379.571 Q681.568 379.571 673.568 395.167 Q665.668 410.662 665.668 441.854 Q665.668 472.944 673.568 488.54 Q681.568 504.035 697.367 504.035 Q713.267 504.035 721.166 488.54 Q729.166 472.944 729.166 441.854 Q729.166 410.662 721.166 395.167 Q713.267 379.571 697.367 379.571 M697.367 363.368 Q722.786 363.368 736.154 383.521 Q749.623 403.573 749.623 441.854 Q749.623 480.034 736.154 500.187 Q722.786 520.239 697.367 520.239 Q671.947 520.239 658.478 500.187 Q645.11 480.034 645.11 441.854 Q645.11 403.573 658.478 383.521 Q671.947 363.368 697.367 363.368 Z" fill="#000000" fill-rule="nonzero" fill-opacity="1" /><path clip-path="url(#clip670)" d="M98.9619 2015.71 Q91.8728 2026.04 91.8728 2050.25 Q91.8728 2075.87 103.722 2075.87 Q113.039 2075.87 117.9 2049.13 Q121.647 2028.07 132.989 2016.22 Q146.661 2001.84 174.714 2001.84 Q201.551 2001.84 217.35 2015.71 Q233.249 2029.59 233.249 2053.89 Q233.249 2078.1 217.35 2092.07 Q201.551 2105.95 173.701 2105.95 Q153.041 2105.95 136.331 2092.07 Q129.85 2086.71 126.204 2079.11 Q118.204 2094.91 103.924 2094.91 Q76.3781 2094.91 76.3781 2050.25 Q76.3781 2027.87 83.4672 2015.71 L98.9619 2015.71 M131.268 2065.14 Q134.205 2072.02 141.598 2077.59 Q153.041 2086.3 173.701 2086.3 Q194.259 2086.3 205.804 2077.69 Q217.451 2068.98 217.451 2053.89 Q217.451 2039.01 205.703 2030.3 Q193.956 2021.59 174.714 2021.59 Q154.561 2021.59 144.838 2030.8 Q134.407 2040.63 133.293 2053.39 Q132.686 2059.87 131.268 2065.14 Z" fill="#000000" fill-rule="nonzero" fill-opacity="1" /><path clip-path="url(#clip670)" d="M264.745 1884.77 L279.227 1884.77 L279.227 1992.52 L264.745 1992.52 L264.745 1884.77 Z" fill="#000000" fill-rule="nonzero" fill-opacity="1" /><path clip-path="url(#clip670)" d="M90.7588 1753.22 L112.33 1753.22 Q102.709 1763.55 97.9491 1775.29 Q93.1893 1786.94 93.1893 1800.1 Q93.1893 1826.03 109.089 1839.8 Q124.888 1853.58 154.864 1853.58 Q184.74 1853.58 200.64 1839.8 Q216.438 1826.03 216.438 1800.1 Q216.438 1786.94 211.678 1775.29 Q206.918 1763.55 197.298 1753.22 L218.666 1753.22 Q225.958 1763.95 229.604 1776 Q233.249 1787.95 233.249 1801.32 Q233.249 1835.65 212.286 1855.4 Q191.221 1875.15 154.864 1875.15 Q118.406 1875.15 97.4428 1855.4 Q76.3781 1835.65 76.3781 1801.32 Q76.3781 1787.75 80.0239 1775.8 Q83.5684 1763.75 90.7588 1753.22 Z" fill="#000000" fill-rule="nonzero" fill-opacity="1" /><path clip-path="url(#clip670)" d="M92.9868 1660.25 Q92.9868 1682.53 109.595 1695.69 Q126.204 1708.76 154.864 1708.76 Q183.423 1708.76 200.032 1695.69 Q216.641 1682.53 216.641 1660.25 Q216.641 1637.97 200.032 1625 Q183.423 1611.94 154.864 1611.94 Q126.204 1611.94 109.595 1625 Q92.9868 1637.97 92.9868 1660.25 M76.3781 1660.25 Q76.3781 1628.45 97.7466 1609.41 Q119.014 1590.37 154.864 1590.37 Q190.614 1590.37 211.982 1609.41 Q233.249 1628.45 233.249 1660.25 Q233.249 1692.15 211.982 1711.29 Q190.715 1730.33 154.864 1730.33 Q119.014 1730.33 97.7466 1711.29 Q76.3781 1692.15 76.3781 1660.25 Z" fill="#000000" fill-rule="nonzero" fill-opacity="1" /><path clip-path="url(#clip670)" d="M79.1124 1558.37 L79.1124 1537.91 L230.312 1537.91 L230.312 1558.37 L79.1124 1558.37 Z" fill="#000000" fill-rule="nonzero" fill-opacity="1" /><path clip-path="url(#clip670)" d="M72.9348 1387.32 Q96.2275 1400.89 119.014 1407.47 Q141.8 1414.05 165.194 1414.05 Q188.588 1414.05 211.577 1407.47 Q234.465 1400.79 257.656 1387.32 L257.656 1403.52 Q233.857 1418.71 210.868 1426.31 Q187.879 1433.8 165.194 1433.8 Q142.61 1433.8 119.723 1426.31 Q96.8351 1418.81 72.9348 1403.52 L72.9348 1387.32 Z" fill="#000000" fill-rule="nonzero" fill-opacity="1" /><path clip-path="url(#clip670)" d="M134.103 1276.53 L72.7323 1276.53 L72.7323 1257.89 L230.312 1257.89 L230.312 1276.53 L213.299 1276.53 Q223.426 1282.4 228.388 1291.41 Q233.249 1300.32 233.249 1312.88 Q233.249 1333.44 216.843 1346.4 Q200.437 1359.27 173.701 1359.27 Q146.965 1359.27 130.559 1346.4 Q114.153 1333.44 114.153 1312.88 Q114.153 1300.32 119.115 1291.41 Q123.976 1282.4 134.103 1276.53 M173.701 1340.02 Q194.259 1340.02 206.007 1331.62 Q217.653 1323.11 217.653 1308.33 Q217.653 1293.54 206.007 1285.03 Q194.259 1276.53 173.701 1276.53 Q153.143 1276.53 141.496 1285.03 Q129.749 1293.54 129.749 1308.33 Q129.749 1323.11 141.496 1331.62 Q153.143 1340.02 173.701 1340.02 Z" fill="#000000" fill-rule="nonzero" fill-opacity="1" /><path clip-path="url(#clip670)" d="M168.941 1122.49 L178.056 1122.49 L178.056 1208.17 Q197.298 1206.95 207.425 1196.62 Q217.451 1186.19 217.451 1167.66 Q217.451 1156.92 214.818 1146.9 Q212.185 1136.77 206.918 1126.84 L224.54 1126.84 Q228.793 1136.87 231.021 1147.4 Q233.249 1157.94 233.249 1168.77 Q233.249 1195.91 217.451 1211.81 Q201.652 1227.61 174.714 1227.61 Q146.864 1227.61 130.559 1212.62 Q114.153 1197.53 114.153 1172.01 Q114.153 1149.12 128.939 1135.86 Q143.623 1122.49 168.941 1122.49 M163.473 1141.12 Q148.18 1141.33 139.066 1149.73 Q129.951 1158.04 129.951 1171.81 Q129.951 1187.41 138.762 1196.82 Q147.573 1206.14 163.574 1207.56 L163.473 1141.12 Z" fill="#000000" fill-rule="nonzero" fill-opacity="1" /><path clip-path="url(#clip670)" d="M172.283 1017.27 Q152.029 1017.27 140.889 1025.67 Q129.749 1033.98 129.749 1049.07 Q129.749 1064.06 140.889 1072.46 Q152.029 1080.77 172.283 1080.77 Q192.436 1080.77 203.576 1072.46 Q214.716 1064.06 214.716 1049.07 Q214.716 1033.98 203.576 1025.67 Q192.436 1017.27 172.283 1017.27 M216.236 998.633 Q245.2 998.633 259.276 1011.5 Q273.455 1024.36 273.455 1050.89 Q273.455 1060.71 271.935 1069.42 Q270.518 1078.13 267.479 1086.34 L249.352 1086.34 Q253.808 1078.13 255.934 1070.13 Q258.061 1062.13 258.061 1053.83 Q258.061 1035.5 248.44 1026.38 Q238.921 1017.27 219.578 1017.27 L210.362 1017.27 Q220.388 1023.04 225.35 1032.05 Q230.312 1041.07 230.312 1053.62 Q230.312 1074.49 214.413 1087.25 Q198.513 1100.01 172.283 1100.01 Q145.952 1100.01 130.053 1087.25 Q114.153 1074.49 114.153 1053.62 Q114.153 1041.07 119.115 1032.05 Q124.077 1023.04 134.103 1017.27 L116.887 1017.27 L116.887 998.633 L216.236 998.633 Z" fill="#000000" fill-rule="nonzero" fill-opacity="1" /><path clip-path="url(#clip670)" d="M72.9348 963.188 L72.9348 946.984 Q96.8351 931.793 119.723 924.299 Q142.61 916.704 165.194 916.704 Q187.879 916.704 210.868 924.299 Q233.857 931.793 257.656 946.984 L257.656 963.188 Q234.465 949.719 211.577 943.136 Q188.588 936.452 165.194 936.452 Q141.8 936.452 119.014 943.136 Q96.2275 949.719 72.9348 963.188 Z" fill="#000000" fill-rule="nonzero" fill-opacity="1" /><path clip-path="url(#clip670)" d="M1497.52 126.342 Q1505.05 128.888 1512.11 137.221 Q1519.28 145.555 1526.46 160.138 L1550.18 207.36 L1525.07 207.36 L1502.96 163.032 Q1494.4 145.671 1486.3 139.999 Q1478.31 134.328 1464.42 134.328 L1438.96 134.328 L1438.96 207.36 L1415.58 207.36 L1415.58 34.56 L1468.36 34.56 Q1497.99 34.56 1512.57 46.9442 Q1527.15 59.3284 1527.15 84.3283 Q1527.15 100.648 1519.51 111.411 Q1511.99 122.175 1497.52 126.342 M1438.96 53.7729 L1438.96 115.115 L1468.36 115.115 Q1485.25 115.115 1493.82 107.361 Q1502.5 99.4902 1502.5 84.3283 Q1502.5 69.1663 1493.82 61.5274 Q1485.25 53.7729 1468.36 53.7729 L1438.96 53.7729 Z" fill="#000000" fill-rule="nonzero" fill-opacity="1" /><path clip-path="url(#clip670)" d="M1618.93 92.6615 Q1601.8 92.6615 1591.85 106.087 Q1581.9 119.398 1581.9 142.661 Q1581.9 165.925 1591.73 179.351 Q1601.69 192.661 1618.93 192.661 Q1635.95 192.661 1645.9 179.235 Q1655.85 165.809 1655.85 142.661 Q1655.85 119.629 1645.9 106.203 Q1635.95 92.6615 1618.93 92.6615 M1618.93 74.6061 Q1646.71 74.6061 1662.57 92.6615 Q1678.42 110.717 1678.42 142.661 Q1678.42 174.49 1662.57 192.661 Q1646.71 210.716 1618.93 210.716 Q1591.04 210.716 1575.18 192.661 Q1559.44 174.49 1559.44 142.661 Q1559.44 110.717 1575.18 92.6615 Q1591.04 74.6061 1618.93 74.6061 Z" fill="#000000" fill-rule="nonzero" fill-opacity="1" /><path clip-path="url(#clip670)" d="M1734.79 40.9257 L1734.79 77.7311 L1778.65 77.7311 L1778.65 94.2819 L1734.79 94.2819 L1734.79 164.652 Q1734.79 180.508 1739.07 185.022 Q1743.47 189.536 1756.78 189.536 L1778.65 189.536 L1778.65 207.36 L1756.78 207.36 Q1732.13 207.36 1722.75 198.217 Q1713.38 188.957 1713.38 164.652 L1713.38 94.2819 L1697.75 94.2819 L1697.75 77.7311 L1713.38 77.7311 L1713.38 40.9257 L1734.79 40.9257 Z" fill="#000000" fill-rule="nonzero" fill-opacity="1" /><path clip-path="url(#clip670)" d="M1856.9 92.6615 Q1839.77 92.6615 1829.81 106.087 Q1819.86 119.398 1819.86 142.661 Q1819.86 165.925 1829.7 179.351 Q1839.65 192.661 1856.9 192.661 Q1873.91 192.661 1883.86 179.235 Q1893.82 165.809 1893.82 142.661 Q1893.82 119.629 1883.86 106.203 Q1873.91 92.6615 1856.9 92.6615 M1856.9 74.6061 Q1884.67 74.6061 1900.53 92.6615 Q1916.39 110.717 1916.39 142.661 Q1916.39 174.49 1900.53 192.661 Q1884.67 210.716 1856.9 210.716 Q1829 210.716 1813.15 192.661 Q1797.4 174.49 1797.4 142.661 Q1797.4 110.717 1813.15 92.6615 Q1829 74.6061 1856.9 74.6061 Z" fill="#000000" fill-rule="nonzero" fill-opacity="1" /><path clip-path="url(#clip670)" d="M2026.8 97.6384 Q2023.21 95.555 2018.93 94.6291 Q2014.76 93.5875 2009.67 93.5875 Q1991.62 93.5875 1981.89 105.393 Q1972.29 117.083 1972.29 139.073 L1972.29 207.36 L1950.88 207.36 L1950.88 77.7311 L1972.29 77.7311 L1972.29 97.8698 Q1979 86.0644 1989.76 80.3931 Q2000.53 74.6061 2015.92 74.6061 Q2018.12 74.6061 2020.78 74.9533 Q2023.45 75.1848 2026.69 75.7635 L2026.8 97.6384 Z" fill="#000000" fill-rule="nonzero" fill-opacity="1" /><path clip-path="url(#clip670)" d="M2183.17 57.5923 L2151.45 143.587 L2215 143.587 L2183.17 57.5923 M2169.97 34.56 L2196.48 34.56 L2262.33 207.36 L2238.03 207.36 L2222.29 163.032 L2144.39 163.032 L2128.65 207.36 L2104 207.36 L2169.97 34.56 Z" fill="#000000" fill-rule="nonzero" fill-opacity="1" /><path clip-path="url(#clip670)" d="M2394.39 129.12 L2394.39 207.36 L2373.1 207.36 L2373.1 129.814 Q2373.1 111.411 2365.92 102.268 Q2358.74 93.1245 2344.39 93.1245 Q2327.15 93.1245 2317.19 104.12 Q2307.24 115.115 2307.24 134.097 L2307.24 207.36 L2285.83 207.36 L2285.83 77.7311 L2307.24 77.7311 L2307.24 97.8698 Q2314.88 86.1801 2325.18 80.3931 Q2335.6 74.6061 2349.14 74.6061 Q2371.48 74.6061 2382.93 88.4949 Q2394.39 102.268 2394.39 129.12 Z" fill="#000000" fill-rule="nonzero" fill-opacity="1" /><path clip-path="url(#clip670)" d="M2522.17 141.041 Q2522.17 117.893 2512.56 105.161 Q2503.07 92.4301 2485.83 92.4301 Q2468.7 92.4301 2459.09 105.161 Q2449.6 117.893 2449.6 141.041 Q2449.6 164.073 2459.09 176.805 Q2468.7 189.536 2485.83 189.536 Q2503.07 189.536 2512.56 176.805 Q2522.17 164.073 2522.17 141.041 M2543.47 191.272 Q2543.47 224.374 2528.77 240.462 Q2514.07 256.665 2483.74 256.665 Q2472.52 256.665 2462.56 254.929 Q2452.61 253.309 2443.23 249.837 L2443.23 229.119 Q2452.61 234.212 2461.75 236.642 Q2470.9 239.073 2480.39 239.073 Q2501.34 239.073 2511.75 228.077 Q2522.17 217.198 2522.17 195.092 L2522.17 184.559 Q2515.57 196.017 2505.27 201.689 Q2494.97 207.36 2480.62 207.36 Q2456.78 207.36 2442.19 189.189 Q2427.61 171.018 2427.61 141.041 Q2427.61 110.948 2442.19 92.7773 Q2456.78 74.6061 2480.62 74.6061 Q2494.97 74.6061 2505.27 80.2773 Q2515.57 85.9486 2522.17 97.4069 L2522.17 77.7311 L2543.47 77.7311 L2543.47 191.272 Z" fill="#000000" fill-rule="nonzero" fill-opacity="1" /><path clip-path="url(#clip670)" d="M2587.33 27.2684 L2608.63 27.2684 L2608.63 207.36 L2587.33 207.36 L2587.33 27.2684 Z" fill="#000000" fill-rule="nonzero" fill-opacity="1" /><path clip-path="url(#clip670)" d="M2764.07 137.221 L2764.07 147.638 L2666.15 147.638 Q2667.54 169.629 2679.34 181.203 Q2691.27 192.661 2712.45 192.661 Q2724.71 192.661 2736.17 189.652 Q2747.75 186.643 2759.09 180.624 L2759.09 200.763 Q2747.63 205.624 2735.59 208.17 Q2723.56 210.716 2711.17 210.716 Q2680.15 210.716 2661.98 192.661 Q2643.93 174.606 2643.93 143.819 Q2643.93 111.99 2661.06 93.356 Q2678.3 74.6061 2707.47 74.6061 Q2733.63 74.6061 2748.79 91.5041 Q2764.07 108.286 2764.07 137.221 M2742.77 130.972 Q2742.54 113.495 2732.93 103.078 Q2723.44 92.6615 2707.7 92.6615 Q2689.88 92.6615 2679.11 102.731 Q2668.46 112.8 2666.84 131.087 L2742.77 130.972 Z" fill="#000000" fill-rule="nonzero" fill-opacity="1" /><path clip-path="url(#clip670)" d="M2881.66 81.5505 L2881.66 101.689 Q2872.63 97.0597 2862.91 94.7449 Q2853.19 92.4301 2842.77 92.4301 Q2826.91 92.4301 2818.93 97.2911 Q2811.06 102.152 2811.06 111.874 Q2811.06 119.282 2816.73 123.564 Q2822.4 127.731 2839.53 131.55 L2846.82 133.171 Q2869.51 138.032 2879 146.944 Q2888.6 155.74 2888.6 171.596 Q2888.6 189.652 2874.25 200.184 Q2860.01 210.716 2835.02 210.716 Q2824.6 210.716 2813.26 208.633 Q2802.03 206.666 2789.53 202.615 L2789.53 180.624 Q2801.33 186.758 2812.79 189.883 Q2824.25 192.892 2835.48 192.892 Q2850.52 192.892 2858.63 187.8 Q2866.73 182.592 2866.73 173.217 Q2866.73 164.536 2860.83 159.907 Q2855.04 155.277 2835.25 150.995 L2827.84 149.258 Q2808.05 145.092 2799.25 136.527 Q2790.46 127.847 2790.46 112.8 Q2790.46 94.5134 2803.42 84.5597 Q2816.38 74.6061 2840.22 74.6061 Q2852.03 74.6061 2862.45 76.3422 Q2872.86 78.0783 2881.66 81.5505 Z" fill="#000000" fill-rule="nonzero" fill-opacity="1" /><path clip-path="url(#clip670)" d="M3049.02 27.4999 Q3033.51 54.1201 3025.99 80.1616 Q3018.46 106.203 3018.46 132.939 Q3018.46 159.675 3025.99 185.948 Q3033.63 212.105 3049.02 238.61 L3030.5 238.61 Q3013.14 211.411 3004.46 185.138 Q2995.89 158.865 2995.89 132.939 Q2995.89 107.129 3004.46 80.9718 Q3013.02 54.8145 3030.5 27.4999 L3049.02 27.4999 Z" fill="#000000" fill-rule="nonzero" fill-opacity="1" /><path clip-path="url(#clip670)" d="M3165.45 97.6384 Q3161.87 95.555 3157.58 94.6291 Q3153.42 93.5875 3148.32 93.5875 Q3130.27 93.5875 3120.55 105.393 Q3110.94 117.083 3110.94 139.073 L3110.94 207.36 L3089.53 207.36 L3089.53 77.7311 L3110.94 77.7311 L3110.94 97.8698 Q3117.65 86.0644 3128.42 80.3931 Q3139.18 74.6061 3154.57 74.6061 Q3156.77 74.6061 3159.43 74.9533 Q3162.1 75.1848 3165.34 75.7635 L3165.45 97.6384 Z" fill="#000000" fill-rule="nonzero" fill-opacity="1" /><path clip-path="url(#clip670)" d="M3293.46 137.221 L3293.46 147.638 L3195.55 147.638 Q3196.93 169.629 3208.74 181.203 Q3220.66 192.661 3241.84 192.661 Q3254.11 192.661 3265.57 189.652 Q3277.14 186.643 3288.48 180.624 L3288.48 200.763 Q3277.03 205.624 3264.99 208.17 Q3252.95 210.716 3240.57 210.716 Q3209.55 210.716 3191.38 192.661 Q3173.32 174.606 3173.32 143.819 Q3173.32 111.99 3190.45 93.356 Q3207.7 74.6061 3236.86 74.6061 Q3263.02 74.6061 3278.18 91.5041 Q3293.46 108.286 3293.46 137.221 M3272.17 130.972 Q3271.93 113.495 3262.33 103.078 Q3252.84 92.6615 3237.1 92.6615 Q3219.27 92.6615 3208.51 102.731 Q3197.86 112.8 3196.24 131.087 L3272.17 130.972 Z" fill="#000000" fill-rule="nonzero" fill-opacity="1" /><path clip-path="url(#clip670)" d="M3394.04 27.2684 L3394.04 44.9766 L3373.67 44.9766 Q3362.21 44.9766 3357.7 49.6062 Q3353.3 54.2358 3353.3 66.2728 L3353.3 77.7311 L3388.37 77.7311 L3388.37 94.2819 L3353.3 94.2819 L3353.3 207.36 L3331.89 207.36 L3331.89 94.2819 L3311.52 94.2819 L3311.52 77.7311 L3331.89 77.7311 L3331.89 68.7033 Q3331.89 47.0599 3341.96 37.222 Q3352.03 27.2684 3373.9 27.2684 L3394.04 27.2684 Z" fill="#000000" fill-rule="nonzero" fill-opacity="1" /><path clip-path="url(#clip670)" d="M3397.63 177.962 L3422.05 177.962 L3422.05 207.36 L3397.63 207.36 L3397.63 177.962 Z" fill="#000000" fill-rule="nonzero" fill-opacity="1" /><path clip-path="url(#clip670)" d="M3675.64 47.8701 L3675.64 72.5228 Q3663.83 61.5274 3650.4 56.0877 Q3637.09 50.6479 3622.05 50.6479 Q3592.42 50.6479 3576.68 68.8191 Q3560.94 86.8745 3560.94 121.134 Q3560.94 155.277 3576.68 173.448 Q3592.42 191.504 3622.05 191.504 Q3637.09 191.504 3650.4 186.064 Q3663.83 180.624 3675.64 169.629 L3675.64 194.05 Q3663.37 202.383 3649.59 206.55 Q3635.94 210.716 3620.66 210.716 Q3581.42 210.716 3558.85 186.758 Q3536.28 162.684 3536.28 121.134 Q3536.28 79.4672 3558.85 55.509 Q3581.42 31.435 3620.66 31.435 Q3636.17 31.435 3649.83 35.6017 Q3663.6 39.6526 3675.64 47.8701 Z" fill="#000000" fill-rule="nonzero" fill-opacity="1" /><path clip-path="url(#clip670)" d="M3781.88 50.4164 Q3756.42 50.4164 3741.38 69.3978 Q3726.45 88.3792 3726.45 121.134 Q3726.45 153.772 3741.38 172.754 Q3756.42 191.735 3781.88 191.735 Q3807.35 191.735 3822.16 172.754 Q3837.09 153.772 3837.09 121.134 Q3837.09 88.3792 3822.16 69.3978 Q3807.35 50.4164 3781.88 50.4164 M3781.88 31.435 Q3818.23 31.435 3839.99 55.8562 Q3861.75 80.1616 3861.75 121.134 Q3861.75 161.99 3839.99 186.411 Q3818.23 210.716 3781.88 210.716 Q3745.43 210.716 3723.55 186.411 Q3701.79 162.106 3701.79 121.134 Q3701.79 80.1616 3723.55 55.8562 Q3745.43 31.435 3781.88 31.435 Z" fill="#000000" fill-rule="nonzero" fill-opacity="1" /><path clip-path="url(#clip670)" d="M3898.32 34.56 L3921.7 34.56 L3921.7 207.36 L3898.32 207.36 L3898.32 34.56 Z" fill="#000000" fill-rule="nonzero" fill-opacity="1" /><path clip-path="url(#clip670)" d="M3963.94 27.4999 L3982.46 27.4999 Q3999.82 54.8145 4008.39 80.9718 Q4017.07 107.129 4017.07 132.939 Q4017.07 158.865 4008.39 185.138 Q3999.82 211.411 3982.46 238.61 L3963.94 238.61 Q3979.34 212.105 3986.86 185.948 Q3994.5 159.675 3994.5 132.939 Q3994.5 106.203 3986.86 80.1616 Q3979.34 54.1201 3963.94 27.4999 Z" fill="#000000" fill-rule="nonzero" fill-opacity="1" /><polyline clip-path="url(#clip672)" style="stroke:#009af9; stroke-linecap:round; stroke-linejoin:round; stroke-width:12; stroke-opacity:1; fill:none" points="928.871,1716.67 936.035,1717.26 943.199,1718.46 950.363,1720.24 957.527,1722.61 964.691,1725.56 971.855,1729.08 979.02,1733.17 986.184,1737.82 993.348,1743.01 1000.51,1748.74 1007.68,1754.98 1014.84,1761.73 1022,1768.97 1029.17,1776.69 1036.33,1784.86 1043.5,1793.48 1050.66,1802.53 1057.83,1811.98 1064.99,1821.83 1072.15,1832.06 1079.32,1842.65 1086.48,1853.58 1093.65,1864.85 1100.81,1876.44 1107.97,1888.34 1115.14,1900.54 1122.3,1913.02 1129.47,1925.79 1136.63,1938.82 1143.79,1952.12 1143.79,1965.45 1150.96,1978.29 1158.12,1990.41 1165.29,2001.8 1172.45,2012.46 1179.62,2022.37 1186.78,2031.54 1193.94,2039.96 1201.11,2047.64 1208.27,2054.57 1215.44,2060.76 1222.6,2066.21 1229.76,2070.91 1236.93,2074.87 1244.09,2078.1 1251.26,2080.6 1258.42,2082.37 1265.59,2083.42 1272.75,2083.76 1279.91,2083.4 1287.08,2082.35 1294.24,2080.62 1301.41,2078.21 1308.57,2075.16 1315.73,2071.45 1322.9,2067.11 1330.06,2062.16 1337.23,2056.59 1344.39,2050.43 1351.55,2043.67 1358.72,2036.34 1365.88,2028.44 1373.05,2019.98 1380.21,2010.95 1387.38,2001.38 1394.54,1991.25 1401.7,1980.58 1408.87,1969.37 1416.03,1957.61 1423.2,1945.33 1430.36,1932.51 1437.52,1919.18 1444.69,1905.33 1451.85,1891 1459.02,1876.18 1466.18,1860.92 1473.35,1845.23 1480.51,1829.15 1487.67,1812.72 1494.84,1795.99 1502,1779 1509.17,1761.82 1516.33,1744.5 1523.49,1727.1 1530.66,1709.71 1537.82,1692.37 1544.99,1675.18 1552.15,1658.19 1559.31,1641.48 1566.48,1625.13 1573.64,1609.19 1580.81,1593.75 1587.97,1578.86 1595.14,1564.58 1602.3,1550.99 1609.46,1538.13 1616.63,1526.05 1623.79,1514.81 1630.96,1504.45 1638.12,1495.01 1645.28,1486.52 1652.45,1479.03 1659.61,1472.54 1666.78,1467.1 1673.94,1462.71 1681.11,1459.4 1688.27,1457.18 1695.43,1456.06 1702.6,1456.04 1709.76,1457.13 1716.93,1459.34 1724.09,1462.65 1731.25,1467.07 1738.42,1472.58 1745.58,1479.19 1752.75,1486.86 1759.91,1495.59 1767.07,1505.34 1774.24,1516.09 1781.4,1527.81 1788.57,1540.46 1795.73,1553.98 1802.9,1568.33 1810.06,1583.45 1817.22,1599.26 1824.39,1615.71 1831.55,1632.71 1838.72,1650.18 1845.88,1668.03 1853.04,1686.19 1860.21,1704.55 1867.37,1723.04 1874.54,1741.56 1881.7,1760.03 1888.87,1778.36 1896.03,1796.48 1903.19,1814.32 1910.36,1831.8 1917.52,1848.87 1924.69,1865.47 1931.85,1881.55 1939.01,1897.07 1946.18,1911.98 1953.34,1926.26 1960.51,1939.88 1967.67,1952.81 1974.84,1965.05 1982,1976.57 1989.16,1987.37 1996.33,1997.44 2003.49,2006.79 2010.66,2015.42 2017.82,2023.32 2024.98,2030.5 2032.15,2036.98 2039.31,2042.76 2046.48,2047.85 2053.64,2052.25 2060.8,2055.99 2067.97,2059.06 2075.13,2061.47 2082.3,2063.23 2089.46,2064.35 2096.63,2064.84 2103.79,2064.68 2110.95,2063.9 2118.12,2062.47 2125.28,2060.41 2132.45,2057.71 2139.61,2054.36 2146.77,2050.37 2153.94,2045.71 2161.1,2040.39 2168.27,2034.39 2175.43,2027.71 2182.6,2020.34 2189.76,2012.27 2196.92,2003.5 2204.09,1994.02 2211.25,1983.83 2218.42,1972.94 2225.58,1961.34 2232.74,1949.04 2239.91,1936.06 2247.07,1922.42 2254.24,1908.12 2261.4,1893.21 2268.56,1877.71 2275.73,1861.66 2282.89,1845.11 2290.06,1828.11 2297.22,1810.7 2304.39,1792.96 2311.55,1774.94 2318.71,1756.73 2325.88,1738.4 2333.04,1720.02 2340.21,1701.69 2347.37,1683.48 2354.53,1665.48 2361.7,1647.78 2368.86,1630.47 2376.03,1613.62 2383.19,1597.32 2390.36,1581.64 2397.52,1566.66 2404.68,1552.43 2411.85,1539.02 2419.01,1526.48 2426.18,1514.86 2433.34,1504.19 2440.5,1494.52 2447.67,1485.87 2454.83,1478.27 2462,1471.74 2469.16,1466.29 2476.32,1461.93 2483.49,1458.69 2490.65,1456.55 2497.82,1455.52 2504.98,1455.61 2512.15,1456.81 2519.31,1459.11 2526.47,1462.5 2533.64,1466.98 2540.8,1472.52 2547.97,1479.1 2555.13,1486.72 2562.29,1495.33 2569.46,1504.9 2576.62,1515.4 2583.79,1526.79 2590.95,1539.03 2598.12,1552.06 2605.28,1565.84 2612.44,1580.3 2619.61,1595.38 2626.77,1611.02 2633.94,1627.15 2641.1,1643.7 2648.26,1660.6 2655.43,1677.78 2662.59,1695.15 2669.76,1712.66 2676.92,1730.21 2684.08,1747.75 2691.25,1765.21 2698.41,1782.51 2705.58,1799.6 2712.74,1816.41 2719.91,1832.9 2727.07,1849.01 2734.23,1864.71 2741.4,1879.96 2748.56,1894.73 2755.73,1908.99 2762.89,1922.72 2770.05,1935.92 2777.22,1948.56 2784.38,1960.64 2791.55,1972.16 2798.71,1983.1 2805.88,1993.48 2813.04,2003.28 2820.2,2012.5 2827.37,2021.15 2834.53,2029.22 2841.7,2036.71 2848.86,2043.62 2856.02,2049.93 2863.19,2055.65 2870.35,2060.76 2877.52,2065.26 2884.68,2069.14 2891.84,2072.39 2899.01,2075 2906.17,2076.95 2913.34,2078.24 2920.5,2078.85 2927.67,2078.78 2934.83,2078.01 2941.99,2076.52 2949.16,2074.32 2956.32,2071.4 2963.49,2067.74 2970.65,2063.34 2977.81,2058.19 2984.98,2052.29 2992.14,2045.64 2999.31,2038.24 3006.47,2030.08 3013.64,2021.16 3020.8,2011.48 3027.96,2001.06 3035.13,1989.88 3042.29,1977.96 3049.46,1965.31 3056.62,1951.94 3063.78,1937.86 3070.95,1923.09 3078.11,1907.65 3085.28,1891.58 3092.44,1874.9 3099.61,1857.67 3106.77,1839.94 3113.93,1821.77 3121.1,1803.22 3128.26,1784.37 3135.43,1765.32 3142.59,1746.15 3149.75,1726.97 3156.92,1707.87 3164.08,1688.96 3171.25,1670.34 3178.41,1652.11 3185.57,1634.37 3192.74,1617.21 3199.9,1600.7 3207.07,1584.94 3214.23,1569.97 3221.4,1555.85 3228.56,1542.64 3235.72,1530.39 3242.89,1519.11 3250.05,1508.85 3257.22,1499.62 3264.38,1491.44 3271.54,1484.33 3278.71,1478.29 3285.87,1473.34 3293.04,1469.47 3300.2,1466.68 3307.37,1464.97 3314.53,1464.34 3321.69,1464.77 3328.86,1466.25 3336.02,1468.77 3343.19,1472.31 3350.35,1476.85 3357.51,1482.36 3364.68,1488.82 3371.84,1496.2 3379.01,1504.47 3386.17,1513.59 3393.33,1523.52 3400.5,1534.24 3407.66,1545.69 3414.83,1557.83 3421.99,1570.61 3429.16,1584 3436.32,1597.93 3443.48,1612.35 3450.65,1627.21 3457.81,1642.45 3464.98,1658.01 3472.14,1673.83 3479.3,1689.85 3486.47,1706.01 3493.63,1722.25 3500.8,1738.52 3507.96,1754.76 3515.13,1770.92 3522.29,1786.96 3529.45,1802.84 3536.62,1818.54 3543.78,1834.03 3550.95,1849.27 3558.11,1864.27 3565.27,1879.01 3572.44,1893.46 3579.6,1907.64 3586.77,1921.52 3593.93,1935.09 3601.09,1948.35 3608.26,1961.29 3615.42,1973.88 3622.59,1986.12 3629.75,1997.97 3636.92,2009.43 3644.08,2020.46 3651.24,2031.04 3658.41,2041.15 3665.57,2050.75 3672.74,2059.81 3679.9,2068.32 3687.06,2076.23 3694.23,2083.54 3701.39,2090.21 3708.56,2096.24 3715.72,2101.6 3722.89,2106.29 3730.05,2110.29 3737.21,2113.61 3744.38,2116.25 3751.54,2118.22 3758.71,2119.51 3765.87,2120.15 3773.03,2120.15 3780.2,2119.52 3787.36,2118.27 3794.53,2116.44 3801.69,2114.02 3808.85,2111.05 3816.02,2107.52 3823.18,2103.45 3830.35,2098.86 3837.51,2093.74 3844.68,2088.11 3851.84,2081.95 3859,2075.27 3866.17,2068.05 3873.33,2060.29 3880.5,2051.97 3887.66,2043.07 3894.82,2033.58 3901.99,2023.47 3909.15,2012.72 3916.32,2001.3 3923.48,1989.2 3930.65,1976.4 3937.81,1962.89 3944.97,1948.67 3952.14,1933.74 3959.3,1918.13 3966.47,1901.87 3973.63,1885.01 3980.79,1867.61 3987.96,1849.75 3995.12,1831.52 4002.29,1813.03 4009.45,1794.39 4016.61,1775.71 4023.78,1757.11 4030.94,1738.71 4038.11,1720.6 4045.27,1702.88 4052.44,1685.66 4059.6,1669.01 4066.76,1652.99 4073.93,1637.68 4081.09,1623.12 4088.26,1609.36 4095.42,1596.42 4102.58,1584.34 4109.75,1573.14 4116.91,1562.84 4124.08,1553.44 4131.24,1544.95 4138.41,1537.37 4145.57,1530.7 4152.73,1524.95 4159.9,1520.1 4167.06,1516.14 4174.23,1513.07 4181.39,1510.87 4188.55,1509.53 4195.72,1509.04 4202.88,1509.38 4210.05,1510.53 4217.21,1512.47 4224.37,1515.2 4231.54,1518.67 4238.7,1522.89 4245.87,1527.82 4253.03,1533.44 4260.2,1539.74 4267.36,1546.68 4274.52,1554.26 4281.69,1562.43 4288.85,1571.18 4296.02,1580.49 4303.18,1590.31 4310.34,1600.62 4317.51,1611.39 4324.67,1622.57 4331.84,1634.13 4339,1646.04 4346.17,1658.24 4353.33,1670.71 4360.49,1683.41 4367.66,1696.3 4374.82,1709.36 4381.99,1722.56 4389.15,1735.89 4396.31,1749.34 4403.48,1762.91 4410.64,1776.59 4417.81,1790.38 4424.97,1804.3 4432.14,1818.32 4439.3,1832.47 4446.46,1846.73 4453.63,1861.09 4460.79,1875.53 4467.96,1890.04 4475.12,1904.59 4482.28,1919.14 4489.45,1933.64 4496.61,1948.06 4503.78,1962.32 "/>
<polyline clip-path="url(#clip672)" style="stroke:#e26f46; stroke-linecap:round; stroke-linejoin:round; stroke-width:12; stroke-opacity:1; fill:none" points="928.871,1756.23 936.035,1755.1 943.199,1752.84 950.363,1749.44 957.527,1744.91 964.691,1739.25 971.855,1732.46 979.02,1724.53 986.184,1715.48 993.348,1705.29 1000.51,1693.98 1007.68,1681.53 1014.84,1667.96 1022,1653.25 1029.17,1637.43 1036.33,1620.48 1043.5,1602.4 1050.66,1583.21 1057.83,1562.9 1064.99,1541.47 1072.15,1518.94 1079.32,1495.3 1086.48,1470.55 1093.65,1444.7 1100.81,1417.76 1107.97,1389.73 1115.14,1360.62 1122.3,1330.42 1129.47,1299.15 1136.63,1266.81 1143.79,1233.41 1143.79,1199.27 1150.96,1165.05 1158.12,1131.13 1165.29,1097.57 1172.45,1064.46 1179.62,1031.88 1186.78,999.929 1193.94,968.713 1201.11,938.343 1208.27,908.937 1215.44,880.621 1222.6,853.521 1229.76,827.771 1236.93,803.503 1244.09,780.851 1251.26,759.947 1258.42,740.92 1265.59,723.896 1272.75,708.993 1279.91,696.323 1287.08,685.992 1294.24,678.096 1301.41,672.722 1308.57,669.952 1315.73,669.857 1322.9,672.499 1330.06,677.935 1337.23,686.214 1344.39,697.376 1351.55,711.458 1358.72,728.486 1365.88,748.482 1373.05,771.459 1380.21,797.421 1387.38,826.362 1394.54,858.265 1401.7,893.097 1408.87,930.812 1416.03,971.342 1423.2,1014.6 1430.36,1060.48 1437.52,1108.84 1444.69,1159.52 1451.85,1212.33 1459.02,1267.04 1466.18,1323.43 1473.35,1381.2 1480.51,1440.07 1487.67,1499.73 1494.84,1559.85 1502,1620.1 1509.17,1680.13 1516.33,1739.61 1523.49,1798.21 1530.66,1855.61 1537.82,1911.52 1544.99,1965.64 1552.15,2017.73 1559.31,2067.55 1566.48,2114.89 1573.64,2159.58 1580.81,2201.46 1587.97,2240.42 1595.14,2276.35 1602.3,2309.18 1609.46,2338.88 1616.63,2365.41 1623.79,2388.77 1630.96,2408.98 1638.12,2426.08 1645.28,2440.11 1652.45,2451.15 1659.61,2459.27 1666.78,2464.55 1673.94,2467.08 1681.11,2466.96 1688.27,2464.29 1695.43,2459.17 1702.6,2451.69 1709.76,2441.95 1716.93,2430.05 1724.09,2416.06 1731.25,2400.07 1738.42,2382.15 1745.58,2362.37 1752.75,2340.78 1759.91,2317.44 1767.07,2292.4 1774.24,2265.69 1781.4,2237.35 1788.57,2207.41 1795.73,2175.9 1802.9,2142.86 1810.06,2108.32 1817.22,2072.3 1824.39,2034.85 1831.55,1996.02 1838.72,1955.85 1845.88,1914.42 1853.04,1871.79 1860.21,1828.06 1867.37,1783.31 1874.54,1737.66 1881.7,1691.23 1888.87,1644.16 1896.03,1596.57 1903.19,1548.64 1910.36,1500.5 1917.52,1452.34 1924.69,1404.31 1931.85,1356.59 1939.01,1309.36 1946.18,1262.79 1953.34,1217.06 1960.51,1172.33 1967.67,1128.78 1974.84,1086.56 1982,1045.83 1989.16,1006.74 1996.33,969.427 2003.49,934.024 2010.66,900.65 2017.82,869.417 2024.98,840.423 2032.15,813.759 2039.31,789.503 2046.48,767.725 2053.64,748.485 2060.8,731.833 2067.97,717.812 2075.13,706.458 2082.3,697.797 2089.46,691.852 2096.63,688.639 2103.79,688.169 2110.95,690.446 2118.12,695.471 2125.28,703.238 2132.45,713.737 2139.61,726.952 2146.77,742.858 2153.94,761.425 2161.1,782.616 2168.27,806.382 2175.43,832.667 2182.6,861.402 2189.76,892.51 2196.92,925.9 2204.09,961.47 2211.25,999.106 2218.42,1038.68 2225.58,1080.05 2232.74,1123.08 2239.91,1167.6 2247.07,1213.43 2254.24,1260.41 2261.4,1308.36 2268.56,1357.07 2275.73,1406.35 2282.89,1456.03 2290.06,1505.88 2297.22,1555.73 2304.39,1605.39 2311.55,1654.67 2318.71,1703.39 2325.88,1751.39 2333.04,1798.51 2340.21,1844.61 2347.37,1889.56 2354.53,1933.23 2361.7,1975.53 2368.86,2016.36 2376.03,2055.65 2383.19,2093.33 2390.36,2129.35 2397.52,2163.67 2404.68,2196.26 2411.85,2227.08 2419.01,2256.12 2426.18,2283.34 2433.34,2308.74 2440.5,2332.3 2447.67,2353.98 2454.83,2373.77 2462,2391.63 2469.16,2407.53 2476.32,2421.43 2483.49,2433.28 2490.65,2443.03 2497.82,2450.61 2504.98,2455.96 2512.15,2459.01 2519.31,2459.68 2526.47,2457.91 2533.64,2453.6 2540.8,2446.68 2547.97,2437.08 2555.13,2424.73 2562.29,2409.56 2569.46,2391.51 2576.62,2370.55 2583.79,2346.63 2590.95,2319.75 2598.12,2289.9 2605.28,2257.11 2612.44,2221.41 2619.61,2182.88 2626.77,2141.6 2633.94,2097.68 2641.1,2051.26 2648.26,2002.52 2655.43,1951.63 2662.59,1898.81 2669.76,1844.31 2676.92,1788.38 2684.08,1731.3 2691.25,1673.37 2698.41,1614.88 2705.58,1556.16 2712.74,1497.52 2719.91,1439.28 2727.07,1381.73 2734.23,1325.19 2741.4,1269.93 2748.56,1216.2 2755.73,1164.27 2762.89,1114.33 2770.05,1066.59 2777.22,1021.2 2784.38,978.32 2791.55,938.058 2798.71,900.511 2805.88,865.756 2813.04,833.849 2820.2,804.831 2827.37,778.728 2834.53,755.556 2841.7,735.318 2848.86,718.009 2856.02,703.616 2863.19,692.118 2870.35,683.49 2877.52,677.696 2884.68,674.699 2891.84,674.451 2899.01,676.898 2906.17,681.982 2913.34,689.632 2920.5,699.774 2927.67,712.323 2934.83,727.189 2941.99,744.27 2949.16,763.461 2956.32,784.648 2963.49,807.714 2970.65,832.534 2977.81,858.982 2984.98,886.931 2992.14,916.252 2999.31,946.819 3006.47,978.505 3013.64,1011.19 3020.8,1044.75 3027.96,1079.09 3035.13,1114.08 3042.29,1149.64 3049.46,1185.68 3056.62,1222.09 3063.78,1258.81 3070.95,1295.77 3078.11,1332.91 3085.28,1370.16 3092.44,1407.49 3099.61,1444.87 3106.77,1482.25 3113.93,1519.62 3121.1,1556.98 3128.26,1594.32 3135.43,1631.64 3142.59,1668.95 3149.75,1706.26 3156.92,1743.58 3164.08,1780.93 3171.25,1818.31 3178.41,1855.71 3185.57,1893.14 3192.74,1930.56 3199.9,1967.96 3207.07,2005.27 3214.23,2042.44 3221.4,2079.4 3228.56,2116.04 3235.72,2152.26 3242.89,2187.94 3250.05,2222.91 3257.22,2257.04 3264.38,2290.13 3271.54,2322 3278.71,2352.44 3285.87,2381.22 3293.04,2408.14 3300.2,2432.95 3307.37,2455.42 3314.53,2475.32 3321.69,2492.42 3328.86,2506.51 3336.02,2517.38 3343.19,2524.85 3350.35,2528.74 3357.51,2528.91 3364.68,2525.24 3371.84,2517.61 3379.01,2505.94 3386.17,2490.18 3393.33,2470.28 3400.5,2446.25 3407.66,2418.08 3414.83,2385.81 3421.99,2349.51 3429.16,2309.27 3436.32,2265.2 3443.48,2217.46 3450.65,2166.23 3457.81,2111.75 3464.98,2054.27 3472.14,1994.11 3479.3,1931.59 3486.47,1867.11 3493.63,1801.08 3500.8,1733.94 3507.96,1666.14 3515.13,1598.16 3522.29,1530.45 3529.45,1463.46 3536.62,1397.63 3543.78,1333.34 3550.95,1270.96 3558.11,1210.78 3565.27,1153.08 3572.44,1098.07 3579.6,1045.93 3586.77,996.794 3593.93,950.765 3601.09,907.914 3608.26,868.286 3615.42,831.908 3622.59,798.787 3629.75,768.921 3636.92,742.294 3644.08,718.882 3651.24,698.654 3658.41,681.569 3665.57,667.578 3672.74,656.625 3679.9,648.641 3687.06,643.549 3694.23,641.255 3701.39,641.656 3708.56,644.632 3715.72,650.049 3722.89,657.76 3730.05,667.606 3737.21,679.414 3744.38,693.003 3751.54,708.188 3758.71,724.776 3765.87,742.575 3773.03,761.398 3780.2,781.059 3787.36,801.382 3794.53,822.201 3801.69,843.362 3808.85,864.723 3816.02,886.156 3823.18,907.549 3830.35,928.803 3837.51,949.833 3844.68,970.571 3851.84,990.959 3859,1010.96 3866.17,1030.53 3873.33,1049.67 3880.5,1068.37 3887.66,1086.64 3894.82,1104.5 3901.99,1122 3909.15,1139.19 3916.32,1156.13 3923.48,1172.92 3930.65,1189.67 3937.81,1206.48 3944.97,1223.52 3952.14,1240.92 3959.3,1258.88 3966.47,1277.56 3973.63,1297.15 3980.79,1317.86 3987.96,1339.87 3995.12,1363.35 4002.29,1388.46 4009.45,1415.35 4016.61,1444.13 4023.78,1474.89 4030.94,1507.68 4038.11,1542.52 4045.27,1579.43 4052.44,1618.35 4059.6,1659.23 4066.76,1701.99 4073.93,1746.49 4081.09,1792.59 4088.26,1840.11 4095.42,1888.84 4102.58,1938.54 4109.75,1988.92 4116.91,2039.65 4124.08,2090.39 4131.24,2140.74 4138.41,2190.28 4145.57,2238.57 4152.73,2285.17 4159.9,2329.62 4167.06,2371.5 4174.23,2410.4 4181.39,2445.96 4188.55,2477.85 4195.72,2505.8 4202.88,2529.58 4210.05,2549.01 4217.21,2563.95 4224.37,2574.29 4231.54,2579.97 4238.7,2580.95 4245.87,2577.19 4253.03,2568.69 4260.2,2555.45 4267.36,2537.49 4274.52,2514.81 4281.69,2487.47 4288.85,2455.5 4296.02,2418.96 4303.18,2377.95 4310.34,2332.58 4317.51,2283.01 4324.67,2229.44 4331.84,2172.12 4339,2111.37 4346.17,2047.56 4353.33,1981.14 4360.49,1912.6 4367.66,1842.49 4374.82,1771.4 4381.99,1699.93 4389.15,1628.66 4396.31,1558.16 4403.48,1488.96 4410.64,1421.53 4417.81,1356.27 4424.97,1293.51 4432.14,1233.52 4439.3,1176.52 4446.46,1122.64 4453.63,1072.01 4460.79,1024.69 4467.96,980.731 4475.12,940.162 4482.28,902.996 4489.45,869.234 4496.61,838.871 4503.78,811.894 "/>
<polyline clip-path="url(#clip672)" style="stroke:#3da44d; stroke-linecap:round; stroke-linejoin:round; stroke-width:12; stroke-opacity:1; fill:none" points="928.871,1688.58 936.035,1686.31 943.199,1681.77 950.363,1675 957.527,1666.02 964.691,1654.88 971.855,1641.63 979.02,1626.35 986.184,1609.11 993.348,1590 1000.51,1569.1 1007.68,1546.52 1014.84,1522.37 1022,1496.76 1029.17,1469.82 1036.33,1441.65 1043.5,1412.39 1050.66,1382.16 1057.83,1351.09 1064.99,1319.29 1072.15,1286.88 1079.32,1253.99 1086.48,1220.71 1093.65,1187.15 1100.81,1153.4 1107.97,1119.55 1115.14,1085.68 1122.3,1051.83 1129.47,1018.08 1136.63,984.462 1143.79,951.005 1143.79,918.968 1150.96,890.82 1158.12,867.747 1165.29,849.651 1172.45,836.4 1179.62,827.832 1186.78,823.759 1193.94,823.97 1201.11,828.234 1208.27,836.299 1215.44,847.899 1222.6,862.753 1229.76,880.567 1236.93,901.037 1244.09,923.851 1251.26,948.691 1258.42,975.239 1265.59,1003.17 1272.75,1032.18 1279.91,1061.95 1287.08,1092.18 1294.24,1122.58 1301.41,1152.87 1308.57,1182.79 1315.73,1212.09 1322.9,1240.53 1330.06,1267.9 1337.23,1294.02 1344.39,1318.7 1351.55,1341.79 1358.72,1363.15 1365.88,1382.7 1373.05,1400.33 1380.21,1416 1387.38,1429.67 1394.54,1441.37 1401.7,1451.12 1408.87,1459 1416.03,1465.12 1423.2,1469.64 1430.36,1472.73 1437.52,1474.63 1444.69,1475.6 1451.85,1475.92 1459.02,1475.92 1466.18,1475.93 1473.35,1476.31 1480.51,1477.42 1487.67,1479.6 1494.84,1483.18 1502,1488.5 1509.17,1495.81 1516.33,1505.37 1523.49,1517.37 1530.66,1531.95 1537.82,1549.21 1544.99,1569.19 1552.15,1591.86 1559.31,1617.15 1566.48,1644.95 1573.64,1675.08 1580.81,1707.33 1587.97,1741.44 1595.14,1777.14 1602.3,1814.09 1609.46,1851.96 1616.63,1890.39 1623.79,1928.99 1630.96,1967.39 1638.12,2005.18 1645.28,2041.99 1652.45,2077.41 1659.61,2111.08 1666.78,2142.63 1673.94,2171.69 1681.11,2197.95 1688.27,2221.07 1695.43,2240.78 1702.6,2256.82 1709.76,2268.93 1716.93,2276.93 1724.09,2280.65 1731.25,2279.94 1738.42,2274.72 1745.58,2264.92 1752.75,2250.56 1759.91,2231.65 1767.07,2208.3 1774.24,2180.63 1781.4,2148.85 1788.57,2113.2 1795.73,2073.98 1802.9,2031.53 1810.06,1986.27 1817.22,1938.63 1824.39,1889.09 1831.55,1838.15 1838.72,1786.34 1845.88,1734.2 1853.04,1682.25 1860.21,1631.01 1867.37,1580.97 1874.54,1532.59 1881.7,1486.27 1888.87,1442.37 1896.03,1401.22 1903.19,1363.06 1910.36,1328.08 1917.52,1296.43 1924.69,1268.17 1931.85,1243.34 1939.01,1221.9 1946.18,1203.79 1953.34,1188.88 1960.51,1177.04 1967.67,1168.06 1974.84,1161.75 1982,1157.86 1989.16,1156.15 1996.33,1156.36 2003.49,1158.22 2010.66,1161.45 2017.82,1165.81 2024.98,1171.02 2032.15,1176.83 2039.31,1183.03 2046.48,1189.38 2053.64,1195.69 2060.8,1201.77 2067.97,1207.48 2075.13,1212.67 2082.3,1217.22 2089.46,1221.05 2096.63,1224.09 2103.79,1226.3 2110.95,1227.65 2118.12,1228.14 2125.28,1227.81 2132.45,1226.7 2139.61,1224.89 2146.77,1222.47 2153.94,1219.56 2161.1,1216.31 2168.27,1212.88 2175.43,1209.45 2182.6,1206.24 2189.76,1203.46 2196.92,1201.35 2204.09,1200.16 2211.25,1200.15 2218.42,1201.58 2225.58,1204.71 2232.74,1209.8 2239.91,1217.09 2247.07,1226.81 2254.24,1239.17 2261.4,1254.36 2268.56,1272.51 2275.73,1293.74 2282.89,1318.13 2290.06,1345.69 2297.22,1376.39 2304.39,1410.15 2311.55,1446.85 2318.71,1486.29 2325.88,1528.22 2333.04,1572.35 2340.21,1618.34 2347.37,1665.78 2354.53,1714.27 2361.7,1763.33 2368.86,1812.49 2376.03,1861.27 2383.19,1909.17 2390.36,1955.71 2397.52,2000.43 2404.68,2042.88 2411.85,2082.67 2419.01,2119.42 2426.18,2152.82 2433.34,2182.57 2440.5,2208.45 2447.67,2230.27 2454.83,2247.89 2462,2261.22 2469.16,2270.2 2476.32,2274.84 2483.49,2275.15 2490.65,2271.23 2497.82,2263.16 2504.98,2251.1 2512.15,2235.22 2519.31,2215.72 2526.47,2192.85 2533.64,2166.86 2540.8,2138.04 2547.97,2106.71 2555.13,2073.19 2562.29,2037.84 2569.46,2001.02 2576.62,1963.1 2583.79,1924.48 2590.95,1885.53 2598.12,1846.65 2605.28,1808.19 2612.44,1770.54 2619.61,1734.02 2626.77,1698.97 2633.94,1665.66 2641.1,1634.36 2648.26,1605.28 2655.43,1578.58 2662.59,1554.41 2669.76,1532.82 2676.92,1513.84 2684.08,1497.44 2691.25,1483.55 2698.41,1472.02 2705.58,1462.68 2712.74,1455.32 2719.91,1449.68 2727.07,1445.48 2734.23,1442.4 2741.4,1440.15 2748.56,1438.39 2755.73,1436.81 2762.89,1435.11 2770.05,1433 2777.22,1430.2 2784.38,1426.49 2791.55,1421.65 2798.71,1415.52 2805.88,1407.94 2813.04,1398.82 2820.2,1388.06 2827.37,1375.64 2834.53,1361.52 2841.7,1345.74 2848.86,1328.32 2856.02,1309.34 2863.19,1288.88 2870.35,1267.06 2877.52,1244.02 2884.68,1219.92 2891.84,1194.93 2899.01,1169.25 2906.17,1143.1 2913.34,1116.71 2920.5,1090.34 2927.67,1064.25 2934.83,1038.71 2941.99,1014.03 2949.16,990.5 2956.32,968.431 2963.49,948.134 2970.65,929.921 2977.81,914.105 2984.98,900.989 2992.14,890.874 2999.31,884.046 3006.47,880.779 3013.64,881.332 3020.8,885.943 3027.96,894.83 3035.13,908.184 3042.29,926.17 3049.46,948.92 3056.62,976.527 3063.78,1009.04 3070.95,1046.47 3078.11,1088.75 3085.28,1135.77 3092.44,1187.34 3099.61,1243.19 3106.77,1302.97 3113.93,1366.25 3121.1,1432.5 3128.26,1501.11 3135.43,1571.4 3142.59,1642.62 3149.75,1713.96 3156.92,1784.61 3164.08,1853.72 3171.25,1920.48 3178.41,1984.1 3185.57,2043.85 3192.74,2099.06 3199.9,2149.17 3207.07,2193.68 3214.23,2232.22 3221.4,2264.48 3228.56,2290.29 3235.72,2309.56 3242.89,2322.26 3250.05,2328.5 3257.22,2328.43 3264.38,2322.29 3271.54,2310.38 3278.71,2293.06 3285.87,2270.76 3293.04,2243.93 3300.2,2213.06 3307.37,2178.7 3314.53,2141.36 3321.69,2101.62 3328.86,2060.02 3336.02,2017.12 3343.19,1973.45 3350.35,1929.54 3357.51,1885.88 3364.68,1842.97 3371.84,1801.24 3379.01,1761.12 3386.17,1723.01 3393.33,1687.27 3400.5,1654.24 3407.66,1624.21 3414.83,1597.46 3421.99,1574.22 3429.16,1554.67 3436.32,1538.97 3443.48,1527.2 3450.65,1519.4 3457.81,1515.55 3464.98,1515.55 3472.14,1519.23 3479.3,1526.33 3486.47,1536.51 3493.63,1549.36 3500.8,1564.38 3507.96,1581.01 3515.13,1598.64 3522.29,1616.62 3529.45,1634.28 3536.62,1650.97 3543.78,1666.05 3550.95,1678.93 3558.11,1689.1 3565.27,1696.07 3572.44,1699.49 3579.6,1699.04 3586.77,1694.51 3593.93,1685.75 3601.09,1672.71 3608.26,1655.37 3615.42,1633.81 3622.59,1608.14 3629.75,1578.52 3636.92,1545.16 3644.08,1508.29 3651.24,1468.2 3658.41,1425.17 3665.57,1379.54 3672.74,1331.64 3679.9,1281.82 3687.06,1230.47 3694.23,1177.96 3701.39,1124.69 3708.56,1071.04 3715.72,1017.42 3722.89,964.217 3730.05,911.828 3737.21,860.634 3744.38,811.007 3751.54,763.303 3758.71,717.86 3765.87,674.994 3773.03,635.002 3780.2,598.152 3787.36,564.693 3794.53,534.848 3801.69,508.817 3808.85,486.783 3816.02,468.909 3823.18,455.346 3830.35,446.233 3837.51,441.702 3844.68,441.879 3851.84,446.889 3859,456.857 3866.17,471.906 3873.33,492.16 3880.5,517.741 3887.66,548.767 3894.82,585.344 3901.99,627.56 3909.15,675.477 3916.32,729.117 3923.48,788.451 3930.65,853.381 3937.81,923.727 3944.97,999.205 3952.14,1079.42 3959.3,1163.85 3966.47,1251.84 3973.63,1342.61 3980.79,1435.24 3987.96,1528.71 3995.12,1621.92 4002.29,1713.72 4009.45,1802.95 4016.61,1888.45 4023.78,1969.14 4030.94,2044 4038.11,2112.14 4045.27,2172.78 4052.44,2225.28 4059.6,2269.15 4066.76,2304.01 4073.93,2329.65 4081.09,2345.98 4088.26,2353.05 4095.42,2351.02 4102.58,2340.22 4109.75,2321.06 4116.91,2294.13 4124.08,2260.08 4131.24,2219.7 4138.41,2173.88 4145.57,2123.54 4152.73,2069.67 4159.9,2013.27 4167.06,1955.31 4174.23,1896.72 4181.39,1838.38 4188.55,1781.07 4195.72,1725.51 4202.88,1672.29 4210.05,1621.94 4217.21,1574.9 4224.37,1531.53 4231.54,1492.13 4238.7,1456.96 4245.87,1426.23 4253.03,1400.14 4260.2,1378.84 4267.36,1362.49 4274.52,1351.22 4281.69,1345.15 4288.85,1344.38 4296.02,1349 4303.18,1359.05 4310.34,1374.53 4317.51,1395.38 4324.67,1421.45 4331.84,1452.51 4339,1488.19 4346.17,1528 4353.33,1571.31 4360.49,1617.33 4367.66,1665.15 4374.82,1713.75 4381.99,1762.03 4389.15,1808.86 4396.31,1853.11 4403.48,1893.69 4410.64,1929.63 4417.81,1960.06 4424.97,1984.24 4432.14,2001.61 4439.3,2011.72 4446.46,2014.3 4453.63,2009.18 4460.79,1996.33 4467.96,1975.83 4475.12,1947.84 4482.28,1912.62 4489.45,1870.49 4496.61,1821.84 4503.78,1767.14 "/>
<polyline clip-path="url(#clip672)" style="stroke:#ff00ff; stroke-linecap:round; stroke-linejoin:round; stroke-width:4; stroke-opacity:1; fill:none" stroke-dasharray="16, 10" points="1143.79,4912.73 1143.79,-1890.08 "/>
<path clip-path="url(#clip670)" d="M947.937 2569.54 L1485.38 2569.54 L1485.38 2083.54 L947.937 2083.54  Z" fill="#ffffff" fill-rule="evenodd" fill-opacity="1"/>
<polyline clip-path="url(#clip670)" style="stroke:#000000; stroke-linecap:round; stroke-linejoin:round; stroke-width:4; stroke-opacity:1; fill:none" points="947.937,2569.54 1485.38,2569.54 1485.38,2083.54 947.937,2083.54 947.937,2569.54 "/>
<polyline clip-path="url(#clip670)" style="stroke:#009af9; stroke-linecap:round; stroke-linejoin:round; stroke-width:22.5; stroke-opacity:1; fill:none" points="990.041,2180.74 1242.67,2180.74 "/>
<path clip-path="url(#clip670)" d="M1332.69 2203.9 L1332.69 2186.49 L1318.37 2186.49 L1318.37 2179.29 L1341.37 2179.29 L1341.37 2207.11 Q1336.29 2210.71 1330.17 2212.58 Q1324.05 2214.4 1317.11 2214.4 Q1301.92 2214.4 1293.32 2205.55 Q1284.77 2196.65 1284.77 2180.81 Q1284.77 2164.92 1293.32 2156.07 Q1301.92 2147.17 1317.11 2147.17 Q1323.44 2147.17 1329.13 2148.73 Q1334.86 2150.29 1339.68 2153.33 L1339.68 2162.66 Q1334.82 2158.54 1329.35 2156.46 Q1323.88 2154.37 1317.85 2154.37 Q1305.95 2154.37 1299.96 2161.01 Q1294.02 2167.65 1294.02 2180.81 Q1294.02 2193.91 1299.96 2200.55 Q1305.95 2207.19 1317.85 2207.19 Q1322.49 2207.19 1326.13 2206.41 Q1329.78 2205.59 1332.69 2203.9 Z" fill="#000000" fill-rule="nonzero" fill-opacity="1" /><path clip-path="url(#clip670)" d="M1359.69 2205.76 L1374.01 2205.76 L1374.01 2156.33 L1358.43 2159.45 L1358.43 2151.47 L1373.92 2148.34 L1382.69 2148.34 L1382.69 2205.76 L1397.01 2205.76 L1397.01 2213.14 L1359.69 2213.14 L1359.69 2205.76 Z" fill="#000000" fill-rule="nonzero" fill-opacity="1" /><polyline clip-path="url(#clip670)" style="stroke:#e26f46; stroke-linecap:round; stroke-linejoin:round; stroke-width:22.5; stroke-opacity:1; fill:none" points="990.041,2277.94 1242.67,2277.94 "/>
<path clip-path="url(#clip670)" d="M1332.69 2301.1 L1332.69 2283.69 L1318.37 2283.69 L1318.37 2276.49 L1341.37 2276.49 L1341.37 2304.31 Q1336.29 2307.91 1330.17 2309.78 Q1324.05 2311.6 1317.11 2311.6 Q1301.92 2311.6 1293.32 2302.75 Q1284.77 2293.85 1284.77 2278.01 Q1284.77 2262.12 1293.32 2253.27 Q1301.92 2244.37 1317.11 2244.37 Q1323.44 2244.37 1329.13 2245.93 Q1334.86 2247.49 1339.68 2250.53 L1339.68 2259.86 Q1334.82 2255.74 1329.35 2253.66 Q1323.88 2251.57 1317.85 2251.57 Q1305.95 2251.57 1299.96 2258.21 Q1294.02 2264.85 1294.02 2278.01 Q1294.02 2291.11 1299.96 2297.75 Q1305.95 2304.39 1317.85 2304.39 Q1322.49 2304.39 1326.13 2303.61 Q1329.78 2302.79 1332.69 2301.1 Z" fill="#000000" fill-rule="nonzero" fill-opacity="1" /><path clip-path="url(#clip670)" d="M1365.72 2302.96 L1396.32 2302.96 L1396.32 2310.34 L1355.17 2310.34 L1355.17 2302.96 Q1360.16 2297.8 1368.76 2289.12 Q1377.39 2280.39 1379.61 2277.88 Q1383.82 2273.14 1385.47 2269.89 Q1387.16 2266.59 1387.16 2263.42 Q1387.16 2258.26 1383.51 2255 Q1379.91 2251.75 1374.09 2251.75 Q1369.97 2251.75 1365.37 2253.18 Q1360.81 2254.61 1355.61 2257.52 L1355.61 2248.67 Q1360.9 2246.54 1365.5 2245.45 Q1370.1 2244.37 1373.92 2244.37 Q1383.99 2244.37 1389.98 2249.4 Q1395.97 2254.44 1395.97 2262.86 Q1395.97 2266.85 1394.45 2270.45 Q1392.97 2274.01 1389.03 2278.87 Q1387.94 2280.13 1382.12 2286.17 Q1376.31 2292.16 1365.72 2302.96 Z" fill="#000000" fill-rule="nonzero" fill-opacity="1" /><polyline clip-path="url(#clip670)" style="stroke:#3da44d; stroke-linecap:round; stroke-linejoin:round; stroke-width:22.5; stroke-opacity:1; fill:none" points="990.041,2375.14 1242.67,2375.14 "/>
<path clip-path="url(#clip670)" d="M1332.69 2398.3 L1332.69 2380.89 L1318.37 2380.89 L1318.37 2373.69 L1341.37 2373.69 L1341.37 2401.51 Q1336.29 2405.11 1330.17 2406.98 Q1324.05 2408.8 1317.11 2408.8 Q1301.92 2408.8 1293.32 2399.95 Q1284.77 2391.05 1284.77 2375.21 Q1284.77 2359.32 1293.32 2350.47 Q1301.92 2341.57 1317.11 2341.57 Q1323.44 2341.57 1329.13 2343.13 Q1334.86 2344.69 1339.68 2347.73 L1339.68 2357.06 Q1334.82 2352.94 1329.35 2350.86 Q1323.88 2348.77 1317.85 2348.77 Q1305.95 2348.77 1299.96 2355.41 Q1294.02 2362.05 1294.02 2375.21 Q1294.02 2388.31 1299.96 2394.95 Q1305.95 2401.59 1317.85 2401.59 Q1322.49 2401.59 1326.13 2400.81 Q1329.78 2399.99 1332.69 2398.3 Z" fill="#000000" fill-rule="nonzero" fill-opacity="1" /><path clip-path="url(#clip670)" d="M1384.73 2372.6 Q1391.02 2373.95 1394.54 2378.2 Q1398.1 2382.45 1398.1 2388.7 Q1398.1 2398.3 1391.5 2403.55 Q1384.9 2408.8 1372.75 2408.8 Q1368.67 2408.8 1364.33 2407.97 Q1360.03 2407.19 1355.43 2405.59 L1355.43 2397.12 Q1359.08 2399.25 1363.42 2400.34 Q1367.76 2401.42 1372.49 2401.42 Q1380.74 2401.42 1385.03 2398.17 Q1389.37 2394.91 1389.37 2388.7 Q1389.37 2382.97 1385.34 2379.76 Q1381.34 2376.51 1374.18 2376.51 L1366.63 2376.51 L1366.63 2369.3 L1374.53 2369.3 Q1381 2369.3 1384.42 2366.74 Q1387.85 2364.14 1387.85 2359.28 Q1387.85 2354.29 1384.29 2351.64 Q1380.78 2348.95 1374.18 2348.95 Q1370.58 2348.95 1366.46 2349.73 Q1362.33 2350.51 1357.38 2352.16 L1357.38 2344.35 Q1362.38 2342.96 1366.72 2342.26 Q1371.1 2341.57 1374.96 2341.57 Q1384.95 2341.57 1390.76 2346.13 Q1396.58 2350.64 1396.58 2358.37 Q1396.58 2363.75 1393.5 2367.48 Q1390.41 2371.17 1384.73 2372.6 Z" fill="#000000" fill-rule="nonzero" fill-opacity="1" /><polyline clip-path="url(#clip670)" style="stroke:#ff00ff; stroke-linecap:round; stroke-linejoin:round; stroke-width:7.5; stroke-opacity:1; fill:none" stroke-dasharray="30, 19" points="990.041,2472.34 1242.67,2472.34 "/>
<path clip-path="url(#clip670)" d="M1298.66 2442.33 L1298.66 2456.13 L1315.11 2456.13 L1315.11 2462.34 L1298.66 2462.34 L1298.66 2488.73 Q1298.66 2494.67 1300.27 2496.36 Q1301.92 2498.06 1306.91 2498.06 L1315.11 2498.06 L1315.11 2504.74 L1306.91 2504.74 Q1297.66 2504.74 1294.15 2501.31 Q1290.63 2497.84 1290.63 2488.73 L1290.63 2462.34 L1284.77 2462.34 L1284.77 2456.13 L1290.63 2456.13 L1290.63 2442.33 L1298.66 2442.33 Z" fill="#000000" fill-rule="nonzero" fill-opacity="1" /><path clip-path="url(#clip670)" d="M1362.55 2519.5 L1362.55 2525.7 L1316.37 2525.7 L1316.37 2519.5 L1362.55 2519.5 Z" fill="#000000" fill-rule="nonzero" fill-opacity="1" /><path clip-path="url(#clip670)" d="M1405.04 2458 L1405.04 2465.46 Q1401.66 2463.6 1398.23 2462.68 Q1394.84 2461.73 1391.37 2461.73 Q1383.6 2461.73 1379.3 2466.68 Q1375.01 2471.58 1375.01 2480.48 Q1375.01 2489.38 1379.3 2494.32 Q1383.6 2499.23 1391.37 2499.23 Q1394.84 2499.23 1398.23 2498.32 Q1401.66 2497.36 1405.04 2495.5 L1405.04 2502.87 Q1401.7 2504.44 1398.1 2505.22 Q1394.54 2506 1390.5 2506 Q1379.52 2506 1373.05 2499.1 Q1366.59 2492.2 1366.59 2480.48 Q1366.59 2468.59 1373.1 2461.77 Q1379.65 2454.96 1391.02 2454.96 Q1394.71 2454.96 1398.23 2455.74 Q1401.74 2456.48 1405.04 2458 Z" fill="#000000" fill-rule="nonzero" fill-opacity="1" /><path clip-path="url(#clip670)" d="M1426.83 2442.33 L1426.83 2456.13 L1443.28 2456.13 L1443.28 2462.34 L1426.83 2462.34 L1426.83 2488.73 Q1426.83 2494.67 1428.43 2496.36 Q1430.08 2498.06 1435.08 2498.06 L1443.28 2498.06 L1443.28 2504.74 L1435.08 2504.74 Q1425.83 2504.74 1422.31 2501.31 Q1418.8 2497.84 1418.8 2488.73 L1418.8 2462.34 L1412.94 2462.34 L1412.94 2456.13 L1418.8 2456.13 L1418.8 2442.33 L1426.83 2442.33 Z" fill="#000000" fill-rule="nonzero" fill-opacity="1" /></svg>
