<?xml version="1.0" encoding="utf-8"?>
<svg xmlns="http://www.w3.org/2000/svg" xmlns:xlink="http://www.w3.org/1999/xlink" width="1200" height="800" viewBox="0 0 4800 3200">
<defs>
  <clipPath id="clip630">
    <rect x="0" y="0" width="4800" height="3200"/>
  </clipPath>
</defs>
<path clip-path="url(#clip630)" d="M0 3200 L4800 3200 L4800 0 L0 0  Z" fill="#ffffff" fill-rule="evenodd" fill-opacity="1"/>
<defs>
  <clipPath id="clip631">
    <rect x="960" y="0" width="3361" height="3200"/>
  </clipPath>
</defs>
<path clip-path="url(#clip630)" d="M918.541 2645.13 L4611.02 2645.13 L4611.02 377.524 L918.541 377.524  Z" fill="#ffffff" fill-rule="evenodd" fill-opacity="1"/>
<defs>
  <clipPath id="clip632">
    <rect x="918" y="377" width="3693" height="2269"/>
  </clipPath>
</defs>
<polyline clip-path="url(#clip632)" style="stroke:#000000; stroke-linecap:round; stroke-linejoin:round; stroke-width:8; stroke-opacity:0.05; fill:none" stroke-dasharray="32, 20" points="1016.06,2645.13 1016.06,377.524 "/>
<polyline clip-path="url(#clip632)" style="stroke:#000000; stroke-linecap:round; stroke-linejoin:round; stroke-width:8; stroke-opacity:0.05; fill:none" stroke-dasharray="32, 20" points="1714.16,2645.13 1714.16,377.524 "/>
<polyline clip-path="url(#clip632)" style="stroke:#000000; stroke-linecap:round; stroke-linejoin:round; stroke-width:8; stroke-opacity:0.05; fill:none" stroke-dasharray="32, 20" points="2412.25,2645.13 2412.25,377.524 "/>
<polyline clip-path="url(#clip632)" style="stroke:#000000; stroke-linecap:round; stroke-linejoin:round; stroke-width:8; stroke-opacity:0.05; fill:none" stroke-dasharray="32, 20" points="3110.34,2645.13 3110.34,377.524 "/>
<polyline clip-path="url(#clip632)" style="stroke:#000000; stroke-linecap:round; stroke-linejoin:round; stroke-width:8; stroke-opacity:0.05; fill:none" stroke-dasharray="32, 20" points="3808.43,2645.13 3808.43,377.524 "/>
<polyline clip-path="url(#clip632)" style="stroke:#000000; stroke-linecap:round; stroke-linejoin:round; stroke-width:8; stroke-opacity:0.05; fill:none" stroke-dasharray="32, 20" points="4506.52,2645.13 4506.52,377.524 "/>
<polyline clip-path="url(#clip632)" style="stroke:#000000; stroke-linecap:round; stroke-linejoin:round; stroke-width:8; stroke-opacity:0.05; fill:none" stroke-dasharray="32, 20" points="918.541,2526.95 4611.02,2526.95 "/>
<polyline clip-path="url(#clip632)" style="stroke:#000000; stroke-linecap:round; stroke-linejoin:round; stroke-width:8; stroke-opacity:0.05; fill:none" stroke-dasharray="32, 20" points="918.541,1953.79 4611.02,1953.79 "/>
<polyline clip-path="url(#clip632)" style="stroke:#000000; stroke-linecap:round; stroke-linejoin:round; stroke-width:8; stroke-opacity:0.05; fill:none" stroke-dasharray="32, 20" points="918.541,1380.64 4611.02,1380.64 "/>
<polyline clip-path="url(#clip632)" style="stroke:#000000; stroke-linecap:round; stroke-linejoin:round; stroke-width:8; stroke-opacity:0.05; fill:none" stroke-dasharray="32, 20" points="918.541,807.489 4611.02,807.489 "/>
<polyline clip-path="url(#clip630)" style="stroke:#000000; stroke-linecap:round; stroke-linejoin:round; stroke-width:4; stroke-opacity:1; fill:none" points="918.541,2645.13 4611.02,2645.13 "/>
<polyline clip-path="url(#clip630)" style="stroke:#000000; stroke-linecap:round; stroke-linejoin:round; stroke-width:4; stroke-opacity:1; fill:none" points="1016.06,2645.13 1016.06,2626.23 "/>
<polyline clip-path="url(#clip630)" style="stroke:#000000; stroke-linecap:round; stroke-linejoin:round; stroke-width:4; stroke-opacity:1; fill:none" points="1714.16,2645.13 1714.16,2626.23 "/>
<polyline clip-path="url(#clip630)" style="stroke:#000000; stroke-linecap:round; stroke-linejoin:round; stroke-width:4; stroke-opacity:1; fill:none" points="2412.25,2645.13 2412.25,2626.23 "/>
<polyline clip-path="url(#clip630)" style="stroke:#000000; stroke-linecap:round; stroke-linejoin:round; stroke-width:4; stroke-opacity:1; fill:none" points="3110.34,2645.13 3110.34,2626.23 "/>
<polyline clip-path="url(#clip630)" style="stroke:#000000; stroke-linecap:round; stroke-linejoin:round; stroke-width:4; stroke-opacity:1; fill:none" points="3808.43,2645.13 3808.43,2626.23 "/>
<polyline clip-path="url(#clip630)" style="stroke:#000000; stroke-linecap:round; stroke-linejoin:round; stroke-width:4; stroke-opacity:1; fill:none" points="4506.52,2645.13 4506.52,2626.23 "/>
<path clip-path="url(#clip630)" d="M1016.06 2734.8 Q1000.27 2734.8 992.266 2750.39 Q984.366 2765.89 984.366 2797.08 Q984.366 2828.17 992.266 2843.77 Q1000.27 2859.26 1016.06 2859.26 Q1031.96 2859.26 1039.86 2843.77 Q1047.86 2828.17 1047.86 2797.08 Q1047.86 2765.89 1039.86 2750.39 Q1031.96 2734.8 1016.06 2734.8 M1016.06 2718.59 Q1041.48 2718.59 1054.85 2738.75 Q1068.32 2758.8 1068.32 2797.08 Q1068.32 2835.26 1054.85 2855.41 Q1041.48 2875.46 1016.06 2875.46 Q990.645 2875.46 977.176 2855.41 Q963.808 2835.26 963.808 2797.08 Q963.808 2758.8 977.176 2738.75 Q990.645 2718.59 1016.06 2718.59 Z" fill="#000000" fill-rule="nonzero" fill-opacity="1" /><path clip-path="url(#clip630)" d="M1672.08 2855.31 L1705.5 2855.31 L1705.5 2739.96 L1669.14 2747.25 L1669.14 2728.62 L1705.29 2721.33 L1725.75 2721.33 L1725.75 2855.31 L1759.17 2855.31 L1759.17 2872.53 L1672.08 2872.53 L1672.08 2855.31 Z" fill="#000000" fill-rule="nonzero" fill-opacity="1" /><path clip-path="url(#clip630)" d="M2388.85 2855.31 L2460.25 2855.31 L2460.25 2872.53 L2364.24 2872.53 L2364.24 2855.31 Q2375.89 2843.26 2395.94 2823.01 Q2416.09 2802.65 2421.26 2796.78 Q2431.08 2785.74 2434.93 2778.14 Q2438.88 2770.44 2438.88 2763.05 Q2438.88 2751 2430.37 2743.4 Q2421.97 2735.81 2408.4 2735.81 Q2398.78 2735.81 2388.04 2739.15 Q2377.41 2742.49 2365.26 2749.28 L2365.26 2728.62 Q2377.61 2723.66 2388.35 2721.13 Q2399.08 2718.59 2407.99 2718.59 Q2431.49 2718.59 2445.46 2730.34 Q2459.44 2742.09 2459.44 2761.74 Q2459.44 2771.05 2455.9 2779.46 Q2452.45 2787.76 2443.24 2799.1 Q2440.7 2802.04 2427.13 2816.12 Q2413.56 2830.09 2388.85 2855.31 Z" fill="#000000" fill-rule="nonzero" fill-opacity="1" /><path clip-path="url(#clip630)" d="M3128.92 2791 Q3143.61 2794.14 3151.81 2804.07 Q3160.11 2813.99 3160.11 2828.58 Q3160.11 2850.96 3144.72 2863.21 Q3129.33 2875.46 3100.97 2875.46 Q3091.45 2875.46 3081.32 2873.54 Q3071.3 2871.72 3060.56 2867.97 L3060.56 2848.22 Q3069.07 2853.18 3079.2 2855.72 Q3089.32 2858.25 3100.36 2858.25 Q3119.6 2858.25 3129.63 2850.65 Q3139.76 2843.06 3139.76 2828.58 Q3139.76 2815.21 3130.34 2807.71 Q3121.02 2800.12 3104.31 2800.12 L3086.69 2800.12 L3086.69 2783.31 L3105.12 2783.31 Q3120.21 2783.31 3128.21 2777.33 Q3136.21 2771.25 3136.21 2759.91 Q3136.21 2748.27 3127.91 2742.09 Q3119.71 2735.81 3104.31 2735.81 Q3095.91 2735.81 3086.29 2737.63 Q3076.66 2739.46 3065.12 2743.3 L3065.12 2725.07 Q3076.77 2721.83 3086.89 2720.21 Q3097.12 2718.59 3106.13 2718.59 Q3129.43 2718.59 3143 2729.23 Q3156.57 2739.76 3156.57 2757.79 Q3156.57 2770.34 3149.38 2779.05 Q3142.19 2787.66 3128.92 2791 Z" fill="#000000" fill-rule="nonzero" fill-opacity="1" /><path clip-path="url(#clip630)" d="M3821.59 2739.15 L3769.94 2819.87 L3821.59 2819.87 L3821.59 2739.15 M3816.23 2721.33 L3841.95 2721.33 L3841.95 2819.87 L3863.52 2819.87 L3863.52 2836.88 L3841.95 2836.88 L3841.95 2872.53 L3821.59 2872.53 L3821.59 2836.88 L3753.34 2836.88 L3753.34 2817.13 L3816.23 2721.33 Z" fill="#000000" fill-rule="nonzero" fill-opacity="1" /><path clip-path="url(#clip630)" d="M4463.98 2721.33 L4544.29 2721.33 L4544.29 2738.54 L4482.72 2738.54 L4482.72 2775.61 Q4487.18 2774.09 4491.63 2773.38 Q4496.09 2772.57 4500.54 2772.57 Q4525.86 2772.57 4540.65 2786.45 Q4555.43 2800.32 4555.43 2824.02 Q4555.43 2848.42 4540.24 2862 Q4525.05 2875.46 4497.4 2875.46 Q4487.89 2875.46 4477.96 2873.84 Q4468.14 2872.22 4457.6 2868.98 L4457.6 2848.42 Q4466.72 2853.39 4476.44 2855.82 Q4486.16 2858.25 4497 2858.25 Q4514.52 2858.25 4524.75 2849.03 Q4534.98 2839.82 4534.98 2824.02 Q4534.98 2808.22 4524.75 2799 Q4514.52 2789.79 4497 2789.79 Q4488.8 2789.79 4480.59 2791.61 Q4472.49 2793.43 4463.98 2797.28 L4463.98 2721.33 Z" fill="#000000" fill-rule="nonzero" fill-opacity="1" /><path clip-path="url(#clip630)" d="M2600.32 2979.74 L2600.32 3011.94 L2638.7 3011.94 L2638.7 3026.42 L2600.32 3026.42 L2600.32 3088 Q2600.32 3101.87 2604.06 3105.82 Q2607.91 3109.77 2619.56 3109.77 L2638.7 3109.77 L2638.7 3125.37 L2619.56 3125.37 Q2597.99 3125.37 2589.78 3117.37 Q2581.58 3109.27 2581.58 3088 L2581.58 3026.42 L2567.91 3026.42 L2567.91 3011.94 L2581.58 3011.94 L2581.58 2979.74 L2600.32 2979.74 Z" fill="#000000" fill-rule="nonzero" fill-opacity="1" /><path clip-path="url(#clip630)" d="M2773.9 2967.99 Q2760.33 2991.28 2753.74 3014.07 Q2747.16 3036.86 2747.16 3060.25 Q2747.16 3083.64 2753.74 3106.63 Q2760.43 3129.52 2773.9 3152.71 L2757.69 3152.71 Q2742.5 3128.91 2734.91 3105.92 Q2727.41 3082.93 2727.41 3060.25 Q2727.41 3037.67 2734.91 3014.78 Q2742.4 2991.89 2757.69 2967.99 L2773.9 2967.99 Z" fill="#000000" fill-rule="nonzero" fill-opacity="1" /><path clip-path="url(#clip630)" d="M2882.36 3015.28 L2882.36 3032.91 Q2874.46 3028.85 2865.95 3026.83 Q2857.45 3024.8 2848.33 3024.8 Q2834.46 3024.8 2827.47 3029.06 Q2820.58 3033.31 2820.58 3041.82 Q2820.58 3048.3 2825.55 3052.05 Q2830.51 3055.69 2845.5 3059.03 L2851.88 3060.45 Q2871.73 3064.71 2880.03 3072.5 Q2888.44 3080.2 2888.44 3094.07 Q2888.44 3109.87 2875.88 3119.09 Q2863.42 3128.3 2841.55 3128.3 Q2832.43 3128.3 2822.51 3126.48 Q2812.68 3124.76 2801.75 3121.22 L2801.75 3101.97 Q2812.08 3107.34 2822.1 3110.08 Q2832.13 3112.71 2841.95 3112.71 Q2855.12 3112.71 2862.21 3108.25 Q2869.3 3103.7 2869.3 3095.49 Q2869.3 3087.9 2864.13 3083.85 Q2859.07 3079.79 2841.75 3076.05 L2835.27 3074.53 Q2817.95 3070.88 2810.25 3063.39 Q2802.56 3055.79 2802.56 3042.63 Q2802.56 3026.63 2813.9 3017.92 Q2825.24 3009.21 2846.1 3009.21 Q2856.43 3009.21 2865.55 3010.73 Q2874.66 3012.25 2882.36 3015.28 Z" fill="#000000" fill-rule="nonzero" fill-opacity="1" /><path clip-path="url(#clip630)" d="M2915.17 2967.99 L2931.38 2967.99 Q2946.57 2991.89 2954.06 3014.78 Q2961.66 3037.67 2961.66 3060.25 Q2961.66 3082.93 2954.06 3105.92 Q2946.57 3128.91 2931.38 3152.71 L2915.17 3152.71 Q2928.64 3129.52 2935.22 3106.63 Q2941.91 3083.64 2941.91 3060.25 Q2941.91 3036.86 2935.22 3014.07 Q2928.64 2991.28 2915.17 2967.99 Z" fill="#000000" fill-rule="nonzero" fill-opacity="1" /><polyline clip-path="url(#clip630)" style="stroke:#000000; stroke-linecap:round; stroke-linejoin:round; stroke-width:4; stroke-opacity:1; fill:none" points="918.541,2645.13 918.541,377.524 "/>
<polyline clip-path="url(#clip630)" style="stroke:#000000; stroke-linecap:round; stroke-linejoin:round; stroke-width:4; stroke-opacity:1; fill:none" points="918.541,2526.95 937.439,2526.95 "/>
<polyline clip-path="url(#clip630)" style="stroke:#000000; stroke-linecap:round; stroke-linejoin:round; stroke-width:4; stroke-opacity:1; fill:none" points="918.541,1953.79 937.439,1953.79 "/>
<polyline clip-path="url(#clip630)" style="stroke:#000000; stroke-linecap:round; stroke-linejoin:round; stroke-width:4; stroke-opacity:1; fill:none" points="918.541,1380.64 937.439,1380.64 "/>
<polyline clip-path="url(#clip630)" style="stroke:#000000; stroke-linecap:round; stroke-linejoin:round; stroke-width:4; stroke-opacity:1; fill:none" points="918.541,807.489 937.439,807.489 "/>
<path clip-path="url(#clip630)" d="M794.285 2464.82 Q778.486 2464.82 770.486 2480.41 Q762.586 2495.91 762.586 2527.1 Q762.586 2558.19 770.486 2573.78 Q778.486 2589.28 794.285 2589.28 Q810.184 2589.28 818.084 2573.78 Q826.084 2558.19 826.084 2527.1 Q826.084 2495.91 818.084 2480.41 Q810.184 2464.82 794.285 2464.82 M794.285 2448.61 Q819.704 2448.61 833.072 2468.76 Q846.541 2488.82 846.541 2527.1 Q846.541 2565.28 833.072 2585.43 Q819.704 2605.48 794.285 2605.48 Q768.865 2605.48 755.396 2585.43 Q742.028 2565.28 742.028 2527.1 Q742.028 2488.82 755.396 2468.76 Q768.865 2448.61 794.285 2448.61 Z" fill="#000000" fill-rule="nonzero" fill-opacity="1" /><path clip-path="url(#clip630)" d="M358.205 2012.18 L391.625 2012.18 L391.625 1896.83 L355.268 1904.12 L355.268 1885.49 L391.422 1878.19 L411.879 1878.19 L411.879 2012.18 L445.299 2012.18 L445.299 2029.39 L358.205 2029.39 L358.205 2012.18 Z" fill="#000000" fill-rule="nonzero" fill-opacity="1" /><path clip-path="url(#clip630)" d="M530.368 1891.66 Q514.57 1891.66 506.569 1907.26 Q498.67 1922.75 498.67 1953.95 Q498.67 1985.04 506.569 2000.63 Q514.57 2016.13 530.368 2016.13 Q546.268 2016.13 554.167 2000.63 Q562.168 1985.04 562.168 1953.95 Q562.168 1922.75 554.167 1907.26 Q546.268 1891.66 530.368 1891.66 M530.368 1875.46 Q555.788 1875.46 569.156 1895.61 Q582.625 1915.66 582.625 1953.95 Q582.625 1992.13 569.156 2012.28 Q555.788 2032.33 530.368 2032.33 Q504.949 2032.33 491.48 2012.28 Q478.112 1992.13 478.112 1953.95 Q478.112 1915.66 491.48 1895.61 Q504.949 1875.46 530.368 1875.46 Z" fill="#000000" fill-rule="nonzero" fill-opacity="1" /><path clip-path="url(#clip630)" d="M662.326 1891.66 Q646.528 1891.66 638.527 1907.26 Q630.628 1922.75 630.628 1953.95 Q630.628 1985.04 638.527 2000.63 Q646.528 2016.13 662.326 2016.13 Q678.226 2016.13 686.125 2000.63 Q694.126 1985.04 694.126 1953.95 Q694.126 1922.75 686.125 1907.26 Q678.226 1891.66 662.326 1891.66 M662.326 1875.46 Q687.746 1875.46 701.114 1895.61 Q714.583 1915.66 714.583 1953.95 Q714.583 1992.13 701.114 2012.28 Q687.746 2032.33 662.326 2032.33 Q636.907 2032.33 623.438 2012.28 Q610.07 1992.13 610.07 1953.95 Q610.07 1915.66 623.438 1895.61 Q636.907 1875.46 662.326 1875.46 Z" fill="#000000" fill-rule="nonzero" fill-opacity="1" /><path clip-path="url(#clip630)" d="M794.285 1891.66 Q778.486 1891.66 770.486 1907.26 Q762.586 1922.75 762.586 1953.95 Q762.586 1985.04 770.486 2000.63 Q778.486 2016.13 794.285 2016.13 Q810.184 2016.13 818.084 2000.63 Q826.084 1985.04 826.084 1953.95 Q826.084 1922.75 818.084 1907.26 Q810.184 1891.66 794.285 1891.66 M794.285 1875.46 Q819.704 1875.46 833.072 1895.61 Q846.541 1915.66 846.541 1953.95 Q846.541 1992.13 833.072 2012.28 Q819.704 2032.33 794.285 2032.33 Q768.865 2032.33 755.396 2012.28 Q742.028 1992.13 742.028 1953.95 Q742.028 1915.66 755.396 1895.61 Q768.865 1875.46 794.285 1875.46 Z" fill="#000000" fill-rule="nonzero" fill-opacity="1" /><path clip-path="url(#clip630)" d="M372.282 1439.03 L443.679 1439.03 L443.679 1456.24 L347.672 1456.24 L347.672 1439.03 Q359.319 1426.97 379.371 1406.72 Q399.524 1386.36 404.689 1380.49 Q414.512 1369.45 418.361 1361.86 Q422.31 1354.16 422.31 1346.77 Q422.31 1334.71 413.803 1327.12 Q405.398 1319.52 391.827 1319.52 Q382.206 1319.52 371.472 1322.87 Q360.838 1326.21 348.685 1332.99 L348.685 1312.33 Q361.04 1307.37 371.775 1304.84 Q382.51 1302.31 391.422 1302.31 Q414.917 1302.31 428.893 1314.05 Q442.869 1325.8 442.869 1345.45 Q442.869 1354.77 439.324 1363.17 Q435.881 1371.48 426.665 1382.82 Q424.133 1385.76 410.563 1399.83 Q396.992 1413.81 372.282 1439.03 Z" fill="#000000" fill-rule="nonzero" fill-opacity="1" /><path clip-path="url(#clip630)" d="M530.368 1318.51 Q514.57 1318.51 506.569 1334.11 Q498.67 1349.6 498.67 1380.79 Q498.67 1411.88 506.569 1427.48 Q514.57 1442.97 530.368 1442.97 Q546.268 1442.97 554.167 1427.48 Q562.168 1411.88 562.168 1380.79 Q562.168 1349.6 554.167 1334.11 Q546.268 1318.51 530.368 1318.51 M530.368 1302.31 Q555.788 1302.31 569.156 1322.46 Q582.625 1342.51 582.625 1380.79 Q582.625 1418.97 569.156 1439.13 Q555.788 1459.18 530.368 1459.18 Q504.949 1459.18 491.48 1439.13 Q478.112 1418.97 478.112 1380.79 Q478.112 1342.51 491.48 1322.46 Q504.949 1302.31 530.368 1302.31 Z" fill="#000000" fill-rule="nonzero" fill-opacity="1" /><path clip-path="url(#clip630)" d="M662.326 1318.51 Q646.528 1318.51 638.527 1334.11 Q630.628 1349.6 630.628 1380.79 Q630.628 1411.88 638.527 1427.48 Q646.528 1442.97 662.326 1442.97 Q678.226 1442.97 686.125 1427.48 Q694.126 1411.88 694.126 1380.79 Q694.126 1349.6 686.125 1334.11 Q678.226 1318.51 662.326 1318.51 M662.326 1302.31 Q687.746 1302.31 701.114 1322.46 Q714.583 1342.51 714.583 1380.79 Q714.583 1418.97 701.114 1439.13 Q687.746 1459.18 662.326 1459.18 Q636.907 1459.18 623.438 1439.13 Q610.07 1418.97 610.07 1380.79 Q610.07 1342.51 623.438 1322.46 Q636.907 1302.31 662.326 1302.31 Z" fill="#000000" fill-rule="nonzero" fill-opacity="1" /><path clip-path="url(#clip630)" d="M794.285 1318.51 Q778.486 1318.51 770.486 1334.11 Q762.586 1349.6 762.586 1380.79 Q762.586 1411.88 770.486 1427.48 Q778.486 1442.97 794.285 1442.97 Q810.184 1442.97 818.084 1427.48 Q826.084 1411.88 826.084 1380.79 Q826.084 1349.6 818.084 1334.11 Q810.184 1318.51 794.285 1318.51 M794.285 1302.31 Q819.704 1302.31 833.072 1322.46 Q846.541 1342.51 846.541 1380.79 Q846.541 1418.97 833.072 1439.13 Q819.704 1459.18 794.285 1459.18 Q768.865 1459.18 755.396 1439.13 Q742.028 1418.97 742.028 1380.79 Q742.028 1342.51 755.396 1322.46 Q768.865 1302.31 794.285 1302.31 Z" fill="#000000" fill-rule="nonzero" fill-opacity="1" /><path clip-path="url(#clip630)" d="M416.639 801.565 Q431.324 804.704 439.527 814.629 Q447.831 824.554 447.831 839.137 Q447.831 861.518 432.438 873.772 Q417.044 886.026 388.688 886.026 Q379.168 886.026 369.041 884.102 Q359.015 882.279 348.28 878.532 L348.28 858.784 Q356.787 863.746 366.914 866.278 Q377.041 868.81 388.08 868.81 Q407.322 868.81 417.348 861.214 Q427.475 853.619 427.475 839.137 Q427.475 825.769 418.057 818.275 Q408.74 810.679 392.03 810.679 L374.408 810.679 L374.408 793.868 L392.84 793.868 Q407.93 793.868 415.93 787.893 Q423.931 781.817 423.931 770.474 Q423.931 758.828 415.626 752.65 Q407.423 746.371 392.03 746.371 Q383.624 746.371 374.003 748.194 Q364.382 750.017 352.837 753.865 L352.837 735.636 Q364.484 732.396 374.611 730.775 Q384.839 729.155 393.853 729.155 Q417.145 729.155 430.716 739.788 Q444.287 750.321 444.287 768.347 Q444.287 780.905 437.096 789.615 Q429.906 798.223 416.639 801.565 Z" fill="#000000" fill-rule="nonzero" fill-opacity="1" /><path clip-path="url(#clip630)" d="M530.368 745.358 Q514.57 745.358 506.569 760.954 Q498.67 776.449 498.67 807.641 Q498.67 838.732 506.569 854.328 Q514.57 869.822 530.368 869.822 Q546.268 869.822 554.167 854.328 Q562.168 838.732 562.168 807.641 Q562.168 776.449 554.167 760.954 Q546.268 745.358 530.368 745.358 M530.368 729.155 Q555.788 729.155 569.156 749.308 Q582.625 769.36 582.625 807.641 Q582.625 845.821 569.156 865.974 Q555.788 886.026 530.368 886.026 Q504.949 886.026 491.48 865.974 Q478.112 845.821 478.112 807.641 Q478.112 769.36 491.48 749.308 Q504.949 729.155 530.368 729.155 Z" fill="#000000" fill-rule="nonzero" fill-opacity="1" /><path clip-path="url(#clip630)" d="M662.326 745.358 Q646.528 745.358 638.527 760.954 Q630.628 776.449 630.628 807.641 Q630.628 838.732 638.527 854.328 Q646.528 869.822 662.326 869.822 Q678.226 869.822 686.125 854.328 Q694.126 838.732 694.126 807.641 Q694.126 776.449 686.125 760.954 Q678.226 745.358 662.326 745.358 M662.326 729.155 Q687.746 729.155 701.114 749.308 Q714.583 769.36 714.583 807.641 Q714.583 845.821 701.114 865.974 Q687.746 886.026 662.326 886.026 Q636.907 886.026 623.438 865.974 Q610.07 845.821 610.07 807.641 Q610.07 769.36 623.438 749.308 Q636.907 729.155 662.326 729.155 Z" fill="#000000" fill-rule="nonzero" fill-opacity="1" /><path clip-path="url(#clip630)" d="M794.285 745.358 Q778.486 745.358 770.486 760.954 Q762.586 776.449 762.586 807.641 Q762.586 838.732 770.486 854.328 Q778.486 869.822 794.285 869.822 Q810.184 869.822 818.084 854.328 Q826.084 838.732 826.084 807.641 Q826.084 776.449 818.084 760.954 Q810.184 745.358 794.285 745.358 M794.285 729.155 Q819.704 729.155 833.072 749.308 Q846.541 769.36 846.541 807.641 Q846.541 845.821 833.072 865.974 Q819.704 886.026 794.285 886.026 Q768.865 886.026 755.396 865.974 Q742.028 845.821 742.028 807.641 Q742.028 769.36 755.396 749.308 Q768.865 729.155 794.285 729.155 Z" fill="#000000" fill-rule="nonzero" fill-opacity="1" /><path clip-path="url(#clip630)" d="M98.9619 1779.24 Q91.8728 1789.57 91.8728 1813.78 Q91.8728 1839.4 103.722 1839.4 Q113.039 1839.4 117.9 1812.66 Q121.647 1791.6 132.989 1779.75 Q146.661 1765.37 174.714 1765.37 Q201.551 1765.37 217.35 1779.24 Q233.249 1793.12 233.249 1817.42 Q233.249 1841.63 217.35 1855.6 Q201.551 1869.48 173.701 1869.48 Q153.041 1869.48 136.331 1855.6 Q129.85 1850.23 126.204 1842.64 Q118.204 1858.44 103.924 1858.44 Q76.3781 1858.44 76.3781 1813.78 Q76.3781 1791.4 83.4672 1779.24 L98.9619 1779.24 M131.268 1828.66 Q134.205 1835.55 141.598 1841.12 Q153.041 1849.83 173.701 1849.83 Q194.259 1849.83 205.804 1841.22 Q217.451 1832.51 217.451 1817.42 Q217.451 1802.54 205.703 1793.83 Q193.956 1785.12 174.714 1785.12 Q154.561 1785.12 144.838 1794.33 Q134.407 1804.16 133.293 1816.92 Q132.686 1823.4 131.268 1828.66 Z" fill="#000000" fill-rule="nonzero" fill-opacity="1" /><path clip-path="url(#clip630)" d="M72.9348 1623.79 Q96.2275 1637.36 119.014 1643.94 Q141.8 1650.53 165.194 1650.53 Q188.588 1650.53 211.577 1643.94 Q234.465 1637.26 257.656 1623.79 L257.656 1639.99 Q233.857 1655.18 210.868 1662.78 Q187.879 1670.27 165.194 1670.27 Q142.61 1670.27 119.723 1662.78 Q96.8351 1655.28 72.9348 1639.99 L72.9348 1623.79 Z" fill="#000000" fill-rule="nonzero" fill-opacity="1" /><path clip-path="url(#clip630)" d="M134.103 1513 L72.7323 1513 L72.7323 1494.36 L230.312 1494.36 L230.312 1513 L213.299 1513 Q223.426 1518.87 228.388 1527.88 Q233.249 1536.8 233.249 1549.35 Q233.249 1569.91 216.843 1582.88 Q200.437 1595.74 173.701 1595.74 Q146.965 1595.74 130.559 1582.88 Q114.153 1569.91 114.153 1549.35 Q114.153 1536.8 119.115 1527.88 Q123.976 1518.87 134.103 1513 M173.701 1576.49 Q194.259 1576.49 206.007 1568.09 Q217.653 1559.58 217.653 1544.8 Q217.653 1530.01 206.007 1521.5 Q194.259 1513 173.701 1513 Q153.143 1513 141.496 1521.5 Q129.749 1530.01 129.749 1544.8 Q129.749 1559.58 141.496 1568.09 Q153.143 1576.49 173.701 1576.49 Z" fill="#000000" fill-rule="nonzero" fill-opacity="1" /><path clip-path="url(#clip630)" d="M168.941 1358.96 L178.056 1358.96 L178.056 1444.64 Q197.298 1443.42 207.425 1433.09 Q217.451 1422.66 217.451 1404.13 Q217.451 1393.39 214.818 1383.37 Q212.185 1373.24 206.918 1363.32 L224.54 1363.32 Q228.793 1373.34 231.021 1383.87 Q233.249 1394.41 233.249 1405.24 Q233.249 1432.38 217.451 1448.28 Q201.652 1464.08 174.714 1464.08 Q146.864 1464.08 130.559 1449.09 Q114.153 1434 114.153 1408.48 Q114.153 1385.6 128.939 1372.33 Q143.623 1358.96 168.941 1358.96 M163.473 1377.6 Q148.18 1377.8 139.066 1386.2 Q129.951 1394.51 129.951 1408.28 Q129.951 1423.88 138.762 1433.3 Q147.573 1442.61 163.574 1444.03 L163.473 1377.6 Z" fill="#000000" fill-rule="nonzero" fill-opacity="1" /><path clip-path="url(#clip630)" d="M172.283 1253.74 Q152.029 1253.74 140.889 1262.14 Q129.749 1270.45 129.749 1285.54 Q129.749 1300.53 140.889 1308.93 Q152.029 1317.24 172.283 1317.24 Q192.436 1317.24 203.576 1308.93 Q214.716 1300.53 214.716 1285.54 Q214.716 1270.45 203.576 1262.14 Q192.436 1253.74 172.283 1253.74 M216.236 1235.1 Q245.2 1235.1 259.276 1247.97 Q273.455 1260.83 273.455 1287.36 Q273.455 1297.19 271.935 1305.89 Q270.518 1314.6 267.479 1322.81 L249.352 1322.81 Q253.808 1314.6 255.934 1306.6 Q258.061 1298.6 258.061 1290.3 Q258.061 1271.97 248.44 1262.85 Q238.921 1253.74 219.578 1253.74 L210.362 1253.74 Q220.388 1259.51 225.35 1268.52 Q230.312 1277.54 230.312 1290.1 Q230.312 1310.96 214.413 1323.72 Q198.513 1336.48 172.283 1336.48 Q145.952 1336.48 130.053 1323.72 Q114.153 1310.96 114.153 1290.1 Q114.153 1277.54 119.115 1268.52 Q124.077 1259.51 134.103 1253.74 L116.887 1253.74 L116.887 1235.1 L216.236 1235.1 Z" fill="#000000" fill-rule="nonzero" fill-opacity="1" /><path clip-path="url(#clip630)" d="M72.9348 1199.66 L72.9348 1183.46 Q96.8351 1168.27 119.723 1160.77 Q142.61 1153.18 165.194 1153.18 Q187.879 1153.18 210.868 1160.77 Q233.857 1168.27 257.656 1183.46 L257.656 1199.66 Q234.465 1186.19 211.577 1179.61 Q188.588 1172.92 165.194 1172.92 Q141.8 1172.92 119.014 1179.61 Q96.2275 1186.19 72.9348 1199.66 Z" fill="#000000" fill-rule="nonzero" fill-opacity="1" /><path clip-path="url(#clip630)" d="M2110.21 126.342 Q2117.74 128.888 2124.8 137.221 Q2131.97 145.555 2139.15 160.138 L2162.88 207.36 L2137.76 207.36 L2115.65 163.032 Q2107.09 145.671 2098.99 139.999 Q2091 134.328 2077.11 134.328 L2051.65 134.328 L2051.65 207.36 L2028.27 207.36 L2028.27 34.56 L2081.05 34.56 Q2110.68 34.56 2125.26 46.9442 Q2139.84 59.3284 2139.84 84.3283 Q2139.84 100.648 2132.2 111.411 Q2124.68 122.175 2110.21 126.342 M2051.65 53.7729 L2051.65 115.115 L2081.05 115.115 Q2097.95 115.115 2106.51 107.361 Q2115.19 99.4902 2115.19 84.3283 Q2115.19 69.1663 2106.51 61.5274 Q2097.95 53.7729 2081.05 53.7729 L2051.65 53.7729 Z" fill="#000000" fill-rule="nonzero" fill-opacity="1" /><path clip-path="url(#clip630)" d="M2231.63 92.6615 Q2214.5 92.6615 2204.54 106.087 Q2194.59 119.398 2194.59 142.661 Q2194.59 165.925 2204.43 179.351 Q2214.38 192.661 2231.63 192.661 Q2248.64 192.661 2258.59 179.235 Q2268.55 165.809 2268.55 142.661 Q2268.55 119.629 2258.59 106.203 Q2248.64 92.6615 2231.63 92.6615 M2231.63 74.6061 Q2259.4 74.6061 2275.26 92.6615 Q2291.12 110.717 2291.12 142.661 Q2291.12 174.49 2275.26 192.661 Q2259.4 210.716 2231.63 210.716 Q2203.73 210.716 2187.88 192.661 Q2172.14 174.49 2172.14 142.661 Q2172.14 110.717 2187.88 92.6615 Q2203.73 74.6061 2231.63 74.6061 Z" fill="#000000" fill-rule="nonzero" fill-opacity="1" /><path clip-path="url(#clip630)" d="M2347.48 40.9257 L2347.48 77.7311 L2391.35 77.7311 L2391.35 94.2819 L2347.48 94.2819 L2347.48 164.652 Q2347.48 180.508 2351.76 185.022 Q2356.16 189.536 2369.47 189.536 L2391.35 189.536 L2391.35 207.36 L2369.47 207.36 Q2344.82 207.36 2335.44 198.217 Q2326.07 188.957 2326.07 164.652 L2326.07 94.2819 L2310.44 94.2819 L2310.44 77.7311 L2326.07 77.7311 L2326.07 40.9257 L2347.48 40.9257 Z" fill="#000000" fill-rule="nonzero" fill-opacity="1" /><path clip-path="url(#clip630)" d="M2469.59 92.6615 Q2452.46 92.6615 2442.5 106.087 Q2432.55 119.398 2432.55 142.661 Q2432.55 165.925 2442.39 179.351 Q2452.34 192.661 2469.59 192.661 Q2486.6 192.661 2496.55 179.235 Q2506.51 165.809 2506.51 142.661 Q2506.51 119.629 2496.55 106.203 Q2486.6 92.6615 2469.59 92.6615 M2469.59 74.6061 Q2497.36 74.6061 2513.22 92.6615 Q2529.08 110.717 2529.08 142.661 Q2529.08 174.49 2513.22 192.661 Q2497.36 210.716 2469.59 210.716 Q2441.69 210.716 2425.84 192.661 Q2410.1 174.49 2410.1 142.661 Q2410.1 110.717 2425.84 92.6615 Q2441.69 74.6061 2469.59 74.6061 Z" fill="#000000" fill-rule="nonzero" fill-opacity="1" /><path clip-path="url(#clip630)" d="M2639.49 97.6384 Q2635.91 95.555 2631.62 94.6291 Q2627.46 93.5875 2622.36 93.5875 Q2604.31 93.5875 2594.59 105.393 Q2584.98 117.083 2584.98 139.073 L2584.98 207.36 L2563.57 207.36 L2563.57 77.7311 L2584.98 77.7311 L2584.98 97.8698 Q2591.69 86.0644 2602.46 80.3931 Q2613.22 74.6061 2628.61 74.6061 Q2630.81 74.6061 2633.48 74.9533 Q2636.14 75.1848 2639.38 75.7635 L2639.49 97.6384 Z" fill="#000000" fill-rule="nonzero" fill-opacity="1" /><path clip-path="url(#clip630)" d="M2795.86 57.5923 L2764.15 143.587 L2827.69 143.587 L2795.86 57.5923 M2782.66 34.56 L2809.17 34.56 L2875.02 207.36 L2850.72 207.36 L2834.98 163.032 L2757.09 163.032 L2741.35 207.36 L2716.69 207.36 L2782.66 34.56 Z" fill="#000000" fill-rule="nonzero" fill-opacity="1" /><path clip-path="url(#clip630)" d="M3007.08 129.12 L3007.08 207.36 L2985.79 207.36 L2985.79 129.814 Q2985.79 111.411 2978.61 102.268 Q2971.44 93.1245 2957.08 93.1245 Q2939.84 93.1245 2929.89 104.12 Q2919.93 115.115 2919.93 134.097 L2919.93 207.36 L2898.52 207.36 L2898.52 77.7311 L2919.93 77.7311 L2919.93 97.8698 Q2927.57 86.1801 2937.87 80.3931 Q2948.29 74.6061 2961.83 74.6061 Q2984.17 74.6061 2995.63 88.4949 Q3007.08 102.268 3007.08 129.12 Z" fill="#000000" fill-rule="nonzero" fill-opacity="1" /><path clip-path="url(#clip630)" d="M3134.86 141.041 Q3134.86 117.893 3125.26 105.161 Q3115.76 92.4301 3098.52 92.4301 Q3081.39 92.4301 3071.78 105.161 Q3062.29 117.893 3062.29 141.041 Q3062.29 164.073 3071.78 176.805 Q3081.39 189.536 3098.52 189.536 Q3115.76 189.536 3125.26 176.805 Q3134.86 164.073 3134.86 141.041 M3156.16 191.272 Q3156.16 224.374 3141.46 240.462 Q3126.76 256.665 3096.44 256.665 Q3085.21 256.665 3075.26 254.929 Q3065.3 253.309 3055.93 249.837 L3055.93 229.119 Q3065.3 234.212 3074.45 236.642 Q3083.59 239.073 3093.08 239.073 Q3114.03 239.073 3124.44 228.077 Q3134.86 217.198 3134.86 195.092 L3134.86 184.559 Q3128.26 196.017 3117.96 201.689 Q3107.66 207.36 3093.31 207.36 Q3069.47 207.36 3054.89 189.189 Q3040.3 171.018 3040.3 141.041 Q3040.3 110.948 3054.89 92.7773 Q3069.47 74.6061 3093.31 74.6061 Q3107.66 74.6061 3117.96 80.2773 Q3128.26 85.9486 3134.86 97.4069 L3134.86 77.7311 L3156.16 77.7311 L3156.16 191.272 Z" fill="#000000" fill-rule="nonzero" fill-opacity="1" /><path clip-path="url(#clip630)" d="M3200.02 27.2684 L3221.32 27.2684 L3221.32 207.36 L3200.02 207.36 L3200.02 27.2684 Z" fill="#000000" fill-rule="nonzero" fill-opacity="1" /><path clip-path="url(#clip630)" d="M3376.76 137.221 L3376.76 147.638 L3278.84 147.638 Q3280.23 169.629 3292.04 181.203 Q3303.96 192.661 3325.14 192.661 Q3337.41 192.661 3348.86 189.652 Q3360.44 186.643 3371.78 180.624 L3371.78 200.763 Q3360.32 205.624 3348.29 208.17 Q3336.25 210.716 3323.87 210.716 Q3292.85 210.716 3274.68 192.661 Q3256.62 174.606 3256.62 143.819 Q3256.62 111.99 3273.75 93.356 Q3290.99 74.6061 3320.16 74.6061 Q3346.32 74.6061 3361.48 91.5041 Q3376.76 108.286 3376.76 137.221 M3355.46 130.972 Q3355.23 113.495 3345.62 103.078 Q3336.13 92.6615 3320.39 92.6615 Q3302.57 92.6615 3291.81 102.731 Q3281.16 112.8 3279.54 131.087 L3355.46 130.972 Z" fill="#000000" fill-rule="nonzero" fill-opacity="1" /><path clip-path="url(#clip630)" d="M3494.35 81.5505 L3494.35 101.689 Q3485.32 97.0597 3475.6 94.7449 Q3465.88 92.4301 3455.46 92.4301 Q3439.61 92.4301 3431.62 97.2911 Q3423.75 102.152 3423.75 111.874 Q3423.75 119.282 3429.42 123.564 Q3435.09 127.731 3452.22 131.55 L3459.51 133.171 Q3482.2 138.032 3491.69 146.944 Q3501.29 155.74 3501.29 171.596 Q3501.29 189.652 3486.94 200.184 Q3472.71 210.716 3447.71 210.716 Q3437.29 210.716 3425.95 208.633 Q3414.72 206.666 3402.22 202.615 L3402.22 180.624 Q3414.03 186.758 3425.48 189.883 Q3436.94 192.892 3448.17 192.892 Q3463.22 192.892 3471.32 187.8 Q3479.42 182.592 3479.42 173.217 Q3479.42 164.536 3473.52 159.907 Q3467.73 155.277 3447.94 150.995 L3440.53 149.258 Q3420.74 145.092 3411.94 136.527 Q3403.15 127.847 3403.15 112.8 Q3403.15 94.5134 3416.11 84.5597 Q3429.07 74.6061 3452.92 74.6061 Q3464.72 74.6061 3475.14 76.3422 Q3485.55 78.0783 3494.35 81.5505 Z" fill="#000000" fill-rule="nonzero" fill-opacity="1" /><polyline clip-path="url(#clip632)" style="stroke:#009af9; stroke-linecap:round; stroke-linejoin:round; stroke-width:12; stroke-opacity:1; fill:none" points="1023.05,2523.41 1030.03,2523.38 1037.01,2523.33 1043.99,2523.26 1050.97,2523.16 1057.95,2523.04 1064.93,2522.89 1071.91,2522.72 1078.89,2522.52 1085.87,2522.29 1092.85,2522.03 1099.84,2521.75 1106.82,2521.44 1113.8,2521.1 1120.78,2520.73 1127.76,2520.33 1134.74,2519.9 1141.72,2519.43 1148.7,2518.93 1155.68,2518.4 1162.66,2517.83 1169.64,2517.23 1176.63,2516.58 1183.61,2515.91 1190.59,2515.19 1197.57,2514.43 1204.55,2513.64 1211.53,2512.8 1218.51,2511.92 1225.49,2511 1232.47,2510.04 1232.47,2509.04 1239.45,2507.99 1246.43,2506.89 1253.42,2505.74 1260.4,2504.54 1267.38,2503.29 1274.36,2501.99 1281.34,2500.64 1288.32,2499.23 1295.3,2497.77 1302.28,2496.26 1309.26,2494.69 1316.24,2493.07 1323.22,2491.4 1330.21,2489.67 1337.19,2487.88 1344.17,2486.05 1351.15,2484.16 1358.13,2482.21 1365.11,2480.22 1372.09,2478.17 1379.07,2476.07 1386.05,2473.92 1393.03,2471.71 1400.01,2469.46 1407,2467.16 1413.98,2464.81 1420.96,2462.42 1427.94,2459.97 1434.92,2457.48 1441.9,2454.95 1448.88,2452.37 1455.86,2449.76 1462.84,2447.09 1469.82,2444.39 1476.8,2441.65 1483.79,2438.87 1490.77,2436.05 1497.75,2433.19 1504.73,2430.3 1511.71,2427.38 1518.69,2424.42 1525.67,2421.43 1532.65,2418.42 1539.63,2415.37 1546.61,2412.3 1553.59,2409.21 1560.58,2406.1 1567.56,2402.97 1574.54,2399.82 1581.52,2396.66 1588.5,2393.49 1595.48,2390.31 1602.46,2387.13 1609.44,2383.94 1616.42,2380.76 1623.4,2377.58 1630.38,2374.41 1637.37,2371.24 1644.35,2368.09 1651.33,2364.96 1658.31,2361.84 1665.29,2358.74 1672.27,2355.66 1679.25,2352.6 1686.23,2349.58 1693.21,2346.57 1700.19,2343.6 1707.17,2340.66 1714.16,2337.75 1721.14,2334.87 1728.12,2332.02 1735.1,2329.21 1742.08,2326.43 1749.06,2323.69 1756.04,2320.99 1763.02,2318.32 1770,2315.69 1776.98,2313.09 1783.96,2310.53 1790.95,2308.01 1797.93,2305.52 1804.91,2303.07 1811.89,2300.66 1818.87,2298.29 1825.85,2295.95 1832.83,2293.65 1839.81,2291.38 1846.79,2289.15 1853.77,2286.96 1860.75,2284.79 1867.74,2282.67 1874.72,2280.57 1881.7,2278.5 1888.68,2276.46 1895.66,2274.44 1902.64,2272.45 1909.62,2270.47 1916.6,2268.52 1923.58,2266.57 1930.56,2264.63 1937.54,2262.7 1944.53,2260.77 1951.51,2258.83 1958.49,2256.88 1965.47,2254.93 1972.45,2252.96 1979.43,2250.97 1986.41,2248.96 1993.39,2246.92 2000.37,2244.85 2007.35,2242.76 2014.33,2240.62 2021.32,2238.46 2028.3,2236.25 2035.28,2234 2042.26,2231.71 2049.24,2229.38 2056.22,2227 2063.2,2224.58 2070.18,2222.11 2077.16,2219.59 2084.14,2217.03 2091.12,2214.42 2098.11,2211.76 2105.09,2209.05 2112.07,2206.29 2119.05,2203.49 2126.03,2200.63 2133.01,2197.73 2139.99,2194.78 2146.97,2191.78 2153.95,2188.73 2160.93,2185.63 2167.91,2182.48 2174.9,2179.29 2181.88,2176.04 2188.86,2172.75 2195.84,2169.41 2202.82,2166.02 2209.8,2162.59 2216.78,2159.1 2223.76,2155.57 2230.74,2151.99 2237.72,2148.36 2244.7,2144.68 2251.69,2140.96 2258.67,2137.19 2265.65,2133.38 2272.63,2129.52 2279.61,2125.61 2286.59,2121.66 2293.57,2117.67 2300.55,2113.64 2307.53,2109.57 2314.51,2105.47 2321.49,2101.32 2328.48,2097.15 2335.46,2092.94 2342.44,2088.71 2349.42,2084.45 2356.4,2080.17 2363.38,2075.87 2370.36,2071.56 2377.34,2067.24 2384.32,2062.91 2391.3,2058.58 2398.28,2054.24 2405.27,2049.92 2412.25,2045.6 2419.23,2041.29 2426.21,2037 2433.19,2032.73 2440.17,2028.48 2447.15,2024.25 2454.13,2020.05 2461.11,2015.88 2468.09,2011.74 2475.07,2007.63 2482.06,2003.56 2489.04,1999.52 2496.02,1995.51 2503,1991.54 2509.98,1987.61 2516.96,1983.72 2523.94,1979.86 2530.92,1976.03 2537.9,1972.25 2544.88,1968.5 2551.86,1964.79 2558.85,1961.11 2565.83,1957.48 2572.81,1953.88 2579.79,1950.31 2586.77,1946.78 2593.75,1943.29 2600.73,1939.83 2607.71,1936.41 2614.69,1933.02 2621.67,1929.66 2628.65,1926.34 2635.64,1923.04 2642.62,1919.78 2649.6,1916.55 2656.58,1913.34 2663.56,1910.15 2670.54,1906.99 2677.52,1903.85 2684.5,1900.73 2691.48,1897.62 2698.46,1894.52 2705.44,1891.43 2712.43,1888.35 2719.41,1885.27 2726.39,1882.2 2733.37,1879.12 2740.35,1876.04 2747.33,1872.94 2754.31,1869.84 2761.29,1866.72 2768.27,1863.59 2775.25,1860.44 2782.23,1857.26 2789.22,1854.06 2796.2,1850.83 2803.18,1847.57 2810.16,1844.29 2817.14,1840.97 2824.12,1837.62 2831.1,1834.23 2838.08,1830.8 2845.06,1827.34 2852.04,1823.84 2859.02,1820.3 2866.01,1816.71 2872.99,1813.09 2879.97,1809.42 2886.95,1805.71 2893.93,1801.96 2900.91,1798.16 2907.89,1794.31 2914.87,1790.42 2921.85,1786.48 2928.83,1782.49 2935.81,1778.45 2942.8,1774.37 2949.78,1770.23 2956.76,1766.05 2963.74,1761.81 2970.72,1757.52 2977.7,1753.18 2984.68,1748.78 2991.66,1744.34 2998.64,1739.84 3005.62,1735.28 3012.6,1730.68 3019.59,1726.02 3026.57,1721.3 3033.55,1716.53 3040.53,1711.71 3047.51,1706.84 3054.49,1701.92 3061.47,1696.94 3068.45,1691.91 3075.43,1686.84 3082.41,1681.71 3089.39,1676.54 3096.38,1671.32 3103.36,1666.05 3110.34,1660.75 3117.32,1655.4 3124.3,1650.01 3131.28,1644.59 3138.26,1639.14 3145.24,1633.66 3152.22,1628.16 3159.2,1622.64 3166.18,1617.1 3173.17,1611.55 3180.15,1605.99 3187.13,1600.43 3194.11,1594.88 3201.09,1589.33 3208.07,1583.8 3215.05,1578.28 3222.03,1572.78 3229.01,1567.31 3235.99,1561.86 3242.97,1556.44 3249.96,1551.05 3256.94,1545.69 3263.92,1540.37 3270.9,1535.08 3277.88,1529.82 3284.86,1524.6 3291.84,1519.42 3298.82,1514.28 3305.8,1509.17 3312.78,1504.09 3319.76,1499.06 3326.75,1494.06 3333.73,1489.1 3340.71,1484.17 3347.69,1479.28 3354.67,1474.43 3361.65,1469.61 3368.63,1464.82 3375.61,1460.07 3382.59,1455.35 3389.57,1450.66 3396.55,1446 3403.54,1441.36 3410.52,1436.76 3417.5,1432.18 3424.48,1427.62 3431.46,1423.09 3438.44,1418.58 3445.42,1414.09 3452.4,1409.62 3459.38,1405.16 3466.36,1400.72 3473.34,1396.29 3480.33,1391.88 3487.31,1387.47 3494.29,1383.08 3501.27,1378.69 3508.25,1374.31 3515.23,1369.93 3522.21,1365.55 3529.19,1361.18 3536.17,1356.8 3543.15,1352.41 3550.13,1348.02 3557.12,1343.62 3564.1,1339.22 3571.08,1334.8 3578.06,1330.36 3585.04,1325.91 3592.02,1321.44 3599,1316.96 3605.98,1312.45 3612.96,1307.92 3619.94,1303.36 3626.92,1298.78 3633.91,1294.17 3640.89,1289.53 3647.87,1284.86 3654.85,1280.15 3661.83,1275.41 3668.81,1270.64 3675.79,1265.82 3682.77,1260.97 3689.75,1256.07 3696.73,1251.13 3703.71,1246.14 3710.7,1241.11 3717.68,1236.03 3724.66,1230.9 3731.64,1225.71 3738.62,1220.48 3745.6,1215.19 3752.58,1209.85 3759.56,1204.45 3766.54,1199 3773.52,1193.5 3780.5,1187.93 3787.49,1182.32 3794.47,1176.65 3801.45,1170.92 3808.43,1165.14 3815.41,1159.31 3822.39,1153.42 3829.37,1147.48 3836.35,1141.48 3843.33,1135.44 3850.31,1129.34 3857.29,1123.19 3864.28,1116.98 3871.26,1110.73 3878.24,1104.42 3885.22,1098.07 3892.2,1091.66 3899.18,1085.2 3906.16,1078.69 3913.14,1072.12 3920.12,1065.51 3927.1,1058.84 3934.08,1052.12 3941.07,1045.36 3948.05,1038.54 3955.03,1031.68 3962.01,1024.76 3968.99,1017.81 3975.97,1010.82 3982.95,1003.78 3989.93,996.714 3996.91,989.617 4003.89,982.495 4010.87,975.353 4017.86,968.196 4024.84,961.029 4031.82,953.858 4038.8,946.687 4045.78,939.521 4052.76,932.364 4059.74,925.22 4066.72,918.091 4073.7,910.982 4080.68,903.894 4087.66,896.83 4094.65,889.792 4101.63,882.78 4108.61,875.798 4115.59,868.846 4122.57,861.925 4129.55,855.037 4136.53,848.181 4143.51,841.359 4150.49,834.57 4157.47,827.815 4164.45,821.094 4171.44,814.405 4178.42,807.748 4185.4,801.122 4192.38,794.525 4199.36,787.957 4206.34,781.414 4213.32,774.896 4220.3,768.4 4227.28,761.925 4234.26,755.47 4241.24,749.031 4248.23,742.608 4255.21,736.2 4262.19,729.804 4269.17,723.421 4276.15,717.048 4283.13,710.685 4290.11,704.331 4297.09,697.986 4304.07,691.65 4311.05,685.322 4318.03,679.002 4325.02,672.69 4332,666.386 4338.98,660.089 4345.96,653.8 4352.94,647.519 4359.92,641.246 4366.9,634.98 4373.88,628.721 4380.86,622.468 4387.84,616.222 4394.82,609.981 4401.81,603.744 4408.79,597.511 4415.77,591.281 4422.75,585.052 4429.73,578.822 4436.71,572.591 4443.69,566.357 4450.67,560.117 4457.65,553.871 4464.63,547.617 4471.61,541.352 4478.6,535.074 4485.58,528.782 4492.56,522.471 4499.54,516.141 4506.52,509.788 "/>
<polyline clip-path="url(#clip632)" style="stroke:#e26f46; stroke-linecap:round; stroke-linejoin:round; stroke-width:12; stroke-opacity:1; fill:none" points="1023.05,2525.18 1030.03,2525.08 1037.01,2524.87 1043.99,2524.57 1050.97,2524.16 1057.95,2523.65 1064.93,2523.04 1071.91,2522.33 1078.89,2521.51 1085.87,2520.6 1092.85,2519.58 1099.84,2518.46 1106.82,2517.24 1113.8,2515.92 1120.78,2514.49 1127.76,2512.97 1134.74,2511.34 1141.72,2509.61 1148.7,2507.78 1155.68,2505.84 1162.66,2503.81 1169.64,2501.67 1176.63,2499.43 1183.61,2497.09 1190.59,2494.65 1197.57,2492.11 1204.55,2489.46 1211.53,2486.72 1218.51,2483.87 1225.49,2480.92 1232.47,2477.86 1232.47,2474.73 1239.45,2471.57 1246.43,2468.41 1253.42,2465.25 1260.4,2462.1 1267.38,2458.94 1274.36,2455.8 1281.34,2452.67 1288.32,2449.56 1295.3,2446.48 1302.28,2443.42 1309.26,2440.39 1316.24,2437.41 1323.22,2434.47 1330.21,2431.58 1337.19,2428.75 1344.17,2425.98 1351.15,2423.28 1358.13,2420.66 1365.11,2418.11 1372.09,2415.65 1379.07,2413.27 1386.05,2410.98 1393.03,2408.8 1400.01,2406.71 1407,2404.72 1413.98,2402.83 1420.96,2401.06 1427.94,2399.39 1434.92,2397.83 1441.9,2396.39 1448.88,2395.06 1455.86,2393.85 1462.84,2392.76 1469.82,2391.78 1476.8,2390.92 1483.79,2390.18 1490.77,2389.55 1497.75,2389.03 1504.73,2388.63 1511.71,2388.33 1518.69,2388.14 1525.67,2388.04 1532.65,2388.03 1539.63,2388.1 1546.61,2388.24 1553.59,2388.43 1560.58,2388.68 1567.56,2388.95 1574.54,2389.25 1581.52,2389.54 1588.5,2389.83 1595.48,2390.09 1602.46,2390.31 1609.44,2390.48 1616.42,2390.57 1623.4,2390.59 1630.38,2390.51 1637.37,2390.32 1644.35,2390.02 1651.33,2389.6 1658.31,2389.05 1665.29,2388.36 1672.27,2387.53 1679.25,2386.55 1686.23,2385.43 1693.21,2384.16 1700.19,2382.73 1707.17,2381.16 1714.16,2379.44 1721.14,2377.56 1728.12,2375.55 1735.1,2373.39 1742.08,2371.1 1749.06,2368.66 1756.04,2366.1 1763.02,2363.41 1770,2360.6 1776.98,2357.67 1783.96,2354.63 1790.95,2351.47 1797.93,2348.21 1804.91,2344.85 1811.89,2341.39 1818.87,2337.83 1825.85,2334.18 1832.83,2330.45 1839.81,2326.62 1846.79,2322.71 1853.77,2318.73 1860.75,2314.66 1867.74,2310.51 1874.72,2306.29 1881.7,2302 1888.68,2297.64 1895.66,2293.21 1902.64,2288.72 1909.62,2284.16 1916.6,2279.55 1923.58,2274.88 1930.56,2270.16 1937.54,2265.4 1944.53,2260.59 1951.51,2255.75 1958.49,2250.88 1965.47,2245.98 1972.45,2241.06 1979.43,2236.14 1986.41,2231.2 1993.39,2226.27 2000.37,2221.35 2007.35,2216.44 2014.33,2211.56 2021.32,2206.7 2028.3,2201.88 2035.28,2197.1 2042.26,2192.38 2049.24,2187.71 2056.22,2183.09 2063.2,2178.55 2070.18,2174.08 2077.16,2169.68 2084.14,2165.37 2091.12,2161.13 2098.11,2156.99 2105.09,2152.94 2112.07,2148.98 2119.05,2145.11 2126.03,2141.34 2133.01,2137.68 2139.99,2134.11 2146.97,2130.64 2153.95,2127.27 2160.93,2124.01 2167.91,2120.85 2174.9,2117.79 2181.88,2114.84 2188.86,2111.98 2195.84,2109.23 2202.82,2106.59 2209.8,2104.04 2216.78,2101.6 2223.76,2099.25 2230.74,2097 2237.72,2094.85 2244.7,2092.79 2251.69,2090.82 2258.67,2088.94 2265.65,2087.14 2272.63,2085.42 2279.61,2083.78 2286.59,2082.2 2293.57,2080.69 2300.55,2079.23 2307.53,2077.83 2314.51,2076.46 2321.49,2075.14 2328.48,2073.84 2335.46,2072.56 2342.44,2071.29 2349.42,2070.02 2356.4,2068.76 2363.38,2067.48 2370.36,2066.18 2377.34,2064.85 2384.32,2063.49 2391.3,2062.09 2398.28,2060.64 2405.27,2059.14 2412.25,2057.59 2419.23,2055.97 2426.21,2054.28 2433.19,2052.52 2440.17,2050.68 2447.15,2048.77 2454.13,2046.78 2461.11,2044.71 2468.09,2042.55 2475.07,2040.3 2482.06,2037.97 2489.04,2035.54 2496.02,2033.02 2503,2030.41 2509.98,2027.71 2516.96,2024.9 2523.94,2022 2530.92,2019 2537.9,2015.89 2544.88,2012.67 2551.86,2009.34 2558.85,2005.91 2565.83,2002.35 2572.81,1998.68 2579.79,1994.88 2586.77,1990.96 2593.75,1986.91 2600.73,1982.72 2607.71,1978.41 2614.69,1973.95 2621.67,1969.36 2628.65,1964.63 2635.64,1959.75 2642.62,1954.74 2649.6,1949.58 2656.58,1944.29 2663.56,1938.86 2670.54,1933.3 2677.52,1927.61 2684.5,1921.79 2691.48,1915.86 2698.46,1909.83 2705.44,1903.69 2712.43,1897.47 2719.41,1891.17 2726.39,1884.8 2733.37,1878.38 2740.35,1871.92 2747.33,1865.44 2754.31,1858.94 2761.29,1852.45 2768.27,1845.97 2775.25,1839.51 2782.23,1833.1 2789.22,1826.74 2796.2,1820.45 2803.18,1814.23 2810.16,1808.09 2817.14,1802.04 2824.12,1796.09 2831.1,1790.24 2838.08,1784.5 2845.06,1778.87 2852.04,1773.34 2859.02,1767.94 2866.01,1762.64 2872.99,1757.46 2879.97,1752.39 2886.95,1747.44 2893.93,1742.6 2900.91,1737.88 2907.89,1733.26 2914.87,1728.75 2921.85,1724.35 2928.83,1720.06 2935.81,1715.86 2942.8,1711.77 2949.78,1707.77 2956.76,1703.87 2963.74,1700.06 2970.72,1696.34 2977.7,1692.69 2984.68,1689.13 2991.66,1685.64 2998.64,1682.22 3005.62,1678.86 3012.6,1675.57 3019.59,1672.32 3026.57,1669.12 3033.55,1665.97 3040.53,1662.85 3047.51,1659.76 3054.49,1656.7 3061.47,1653.66 3068.45,1650.63 3075.43,1647.62 3082.41,1644.62 3089.39,1641.63 3096.38,1638.64 3103.36,1635.65 3110.34,1632.66 3117.32,1629.67 3124.3,1626.67 3131.28,1623.67 3138.26,1620.66 3145.24,1617.65 3152.22,1614.63 3159.2,1611.61 3166.18,1608.59 3173.17,1605.56 3180.15,1602.53 3187.13,1599.5 3194.11,1596.48 3201.09,1593.45 3208.07,1590.42 3215.05,1587.4 3222.03,1584.37 3229.01,1581.34 3235.99,1578.3 3242.97,1575.26 3249.96,1572.21 3256.94,1569.13 3263.92,1566.04 3270.9,1562.92 3277.88,1559.77 3284.86,1556.58 3291.84,1553.34 3298.82,1550.04 3305.8,1546.67 3312.78,1543.23 3319.76,1539.71 3326.75,1536.09 3333.73,1532.36 3340.71,1528.52 3347.69,1524.55 3354.67,1520.44 3361.65,1516.18 3368.63,1511.77 3375.61,1507.19 3382.59,1502.45 3389.57,1497.52 3396.55,1492.4 3403.54,1487.1 3410.52,1481.6 3417.5,1475.91 3424.48,1470.02 3431.46,1463.93 3438.44,1457.64 3445.42,1451.16 3452.4,1444.49 3459.38,1437.64 3466.36,1430.6 3473.34,1423.39 3480.33,1416.01 3487.31,1408.49 3494.29,1400.82 3501.27,1393.03 3508.25,1385.13 3515.23,1377.14 3522.21,1369.08 3529.19,1360.97 3536.17,1352.83 3543.15,1344.68 3550.13,1336.54 3557.12,1328.43 3564.1,1320.37 3571.08,1312.38 3578.06,1304.47 3585.04,1296.65 3592.02,1288.94 3599,1281.34 3605.98,1273.86 3612.96,1266.51 3619.94,1259.29 3626.92,1252.19 3633.91,1245.23 3640.89,1238.4 3647.87,1231.69 3654.85,1225.12 3661.83,1218.68 3668.81,1212.36 3675.79,1206.16 3682.77,1200.09 3689.75,1194.14 3696.73,1188.3 3703.71,1182.58 3710.7,1176.96 3717.68,1171.45 3724.66,1166.04 3731.64,1160.72 3738.62,1155.49 3745.6,1150.33 3752.58,1145.25 3759.56,1140.24 3766.54,1135.28 3773.52,1130.36 3780.5,1125.48 3787.49,1120.64 3794.47,1115.81 3801.45,1110.99 3808.43,1106.18 3815.41,1101.36 3822.39,1096.52 3829.37,1091.67 3836.35,1086.8 3843.33,1081.89 3850.31,1076.95 3857.29,1071.97 3864.28,1066.95 3871.26,1061.88 3878.24,1056.77 3885.22,1051.61 3892.2,1046.41 3899.18,1041.16 3906.16,1035.86 3913.14,1030.52 3920.12,1025.14 3927.1,1019.73 3934.08,1014.28 3941.07,1008.81 3948.05,1003.31 3955.03,997.807 3962.01,992.296 3968.99,986.79 3975.97,981.297 3982.95,975.828 3989.93,970.393 3996.91,965.003 4003.89,959.665 4010.87,954.39 4017.86,949.186 4024.84,944.058 4031.82,939.011 4038.8,934.05 4045.78,929.177 4052.76,924.391 4059.74,919.692 4066.72,915.078 4073.7,910.545 4080.68,906.088 4087.66,901.702 4094.65,897.379 4101.63,893.112 4108.61,888.891 4115.59,884.705 4122.57,880.541 4129.55,876.386 4136.53,872.223 4143.51,868.036 4150.49,863.804 4157.47,859.51 4164.45,855.133 4171.44,850.651 4178.42,846.047 4185.4,841.3 4192.38,836.394 4199.36,831.313 4206.34,826.044 4213.32,820.575 4220.3,814.898 4227.28,809.005 4234.26,802.891 4241.24,796.551 4248.23,789.983 4255.21,783.186 4262.19,776.158 4269.17,768.899 4276.15,761.411 4283.13,753.694 4290.11,745.75 4297.09,737.582 4304.07,729.193 4311.05,720.589 4318.03,711.776 4325.02,702.762 4332,693.558 4338.98,684.177 4345.96,674.635 4352.94,664.951 4359.92,655.145 4366.9,645.242 4373.88,635.266 4380.86,625.246 4387.84,615.208 4394.82,605.179 4401.81,595.184 4408.79,585.245 4415.77,575.383 4422.75,565.614 4429.73,555.952 4436.71,546.406 4443.69,536.986 4450.67,527.696 4457.65,518.54 4464.63,509.52 4471.61,500.637 4478.6,491.892 4485.58,483.284 4492.56,474.812 4499.54,466.477 4506.52,458.277 "/>
<polyline clip-path="url(#clip632)" style="stroke:#3da44d; stroke-linecap:round; stroke-linejoin:round; stroke-width:12; stroke-opacity:1; fill:none" points="1023.05,2522.15 1030.03,2522 1037.01,2521.69 1043.99,2521.23 1050.97,2520.63 1057.95,2519.87 1064.93,2518.97 1071.91,2517.93 1078.89,2516.75 1085.87,2515.44 1092.85,2513.99 1099.84,2512.42 1106.82,2510.72 1113.8,2508.91 1120.78,2506.99 1127.76,2504.96 1134.74,2502.83 1141.72,2500.61 1148.7,2498.29 1155.68,2495.9 1162.66,2493.42 1169.64,2490.87 1176.63,2488.25 1183.61,2485.56 1190.59,2482.82 1197.57,2480.01 1204.55,2477.15 1211.53,2474.24 1218.51,2471.28 1225.49,2468.27 1232.47,2465.22 1232.47,2462.18 1239.45,2459.3 1246.43,2456.62 1253.42,2454.15 1260.4,2451.88 1267.38,2449.81 1274.36,2447.91 1281.34,2446.19 1288.32,2444.63 1295.3,2443.22 1302.28,2441.95 1309.26,2440.81 1316.24,2439.77 1323.22,2438.84 1330.21,2437.98 1337.19,2437.2 1344.17,2436.47 1351.15,2435.79 1358.13,2435.13 1365.11,2434.48 1372.09,2433.83 1379.07,2433.17 1386.05,2432.48 1393.03,2431.76 1400.01,2430.98 1407,2430.15 1413.98,2429.25 1420.96,2428.27 1427.94,2427.21 1434.92,2426.06 1441.9,2424.81 1448.88,2423.46 1455.86,2422.01 1462.84,2420.45 1469.82,2418.79 1476.8,2417.03 1483.79,2415.16 1490.77,2413.2 1497.75,2411.14 1504.73,2409 1511.71,2406.79 1518.69,2404.52 1525.67,2402.19 1532.65,2399.83 1539.63,2397.45 1546.61,2395.07 1553.59,2392.69 1560.58,2390.35 1567.56,2388.05 1574.54,2385.81 1581.52,2383.65 1588.5,2381.58 1595.48,2379.6 1602.46,2377.74 1609.44,2375.98 1616.42,2374.35 1623.4,2372.83 1630.38,2371.44 1637.37,2370.15 1644.35,2368.98 1651.33,2367.91 1658.31,2366.92 1665.29,2366.02 1672.27,2365.18 1679.25,2364.39 1686.23,2363.63 1693.21,2362.89 1700.19,2362.15 1707.17,2361.39 1714.16,2360.59 1721.14,2359.74 1728.12,2358.82 1735.1,2357.8 1742.08,2356.68 1749.06,2355.44 1756.04,2354.06 1763.02,2352.52 1770,2350.82 1776.98,2348.95 1783.96,2346.88 1790.95,2344.62 1797.93,2342.15 1804.91,2339.47 1811.89,2336.58 1818.87,2333.47 1825.85,2330.14 1832.83,2326.6 1839.81,2322.86 1846.79,2318.91 1853.77,2314.76 1860.75,2310.44 1867.74,2305.95 1874.72,2301.31 1881.7,2296.54 1888.68,2291.65 1895.66,2286.68 1902.64,2281.65 1909.62,2276.57 1916.6,2271.48 1923.58,2266.39 1930.56,2261.34 1937.54,2256.34 1944.53,2251.41 1951.51,2246.57 1958.49,2241.84 1965.47,2237.23 1972.45,2232.75 1979.43,2228.42 1986.41,2224.22 1993.39,2220.18 2000.37,2216.28 2007.35,2212.52 2014.33,2208.91 2021.32,2205.44 2028.3,2202.09 2035.28,2198.86 2042.26,2195.74 2049.24,2192.72 2056.22,2189.78 2063.2,2186.92 2070.18,2184.12 2077.16,2181.36 2084.14,2178.64 2091.12,2175.94 2098.11,2173.25 2105.09,2170.56 2112.07,2167.86 2119.05,2165.14 2126.03,2162.39 2133.01,2159.6 2139.99,2156.77 2146.97,2153.9 2153.95,2150.97 2160.93,2147.99 2167.91,2144.94 2174.9,2141.84 2181.88,2138.69 2188.86,2135.47 2195.84,2132.2 2202.82,2128.88 2209.8,2125.52 2216.78,2122.11 2223.76,2118.67 2230.74,2115.2 2237.72,2111.72 2244.7,2108.23 2251.69,2104.75 2258.67,2101.28 2265.65,2097.83 2272.63,2094.43 2279.61,2091.07 2286.59,2087.79 2293.57,2084.57 2300.55,2081.45 2307.53,2078.43 2314.51,2075.51 2321.49,2072.72 2328.48,2070.05 2335.46,2067.51 2342.44,2065.11 2349.42,2062.85 2356.4,2060.72 2363.38,2058.73 2370.36,2056.87 2377.34,2055.13 2384.32,2053.5 2391.3,2051.96 2398.28,2050.51 2405.27,2049.12 2412.25,2047.78 2419.23,2046.46 2426.21,2045.15 2433.19,2043.81 2440.17,2042.44 2447.15,2041 2454.13,2039.47 2461.11,2037.84 2468.09,2036.08 2475.07,2034.18 2482.06,2032.12 2489.04,2029.89 2496.02,2027.48 2503,2024.87 2509.98,2022.07 2516.96,2019.06 2523.94,2015.85 2530.92,2012.43 2537.9,2008.81 2544.88,2004.98 2551.86,2000.95 2558.85,1996.73 2565.83,1992.33 2572.81,1987.75 2579.79,1983.01 2586.77,1978.12 2593.75,1973.09 2600.73,1967.93 2607.71,1962.67 2614.69,1957.31 2621.67,1951.88 2628.65,1946.38 2635.64,1940.85 2642.62,1935.3 2649.6,1929.74 2656.58,1924.19 2663.56,1918.67 2670.54,1913.2 2677.52,1907.79 2684.5,1902.45 2691.48,1897.2 2698.46,1892.04 2705.44,1886.99 2712.43,1882.05 2719.41,1877.22 2726.39,1872.51 2733.37,1867.91 2740.35,1863.43 2747.33,1859.04 2754.31,1854.76 2761.29,1850.56 2768.27,1846.43 2775.25,1842.37 2782.23,1838.35 2789.22,1834.37 2796.2,1830.4 2803.18,1826.43 2810.16,1822.46 2817.14,1818.45 2824.12,1814.41 2831.1,1810.31 2838.08,1806.15 2845.06,1801.93 2852.04,1797.62 2859.02,1793.23 2866.01,1788.75 2872.99,1784.19 2879.97,1779.53 2886.95,1774.77 2893.93,1769.93 2900.91,1765 2907.89,1759.98 2914.87,1754.88 2921.85,1749.71 2928.83,1744.47 2935.81,1739.17 2942.8,1733.81 2949.78,1728.42 2956.76,1722.99 2963.74,1717.55 2970.72,1712.09 2977.7,1706.64 2984.68,1701.21 2991.66,1695.81 2998.64,1690.45 3005.62,1685.15 3012.6,1679.93 3019.59,1674.79 3026.57,1669.75 3033.55,1664.83 3040.53,1660.04 3047.51,1655.38 3054.49,1650.88 3061.47,1646.55 3068.45,1642.38 3075.43,1638.4 3082.41,1634.62 3089.39,1631.03 3096.38,1627.64 3103.36,1624.47 3110.34,1621.5 3117.32,1618.73 3124.3,1616.17 3131.28,1613.81 3138.26,1611.63 3145.24,1609.62 3152.22,1607.76 3159.2,1606.04 3166.18,1604.41 3173.17,1602.86 3180.15,1601.35 3187.13,1599.85 3194.11,1598.31 3201.09,1596.71 3208.07,1595 3215.05,1593.14 3222.03,1591.12 3229.01,1588.88 3235.99,1586.42 3242.97,1583.7 3249.96,1580.7 3256.94,1577.42 3263.92,1573.84 3270.9,1569.97 3277.88,1565.78 3284.86,1561.3 3291.84,1556.53 3298.82,1551.48 3305.8,1546.15 3312.78,1540.57 3319.76,1534.76 3326.75,1528.74 3333.73,1522.52 3340.71,1516.13 3347.69,1509.59 3354.67,1502.94 3361.65,1496.19 3368.63,1489.37 3375.61,1482.51 3382.59,1475.62 3389.57,1468.72 3396.55,1461.85 3403.54,1455.02 3410.52,1448.25 3417.5,1441.56 3424.48,1434.96 3431.46,1428.47 3438.44,1422.1 3445.42,1415.86 3452.4,1409.78 3459.38,1403.85 3466.36,1398.08 3473.34,1392.48 3480.33,1387.05 3487.31,1381.79 3494.29,1376.7 3501.27,1371.77 3508.25,1366.99 3515.23,1362.34 3522.21,1357.81 3529.19,1353.38 3536.17,1349.02 3543.15,1344.7 3550.13,1340.4 3557.12,1336.08 3564.1,1331.71 3571.08,1327.27 3578.06,1322.73 3585.04,1318.07 3592.02,1313.25 3599,1308.27 3605.98,1303.11 3612.96,1297.75 3619.94,1292.2 3626.92,1286.44 3633.91,1280.47 3640.89,1274.3 3647.87,1267.93 3654.85,1261.37 3661.83,1254.62 3668.81,1247.7 3675.79,1240.62 3682.77,1233.39 3689.75,1226.02 3696.73,1218.53 3703.71,1210.93 3710.7,1203.24 3717.68,1195.48 3724.66,1187.67 3731.64,1179.81 3738.62,1171.94 3745.6,1164.06 3752.58,1156.19 3759.56,1148.35 3766.54,1140.56 3773.52,1132.83 3780.5,1125.17 3787.49,1117.61 3794.47,1110.15 3801.45,1102.8 3808.43,1095.58 3815.41,1088.49 3822.39,1081.55 3829.37,1074.75 3836.35,1068.11 3843.33,1061.64 3850.31,1055.34 3857.29,1049.22 3864.28,1043.27 3871.26,1037.52 3878.24,1031.96 3885.22,1026.6 3892.2,1021.44 3899.18,1016.5 3906.16,1011.78 3913.14,1007.28 3920.12,1003 3927.1,998.965 3934.08,995.161 3941.07,991.592 3948.05,988.256 3955.03,985.147 3962.01,982.253 3968.99,979.558 3975.97,977.042 3982.95,974.677 3989.93,972.429 3996.91,970.258 4003.89,968.121 4010.87,965.968 4017.86,963.749 4024.84,961.413 4031.82,958.906 4038.8,956.181 4045.78,953.191 4052.76,949.895 4059.74,946.259 4066.72,942.253 4073.7,937.853 4080.68,933.044 4087.66,927.813 4094.65,922.158 4101.63,916.079 4108.61,909.585 4115.59,902.69 4122.57,895.413 4129.55,887.78 4136.53,879.821 4143.51,871.571 4150.49,863.07 4157.47,854.36 4164.45,845.484 4171.44,836.487 4178.42,827.412 4185.4,818.3 4192.38,809.19 4199.36,800.115 4206.34,791.106 4213.32,782.19 4220.3,773.389 4227.28,764.721 4234.26,756.201 4241.24,747.843 4248.23,739.656 4255.21,731.651 4262.19,723.836 4269.17,716.216 4276.15,708.8 4283.13,701.594 4290.11,694.602 4297.09,687.831 4304.07,681.285 4311.05,674.967 4318.03,668.879 4325.02,663.018 4332,657.38 4338.98,651.957 4345.96,646.733 4352.94,641.688 4359.92,636.795 4366.9,632.021 4373.88,627.326 4380.86,622.665 4387.84,617.989 4394.82,613.248 4401.81,608.39 4408.79,603.367 4415.77,598.133 4422.75,592.649 4429.73,586.879 4436.71,580.797 4443.69,574.382 4450.67,567.62 4457.65,560.502 4464.63,553.026 4471.61,545.193 4478.6,537.011 4485.58,528.49 4492.56,519.644 4499.54,510.49 4506.52,501.048 "/>
<polyline clip-path="url(#clip632)" style="stroke:#000000; stroke-linecap:round; stroke-linejoin:round; stroke-width:8; stroke-opacity:1; fill:none" points="1023.05,2523.63 1030.03,2523.58 1037.01,2523.48 1043.99,2523.33 1050.97,2523.12 1057.95,2522.87 1064.93,2522.56 1071.91,2522.21 1078.89,2521.8 1085.87,2521.34 1092.85,2520.83 1099.84,2520.26 1106.82,2519.65 1113.8,2518.99 1120.78,2518.27 1127.76,2517.5 1134.74,2516.68 1141.72,2515.81 1148.7,2514.89 1155.68,2513.92 1162.66,2512.89 1169.64,2511.81 1176.63,2510.68 1183.61,2509.5 1190.59,2508.26 1197.57,2506.98 1204.55,2505.63 1211.53,2504.24 1218.51,2502.79 1225.49,2501.29 1232.47,2499.73 1232.47,2498.13 1239.45,2496.5 1246.43,2494.86 1253.42,2493.2 1260.4,2491.53 1267.38,2489.83 1274.36,2488.12 1281.34,2486.39 1288.32,2484.64 1295.3,2482.87 1302.28,2481.08 1309.26,2479.27 1316.24,2477.44 1323.22,2475.59 1330.21,2473.71 1337.19,2471.82 1344.17,2469.9 1351.15,2467.96 1358.13,2466 1365.11,2464.02 1372.09,2462.02 1379.07,2460 1386.05,2457.96 1393.03,2455.89 1400.01,2453.8 1407,2451.7 1413.98,2449.57 1420.96,2447.42 1427.94,2445.26 1434.92,2443.07 1441.9,2440.87 1448.88,2438.64 1455.86,2436.4 1462.84,2434.15 1469.82,2431.87 1476.8,2429.58 1483.79,2427.28 1490.77,2424.96 1497.75,2422.63 1504.73,2420.29 1511.71,2417.94 1518.69,2415.58 1525.67,2413.22 1532.65,2410.84 1539.63,2408.46 1546.61,2406.07 1553.59,2403.68 1560.58,2401.29 1567.56,2398.89 1574.54,2396.5 1581.52,2394.1 1588.5,2391.7 1595.48,2389.29 1602.46,2386.89 1609.44,2384.48 1616.42,2382.08 1623.4,2379.67 1630.38,2377.25 1637.37,2374.84 1644.35,2372.42 1651.33,2370 1658.31,2367.57 1665.29,2365.14 1672.27,2362.7 1679.25,2360.25 1686.23,2357.8 1693.21,2355.34 1700.19,2352.87 1707.17,2350.39 1714.16,2347.9 1721.14,2345.4 1728.12,2342.89 1735.1,2340.37 1742.08,2337.84 1749.06,2335.29 1756.04,2332.74 1763.02,2330.17 1770,2327.58 1776.98,2324.99 1783.96,2322.38 1790.95,2319.76 1797.93,2317.12 1804.91,2314.48 1811.89,2311.82 1818.87,2309.15 1825.85,2306.47 1832.83,2303.77 1839.81,2301.07 1846.79,2298.36 1853.77,2295.64 1860.75,2292.91 1867.74,2290.18 1874.72,2287.44 1881.7,2284.69 1888.68,2281.94 1895.66,2279.19 1902.64,2276.44 1909.62,2273.68 1916.6,2270.92 1923.58,2268.16 1930.56,2265.4 1937.54,2262.64 1944.53,2259.88 1951.51,2257.12 1958.49,2254.35 1965.47,2251.58 1972.45,2248.82 1979.43,2246.04 1986.41,2243.27 1993.39,2240.49 2000.37,2237.7 2007.35,2234.91 2014.33,2232.11 2021.32,2229.3 2028.3,2226.48 2035.28,2223.66 2042.26,2220.82 2049.24,2217.97 2056.22,2215.11 2063.2,2212.24 2070.18,2209.35 2077.16,2206.45 2084.14,2203.53 2091.12,2200.6 2098.11,2197.65 2105.09,2194.68 2112.07,2191.69 2119.05,2188.69 2126.03,2185.67 2133.01,2182.63 2139.99,2179.57 2146.97,2176.49 2153.95,2173.39 2160.93,2170.27 2167.91,2167.13 2174.9,2163.97 2181.88,2160.79 2188.86,2157.59 2195.84,2154.37 2202.82,2151.13 2209.8,2147.87 2216.78,2144.6 2223.76,2141.3 2230.74,2137.99 2237.72,2134.66 2244.7,2131.32 2251.69,2127.95 2258.67,2124.58 2265.65,2121.19 2272.63,2117.78 2279.61,2114.37 2286.59,2110.94 2293.57,2107.5 2300.55,2104.05 2307.53,2100.59 2314.51,2097.12 2321.49,2093.65 2328.48,2090.17 2335.46,2086.68 2342.44,2083.19 2349.42,2079.69 2356.4,2076.19 2363.38,2072.69 2370.36,2069.18 2377.34,2065.67 2384.32,2062.16 2391.3,2058.65 2398.28,2055.14 2405.27,2051.63 2412.25,2048.12 2419.23,2044.6 2426.21,2041.09 2433.19,2037.57 2440.17,2034.05 2447.15,2030.52 2454.13,2026.99 2461.11,2023.46 2468.09,2019.92 2475.07,2016.37 2482.06,2012.82 2489.04,2009.26 2496.02,2005.69 2503,2002.11 2509.98,1998.51 2516.96,1994.91 2523.94,1991.3 2530.92,1987.67 2537.9,1984.03 2544.88,1980.38 2551.86,1976.71 2558.85,1973.03 2565.83,1969.34 2572.81,1965.64 2579.79,1961.92 2586.77,1958.19 2593.75,1954.45 2600.73,1950.7 2607.71,1946.93 2614.69,1943.16 2621.67,1939.37 2628.65,1935.58 2635.64,1931.78 2642.62,1927.96 2649.6,1924.15 2656.58,1920.32 2663.56,1916.49 2670.54,1912.65 2677.52,1908.81 2684.5,1904.96 2691.48,1901.11 2698.46,1897.26 2705.44,1893.4 2712.43,1889.54 2719.41,1885.68 2726.39,1881.82 2733.37,1877.96 2740.35,1874.09 2747.33,1870.23 2754.31,1866.36 2761.29,1862.49 2768.27,1858.61 2775.25,1854.74 2782.23,1850.86 2789.22,1846.98 2796.2,1843.09 2803.18,1839.19 2810.16,1835.29 2817.14,1831.38 2824.12,1827.46 2831.1,1823.53 2838.08,1819.59 2845.06,1815.64 2852.04,1811.67 2859.02,1807.69 2866.01,1803.7 2872.99,1799.69 2879.97,1795.66 2886.95,1791.61 2893.93,1787.55 2900.91,1783.46 2907.89,1779.36 2914.87,1775.24 2921.85,1771.1 2928.83,1766.94 2935.81,1762.76 2942.8,1758.55 2949.78,1754.33 2956.76,1750.09 2963.74,1745.82 2970.72,1741.53 2977.7,1737.23 2984.68,1732.9 2991.66,1728.55 2998.64,1724.18 3005.62,1719.79 3012.6,1715.38 3019.59,1710.95 3026.57,1706.5 3033.55,1702.03 3040.53,1697.54 3047.51,1693.04 3054.49,1688.51 3061.47,1683.97 3068.45,1679.41 3075.43,1674.83 3082.41,1670.24 3089.39,1665.63 3096.38,1661.01 3103.36,1656.38 3110.34,1651.73 3117.32,1647.08 3124.3,1642.41 3131.28,1637.74 3138.26,1633.06 3145.24,1628.37 3152.22,1623.68 3159.2,1618.99 3166.18,1614.29 3173.17,1609.6 3180.15,1604.9 3187.13,1600.2 3194.11,1595.5 3201.09,1590.8 3208.07,1586.1 3215.05,1581.4 3222.03,1576.7 3229.01,1571.99 3235.99,1567.28 3242.97,1562.57 3249.96,1557.85 3256.94,1553.12 3263.92,1548.39 3270.9,1543.65 3277.88,1538.9 3284.86,1534.14 3291.84,1529.37 3298.82,1524.59 3305.8,1519.8 3312.78,1515 3319.76,1510.18 3326.75,1505.36 3333.73,1500.52 3340.71,1495.67 3347.69,1490.81 3354.67,1485.93 3361.65,1481.05 3368.63,1476.15 3375.61,1471.24 3382.59,1466.31 3389.57,1461.38 3396.55,1456.43 3403.54,1451.46 3410.52,1446.49 3417.5,1441.5 3424.48,1436.5 3431.46,1431.49 3438.44,1426.47 3445.42,1421.43 3452.4,1416.39 3459.38,1411.33 3466.36,1406.27 3473.34,1401.19 3480.33,1396.11 3487.31,1391.03 3494.29,1385.93 3501.27,1380.84 3508.25,1375.74 3515.23,1370.64 3522.21,1365.53 3529.19,1360.43 3536.17,1355.32 3543.15,1350.21 3550.13,1345.1 3557.12,1339.99 3564.1,1334.88 3571.08,1329.77 3578.06,1324.65 3585.04,1319.53 3592.02,1314.4 3599,1309.27 3605.98,1304.13 3612.96,1298.97 3619.94,1293.81 3626.92,1288.63 3633.91,1283.44 3640.89,1278.24 3647.87,1273.02 3654.85,1267.78 3661.83,1262.53 3668.81,1257.26 3675.79,1251.97 3682.77,1246.67 3689.75,1241.34 3696.73,1235.99 3703.71,1230.63 3710.7,1225.24 3717.68,1219.83 3724.66,1214.4 3731.64,1208.95 3738.62,1203.47 3745.6,1197.97 3752.58,1192.45 3759.56,1186.91 3766.54,1181.34 3773.52,1175.74 3780.5,1170.13 3787.49,1164.48 3794.47,1158.81 3801.45,1153.11 3808.43,1147.39 3815.41,1141.63 3822.39,1135.86 3829.37,1130.05 3836.35,1124.21 3843.33,1118.35 3850.31,1112.45 3857.29,1106.53 3864.28,1100.58 3871.26,1094.6 3878.24,1088.6 3885.22,1082.56 3892.2,1076.5 3899.18,1070.41 3906.16,1064.3 3913.14,1058.16 3920.12,1052 3927.1,1045.81 3934.08,1039.61 3941.07,1033.38 3948.05,1027.14 3955.03,1020.88 3962.01,1014.61 3968.99,1008.32 3975.97,1002.02 3982.95,995.718 3989.93,989.406 3996.91,983.088 4003.89,976.765 4010.87,970.439 4017.86,964.11 4024.84,957.778 4031.82,951.443 4038.8,945.105 4045.78,938.763 4052.76,932.417 4059.74,926.066 4066.72,919.708 4073.7,913.345 4080.68,906.974 4087.66,900.595 4094.65,894.209 4101.63,887.814 4108.61,881.411 4115.59,874.999 4122.57,868.58 4129.55,862.153 4136.53,855.718 4143.51,849.276 4150.49,842.827 4157.47,836.37 4164.45,829.906 4171.44,823.435 4178.42,816.955 4185.4,810.467 4192.38,803.969 4199.36,797.46 4206.34,790.939 4213.32,784.406 4220.3,777.859 4227.28,771.297 4234.26,764.719 4241.24,758.125 4248.23,751.513 4255.21,744.884 4262.19,738.237 4269.17,731.571 4276.15,724.887 4283.13,718.185 4290.11,711.466 4297.09,704.729 4304.07,697.976 4311.05,691.208 4318.03,684.427 4325.02,677.632 4332,670.827 4338.98,664.013 4345.96,657.191 4352.94,650.364 4359.92,643.532 4366.9,636.697 4373.88,629.861 4380.86,623.024 4387.84,616.187 4394.82,609.349 4401.81,602.51 4408.79,595.669 4415.77,588.826 4422.75,581.979 4429.73,575.127 4436.71,568.268 4443.69,561.4 4450.67,554.522 4457.65,547.634 4464.63,540.732 4471.61,533.818 4478.6,526.889 4485.58,519.945 4492.56,512.985 4499.54,506.009 4506.52,499.017 "/>
<polyline clip-path="url(#clip632)" style="stroke:#ff0000; stroke-linecap:round; stroke-linejoin:round; stroke-width:8; stroke-opacity:1; fill:none" stroke-dasharray="32, 20" points="1023.05,2580.95 1030.03,2580.9 1037.01,2580.8 1043.99,2580.64 1050.97,2580.44 1057.95,2580.18 1064.93,2579.88 1071.91,2579.52 1078.89,2579.11 1085.87,2578.65 1092.85,2578.14 1099.84,2577.58 1106.82,2576.97 1113.8,2576.3 1120.78,2575.59 1127.76,2574.82 1134.74,2574 1141.72,2573.13 1148.7,2572.21 1155.68,2571.23 1162.66,2570.21 1169.64,2569.13 1176.63,2568 1183.61,2566.82 1190.59,2565.58 1197.57,2564.29 1204.55,2562.95 1211.53,2561.55 1218.51,2560.1 1225.49,2558.6 1232.47,2557.04 1232.47,2555.44 1239.45,2553.82 1246.43,2552.18 1253.42,2550.52 1260.4,2548.84 1267.38,2547.15 1274.36,2545.44 1281.34,2543.71 1288.32,2541.96 1295.3,2540.19 1302.28,2538.4 1309.26,2536.59 1316.24,2534.75 1323.22,2532.9 1330.21,2531.03 1337.19,2529.13 1344.17,2527.22 1351.15,2525.28 1358.13,2523.32 1365.11,2521.34 1372.09,2519.34 1379.07,2517.31 1386.05,2515.27 1393.03,2513.21 1400.01,2511.12 1407,2509.01 1413.98,2506.89 1420.96,2504.74 1427.94,2502.57 1434.92,2500.39 1441.9,2498.18 1448.88,2495.96 1455.86,2493.72 1462.84,2491.46 1469.82,2489.19 1476.8,2486.9 1483.79,2484.6 1490.77,2482.28 1497.75,2479.95 1504.73,2477.61 1511.71,2475.26 1518.69,2472.9 1525.67,2470.53 1532.65,2468.16 1539.63,2465.77 1546.61,2463.39 1553.59,2461 1560.58,2458.61 1567.56,2456.21 1574.54,2453.81 1581.52,2451.41 1588.5,2449.01 1595.48,2446.61 1602.46,2444.2 1609.44,2441.8 1616.42,2439.39 1623.4,2436.98 1630.38,2434.57 1637.37,2432.15 1644.35,2429.74 1651.33,2427.31 1658.31,2424.88 1665.29,2422.45 1672.27,2420.01 1679.25,2417.57 1686.23,2415.11 1693.21,2412.65 1700.19,2410.18 1707.17,2407.7 1714.16,2405.22 1721.14,2402.72 1728.12,2400.21 1735.1,2397.69 1742.08,2395.15 1749.06,2392.61 1756.04,2390.05 1763.02,2387.48 1770,2384.9 1776.98,2382.3 1783.96,2379.7 1790.95,2377.07 1797.93,2374.44 1804.91,2371.79 1811.89,2369.13 1818.87,2366.46 1825.85,2363.78 1832.83,2361.09 1839.81,2358.39 1846.79,2355.68 1853.77,2352.96 1860.75,2350.23 1867.74,2347.49 1874.72,2344.75 1881.7,2342.01 1888.68,2339.26 1895.66,2336.51 1902.64,2333.75 1909.62,2331 1916.6,2328.24 1923.58,2325.48 1930.56,2322.72 1937.54,2319.96 1944.53,2317.19 1951.51,2314.43 1958.49,2311.67 1965.47,2308.9 1972.45,2306.13 1979.43,2303.36 1986.41,2300.58 1993.39,2297.8 2000.37,2295.01 2007.35,2292.22 2014.33,2289.42 2021.32,2286.61 2028.3,2283.8 2035.28,2280.97 2042.26,2278.13 2049.24,2275.29 2056.22,2272.43 2063.2,2269.55 2070.18,2266.66 2077.16,2263.76 2084.14,2260.84 2091.12,2257.91 2098.11,2254.96 2105.09,2251.99 2112.07,2249.01 2119.05,2246.01 2126.03,2242.98 2133.01,2239.94 2139.99,2236.88 2146.97,2233.8 2153.95,2230.7 2160.93,2227.58 2167.91,2224.44 2174.9,2221.28 2181.88,2218.1 2188.86,2214.9 2195.84,2211.69 2202.82,2208.45 2209.8,2205.19 2216.78,2201.91 2223.76,2198.62 2230.74,2195.31 2237.72,2191.98 2244.7,2188.63 2251.69,2185.27 2258.67,2181.89 2265.65,2178.5 2272.63,2175.1 2279.61,2171.68 2286.59,2168.25 2293.57,2164.81 2300.55,2161.36 2307.53,2157.9 2314.51,2154.44 2321.49,2150.96 2328.48,2147.48 2335.46,2143.99 2342.44,2140.5 2349.42,2137 2356.4,2133.5 2363.38,2130 2370.36,2126.5 2377.34,2122.99 2384.32,2119.48 2391.3,2115.97 2398.28,2112.46 2405.27,2108.95 2412.25,2105.43 2419.23,2101.92 2426.21,2098.4 2433.19,2094.88 2440.17,2091.36 2447.15,2087.84 2454.13,2084.31 2461.11,2080.78 2468.09,2077.24 2475.07,2073.69 2482.06,2070.14 2489.04,2066.57 2496.02,2063 2503,2059.42 2509.98,2055.83 2516.96,2052.23 2523.94,2048.61 2530.92,2044.98 2537.9,2041.34 2544.88,2037.69 2551.86,2034.03 2558.85,2030.35 2565.83,2026.66 2572.81,2022.95 2579.79,2019.23 2586.77,2015.51 2593.75,2011.76 2600.73,2008.01 2607.71,2004.25 2614.69,2000.47 2621.67,1996.69 2628.65,1992.89 2635.64,1989.09 2642.62,1985.28 2649.6,1981.46 2656.58,1977.63 2663.56,1973.8 2670.54,1969.97 2677.52,1966.12 2684.5,1962.28 2691.48,1958.43 2698.46,1954.57 2705.44,1950.72 2712.43,1946.86 2719.41,1943 2726.39,1939.14 2733.37,1935.27 2740.35,1931.41 2747.33,1927.54 2754.31,1923.67 2761.29,1919.8 2768.27,1915.93 2775.25,1912.05 2782.23,1908.17 2789.22,1904.29 2796.2,1900.4 2803.18,1896.51 2810.16,1892.61 2817.14,1888.7 2824.12,1884.78 2831.1,1880.85 2838.08,1876.91 2845.06,1872.95 2852.04,1868.99 2859.02,1865.01 2866.01,1861.01 2872.99,1857 2879.97,1852.97 2886.95,1848.93 2893.93,1844.86 2900.91,1840.78 2907.89,1836.68 2914.87,1832.56 2921.85,1828.41 2928.83,1824.25 2935.81,1820.07 2942.8,1815.87 2949.78,1811.65 2956.76,1807.4 2963.74,1803.14 2970.72,1798.85 2977.7,1794.54 2984.68,1790.21 2991.66,1785.87 2998.64,1781.5 3005.62,1777.11 3012.6,1772.7 3019.59,1768.27 3026.57,1763.82 3033.55,1759.35 3040.53,1754.86 3047.51,1750.35 3054.49,1745.83 3061.47,1741.28 3068.45,1736.72 3075.43,1732.15 3082.41,1727.56 3089.39,1722.95 3096.38,1718.33 3103.36,1713.69 3110.34,1709.05 3117.32,1704.39 3124.3,1699.73 3131.28,1695.05 3138.26,1690.37 3145.24,1685.69 3152.22,1681 3159.2,1676.3 3166.18,1671.61 3173.17,1666.91 3180.15,1662.21 3187.13,1657.51 3194.11,1652.81 3201.09,1648.12 3208.07,1643.42 3215.05,1638.71 3222.03,1634.01 3229.01,1629.31 3235.99,1624.6 3242.97,1619.88 3249.96,1615.16 3256.94,1610.44 3263.92,1605.7 3270.9,1600.96 3277.88,1596.21 3284.86,1591.45 3291.84,1586.68 3298.82,1581.9 3305.8,1577.11 3312.78,1572.31 3319.76,1567.5 3326.75,1562.67 3333.73,1557.83 3340.71,1552.98 3347.69,1548.12 3354.67,1543.25 3361.65,1538.36 3368.63,1533.46 3375.61,1528.55 3382.59,1523.63 3389.57,1518.69 3396.55,1513.74 3403.54,1508.78 3410.52,1503.8 3417.5,1498.82 3424.48,1493.82 3431.46,1488.8 3438.44,1483.78 3445.42,1478.75 3452.4,1473.7 3459.38,1468.65 3466.36,1463.58 3473.34,1458.51 3480.33,1453.43 3487.31,1448.34 3494.29,1443.25 3501.27,1438.15 3508.25,1433.05 3515.23,1427.95 3522.21,1422.85 3529.19,1417.74 3536.17,1412.63 3543.15,1407.53 3550.13,1402.42 3557.12,1397.31 3564.1,1392.2 3571.08,1387.08 3578.06,1381.97 3585.04,1376.85 3592.02,1371.72 3599,1366.58 3605.98,1361.44 3612.96,1356.29 3619.94,1351.12 3626.92,1345.95 3633.91,1340.76 3640.89,1335.55 3647.87,1330.34 3654.85,1325.1 3661.83,1319.85 3668.81,1314.58 3675.79,1309.29 3682.77,1303.98 3689.75,1298.66 3696.73,1293.31 3703.71,1287.94 3710.7,1282.56 3717.68,1277.15 3724.66,1271.72 3731.64,1266.26 3738.62,1260.79 3745.6,1255.29 3752.58,1249.77 3759.56,1244.22 3766.54,1238.65 3773.52,1233.06 3780.5,1227.44 3787.49,1221.8 3794.47,1216.12 3801.45,1210.43 3808.43,1204.7 3815.41,1198.95 3822.39,1193.17 3829.37,1187.36 3836.35,1181.53 3843.33,1175.66 3850.31,1169.77 3857.29,1163.85 3864.28,1157.9 3871.26,1151.92 3878.24,1145.91 3885.22,1139.88 3892.2,1133.82 3899.18,1127.73 3906.16,1121.61 3913.14,1115.48 3920.12,1109.31 3927.1,1103.13 3934.08,1096.92 3941.07,1090.7 3948.05,1084.45 3955.03,1078.19 3962.01,1071.92 3968.99,1065.63 3975.97,1059.34 3982.95,1053.03 3989.93,1046.72 3996.91,1040.4 4003.89,1034.08 4010.87,1027.75 4017.86,1021.43 4024.84,1015.09 4031.82,1008.76 4038.8,1002.42 4045.78,996.078 4052.76,989.732 4059.74,983.381 4066.72,977.024 4073.7,970.66 4080.68,964.289 4087.66,957.91 4094.65,951.524 4101.63,945.129 4108.61,938.726 4115.59,932.315 4122.57,925.895 4129.55,919.468 4136.53,913.033 4143.51,906.591 4150.49,900.142 4157.47,893.686 4164.45,887.222 4171.44,880.75 4178.42,874.271 4185.4,867.782 4192.38,861.284 4199.36,854.775 4206.34,848.254 4213.32,841.721 4220.3,835.174 4227.28,828.612 4234.26,822.034 4241.24,815.44 4248.23,808.829 4255.21,802.199 4262.19,795.552 4269.17,788.886 4276.15,782.203 4283.13,775.501 4290.11,768.781 4297.09,762.044 4304.07,755.291 4311.05,748.524 4318.03,741.742 4325.02,734.948 4332,728.143 4338.98,721.328 4345.96,714.506 4352.94,707.679 4359.92,700.847 4366.9,694.013 4373.88,687.176 4380.86,680.339 4387.84,673.502 4394.82,666.664 4401.81,659.825 4408.79,652.985 4415.77,646.142 4422.75,639.295 4429.73,632.442 4436.71,625.583 4443.69,618.715 4450.67,611.838 4457.65,604.949 4464.63,598.048 4471.61,591.133 4478.6,584.204 4485.58,577.26 4492.56,570.3 4499.54,563.324 4506.52,556.332 "/>
<polyline clip-path="url(#clip632)" style="stroke:#ff0000; stroke-linecap:round; stroke-linejoin:round; stroke-width:8; stroke-opacity:1; fill:none" stroke-dasharray="32, 20" points="1023.05,2466.32 1030.03,2466.27 1037.01,2466.17 1043.99,2466.01 1050.97,2465.81 1057.95,2465.55 1064.93,2465.25 1071.91,2464.89 1078.89,2464.48 1085.87,2464.02 1092.85,2463.51 1099.84,2462.95 1106.82,2462.34 1113.8,2461.67 1120.78,2460.96 1127.76,2460.19 1134.74,2459.37 1141.72,2458.5 1148.7,2457.58 1155.68,2456.6 1162.66,2455.58 1169.64,2454.5 1176.63,2453.37 1183.61,2452.18 1190.59,2450.95 1197.57,2449.66 1204.55,2448.32 1211.53,2446.92 1218.51,2445.47 1225.49,2443.97 1232.47,2442.41 1232.47,2440.81 1239.45,2439.19 1246.43,2437.55 1253.42,2435.89 1260.4,2434.21 1267.38,2432.52 1274.36,2430.81 1281.34,2429.08 1288.32,2427.33 1295.3,2425.56 1302.28,2423.77 1309.26,2421.96 1316.24,2420.12 1323.22,2418.27 1330.21,2416.4 1337.19,2414.5 1344.17,2412.59 1351.15,2410.65 1358.13,2408.69 1365.11,2406.71 1372.09,2404.71 1379.07,2402.68 1386.05,2400.64 1393.03,2398.58 1400.01,2396.49 1407,2394.38 1413.98,2392.26 1420.96,2390.11 1427.94,2387.94 1434.92,2385.76 1441.9,2383.55 1448.88,2381.33 1455.86,2379.09 1462.84,2376.83 1469.82,2374.56 1476.8,2372.27 1483.79,2369.96 1490.77,2367.65 1497.75,2365.32 1504.73,2362.98 1511.71,2360.63 1518.69,2358.27 1525.67,2355.9 1532.65,2353.52 1539.63,2351.14 1546.61,2348.76 1553.59,2346.37 1560.58,2343.98 1567.56,2341.58 1574.54,2339.18 1581.52,2336.78 1588.5,2334.38 1595.48,2331.98 1602.46,2329.57 1609.44,2327.17 1616.42,2324.76 1623.4,2322.35 1630.38,2319.94 1637.37,2317.52 1644.35,2315.11 1651.33,2312.68 1658.31,2310.25 1665.29,2307.82 1672.27,2305.38 1679.25,2302.94 1686.23,2300.48 1693.21,2298.02 1700.19,2295.55 1707.17,2293.07 1714.16,2290.58 1721.14,2288.09 1728.12,2285.58 1735.1,2283.06 1742.08,2280.52 1749.06,2277.98 1756.04,2275.42 1763.02,2272.85 1770,2270.27 1776.98,2267.67 1783.96,2265.06 1790.95,2262.44 1797.93,2259.81 1804.91,2257.16 1811.89,2254.5 1818.87,2251.83 1825.85,2249.15 1832.83,2246.46 1839.81,2243.76 1846.79,2241.05 1853.77,2238.33 1860.75,2235.6 1867.74,2232.86 1874.72,2230.12 1881.7,2227.38 1888.68,2224.63 1895.66,2221.88 1902.64,2219.12 1909.62,2216.37 1916.6,2213.61 1923.58,2210.85 1930.56,2208.09 1937.54,2205.33 1944.53,2202.56 1951.51,2199.8 1958.49,2197.04 1965.47,2194.27 1972.45,2191.5 1979.43,2188.73 1986.41,2185.95 1993.39,2183.17 2000.37,2180.38 2007.35,2177.59 2014.33,2174.79 2021.32,2171.98 2028.3,2169.17 2035.28,2166.34 2042.26,2163.5 2049.24,2160.66 2056.22,2157.8 2063.2,2154.92 2070.18,2152.03 2077.16,2149.13 2084.14,2146.21 2091.12,2143.28 2098.11,2140.33 2105.09,2137.36 2112.07,2134.38 2119.05,2131.38 2126.03,2128.35 2133.01,2125.31 2139.99,2122.25 2146.97,2119.17 2153.95,2116.07 2160.93,2112.95 2167.91,2109.81 2174.9,2106.65 2181.88,2103.47 2188.86,2100.27 2195.84,2097.05 2202.82,2093.82 2209.8,2090.56 2216.78,2087.28 2223.76,2083.99 2230.74,2080.67 2237.72,2077.35 2244.7,2074 2251.69,2070.64 2258.67,2067.26 2265.65,2063.87 2272.63,2060.47 2279.61,2057.05 2286.59,2053.62 2293.57,2050.18 2300.55,2046.73 2307.53,2043.27 2314.51,2039.81 2321.49,2036.33 2328.48,2032.85 2335.46,2029.36 2342.44,2025.87 2349.42,2022.37 2356.4,2018.87 2363.38,2015.37 2370.36,2011.87 2377.34,2008.36 2384.32,2004.85 2391.3,2001.34 2398.28,1997.83 2405.27,1994.32 2412.25,1990.8 2419.23,1987.29 2426.21,1983.77 2433.19,1980.25 2440.17,1976.73 2447.15,1973.21 2454.13,1969.68 2461.11,1966.15 2468.09,1962.61 2475.07,1959.06 2482.06,1955.51 2489.04,1951.94 2496.02,1948.37 2503,1944.79 2509.98,1941.2 2516.96,1937.6 2523.94,1933.98 2530.92,1930.35 2537.9,1926.71 2544.88,1923.06 2551.86,1919.4 2558.85,1915.72 2565.83,1912.03 2572.81,1908.32 2579.79,1904.6 2586.77,1900.87 2593.75,1897.13 2600.73,1893.38 2607.71,1889.62 2614.69,1885.84 2621.67,1882.06 2628.65,1878.26 2635.64,1874.46 2642.62,1870.65 2649.6,1866.83 2656.58,1863 2663.56,1859.17 2670.54,1855.34 2677.52,1851.49 2684.5,1847.65 2691.48,1843.8 2698.46,1839.94 2705.44,1836.09 2712.43,1832.23 2719.41,1828.37 2726.39,1824.51 2733.37,1820.64 2740.35,1816.78 2747.33,1812.91 2754.31,1809.04 2761.29,1805.17 2768.27,1801.3 2775.25,1797.42 2782.23,1793.54 2789.22,1789.66 2796.2,1785.77 2803.18,1781.88 2810.16,1777.98 2817.14,1774.07 2824.12,1770.15 2831.1,1766.22 2838.08,1762.28 2845.06,1758.32 2852.04,1754.36 2859.02,1750.38 2866.01,1746.38 2872.99,1742.37 2879.97,1738.34 2886.95,1734.3 2893.93,1730.23 2900.91,1726.15 2907.89,1722.05 2914.87,1717.93 2921.85,1713.78 2928.83,1709.62 2935.81,1705.44 2942.8,1701.24 2949.78,1697.01 2956.76,1692.77 2963.74,1688.51 2970.72,1684.22 2977.7,1679.91 2984.68,1675.58 2991.66,1671.24 2998.64,1666.87 3005.62,1662.48 3012.6,1658.07 3019.59,1653.64 3026.57,1649.19 3033.55,1644.72 3040.53,1640.23 3047.51,1635.72 3054.49,1631.2 3061.47,1626.65 3068.45,1622.09 3075.43,1617.52 3082.41,1612.93 3089.39,1608.32 3096.38,1603.7 3103.36,1599.06 3110.34,1594.42 3117.32,1589.76 3124.3,1585.1 3131.28,1580.42 3138.26,1575.74 3145.24,1571.06 3152.22,1566.37 3159.2,1561.67 3166.18,1556.98 3173.17,1552.28 3180.15,1547.58 3187.13,1542.88 3194.11,1538.18 3201.09,1533.49 3208.07,1528.78 3215.05,1524.08 3222.03,1519.38 3229.01,1514.67 3235.99,1509.97 3242.97,1505.25 3249.96,1500.53 3256.94,1495.81 3263.92,1491.07 3270.9,1486.33 3277.88,1481.58 3284.86,1476.82 3291.84,1472.05 3298.82,1467.27 3305.8,1462.48 3312.78,1457.68 3319.76,1452.87 3326.75,1448.04 3333.73,1443.2 3340.71,1438.35 3347.69,1433.49 3354.67,1428.62 3361.65,1423.73 3368.63,1418.83 3375.61,1413.92 3382.59,1409 3389.57,1404.06 3396.55,1399.11 3403.54,1394.15 3410.52,1389.17 3417.5,1384.19 3424.48,1379.19 3431.46,1374.17 3438.44,1369.15 3445.42,1364.12 3452.4,1359.07 3459.38,1354.02 3466.36,1348.95 3473.34,1343.88 3480.33,1338.8 3487.31,1333.71 3494.29,1328.62 3501.27,1323.52 3508.25,1318.42 3515.23,1313.32 3522.21,1308.22 3529.19,1303.11 3536.17,1298 3543.15,1292.9 3550.13,1287.79 3557.12,1282.68 3564.1,1277.57 3571.08,1272.45 3578.06,1267.34 3585.04,1262.22 3592.02,1257.09 3599,1251.95 3605.98,1246.81 3612.96,1241.66 3619.94,1236.49 3626.92,1231.32 3633.91,1226.13 3640.89,1220.92 3647.87,1215.7 3654.85,1210.47 3661.83,1205.22 3668.81,1199.95 3675.79,1194.66 3682.77,1189.35 3689.75,1184.03 3696.73,1178.68 3703.71,1173.31 3710.7,1167.92 3717.68,1162.52 3724.66,1157.09 3731.64,1151.63 3738.62,1146.16 3745.6,1140.66 3752.58,1135.14 3759.56,1129.59 3766.54,1124.02 3773.52,1118.43 3780.5,1112.81 3787.49,1107.16 3794.47,1101.49 3801.45,1095.8 3808.43,1090.07 3815.41,1084.32 3822.39,1078.54 3829.37,1072.73 3836.35,1066.9 3843.33,1061.03 3850.31,1055.14 3857.29,1049.22 3864.28,1043.27 3871.26,1037.29 3878.24,1031.28 3885.22,1025.25 3892.2,1019.19 3899.18,1013.1 3906.16,1006.98 3913.14,1000.84 3920.12,994.682 3927.1,988.498 3934.08,982.292 3941.07,976.066 3948.05,969.823 3955.03,963.564 3962.01,957.29 3968.99,951.004 3975.97,944.708 3982.95,938.403 3989.93,932.09 3996.91,925.772 4003.89,919.45 4010.87,913.124 4017.86,906.795 4024.84,900.463 4031.82,894.128 4038.8,887.79 4045.78,881.448 4052.76,875.102 4059.74,868.75 4066.72,862.393 4073.7,856.029 4080.68,849.659 4087.66,843.28 4094.65,836.893 4101.63,830.499 4108.61,824.095 4115.59,817.684 4122.57,811.265 4129.55,804.838 4136.53,798.403 4143.51,791.961 4150.49,785.512 4157.47,779.055 4164.45,772.591 4171.44,766.12 4178.42,759.64 4185.4,753.152 4192.38,746.653 4199.36,740.145 4206.34,733.624 4213.32,727.091 4220.3,720.544 4227.28,713.982 4234.26,707.404 4241.24,700.81 4248.23,694.198 4255.21,687.569 4262.19,680.922 4269.17,674.256 4276.15,667.572 4283.13,660.87 4290.11,654.15 4297.09,647.414 4304.07,640.661 4311.05,633.893 4318.03,627.111 4325.02,620.317 4332,613.512 4338.98,606.698 4345.96,599.876 4352.94,593.048 4359.92,586.217 4366.9,579.382 4373.88,572.546 4380.86,565.709 4387.84,558.871 4394.82,552.033 4401.81,545.195 4408.79,538.354 4415.77,531.511 4422.75,524.664 4429.73,517.812 4436.71,510.953 4443.69,504.085 4450.67,497.207 4457.65,490.318 4464.63,483.417 4471.61,476.502 4478.6,469.573 4485.58,462.629 4492.56,455.67 4499.54,448.694 4506.52,441.702 "/>
<polyline clip-path="url(#clip632)" style="stroke:#ff00ff; stroke-linecap:round; stroke-linejoin:round; stroke-width:4; stroke-opacity:1; fill:none" stroke-dasharray="16, 10" points="1232.47,4912.73 1232.47,-1890.08 "/>
<path clip-path="url(#clip630)" d="M3919.78 2569.54 L4487.94 2569.54 L4487.94 1791.94 L3919.78 1791.94  Z" fill="#ffffff" fill-rule="evenodd" fill-opacity="1"/>
<polyline clip-path="url(#clip630)" style="stroke:#000000; stroke-linecap:round; stroke-linejoin:round; stroke-width:4; stroke-opacity:1; fill:none" points="3919.78,2569.54 4487.94,2569.54 4487.94,1791.94 3919.78,1791.94 3919.78,2569.54 "/>
<polyline clip-path="url(#clip630)" style="stroke:#009af9; stroke-linecap:round; stroke-linejoin:round; stroke-width:22.5; stroke-opacity:1; fill:none" points="3960.81,1889.14 4206.97,1889.14 "/>
<path clip-path="url(#clip630)" d="M4295.92 1912.3 L4295.92 1894.89 L4281.59 1894.89 L4281.59 1887.69 L4304.6 1887.69 L4304.6 1915.51 Q4299.52 1919.11 4293.4 1920.98 Q4287.28 1922.8 4280.33 1922.8 Q4265.14 1922.8 4256.55 1913.95 Q4248 1905.05 4248 1889.21 Q4248 1873.32 4256.55 1864.47 Q4265.14 1855.57 4280.33 1855.57 Q4286.67 1855.57 4292.36 1857.13 Q4298.09 1858.69 4302.9 1861.73 L4302.9 1871.06 Q4298.04 1866.94 4292.57 1864.86 Q4287.11 1862.77 4281.07 1862.77 Q4269.18 1862.77 4263.19 1869.41 Q4257.24 1876.05 4257.24 1889.21 Q4257.24 1902.31 4263.19 1908.95 Q4269.18 1915.59 4281.07 1915.59 Q4285.72 1915.59 4289.36 1914.81 Q4293.01 1913.99 4295.92 1912.3 Z" fill="#000000" fill-rule="nonzero" fill-opacity="1" /><path clip-path="url(#clip630)" d="M4322.91 1914.16 L4337.24 1914.16 L4337.24 1864.73 L4321.65 1867.85 L4321.65 1859.87 L4337.15 1856.74 L4345.92 1856.74 L4345.92 1914.16 L4360.24 1914.16 L4360.24 1921.54 L4322.91 1921.54 L4322.91 1914.16 Z" fill="#000000" fill-rule="nonzero" fill-opacity="1" /><polyline clip-path="url(#clip630)" style="stroke:#e26f46; stroke-linecap:round; stroke-linejoin:round; stroke-width:22.5; stroke-opacity:1; fill:none" points="3960.81,1986.34 4206.97,1986.34 "/>
<path clip-path="url(#clip630)" d="M4295.92 2009.5 L4295.92 1992.09 L4281.59 1992.09 L4281.59 1984.89 L4304.6 1984.89 L4304.6 2012.71 Q4299.52 2016.31 4293.4 2018.18 Q4287.28 2020 4280.33 2020 Q4265.14 2020 4256.55 2011.15 Q4248 2002.25 4248 1986.41 Q4248 1970.52 4256.55 1961.67 Q4265.14 1952.77 4280.33 1952.77 Q4286.67 1952.77 4292.36 1954.33 Q4298.09 1955.89 4302.9 1958.93 L4302.9 1968.26 Q4298.04 1964.14 4292.57 1962.06 Q4287.11 1959.97 4281.07 1959.97 Q4269.18 1959.97 4263.19 1966.61 Q4257.24 1973.25 4257.24 1986.41 Q4257.24 1999.51 4263.19 2006.15 Q4269.18 2012.79 4281.07 2012.79 Q4285.72 2012.79 4289.36 2012.01 Q4293.01 2011.19 4295.92 2009.5 Z" fill="#000000" fill-rule="nonzero" fill-opacity="1" /><path clip-path="url(#clip630)" d="M4328.95 2011.36 L4359.54 2011.36 L4359.54 2018.74 L4318.4 2018.74 L4318.4 2011.36 Q4323.39 2006.2 4331.98 1997.52 Q4340.62 1988.79 4342.83 1986.28 Q4347.04 1981.54 4348.69 1978.29 Q4350.39 1974.99 4350.39 1971.82 Q4350.39 1966.66 4346.74 1963.4 Q4343.14 1960.15 4337.32 1960.15 Q4333.2 1960.15 4328.6 1961.58 Q4324.04 1963.01 4318.83 1965.92 L4318.83 1957.07 Q4324.13 1954.94 4328.73 1953.85 Q4333.33 1952.77 4337.15 1952.77 Q4347.22 1952.77 4353.21 1957.8 Q4359.2 1962.84 4359.2 1971.26 Q4359.2 1975.25 4357.68 1978.85 Q4356.2 1982.41 4352.25 1987.27 Q4351.17 1988.53 4345.35 1994.57 Q4339.54 2000.56 4328.95 2011.36 Z" fill="#000000" fill-rule="nonzero" fill-opacity="1" /><polyline clip-path="url(#clip630)" style="stroke:#3da44d; stroke-linecap:round; stroke-linejoin:round; stroke-width:22.5; stroke-opacity:1; fill:none" points="3960.81,2083.54 4206.97,2083.54 "/>
<path clip-path="url(#clip630)" d="M4295.92 2106.7 L4295.92 2089.29 L4281.59 2089.29 L4281.59 2082.09 L4304.6 2082.09 L4304.6 2109.91 Q4299.52 2113.51 4293.4 2115.38 Q4287.28 2117.2 4280.33 2117.2 Q4265.14 2117.2 4256.55 2108.35 Q4248 2099.45 4248 2083.61 Q4248 2067.72 4256.55 2058.87 Q4265.14 2049.97 4280.33 2049.97 Q4286.67 2049.97 4292.36 2051.53 Q4298.09 2053.09 4302.9 2056.13 L4302.9 2065.46 Q4298.04 2061.34 4292.57 2059.26 Q4287.11 2057.17 4281.07 2057.17 Q4269.18 2057.17 4263.19 2063.81 Q4257.24 2070.45 4257.24 2083.61 Q4257.24 2096.71 4263.19 2103.35 Q4269.18 2109.99 4281.07 2109.99 Q4285.72 2109.99 4289.36 2109.21 Q4293.01 2108.39 4295.92 2106.7 Z" fill="#000000" fill-rule="nonzero" fill-opacity="1" /><path clip-path="url(#clip630)" d="M4347.96 2081 Q4354.25 2082.35 4357.76 2086.6 Q4361.32 2090.85 4361.32 2097.1 Q4361.32 2106.7 4354.73 2111.95 Q4348.13 2117.2 4335.98 2117.2 Q4331.9 2117.2 4327.56 2116.37 Q4323.26 2115.59 4318.66 2113.99 L4318.66 2105.52 Q4322.3 2107.65 4326.64 2108.74 Q4330.99 2109.82 4335.72 2109.82 Q4343.96 2109.82 4348.26 2106.57 Q4352.6 2103.31 4352.6 2097.1 Q4352.6 2091.37 4348.56 2088.16 Q4344.57 2084.91 4337.41 2084.91 L4329.86 2084.91 L4329.86 2077.7 L4337.76 2077.7 Q4344.22 2077.7 4347.65 2075.14 Q4351.08 2072.54 4351.08 2067.68 Q4351.08 2062.69 4347.52 2060.04 Q4344.01 2057.35 4337.41 2057.35 Q4333.81 2057.35 4329.68 2058.13 Q4325.56 2058.91 4320.61 2060.56 L4320.61 2052.75 Q4325.6 2051.36 4329.94 2050.66 Q4334.33 2049.97 4338.19 2049.97 Q4348.17 2049.97 4353.99 2054.53 Q4359.8 2059.04 4359.8 2066.77 Q4359.8 2072.15 4356.72 2075.88 Q4353.64 2079.57 4347.96 2081 Z" fill="#000000" fill-rule="nonzero" fill-opacity="1" /><polyline clip-path="url(#clip630)" style="stroke:#000000; stroke-linecap:round; stroke-linejoin:round; stroke-width:15; stroke-opacity:1; fill:none" points="3960.81,2180.74 4206.97,2180.74 "/>
<path clip-path="url(#clip630)" d="M4300.26 2153.33 L4300.26 2162.58 Q4295.83 2158.45 4290.79 2156.41 Q4285.8 2154.37 4280.16 2154.37 Q4269.05 2154.37 4263.15 2161.19 Q4257.24 2167.96 4257.24 2180.81 Q4257.24 2193.61 4263.15 2200.42 Q4269.05 2207.19 4280.16 2207.19 Q4285.8 2207.19 4290.79 2205.15 Q4295.83 2203.11 4300.26 2198.99 L4300.26 2208.15 Q4295.66 2211.27 4290.49 2212.84 Q4285.37 2214.4 4279.64 2214.4 Q4264.93 2214.4 4256.46 2205.42 Q4248 2196.39 4248 2180.81 Q4248 2165.18 4256.46 2156.2 Q4264.93 2147.17 4279.64 2147.17 Q4285.46 2147.17 4290.58 2148.73 Q4295.74 2150.25 4300.26 2153.33 Z" fill="#000000" fill-rule="nonzero" fill-opacity="1" /><path clip-path="url(#clip630)" d="M4340.1 2154.29 Q4330.55 2154.29 4324.91 2161.4 Q4319.31 2168.52 4319.31 2180.81 Q4319.31 2193.05 4324.91 2200.16 Q4330.55 2207.28 4340.1 2207.28 Q4349.65 2207.28 4355.2 2200.16 Q4360.8 2193.05 4360.8 2180.81 Q4360.8 2168.52 4355.2 2161.4 Q4349.65 2154.29 4340.1 2154.29 M4340.1 2147.17 Q4353.73 2147.17 4361.89 2156.33 Q4370.05 2165.44 4370.05 2180.81 Q4370.05 2196.13 4361.89 2205.28 Q4353.73 2214.4 4340.1 2214.4 Q4326.43 2214.4 4318.22 2205.28 Q4310.07 2196.17 4310.07 2180.81 Q4310.07 2165.44 4318.22 2156.33 Q4326.43 2147.17 4340.1 2147.17 Z" fill="#000000" fill-rule="nonzero" fill-opacity="1" /><path clip-path="url(#clip630)" d="M4383.76 2148.34 L4392.53 2148.34 L4392.53 2213.14 L4383.76 2213.14 L4383.76 2148.34 Z" fill="#000000" fill-rule="nonzero" fill-opacity="1" /><polyline clip-path="url(#clip630)" style="stroke:#ff0000; stroke-linecap:round; stroke-linejoin:round; stroke-width:15; stroke-opacity:1; fill:none" stroke-dasharray="60, 38" points="3960.81,2277.94 4206.97,2277.94 "/>
<path clip-path="url(#clip630)" d="M4248 2282.43 L4271.39 2282.43 L4271.39 2289.55 L4248 2289.55 L4248 2282.43 Z" fill="#000000" fill-rule="nonzero" fill-opacity="1" /><path clip-path="url(#clip630)" d="M4320.26 2247.93 L4320.26 2261.73 L4336.71 2261.73 L4336.71 2267.94 L4320.26 2267.94 L4320.26 2294.33 Q4320.26 2300.27 4321.87 2301.96 Q4323.52 2303.66 4328.51 2303.66 L4336.71 2303.66 L4336.71 2310.34 L4328.51 2310.34 Q4319.27 2310.34 4315.75 2306.91 Q4312.24 2303.44 4312.24 2294.33 L4312.24 2267.94 L4306.38 2267.94 L4306.38 2261.73 L4312.24 2261.73 L4312.24 2247.93 L4320.26 2247.93 Z" fill="#000000" fill-rule="nonzero" fill-opacity="1" /><path clip-path="url(#clip630)" d="M4366.05 2267.33 Q4359.63 2267.33 4355.9 2272.36 Q4352.17 2277.35 4352.17 2286.08 Q4352.17 2294.8 4355.85 2299.84 Q4359.59 2304.83 4366.05 2304.83 Q4372.43 2304.83 4376.17 2299.79 Q4379.9 2294.76 4379.9 2286.08 Q4379.9 2277.44 4376.17 2272.41 Q4372.43 2267.33 4366.05 2267.33 M4366.05 2260.56 Q4376.47 2260.56 4382.42 2267.33 Q4388.36 2274.1 4388.36 2286.08 Q4388.36 2298.01 4382.42 2304.83 Q4376.47 2311.6 4366.05 2311.6 Q4355.59 2311.6 4349.65 2304.83 Q4343.75 2298.01 4343.75 2286.08 Q4343.75 2274.1 4349.65 2267.33 Q4355.59 2260.56 4366.05 2260.56 Z" fill="#000000" fill-rule="nonzero" fill-opacity="1" /><path clip-path="url(#clip630)" d="M4401.6 2242.81 L4409.59 2242.81 L4409.59 2310.34 L4401.6 2310.34 L4401.6 2242.81 Z" fill="#000000" fill-rule="nonzero" fill-opacity="1" /><polyline clip-path="url(#clip630)" style="stroke:#ff0000; stroke-linecap:round; stroke-linejoin:round; stroke-width:15; stroke-opacity:1; fill:none" stroke-dasharray="60, 38" points="3960.81,2375.14 4206.97,2375.14 "/>
<path clip-path="url(#clip630)" d="M4279.47 2351.81 L4279.47 2375.99 L4303.64 2375.99 L4303.64 2383.37 L4279.47 2383.37 L4279.47 2407.54 L4272.17 2407.54 L4272.17 2383.37 L4248 2383.37 L4248 2375.99 L4272.17 2375.99 L4272.17 2351.81 L4279.47 2351.81 Z" fill="#000000" fill-rule="nonzero" fill-opacity="1" /><path clip-path="url(#clip630)" d="M4357.59 2345.13 L4357.59 2358.93 L4374.04 2358.93 L4374.04 2365.14 L4357.59 2365.14 L4357.59 2391.53 Q4357.59 2397.47 4359.2 2399.16 Q4360.85 2400.86 4365.84 2400.86 L4374.04 2400.86 L4374.04 2407.54 L4365.84 2407.54 Q4356.59 2407.54 4353.08 2404.11 Q4349.56 2400.64 4349.56 2391.53 L4349.56 2365.14 L4343.7 2365.14 L4343.7 2358.93 L4349.56 2358.93 L4349.56 2345.13 L4357.59 2345.13 Z" fill="#000000" fill-rule="nonzero" fill-opacity="1" /><path clip-path="url(#clip630)" d="M4403.38 2364.53 Q4396.96 2364.53 4393.22 2369.56 Q4389.49 2374.55 4389.49 2383.28 Q4389.49 2392 4393.18 2397.04 Q4396.91 2402.03 4403.38 2402.03 Q4409.76 2402.03 4413.49 2396.99 Q4417.23 2391.96 4417.23 2383.28 Q4417.23 2374.64 4413.49 2369.61 Q4409.76 2364.53 4403.38 2364.53 M4403.38 2357.76 Q4413.8 2357.76 4419.74 2364.53 Q4425.69 2371.3 4425.69 2383.28 Q4425.69 2395.21 4419.74 2402.03 Q4413.8 2408.8 4403.38 2408.8 Q4392.92 2408.8 4386.97 2402.03 Q4381.07 2395.21 4381.07 2383.28 Q4381.07 2371.3 4386.97 2364.53 Q4392.92 2357.76 4403.38 2357.76 Z" fill="#000000" fill-rule="nonzero" fill-opacity="1" /><path clip-path="url(#clip630)" d="M4438.93 2340.01 L4446.91 2340.01 L4446.91 2407.54 L4438.93 2407.54 L4438.93 2340.01 Z" fill="#000000" fill-rule="nonzero" fill-opacity="1" /><polyline clip-path="url(#clip630)" style="stroke:#ff00ff; stroke-linecap:round; stroke-linejoin:round; stroke-width:7.5; stroke-opacity:1; fill:none" stroke-dasharray="30, 19" points="3960.81,2472.34 4206.97,2472.34 "/>
<path clip-path="url(#clip630)" d="M4261.89 2442.33 L4261.89 2456.13 L4278.34 2456.13 L4278.34 2462.34 L4261.89 2462.34 L4261.89 2488.73 Q4261.89 2494.67 4263.49 2496.36 Q4265.14 2498.06 4270.13 2498.06 L4278.34 2498.06 L4278.34 2504.74 L4270.13 2504.74 Q4260.89 2504.74 4257.37 2501.31 Q4253.86 2497.84 4253.86 2488.73 L4253.86 2462.34 L4248 2462.34 L4248 2456.13 L4253.86 2456.13 L4253.86 2442.33 L4261.89 2442.33 Z" fill="#000000" fill-rule="nonzero" fill-opacity="1" /><path clip-path="url(#clip630)" d="M4325.78 2519.5 L4325.78 2525.7 L4279.6 2525.7 L4279.6 2519.5 L4325.78 2519.5 Z" fill="#000000" fill-rule="nonzero" fill-opacity="1" /><path clip-path="url(#clip630)" d="M4368.27 2458 L4368.27 2465.46 Q4364.88 2463.6 4361.45 2462.68 Q4358.07 2461.73 4354.6 2461.73 Q4346.83 2461.73 4342.53 2466.68 Q4338.23 2471.58 4338.23 2480.48 Q4338.23 2489.38 4342.53 2494.32 Q4346.83 2499.23 4354.6 2499.23 Q4358.07 2499.23 4361.45 2498.32 Q4364.88 2497.36 4368.27 2495.5 L4368.27 2502.87 Q4364.93 2504.44 4361.32 2505.22 Q4357.76 2506 4353.73 2506 Q4342.75 2506 4336.28 2499.1 Q4329.81 2492.2 4329.81 2480.48 Q4329.81 2468.59 4336.32 2461.77 Q4342.88 2454.96 4354.25 2454.96 Q4357.94 2454.96 4361.45 2455.74 Q4364.97 2456.48 4368.27 2458 Z" fill="#000000" fill-rule="nonzero" fill-opacity="1" /><path clip-path="url(#clip630)" d="M4390.06 2442.33 L4390.06 2456.13 L4406.51 2456.13 L4406.51 2462.34 L4390.06 2462.34 L4390.06 2488.73 Q4390.06 2494.67 4391.66 2496.36 Q4393.31 2498.06 4398.3 2498.06 L4406.51 2498.06 L4406.51 2504.74 L4398.3 2504.74 Q4389.06 2504.74 4385.54 2501.31 Q4382.03 2497.84 4382.03 2488.73 L4382.03 2462.34 L4376.17 2462.34 L4376.17 2456.13 L4382.03 2456.13 L4382.03 2442.33 L4390.06 2442.33 Z" fill="#000000" fill-rule="nonzero" fill-opacity="1" /></svg>
