<?xml version="1.0" encoding="utf-8"?>
<svg xmlns="http://www.w3.org/2000/svg" xmlns:xlink="http://www.w3.org/1999/xlink" width="1200" height="800" viewBox="0 0 4800 3200">
<defs>
  <clipPath id="clip590">
    <rect x="0" y="0" width="4800" height="3200"/>
  </clipPath>
</defs>
<path clip-path="url(#clip590)" d="M0 3200 L4800 3200 L4800 0 L0 0  Z" fill="#ffffff" fill-rule="evenodd" fill-opacity="1"/>
<defs>
  <clipPath id="clip591">
    <rect x="960" y="0" width="3361" height="3200"/>
  </clipPath>
</defs>
<path clip-path="url(#clip590)" d="M953.582 2645.13 L4611.02 2645.13 L4611.02 377.524 L953.582 377.524  Z" fill="#ffffff" fill-rule="evenodd" fill-opacity="1"/>
<defs>
  <clipPath id="clip592">
    <rect x="953" y="377" width="3658" height="2269"/>
  </clipPath>
</defs>
<polyline clip-path="url(#clip592)" style="stroke:#000000; stroke-linecap:round; stroke-linejoin:round; stroke-width:8; stroke-opacity:0.05; fill:none" stroke-dasharray="32, 20" points="1050.18,2645.13 1050.18,377.524 "/>
<polyline clip-path="url(#clip592)" style="stroke:#000000; stroke-linecap:round; stroke-linejoin:round; stroke-width:8; stroke-opacity:0.05; fill:none" stroke-dasharray="32, 20" points="1741.65,2645.13 1741.65,377.524 "/>
<polyline clip-path="url(#clip592)" style="stroke:#000000; stroke-linecap:round; stroke-linejoin:round; stroke-width:8; stroke-opacity:0.05; fill:none" stroke-dasharray="32, 20" points="2433.11,2645.13 2433.11,377.524 "/>
<polyline clip-path="url(#clip592)" style="stroke:#000000; stroke-linecap:round; stroke-linejoin:round; stroke-width:8; stroke-opacity:0.05; fill:none" stroke-dasharray="32, 20" points="3124.58,2645.13 3124.58,377.524 "/>
<polyline clip-path="url(#clip592)" style="stroke:#000000; stroke-linecap:round; stroke-linejoin:round; stroke-width:8; stroke-opacity:0.05; fill:none" stroke-dasharray="32, 20" points="3816.04,2645.13 3816.04,377.524 "/>
<polyline clip-path="url(#clip592)" style="stroke:#000000; stroke-linecap:round; stroke-linejoin:round; stroke-width:8; stroke-opacity:0.05; fill:none" stroke-dasharray="32, 20" points="4507.51,2645.13 4507.51,377.524 "/>
<polyline clip-path="url(#clip592)" style="stroke:#000000; stroke-linecap:round; stroke-linejoin:round; stroke-width:8; stroke-opacity:0.05; fill:none" stroke-dasharray="32, 20" points="953.582,2347.99 4611.02,2347.99 "/>
<polyline clip-path="url(#clip592)" style="stroke:#000000; stroke-linecap:round; stroke-linejoin:round; stroke-width:8; stroke-opacity:0.05; fill:none" stroke-dasharray="32, 20" points="953.582,1959.52 4611.02,1959.52 "/>
<polyline clip-path="url(#clip592)" style="stroke:#000000; stroke-linecap:round; stroke-linejoin:round; stroke-width:8; stroke-opacity:0.05; fill:none" stroke-dasharray="32, 20" points="953.582,1571.05 4611.02,1571.05 "/>
<polyline clip-path="url(#clip592)" style="stroke:#000000; stroke-linecap:round; stroke-linejoin:round; stroke-width:8; stroke-opacity:0.05; fill:none" stroke-dasharray="32, 20" points="953.582,1182.58 4611.02,1182.58 "/>
<polyline clip-path="url(#clip592)" style="stroke:#000000; stroke-linecap:round; stroke-linejoin:round; stroke-width:8; stroke-opacity:0.05; fill:none" stroke-dasharray="32, 20" points="953.582,794.111 4611.02,794.111 "/>
<polyline clip-path="url(#clip592)" style="stroke:#000000; stroke-linecap:round; stroke-linejoin:round; stroke-width:8; stroke-opacity:0.05; fill:none" stroke-dasharray="32, 20" points="953.582,405.642 4611.02,405.642 "/>
<polyline clip-path="url(#clip590)" style="stroke:#000000; stroke-linecap:round; stroke-linejoin:round; stroke-width:4; stroke-opacity:1; fill:none" points="953.582,2645.13 4611.02,2645.13 "/>
<polyline clip-path="url(#clip590)" style="stroke:#000000; stroke-linecap:round; stroke-linejoin:round; stroke-width:4; stroke-opacity:1; fill:none" points="1050.18,2645.13 1050.18,2626.23 "/>
<polyline clip-path="url(#clip590)" style="stroke:#000000; stroke-linecap:round; stroke-linejoin:round; stroke-width:4; stroke-opacity:1; fill:none" points="1741.65,2645.13 1741.65,2626.23 "/>
<polyline clip-path="url(#clip590)" style="stroke:#000000; stroke-linecap:round; stroke-linejoin:round; stroke-width:4; stroke-opacity:1; fill:none" points="2433.11,2645.13 2433.11,2626.23 "/>
<polyline clip-path="url(#clip590)" style="stroke:#000000; stroke-linecap:round; stroke-linejoin:round; stroke-width:4; stroke-opacity:1; fill:none" points="3124.58,2645.13 3124.58,2626.23 "/>
<polyline clip-path="url(#clip590)" style="stroke:#000000; stroke-linecap:round; stroke-linejoin:round; stroke-width:4; stroke-opacity:1; fill:none" points="3816.04,2645.13 3816.04,2626.23 "/>
<polyline clip-path="url(#clip590)" style="stroke:#000000; stroke-linecap:round; stroke-linejoin:round; stroke-width:4; stroke-opacity:1; fill:none" points="4507.51,2645.13 4507.51,2626.23 "/>
<path clip-path="url(#clip590)" d="M1050.18 2734.8 Q1034.38 2734.8 1026.38 2750.39 Q1018.48 2765.89 1018.48 2797.08 Q1018.48 2828.17 1026.38 2843.77 Q1034.38 2859.26 1050.18 2859.26 Q1066.08 2859.26 1073.98 2843.77 Q1081.98 2828.17 1081.98 2797.08 Q1081.98 2765.89 1073.98 2750.39 Q1066.08 2734.8 1050.18 2734.8 M1050.18 2718.59 Q1075.6 2718.59 1088.97 2738.75 Q1102.44 2758.8 1102.44 2797.08 Q1102.44 2835.26 1088.97 2855.41 Q1075.6 2875.46 1050.18 2875.46 Q1024.76 2875.46 1011.29 2855.41 Q997.923 2835.26 997.923 2797.08 Q997.923 2758.8 1011.29 2738.75 Q1024.76 2718.59 1050.18 2718.59 Z" fill="#000000" fill-rule="nonzero" fill-opacity="1" /><path clip-path="url(#clip590)" d="M1699.57 2855.31 L1732.99 2855.31 L1732.99 2739.96 L1696.63 2747.25 L1696.63 2728.62 L1732.78 2721.33 L1753.24 2721.33 L1753.24 2855.31 L1786.66 2855.31 L1786.66 2872.53 L1699.57 2872.53 L1699.57 2855.31 Z" fill="#000000" fill-rule="nonzero" fill-opacity="1" /><path clip-path="url(#clip590)" d="M2409.72 2855.31 L2481.12 2855.31 L2481.12 2872.53 L2385.11 2872.53 L2385.11 2855.31 Q2396.76 2843.26 2416.81 2823.01 Q2436.96 2802.65 2442.13 2796.78 Q2451.95 2785.74 2455.8 2778.14 Q2459.75 2770.44 2459.75 2763.05 Q2459.75 2751 2451.24 2743.4 Q2442.83 2735.81 2429.26 2735.81 Q2419.64 2735.81 2408.91 2739.15 Q2398.27 2742.49 2386.12 2749.28 L2386.12 2728.62 Q2398.48 2723.66 2409.21 2721.13 Q2419.95 2718.59 2428.86 2718.59 Q2452.35 2718.59 2466.33 2730.34 Q2480.31 2742.09 2480.31 2761.74 Q2480.31 2771.05 2476.76 2779.46 Q2473.32 2787.76 2464.1 2799.1 Q2461.57 2802.04 2448 2816.12 Q2434.43 2830.09 2409.72 2855.31 Z" fill="#000000" fill-rule="nonzero" fill-opacity="1" /><path clip-path="url(#clip590)" d="M3143.16 2791 Q3157.85 2794.14 3166.05 2804.07 Q3174.35 2813.99 3174.35 2828.58 Q3174.35 2850.96 3158.96 2863.21 Q3143.57 2875.46 3115.21 2875.46 Q3105.69 2875.46 3095.56 2873.54 Q3085.54 2871.72 3074.8 2867.97 L3074.8 2848.22 Q3083.31 2853.18 3093.44 2855.72 Q3103.56 2858.25 3114.6 2858.25 Q3133.84 2858.25 3143.87 2850.65 Q3154 2843.06 3154 2828.58 Q3154 2815.21 3144.58 2807.71 Q3135.26 2800.12 3118.55 2800.12 L3100.93 2800.12 L3100.93 2783.31 L3119.36 2783.31 Q3134.45 2783.31 3142.45 2777.33 Q3150.45 2771.25 3150.45 2759.91 Q3150.45 2748.27 3142.15 2742.09 Q3133.95 2735.81 3118.55 2735.81 Q3110.15 2735.81 3100.53 2737.63 Q3090.91 2739.46 3079.36 2743.3 L3079.36 2725.07 Q3091.01 2721.83 3101.13 2720.21 Q3111.36 2718.59 3120.38 2718.59 Q3143.67 2718.59 3157.24 2729.23 Q3170.81 2739.76 3170.81 2757.79 Q3170.81 2770.34 3163.62 2779.05 Q3156.43 2787.66 3143.16 2791 Z" fill="#000000" fill-rule="nonzero" fill-opacity="1" /><path clip-path="url(#clip590)" d="M3829.21 2739.15 L3777.56 2819.87 L3829.21 2819.87 L3829.21 2739.15 M3823.84 2721.33 L3849.57 2721.33 L3849.57 2819.87 L3871.14 2819.87 L3871.14 2836.88 L3849.57 2836.88 L3849.57 2872.53 L3829.21 2872.53 L3829.21 2836.88 L3760.95 2836.88 L3760.95 2817.13 L3823.84 2721.33 Z" fill="#000000" fill-rule="nonzero" fill-opacity="1" /><path clip-path="url(#clip590)" d="M4464.98 2721.33 L4545.29 2721.33 L4545.29 2738.54 L4483.71 2738.54 L4483.71 2775.61 Q4488.17 2774.09 4492.62 2773.38 Q4497.08 2772.57 4501.54 2772.57 Q4526.85 2772.57 4541.64 2786.45 Q4556.43 2800.32 4556.43 2824.02 Q4556.43 2848.42 4541.23 2862 Q4526.04 2875.46 4498.4 2875.46 Q4488.88 2875.46 4478.95 2873.84 Q4469.13 2872.22 4458.6 2868.98 L4458.6 2848.42 Q4467.71 2853.39 4477.43 2855.82 Q4487.16 2858.25 4497.99 2858.25 Q4515.51 2858.25 4525.74 2849.03 Q4535.97 2839.82 4535.97 2824.02 Q4535.97 2808.22 4525.74 2799 Q4515.51 2789.79 4497.99 2789.79 Q4489.79 2789.79 4481.59 2791.61 Q4473.48 2793.43 4464.98 2797.28 L4464.98 2721.33 Z" fill="#000000" fill-rule="nonzero" fill-opacity="1" /><path clip-path="url(#clip590)" d="M2617.84 2979.74 L2617.84 3011.94 L2656.22 3011.94 L2656.22 3026.42 L2617.84 3026.42 L2617.84 3088 Q2617.84 3101.87 2621.58 3105.82 Q2625.43 3109.77 2637.08 3109.77 L2656.22 3109.77 L2656.22 3125.37 L2637.08 3125.37 Q2615.51 3125.37 2607.3 3117.37 Q2599.1 3109.27 2599.1 3088 L2599.1 3026.42 L2585.43 3026.42 L2585.43 3011.94 L2599.1 3011.94 L2599.1 2979.74 L2617.84 2979.74 Z" fill="#000000" fill-rule="nonzero" fill-opacity="1" /><path clip-path="url(#clip590)" d="M2791.42 2967.99 Q2777.85 2991.28 2771.26 3014.07 Q2764.68 3036.86 2764.68 3060.25 Q2764.68 3083.64 2771.26 3106.63 Q2777.95 3129.52 2791.42 3152.71 L2775.21 3152.71 Q2760.02 3128.91 2752.43 3105.92 Q2744.93 3082.93 2744.93 3060.25 Q2744.93 3037.67 2752.43 3014.78 Q2759.92 2991.89 2775.21 2967.99 L2791.42 2967.99 Z" fill="#000000" fill-rule="nonzero" fill-opacity="1" /><path clip-path="url(#clip590)" d="M2899.88 3015.28 L2899.88 3032.91 Q2891.98 3028.85 2883.47 3026.83 Q2874.97 3024.8 2865.85 3024.8 Q2851.98 3024.8 2844.99 3029.06 Q2838.1 3033.31 2838.1 3041.82 Q2838.1 3048.3 2843.07 3052.05 Q2848.03 3055.69 2863.02 3059.03 L2869.4 3060.45 Q2889.25 3064.71 2897.55 3072.5 Q2905.96 3080.2 2905.96 3094.07 Q2905.96 3109.87 2893.4 3119.09 Q2880.94 3128.3 2859.07 3128.3 Q2849.95 3128.3 2840.03 3126.48 Q2830.2 3124.76 2819.27 3121.22 L2819.27 3101.97 Q2829.6 3107.34 2839.62 3110.08 Q2849.65 3112.71 2859.47 3112.71 Q2872.64 3112.71 2879.73 3108.25 Q2886.82 3103.7 2886.82 3095.49 Q2886.82 3087.9 2881.65 3083.85 Q2876.59 3079.79 2859.27 3076.05 L2852.79 3074.53 Q2835.47 3070.88 2827.77 3063.39 Q2820.08 3055.79 2820.08 3042.63 Q2820.08 3026.63 2831.42 3017.92 Q2842.76 3009.21 2863.62 3009.21 Q2873.95 3009.21 2883.07 3010.73 Q2892.18 3012.25 2899.88 3015.28 Z" fill="#000000" fill-rule="nonzero" fill-opacity="1" /><path clip-path="url(#clip590)" d="M2932.69 2967.99 L2948.9 2967.99 Q2964.09 2991.89 2971.58 3014.78 Q2979.18 3037.67 2979.18 3060.25 Q2979.18 3082.93 2971.58 3105.92 Q2964.09 3128.91 2948.9 3152.71 L2932.69 3152.71 Q2946.16 3129.52 2952.74 3106.63 Q2959.43 3083.64 2959.43 3060.25 Q2959.43 3036.86 2952.74 3014.07 Q2946.16 2991.28 2932.69 2967.99 Z" fill="#000000" fill-rule="nonzero" fill-opacity="1" /><polyline clip-path="url(#clip590)" style="stroke:#000000; stroke-linecap:round; stroke-linejoin:round; stroke-width:4; stroke-opacity:1; fill:none" points="953.582,2645.13 953.582,377.524 "/>
<polyline clip-path="url(#clip590)" style="stroke:#000000; stroke-linecap:round; stroke-linejoin:round; stroke-width:4; stroke-opacity:1; fill:none" points="953.582,2347.99 972.479,2347.99 "/>
<polyline clip-path="url(#clip590)" style="stroke:#000000; stroke-linecap:round; stroke-linejoin:round; stroke-width:4; stroke-opacity:1; fill:none" points="953.582,1959.52 972.479,1959.52 "/>
<polyline clip-path="url(#clip590)" style="stroke:#000000; stroke-linecap:round; stroke-linejoin:round; stroke-width:4; stroke-opacity:1; fill:none" points="953.582,1571.05 972.479,1571.05 "/>
<polyline clip-path="url(#clip590)" style="stroke:#000000; stroke-linecap:round; stroke-linejoin:round; stroke-width:4; stroke-opacity:1; fill:none" points="953.582,1182.58 972.479,1182.58 "/>
<polyline clip-path="url(#clip590)" style="stroke:#000000; stroke-linecap:round; stroke-linejoin:round; stroke-width:4; stroke-opacity:1; fill:none" points="953.582,794.111 972.479,794.111 "/>
<polyline clip-path="url(#clip590)" style="stroke:#000000; stroke-linecap:round; stroke-linejoin:round; stroke-width:4; stroke-opacity:1; fill:none" points="953.582,405.642 972.479,405.642 "/>
<path clip-path="url(#clip590)" d="M347.672 2349.96 L477.504 2349.96 L477.504 2367.18 L347.672 2367.18 L347.672 2349.96 Z" fill="#000000" fill-rule="nonzero" fill-opacity="1" /><path clip-path="url(#clip590)" d="M525.203 2406.37 L558.623 2406.37 L558.623 2291.02 L522.266 2298.31 L522.266 2279.68 L558.421 2272.39 L578.878 2272.39 L578.878 2406.37 L612.298 2406.37 L612.298 2423.59 L525.203 2423.59 L525.203 2406.37 Z" fill="#000000" fill-rule="nonzero" fill-opacity="1" /><path clip-path="url(#clip590)" d="M697.367 2285.86 Q681.568 2285.86 673.568 2301.45 Q665.668 2316.95 665.668 2348.14 Q665.668 2379.23 673.568 2394.83 Q681.568 2410.32 697.367 2410.32 Q713.267 2410.32 721.166 2394.83 Q729.166 2379.23 729.166 2348.14 Q729.166 2316.95 721.166 2301.45 Q713.267 2285.86 697.367 2285.86 M697.367 2269.65 Q722.786 2269.65 736.154 2289.81 Q749.623 2309.86 749.623 2348.14 Q749.623 2386.32 736.154 2406.47 Q722.786 2426.53 697.367 2426.53 Q671.947 2426.53 658.478 2406.47 Q645.11 2386.32 645.11 2348.14 Q645.11 2309.86 658.478 2289.81 Q671.947 2269.65 697.367 2269.65 Z" fill="#000000" fill-rule="nonzero" fill-opacity="1" /><path clip-path="url(#clip590)" d="M829.325 2285.86 Q813.526 2285.86 805.526 2301.45 Q797.627 2316.95 797.627 2348.14 Q797.627 2379.23 805.526 2394.83 Q813.526 2410.32 829.325 2410.32 Q845.225 2410.32 853.124 2394.83 Q861.125 2379.23 861.125 2348.14 Q861.125 2316.95 853.124 2301.45 Q845.225 2285.86 829.325 2285.86 M829.325 2269.65 Q854.744 2269.65 868.112 2289.81 Q881.582 2309.86 881.582 2348.14 Q881.582 2386.32 868.112 2406.47 Q854.744 2426.53 829.325 2426.53 Q803.906 2426.53 790.436 2406.47 Q777.068 2386.32 777.068 2348.14 Q777.068 2309.86 790.436 2289.81 Q803.906 2269.65 829.325 2269.65 Z" fill="#000000" fill-rule="nonzero" fill-opacity="1" /><path clip-path="url(#clip590)" d="M829.325 1897.39 Q813.526 1897.39 805.526 1912.98 Q797.627 1928.48 797.627 1959.67 Q797.627 1990.76 805.526 2006.36 Q813.526 2021.85 829.325 2021.85 Q845.225 2021.85 853.124 2006.36 Q861.125 1990.76 861.125 1959.67 Q861.125 1928.48 853.124 1912.98 Q845.225 1897.39 829.325 1897.39 M829.325 1881.18 Q854.744 1881.18 868.112 1901.34 Q881.582 1921.39 881.582 1959.67 Q881.582 1997.85 868.112 2018 Q854.744 2038.06 829.325 2038.06 Q803.906 2038.06 790.436 2018 Q777.068 1997.85 777.068 1959.67 Q777.068 1921.39 790.436 1901.34 Q803.906 1881.18 829.325 1881.18 Z" fill="#000000" fill-rule="nonzero" fill-opacity="1" /><path clip-path="url(#clip590)" d="M525.203 1629.43 L558.623 1629.43 L558.623 1514.08 L522.266 1521.38 L522.266 1502.74 L558.421 1495.45 L578.878 1495.45 L578.878 1629.43 L612.298 1629.43 L612.298 1646.65 L525.203 1646.65 L525.203 1629.43 Z" fill="#000000" fill-rule="nonzero" fill-opacity="1" /><path clip-path="url(#clip590)" d="M697.367 1508.92 Q681.568 1508.92 673.568 1524.52 Q665.668 1540.01 665.668 1571.2 Q665.668 1602.29 673.568 1617.89 Q681.568 1633.38 697.367 1633.38 Q713.267 1633.38 721.166 1617.89 Q729.166 1602.29 729.166 1571.2 Q729.166 1540.01 721.166 1524.52 Q713.267 1508.92 697.367 1508.92 M697.367 1492.72 Q722.786 1492.72 736.154 1512.87 Q749.623 1532.92 749.623 1571.2 Q749.623 1609.38 736.154 1629.53 Q722.786 1649.59 697.367 1649.59 Q671.947 1649.59 658.478 1629.53 Q645.11 1609.38 645.11 1571.2 Q645.11 1532.92 658.478 1512.87 Q671.947 1492.72 697.367 1492.72 Z" fill="#000000" fill-rule="nonzero" fill-opacity="1" /><path clip-path="url(#clip590)" d="M829.325 1508.92 Q813.526 1508.92 805.526 1524.52 Q797.627 1540.01 797.627 1571.2 Q797.627 1602.29 805.526 1617.89 Q813.526 1633.38 829.325 1633.38 Q845.225 1633.38 853.124 1617.89 Q861.125 1602.29 861.125 1571.2 Q861.125 1540.01 853.124 1524.52 Q845.225 1508.92 829.325 1508.92 M829.325 1492.72 Q854.744 1492.72 868.112 1512.87 Q881.582 1532.92 881.582 1571.2 Q881.582 1609.38 868.112 1629.53 Q854.744 1649.59 829.325 1649.59 Q803.906 1649.59 790.436 1629.53 Q777.068 1609.38 777.068 1571.2 Q777.068 1532.92 790.436 1512.87 Q803.906 1492.72 829.325 1492.72 Z" fill="#000000" fill-rule="nonzero" fill-opacity="1" /><path clip-path="url(#clip590)" d="M539.28 1240.96 L610.677 1240.96 L610.677 1258.18 L514.671 1258.18 L514.671 1240.96 Q526.317 1228.91 546.369 1208.66 Q566.523 1188.3 571.687 1182.43 Q581.511 1171.39 585.359 1163.79 Q589.309 1156.1 589.309 1148.7 Q589.309 1136.65 580.802 1129.06 Q572.396 1121.46 558.826 1121.46 Q549.205 1121.46 538.47 1124.8 Q527.836 1128.15 515.684 1134.93 L515.684 1114.27 Q528.039 1109.31 538.774 1106.78 Q549.509 1104.25 558.421 1104.25 Q581.916 1104.25 595.892 1115.99 Q609.867 1127.74 609.867 1147.39 Q609.867 1156.71 606.323 1165.11 Q602.879 1173.42 593.664 1184.76 Q591.132 1187.69 577.561 1201.77 Q563.991 1215.75 539.28 1240.96 Z" fill="#000000" fill-rule="nonzero" fill-opacity="1" /><path clip-path="url(#clip590)" d="M697.367 1120.45 Q681.568 1120.45 673.568 1136.05 Q665.668 1151.54 665.668 1182.73 Q665.668 1213.82 673.568 1229.42 Q681.568 1244.91 697.367 1244.91 Q713.267 1244.91 721.166 1229.42 Q729.166 1213.82 729.166 1182.73 Q729.166 1151.54 721.166 1136.05 Q713.267 1120.45 697.367 1120.45 M697.367 1104.25 Q722.786 1104.25 736.154 1124.4 Q749.623 1144.45 749.623 1182.73 Q749.623 1220.91 736.154 1241.07 Q722.786 1261.12 697.367 1261.12 Q671.947 1261.12 658.478 1241.07 Q645.11 1220.91 645.11 1182.73 Q645.11 1144.45 658.478 1124.4 Q671.947 1104.25 697.367 1104.25 Z" fill="#000000" fill-rule="nonzero" fill-opacity="1" /><path clip-path="url(#clip590)" d="M829.325 1120.45 Q813.526 1120.45 805.526 1136.05 Q797.627 1151.54 797.627 1182.73 Q797.627 1213.82 805.526 1229.42 Q813.526 1244.91 829.325 1244.91 Q845.225 1244.91 853.124 1229.42 Q861.125 1213.82 861.125 1182.73 Q861.125 1151.54 853.124 1136.05 Q845.225 1120.45 829.325 1120.45 M829.325 1104.25 Q854.744 1104.25 868.112 1124.4 Q881.582 1144.45 881.582 1182.73 Q881.582 1220.91 868.112 1241.07 Q854.744 1261.12 829.325 1261.12 Q803.906 1261.12 790.436 1241.07 Q777.068 1220.91 777.068 1182.73 Q777.068 1144.45 790.436 1124.4 Q803.906 1104.25 829.325 1104.25 Z" fill="#000000" fill-rule="nonzero" fill-opacity="1" /><path clip-path="url(#clip590)" d="M583.638 788.187 Q598.322 791.326 606.525 801.251 Q614.83 811.176 614.83 825.759 Q614.83 848.14 599.436 860.394 Q584.043 872.648 555.686 872.648 Q546.167 872.648 536.039 870.724 Q526.013 868.901 515.279 865.154 L515.279 845.406 Q523.786 850.368 533.913 852.9 Q544.04 855.432 555.079 855.432 Q574.321 855.432 584.347 847.836 Q594.474 840.241 594.474 825.759 Q594.474 812.391 585.055 804.897 Q575.738 797.301 559.028 797.301 L541.407 797.301 L541.407 780.49 L559.839 780.49 Q574.928 780.49 582.929 774.515 Q590.929 768.439 590.929 757.096 Q590.929 745.45 582.625 739.272 Q574.422 732.993 559.028 732.993 Q550.623 732.993 541.002 734.816 Q531.381 736.639 519.836 740.487 L519.836 722.258 Q531.482 719.018 541.609 717.397 Q551.838 715.777 560.851 715.777 Q584.144 715.777 597.715 726.41 Q611.285 736.943 611.285 754.969 Q611.285 767.527 604.095 776.237 Q596.904 784.845 583.638 788.187 Z" fill="#000000" fill-rule="nonzero" fill-opacity="1" /><path clip-path="url(#clip590)" d="M697.367 731.98 Q681.568 731.98 673.568 747.576 Q665.668 763.071 665.668 794.263 Q665.668 825.354 673.568 840.95 Q681.568 856.444 697.367 856.444 Q713.267 856.444 721.166 840.95 Q729.166 825.354 729.166 794.263 Q729.166 763.071 721.166 747.576 Q713.267 731.98 697.367 731.98 M697.367 715.777 Q722.786 715.777 736.154 735.93 Q749.623 755.982 749.623 794.263 Q749.623 832.443 736.154 852.596 Q722.786 872.648 697.367 872.648 Q671.947 872.648 658.478 852.596 Q645.11 832.443 645.11 794.263 Q645.11 755.982 658.478 735.93 Q671.947 715.777 697.367 715.777 Z" fill="#000000" fill-rule="nonzero" fill-opacity="1" /><path clip-path="url(#clip590)" d="M829.325 731.98 Q813.526 731.98 805.526 747.576 Q797.627 763.071 797.627 794.263 Q797.627 825.354 805.526 840.95 Q813.526 856.444 829.325 856.444 Q845.225 856.444 853.124 840.95 Q861.125 825.354 861.125 794.263 Q861.125 763.071 853.124 747.576 Q845.225 731.98 829.325 731.98 M829.325 715.777 Q854.744 715.777 868.112 735.93 Q881.582 755.982 881.582 794.263 Q881.582 832.443 868.112 852.596 Q854.744 872.648 829.325 872.648 Q803.906 872.648 790.436 852.596 Q777.068 832.443 777.068 794.263 Q777.068 755.982 790.436 735.93 Q803.906 715.777 829.325 715.777 Z" fill="#000000" fill-rule="nonzero" fill-opacity="1" /><path clip-path="url(#clip590)" d="M577.865 347.866 L526.216 428.58 L577.865 428.58 L577.865 347.866 M572.498 330.042 L598.221 330.042 L598.221 428.58 L619.792 428.58 L619.792 445.594 L598.221 445.594 L598.221 481.242 L577.865 481.242 L577.865 445.594 L509.607 445.594 L509.607 425.846 L572.498 330.042 Z" fill="#000000" fill-rule="nonzero" fill-opacity="1" /><path clip-path="url(#clip590)" d="M697.367 343.511 Q681.568 343.511 673.568 359.107 Q665.668 374.602 665.668 405.794 Q665.668 436.884 673.568 452.48 Q681.568 467.975 697.367 467.975 Q713.267 467.975 721.166 452.48 Q729.166 436.884 729.166 405.794 Q729.166 374.602 721.166 359.107 Q713.267 343.511 697.367 343.511 M697.367 327.307 Q722.786 327.307 736.154 347.461 Q749.623 367.513 749.623 405.794 Q749.623 443.973 736.154 464.127 Q722.786 484.179 697.367 484.179 Q671.947 484.179 658.478 464.127 Q645.11 443.973 645.11 405.794 Q645.11 367.513 658.478 347.461 Q671.947 327.307 697.367 327.307 Z" fill="#000000" fill-rule="nonzero" fill-opacity="1" /><path clip-path="url(#clip590)" d="M829.325 343.511 Q813.526 343.511 805.526 359.107 Q797.627 374.602 797.627 405.794 Q797.627 436.884 805.526 452.48 Q813.526 467.975 829.325 467.975 Q845.225 467.975 853.124 452.48 Q861.125 436.884 861.125 405.794 Q861.125 374.602 853.124 359.107 Q845.225 343.511 829.325 343.511 M829.325 327.307 Q854.744 327.307 868.112 347.461 Q881.582 367.513 881.582 405.794 Q881.582 443.973 868.112 464.127 Q854.744 484.179 829.325 484.179 Q803.906 484.179 790.436 464.127 Q777.068 443.973 777.068 405.794 Q777.068 367.513 790.436 347.461 Q803.906 327.307 829.325 327.307 Z" fill="#000000" fill-rule="nonzero" fill-opacity="1" /><path clip-path="url(#clip590)" d="M95.9237 1955.86 L152.738 1955.86 L152.738 1930.14 Q152.738 1915.86 145.345 1908.06 Q137.952 1900.26 124.28 1900.26 Q110.709 1900.26 103.317 1908.06 Q95.9237 1915.86 95.9237 1930.14 L95.9237 1955.86 M79.1124 1976.32 L79.1124 1930.14 Q79.1124 1904.72 90.6575 1891.76 Q102.101 1878.69 124.28 1878.69 Q146.661 1878.69 158.105 1891.76 Q169.549 1904.72 169.549 1930.14 L169.549 1955.86 L230.312 1955.86 L230.312 1976.32 L79.1124 1976.32 Z" fill="#000000" fill-rule="nonzero" fill-opacity="1" /><path clip-path="url(#clip590)" d="M264.745 1765.87 L279.227 1765.87 L279.227 1873.63 L264.745 1873.63 L264.745 1765.87 Z" fill="#000000" fill-rule="nonzero" fill-opacity="1" /><path clip-path="url(#clip590)" d="M168.941 1651.34 L178.056 1651.34 L178.056 1737.01 Q197.298 1735.8 207.425 1725.47 Q217.451 1715.04 217.451 1696.5 Q217.451 1685.77 214.818 1675.74 Q212.185 1665.61 206.918 1655.69 L224.54 1655.69 Q228.793 1665.72 231.021 1676.25 Q233.249 1686.78 233.249 1697.62 Q233.249 1724.76 217.451 1740.66 Q201.652 1756.46 174.714 1756.46 Q146.864 1756.46 130.559 1741.47 Q114.153 1726.38 114.153 1700.86 Q114.153 1677.97 128.939 1664.7 Q143.623 1651.34 168.941 1651.34 M163.473 1669.97 Q148.18 1670.17 139.066 1678.58 Q129.951 1686.88 129.951 1700.66 Q129.951 1716.25 138.762 1725.67 Q147.573 1734.99 163.574 1736.4 L163.473 1669.97 Z" fill="#000000" fill-rule="nonzero" fill-opacity="1" /><path clip-path="url(#clip590)" d="M72.9348 1510.06 Q96.2275 1523.63 119.014 1530.21 Q141.8 1536.8 165.194 1536.8 Q188.588 1536.8 211.577 1530.21 Q234.465 1523.53 257.656 1510.06 L257.656 1526.26 Q233.857 1541.45 210.868 1549.05 Q187.879 1556.54 165.194 1556.54 Q142.61 1556.54 119.723 1549.05 Q96.8351 1541.56 72.9348 1526.26 L72.9348 1510.06 Z" fill="#000000" fill-rule="nonzero" fill-opacity="1" /><path clip-path="url(#clip590)" d="M79.1124 1473.1 L79.1124 1442.61 L182.005 1404.03 L79.1124 1365.24 L79.1124 1334.76 L230.312 1334.76 L230.312 1354.71 L97.5441 1354.71 L201.247 1393.7 L201.247 1414.26 L97.5441 1453.25 L230.312 1453.25 L230.312 1473.1 L79.1124 1473.1 Z" fill="#000000" fill-rule="nonzero" fill-opacity="1" /><path clip-path="url(#clip590)" d="M79.1124 1307.62 L79.1124 1286.96 L206.918 1255.16 L79.1124 1223.46 L79.1124 1200.47 L206.918 1168.67 L79.1124 1136.97 L79.1124 1116.21 L230.312 1154.19 L230.312 1179.91 L99.0631 1211.81 L230.312 1244.02 L230.312 1269.74 L79.1124 1307.62 Z" fill="#000000" fill-rule="nonzero" fill-opacity="1" /><path clip-path="url(#clip590)" d="M72.9348 1092.82 L72.9348 1076.61 Q96.8351 1061.42 119.723 1053.93 Q142.61 1046.33 165.194 1046.33 Q187.879 1046.33 210.868 1053.93 Q233.857 1061.42 257.656 1076.61 L257.656 1092.82 Q234.465 1079.35 211.577 1072.76 Q188.588 1066.08 165.194 1066.08 Q141.8 1066.08 119.014 1072.76 Q96.2275 1079.35 72.9348 1092.82 Z" fill="#000000" fill-rule="nonzero" fill-opacity="1" /><path clip-path="url(#clip590)" d="M1853.2 34.56 L1962.46 34.56 L1962.46 54.2358 L1876.58 54.2358 L1876.58 105.393 L1958.87 105.393 L1958.87 125.069 L1876.58 125.069 L1876.58 187.684 L1964.54 187.684 L1964.54 207.36 L1853.2 207.36 L1853.2 34.56 Z" fill="#000000" fill-rule="nonzero" fill-opacity="1" /><path clip-path="url(#clip590)" d="M2002.04 27.2684 L2023.34 27.2684 L2023.34 207.36 L2002.04 207.36 L2002.04 27.2684 Z" fill="#000000" fill-rule="nonzero" fill-opacity="1" /><path clip-path="url(#clip590)" d="M2178.78 137.221 L2178.78 147.638 L2080.86 147.638 Q2082.25 169.629 2094.05 181.203 Q2105.98 192.661 2127.16 192.661 Q2139.42 192.661 2150.88 189.652 Q2162.46 186.643 2173.8 180.624 L2173.8 200.763 Q2162.34 205.624 2150.3 208.17 Q2138.27 210.716 2125.88 210.716 Q2094.86 210.716 2076.69 192.661 Q2058.64 174.606 2058.64 143.819 Q2058.64 111.99 2075.77 93.356 Q2093.01 74.6061 2122.18 74.6061 Q2148.34 74.6061 2163.5 91.5041 Q2178.78 108.286 2178.78 137.221 M2157.48 130.972 Q2157.25 113.495 2147.64 103.078 Q2138.15 92.6615 2122.41 92.6615 Q2104.59 92.6615 2093.82 102.731 Q2083.17 112.8 2081.55 131.087 L2157.48 130.972 Z" fill="#000000" fill-rule="nonzero" fill-opacity="1" /><path clip-path="url(#clip590)" d="M2307.02 82.7079 L2307.02 102.615 Q2297.99 97.6384 2288.84 95.2078 Q2279.82 92.6615 2270.56 92.6615 Q2249.84 92.6615 2238.38 105.856 Q2226.92 118.935 2226.92 142.661 Q2226.92 166.388 2238.38 179.582 Q2249.84 192.661 2270.56 192.661 Q2279.82 192.661 2288.84 190.23 Q2297.99 187.684 2307.02 182.707 L2307.02 202.383 Q2298.1 206.55 2288.5 208.633 Q2279.01 210.716 2268.24 210.716 Q2238.96 210.716 2221.72 192.314 Q2204.47 173.911 2204.47 142.661 Q2204.47 110.948 2221.83 92.7773 Q2239.31 74.6061 2269.63 74.6061 Q2279.47 74.6061 2288.84 76.6894 Q2298.22 78.657 2307.02 82.7079 Z" fill="#000000" fill-rule="nonzero" fill-opacity="1" /><path clip-path="url(#clip590)" d="M2365.12 40.9257 L2365.12 77.7311 L2408.98 77.7311 L2408.98 94.2819 L2365.12 94.2819 L2365.12 164.652 Q2365.12 180.508 2369.4 185.022 Q2373.8 189.536 2387.11 189.536 L2408.98 189.536 L2408.98 207.36 L2387.11 207.36 Q2362.46 207.36 2353.08 198.217 Q2343.71 188.957 2343.71 164.652 L2343.71 94.2819 L2328.08 94.2819 L2328.08 77.7311 L2343.71 77.7311 L2343.71 40.9257 L2365.12 40.9257 Z" fill="#000000" fill-rule="nonzero" fill-opacity="1" /><path clip-path="url(#clip590)" d="M2512.11 97.6384 Q2508.52 95.555 2504.24 94.6291 Q2500.07 93.5875 2494.98 93.5875 Q2476.92 93.5875 2467.2 105.393 Q2457.59 117.083 2457.59 139.073 L2457.59 207.36 L2436.18 207.36 L2436.18 77.7311 L2457.59 77.7311 L2457.59 97.8698 Q2464.31 86.0644 2475.07 80.3931 Q2485.83 74.6061 2501.23 74.6061 Q2503.43 74.6061 2506.09 74.9533 Q2508.75 75.1848 2511.99 75.7635 L2512.11 97.6384 Z" fill="#000000" fill-rule="nonzero" fill-opacity="1" /><path clip-path="url(#clip590)" d="M2534.45 77.7311 L2555.74 77.7311 L2555.74 207.36 L2534.45 207.36 L2534.45 77.7311 M2534.45 27.2684 L2555.74 27.2684 L2555.74 54.2358 L2534.45 54.2358 L2534.45 27.2684 Z" fill="#000000" fill-rule="nonzero" fill-opacity="1" /><path clip-path="url(#clip590)" d="M2693.59 82.7079 L2693.59 102.615 Q2684.56 97.6384 2675.42 95.2078 Q2666.39 92.6615 2657.13 92.6615 Q2636.41 92.6615 2624.95 105.856 Q2613.5 118.935 2613.5 142.661 Q2613.5 166.388 2624.95 179.582 Q2636.41 192.661 2657.13 192.661 Q2666.39 192.661 2675.42 190.23 Q2684.56 187.684 2693.59 182.707 L2693.59 202.383 Q2684.68 206.55 2675.07 208.633 Q2665.58 210.716 2654.81 210.716 Q2625.53 210.716 2608.29 192.314 Q2591.04 173.911 2591.04 142.661 Q2591.04 110.948 2608.4 92.7773 Q2625.88 74.6061 2656.2 74.6061 Q2666.04 74.6061 2675.42 76.6894 Q2684.79 78.657 2693.59 82.7079 Z" fill="#000000" fill-rule="nonzero" fill-opacity="1" /><path clip-path="url(#clip590)" d="M2789.54 142.198 Q2763.73 142.198 2753.77 148.101 Q2743.82 154.004 2743.82 168.24 Q2743.82 179.582 2751.23 186.295 Q2758.75 192.892 2771.6 192.892 Q2789.3 192.892 2799.95 180.393 Q2810.72 167.777 2810.72 146.944 L2810.72 142.198 L2789.54 142.198 M2832.01 133.402 L2832.01 207.36 L2810.72 207.36 L2810.72 187.684 Q2803.43 199.49 2792.55 205.161 Q2781.67 210.716 2765.93 210.716 Q2746.02 210.716 2734.21 199.605 Q2722.52 188.379 2722.52 169.629 Q2722.52 147.754 2737.11 136.643 Q2751.81 125.532 2780.86 125.532 L2810.72 125.532 L2810.72 123.448 Q2810.72 108.749 2800.99 100.763 Q2791.39 92.6615 2773.91 92.6615 Q2762.8 92.6615 2752.27 95.3236 Q2741.74 97.9856 2732.01 103.31 L2732.01 83.6338 Q2743.7 79.1199 2754.7 76.9209 Q2765.69 74.6061 2776.11 74.6061 Q2804.24 74.6061 2818.12 89.1893 Q2832.01 103.773 2832.01 133.402 Z" fill="#000000" fill-rule="nonzero" fill-opacity="1" /><path clip-path="url(#clip590)" d="M2875.88 27.2684 L2897.17 27.2684 L2897.17 207.36 L2875.88 207.36 L2875.88 27.2684 Z" fill="#000000" fill-rule="nonzero" fill-opacity="1" /><path clip-path="url(#clip590)" d="M3041.39 53.7729 L3041.39 118.703 L3070.78 118.703 Q3087.1 118.703 3096.02 110.254 Q3104.93 101.805 3104.93 86.1801 Q3104.93 70.6709 3096.02 62.2219 Q3087.1 53.7729 3070.78 53.7729 L3041.39 53.7729 M3018.01 34.56 L3070.78 34.56 Q3099.84 34.56 3114.65 47.7544 Q3129.58 60.833 3129.58 86.1801 Q3129.58 111.759 3114.65 124.837 Q3099.84 137.916 3070.78 137.916 L3041.39 137.916 L3041.39 207.36 L3018.01 207.36 L3018.01 34.56 Z" fill="#000000" fill-rule="nonzero" fill-opacity="1" /><path clip-path="url(#clip590)" d="M3201.8 92.6615 Q3184.67 92.6615 3174.72 106.087 Q3164.77 119.398 3164.77 142.661 Q3164.77 165.925 3174.6 179.351 Q3184.56 192.661 3201.8 192.661 Q3218.82 192.661 3228.77 179.235 Q3238.72 165.809 3238.72 142.661 Q3238.72 119.629 3228.77 106.203 Q3218.82 92.6615 3201.8 92.6615 M3201.8 74.6061 Q3229.58 74.6061 3245.44 92.6615 Q3261.29 110.717 3261.29 142.661 Q3261.29 174.49 3245.44 192.661 Q3229.58 210.716 3201.8 210.716 Q3173.91 210.716 3158.05 192.661 Q3142.31 174.49 3142.31 142.661 Q3142.31 110.717 3158.05 92.6615 Q3173.91 74.6061 3201.8 74.6061 Z" fill="#000000" fill-rule="nonzero" fill-opacity="1" /><path clip-path="url(#clip590)" d="M3284.21 77.7311 L3305.51 77.7311 L3332.13 178.888 L3358.63 77.7311 L3383.75 77.7311 L3410.37 178.888 L3436.87 77.7311 L3458.17 77.7311 L3424.26 207.36 L3399.14 207.36 L3371.25 101.111 L3343.24 207.36 L3318.12 207.36 L3284.21 77.7311 Z" fill="#000000" fill-rule="nonzero" fill-opacity="1" /><path clip-path="url(#clip590)" d="M3601.34 137.221 L3601.34 147.638 L3503.42 147.638 Q3504.81 169.629 3516.62 181.203 Q3528.54 192.661 3549.72 192.661 Q3561.99 192.661 3573.44 189.652 Q3585.02 186.643 3596.36 180.624 L3596.36 200.763 Q3584.9 205.624 3572.87 208.17 Q3560.83 210.716 3548.44 210.716 Q3517.43 210.716 3499.25 192.661 Q3481.2 174.606 3481.2 143.819 Q3481.2 111.99 3498.33 93.356 Q3515.57 74.6061 3544.74 74.6061 Q3570.9 74.6061 3586.06 91.5041 Q3601.34 108.286 3601.34 137.221 M3580.04 130.972 Q3579.81 113.495 3570.2 103.078 Q3560.71 92.6615 3544.97 92.6615 Q3527.15 92.6615 3516.38 102.731 Q3505.74 112.8 3504.12 131.087 L3580.04 130.972 Z" fill="#000000" fill-rule="nonzero" fill-opacity="1" /><path clip-path="url(#clip590)" d="M3711.41 97.6384 Q3707.82 95.555 3703.54 94.6291 Q3699.37 93.5875 3694.28 93.5875 Q3676.22 93.5875 3666.5 105.393 Q3656.89 117.083 3656.89 139.073 L3656.89 207.36 L3635.48 207.36 L3635.48 77.7311 L3656.89 77.7311 L3656.89 97.8698 Q3663.61 86.0644 3674.37 80.3931 Q3685.13 74.6061 3700.53 74.6061 Q3702.73 74.6061 3705.39 74.9533 Q3708.05 75.1848 3711.29 75.7635 L3711.41 97.6384 Z" fill="#000000" fill-rule="nonzero" fill-opacity="1" /><polyline clip-path="url(#clip592)" style="stroke:#009af9; stroke-linecap:round; stroke-linejoin:round; stroke-width:12; stroke-opacity:1; fill:none" points="1057.09,1533.38 1064.01,1534.57 1070.92,1536.94 1077.84,1540.49 1084.75,1545.21 1091.67,1551.07 1098.58,1558.06 1105.5,1566.14 1112.41,1575.28 1119.33,1585.43 1126.24,1596.53 1133.16,1608.52 1140.07,1621.31 1146.98,1634.81 1153.9,1648.93 1160.81,1663.55 1167.73,1678.56 1174.64,1693.82 1181.56,1709.22 1188.47,1724.61 1195.39,1739.85 1202.3,1754.83 1209.22,1769.41 1216.13,1783.47 1223.05,1796.89 1229.96,1809.57 1236.88,1821.42 1243.79,1832.35 1250.7,1842.28 1257.62,1851.17 1264.53,1858.95 1264.53,1928.42 1271.45,1954.19 1278.36,1976.04 1285.28,1994.51 1292.19,2010.04 1299.11,2023.04 1306.02,2033.82 1312.94,2042.64 1319.85,2049.69 1326.77,2055.12 1333.68,2059.02 1340.6,2061.46 1347.51,2062.47 1354.42,2062.06 1361.34,2060.26 1368.25,2057.05 1375.17,2052.47 1382.08,2046.52 1389,2039.25 1395.91,2030.72 1402.83,2020.98 1409.74,2010.12 1416.66,1998.25 1423.57,1985.48 1430.49,1971.91 1437.4,1957.66 1444.32,1942.85 1451.23,1927.55 1458.14,1911.86 1465.06,1895.81 1471.97,1879.45 1478.89,1862.75 1485.8,1845.66 1492.72,1828.11 1499.63,1809.97 1506.55,1791.06 1513.46,1771.21 1520.38,1750.17 1527.29,1727.7 1534.21,1703.55 1541.12,1677.47 1548.04,1649.21 1554.95,1618.57 1561.86,1585.4 1568.78,1549.6 1575.69,1511.16 1582.61,1470.13 1589.52,1426.66 1596.44,1380.97 1603.35,1333.35 1610.27,1284.17 1617.18,1233.83 1624.1,1182.73 1631.01,1131.31 1637.93,1079.99 1644.84,1029.17 1651.76,979.215 1658.67,930.46 1665.58,883.207 1672.5,837.728 1679.41,794.264 1686.33,753.034 1693.24,714.231 1700.16,678.024 1707.07,644.553 1713.99,613.927 1720.9,586.217 1727.82,561.449 1734.73,539.6 1741.65,520.595 1748.56,504.308 1755.48,490.565 1762.39,479.151 1769.3,469.821 1776.22,462.311 1783.13,456.353 1790.05,451.693 1796.96,448.103 1803.88,445.4 1810.79,443.457 1817.71,442.216 1824.62,441.702 1831.54,442.025 1838.45,443.391 1845.37,446.095 1852.28,450.526 1859.2,457.151 1866.11,466.504 1873.02,479.165 1879.94,495.728 1886.85,516.774 1893.77,542.828 1900.68,574.317 1907.6,611.536 1914.51,654.611 1921.43,703.473 1928.34,757.845 1935.26,817.247 1942.17,881.011 1949.09,948.312 1956,1018.21 1962.92,1089.72 1969.83,1161.81 1976.74,1233.5 1983.66,1303.89 1990.57,1372.17 1997.49,1437.66 2004.4,1499.79 2011.32,1558.14 2018.23,1612.4 2025.15,1662.38 2032.06,1707.98 2038.98,1749.19 2045.89,1786.07 2052.81,1818.74 2059.72,1847.37 2066.63,1872.17 2073.55,1893.37 2080.46,1911.23 2087.38,1926.04 2094.29,1938.06 2101.21,1947.61 2108.12,1954.97 2115.04,1960.44 2121.95,1964.28 2128.87,1966.78 2135.78,1968.18 2142.7,1968.72 2149.61,1968.6 2156.53,1968.03 2163.44,1967.15 2170.35,1966.11 2177.27,1965.01 2184.18,1963.92 2191.1,1962.89 2198.01,1961.92 2204.93,1961.01 2211.84,1960.1 2218.76,1959.11 2225.67,1957.92 2232.59,1956.38 2239.5,1954.33 2246.42,1951.56 2253.33,1947.84 2260.25,1942.91 2267.16,1936.51 2274.07,1928.35 2280.99,1918.13 2287.9,1905.54 2294.82,1890.28 2301.73,1872.06 2308.65,1850.59 2315.56,1825.62 2322.48,1796.92 2329.39,1764.3 2336.31,1727.61 2343.22,1686.77 2350.14,1641.74 2357.05,1592.58 2363.97,1539.4 2370.88,1482.44 2377.79,1422 2384.71,1358.52 2391.62,1292.5 2398.54,1224.6 2405.45,1155.54 2412.37,1086.13 2419.28,1017.25 2426.2,949.805 2433.11,884.692 2440.03,822.76 2446.94,764.775 2453.86,711.375 2460.77,663.042 2467.69,620.086 2474.6,582.633 2481.51,550.63 2488.43,523.866 2495.34,501.99 2502.26,484.553 2509.17,471.032 2516.09,460.874 2523,453.523 2529.92,448.451 2536.83,445.179 2543.75,443.299 2550.66,442.481 2557.58,442.485 2564.49,443.16 2571.41,444.447 2578.32,446.371 2585.23,449.04 2592.15,452.625 2599.06,457.359 2605.98,463.517 2612.89,471.401 2619.81,481.325 2626.72,493.598 2633.64,508.508 2640.55,526.309 2647.47,547.205 2654.38,571.344 2661.3,598.811 2668.21,629.627 2675.13,663.748 2682.04,701.07 2688.95,741.434 2695.87,784.633 2702.78,830.416 2709.7,878.497 2716.61,928.554 2723.53,980.236 2730.44,1033.16 2737.36,1086.92 2744.27,1141.09 2751.19,1195.21 2758.1,1248.83 2765.02,1301.49 2771.93,1352.76 2778.85,1402.21 2785.76,1449.49 2792.67,1494.3 2799.59,1536.41 2806.5,1575.66 2813.42,1611.99 2820.33,1645.41 2827.25,1676.01 2834.16,1703.93 2841.08,1729.38 2847.99,1752.61 2854.91,1773.86 2861.82,1793.42 2868.74,1811.55 2875.65,1828.51 2882.57,1844.52 2889.48,1859.79 2896.39,1874.48 2903.31,1888.72 2910.22,1902.61 2917.14,1916.2 2924.05,1929.52 2930.97,1942.56 2937.88,1955.28 2944.8,1967.62 2951.71,1979.5 2958.63,1990.83 2965.54,2001.5 2972.46,2011.41 2979.37,2020.45 2986.29,2028.52 2993.2,2035.5 3000.11,2041.32 3007.03,2045.89 3013.94,2049.14 3020.86,2050.98 3027.77,2051.37 3034.69,2050.22 3041.6,2047.45 3048.52,2042.98 3055.43,2036.69 3062.35,2028.44 3069.26,2018.04 3076.18,2005.26 3083.09,1989.84 3090.01,1971.44 3096.92,1949.69 3103.83,1924.15 3110.75,1894.36 3117.66,1859.84 3124.58,1820.09 3131.49,1774.69 3138.41,1723.27 3145.32,1665.63 3152.24,1601.75 3159.15,1531.86 3166.07,1456.5 3172.98,1376.5 3179.9,1293.03 3186.81,1207.52 3193.73,1121.59 3200.64,1036.98 3207.55,955.374 3214.47,878.315 3221.38,807.084 3228.3,742.621 3235.21,685.486 3242.13,635.865 3249.04,593.605 3255.96,558.281 3262.87,529.278 3269.79,505.867 3276.7,487.284 3283.62,472.794 3290.53,461.73 3297.45,453.53 3304.36,447.749 3311.27,444.068 3318.19,442.279 3325.1,442.281 3332.02,444.055 3338.93,447.645 3345.85,453.13 3352.76,460.606 3359.68,470.157 3366.59,481.839 3373.51,495.666 3380.42,511.597 3387.34,529.536 3394.25,549.328 3401.16,570.774 3408.08,593.639 3414.99,617.664 3421.91,642.592 3428.82,668.179 3435.74,694.212 3442.65,720.526 3449.57,747.011 3456.48,773.622 3463.4,800.378 3470.31,827.358 3477.23,854.69 3484.14,882.536 3491.06,911.072 3497.97,940.468 3504.88,970.863 3511.8,1002.34 3518.71,1034.93 3525.63,1068.57 3532.54,1103.13 3539.46,1138.4 3546.37,1174.12 3553.29,1210 3560.2,1245.75 3567.12,1281.09 3574.03,1315.81 3580.95,1349.73 3587.86,1382.78 3594.78,1414.95 3601.69,1446.32 3608.6,1477.01 3615.52,1507.21 3622.43,1537.12 3629.35,1566.96 3636.26,1596.93 3643.18,1627.21 3650.09,1657.91 3657.01,1689.09 3663.92,1720.74 3670.84,1752.77 3677.75,1785.01 3684.67,1817.21 3691.58,1849.08 3698.5,1880.24 3705.41,1910.3 3712.32,1938.85 3719.24,1965.5 3726.15,1989.87 3733.07,2011.63 3739.98,2030.55 3746.9,2046.44 3753.81,2059.22 3760.73,2068.9 3767.64,2075.59 3774.56,2079.46 3781.47,2080.77 3788.39,2079.83 3795.3,2077 3802.22,2072.66 3809.13,2067.19 3816.04,2060.98 3822.96,2054.38 3829.87,2047.74 3836.79,2041.34 3843.7,2035.44 3850.62,2030.24 3857.53,2025.89 3864.45,2022.48 3871.36,2020.04 3878.28,2018.52 3885.19,2017.82 3892.11,2017.72 3899.02,2017.91 3905.94,2018 3912.85,2017.44 3919.76,2015.56 3926.68,2011.57 3933.59,2004.5 3940.51,1993.3 3947.42,1976.8 3954.34,1953.79 3961.25,1923.12 3968.17,1883.76 3975.08,1834.99 3982,1776.45 3988.91,1708.32 3995.83,1631.39 4002.74,1547.07 4009.66,1457.3 4016.57,1364.47 4023.48,1271.14 4030.4,1179.83 4037.31,1092.74 4044.23,1011.61 4051.14,937.594 4058.06,871.225 4064.97,812.499 4071.89,760.984 4078.8,715.977 4085.72,676.651 4092.63,642.19 4099.55,611.893 4106.46,585.239 4113.38,561.928 4120.29,541.883 4127.2,525.227 4134.12,512.244 4141.03,503.314 4147.95,498.843 4154.86,499.192 4161.78,504.605 4168.69,515.153 4175.61,530.703 4182.52,550.901 4189.44,575.195 4196.35,602.867 4203.27,633.087 4210.18,664.971 4217.1,697.631 4224.01,730.23 4230.92,762.011 4237.84,792.327 4244.75,820.647 4251.67,846.568 4258.58,869.803 4265.5,890.181 4272.41,907.633 4279.33,922.185 4286.24,933.944 4293.16,943.094 4300.07,949.884 4306.99,954.621 4313.9,957.663 4320.82,959.41 4327.73,960.298 4334.64,960.788 4341.56,961.352 4348.47,962.47 4355.39,964.602 4362.3,968.184 4369.22,973.6 4376.13,981.169 4383.05,991.129 4389.96,1003.62 4396.88,1018.68 4403.79,1036.25 4410.71,1056.22 4417.62,1078.4 4424.54,1102.61 4431.45,1128.69 4438.36,1156.56 4445.28,1186.18 4452.19,1217.65 4459.11,1251.14 4466.02,1286.88 4472.94,1325.17 4479.85,1366.28 4486.77,1410.41 4493.68,1457.67 4500.6,1507.99 4507.51,1561.1 "/>
<polyline clip-path="url(#clip592)" style="stroke:#e26f46; stroke-linecap:round; stroke-linejoin:round; stroke-width:12; stroke-opacity:1; fill:none" points="1057.09,1959.49 1064.01,1959.49 1070.92,1959.49 1077.84,1959.49 1084.75,1959.49 1091.67,1959.49 1098.58,1959.49 1105.5,1959.49 1112.41,1959.49 1119.33,1959.49 1126.24,1959.49 1133.16,1959.49 1140.07,1959.49 1146.98,1959.49 1153.9,1959.49 1160.81,1959.49 1167.73,1959.49 1174.64,1959.49 1181.56,1959.49 1188.47,1959.49 1195.39,1959.49 1202.3,1959.49 1209.22,1959.49 1216.13,1959.49 1223.05,1959.49 1229.96,1959.49 1236.88,1959.49 1243.79,1959.49 1250.7,1959.49 1257.62,1959.49 1264.53,1959.49 1264.53,1489.19 1271.45,1480.77 1278.36,1469.91 1285.28,1456.65 1292.19,1441.04 1299.11,1423.19 1306.02,1403.2 1312.94,1381.23 1319.85,1357.49 1326.77,1332.2 1333.68,1305.67 1340.6,1278.2 1347.51,1250.15 1354.42,1221.89 1361.34,1193.78 1368.25,1166.18 1375.17,1139.42 1382.08,1113.78 1389,1089.48 1395.91,1066.71 1402.83,1045.56 1409.74,1026.09 1416.66,1008.28 1423.57,992.076 1430.49,977.391 1437.4,964.119 1444.32,952.155 1451.23,941.409 1458.14,931.823 1465.06,923.39 1471.97,916.161 1478.89,910.261 1485.8,905.896 1492.72,903.354 1499.63,903.011 1506.55,905.32 1513.46,910.801 1520.38,920.023 1527.29,933.577 1534.21,952.041 1541.12,975.947 1548.04,1005.73 1554.95,1041.7 1561.86,1083.98 1568.78,1132.49 1575.69,1186.93 1582.61,1246.77 1589.52,1311.25 1596.44,1379.42 1603.35,1450.22 1610.27,1522.44 1617.18,1594.9 1624.1,1666.38 1631.01,1735.79 1637.93,1802.13 1644.84,1864.54 1651.76,1922.32 1658.67,1974.95 1665.58,2022.04 1672.5,2063.38 1679.41,2098.86 1686.33,2128.48 1693.24,2152.36 1700.16,2170.67 1707.07,2183.66 1713.99,2191.62 1720.9,2194.87 1727.82,2193.81 1734.73,2188.81 1741.65,2180.31 1748.56,2168.73 1755.48,2154.55 1762.39,2138.2 1769.3,2120.15 1776.22,2100.83 1783.13,2080.67 1790.05,2060.07 1796.96,2039.38 1803.88,2018.92 1810.79,1998.96 1817.71,1979.73 1824.62,1961.37 1831.54,1944.02 1838.45,1927.73 1845.37,1912.52 1852.28,1898.36 1859.2,1885.17 1866.11,1872.83 1873.02,1861.2 1879.94,1850.09 1886.85,1839.27 1893.77,1828.51 1900.68,1817.55 1907.6,1806.12 1914.51,1793.93 1921.43,1780.72 1928.34,1766.25 1935.26,1750.28 1942.17,1732.64 1949.09,1713.19 1956,1691.86 1962.92,1668.62 1969.83,1643.51 1976.74,1616.63 1983.66,1588.1 1990.57,1558.12 1997.49,1526.88 2004.4,1494.64 2011.32,1461.63 2018.23,1428.12 2025.15,1394.39 2032.06,1360.69 2038.98,1327.31 2045.89,1294.5 2052.81,1262.53 2059.72,1231.65 2066.63,1202.08 2073.55,1174.05 2080.46,1147.74 2087.38,1123.29 2094.29,1100.84 2101.21,1080.44 2108.12,1062.14 2115.04,1045.91 2121.95,1031.71 2128.87,1019.44 2135.78,1008.97 2142.7,1000.17 2149.61,992.876 2156.53,986.924 2163.44,982.163 2170.35,978.452 2177.27,975.673 2184.18,973.739 2191.1,972.596 2198.01,972.227 2204.93,972.655 2211.84,973.943 2218.76,976.19 2225.67,979.528 2232.59,984.117 2239.5,990.138 2246.42,997.786 2253.33,1007.25 2260.25,1018.73 2267.16,1032.39 2274.07,1048.36 2280.99,1066.77 2287.9,1087.65 2294.82,1111.03 2301.73,1136.86 2308.65,1165.05 2315.56,1195.45 2322.48,1227.87 2329.39,1262.07 2336.31,1297.78 2343.22,1334.69 2350.14,1372.5 2357.05,1410.84 2363.97,1449.38 2370.88,1487.75 2377.79,1525.6 2384.71,1562.58 2391.62,1598.36 2398.54,1632.62 2405.45,1665.08 2412.37,1695.52 2419.28,1723.74 2426.2,1749.61 2433.11,1773.08 2440.03,1794.14 2446.94,1812.88 2453.86,1829.41 2460.77,1843.93 2467.69,1856.67 2474.6,1867.91 2481.51,1877.94 2488.43,1887.06 2495.34,1895.58 2502.26,1903.8 2509.17,1911.98 2516.09,1920.37 2523,1929.2 2529.92,1938.64 2536.83,1948.83 2543.75,1959.87 2550.66,1971.81 2557.58,1984.66 2564.49,1998.37 2571.41,2012.85 2578.32,2027.96 2585.23,2043.5 2592.15,2059.22 2599.06,2074.84 2605.98,2090.01 2612.89,2104.37 2619.81,2117.51 2626.72,2129.01 2633.64,2138.42 2640.55,2145.3 2647.47,2149.19 2654.38,2149.66 2661.3,2146.29 2668.21,2138.71 2675.13,2126.56 2682.04,2109.54 2688.95,2087.41 2695.87,2059.99 2702.78,2027.2 2709.7,1989.02 2716.61,1945.57 2723.53,1897.05 2730.44,1843.81 2737.36,1786.34 2744.27,1725.23 2751.19,1661.24 2758.1,1595.23 2765.02,1528.14 2771.93,1461.01 2778.85,1394.87 2785.76,1330.75 2792.67,1269.63 2799.59,1212.36 2806.5,1159.65 2813.42,1112.06 2820.33,1069.94 2827.25,1033.46 2834.16,1002.6 2841.08,977.186 2847.99,956.902 2854.91,941.338 2861.82,930.017 2868.74,922.429 2875.65,918.066 2882.57,916.44 2889.48,917.112 2896.39,919.7 2903.31,923.891 2910.22,929.447 2917.14,936.2 2924.05,944.054 2930.97,952.973 2937.88,962.972 2944.8,974.109 2951.71,986.468 2958.63,1000.14 2965.54,1015.23 2972.46,1031.82 2979.37,1049.94 2986.29,1069.61 2993.2,1090.79 3000.11,1113.39 3007.03,1137.24 3013.94,1162.15 3020.86,1187.87 3027.77,1214.11 3034.69,1240.55 3041.6,1266.87 3048.52,1292.75 3055.43,1317.88 3062.35,1341.98 3069.26,1364.79 3076.18,1386.11 3083.09,1405.76 3090.01,1423.59 3096.92,1439.5 3103.83,1453.42 3110.75,1465.29 3117.66,1475.09 3124.58,1482.79 3131.49,1488.43 3138.41,1492.05 3145.32,1493.74 3152.24,1493.62 3159.15,1491.89 3166.07,1488.83 3172.98,1484.76 3179.9,1480.1 3186.81,1475.32 3193.73,1470.94 3200.64,1467.51 3207.55,1465.56 3214.47,1465.56 3221.38,1467.95 3228.3,1473.08 3235.21,1481.19 3242.13,1492.47 3249.04,1507.01 3255.96,1524.86 3262.87,1546.03 3269.79,1570.52 3276.7,1598.32 3283.62,1629.41 3290.53,1663.74 3297.45,1701.27 3304.36,1741.86 3311.27,1785.35 3318.19,1831.43 3325.1,1879.72 3332.02,1929.7 3338.93,1980.73 3345.85,2032.08 3352.76,2082.96 3359.68,2132.54 3366.59,2180 3373.51,2224.59 3380.42,2265.63 3387.34,2302.57 3394.25,2334.97 3401.16,2362.53 3408.08,2385.05 3414.99,2402.38 3421.91,2414.47 3428.82,2421.24 3435.74,2422.59 3442.65,2418.39 3449.57,2408.42 3456.48,2392.37 3463.4,2369.84 3470.31,2340.37 3477.23,2303.47 3484.14,2258.62 3491.06,2205.41 3497.97,2143.56 3504.88,2073.03 3511.8,1994.1 3518.71,1907.47 3525.63,1814.25 3532.54,1716.03 3539.46,1614.8 3546.37,1512.86 3553.29,1412.64 3560.2,1316.59 3567.12,1226.91 3574.03,1145.43 3580.95,1073.5 3587.86,1011.86 3594.78,960.741 3601.69,919.832 3608.6,888.437 3615.52,865.571 3622.43,850.089 3629.35,840.792 3636.26,836.526 3643.18,836.246 3650.09,839.064 3657.01,844.274 3663.92,851.361 3670.84,860 3677.75,870.037 3684.67,881.474 3691.58,894.439 3698.5,909.153 3705.41,925.9 3712.32,944.991 3719.24,966.723 3726.15,991.346 3733.07,1019.03 3739.98,1049.84 3746.9,1083.71 3753.81,1120.45 3760.73,1159.7 3767.64,1201.01 3774.56,1243.8 3781.47,1287.43 3788.39,1331.21 3795.3,1374.45 3802.22,1416.49 3809.13,1456.72 3816.04,1494.63 3822.96,1529.79 3829.87,1561.87 3836.79,1590.64 3843.7,1615.96 3850.62,1637.76 3857.53,1656.03 3864.45,1670.78 3871.36,1682.05 3878.28,1689.88 3885.19,1694.29 3892.11,1695.28 3899.02,1692.78 3905.94,1686.72 3912.85,1676.96 3919.76,1663.33 3926.68,1645.65 3933.59,1623.72 3940.51,1597.41 3947.42,1566.64 3954.34,1531.44 3961.25,1492.04 3968.17,1448.88 3975.08,1402.66 3982,1354.35 3988.91,1305.17 3995.83,1256.55 4002.74,1210.03 4009.66,1167.16 4016.57,1129.34 4023.48,1097.72 4030.4,1073.11 4037.31,1055.97 4044.23,1046.36 4051.14,1044.07 4058.06,1048.68 4064.97,1059.71 4071.89,1076.67 4078.8,1099.24 4085.72,1127.26 4092.63,1160.82 4099.55,1200.24 4106.46,1246.01 4113.38,1298.72 4120.29,1358.95 4127.2,1427.11 4134.12,1503.25 4141.03,1586.97 4147.95,1677.28 4154.86,1772.56 4161.78,1870.66 4168.69,1969.03 4175.61,2064.97 4182.52,2155.87 4189.44,2239.49 4196.35,2314.14 4203.27,2378.77 4210.18,2433 4217.1,2477.06 4224.01,2511.65 4230.92,2537.77 4237.84,2556.6 4244.75,2569.33 4251.67,2577.07 4258.58,2580.72 4265.5,2580.95 4272.41,2578.15 4279.33,2572.39 4286.24,2563.4 4293.16,2550.59 4300.07,2533.04 4306.99,2509.55 4313.9,2478.66 4320.82,2438.75 4327.73,2388.18 4334.64,2325.46 4341.56,2249.47 4348.47,2159.69 4355.39,2056.49 4362.3,1941.29 4369.22,1816.62 4376.13,1686.05 4383.05,1553.91 4389.96,1424.83 4396.88,1303.29 4403.79,1193.05 4410.71,1096.83 4417.62,1016.08 4424.54,951.049 4431.45,900.908 4438.36,864.064 4445.28,838.466 4452.19,821.895 4459.11,812.206 4466.02,807.485 4472.94,806.162 4479.85,807.052 4486.77,809.374 4493.68,812.735 4500.6,817.099 4507.51,822.748 "/>
<polyline clip-path="url(#clip592)" style="stroke:#3da44d; stroke-linecap:round; stroke-linejoin:round; stroke-width:12; stroke-opacity:1; fill:none" points="1057.09,1798.22 1064.01,1797.05 1070.92,1794.72 1077.84,1791.24 1084.75,1786.63 1091.67,1780.94 1098.58,1774.21 1105.5,1766.5 1112.41,1757.86 1119.33,1748.37 1126.24,1738.13 1133.16,1727.22 1140.07,1715.76 1146.98,1703.86 1153.9,1691.65 1160.81,1679.26 1167.73,1666.82 1174.64,1654.48 1181.56,1642.36 1188.47,1630.61 1195.39,1619.36 1202.3,1608.73 1209.22,1598.83 1216.13,1589.77 1223.05,1581.64 1229.96,1574.53 1236.88,1568.49 1243.79,1563.59 1250.7,1559.87 1257.62,1557.36 1264.53,1556.09 1264.53,962.002 1271.45,970.388 1278.36,982.572 1285.28,997.985 1292.19,1016.17 1299.11,1036.76 1306.02,1059.47 1312.94,1084.09 1319.85,1110.41 1326.77,1138.26 1333.68,1167.47 1340.6,1197.84 1347.51,1229.16 1354.42,1261.2 1361.34,1293.69 1368.25,1326.37 1375.17,1358.94 1382.08,1391.13 1389,1422.65 1395.91,1453.26 1402.83,1482.72 1409.74,1510.82 1416.66,1537.39 1423.57,1562.26 1430.49,1585.32 1437.4,1606.44 1444.32,1625.51 1451.23,1642.42 1458.14,1657.05 1465.06,1669.27 1471.97,1678.94 1478.89,1685.87 1485.8,1689.87 1492.72,1690.75 1499.63,1688.29 1506.55,1682.28 1513.46,1672.53 1520.38,1658.89 1527.29,1641.29 1534.21,1619.73 1541.12,1594.32 1548.04,1565.32 1554.95,1533.12 1561.86,1498.26 1568.78,1461.45 1575.69,1423.52 1582.61,1385.38 1589.52,1348.02 1596.44,1312.44 1603.35,1279.6 1610.27,1250.38 1617.18,1225.54 1624.1,1205.66 1631.01,1191.21 1637.93,1182.43 1644.84,1179.46 1651.76,1182.23 1658.67,1190.6 1665.58,1204.28 1672.5,1222.93 1679.41,1246.12 1686.33,1273.38 1693.24,1304.2 1700.16,1338.07 1707.07,1374.44 1713.99,1412.78 1720.9,1452.56 1727.82,1493.25 1734.73,1534.37 1741.65,1575.43 1748.56,1615.99 1755.48,1655.65 1762.39,1694.02 1769.3,1730.74 1776.22,1765.48 1783.13,1797.95 1790.05,1827.85 1796.96,1854.92 1803.88,1878.89 1810.79,1899.49 1817.71,1916.47 1824.62,1929.55 1831.54,1938.46 1838.45,1942.93 1845.37,1942.68 1852.28,1937.46 1859.2,1927.01 1866.11,1911.15 1873.02,1889.75 1879.94,1862.78 1886.85,1830.3 1893.77,1792.54 1900.68,1749.9 1907.6,1702.92 1914.51,1652.35 1921.43,1599.09 1928.34,1544.17 1935.26,1488.71 1942.17,1433.9 1949.09,1380.89 1956,1330.77 1962.92,1284.52 1969.83,1242.97 1976.74,1206.77 1983.66,1176.35 1990.57,1152.01 1997.49,1133.82 2004.4,1121.73 2011.32,1115.54 2018.23,1114.97 2025.15,1119.63 2032.06,1129.09 2038.98,1142.87 2045.89,1160.45 2052.81,1181.29 2059.72,1204.86 2066.63,1230.6 2073.55,1257.95 2080.46,1286.37 2087.38,1315.36 2094.29,1344.41 2101.21,1373.07 2108.12,1400.93 2115.04,1427.6 2121.95,1452.79 2128.87,1476.21 2135.78,1497.65 2142.7,1516.93 2149.61,1533.94 2156.53,1548.57 2163.44,1560.76 2170.35,1570.46 2177.27,1577.65 2184.18,1582.31 2191.1,1584.43 2198.01,1584 2204.93,1581.02 2211.84,1575.49 2218.76,1567.41 2225.67,1556.8 2232.59,1543.68 2239.5,1528.11 2246.42,1510.17 2253.33,1489.97 2260.25,1467.67 2267.16,1443.49 2274.07,1417.68 2280.99,1390.56 2287.9,1362.52 2294.82,1333.98 2301.73,1305.41 2308.65,1277.34 2315.56,1250.32 2322.48,1224.9 2329.39,1201.68 2336.31,1181.23 2343.22,1164.1 2350.14,1150.84 2357.05,1141.94 2363.97,1137.86 2370.88,1138.98 2377.79,1145.61 2384.71,1157.97 2391.62,1176.15 2398.54,1200.13 2405.45,1229.72 2412.37,1264.6 2419.28,1304.25 2426.2,1348.02 2433.11,1395.12 2440.03,1444.62 2446.94,1495.53 2453.86,1546.81 2460.77,1597.45 2467.69,1646.48 2474.6,1693 2481.51,1736.28 2488.43,1775.68 2495.34,1810.73 2502.26,1841.13 2509.17,1866.66 2516.09,1887.26 2523,1902.95 2529.92,1913.81 2536.83,1920 2543.75,1921.68 2550.66,1919.06 2557.58,1912.32 2564.49,1901.68 2571.41,1887.31 2578.32,1869.41 2585.23,1848.17 2592.15,1823.77 2599.06,1796.41 2605.98,1766.3 2612.89,1733.67 2619.81,1698.8 2626.72,1661.98 2633.64,1623.55 2640.55,1583.91 2647.47,1543.49 2654.38,1502.76 2661.3,1462.25 2668.21,1422.51 2675.13,1384.1 2682.04,1347.61 2688.95,1313.64 2695.87,1282.73 2702.78,1255.45 2709.7,1232.3 2716.61,1213.73 2723.53,1200.12 2730.44,1191.77 2737.36,1188.88 2744.27,1191.53 2751.19,1199.68 2758.1,1213.14 2765.02,1231.6 2771.93,1254.58 2778.85,1281.48 2785.76,1311.57 2792.67,1344.05 2799.59,1378.06 2806.5,1412.71 2813.42,1447.16 2820.33,1480.6 2827.25,1512.32 2834.16,1541.75 2841.08,1568.4 2847.99,1591.92 2854.91,1612.1 2861.82,1628.82 2868.74,1642.04 2875.65,1651.82 2882.57,1658.24 2889.48,1661.44 2896.39,1661.58 2903.31,1658.79 2910.22,1653.24 2917.14,1645.05 2924.05,1634.36 2930.97,1621.28 2937.88,1605.9 2944.8,1588.31 2951.71,1568.62 2958.63,1546.89 2965.54,1523.26 2972.46,1497.83 2979.37,1470.76 2986.29,1442.23 2993.2,1412.43 3000.11,1381.61 3007.03,1350.03 3013.94,1317.96 3020.86,1285.71 3027.77,1253.58 3034.69,1221.85 3041.6,1190.83 3048.52,1160.8 3055.43,1132 3062.35,1104.72 3069.26,1079.2 3076.18,1055.71 3083.09,1034.56 3090.01,1016.09 3096.92,1000.7 3103.83,988.868 3110.75,981.175 3117.66,978.28 3124.58,980.921 3131.49,989.897 3138.41,1006.02 3145.32,1030.07 3152.24,1062.68 3159.15,1104.3 3166.07,1155.09 3172.98,1214.8 3179.9,1282.76 3186.81,1357.84 3193.73,1438.45 3200.64,1522.64 3207.55,1608.2 3214.47,1692.83 3221.38,1774.27 3228.3,1850.44 3235.21,1919.59 3242.13,1980.34 3249.04,2031.74 3255.96,2073.19 3262.87,2104.48 3269.79,2125.65 3276.7,2136.97 3283.62,2138.84 3290.53,2131.78 3297.45,2116.38 3304.36,2093.29 3311.27,2063.19 3318.19,2026.82 3325.1,1984.97 3332.02,1938.48 3338.93,1888.24 3345.85,1835.15 3352.76,1780.12 3359.68,1724.03 3366.59,1667.73 3373.51,1611.94 3380.42,1557.3 3387.34,1504.35 3394.25,1453.48 3401.16,1404.99 3408.08,1359.08 3414.99,1315.87 3421.91,1275.45 3428.82,1237.89 3435.74,1203.27 3442.65,1171.7 3449.57,1143.38 3456.48,1118.56 3463.4,1097.62 3470.31,1081.03 3477.23,1069.37 3484.14,1063.33 3491.06,1063.64 3497.97,1071.06 3504.88,1086.28 3511.8,1109.85 3518.71,1142.1 3525.63,1182.99 3532.54,1232.09 3539.46,1288.5 3546.37,1350.86 3553.29,1417.42 3560.2,1486.13 3567.12,1554.81 3574.03,1621.31 3580.95,1683.67 3587.86,1740.23 3594.78,1789.75 3601.69,1831.4 3608.6,1864.77 3615.52,1889.83 3622.43,1906.8 3629.35,1916.15 3636.26,1918.46 3643.18,1914.4 3650.09,1904.65 3657.01,1889.88 3663.92,1870.72 3670.84,1847.74 3677.75,1821.46 3684.67,1792.35 3691.58,1760.81 3698.5,1727.21 3705.41,1691.88 3712.32,1655.12 3719.24,1617.24 3726.15,1578.53 3733.07,1539.29 3739.98,1499.84 3746.9,1460.52 3753.81,1421.69 3760.73,1383.72 3767.64,1346.97 3774.56,1311.78 3781.47,1278.47 3788.39,1247.28 3795.3,1218.41 3802.22,1191.94 3809.13,1167.89 3816.04,1146.17 3822.96,1126.61 3829.87,1108.97 3836.79,1092.96 3843.7,1078.22 3850.62,1064.42 3857.53,1051.2 3864.45,1038.24 3871.36,1025.27 3878.28,1012.08 3885.19,998.576 3892.11,984.763 3899.02,970.799 3905.94,957.003 3912.85,943.888 3919.76,932.176 3926.68,922.819 3933.59,917.004 3940.51,916.141 3947.42,921.829 3954.34,935.791 3961.25,959.772 3968.17,995.397 3975.08,1043.99 3982,1106.39 3988.91,1182.75 3995.83,1272.38 4002.74,1373.7 4009.66,1484.25 4016.57,1600.83 4023.48,1719.77 4030.4,1837.25 4037.31,1949.62 4044.23,2053.67 4051.14,2146.88 4058.06,2227.42 4064.97,2294.19 4071.89,2346.65 4078.8,2384.69 4085.72,2408.45 4092.63,2418.13 4099.55,2413.96 4106.46,2396.1 4113.38,2364.7 4120.29,2320 4127.2,2262.42 4134.12,2192.76 4141.03,2112.28 4147.95,2022.79 4154.86,1926.65 4161.78,1826.63 4168.69,1725.75 4175.61,1627 4182.52,1533.08 4189.44,1446.19 4196.35,1367.9 4203.27,1299.02 4210.18,1239.72 4217.1,1189.58 4224.01,1147.74 4230.92,1113.1 4237.84,1084.41 4244.75,1060.4 4251.67,1039.93 4258.58,1021.98 4265.5,1005.76 4272.41,990.712 4279.33,976.54 4286.24,963.245 4293.16,951.136 4300.07,940.861 4306.99,933.415 4313.9,930.15 4320.82,932.747 4327.73,943.154 4334.64,963.466 4341.56,995.737 4348.47,1041.73 4355.39,1102.63 4362.3,1178.72 4369.22,1269.15 4376.13,1371.85 4383.05,1483.52 4389.96,1599.99 4396.88,1716.58 4403.79,1828.64 4410.71,1932.04 4417.62,2023.53 4424.54,2100.95 4431.45,2163.2 4438.36,2210.13 4445.28,2242.31 4452.19,2260.74 4459.11,2266.68 4466.02,2261.4 4472.94,2246.13 4479.85,2221.94 4486.77,2189.77 4493.68,2150.43 4500.6,2104.64 4507.51,2053.1 "/>
<polyline clip-path="url(#clip592)" style="stroke:#ff00ff; stroke-linecap:round; stroke-linejoin:round; stroke-width:4; stroke-opacity:1; fill:none" stroke-dasharray="16, 10" points="1264.53,4912.73 1264.53,-1890.08 "/>
<path clip-path="url(#clip590)" d="M1075.5 2569.54 L1599.75 2569.54 L1599.75 2083.54 L1075.5 2083.54  Z" fill="#ffffff" fill-rule="evenodd" fill-opacity="1"/>
<polyline clip-path="url(#clip590)" style="stroke:#000000; stroke-linecap:round; stroke-linejoin:round; stroke-width:4; stroke-opacity:1; fill:none" points="1075.5,2569.54 1599.75,2569.54 1599.75,2083.54 1075.5,2083.54 1075.5,2569.54 "/>
<polyline clip-path="url(#clip590)" style="stroke:#009af9; stroke-linecap:round; stroke-linejoin:round; stroke-width:22.5; stroke-opacity:1; fill:none" points="1116.13,2180.74 1359.96,2180.74 "/>
<path clip-path="url(#clip590)" d="M1448.52 2203.9 L1448.52 2186.49 L1434.2 2186.49 L1434.2 2179.29 L1457.2 2179.29 L1457.2 2207.11 Q1452.12 2210.71 1446 2212.58 Q1439.88 2214.4 1432.94 2214.4 Q1417.75 2214.4 1409.15 2205.55 Q1400.6 2196.65 1400.6 2180.81 Q1400.6 2164.92 1409.15 2156.07 Q1417.75 2147.17 1432.94 2147.17 Q1439.27 2147.17 1444.96 2148.73 Q1450.69 2150.29 1455.51 2153.33 L1455.51 2162.66 Q1450.65 2158.54 1445.18 2156.46 Q1439.71 2154.37 1433.68 2154.37 Q1421.78 2154.37 1415.79 2161.01 Q1409.85 2167.65 1409.85 2180.81 Q1409.85 2193.91 1415.79 2200.55 Q1421.78 2207.19 1433.68 2207.19 Q1438.32 2207.19 1441.96 2206.41 Q1445.61 2205.59 1448.52 2203.9 Z" fill="#000000" fill-rule="nonzero" fill-opacity="1" /><path clip-path="url(#clip590)" d="M1475.52 2205.76 L1489.84 2205.76 L1489.84 2156.33 L1474.26 2159.45 L1474.26 2151.47 L1489.75 2148.34 L1498.52 2148.34 L1498.52 2205.76 L1512.84 2205.76 L1512.84 2213.14 L1475.52 2213.14 L1475.52 2205.76 Z" fill="#000000" fill-rule="nonzero" fill-opacity="1" /><polyline clip-path="url(#clip590)" style="stroke:#e26f46; stroke-linecap:round; stroke-linejoin:round; stroke-width:22.5; stroke-opacity:1; fill:none" points="1116.13,2277.94 1359.96,2277.94 "/>
<path clip-path="url(#clip590)" d="M1448.52 2301.1 L1448.52 2283.69 L1434.2 2283.69 L1434.2 2276.49 L1457.2 2276.49 L1457.2 2304.31 Q1452.12 2307.91 1446 2309.78 Q1439.88 2311.6 1432.94 2311.6 Q1417.75 2311.6 1409.15 2302.75 Q1400.6 2293.85 1400.6 2278.01 Q1400.6 2262.12 1409.15 2253.27 Q1417.75 2244.37 1432.94 2244.37 Q1439.27 2244.37 1444.96 2245.93 Q1450.69 2247.49 1455.51 2250.53 L1455.51 2259.86 Q1450.65 2255.74 1445.18 2253.66 Q1439.71 2251.57 1433.68 2251.57 Q1421.78 2251.57 1415.79 2258.21 Q1409.85 2264.85 1409.85 2278.01 Q1409.85 2291.11 1415.79 2297.75 Q1421.78 2304.39 1433.68 2304.39 Q1438.32 2304.39 1441.96 2303.61 Q1445.61 2302.79 1448.52 2301.1 Z" fill="#000000" fill-rule="nonzero" fill-opacity="1" /><path clip-path="url(#clip590)" d="M1481.55 2302.96 L1512.15 2302.96 L1512.15 2310.34 L1471 2310.34 L1471 2302.96 Q1475.99 2297.8 1484.59 2289.12 Q1493.22 2280.39 1495.44 2277.88 Q1499.65 2273.14 1501.3 2269.89 Q1502.99 2266.59 1502.99 2263.42 Q1502.99 2258.26 1499.34 2255 Q1495.74 2251.75 1489.92 2251.75 Q1485.8 2251.75 1481.2 2253.18 Q1476.64 2254.61 1471.44 2257.52 L1471.44 2248.67 Q1476.73 2246.54 1481.33 2245.45 Q1485.93 2244.37 1489.75 2244.37 Q1499.82 2244.37 1505.81 2249.4 Q1511.8 2254.44 1511.8 2262.86 Q1511.8 2266.85 1510.28 2270.45 Q1508.8 2274.01 1504.86 2278.87 Q1503.77 2280.13 1497.95 2286.17 Q1492.14 2292.16 1481.55 2302.96 Z" fill="#000000" fill-rule="nonzero" fill-opacity="1" /><polyline clip-path="url(#clip590)" style="stroke:#3da44d; stroke-linecap:round; stroke-linejoin:round; stroke-width:22.5; stroke-opacity:1; fill:none" points="1116.13,2375.14 1359.96,2375.14 "/>
<path clip-path="url(#clip590)" d="M1448.52 2398.3 L1448.52 2380.89 L1434.2 2380.89 L1434.2 2373.69 L1457.2 2373.69 L1457.2 2401.51 Q1452.12 2405.11 1446 2406.98 Q1439.88 2408.8 1432.94 2408.8 Q1417.75 2408.8 1409.15 2399.95 Q1400.6 2391.05 1400.6 2375.21 Q1400.6 2359.32 1409.15 2350.47 Q1417.75 2341.57 1432.94 2341.57 Q1439.27 2341.57 1444.96 2343.13 Q1450.69 2344.69 1455.51 2347.73 L1455.51 2357.06 Q1450.65 2352.94 1445.18 2350.86 Q1439.71 2348.77 1433.68 2348.77 Q1421.78 2348.77 1415.79 2355.41 Q1409.85 2362.05 1409.85 2375.21 Q1409.85 2388.31 1415.79 2394.95 Q1421.78 2401.59 1433.68 2401.59 Q1438.32 2401.59 1441.96 2400.81 Q1445.61 2399.99 1448.52 2398.3 Z" fill="#000000" fill-rule="nonzero" fill-opacity="1" /><path clip-path="url(#clip590)" d="M1500.56 2372.6 Q1506.85 2373.95 1510.37 2378.2 Q1513.93 2382.45 1513.93 2388.7 Q1513.93 2398.3 1507.33 2403.55 Q1500.73 2408.8 1488.58 2408.8 Q1484.5 2408.8 1480.16 2407.97 Q1475.86 2407.19 1471.26 2405.59 L1471.26 2397.12 Q1474.91 2399.25 1479.25 2400.34 Q1483.59 2401.42 1488.32 2401.42 Q1496.57 2401.42 1500.86 2398.17 Q1505.2 2394.91 1505.2 2388.7 Q1505.2 2382.97 1501.17 2379.76 Q1497.17 2376.51 1490.01 2376.51 L1482.46 2376.51 L1482.46 2369.3 L1490.36 2369.3 Q1496.83 2369.3 1500.25 2366.74 Q1503.68 2364.14 1503.68 2359.28 Q1503.68 2354.29 1500.12 2351.64 Q1496.61 2348.95 1490.01 2348.95 Q1486.41 2348.95 1482.29 2349.73 Q1478.16 2350.51 1473.21 2352.16 L1473.21 2344.35 Q1478.21 2342.96 1482.55 2342.26 Q1486.93 2341.57 1490.79 2341.57 Q1500.78 2341.57 1506.59 2346.13 Q1512.41 2350.64 1512.41 2358.37 Q1512.41 2363.75 1509.33 2367.48 Q1506.24 2371.17 1500.56 2372.6 Z" fill="#000000" fill-rule="nonzero" fill-opacity="1" /><polyline clip-path="url(#clip590)" style="stroke:#ff00ff; stroke-linecap:round; stroke-linejoin:round; stroke-width:7.5; stroke-opacity:1; fill:none" stroke-dasharray="30, 19" points="1116.13,2472.34 1359.96,2472.34 "/>
<path clip-path="url(#clip590)" d="M1414.49 2442.33 L1414.49 2456.13 L1430.94 2456.13 L1430.94 2462.34 L1414.49 2462.34 L1414.49 2488.73 Q1414.49 2494.67 1416.1 2496.36 Q1417.75 2498.06 1422.74 2498.06 L1430.94 2498.06 L1430.94 2504.74 L1422.74 2504.74 Q1413.49 2504.74 1409.98 2501.31 Q1406.46 2497.84 1406.46 2488.73 L1406.46 2462.34 L1400.6 2462.34 L1400.6 2456.13 L1406.46 2456.13 L1406.46 2442.33 L1414.49 2442.33 Z" fill="#000000" fill-rule="nonzero" fill-opacity="1" /><path clip-path="url(#clip590)" d="M1478.38 2519.5 L1478.38 2525.7 L1432.2 2525.7 L1432.2 2519.5 L1478.38 2519.5 Z" fill="#000000" fill-rule="nonzero" fill-opacity="1" /><path clip-path="url(#clip590)" d="M1520.87 2458 L1520.87 2465.46 Q1517.49 2463.6 1514.06 2462.68 Q1510.67 2461.73 1507.2 2461.73 Q1499.43 2461.73 1495.13 2466.68 Q1490.84 2471.58 1490.84 2480.48 Q1490.84 2489.38 1495.13 2494.32 Q1499.43 2499.23 1507.2 2499.23 Q1510.67 2499.23 1514.06 2498.32 Q1517.49 2497.36 1520.87 2495.5 L1520.87 2502.87 Q1517.53 2504.44 1513.93 2505.22 Q1510.37 2506 1506.33 2506 Q1495.35 2506 1488.88 2499.1 Q1482.42 2492.2 1482.42 2480.48 Q1482.42 2468.59 1488.93 2461.77 Q1495.48 2454.96 1506.85 2454.96 Q1510.54 2454.96 1514.06 2455.74 Q1517.57 2456.48 1520.87 2458 Z" fill="#000000" fill-rule="nonzero" fill-opacity="1" /><path clip-path="url(#clip590)" d="M1542.66 2442.33 L1542.66 2456.13 L1559.11 2456.13 L1559.11 2462.34 L1542.66 2462.34 L1542.66 2488.73 Q1542.66 2494.67 1544.26 2496.36 Q1545.91 2498.06 1550.91 2498.06 L1559.11 2498.06 L1559.11 2504.74 L1550.91 2504.74 Q1541.66 2504.74 1538.14 2501.31 Q1534.63 2497.84 1534.63 2488.73 L1534.63 2462.34 L1528.77 2462.34 L1528.77 2456.13 L1534.63 2456.13 L1534.63 2442.33 L1542.66 2442.33 Z" fill="#000000" fill-rule="nonzero" fill-opacity="1" /></svg>
