<?xml version="1.0" encoding="utf-8"?>
<svg xmlns="http://www.w3.org/2000/svg" xmlns:xlink="http://www.w3.org/1999/xlink" width="1200" height="800" viewBox="0 0 4800 3200">
<defs>
  <clipPath id="clip870">
    <rect x="0" y="0" width="4800" height="3200"/>
  </clipPath>
</defs>
<path clip-path="url(#clip870)" d="M0 3200 L4800 3200 L4800 0 L0 0  Z" fill="#ffffff" fill-rule="evenodd" fill-opacity="1"/>
<defs>
  <clipPath id="clip871">
    <rect x="960" y="0" width="3361" height="3200"/>
  </clipPath>
</defs>
<path clip-path="url(#clip870)" d="M655.941 2645.13 L4611.02 2645.13 L4611.02 377.524 L655.941 377.524  Z" fill="#ffffff" fill-rule="evenodd" fill-opacity="1"/>
<defs>
  <clipPath id="clip872">
    <rect x="655" y="377" width="3956" height="2269"/>
  </clipPath>
</defs>
<polyline clip-path="url(#clip872)" style="stroke:#000000; stroke-linecap:round; stroke-linejoin:round; stroke-width:8; stroke-opacity:0.05; fill:none" stroke-dasharray="32, 20" points="760.4,2645.13 760.4,377.524 "/>
<polyline clip-path="url(#clip872)" style="stroke:#000000; stroke-linecap:round; stroke-linejoin:round; stroke-width:8; stroke-opacity:0.05; fill:none" stroke-dasharray="32, 20" points="1508.14,2645.13 1508.14,377.524 "/>
<polyline clip-path="url(#clip872)" style="stroke:#000000; stroke-linecap:round; stroke-linejoin:round; stroke-width:8; stroke-opacity:0.05; fill:none" stroke-dasharray="32, 20" points="2255.88,2645.13 2255.88,377.524 "/>
<polyline clip-path="url(#clip872)" style="stroke:#000000; stroke-linecap:round; stroke-linejoin:round; stroke-width:8; stroke-opacity:0.05; fill:none" stroke-dasharray="32, 20" points="3003.61,2645.13 3003.61,377.524 "/>
<polyline clip-path="url(#clip872)" style="stroke:#000000; stroke-linecap:round; stroke-linejoin:round; stroke-width:8; stroke-opacity:0.05; fill:none" stroke-dasharray="32, 20" points="3751.35,2645.13 3751.35,377.524 "/>
<polyline clip-path="url(#clip872)" style="stroke:#000000; stroke-linecap:round; stroke-linejoin:round; stroke-width:8; stroke-opacity:0.05; fill:none" stroke-dasharray="32, 20" points="4499.09,2645.13 4499.09,377.524 "/>
<polyline clip-path="url(#clip872)" style="stroke:#000000; stroke-linecap:round; stroke-linejoin:round; stroke-width:8; stroke-opacity:0.05; fill:none" stroke-dasharray="32, 20" points="655.941,2518.98 4611.02,2518.98 "/>
<polyline clip-path="url(#clip872)" style="stroke:#000000; stroke-linecap:round; stroke-linejoin:round; stroke-width:8; stroke-opacity:0.05; fill:none" stroke-dasharray="32, 20" points="655.941,2092.07 4611.02,2092.07 "/>
<polyline clip-path="url(#clip872)" style="stroke:#000000; stroke-linecap:round; stroke-linejoin:round; stroke-width:8; stroke-opacity:0.05; fill:none" stroke-dasharray="32, 20" points="655.941,1665.16 4611.02,1665.16 "/>
<polyline clip-path="url(#clip872)" style="stroke:#000000; stroke-linecap:round; stroke-linejoin:round; stroke-width:8; stroke-opacity:0.05; fill:none" stroke-dasharray="32, 20" points="655.941,1238.25 4611.02,1238.25 "/>
<polyline clip-path="url(#clip872)" style="stroke:#000000; stroke-linecap:round; stroke-linejoin:round; stroke-width:8; stroke-opacity:0.05; fill:none" stroke-dasharray="32, 20" points="655.941,811.344 4611.02,811.344 "/>
<polyline clip-path="url(#clip872)" style="stroke:#000000; stroke-linecap:round; stroke-linejoin:round; stroke-width:8; stroke-opacity:0.05; fill:none" stroke-dasharray="32, 20" points="655.941,384.435 4611.02,384.435 "/>
<polyline clip-path="url(#clip870)" style="stroke:#000000; stroke-linecap:round; stroke-linejoin:round; stroke-width:4; stroke-opacity:1; fill:none" points="655.941,2645.13 4611.02,2645.13 "/>
<polyline clip-path="url(#clip870)" style="stroke:#000000; stroke-linecap:round; stroke-linejoin:round; stroke-width:4; stroke-opacity:1; fill:none" points="760.4,2645.13 760.4,2626.23 "/>
<polyline clip-path="url(#clip870)" style="stroke:#000000; stroke-linecap:round; stroke-linejoin:round; stroke-width:4; stroke-opacity:1; fill:none" points="1508.14,2645.13 1508.14,2626.23 "/>
<polyline clip-path="url(#clip870)" style="stroke:#000000; stroke-linecap:round; stroke-linejoin:round; stroke-width:4; stroke-opacity:1; fill:none" points="2255.88,2645.13 2255.88,2626.23 "/>
<polyline clip-path="url(#clip870)" style="stroke:#000000; stroke-linecap:round; stroke-linejoin:round; stroke-width:4; stroke-opacity:1; fill:none" points="3003.61,2645.13 3003.61,2626.23 "/>
<polyline clip-path="url(#clip870)" style="stroke:#000000; stroke-linecap:round; stroke-linejoin:round; stroke-width:4; stroke-opacity:1; fill:none" points="3751.35,2645.13 3751.35,2626.23 "/>
<polyline clip-path="url(#clip870)" style="stroke:#000000; stroke-linecap:round; stroke-linejoin:round; stroke-width:4; stroke-opacity:1; fill:none" points="4499.09,2645.13 4499.09,2626.23 "/>
<path clip-path="url(#clip870)" d="M760.4 2734.8 Q744.602 2734.8 736.601 2750.39 Q728.702 2765.89 728.702 2797.08 Q728.702 2828.17 736.601 2843.77 Q744.602 2859.26 760.4 2859.26 Q776.3 2859.26 784.199 2843.77 Q792.2 2828.17 792.2 2797.08 Q792.2 2765.89 784.199 2750.39 Q776.3 2734.8 760.4 2734.8 M760.4 2718.59 Q785.82 2718.59 799.188 2738.75 Q812.657 2758.8 812.657 2797.08 Q812.657 2835.26 799.188 2855.41 Q785.82 2875.46 760.4 2875.46 Q734.981 2875.46 721.512 2855.41 Q708.144 2835.26 708.144 2797.08 Q708.144 2758.8 721.512 2738.75 Q734.981 2718.59 760.4 2718.59 Z" fill="#000000" fill-rule="nonzero" fill-opacity="1" /><path clip-path="url(#clip870)" d="M1466.06 2855.31 L1499.48 2855.31 L1499.48 2739.96 L1463.12 2747.25 L1463.12 2728.62 L1499.28 2721.33 L1519.73 2721.33 L1519.73 2855.31 L1553.15 2855.31 L1553.15 2872.53 L1466.06 2872.53 L1466.06 2855.31 Z" fill="#000000" fill-rule="nonzero" fill-opacity="1" /><path clip-path="url(#clip870)" d="M2232.48 2855.31 L2303.88 2855.31 L2303.88 2872.53 L2207.87 2872.53 L2207.87 2855.31 Q2219.52 2843.26 2239.57 2823.01 Q2259.72 2802.65 2264.89 2796.78 Q2274.71 2785.74 2278.56 2778.14 Q2282.51 2770.44 2282.51 2763.05 Q2282.51 2751 2274 2743.4 Q2265.6 2735.81 2252.03 2735.81 Q2242.41 2735.81 2231.67 2739.15 Q2221.04 2742.49 2208.88 2749.28 L2208.88 2728.62 Q2221.24 2723.66 2231.97 2721.13 Q2242.71 2718.59 2251.62 2718.59 Q2275.12 2718.59 2289.09 2730.34 Q2303.07 2742.09 2303.07 2761.74 Q2303.07 2771.05 2299.52 2779.46 Q2296.08 2787.76 2286.86 2799.1 Q2284.33 2802.04 2270.76 2816.12 Q2257.19 2830.09 2232.48 2855.31 Z" fill="#000000" fill-rule="nonzero" fill-opacity="1" /><path clip-path="url(#clip870)" d="M3022.2 2791 Q3036.88 2794.14 3045.08 2804.07 Q3053.39 2813.99 3053.39 2828.58 Q3053.39 2850.96 3037.99 2863.21 Q3022.6 2875.46 2994.24 2875.46 Q2984.73 2875.46 2974.6 2873.54 Q2964.57 2871.72 2953.84 2867.97 L2953.84 2848.22 Q2962.34 2853.18 2972.47 2855.72 Q2982.6 2858.25 2993.64 2858.25 Q3012.88 2858.25 3022.9 2850.65 Q3033.03 2843.06 3033.03 2828.58 Q3033.03 2815.21 3023.61 2807.71 Q3014.3 2800.12 2997.59 2800.12 L2979.97 2800.12 L2979.97 2783.31 L2998.4 2783.31 Q3013.49 2783.31 3021.49 2777.33 Q3029.49 2771.25 3029.49 2759.91 Q3029.49 2748.27 3021.18 2742.09 Q3012.98 2735.81 2997.59 2735.81 Q2989.18 2735.81 2979.56 2737.63 Q2969.94 2739.46 2958.39 2743.3 L2958.39 2725.07 Q2970.04 2721.83 2980.17 2720.21 Q2990.4 2718.59 2999.41 2718.59 Q3022.7 2718.59 3036.27 2729.23 Q3049.84 2739.76 3049.84 2757.79 Q3049.84 2770.34 3042.65 2779.05 Q3035.46 2787.66 3022.2 2791 Z" fill="#000000" fill-rule="nonzero" fill-opacity="1" /><path clip-path="url(#clip870)" d="M3764.52 2739.15 L3712.87 2819.87 L3764.52 2819.87 L3764.52 2739.15 M3759.15 2721.33 L3784.87 2721.33 L3784.87 2819.87 L3806.44 2819.87 L3806.44 2836.88 L3784.87 2836.88 L3784.87 2872.53 L3764.52 2872.53 L3764.52 2836.88 L3696.26 2836.88 L3696.26 2817.13 L3759.15 2721.33 Z" fill="#000000" fill-rule="nonzero" fill-opacity="1" /><path clip-path="url(#clip870)" d="M4456.55 2721.33 L4536.86 2721.33 L4536.86 2738.54 L4475.29 2738.54 L4475.29 2775.61 Q4479.74 2774.09 4484.2 2773.38 Q4488.66 2772.57 4493.11 2772.57 Q4518.43 2772.57 4533.22 2786.45 Q4548 2800.32 4548 2824.02 Q4548 2848.42 4532.81 2862 Q4517.62 2875.46 4489.97 2875.46 Q4480.45 2875.46 4470.53 2873.84 Q4460.71 2872.22 4450.17 2868.98 L4450.17 2848.42 Q4459.29 2853.39 4469.01 2855.82 Q4478.73 2858.25 4489.57 2858.25 Q4507.09 2858.25 4517.32 2849.03 Q4527.54 2839.82 4527.54 2824.02 Q4527.54 2808.22 4517.32 2799 Q4507.09 2789.79 4489.57 2789.79 Q4481.36 2789.79 4473.16 2791.61 Q4465.06 2793.43 4456.55 2797.28 L4456.55 2721.33 Z" fill="#000000" fill-rule="nonzero" fill-opacity="1" /><path clip-path="url(#clip870)" d="M2469.02 2979.74 L2469.02 3011.94 L2507.4 3011.94 L2507.4 3026.42 L2469.02 3026.42 L2469.02 3088 Q2469.02 3101.87 2472.76 3105.82 Q2476.61 3109.77 2488.26 3109.77 L2507.4 3109.77 L2507.4 3125.37 L2488.26 3125.37 Q2466.69 3125.37 2458.48 3117.37 Q2450.28 3109.27 2450.28 3088 L2450.28 3026.42 L2436.61 3026.42 L2436.61 3011.94 L2450.28 3011.94 L2450.28 2979.74 L2469.02 2979.74 Z" fill="#000000" fill-rule="nonzero" fill-opacity="1" /><path clip-path="url(#clip870)" d="M2642.6 2967.99 Q2629.03 2991.28 2622.44 3014.07 Q2615.86 3036.86 2615.86 3060.25 Q2615.86 3083.64 2622.44 3106.63 Q2629.13 3129.52 2642.6 3152.71 L2626.39 3152.71 Q2611.2 3128.91 2603.61 3105.92 Q2596.11 3082.93 2596.11 3060.25 Q2596.11 3037.67 2603.61 3014.78 Q2611.1 2991.89 2626.39 2967.99 L2642.6 2967.99 Z" fill="#000000" fill-rule="nonzero" fill-opacity="1" /><path clip-path="url(#clip870)" d="M2751.06 3015.28 L2751.06 3032.91 Q2743.16 3028.85 2734.65 3026.83 Q2726.15 3024.8 2717.03 3024.8 Q2703.16 3024.8 2696.17 3029.06 Q2689.28 3033.31 2689.28 3041.82 Q2689.28 3048.3 2694.25 3052.05 Q2699.21 3055.69 2714.2 3059.03 L2720.58 3060.45 Q2740.43 3064.71 2748.73 3072.5 Q2757.14 3080.2 2757.14 3094.07 Q2757.14 3109.87 2744.58 3119.09 Q2732.12 3128.3 2710.25 3128.3 Q2701.13 3128.3 2691.21 3126.48 Q2681.38 3124.76 2670.45 3121.22 L2670.45 3101.97 Q2680.78 3107.34 2690.8 3110.08 Q2700.83 3112.71 2710.65 3112.71 Q2723.82 3112.71 2730.91 3108.25 Q2738 3103.7 2738 3095.49 Q2738 3087.9 2732.83 3083.85 Q2727.77 3079.79 2710.45 3076.05 L2703.97 3074.53 Q2686.65 3070.88 2678.95 3063.39 Q2671.26 3055.79 2671.26 3042.63 Q2671.26 3026.63 2682.6 3017.92 Q2693.94 3009.21 2714.8 3009.21 Q2725.13 3009.21 2734.25 3010.73 Q2743.36 3012.25 2751.06 3015.28 Z" fill="#000000" fill-rule="nonzero" fill-opacity="1" /><path clip-path="url(#clip870)" d="M2783.87 2967.99 L2800.08 2967.99 Q2815.27 2991.89 2822.76 3014.78 Q2830.36 3037.67 2830.36 3060.25 Q2830.36 3082.93 2822.76 3105.92 Q2815.27 3128.91 2800.08 3152.71 L2783.87 3152.71 Q2797.34 3129.52 2803.92 3106.63 Q2810.61 3083.64 2810.61 3060.25 Q2810.61 3036.86 2803.92 3014.07 Q2797.34 2991.28 2783.87 2967.99 Z" fill="#000000" fill-rule="nonzero" fill-opacity="1" /><polyline clip-path="url(#clip870)" style="stroke:#000000; stroke-linecap:round; stroke-linejoin:round; stroke-width:4; stroke-opacity:1; fill:none" points="655.941,2645.13 655.941,377.524 "/>
<polyline clip-path="url(#clip870)" style="stroke:#000000; stroke-linecap:round; stroke-linejoin:round; stroke-width:4; stroke-opacity:1; fill:none" points="655.941,2518.98 674.839,2518.98 "/>
<polyline clip-path="url(#clip870)" style="stroke:#000000; stroke-linecap:round; stroke-linejoin:round; stroke-width:4; stroke-opacity:1; fill:none" points="655.941,2092.07 674.839,2092.07 "/>
<polyline clip-path="url(#clip870)" style="stroke:#000000; stroke-linecap:round; stroke-linejoin:round; stroke-width:4; stroke-opacity:1; fill:none" points="655.941,1665.16 674.839,1665.16 "/>
<polyline clip-path="url(#clip870)" style="stroke:#000000; stroke-linecap:round; stroke-linejoin:round; stroke-width:4; stroke-opacity:1; fill:none" points="655.941,1238.25 674.839,1238.25 "/>
<polyline clip-path="url(#clip870)" style="stroke:#000000; stroke-linecap:round; stroke-linejoin:round; stroke-width:4; stroke-opacity:1; fill:none" points="655.941,811.344 674.839,811.344 "/>
<polyline clip-path="url(#clip870)" style="stroke:#000000; stroke-linecap:round; stroke-linejoin:round; stroke-width:4; stroke-opacity:1; fill:none" points="655.941,384.435 674.839,384.435 "/>
<path clip-path="url(#clip870)" d="M356.179 2443.38 L436.489 2443.38 L436.489 2460.59 L374.915 2460.59 L374.915 2497.66 Q379.371 2496.14 383.827 2495.43 Q388.283 2494.62 392.739 2494.62 Q418.057 2494.62 432.843 2508.5 Q447.629 2522.37 447.629 2546.07 Q447.629 2570.48 432.438 2584.05 Q417.247 2597.52 389.599 2597.52 Q380.08 2597.52 370.155 2595.89 Q360.332 2594.27 349.799 2591.03 L349.799 2570.48 Q358.914 2575.44 368.636 2577.87 Q378.358 2580.3 389.194 2580.3 Q406.714 2580.3 416.943 2571.08 Q427.171 2561.87 427.171 2546.07 Q427.171 2530.27 416.943 2521.05 Q406.714 2511.84 389.194 2511.84 Q380.991 2511.84 372.788 2513.66 Q364.686 2515.48 356.179 2519.33 L356.179 2443.38 Z" fill="#000000" fill-rule="nonzero" fill-opacity="1" /><path clip-path="url(#clip870)" d="M531.685 2456.85 Q515.886 2456.85 507.886 2472.44 Q499.986 2487.94 499.986 2519.13 Q499.986 2550.22 507.886 2565.82 Q515.886 2581.31 531.685 2581.31 Q547.585 2581.31 555.484 2565.82 Q563.484 2550.22 563.484 2519.13 Q563.484 2487.94 555.484 2472.44 Q547.585 2456.85 531.685 2456.85 M531.685 2440.64 Q557.104 2440.64 570.472 2460.8 Q583.941 2480.85 583.941 2519.13 Q583.941 2557.31 570.472 2577.46 Q557.104 2597.52 531.685 2597.52 Q506.265 2597.52 492.796 2577.46 Q479.428 2557.31 479.428 2519.13 Q479.428 2480.85 492.796 2460.8 Q506.265 2440.64 531.685 2440.64 Z" fill="#000000" fill-rule="nonzero" fill-opacity="1" /><path clip-path="url(#clip870)" d="M361.547 2016.47 L441.856 2016.47 L441.856 2033.69 L380.282 2033.69 L380.282 2070.75 Q384.738 2069.23 389.194 2068.52 Q393.65 2067.71 398.106 2067.71 Q423.424 2067.71 438.21 2081.59 Q452.996 2095.46 452.996 2119.16 Q452.996 2143.57 437.805 2157.14 Q422.614 2170.61 394.967 2170.61 Q385.447 2170.61 375.522 2168.99 Q365.699 2167.37 355.167 2164.13 L355.167 2143.57 Q364.281 2148.53 374.003 2150.96 Q383.725 2153.39 394.562 2153.39 Q412.082 2153.39 422.31 2144.17 Q432.539 2134.96 432.539 2119.16 Q432.539 2103.36 422.31 2094.15 Q412.082 2084.93 394.562 2084.93 Q386.359 2084.93 378.155 2086.75 Q370.054 2088.58 361.547 2092.42 L361.547 2016.47 Z" fill="#000000" fill-rule="nonzero" fill-opacity="1" /><path clip-path="url(#clip870)" d="M496.847 2150.45 L530.267 2150.45 L530.267 2035.1 L493.91 2042.4 L493.91 2023.76 L530.064 2016.47 L550.521 2016.47 L550.521 2150.45 L583.941 2150.45 L583.941 2167.67 L496.847 2167.67 L496.847 2150.45 Z" fill="#000000" fill-rule="nonzero" fill-opacity="1" /><path clip-path="url(#clip870)" d="M363.167 1589.56 L443.476 1589.56 L443.476 1606.78 L381.903 1606.78 L381.903 1643.84 Q386.359 1642.32 390.815 1641.62 Q395.271 1640.81 399.727 1640.81 Q425.045 1640.81 439.831 1654.68 Q454.616 1668.55 454.616 1692.25 Q454.616 1716.66 439.425 1730.23 Q424.235 1743.7 396.587 1743.7 Q387.067 1743.7 377.143 1742.08 Q367.319 1740.46 356.787 1737.22 L356.787 1716.66 Q365.902 1721.62 375.624 1724.05 Q385.346 1726.48 396.182 1726.48 Q413.702 1726.48 423.931 1717.27 Q434.159 1708.05 434.159 1692.25 Q434.159 1676.45 423.931 1667.24 Q413.702 1658.02 396.182 1658.02 Q387.979 1658.02 379.776 1659.84 Q371.674 1661.67 363.167 1665.52 L363.167 1589.56 Z" fill="#000000" fill-rule="nonzero" fill-opacity="1" /><path clip-path="url(#clip870)" d="M512.544 1723.54 L583.941 1723.54 L583.941 1740.76 L487.935 1740.76 L487.935 1723.54 Q499.581 1711.49 519.633 1691.24 Q539.787 1670.88 544.951 1665.01 Q554.775 1653.97 558.623 1646.38 Q562.573 1638.68 562.573 1631.29 Q562.573 1619.23 554.066 1611.64 Q545.66 1604.04 532.09 1604.04 Q522.469 1604.04 511.734 1607.39 Q501.1 1610.73 488.948 1617.51 L488.948 1596.85 Q501.303 1591.89 512.038 1589.36 Q522.773 1586.83 531.685 1586.83 Q555.18 1586.83 569.156 1598.57 Q583.131 1610.32 583.131 1629.97 Q583.131 1639.29 579.587 1647.69 Q576.143 1656 566.928 1667.34 Q564.396 1670.28 550.825 1684.35 Q537.255 1698.33 512.544 1723.54 Z" fill="#000000" fill-rule="nonzero" fill-opacity="1" /><path clip-path="url(#clip870)" d="M359.015 1162.65 L439.324 1162.65 L439.324 1179.87 L377.75 1179.87 L377.75 1216.93 Q382.206 1215.42 386.662 1214.71 Q391.118 1213.9 395.574 1213.9 Q420.893 1213.9 435.678 1227.77 Q450.464 1241.65 450.464 1265.34 Q450.464 1289.75 435.273 1303.32 Q420.082 1316.79 392.435 1316.79 Q382.915 1316.79 372.991 1315.17 Q363.167 1313.55 352.635 1310.31 L352.635 1289.75 Q361.749 1294.71 371.472 1297.14 Q381.194 1299.57 392.03 1299.57 Q409.55 1299.57 419.779 1290.36 Q430.007 1281.14 430.007 1265.34 Q430.007 1249.54 419.779 1240.33 Q409.55 1231.11 392.03 1231.11 Q383.827 1231.11 375.624 1232.94 Q367.522 1234.76 359.015 1238.61 L359.015 1162.65 Z" fill="#000000" fill-rule="nonzero" fill-opacity="1" /><path clip-path="url(#clip870)" d="M552.749 1232.33 Q567.434 1235.47 575.637 1245.39 Q583.941 1255.32 583.941 1269.9 Q583.941 1292.28 568.548 1304.54 Q553.155 1316.79 524.798 1316.79 Q515.279 1316.79 505.151 1314.87 Q495.125 1313.04 484.39 1309.3 L484.39 1289.55 Q492.897 1294.51 503.025 1297.04 Q513.152 1299.57 524.191 1299.57 Q543.432 1299.57 553.458 1291.98 Q563.586 1284.38 563.586 1269.9 Q563.586 1256.53 554.167 1249.04 Q544.85 1241.44 528.14 1241.44 L510.519 1241.44 L510.519 1224.63 L528.95 1224.63 Q544.04 1224.63 552.041 1218.66 Q560.041 1212.58 560.041 1201.24 Q560.041 1189.59 551.737 1183.41 Q543.534 1177.13 528.14 1177.13 Q519.735 1177.13 510.114 1178.96 Q500.493 1180.78 488.948 1184.63 L488.948 1166.4 Q500.594 1163.16 510.721 1161.54 Q520.95 1159.92 529.963 1159.92 Q553.256 1159.92 566.826 1170.55 Q580.397 1181.08 580.397 1199.11 Q580.397 1211.67 573.207 1220.38 Q566.016 1228.99 552.749 1232.33 Z" fill="#000000" fill-rule="nonzero" fill-opacity="1" /><path clip-path="url(#clip870)" d="M354.053 735.744 L434.362 735.744 L434.362 752.96 L372.788 752.96 L372.788 790.026 Q377.244 788.507 381.7 787.798 Q386.156 786.988 390.612 786.988 Q415.93 786.988 430.716 800.862 Q445.502 814.737 445.502 838.434 Q445.502 862.841 430.311 876.412 Q415.12 889.881 387.473 889.881 Q377.953 889.881 368.028 888.26 Q358.205 886.64 347.672 883.399 L347.672 862.841 Q356.787 867.803 366.509 870.234 Q376.231 872.665 387.067 872.665 Q404.588 872.665 414.816 863.449 Q425.045 854.233 425.045 838.434 Q425.045 822.636 414.816 813.42 Q404.588 804.204 387.067 804.204 Q378.864 804.204 370.661 806.027 Q362.56 807.85 354.053 811.698 L354.053 735.744 Z" fill="#000000" fill-rule="nonzero" fill-opacity="1" /><path clip-path="url(#clip870)" d="M542.015 753.568 L490.366 834.282 L542.015 834.282 L542.015 753.568 M536.647 735.744 L562.37 735.744 L562.37 834.282 L583.941 834.282 L583.941 851.296 L562.37 851.296 L562.37 886.944 L542.015 886.944 L542.015 851.296 L473.757 851.296 L473.757 831.548 L536.647 735.744 Z" fill="#000000" fill-rule="nonzero" fill-opacity="1" /><path clip-path="url(#clip870)" d="M360.534 308.835 L440.843 308.835 L440.843 326.052 L379.269 326.052 L379.269 363.117 Q383.725 361.598 388.181 360.889 Q392.637 360.079 397.093 360.079 Q422.412 360.079 437.197 373.954 Q451.983 387.828 451.983 411.526 Q451.983 435.932 436.792 449.503 Q421.601 462.972 393.954 462.972 Q384.434 462.972 374.51 461.352 Q364.686 459.731 354.154 456.491 L354.154 435.932 Q363.268 440.895 372.991 443.325 Q382.713 445.756 393.549 445.756 Q411.069 445.756 421.298 436.54 Q431.526 427.324 431.526 411.526 Q431.526 395.727 421.298 386.511 Q411.069 377.296 393.549 377.296 Q385.346 377.296 377.143 379.119 Q369.041 380.941 360.534 384.79 L360.534 308.835 Z" fill="#000000" fill-rule="nonzero" fill-opacity="1" /><path clip-path="url(#clip870)" d="M492.492 308.835 L572.801 308.835 L572.801 326.052 L511.228 326.052 L511.228 363.117 Q515.684 361.598 520.14 360.889 Q524.596 360.079 529.052 360.079 Q554.37 360.079 569.156 373.954 Q583.941 387.828 583.941 411.526 Q583.941 435.932 568.751 449.503 Q553.56 462.972 525.912 462.972 Q516.393 462.972 506.468 461.352 Q496.644 459.731 486.112 456.491 L486.112 435.932 Q495.227 440.895 504.949 443.325 Q514.671 445.756 525.507 445.756 Q543.027 445.756 553.256 436.54 Q563.484 427.324 563.484 411.526 Q563.484 395.727 553.256 386.511 Q543.027 377.296 525.507 377.296 Q517.304 377.296 509.101 379.119 Q500.999 380.941 492.492 384.79 L492.492 308.835 Z" fill="#000000" fill-rule="nonzero" fill-opacity="1" /><path clip-path="url(#clip870)" d="M72.7323 1710.63 L88.227 1710.63 L88.227 1728.45 Q88.227 1738.48 92.2779 1742.43 Q96.3288 1746.28 106.861 1746.28 L116.887 1746.28 L116.887 1715.59 L131.369 1715.59 L131.369 1746.28 L230.312 1746.28 L230.312 1765.01 L131.369 1765.01 L131.369 1782.84 L116.887 1782.84 L116.887 1765.01 L108.988 1765.01 Q90.0499 1765.01 81.4417 1756.2 Q72.7323 1747.39 72.7323 1728.25 L72.7323 1710.63 Z" fill="#000000" fill-rule="nonzero" fill-opacity="1" /><path clip-path="url(#clip870)" d="M72.9348 1584.34 Q96.2275 1597.91 119.014 1604.5 Q141.8 1611.08 165.194 1611.08 Q188.588 1611.08 211.577 1604.5 Q234.465 1597.81 257.656 1584.34 L257.656 1600.55 Q233.857 1615.74 210.868 1623.33 Q187.879 1630.83 165.194 1630.83 Q142.61 1630.83 119.723 1623.33 Q96.8351 1615.84 72.9348 1600.55 L72.9348 1584.34 Z" fill="#000000" fill-rule="nonzero" fill-opacity="1" /><path clip-path="url(#clip870)" d="M79.1124 1547.38 L79.1124 1526.92 L141.091 1526.92 L141.091 1452.59 L79.1124 1452.59 L79.1124 1432.13 L230.312 1432.13 L230.312 1452.59 L158.308 1452.59 L158.308 1526.92 L230.312 1526.92 L230.312 1547.38 L79.1124 1547.38 Z" fill="#000000" fill-rule="nonzero" fill-opacity="1" /><path clip-path="url(#clip870)" d="M116.887 1400.33 L116.887 1311.82 L133.901 1311.82 L215.425 1381.9 L215.425 1311.82 L230.312 1311.82 L230.312 1402.86 L213.299 1402.86 L131.774 1332.78 L131.774 1400.33 L116.887 1400.33 Z" fill="#000000" fill-rule="nonzero" fill-opacity="1" /><path clip-path="url(#clip870)" d="M72.9348 1286.3 L72.9348 1270.09 Q96.8351 1254.9 119.723 1247.41 Q142.61 1239.81 165.194 1239.81 Q187.879 1239.81 210.868 1247.41 Q233.857 1254.9 257.656 1270.09 L257.656 1286.3 Q234.465 1272.83 211.577 1266.25 Q188.588 1259.56 165.194 1259.56 Q141.8 1259.56 119.014 1266.25 Q96.2275 1272.83 72.9348 1286.3 Z" fill="#000000" fill-rule="nonzero" fill-opacity="1" /><path clip-path="url(#clip870)" d="M2036.38 34.56 L2135.68 34.56 L2135.68 54.2358 L2059.76 54.2358 L2059.76 105.161 L2128.28 105.161 L2128.28 124.837 L2059.76 124.837 L2059.76 207.36 L2036.38 207.36 L2036.38 34.56 Z" fill="#000000" fill-rule="nonzero" fill-opacity="1" /><path clip-path="url(#clip870)" d="M2229.67 97.6384 Q2226.08 95.555 2221.79 94.6291 Q2217.63 93.5875 2212.54 93.5875 Q2194.48 93.5875 2184.76 105.393 Q2175.15 117.083 2175.15 139.073 L2175.15 207.36 L2153.74 207.36 L2153.74 77.7311 L2175.15 77.7311 L2175.15 97.8698 Q2181.86 86.0644 2192.63 80.3931 Q2203.39 74.6061 2218.79 74.6061 Q2220.98 74.6061 2223.65 74.9533 Q2226.31 75.1848 2229.55 75.7635 L2229.67 97.6384 Z" fill="#000000" fill-rule="nonzero" fill-opacity="1" /><path clip-path="url(#clip870)" d="M2357.67 137.221 L2357.67 147.638 L2259.76 147.638 Q2261.15 169.629 2272.95 181.203 Q2284.87 192.661 2306.05 192.661 Q2318.32 192.661 2329.78 189.652 Q2341.35 186.643 2352.7 180.624 L2352.7 200.763 Q2341.24 205.624 2329.2 208.17 Q2317.16 210.716 2304.78 210.716 Q2273.76 210.716 2255.59 192.661 Q2237.54 174.606 2237.54 143.819 Q2237.54 111.99 2254.67 93.356 Q2271.91 74.6061 2301.08 74.6061 Q2327.23 74.6061 2342.4 91.5041 Q2357.67 108.286 2357.67 137.221 M2336.38 130.972 Q2336.15 113.495 2326.54 103.078 Q2317.05 92.6615 2301.31 92.6615 Q2283.48 92.6615 2272.72 102.731 Q2262.07 112.8 2260.45 131.087 L2336.38 130.972 Z" fill="#000000" fill-rule="nonzero" fill-opacity="1" /><path clip-path="url(#clip870)" d="M2405.36 142.661 Q2405.36 166.157 2414.97 179.582 Q2424.69 192.892 2441.59 192.892 Q2458.48 192.892 2468.21 179.582 Q2477.93 166.157 2477.93 142.661 Q2477.93 119.166 2468.21 105.856 Q2458.48 92.4301 2441.59 92.4301 Q2424.69 92.4301 2414.97 105.856 Q2405.36 119.166 2405.36 142.661 M2477.93 187.916 Q2471.21 199.49 2460.91 205.161 Q2450.73 210.716 2436.38 210.716 Q2412.88 210.716 2398.07 191.967 Q2383.37 173.217 2383.37 142.661 Q2383.37 112.106 2398.07 93.356 Q2412.88 74.6061 2436.38 74.6061 Q2450.73 74.6061 2460.91 80.2773 Q2471.21 85.8329 2477.93 97.4069 L2477.93 77.7311 L2499.22 77.7311 L2499.22 256.665 L2477.93 256.665 L2477.93 187.916 Z" fill="#000000" fill-rule="nonzero" fill-opacity="1" /><path clip-path="url(#clip870)" d="M2540.89 156.203 L2540.89 77.7311 L2562.19 77.7311 L2562.19 155.393 Q2562.19 173.795 2569.36 183.055 Q2576.54 192.198 2590.89 192.198 Q2608.14 192.198 2618.09 181.203 Q2628.16 170.207 2628.16 151.226 L2628.16 77.7311 L2649.45 77.7311 L2649.45 207.36 L2628.16 207.36 L2628.16 187.453 Q2620.4 199.258 2610.1 205.045 Q2599.92 210.716 2586.38 210.716 Q2564.04 210.716 2552.46 196.828 Q2540.89 182.939 2540.89 156.203 M2594.48 74.6061 L2594.48 74.6061 Z" fill="#000000" fill-rule="nonzero" fill-opacity="1" /><path clip-path="url(#clip870)" d="M2804.2 137.221 L2804.2 147.638 L2706.28 147.638 Q2707.67 169.629 2719.48 181.203 Q2731.4 192.661 2752.58 192.661 Q2764.85 192.661 2776.31 189.652 Q2787.88 186.643 2799.22 180.624 L2799.22 200.763 Q2787.76 205.624 2775.73 208.17 Q2763.69 210.716 2751.31 210.716 Q2720.29 210.716 2702.12 192.661 Q2684.06 174.606 2684.06 143.819 Q2684.06 111.99 2701.19 93.356 Q2718.44 74.6061 2747.6 74.6061 Q2773.76 74.6061 2788.92 91.5041 Q2804.2 108.286 2804.2 137.221 M2782.9 130.972 Q2782.67 113.495 2773.07 103.078 Q2763.57 92.6615 2747.83 92.6615 Q2730.01 92.6615 2719.25 102.731 Q2708.6 112.8 2706.98 131.087 L2782.9 130.972 Z" fill="#000000" fill-rule="nonzero" fill-opacity="1" /><path clip-path="url(#clip870)" d="M2946.91 129.12 L2946.91 207.36 L2925.61 207.36 L2925.61 129.814 Q2925.61 111.411 2918.43 102.268 Q2911.26 93.1245 2896.91 93.1245 Q2879.66 93.1245 2869.71 104.12 Q2859.75 115.115 2859.75 134.097 L2859.75 207.36 L2838.34 207.36 L2838.34 77.7311 L2859.75 77.7311 L2859.75 97.8698 Q2867.39 86.1801 2877.69 80.3931 Q2888.11 74.6061 2901.65 74.6061 Q2923.99 74.6061 2935.45 88.4949 Q2946.91 102.268 2946.91 129.12 Z" fill="#000000" fill-rule="nonzero" fill-opacity="1" /><path clip-path="url(#clip870)" d="M3082.67 82.7079 L3082.67 102.615 Q3073.64 97.6384 3064.5 95.2078 Q3055.47 92.6615 3046.21 92.6615 Q3025.49 92.6615 3014.04 105.856 Q3002.58 118.935 3002.58 142.661 Q3002.58 166.388 3014.04 179.582 Q3025.49 192.661 3046.21 192.661 Q3055.47 192.661 3064.5 190.23 Q3073.64 187.684 3082.67 182.707 L3082.67 202.383 Q3073.76 206.55 3064.15 208.633 Q3054.66 210.716 3043.9 210.716 Q3014.61 210.716 2997.37 192.314 Q2980.12 173.911 2980.12 142.661 Q2980.12 110.948 2997.49 92.7773 Q3014.96 74.6061 3045.29 74.6061 Q3055.12 74.6061 3064.5 76.6894 Q3073.87 78.657 3082.67 82.7079 Z" fill="#000000" fill-rule="nonzero" fill-opacity="1" /><path clip-path="url(#clip870)" d="M3173.64 219.397 Q3164.61 242.545 3156.05 249.605 Q3147.48 256.665 3133.13 256.665 L3116.12 256.665 L3116.12 238.841 L3128.62 238.841 Q3137.42 238.841 3142.28 234.675 Q3147.14 230.508 3153.04 214.999 L3156.86 205.277 L3104.43 77.7311 L3127 77.7311 L3167.51 179.119 L3208.02 77.7311 L3230.59 77.7311 L3173.64 219.397 Z" fill="#000000" fill-rule="nonzero" fill-opacity="1" /><polyline clip-path="url(#clip872)" style="stroke:#009af9; stroke-linecap:round; stroke-linejoin:round; stroke-width:12; stroke-opacity:1; fill:none" points="767.878,2516.46 775.355,2511.41 782.832,2506.35 790.31,2501.25 797.787,2496.1 805.265,2490.89 812.742,2485.6 820.219,2480.23 827.697,2474.76 835.174,2469.17 842.651,2463.46 850.129,2457.62 857.606,2451.64 865.084,2445.5 872.561,2439.2 880.038,2432.73 887.516,2426.09 894.993,2419.28 902.47,2412.28 909.948,2405.11 917.425,2397.76 924.903,2390.24 932.38,2382.54 939.857,2374.68 947.335,2366.65 954.812,2358.48 962.289,2350.16 969.767,2341.71 977.244,2333.14 984.722,2324.46 992.199,2315.68 992.199,2306.46 999.676,2296.68 1007.15,2286.62 1014.63,2276.33 1022.11,2265.84 1029.59,2255.19 1037.06,2244.4 1044.54,2233.49 1052.02,2222.49 1059.5,2211.42 1066.97,2200.3 1074.45,2189.13 1081.93,2177.95 1089.4,2166.77 1096.88,2155.59 1104.36,2144.45 1111.84,2133.35 1119.31,2122.32 1126.79,2111.36 1134.27,2100.49 1141.75,2089.72 1149.22,2079.08 1156.7,2068.57 1164.18,2058.2 1171.66,2047.99 1179.13,2037.94 1186.61,2028.05 1194.09,2018.35 1201.57,2008.82 1209.04,1999.47 1216.52,1990.32 1224,1981.35 1231.47,1972.59 1238.95,1964.02 1246.43,1955.66 1253.91,1947.52 1261.38,1939.6 1268.86,1931.92 1276.34,1924.49 1283.82,1917.34 1291.29,1910.47 1298.77,1903.92 1306.25,1897.71 1313.73,1891.88 1321.2,1886.44 1328.68,1881.44 1336.16,1876.9 1343.64,1872.85 1351.11,1869.31 1358.59,1866.32 1366.07,1863.89 1373.55,1862.04 1381.02,1860.78 1388.5,1860.12 1395.98,1860.05 1403.45,1860.58 1410.93,1861.69 1418.41,1863.37 1425.89,1865.62 1433.36,1868.4 1440.84,1871.7 1448.32,1875.49 1455.8,1879.74 1463.27,1884.43 1470.75,1889.53 1478.23,1895 1485.71,1900.81 1493.18,1906.92 1500.66,1913.3 1508.14,1919.92 1515.62,1926.75 1523.09,1933.75 1530.57,1940.9 1538.05,1948.17 1545.52,1955.53 1553,1962.97 1560.48,1970.48 1567.96,1978.03 1575.43,1985.62 1582.91,1993.24 1590.39,2000.87 1597.87,2008.52 1605.34,2016.17 1612.82,2023.8 1620.3,2031.42 1627.78,2038.99 1635.25,2046.5 1642.73,2053.91 1650.21,2061.2 1657.69,2068.31 1665.16,2075.21 1672.64,2081.84 1680.12,2088.13 1687.59,2094.02 1695.07,2099.44 1702.55,2104.33 1710.03,2108.62 1717.5,2112.25 1724.98,2115.16 1732.46,2117.32 1739.94,2118.67 1747.41,2119.2 1754.89,2118.9 1762.37,2117.77 1769.85,2115.8 1777.32,2113.03 1784.8,2109.49 1792.28,2105.2 1799.76,2100.21 1807.23,2094.57 1814.71,2088.32 1822.19,2081.52 1829.66,2074.21 1837.14,2066.45 1844.62,2058.29 1852.1,2049.77 1859.57,2040.93 1867.05,2031.83 1874.53,2022.51 1882.01,2012.99 1889.48,2003.32 1896.96,1993.52 1904.44,1983.63 1911.92,1973.66 1919.39,1963.63 1926.87,1953.57 1934.35,1943.49 1941.83,1933.39 1949.3,1923.3 1956.78,1913.2 1964.26,1903.12 1971.73,1893.04 1979.21,1882.98 1986.69,1872.93 1994.17,1862.9 2001.64,1852.87 2009.12,1842.86 2016.6,1832.85 2024.08,1822.86 2031.55,1812.88 2039.03,1802.92 2046.51,1792.98 2053.99,1783.06 2061.46,1773.18 2068.94,1763.36 2076.42,1753.6 2083.9,1743.92 2091.37,1734.35 2098.85,1724.91 2106.33,1715.64 2113.81,1706.56 2121.28,1697.71 2128.76,1689.13 2136.24,1680.86 2143.71,1672.95 2151.19,1665.44 2158.67,1658.38 2166.15,1651.82 2173.62,1645.81 2181.1,1640.39 2188.58,1635.61 2196.06,1631.52 2203.53,1628.14 2211.01,1625.52 2218.49,1623.67 2225.97,1622.62 2233.44,1622.38 2240.92,1622.94 2248.4,1624.29 2255.88,1626.41 2263.35,1629.27 2270.83,1632.83 2278.31,1637.03 2285.78,1641.83 2293.26,1647.15 2300.74,1652.95 2308.22,1659.14 2315.69,1665.68 2323.17,1672.5 2330.65,1679.55 2338.13,1686.78 2345.6,1694.15 2353.08,1701.61 2360.56,1709.15 2368.04,1716.74 2375.51,1724.36 2382.99,1732 2390.47,1739.64 2397.95,1747.27 2405.42,1754.9 2412.9,1762.5 2420.38,1770.08 2427.85,1777.62 2435.33,1785.12 2442.81,1792.55 2450.29,1799.9 2457.76,1807.14 2465.24,1814.26 2472.72,1821.22 2480.2,1827.99 2487.67,1834.53 2495.15,1840.81 2502.63,1846.79 2510.11,1852.44 2517.58,1857.7 2525.06,1862.55 2532.54,1866.95 2540.02,1870.87 2547.49,1874.26 2554.97,1877.12 2562.45,1879.4 2569.92,1881.09 2577.4,1882.17 2584.88,1882.63 2592.36,1882.47 2599.83,1881.67 2607.31,1880.25 2614.79,1878.21 2622.27,1875.57 2629.74,1872.35 2637.22,1868.56 2644.7,1864.23 2652.18,1859.4 2659.65,1854.1 2667.13,1848.36 2674.61,1842.21 2682.09,1835.69 2689.56,1828.84 2697.04,1821.67 2704.52,1814.22 2711.99,1806.51 2719.47,1798.56 2726.95,1790.39 2734.43,1782.02 2741.9,1773.46 2749.38,1764.72 2756.86,1755.8 2764.34,1746.71 2771.81,1737.46 2779.29,1728.06 2786.77,1718.49 2794.25,1708.77 2801.72,1698.9 2809.2,1688.89 2816.68,1678.74 2824.16,1668.45 2831.63,1658.03 2839.11,1647.49 2846.59,1636.85 2854.07,1626.1 2861.54,1615.27 2869.02,1604.36 2876.5,1593.39 2883.97,1582.38 2891.45,1571.33 2898.93,1560.28 2906.41,1549.22 2913.88,1538.19 2921.36,1527.21 2928.84,1516.28 2936.32,1505.44 2943.79,1494.71 2951.27,1484.11 2958.75,1473.68 2966.23,1463.44 2973.7,1453.44 2981.18,1443.71 2988.66,1434.3 2996.14,1425.27 3003.61,1416.67 3011.09,1408.56 3018.57,1401.02 3026.04,1394.11 3033.52,1387.9 3041,1382.47 3048.48,1377.89 3055.95,1374.21 3063.43,1371.48 3070.91,1369.73 3078.39,1368.98 3085.86,1369.22 3093.34,1370.42 3100.82,1372.55 3108.3,1375.54 3115.77,1379.31 3123.25,1383.8 3130.73,1388.9 3138.21,1394.54 3145.68,1400.63 3153.16,1407.09 3160.64,1413.86 3168.11,1420.87 3175.59,1428.07 3183.07,1435.42 3190.55,1442.88 3198.02,1450.43 3205.5,1458.03 3212.98,1465.66 3220.46,1473.3 3227.93,1480.93 3235.41,1488.53 3242.89,1496.08 3250.37,1503.55 3257.84,1510.92 3265.32,1518.17 3272.8,1525.28 3280.28,1532.21 3287.75,1538.94 3295.23,1545.45 3302.71,1551.72 3310.18,1557.74 3317.66,1563.48 3325.14,1568.94 3332.62,1574.1 3340.09,1578.97 3347.57,1583.53 3355.05,1587.78 3362.53,1591.73 3370,1595.37 3377.48,1598.69 3384.96,1601.7 3392.44,1604.38 3399.91,1606.74 3407.39,1608.77 3414.87,1610.44 3422.35,1611.76 3429.82,1612.7 3437.3,1613.26 3444.78,1613.42 3452.25,1613.18 3459.73,1612.52 3467.21,1611.45 3474.69,1609.96 3482.16,1608.06 3489.64,1605.75 3497.12,1603.04 3504.6,1599.95 3512.07,1596.47 3519.55,1592.63 3527.03,1588.42 3534.51,1583.86 3541.98,1578.95 3549.46,1573.7 3556.94,1568.1 3564.42,1562.14 3571.89,1555.83 3579.37,1549.17 3586.85,1542.14 3594.33,1534.73 3601.8,1526.96 3609.28,1518.81 3616.76,1510.28 3624.23,1501.4 3631.71,1492.15 3639.19,1482.57 3646.67,1472.66 3654.14,1462.46 3661.62,1451.99 3669.1,1441.28 3676.58,1430.37 3684.05,1419.3 3691.53,1408.09 3699.01,1396.79 3706.49,1385.43 3713.96,1374.03 3721.44,1362.64 3728.92,1351.26 3736.4,1339.93 3743.87,1328.66 3751.35,1317.45 3758.83,1306.32 3766.3,1295.27 3773.78,1284.29 3781.26,1273.38 3788.74,1262.54 3796.21,1251.75 3803.69,1241 3811.17,1230.3 3818.65,1219.61 3826.12,1208.94 3833.6,1198.27 3841.08,1187.6 3848.56,1176.93 3856.03,1166.26 3863.51,1155.61 3870.99,1144.99 3878.47,1134.43 3885.94,1123.99 3893.42,1113.7 3900.9,1103.64 3908.37,1093.89 3915.85,1084.55 3923.33,1075.73 3930.81,1067.52 3938.28,1060.05 3945.76,1053.43 3953.24,1047.74 3960.72,1043.07 3968.19,1039.45 3975.67,1036.92 3983.15,1035.46 3990.63,1035.03 3998.1,1035.59 4005.58,1037.04 4013.06,1039.31 4020.54,1042.31 4028.01,1045.95 4035.49,1050.15 4042.97,1054.84 4050.44,1059.96 4057.92,1065.45 4065.4,1071.27 4072.88,1077.39 4080.35,1083.76 4087.83,1090.34 4095.31,1097.09 4102.79,1103.97 4110.26,1110.93 4117.74,1117.91 4125.22,1124.86 4132.7,1131.72 4140.17,1138.42 4147.65,1144.92 4155.13,1151.16 4162.61,1157.09 4170.08,1162.69 4177.56,1167.93 4185.04,1172.8 4192.52,1177.28 4199.99,1181.39 4207.47,1185.14 4214.95,1188.55 4222.42,1191.64 4229.9,1194.45 4237.38,1197.01 4244.86,1199.34 4252.33,1201.49 4259.81,1203.49 4267.29,1205.36 4274.77,1207.14 4282.24,1208.86 4289.72,1210.53 4297.2,1212.17 4304.68,1213.8 4312.15,1215.42 4319.63,1217.03 4327.11,1218.63 4334.59,1220.21 4342.06,1221.76 4349.54,1223.26 4357.02,1224.69 4364.49,1226.01 4371.97,1227.2 4379.45,1228.23 4386.93,1229.07 4394.4,1229.69 4401.88,1230.07 4409.36,1230.18 4416.84,1229.99 4424.31,1229.5 4431.79,1228.66 4439.27,1227.48 4446.75,1225.91 4454.22,1223.95 4461.7,1221.55 4469.18,1218.69 4476.66,1215.34 4484.13,1211.46 4491.61,1207 4499.09,1201.95 "/>
<polyline clip-path="url(#clip872)" style="stroke:#e26f46; stroke-linecap:round; stroke-linejoin:round; stroke-width:12; stroke-opacity:1; fill:none" points="767.878,2508.45 775.355,2487.4 782.832,2466.35 790.31,2445.29 797.787,2424.24 805.265,2403.19 812.742,2382.14 820.219,2361.08 827.697,2340.03 835.174,2318.98 842.651,2297.93 850.129,2276.87 857.606,2255.82 865.084,2234.77 872.561,2213.71 880.038,2192.66 887.516,2171.61 894.993,2150.56 902.47,2129.5 909.948,2108.45 917.425,2087.4 924.903,2066.35 932.38,2045.29 939.857,2024.24 947.335,2003.19 954.812,1982.13 962.289,1961.08 969.767,1940.03 977.244,1918.98 984.722,1897.92 992.199,1876.87 992.199,1865.91 999.676,1865.23 1007.15,1864.96 1014.63,1865.21 1022.11,1866.08 1029.59,1867.66 1037.06,1870.06 1044.54,1873.36 1052.02,1877.64 1059.5,1882.97 1066.97,1889.42 1074.45,1897.02 1081.93,1905.82 1089.4,1915.82 1096.88,1927.04 1104.36,1939.45 1111.84,1953.02 1119.31,1967.72 1126.79,1983.5 1134.27,2000.28 1141.75,2018.01 1149.22,2036.61 1156.7,2056 1164.18,2076.13 1171.66,2096.92 1179.13,2118.32 1186.61,2140.25 1194.09,2162.67 1201.57,2185.53 1209.04,2208.77 1216.52,2232.35 1224,2256.21 1231.47,2280.29 1238.95,2304.52 1246.43,2328.82 1253.91,2353.07 1261.38,2377.15 1268.86,2400.92 1276.34,2424.19 1283.82,2446.79 1291.29,2468.47 1298.77,2489 1306.25,2508.12 1313.73,2525.55 1321.2,2541.04 1328.68,2554.32 1336.16,2565.15 1343.64,2573.31 1351.11,2578.62 1358.59,2580.95 1366.07,2580.21 1373.55,2576.36 1381.02,2569.43 1388.5,2559.47 1395.98,2546.59 1403.45,2530.96 1410.93,2512.74 1418.41,2492.15 1425.89,2469.43 1433.36,2444.8 1440.84,2418.53 1448.32,2390.85 1455.8,2362.04 1463.27,2332.31 1470.75,2301.91 1478.23,2271.07 1485.71,2239.98 1493.18,2208.85 1500.66,2177.84 1508.14,2147.13 1515.62,2116.84 1523.09,2087.11 1530.57,2058.04 1538.05,2029.7 1545.52,2002.17 1553,1975.48 1560.48,1949.67 1567.96,1924.74 1575.43,1900.7 1582.91,1877.52 1590.39,1855.19 1597.87,1833.66 1605.34,1812.9 1612.82,1792.86 1620.3,1773.5 1627.78,1754.76 1635.25,1736.62 1642.73,1719.02 1650.21,1701.94 1657.69,1685.34 1665.16,1669.22 1672.64,1653.56 1680.12,1638.36 1687.59,1623.65 1695.07,1609.44 1702.55,1595.78 1710.03,1582.71 1717.5,1570.3 1724.98,1558.6 1732.46,1547.71 1739.94,1537.69 1747.41,1528.62 1754.89,1520.59 1762.37,1513.68 1769.85,1507.96 1777.32,1503.49 1784.8,1500.34 1792.28,1498.55 1799.76,1498.16 1807.23,1499.2 1814.71,1501.68 1822.19,1505.61 1829.66,1510.98 1837.14,1517.77 1844.62,1525.95 1852.1,1535.48 1859.57,1546.31 1867.05,1558.37 1874.53,1571.6 1882.01,1585.92 1889.48,1601.24 1896.96,1617.49 1904.44,1634.56 1911.92,1652.38 1919.39,1670.85 1926.87,1689.89 1934.35,1709.41 1941.83,1729.35 1949.3,1749.64 1956.78,1770.21 1964.26,1791.01 1971.73,1811.99 1979.21,1833.11 1986.69,1854.33 1994.17,1875.62 2001.64,1896.94 2009.12,1918.26 2016.6,1939.54 2024.08,1960.75 2031.55,1981.84 2039.03,2002.75 2046.51,2023.44 2053.99,2043.84 2061.46,2063.86 2068.94,2083.44 2076.42,2102.48 2083.9,2120.88 2091.37,2138.55 2098.85,2155.37 2106.33,2171.24 2113.81,2186.06 2121.28,2199.71 2128.76,2212.11 2136.24,2223.16 2143.71,2232.78 2151.19,2240.9 2158.67,2247.46 2166.15,2252.42 2173.62,2255.74 2181.1,2257.41 2188.58,2257.44 2196.06,2255.82 2203.53,2252.6 2211.01,2247.82 2218.49,2241.53 2225.97,2233.82 2233.44,2224.75 2240.92,2214.42 2248.4,2202.93 2255.88,2190.39 2263.35,2176.88 2270.83,2162.53 2278.31,2147.41 2285.78,2131.63 2293.26,2115.27 2300.74,2098.39 2308.22,2081.05 2315.69,2063.3 2323.17,2045.18 2330.65,2026.69 2338.13,2007.85 2345.6,1988.66 2353.08,1969.1 2360.56,1949.14 2368.04,1928.77 2375.51,1907.93 2382.99,1886.61 2390.47,1864.75 2397.95,1842.32 2405.42,1819.29 2412.9,1795.62 2420.38,1771.3 2427.85,1746.3 2435.33,1720.63 2442.81,1694.3 2450.29,1667.34 2457.76,1639.79 2465.24,1611.7 2472.72,1583.17 2480.2,1554.29 2487.67,1525.18 2495.15,1495.97 2502.63,1466.83 2510.11,1437.92 2517.58,1409.43 2525.06,1381.57 2532.54,1354.55 2540.02,1328.6 2547.49,1303.94 2554.97,1280.8 2562.45,1259.41 2569.92,1239.99 2577.4,1222.76 2584.88,1207.91 2592.36,1195.6 2599.83,1185.98 2607.31,1179.15 2614.79,1175.17 2622.27,1174.08 2629.74,1175.84 2637.22,1180.4 2644.7,1187.65 2652.18,1197.44 2659.65,1209.6 2667.13,1223.9 2674.61,1240.13 2682.09,1258.05 2689.56,1277.41 2697.04,1297.98 2704.52,1319.53 2711.99,1341.85 2719.47,1364.75 2726.95,1388.05 2734.43,1411.61 2741.9,1435.3 2749.38,1459.01 2756.86,1482.65 2764.34,1506.14 2771.81,1529.42 2779.29,1552.44 2786.77,1575.15 2794.25,1597.49 2801.72,1619.44 2809.2,1640.92 2816.68,1661.9 2824.16,1682.33 2831.63,1702.13 2839.11,1721.26 2846.59,1739.64 2854.07,1757.21 2861.54,1773.9 2869.02,1789.66 2876.5,1804.41 2883.97,1818.12 2891.45,1830.75 2898.93,1842.26 2906.41,1852.63 2913.88,1861.88 2921.36,1870 2928.84,1877.03 2936.32,1883 2943.79,1887.97 2951.27,1891.99 2958.75,1895.13 2966.23,1897.46 2973.7,1899.07 2981.18,1900.05 2988.66,1900.46 2996.14,1900.41 3003.61,1899.99 3011.09,1899.28 3018.57,1898.37 3026.04,1897.35 3033.52,1896.29 3041,1895.28 3048.48,1894.36 3055.95,1893.6 3063.43,1893.03 3070.91,1892.66 3078.39,1892.48 3085.86,1892.47 3093.34,1892.58 3100.82,1892.73 3108.3,1892.83 3115.77,1892.77 3123.25,1892.42 3130.73,1891.66 3138.21,1890.35 3145.68,1888.33 3153.16,1885.48 3160.64,1881.66 3168.11,1876.7 3175.59,1870.49 3183.07,1862.87 3190.55,1853.71 3198.02,1842.87 3205.5,1830.22 3212.98,1815.66 3220.46,1799.06 3227.93,1780.36 3235.41,1759.49 3242.89,1736.43 3250.37,1711.17 3257.84,1683.75 3265.32,1654.25 3272.8,1622.77 3280.28,1589.46 3287.75,1554.47 3295.23,1518 3302.71,1480.23 3310.18,1441.4 3317.66,1401.7 3325.14,1361.38 3332.62,1320.65 3340.09,1279.75 3347.57,1238.9 3355.05,1198.36 3362.53,1158.39 3370,1119.23 3377.48,1081.2 3384.96,1044.59 3392.44,1009.73 3399.91,976.979 3407.39,946.698 3414.87,919.257 3422.35,895.025 3429.82,874.346 3437.3,857.527 3444.78,844.817 3452.25,836.388 3459.73,832.32 3467.21,832.592 3474.69,837.076 3482.16,845.546 3489.64,857.691 3497.12,873.128 3504.6,891.432 3512.07,912.156 3519.55,934.855 3527.03,959.106 3534.51,984.522 3541.98,1010.76 3549.46,1037.53 3556.94,1064.59 3564.42,1091.75 3571.89,1118.86 3579.37,1145.79 3586.85,1172.46 3594.33,1198.79 3601.8,1224.72 3609.28,1250.19 3616.76,1275.14 3624.23,1299.49 3631.71,1323.17 3639.19,1346.07 3646.67,1368.11 3654.14,1389.14 3661.62,1409.05 3669.1,1427.71 3676.58,1444.98 3684.05,1460.74 3691.53,1474.86 3699.01,1487.25 3706.49,1497.84 3713.96,1506.58 3721.44,1513.43 3728.92,1518.42 3736.4,1521.58 3743.87,1522.98 3751.35,1522.69 3758.83,1520.84 3766.3,1517.55 3773.78,1512.94 3781.26,1507.18 3788.74,1500.41 3796.21,1492.77 3803.69,1484.43 3811.17,1475.53 3818.65,1466.22 3826.12,1456.65 3833.6,1446.96 3841.08,1437.3 3848.56,1427.83 3856.03,1418.69 3863.51,1410.06 3870.99,1402.1 3878.47,1394.99 3885.94,1388.92 3893.42,1384.07 3900.9,1380.64 3908.37,1378.8 3915.85,1378.74 3923.33,1380.6 3930.81,1384.49 3938.28,1390.47 3945.76,1398.55 3953.24,1408.67 3960.72,1420.71 3968.19,1434.48 3975.67,1449.75 3983.15,1466.22 3990.63,1483.58 3998.1,1501.52 4005.58,1519.72 4013.06,1537.86 4020.54,1555.67 4028.01,1572.88 4035.49,1589.24 4042.97,1604.52 4050.44,1618.47 4057.92,1630.85 4065.4,1641.41 4072.88,1649.86 4080.35,1655.88 4087.83,1659.14 4095.31,1659.31 4102.79,1656.04 4110.26,1649.04 4117.74,1638.06 4125.22,1622.93 4132.7,1603.58 4140.17,1580.06 4147.65,1552.52 4155.13,1521.25 4162.61,1486.57 4170.08,1448.91 4177.56,1408.69 4185.04,1366.37 4192.52,1322.35 4199.99,1277.04 4207.47,1230.76 4214.95,1183.8 4222.42,1136.4 4229.9,1088.76 4237.38,1041.03 4244.86,993.361 4252.33,945.874 4259.81,898.704 4267.29,852.002 4274.77,805.951 4282.24,760.781 4289.72,716.779 4297.2,674.296 4304.68,633.755 4312.15,595.646 4319.63,560.514 4327.11,528.94 4334.59,501.508 4342.06,478.764 4349.54,461.169 4357.02,449.052 4364.49,442.573 4371.97,441.702 4379.45,446.21 4386.93,455.692 4394.4,469.606 4401.88,487.319 4409.36,508.161 4416.84,531.474 4424.31,556.655 4431.79,583.176 4439.27,610.602 4446.75,638.592 4454.22,666.891 4461.7,695.319 4469.18,723.757 4476.66,752.126 4484.13,780.374 4491.61,808.455 4499.09,836.321 "/>
<polyline clip-path="url(#clip872)" style="stroke:#3da44d; stroke-linecap:round; stroke-linejoin:round; stroke-width:12; stroke-opacity:1; fill:none" points="767.878,2503.15 775.355,2471.55 782.832,2440.11 790.31,2408.93 797.787,2378.13 805.265,2347.79 812.742,2318.02 820.219,2288.91 827.697,2260.55 835.174,2233.01 842.651,2206.37 850.129,2180.7 857.606,2156.05 865.084,2132.47 872.561,2109.98 880.038,2088.62 887.516,2068.39 894.993,2049.29 902.47,2031.31 909.948,2014.42 917.425,1998.58 924.903,1983.73 932.38,1969.83 939.857,1956.79 947.335,1944.53 954.812,1932.97 962.289,1922.01 969.767,1911.55 977.244,1901.48 984.722,1891.69 992.199,1882.08 992.199,1899.64 999.676,1943.93 1007.15,1987.28 1014.63,2029.37 1022.11,2069.93 1029.59,2108.72 1037.06,2145.53 1044.54,2180.18 1052.02,2212.51 1059.5,2242.36 1066.97,2269.61 1074.45,2294.14 1081.93,2315.86 1089.4,2334.68 1096.88,2350.56 1104.36,2363.47 1111.84,2373.4 1119.31,2380.37 1126.79,2384.43 1134.27,2385.66 1141.75,2384.15 1149.22,2380.01 1156.7,2373.38 1164.18,2364.4 1171.66,2353.23 1179.13,2340.04 1186.61,2325.02 1194.09,2308.36 1201.57,2290.26 1209.04,2270.93 1216.52,2250.61 1224,2229.52 1231.47,2207.94 1238.95,2186.14 1246.43,2164.41 1253.91,2143.06 1261.38,2122.43 1268.86,2102.87 1276.34,2084.74 1283.82,2068.39 1291.29,2054.19 1298.77,2042.47 1306.25,2033.55 1313.73,2027.68 1321.2,2025.08 1328.68,2025.9 1336.16,2030.19 1343.64,2037.92 1351.11,2048.98 1358.59,2063.17 1366.07,2080.18 1373.55,2099.67 1381.02,2121.19 1388.5,2144.28 1395.98,2168.43 1403.45,2193.12 1410.93,2217.82 1418.41,2242.01 1425.89,2265.19 1433.36,2286.9 1440.84,2306.69 1448.32,2324.19 1455.8,2339.03 1463.27,2350.92 1470.75,2359.61 1478.23,2364.89 1485.71,2366.6 1493.18,2364.64 1500.66,2358.94 1508.14,2349.5 1515.62,2336.33 1523.09,2319.5 1530.57,2299.1 1538.05,2275.29 1545.52,2248.2 1553,2218.06 1560.48,2185.06 1567.96,2149.47 1575.43,2111.55 1582.91,2071.59 1590.39,2029.92 1597.87,1986.87 1605.34,1942.82 1612.82,1898.17 1620.3,1853.31 1627.78,1808.71 1635.25,1764.83 1642.73,1722.14 1650.21,1681.16 1657.69,1642.38 1665.16,1606.31 1672.64,1573.45 1680.12,1544.27 1687.59,1519.17 1695.07,1498.52 1702.55,1482.61 1710.03,1471.64 1717.5,1465.7 1724.98,1464.8 1732.46,1468.82 1739.94,1477.54 1747.41,1490.67 1754.89,1507.8 1762.37,1528.47 1769.85,1552.19 1777.32,1578.41 1784.8,1606.57 1792.28,1636.11 1799.76,1666.49 1807.23,1697.17 1814.71,1727.67 1822.19,1757.52 1829.66,1786.31 1837.14,1813.67 1844.62,1839.28 1852.1,1862.86 1859.57,1884.19 1867.05,1903.1 1874.53,1919.46 1882.01,1933.2 1889.48,1944.3 1896.96,1952.75 1904.44,1958.63 1911.92,1962.03 1919.39,1963.05 1926.87,1961.86 1934.35,1958.62 1941.83,1953.52 1949.3,1946.76 1956.78,1938.56 1964.26,1929.14 1971.73,1918.72 1979.21,1907.52 1986.69,1895.79 1994.17,1883.75 2001.64,1871.63 2009.12,1859.66 2016.6,1848.08 2024.08,1837.13 2031.55,1827.02 2039.03,1818 2046.51,1810.29 2053.99,1804.11 2061.46,1799.67 2068.94,1797.17 2076.42,1796.79 2083.9,1798.69 2091.37,1803.01 2098.85,1809.85 2106.33,1819.26 2113.81,1831.29 2121.28,1845.9 2128.76,1863.02 2136.24,1882.53 2143.71,1904.27 2151.19,1928 2158.67,1953.44 2166.15,1980.27 2173.62,2008.11 2181.1,2036.55 2188.58,2065.12 2196.06,2093.33 2203.53,2120.68 2211.01,2146.64 2218.49,2170.67 2225.97,2192.26 2233.44,2210.9 2240.92,2226.14 2248.4,2237.58 2255.88,2244.87 2263.35,2247.75 2270.83,2246.04 2278.31,2239.68 2285.78,2228.66 2293.26,2213.09 2300.74,2193.17 2308.22,2169.14 2315.69,2141.34 2323.17,2110.15 2330.65,2075.96 2338.13,2039.23 2345.6,2000.39 2353.08,1959.89 2360.56,1918.18 2368.04,1875.69 2375.51,1832.85 2382.99,1790.05 2390.47,1747.67 2397.95,1706.09 2405.42,1665.64 2412.9,1626.68 2420.38,1589.49 2427.85,1554.39 2435.33,1521.66 2442.81,1491.54 2450.29,1464.29 2457.76,1440.12 2465.24,1419.22 2472.72,1401.75 2480.2,1387.85 2487.67,1377.6 2495.15,1371.06 2502.63,1368.22 2510.11,1369.05 2517.58,1373.44 2525.06,1381.25 2532.54,1392.27 2540.02,1406.26 2547.49,1422.9 2554.97,1441.85 2562.45,1462.69 2569.92,1485.01 2577.4,1508.33 2584.88,1532.16 2592.36,1556 2599.83,1579.35 2607.31,1601.72 2614.79,1622.62 2622.27,1641.64 2629.74,1658.38 2637.22,1672.51 2644.7,1683.8 2652.18,1692.04 2659.65,1697.16 2667.13,1699.12 2674.61,1697.98 2682.09,1693.87 2689.56,1686.97 2697.04,1677.51 2704.52,1665.76 2711.99,1652.01 2719.47,1636.59 2726.95,1619.79 2734.43,1601.95 2741.9,1583.36 2749.38,1564.34 2756.86,1545.16 2764.34,1526.11 2771.81,1507.43 2779.29,1489.39 2786.77,1472.2 2794.25,1456.1 2801.72,1441.3 2809.2,1428 2816.68,1416.4 2824.16,1406.7 2831.63,1399.06 2839.11,1393.67 2846.59,1390.67 2854.07,1390.2 2861.54,1392.4 2869.02,1397.37 2876.5,1405.18 2883.97,1415.9 2891.45,1429.55 2898.93,1446.14 2906.41,1465.65 2913.88,1488.02 2921.36,1513.18 2928.84,1541.02 2936.32,1571.42 2943.79,1604.23 2951.27,1639.27 2958.75,1676.36 2966.23,1715.25 2973.7,1755.69 2981.18,1797.37 2988.66,1839.94 2996.14,1882.99 3003.61,1926.06 3011.09,1968.59 3018.57,2009.98 3026.04,2049.54 3033.52,2086.51 3041,2120.09 3048.48,2149.46 3055.95,2173.78 3063.43,2192.27 3070.91,2204.24 3078.39,2209.1 3085.86,2206.45 3093.34,2196.04 3100.82,2177.87 3108.3,2152.12 3115.77,2119.17 3123.25,2079.6 3130.73,2034.09 3138.21,1983.47 3145.68,1928.61 3153.16,1870.43 3160.64,1809.86 3168.11,1747.8 3175.59,1685.14 3183.07,1622.72 3190.55,1561.32 3198.02,1501.68 3205.5,1444.47 3212.98,1390.29 3220.46,1339.68 3227.93,1293.1 3235.41,1250.94 3242.89,1213.49 3250.37,1180.98 3257.84,1153.54 3265.32,1131.22 3272.8,1114.03 3280.28,1101.87 3287.75,1094.62 3295.23,1092.11 3302.71,1094.14 3310.18,1100.47 3317.66,1110.87 3325.14,1125.09 3332.62,1142.86 3340.09,1163.93 3347.57,1188.02 3355.05,1214.85 3362.53,1244.1 3370,1275.43 3377.48,1308.48 3384.96,1342.82 3392.44,1377.97 3399.91,1413.38 3407.39,1448.44 3414.87,1482.46 3422.35,1514.71 3429.82,1544.42 3437.3,1570.79 3444.78,1593.05 3452.25,1610.49 3459.73,1622.52 3467.21,1628.66 3474.69,1628.62 3482.16,1622.32 3489.64,1609.85 3497.12,1591.5 3504.6,1567.72 3512.07,1539.1 3519.55,1506.32 3527.03,1470.11 3534.51,1431.24 3541.98,1390.45 3549.46,1348.46 3556.94,1305.93 3564.42,1263.49 3571.89,1221.68 3579.37,1180.98 3586.85,1141.84 3594.33,1104.61 3601.8,1069.64 3609.28,1037.19 3616.76,1007.52 3624.23,980.809 3631.71,957.249 3639.19,936.979 3646.67,920.115 3654.14,906.747 3661.62,896.936 3669.1,890.716 3676.58,888.092 3684.05,889.033 3691.53,893.48 3699.01,901.337 3706.49,912.477 3713.96,926.743 3721.44,943.952 3728.92,963.903 3736.4,986.379 3743.87,1011.16 3751.35,1038.03 3758.83,1066.79 3766.3,1097.24 3773.78,1129.23 3781.26,1162.62 3788.74,1197.31 3796.21,1233.24 3803.69,1270.36 3811.17,1308.66 3818.65,1348.16 3826.12,1388.88 3833.6,1430.84 3841.08,1474.08 3848.56,1518.57 3856.03,1564.3 3863.51,1611.16 3870.99,1658.98 3878.47,1707.49 3885.94,1756.31 3893.42,1804.91 3900.9,1852.61 3908.37,1898.58 3915.85,1941.83 3923.33,1981.24 3930.81,2015.58 3938.28,2043.59 3945.76,2064.02 3953.24,2075.74 3960.72,2077.78 3968.19,2069.47 3975.67,2050.4 3983.15,2020.55 3990.63,1980.2 3998.1,1929.98 4005.58,1870.76 4013.06,1803.6 4020.54,1729.73 4028.01,1650.41 4035.49,1566.96 4042.97,1480.69 4050.44,1392.9 4057.92,1304.85 4065.4,1217.81 4072.88,1133.02 4080.35,1051.7 4087.83,975.048 4095.31,904.203 4102.79,840.21 4110.26,783.974 4117.74,736.21 4125.22,697.398 4132.7,667.754 4140.17,647.222 4147.65,635.483 4155.13,631.995 4162.61,636.045 4170.08,646.812 4177.56,663.429 4185.04,685.04 4192.52,710.849 4199.99,740.148 4207.47,772.338 4214.95,806.932 4222.42,843.557 4229.9,881.934 4237.38,921.872 4244.86,963.236 4252.33,1005.93 4259.81,1049.89 4267.29,1095 4274.77,1141.13 4282.24,1188.07 4289.72,1235.5 4297.2,1282.96 4304.68,1329.83 4312.15,1375.29 4319.63,1418.36 4327.11,1457.85 4334.59,1492.47 4342.06,1520.83 4349.54,1541.59 4357.02,1553.54 4364.49,1555.71 4371.97,1547.47 4379.45,1528.58 4386.93,1499.27 4394.4,1460.12 4401.88,1412.07 4409.36,1356.32 4416.84,1294.2 4424.31,1227.09 4431.79,1156.37 4439.27,1083.34 4446.75,1009.2 4454.22,935.024 4461.7,861.79 4469.18,790.357 4476.66,721.497 4484.13,655.899 4491.61,594.187 4499.09,536.916 "/>
<polyline clip-path="url(#clip872)" style="stroke:#000000; stroke-linecap:round; stroke-linejoin:round; stroke-width:8; stroke-opacity:1; fill:none" points="767.878,2513.7 775.355,2503.13 782.832,2492.57 790.31,2482 797.787,2471.44 805.265,2460.87 812.742,2450.3 820.219,2439.73 827.697,2429.16 835.174,2418.58 842.651,2407.99 850.129,2397.4 857.606,2386.8 865.084,2376.18 872.561,2365.55 880.038,2354.9 887.516,2344.23 894.993,2333.54 902.47,2322.83 909.948,2312.08 917.425,2301.31 924.903,2290.49 932.38,2279.65 939.857,2268.76 947.335,2257.82 954.812,2246.85 962.289,2235.82 969.767,2224.75 977.244,2213.63 984.722,2202.45 992.199,2191.22 992.199,2184.1 999.676,2181 1007.15,2177.71 1014.63,2174.23 1022.11,2170.59 1029.59,2166.81 1037.06,2162.9 1044.54,2158.9 1052.02,2154.8 1059.5,2150.64 1066.97,2146.41 1074.45,2142.13 1081.93,2137.81 1089.4,2133.47 1096.88,2129.09 1104.36,2124.7 1111.84,2120.29 1119.31,2115.88 1126.79,2111.47 1134.27,2107.05 1141.75,2102.65 1149.22,2098.26 1156.7,2093.9 1164.18,2089.56 1171.66,2085.27 1179.13,2081.02 1186.61,2076.83 1194.09,2072.71 1201.57,2068.67 1209.04,2064.73 1216.52,2060.89 1224,2057.18 1231.47,2053.61 1238.95,2050.19 1246.43,2046.93 1253.91,2043.86 1261.38,2040.98 1268.86,2038.31 1276.34,2035.85 1283.82,2033.62 1291.29,2031.61 1298.77,2029.84 1306.25,2028.29 1313.73,2026.96 1321.2,2025.83 1328.68,2024.9 1336.16,2024.14 1343.64,2023.52 1351.11,2023.03 1358.59,2022.63 1366.07,2022.3 1373.55,2022.01 1381.02,2021.73 1388.5,2021.42 1395.98,2021.08 1403.45,2020.68 1410.93,2020.2 1418.41,2019.62 1425.89,2018.93 1433.36,2018.13 1440.84,2017.2 1448.32,2016.15 1455.8,2014.97 1463.27,2013.65 1470.75,2012.2 1478.23,2010.62 1485.71,2008.91 1493.18,2007.07 1500.66,2005.12 1508.14,2003.04 1515.62,2000.86 1523.09,1998.58 1530.57,1996.21 1538.05,1993.75 1545.52,1991.22 1553,1988.63 1560.48,1985.99 1567.96,1983.33 1575.43,1980.65 1582.91,1977.97 1590.39,1975.31 1597.87,1972.69 1605.34,1970.12 1612.82,1967.64 1620.3,1965.25 1627.78,1962.98 1635.25,1960.84 1642.73,1958.84 1650.21,1957.02 1657.69,1955.36 1665.16,1953.89 1672.64,1952.6 1680.12,1951.5 1687.59,1950.58 1695.07,1949.83 1702.55,1949.23 1710.03,1948.77 1717.5,1948.42 1724.98,1948.16 1732.46,1947.95 1739.94,1947.78 1747.41,1947.6 1754.89,1947.39 1762.37,1947.12 1769.85,1946.77 1777.32,1946.31 1784.8,1945.73 1792.28,1945 1799.76,1944.13 1807.23,1943.09 1814.71,1941.88 1822.19,1940.49 1829.66,1938.93 1837.14,1937.18 1844.62,1935.26 1852.1,1933.15 1859.57,1930.88 1867.05,1928.43 1874.53,1925.81 1882.01,1923.02 1889.48,1920.08 1896.96,1916.99 1904.44,1913.76 1911.92,1910.38 1919.39,1906.88 1926.87,1903.27 1934.35,1899.54 1941.83,1895.71 1949.3,1891.8 1956.78,1887.82 1964.26,1883.78 1971.73,1879.69 1979.21,1875.56 1986.69,1871.41 1994.17,1867.26 2001.64,1863.11 2009.12,1858.99 2016.6,1854.9 2024.08,1850.86 2031.55,1846.89 2039.03,1842.99 2046.51,1839.18 2053.99,1835.48 2061.46,1831.89 2068.94,1828.42 2076.42,1825.09 2083.9,1821.91 2091.37,1818.87 2098.85,1816 2106.33,1813.3 2113.81,1810.77 2121.28,1808.41 2128.76,1806.24 2136.24,1804.24 2143.71,1802.42 2151.19,1800.79 2158.67,1799.32 2166.15,1798.04 2173.62,1796.91 2181.1,1795.95 2188.58,1795.14 2196.06,1794.47 2203.53,1793.92 2211.01,1793.48 2218.49,1793.14 2225.97,1792.86 2233.44,1792.62 2240.92,1792.41 2248.4,1792.2 2255.88,1791.95 2263.35,1791.64 2270.83,1791.25 2278.31,1790.75 2285.78,1790.12 2293.26,1789.34 2300.74,1788.4 2308.22,1787.29 2315.69,1786 2323.17,1784.53 2330.65,1782.88 2338.13,1781.05 2345.6,1779.07 2353.08,1776.93 2360.56,1774.66 2368.04,1772.28 2375.51,1769.79 2382.99,1767.22 2390.47,1764.6 2397.95,1761.93 2405.42,1759.24 2412.9,1756.55 2420.38,1753.87 2427.85,1751.23 2435.33,1748.63 2442.81,1746.11 2450.29,1743.66 2457.76,1741.31 2465.24,1739.06 2472.72,1736.92 2480.2,1734.9 2487.67,1733.01 2495.15,1731.25 2502.63,1729.63 2510.11,1728.14 2517.58,1726.79 2525.06,1725.58 2532.54,1724.5 2540.02,1723.55 2547.49,1722.71 2554.97,1722 2562.45,1721.39 2569.92,1720.87 2577.4,1720.43 2584.88,1720.06 2592.36,1719.73 2599.83,1719.42 2607.31,1719.12 2614.79,1718.8 2622.27,1718.43 2629.74,1717.98 2637.22,1717.44 2644.7,1716.78 2652.18,1715.98 2659.65,1715 2667.13,1713.84 2674.61,1712.49 2682.09,1710.92 2689.56,1709.13 2697.04,1707.13 2704.52,1704.9 2711.99,1702.46 2719.47,1699.8 2726.95,1696.94 2734.43,1693.89 2741.9,1690.66 2749.38,1687.27 2756.86,1683.72 2764.34,1680.04 2771.81,1676.23 2779.29,1672.31 2786.77,1668.3 2794.25,1664.21 2801.72,1660.05 2809.2,1655.84 2816.68,1651.58 2824.16,1647.3 2831.63,1642.98 2839.11,1638.66 2846.59,1634.33 2854.07,1630 2861.54,1625.69 2869.02,1621.39 2876.5,1617.11 2883.97,1612.87 2891.45,1608.65 2898.93,1604.49 2906.41,1600.37 2913.88,1596.3 2921.36,1592.31 2928.84,1588.39 2936.32,1584.56 2943.79,1580.84 2951.27,1577.23 2958.75,1573.75 2966.23,1570.42 2973.7,1567.26 2981.18,1564.29 2988.66,1561.52 2996.14,1558.97 3003.61,1556.65 3011.09,1554.59 3018.57,1552.79 3026.04,1551.25 3033.52,1549.97 3041,1548.95 3048.48,1548.17 3055.95,1547.61 3063.43,1547.23 3070.91,1547 3078.39,1546.87 3085.86,1546.79 3093.34,1546.73 3100.82,1546.62 3108.3,1546.44 3115.77,1546.12 3123.25,1545.66 3130.73,1545.02 3138.21,1544.19 3145.68,1543.15 3153.16,1541.93 3160.64,1540.51 3168.11,1538.91 3175.59,1537.15 3183.07,1535.25 3190.55,1533.22 3198.02,1531.09 3205.5,1528.87 3212.98,1526.57 3220.46,1524.21 3227.93,1521.81 3235.41,1519.36 3242.89,1516.89 3250.37,1514.38 3257.84,1511.84 3265.32,1509.28 3272.8,1506.7 3280.28,1504.1 3287.75,1501.48 3295.23,1498.85 3302.71,1496.2 3310.18,1493.56 3317.66,1490.93 3325.14,1488.32 3332.62,1485.75 3340.09,1483.23 3347.57,1480.77 3355.05,1478.41 3362.53,1476.15 3370,1474.03 3377.48,1472.05 3384.96,1470.24 3392.44,1468.61 3399.91,1467.18 3407.39,1465.96 3414.87,1464.94 3422.35,1464.13 3429.82,1463.5 3437.3,1463.05 3444.78,1462.73 3452.25,1462.51 3459.73,1462.35 3467.21,1462.19 3474.69,1461.99 3482.16,1461.7 3489.64,1461.27 3497.12,1460.65 3504.6,1459.81 3512.07,1458.73 3519.55,1457.39 3527.03,1455.78 3534.51,1453.9 3541.98,1451.76 3549.46,1449.36 3556.94,1446.72 3564.42,1443.85 3571.89,1440.78 3579.37,1437.52 3586.85,1434.09 3594.33,1430.51 3601.8,1426.78 3609.28,1422.93 3616.76,1418.96 3624.23,1414.89 3631.71,1410.71 3639.19,1406.45 3646.67,1402.09 3654.14,1397.65 3661.62,1393.12 3669.1,1388.51 3676.58,1383.81 3684.05,1379.03 3691.53,1374.15 3699.01,1369.18 3706.49,1364.12 3713.96,1358.96 3721.44,1353.71 3728.92,1348.36 3736.4,1342.91 3743.87,1337.37 3751.35,1331.75 3758.83,1326.05 3766.3,1320.27 3773.78,1314.44 3781.26,1308.57 3788.74,1302.66 3796.21,1296.74 3803.69,1290.82 3811.17,1284.92 3818.65,1279.07 3826.12,1273.29 3833.6,1267.61 3841.08,1262.04 3848.56,1256.63 3856.03,1251.4 3863.51,1246.37 3870.99,1241.59 3878.47,1237.08 3885.94,1232.88 3893.42,1229.01 3900.9,1225.49 3908.37,1222.35 3915.85,1219.6 3923.33,1217.23 3930.81,1215.24 3938.28,1213.61 3945.76,1212.3 3953.24,1211.26 3960.72,1210.43 3968.19,1209.75 3975.67,1209.16 3983.15,1208.59 3990.63,1207.97 3998.1,1207.27 4005.58,1206.44 4013.06,1205.46 4020.54,1204.33 4028.01,1203.04 4035.49,1201.61 4042.97,1200.06 4050.44,1198.43 4057.92,1196.74 4065.4,1195.03 4072.88,1193.31 4080.35,1191.63 4087.83,1189.99 4095.31,1188.4 4102.79,1186.86 4110.26,1185.36 4117.74,1183.87 4125.22,1182.38 4132.7,1180.84 4140.17,1179.21 4147.65,1177.45 4155.13,1175.54 4162.61,1173.44 4170.08,1171.13 4177.56,1168.61 4185.04,1165.86 4192.52,1162.89 4199.99,1159.73 4207.47,1156.38 4214.95,1152.87 4222.42,1149.24 4229.9,1145.52 4237.38,1141.75 4244.86,1137.95 4252.33,1134.18 4259.81,1130.48 4267.29,1126.88 4274.77,1123.44 4282.24,1120.2 4289.72,1117.19 4297.2,1114.46 4304.68,1112.04 4312.15,1109.96 4319.63,1108.23 4327.11,1106.86 4334.59,1105.83 4342.06,1105.12 4349.54,1104.68 4357.02,1104.44 4364.49,1104.33 4371.97,1104.26 4379.45,1104.15 4386.93,1103.92 4394.4,1103.49 4401.88,1102.81 4409.36,1101.85 4416.84,1100.58 4424.31,1098.98 4431.79,1097.08 4439.27,1094.89 4446.75,1092.44 4454.22,1089.76 4461.7,1086.88 4469.18,1083.84 4476.66,1080.66 4484.13,1077.38 4491.61,1074.01 4499.09,1070.58 "/>
<polyline clip-path="url(#clip872)" style="stroke:#ff00ff; stroke-linecap:round; stroke-linejoin:round; stroke-width:4; stroke-opacity:1; fill:none" stroke-dasharray="16, 10" points="992.199,4912.73 992.199,-1890.08 "/>
<path clip-path="url(#clip870)" d="M3925.17 2569.54 L4479.19 2569.54 L4479.19 1986.34 L3925.17 1986.34  Z" fill="#ffffff" fill-rule="evenodd" fill-opacity="1"/>
<polyline clip-path="url(#clip870)" style="stroke:#000000; stroke-linecap:round; stroke-linejoin:round; stroke-width:4; stroke-opacity:1; fill:none" points="3925.17,2569.54 4479.19,2569.54 4479.19,1986.34 3925.17,1986.34 3925.17,2569.54 "/>
<polyline clip-path="url(#clip870)" style="stroke:#009af9; stroke-linecap:round; stroke-linejoin:round; stroke-width:22.5; stroke-opacity:1; fill:none" points="3969.12,2083.54 4232.79,2083.54 "/>
<path clip-path="url(#clip870)" d="M4324.65 2106.7 L4324.65 2089.29 L4310.33 2089.29 L4310.33 2082.09 L4333.33 2082.09 L4333.33 2109.91 Q4328.25 2113.51 4322.14 2115.38 Q4316.02 2117.2 4309.07 2117.2 Q4293.88 2117.2 4285.29 2108.35 Q4276.74 2099.45 4276.74 2083.61 Q4276.74 2067.72 4285.29 2058.87 Q4293.88 2049.97 4309.07 2049.97 Q4315.41 2049.97 4321.09 2051.53 Q4326.82 2053.09 4331.64 2056.13 L4331.64 2065.46 Q4326.78 2061.34 4321.31 2059.26 Q4315.84 2057.17 4309.81 2057.17 Q4297.92 2057.17 4291.93 2063.81 Q4285.98 2070.45 4285.98 2083.61 Q4285.98 2096.71 4291.93 2103.35 Q4297.92 2109.99 4309.81 2109.99 Q4314.45 2109.99 4318.1 2109.21 Q4321.74 2108.39 4324.65 2106.7 Z" fill="#000000" fill-rule="nonzero" fill-opacity="1" /><path clip-path="url(#clip870)" d="M4351.65 2108.56 L4365.97 2108.56 L4365.97 2059.13 L4350.39 2062.25 L4350.39 2054.27 L4365.88 2051.14 L4374.65 2051.14 L4374.65 2108.56 L4388.98 2108.56 L4388.98 2115.94 L4351.65 2115.94 L4351.65 2108.56 Z" fill="#000000" fill-rule="nonzero" fill-opacity="1" /><polyline clip-path="url(#clip870)" style="stroke:#e26f46; stroke-linecap:round; stroke-linejoin:round; stroke-width:22.5; stroke-opacity:1; fill:none" points="3969.12,2180.74 4232.79,2180.74 "/>
<path clip-path="url(#clip870)" d="M4324.65 2203.9 L4324.65 2186.49 L4310.33 2186.49 L4310.33 2179.29 L4333.33 2179.29 L4333.33 2207.11 Q4328.25 2210.71 4322.14 2212.58 Q4316.02 2214.4 4309.07 2214.4 Q4293.88 2214.4 4285.29 2205.55 Q4276.74 2196.65 4276.74 2180.81 Q4276.74 2164.92 4285.29 2156.07 Q4293.88 2147.17 4309.07 2147.17 Q4315.41 2147.17 4321.09 2148.73 Q4326.82 2150.29 4331.64 2153.33 L4331.64 2162.66 Q4326.78 2158.54 4321.31 2156.46 Q4315.84 2154.37 4309.81 2154.37 Q4297.92 2154.37 4291.93 2161.01 Q4285.98 2167.65 4285.98 2180.81 Q4285.98 2193.91 4291.93 2200.55 Q4297.92 2207.19 4309.81 2207.19 Q4314.45 2207.19 4318.1 2206.41 Q4321.74 2205.59 4324.65 2203.9 Z" fill="#000000" fill-rule="nonzero" fill-opacity="1" /><path clip-path="url(#clip870)" d="M4357.68 2205.76 L4388.28 2205.76 L4388.28 2213.14 L4347.14 2213.14 L4347.14 2205.76 Q4352.13 2200.6 4360.72 2191.92 Q4369.36 2183.19 4371.57 2180.68 Q4375.78 2175.94 4377.43 2172.69 Q4379.12 2169.39 4379.12 2166.22 Q4379.12 2161.06 4375.48 2157.8 Q4371.87 2154.55 4366.06 2154.55 Q4361.94 2154.55 4357.33 2155.98 Q4352.78 2157.41 4347.57 2160.32 L4347.57 2151.47 Q4352.86 2149.34 4357.46 2148.25 Q4362.07 2147.17 4365.88 2147.17 Q4375.95 2147.17 4381.94 2152.2 Q4387.93 2157.24 4387.93 2165.66 Q4387.93 2169.65 4386.41 2173.25 Q4384.94 2176.81 4380.99 2181.67 Q4379.9 2182.93 4374.09 2188.97 Q4368.27 2194.96 4357.68 2205.76 Z" fill="#000000" fill-rule="nonzero" fill-opacity="1" /><polyline clip-path="url(#clip870)" style="stroke:#3da44d; stroke-linecap:round; stroke-linejoin:round; stroke-width:22.5; stroke-opacity:1; fill:none" points="3969.12,2277.94 4232.79,2277.94 "/>
<path clip-path="url(#clip870)" d="M4324.65 2301.1 L4324.65 2283.69 L4310.33 2283.69 L4310.33 2276.49 L4333.33 2276.49 L4333.33 2304.31 Q4328.25 2307.91 4322.14 2309.78 Q4316.02 2311.6 4309.07 2311.6 Q4293.88 2311.6 4285.29 2302.75 Q4276.74 2293.85 4276.74 2278.01 Q4276.74 2262.12 4285.29 2253.27 Q4293.88 2244.37 4309.07 2244.37 Q4315.41 2244.37 4321.09 2245.93 Q4326.82 2247.49 4331.64 2250.53 L4331.64 2259.86 Q4326.78 2255.74 4321.31 2253.66 Q4315.84 2251.57 4309.81 2251.57 Q4297.92 2251.57 4291.93 2258.21 Q4285.98 2264.85 4285.98 2278.01 Q4285.98 2291.11 4291.93 2297.75 Q4297.92 2304.39 4309.81 2304.39 Q4314.45 2304.39 4318.1 2303.61 Q4321.74 2302.79 4324.65 2301.1 Z" fill="#000000" fill-rule="nonzero" fill-opacity="1" /><path clip-path="url(#clip870)" d="M4376.69 2275.4 Q4382.99 2276.75 4386.5 2281 Q4390.06 2285.25 4390.06 2291.5 Q4390.06 2301.1 4383.46 2306.35 Q4376.87 2311.6 4364.71 2311.6 Q4360.63 2311.6 4356.29 2310.77 Q4352 2309.99 4347.4 2308.39 L4347.4 2299.92 Q4351.04 2302.05 4355.38 2303.14 Q4359.72 2304.22 4364.45 2304.22 Q4372.7 2304.22 4377 2300.97 Q4381.34 2297.71 4381.34 2291.5 Q4381.34 2285.77 4377.3 2282.56 Q4373.31 2279.31 4366.15 2279.31 L4358.59 2279.31 L4358.59 2272.1 L4366.49 2272.1 Q4372.96 2272.1 4376.39 2269.54 Q4379.82 2266.94 4379.82 2262.08 Q4379.82 2257.09 4376.26 2254.44 Q4372.74 2251.75 4366.15 2251.75 Q4362.54 2251.75 4358.42 2252.53 Q4354.3 2253.31 4349.35 2254.96 L4349.35 2247.15 Q4354.34 2245.76 4358.68 2245.06 Q4363.06 2244.37 4366.93 2244.37 Q4376.91 2244.37 4382.73 2248.93 Q4388.54 2253.44 4388.54 2261.17 Q4388.54 2266.55 4385.46 2270.28 Q4382.38 2273.97 4376.69 2275.4 Z" fill="#000000" fill-rule="nonzero" fill-opacity="1" /><polyline clip-path="url(#clip870)" style="stroke:#000000; stroke-linecap:round; stroke-linejoin:round; stroke-width:15; stroke-opacity:1; fill:none" points="3969.12,2375.14 4232.79,2375.14 "/>
<path clip-path="url(#clip870)" d="M4328.99 2347.73 L4328.99 2356.98 Q4324.57 2352.85 4319.53 2350.81 Q4314.54 2348.77 4308.9 2348.77 Q4297.79 2348.77 4291.88 2355.59 Q4285.98 2362.36 4285.98 2375.21 Q4285.98 2388.01 4291.88 2394.82 Q4297.79 2401.59 4308.9 2401.59 Q4314.54 2401.59 4319.53 2399.55 Q4324.57 2397.51 4328.99 2393.39 L4328.99 2402.55 Q4324.39 2405.67 4319.23 2407.24 Q4314.11 2408.8 4308.38 2408.8 Q4293.66 2408.8 4285.2 2399.82 Q4276.74 2390.79 4276.74 2375.21 Q4276.74 2359.58 4285.2 2350.6 Q4293.66 2341.57 4308.38 2341.57 Q4314.19 2341.57 4319.31 2343.13 Q4324.48 2344.65 4328.99 2347.73 Z" fill="#000000" fill-rule="nonzero" fill-opacity="1" /><path clip-path="url(#clip870)" d="M4368.84 2348.69 Q4359.29 2348.69 4353.65 2355.8 Q4348.05 2362.92 4348.05 2375.21 Q4348.05 2387.45 4353.65 2394.56 Q4359.29 2401.68 4368.84 2401.68 Q4378.38 2401.68 4383.94 2394.56 Q4389.54 2387.45 4389.54 2375.21 Q4389.54 2362.92 4383.94 2355.8 Q4378.38 2348.69 4368.84 2348.69 M4368.84 2341.57 Q4382.46 2341.57 4390.62 2350.73 Q4398.78 2359.84 4398.78 2375.21 Q4398.78 2390.53 4390.62 2399.68 Q4382.46 2408.8 4368.84 2408.8 Q4355.16 2408.8 4346.96 2399.68 Q4338.8 2390.57 4338.8 2375.21 Q4338.8 2359.84 4346.96 2350.73 Q4355.16 2341.57 4368.84 2341.57 Z" fill="#000000" fill-rule="nonzero" fill-opacity="1" /><path clip-path="url(#clip870)" d="M4412.5 2342.74 L4421.27 2342.74 L4421.27 2407.54 L4412.5 2407.54 L4412.5 2342.74 Z" fill="#000000" fill-rule="nonzero" fill-opacity="1" /><polyline clip-path="url(#clip870)" style="stroke:#ff00ff; stroke-linecap:round; stroke-linejoin:round; stroke-width:7.5; stroke-opacity:1; fill:none" stroke-dasharray="30, 19" points="3969.12,2472.34 4232.79,2472.34 "/>
<path clip-path="url(#clip870)" d="M4290.62 2442.33 L4290.62 2456.13 L4307.07 2456.13 L4307.07 2462.34 L4290.62 2462.34 L4290.62 2488.73 Q4290.62 2494.67 4292.23 2496.36 Q4293.88 2498.06 4298.87 2498.06 L4307.07 2498.06 L4307.07 2504.74 L4298.87 2504.74 Q4289.63 2504.74 4286.11 2501.31 Q4282.6 2497.84 4282.6 2488.73 L4282.6 2462.34 L4276.74 2462.34 L4276.74 2456.13 L4282.6 2456.13 L4282.6 2442.33 L4290.62 2442.33 Z" fill="#000000" fill-rule="nonzero" fill-opacity="1" /><path clip-path="url(#clip870)" d="M4354.51 2519.5 L4354.51 2525.7 L4308.33 2525.7 L4308.33 2519.5 L4354.51 2519.5 Z" fill="#000000" fill-rule="nonzero" fill-opacity="1" /><path clip-path="url(#clip870)" d="M4397 2458 L4397 2465.46 Q4393.62 2463.6 4390.19 2462.68 Q4386.8 2461.73 4383.33 2461.73 Q4375.56 2461.73 4371.27 2466.68 Q4366.97 2471.58 4366.97 2480.48 Q4366.97 2489.38 4371.27 2494.32 Q4375.56 2499.23 4383.33 2499.23 Q4386.8 2499.23 4390.19 2498.32 Q4393.62 2497.36 4397 2495.5 L4397 2502.87 Q4393.66 2504.44 4390.06 2505.22 Q4386.5 2506 4382.46 2506 Q4371.48 2506 4365.02 2499.1 Q4358.55 2492.2 4358.55 2480.48 Q4358.55 2468.59 4365.06 2461.77 Q4371.61 2454.96 4382.99 2454.96 Q4386.67 2454.96 4390.19 2455.74 Q4393.71 2456.48 4397 2458 Z" fill="#000000" fill-rule="nonzero" fill-opacity="1" /><path clip-path="url(#clip870)" d="M4418.79 2442.33 L4418.79 2456.13 L4435.24 2456.13 L4435.24 2462.34 L4418.79 2462.34 L4418.79 2488.73 Q4418.79 2494.67 4420.4 2496.36 Q4422.05 2498.06 4427.04 2498.06 L4435.24 2498.06 L4435.24 2504.74 L4427.04 2504.74 Q4417.79 2504.74 4414.28 2501.31 Q4410.76 2497.84 4410.76 2488.73 L4410.76 2462.34 L4404.9 2462.34 L4404.9 2456.13 L4410.76 2456.13 L4410.76 2442.33 L4418.79 2442.33 Z" fill="#000000" fill-rule="nonzero" fill-opacity="1" /></svg>
