<?xml version="1.0" encoding="utf-8"?>
<svg xmlns="http://www.w3.org/2000/svg" xmlns:xlink="http://www.w3.org/1999/xlink" width="1200" height="800" viewBox="0 0 4800 3200">
<defs>
  <clipPath id="clip910">
    <rect x="0" y="0" width="4800" height="3200"/>
  </clipPath>
</defs>
<path clip-path="url(#clip910)" d="M0 3200 L4800 3200 L4800 0 L0 0  Z" fill="#ffffff" fill-rule="evenodd" fill-opacity="1"/>
<defs>
  <clipPath id="clip911">
    <rect x="960" y="0" width="3361" height="3200"/>
  </clipPath>
</defs>
<path clip-path="url(#clip910)" d="M659.283 2645.13 L4611.02 2645.13 L4611.02 377.524 L659.283 377.524  Z" fill="#ffffff" fill-rule="evenodd" fill-opacity="1"/>
<defs>
  <clipPath id="clip912">
    <rect x="659" y="377" width="3953" height="2269"/>
  </clipPath>
</defs>
<polyline clip-path="url(#clip912)" style="stroke:#000000; stroke-linecap:round; stroke-linejoin:round; stroke-width:8; stroke-opacity:0.05; fill:none" stroke-dasharray="32, 20" points="763.654,2645.13 763.654,377.524 "/>
<polyline clip-path="url(#clip912)" style="stroke:#000000; stroke-linecap:round; stroke-linejoin:round; stroke-width:8; stroke-opacity:0.05; fill:none" stroke-dasharray="32, 20" points="1510.76,2645.13 1510.76,377.524 "/>
<polyline clip-path="url(#clip912)" style="stroke:#000000; stroke-linecap:round; stroke-linejoin:round; stroke-width:8; stroke-opacity:0.05; fill:none" stroke-dasharray="32, 20" points="2257.87,2645.13 2257.87,377.524 "/>
<polyline clip-path="url(#clip912)" style="stroke:#000000; stroke-linecap:round; stroke-linejoin:round; stroke-width:8; stroke-opacity:0.05; fill:none" stroke-dasharray="32, 20" points="3004.97,2645.13 3004.97,377.524 "/>
<polyline clip-path="url(#clip912)" style="stroke:#000000; stroke-linecap:round; stroke-linejoin:round; stroke-width:8; stroke-opacity:0.05; fill:none" stroke-dasharray="32, 20" points="3752.08,2645.13 3752.08,377.524 "/>
<polyline clip-path="url(#clip912)" style="stroke:#000000; stroke-linecap:round; stroke-linejoin:round; stroke-width:8; stroke-opacity:0.05; fill:none" stroke-dasharray="32, 20" points="4499.18,2645.13 4499.18,377.524 "/>
<polyline clip-path="url(#clip912)" style="stroke:#000000; stroke-linecap:round; stroke-linejoin:round; stroke-width:8; stroke-opacity:0.05; fill:none" stroke-dasharray="32, 20" points="659.283,2562.02 4611.02,2562.02 "/>
<polyline clip-path="url(#clip912)" style="stroke:#000000; stroke-linecap:round; stroke-linejoin:round; stroke-width:8; stroke-opacity:0.05; fill:none" stroke-dasharray="32, 20" points="659.283,1965.08 4611.02,1965.08 "/>
<polyline clip-path="url(#clip912)" style="stroke:#000000; stroke-linecap:round; stroke-linejoin:round; stroke-width:8; stroke-opacity:0.05; fill:none" stroke-dasharray="32, 20" points="659.283,1368.14 4611.02,1368.14 "/>
<polyline clip-path="url(#clip912)" style="stroke:#000000; stroke-linecap:round; stroke-linejoin:round; stroke-width:8; stroke-opacity:0.05; fill:none" stroke-dasharray="32, 20" points="659.283,771.204 4611.02,771.204 "/>
<polyline clip-path="url(#clip910)" style="stroke:#000000; stroke-linecap:round; stroke-linejoin:round; stroke-width:4; stroke-opacity:1; fill:none" points="659.283,2645.13 4611.02,2645.13 "/>
<polyline clip-path="url(#clip910)" style="stroke:#000000; stroke-linecap:round; stroke-linejoin:round; stroke-width:4; stroke-opacity:1; fill:none" points="763.654,2645.13 763.654,2626.23 "/>
<polyline clip-path="url(#clip910)" style="stroke:#000000; stroke-linecap:round; stroke-linejoin:round; stroke-width:4; stroke-opacity:1; fill:none" points="1510.76,2645.13 1510.76,2626.23 "/>
<polyline clip-path="url(#clip910)" style="stroke:#000000; stroke-linecap:round; stroke-linejoin:round; stroke-width:4; stroke-opacity:1; fill:none" points="2257.87,2645.13 2257.87,2626.23 "/>
<polyline clip-path="url(#clip910)" style="stroke:#000000; stroke-linecap:round; stroke-linejoin:round; stroke-width:4; stroke-opacity:1; fill:none" points="3004.97,2645.13 3004.97,2626.23 "/>
<polyline clip-path="url(#clip910)" style="stroke:#000000; stroke-linecap:round; stroke-linejoin:round; stroke-width:4; stroke-opacity:1; fill:none" points="3752.08,2645.13 3752.08,2626.23 "/>
<polyline clip-path="url(#clip910)" style="stroke:#000000; stroke-linecap:round; stroke-linejoin:round; stroke-width:4; stroke-opacity:1; fill:none" points="4499.18,2645.13 4499.18,2626.23 "/>
<path clip-path="url(#clip910)" d="M763.654 2734.8 Q747.856 2734.8 739.855 2750.39 Q731.956 2765.89 731.956 2797.08 Q731.956 2828.17 739.855 2843.77 Q747.856 2859.26 763.654 2859.26 Q779.554 2859.26 787.453 2843.77 Q795.454 2828.17 795.454 2797.08 Q795.454 2765.89 787.453 2750.39 Q779.554 2734.8 763.654 2734.8 M763.654 2718.59 Q789.073 2718.59 802.441 2738.75 Q815.911 2758.8 815.911 2797.08 Q815.911 2835.26 802.441 2855.41 Q789.073 2875.46 763.654 2875.46 Q738.235 2875.46 724.765 2855.41 Q711.397 2835.26 711.397 2797.08 Q711.397 2758.8 724.765 2738.75 Q738.235 2718.59 763.654 2718.59 Z" fill="#000000" fill-rule="nonzero" fill-opacity="1" /><path clip-path="url(#clip910)" d="M1468.68 2855.31 L1502.1 2855.31 L1502.1 2739.96 L1465.74 2747.25 L1465.74 2728.62 L1501.9 2721.33 L1522.36 2721.33 L1522.36 2855.31 L1555.78 2855.31 L1555.78 2872.53 L1468.68 2872.53 L1468.68 2855.31 Z" fill="#000000" fill-rule="nonzero" fill-opacity="1" /><path clip-path="url(#clip910)" d="M2234.47 2855.31 L2305.87 2855.31 L2305.87 2872.53 L2209.86 2872.53 L2209.86 2855.31 Q2221.51 2843.26 2241.56 2823.01 Q2261.71 2802.65 2266.88 2796.78 Q2276.7 2785.74 2280.55 2778.14 Q2284.5 2770.44 2284.5 2763.05 Q2284.5 2751 2275.99 2743.4 Q2267.59 2735.81 2254.02 2735.81 Q2244.4 2735.81 2233.66 2739.15 Q2223.03 2742.49 2210.87 2749.28 L2210.87 2728.62 Q2223.23 2723.66 2233.96 2721.13 Q2244.7 2718.59 2253.61 2718.59 Q2277.11 2718.59 2291.08 2730.34 Q2305.06 2742.09 2305.06 2761.74 Q2305.06 2771.05 2301.51 2779.46 Q2298.07 2787.76 2288.85 2799.1 Q2286.32 2802.04 2272.75 2816.12 Q2259.18 2830.09 2234.47 2855.31 Z" fill="#000000" fill-rule="nonzero" fill-opacity="1" /><path clip-path="url(#clip910)" d="M3023.55 2791 Q3038.24 2794.14 3046.44 2804.07 Q3054.75 2813.99 3054.75 2828.58 Q3054.75 2850.96 3039.35 2863.21 Q3023.96 2875.46 2995.6 2875.46 Q2986.08 2875.46 2975.96 2873.54 Q2965.93 2871.72 2955.2 2867.97 L2955.2 2848.22 Q2963.7 2853.18 2973.83 2855.72 Q2983.96 2858.25 2995 2858.25 Q3014.24 2858.25 3024.26 2850.65 Q3034.39 2843.06 3034.39 2828.58 Q3034.39 2815.21 3024.97 2807.71 Q3015.66 2800.12 2998.95 2800.12 L2981.32 2800.12 L2981.32 2783.31 L2999.76 2783.31 Q3014.84 2783.31 3022.85 2777.33 Q3030.85 2771.25 3030.85 2759.91 Q3030.85 2748.27 3022.54 2742.09 Q3014.34 2735.81 2998.95 2735.81 Q2990.54 2735.81 2980.92 2737.63 Q2971.3 2739.46 2959.75 2743.3 L2959.75 2725.07 Q2971.4 2721.83 2981.53 2720.21 Q2991.75 2718.59 3000.77 2718.59 Q3024.06 2718.59 3037.63 2729.23 Q3051.2 2739.76 3051.2 2757.79 Q3051.2 2770.34 3044.01 2779.05 Q3036.82 2787.66 3023.55 2791 Z" fill="#000000" fill-rule="nonzero" fill-opacity="1" /><path clip-path="url(#clip910)" d="M3765.24 2739.15 L3713.59 2819.87 L3765.24 2819.87 L3765.24 2739.15 M3759.87 2721.33 L3785.6 2721.33 L3785.6 2819.87 L3807.17 2819.87 L3807.17 2836.88 L3785.6 2836.88 L3785.6 2872.53 L3765.24 2872.53 L3765.24 2836.88 L3696.98 2836.88 L3696.98 2817.13 L3759.87 2721.33 Z" fill="#000000" fill-rule="nonzero" fill-opacity="1" /><path clip-path="url(#clip910)" d="M4456.65 2721.33 L4536.96 2721.33 L4536.96 2738.54 L4475.38 2738.54 L4475.38 2775.61 Q4479.84 2774.09 4484.29 2773.38 Q4488.75 2772.57 4493.21 2772.57 Q4518.52 2772.57 4533.31 2786.45 Q4548.1 2800.32 4548.1 2824.02 Q4548.1 2848.42 4532.91 2862 Q4517.71 2875.46 4490.07 2875.46 Q4480.55 2875.46 4470.62 2873.84 Q4460.8 2872.22 4450.27 2868.98 L4450.27 2848.42 Q4459.38 2853.39 4469.1 2855.82 Q4478.83 2858.25 4489.66 2858.25 Q4507.18 2858.25 4517.41 2849.03 Q4527.64 2839.82 4527.64 2824.02 Q4527.64 2808.22 4517.41 2799 Q4507.18 2789.79 4489.66 2789.79 Q4481.46 2789.79 4473.26 2791.61 Q4465.15 2793.43 4456.65 2797.28 L4456.65 2721.33 Z" fill="#000000" fill-rule="nonzero" fill-opacity="1" /><path clip-path="url(#clip910)" d="M2470.69 2979.74 L2470.69 3011.94 L2509.07 3011.94 L2509.07 3026.42 L2470.69 3026.42 L2470.69 3088 Q2470.69 3101.87 2474.43 3105.82 Q2478.28 3109.77 2489.93 3109.77 L2509.07 3109.77 L2509.07 3125.37 L2489.93 3125.37 Q2468.36 3125.37 2460.15 3117.37 Q2451.95 3109.27 2451.95 3088 L2451.95 3026.42 L2438.28 3026.42 L2438.28 3011.94 L2451.95 3011.94 L2451.95 2979.74 L2470.69 2979.74 Z" fill="#000000" fill-rule="nonzero" fill-opacity="1" /><path clip-path="url(#clip910)" d="M2644.27 2967.99 Q2630.7 2991.28 2624.11 3014.07 Q2617.53 3036.86 2617.53 3060.25 Q2617.53 3083.64 2624.11 3106.63 Q2630.8 3129.52 2644.27 3152.71 L2628.06 3152.71 Q2612.87 3128.91 2605.28 3105.92 Q2597.78 3082.93 2597.78 3060.25 Q2597.78 3037.67 2605.28 3014.78 Q2612.77 2991.89 2628.06 2967.99 L2644.27 2967.99 Z" fill="#000000" fill-rule="nonzero" fill-opacity="1" /><path clip-path="url(#clip910)" d="M2752.73 3015.28 L2752.73 3032.91 Q2744.83 3028.85 2736.32 3026.83 Q2727.82 3024.8 2718.7 3024.8 Q2704.83 3024.8 2697.84 3029.06 Q2690.95 3033.31 2690.95 3041.82 Q2690.95 3048.3 2695.92 3052.05 Q2700.88 3055.69 2715.87 3059.03 L2722.25 3060.45 Q2742.1 3064.71 2750.4 3072.5 Q2758.81 3080.2 2758.81 3094.07 Q2758.81 3109.87 2746.25 3119.09 Q2733.79 3128.3 2711.92 3128.3 Q2702.8 3128.3 2692.88 3126.48 Q2683.06 3124.76 2672.12 3121.22 L2672.12 3101.97 Q2682.45 3107.34 2692.47 3110.08 Q2702.5 3112.71 2712.32 3112.71 Q2725.49 3112.71 2732.58 3108.25 Q2739.67 3103.7 2739.67 3095.49 Q2739.67 3087.9 2734.5 3083.85 Q2729.44 3079.79 2712.12 3076.05 L2705.64 3074.53 Q2688.32 3070.88 2680.62 3063.39 Q2672.93 3055.79 2672.93 3042.63 Q2672.93 3026.63 2684.27 3017.92 Q2695.61 3009.21 2716.48 3009.21 Q2726.81 3009.21 2735.92 3010.73 Q2745.03 3012.25 2752.73 3015.28 Z" fill="#000000" fill-rule="nonzero" fill-opacity="1" /><path clip-path="url(#clip910)" d="M2785.54 2967.99 L2801.75 2967.99 Q2816.94 2991.89 2824.43 3014.78 Q2832.03 3037.67 2832.03 3060.25 Q2832.03 3082.93 2824.43 3105.92 Q2816.94 3128.91 2801.75 3152.71 L2785.54 3152.71 Q2799.01 3129.52 2805.6 3106.63 Q2812.28 3083.64 2812.28 3060.25 Q2812.28 3036.86 2805.6 3014.07 Q2799.01 2991.28 2785.54 2967.99 Z" fill="#000000" fill-rule="nonzero" fill-opacity="1" /><polyline clip-path="url(#clip910)" style="stroke:#000000; stroke-linecap:round; stroke-linejoin:round; stroke-width:4; stroke-opacity:1; fill:none" points="659.283,2645.13 659.283,377.524 "/>
<polyline clip-path="url(#clip910)" style="stroke:#000000; stroke-linecap:round; stroke-linejoin:round; stroke-width:4; stroke-opacity:1; fill:none" points="659.283,2562.02 678.181,2562.02 "/>
<polyline clip-path="url(#clip910)" style="stroke:#000000; stroke-linecap:round; stroke-linejoin:round; stroke-width:4; stroke-opacity:1; fill:none" points="659.283,1965.08 678.181,1965.08 "/>
<polyline clip-path="url(#clip910)" style="stroke:#000000; stroke-linecap:round; stroke-linejoin:round; stroke-width:4; stroke-opacity:1; fill:none" points="659.283,1368.14 678.181,1368.14 "/>
<polyline clip-path="url(#clip910)" style="stroke:#000000; stroke-linecap:round; stroke-linejoin:round; stroke-width:4; stroke-opacity:1; fill:none" points="659.283,771.204 678.181,771.204 "/>
<path clip-path="url(#clip910)" d="M415.93 2504.25 L364.281 2584.96 L415.93 2584.96 L415.93 2504.25 M410.563 2486.42 L436.286 2486.42 L436.286 2584.96 L457.857 2584.96 L457.857 2601.98 L436.286 2601.98 L436.286 2637.62 L415.93 2637.62 L415.93 2601.98 L347.672 2601.98 L347.672 2582.23 L410.563 2486.42 Z" fill="#000000" fill-rule="nonzero" fill-opacity="1" /><path clip-path="url(#clip910)" d="M535.432 2565.82 Q520.849 2565.82 512.443 2573.62 Q504.139 2581.42 504.139 2595.09 Q504.139 2608.76 512.443 2616.56 Q520.849 2624.36 535.432 2624.36 Q550.015 2624.36 558.421 2616.56 Q566.826 2608.66 566.826 2595.09 Q566.826 2581.42 558.421 2573.62 Q550.116 2565.82 535.432 2565.82 M514.975 2557.11 Q501.809 2553.87 494.416 2544.86 Q487.125 2535.84 487.125 2522.88 Q487.125 2504.75 499.986 2494.22 Q512.949 2483.69 535.432 2483.69 Q558.016 2483.69 570.877 2494.22 Q583.739 2504.75 583.739 2522.88 Q583.739 2535.84 576.346 2544.86 Q569.054 2553.87 555.99 2557.11 Q570.776 2560.55 578.979 2570.58 Q587.283 2580.61 587.283 2595.09 Q587.283 2617.06 573.814 2628.81 Q560.446 2640.56 535.432 2640.56 Q510.418 2640.56 496.948 2628.81 Q483.58 2617.06 483.58 2595.09 Q483.58 2580.61 491.885 2570.58 Q500.189 2560.55 514.975 2557.11 M507.481 2524.81 Q507.481 2536.55 514.772 2543.14 Q522.165 2549.72 535.432 2549.72 Q548.597 2549.72 555.99 2543.14 Q563.484 2536.55 563.484 2524.81 Q563.484 2513.06 555.99 2506.48 Q548.597 2499.89 535.432 2499.89 Q522.165 2499.89 514.772 2506.48 Q507.481 2513.06 507.481 2524.81 Z" fill="#000000" fill-rule="nonzero" fill-opacity="1" /><path clip-path="url(#clip910)" d="M416.335 1907.31 L364.686 1988.02 L416.335 1988.02 L416.335 1907.31 M410.968 1889.48 L436.691 1889.48 L436.691 1988.02 L458.262 1988.02 L458.262 2005.04 L436.691 2005.04 L436.691 2040.68 L416.335 2040.68 L416.335 2005.04 L348.078 2005.04 L348.078 1985.29 L410.968 1889.48 Z" fill="#000000" fill-rule="nonzero" fill-opacity="1" /><path clip-path="url(#clip910)" d="M492.695 2037.54 L492.695 2018.91 Q500.392 2022.56 508.291 2024.48 Q516.19 2026.4 523.786 2026.4 Q544.04 2026.4 554.674 2012.83 Q565.409 1999.16 566.928 1971.41 Q561.054 1980.12 552.041 1984.78 Q543.027 1989.44 532.09 1989.44 Q509.405 1989.44 496.138 1975.77 Q482.973 1961.99 482.973 1938.2 Q482.973 1914.9 496.746 1900.83 Q510.519 1886.75 533.406 1886.75 Q559.636 1886.75 573.409 1906.9 Q587.283 1926.95 587.283 1965.24 Q587.283 2000.98 570.27 2022.35 Q553.357 2043.62 524.697 2043.62 Q517 2043.62 509.101 2042.1 Q501.202 2040.58 492.695 2037.54 M533.406 1973.44 Q547.179 1973.44 555.18 1964.02 Q563.282 1954.6 563.282 1938.2 Q563.282 1921.89 555.18 1912.47 Q547.179 1902.95 533.406 1902.95 Q519.633 1902.95 511.532 1912.47 Q503.531 1921.89 503.531 1938.2 Q503.531 1954.6 511.532 1964.02 Q519.633 1973.44 533.406 1973.44 Z" fill="#000000" fill-rule="nonzero" fill-opacity="1" /><path clip-path="url(#clip910)" d="M359.521 1292.54 L439.831 1292.54 L439.831 1309.76 L378.257 1309.76 L378.257 1346.83 Q382.713 1345.31 387.169 1344.6 Q391.625 1343.79 396.081 1343.79 Q421.399 1343.79 436.185 1357.66 Q450.97 1371.54 450.97 1395.23 Q450.97 1419.64 435.78 1433.21 Q420.589 1446.68 392.941 1446.68 Q383.422 1446.68 373.497 1445.06 Q363.674 1443.44 353.141 1440.2 L353.141 1419.64 Q362.256 1424.6 371.978 1427.03 Q381.7 1429.46 392.536 1429.46 Q410.056 1429.46 420.285 1420.25 Q430.513 1411.03 430.513 1395.23 Q430.513 1379.44 420.285 1370.22 Q410.056 1361 392.536 1361 Q384.333 1361 376.13 1362.83 Q368.028 1364.65 359.521 1368.5 L359.521 1292.54 Z" fill="#000000" fill-rule="nonzero" fill-opacity="1" /><path clip-path="url(#clip910)" d="M535.027 1306.01 Q519.228 1306.01 511.228 1321.61 Q503.328 1337.1 503.328 1368.3 Q503.328 1399.39 511.228 1414.98 Q519.228 1430.48 535.027 1430.48 Q550.927 1430.48 558.826 1414.98 Q566.826 1399.39 566.826 1368.3 Q566.826 1337.1 558.826 1321.61 Q550.927 1306.01 535.027 1306.01 M535.027 1289.81 Q560.446 1289.81 573.814 1309.96 Q587.283 1330.01 587.283 1368.3 Q587.283 1406.48 573.814 1426.63 Q560.446 1446.68 535.027 1446.68 Q509.607 1446.68 496.138 1426.63 Q482.77 1406.48 482.77 1368.3 Q482.77 1330.01 496.138 1309.96 Q509.607 1289.81 535.027 1289.81 Z" fill="#000000" fill-rule="nonzero" fill-opacity="1" /><path clip-path="url(#clip910)" d="M364.889 695.604 L445.198 695.604 L445.198 712.82 L383.624 712.82 L383.624 749.886 Q388.08 748.367 392.536 747.658 Q396.992 746.848 401.448 746.848 Q426.766 746.848 441.552 760.722 Q456.338 774.596 456.338 798.294 Q456.338 822.701 441.147 836.271 Q425.956 849.74 398.309 849.74 Q388.789 849.74 378.864 848.12 Q369.041 846.5 358.509 843.259 L358.509 822.701 Q367.623 827.663 377.345 830.094 Q387.067 832.524 397.904 832.524 Q415.424 832.524 425.652 823.308 Q435.881 814.093 435.881 798.294 Q435.881 782.495 425.652 773.28 Q415.424 764.064 397.904 764.064 Q389.701 764.064 381.497 765.887 Q373.396 767.71 364.889 771.558 L364.889 695.604 Z" fill="#000000" fill-rule="nonzero" fill-opacity="1" /><path clip-path="url(#clip910)" d="M500.189 829.587 L533.609 829.587 L533.609 714.238 L497.252 721.529 L497.252 702.895 L533.406 695.604 L553.863 695.604 L553.863 829.587 L587.283 829.587 L587.283 846.804 L500.189 846.804 L500.189 829.587 Z" fill="#000000" fill-rule="nonzero" fill-opacity="1" /><path clip-path="url(#clip910)" d="M72.7323 1710.63 L88.227 1710.63 L88.227 1728.45 Q88.227 1738.48 92.2779 1742.43 Q96.3288 1746.28 106.861 1746.28 L116.887 1746.28 L116.887 1715.59 L131.369 1715.59 L131.369 1746.28 L230.312 1746.28 L230.312 1765.01 L131.369 1765.01 L131.369 1782.84 L116.887 1782.84 L116.887 1765.01 L108.988 1765.01 Q90.0499 1765.01 81.4417 1756.2 Q72.7323 1747.39 72.7323 1728.25 L72.7323 1710.63 Z" fill="#000000" fill-rule="nonzero" fill-opacity="1" /><path clip-path="url(#clip910)" d="M72.9348 1584.34 Q96.2275 1597.91 119.014 1604.5 Q141.8 1611.08 165.194 1611.08 Q188.588 1611.08 211.577 1604.5 Q234.465 1597.81 257.656 1584.34 L257.656 1600.55 Q233.857 1615.74 210.868 1623.33 Q187.879 1630.83 165.194 1630.83 Q142.61 1630.83 119.723 1623.33 Q96.8351 1615.84 72.9348 1600.55 L72.9348 1584.34 Z" fill="#000000" fill-rule="nonzero" fill-opacity="1" /><path clip-path="url(#clip910)" d="M79.1124 1547.38 L79.1124 1526.92 L141.091 1526.92 L141.091 1452.59 L79.1124 1452.59 L79.1124 1432.13 L230.312 1432.13 L230.312 1452.59 L158.308 1452.59 L158.308 1526.92 L230.312 1526.92 L230.312 1547.38 L79.1124 1547.38 Z" fill="#000000" fill-rule="nonzero" fill-opacity="1" /><path clip-path="url(#clip910)" d="M116.887 1400.33 L116.887 1311.82 L133.901 1311.82 L215.425 1381.9 L215.425 1311.82 L230.312 1311.82 L230.312 1402.86 L213.299 1402.86 L131.774 1332.78 L131.774 1400.33 L116.887 1400.33 Z" fill="#000000" fill-rule="nonzero" fill-opacity="1" /><path clip-path="url(#clip910)" d="M72.9348 1286.3 L72.9348 1270.09 Q96.8351 1254.9 119.723 1247.41 Q142.61 1239.81 165.194 1239.81 Q187.879 1239.81 210.868 1247.41 Q233.857 1254.9 257.656 1270.09 L257.656 1286.3 Q234.465 1272.83 211.577 1266.25 Q188.588 1259.56 165.194 1259.56 Q141.8 1259.56 119.014 1266.25 Q96.2275 1272.83 72.9348 1286.3 Z" fill="#000000" fill-rule="nonzero" fill-opacity="1" /><path clip-path="url(#clip910)" d="M1476.07 34.56 L1575.38 34.56 L1575.38 54.2358 L1499.45 54.2358 L1499.45 105.161 L1567.97 105.161 L1567.97 124.837 L1499.45 124.837 L1499.45 207.36 L1476.07 207.36 L1476.07 34.56 Z" fill="#000000" fill-rule="nonzero" fill-opacity="1" /><path clip-path="url(#clip910)" d="M1669.36 97.6384 Q1665.77 95.555 1661.49 94.6291 Q1657.32 93.5875 1652.23 93.5875 Q1634.18 93.5875 1624.45 105.393 Q1614.85 117.083 1614.85 139.073 L1614.85 207.36 L1593.43 207.36 L1593.43 77.7311 L1614.85 77.7311 L1614.85 97.8698 Q1621.56 86.0644 1632.32 80.3931 Q1643.09 74.6061 1658.48 74.6061 Q1660.68 74.6061 1663.34 74.9533 Q1666 75.1848 1669.24 75.7635 L1669.36 97.6384 Z" fill="#000000" fill-rule="nonzero" fill-opacity="1" /><path clip-path="url(#clip910)" d="M1797.37 137.221 L1797.37 147.638 L1699.45 147.638 Q1700.84 169.629 1712.65 181.203 Q1724.57 192.661 1745.75 192.661 Q1758.02 192.661 1769.48 189.652 Q1781.05 186.643 1792.39 180.624 L1792.39 200.763 Q1780.93 205.624 1768.9 208.17 Q1756.86 210.716 1744.48 210.716 Q1713.46 210.716 1695.29 192.661 Q1677.23 174.606 1677.23 143.819 Q1677.23 111.99 1694.36 93.356 Q1711.61 74.6061 1740.77 74.6061 Q1766.93 74.6061 1782.09 91.5041 Q1797.37 108.286 1797.37 137.221 M1776.07 130.972 Q1775.84 113.495 1766.23 103.078 Q1756.74 92.6615 1741 92.6615 Q1723.18 92.6615 1712.42 102.731 Q1701.77 112.8 1700.15 131.087 L1776.07 130.972 Z" fill="#000000" fill-rule="nonzero" fill-opacity="1" /><path clip-path="url(#clip910)" d="M1845.05 142.661 Q1845.05 166.157 1854.66 179.582 Q1864.38 192.892 1881.28 192.892 Q1898.18 192.892 1907.9 179.582 Q1917.62 166.157 1917.62 142.661 Q1917.62 119.166 1907.9 105.856 Q1898.18 92.4301 1881.28 92.4301 Q1864.38 92.4301 1854.66 105.856 Q1845.05 119.166 1845.05 142.661 M1917.62 187.916 Q1910.91 199.49 1900.61 205.161 Q1890.42 210.716 1876.07 210.716 Q1852.58 210.716 1837.76 191.967 Q1823.06 173.217 1823.06 142.661 Q1823.06 112.106 1837.76 93.356 Q1852.58 74.6061 1876.07 74.6061 Q1890.42 74.6061 1900.61 80.2773 Q1910.91 85.8329 1917.62 97.4069 L1917.62 77.7311 L1938.92 77.7311 L1938.92 256.665 L1917.62 256.665 L1917.62 187.916 Z" fill="#000000" fill-rule="nonzero" fill-opacity="1" /><path clip-path="url(#clip910)" d="M1980.59 156.203 L1980.59 77.7311 L2001.88 77.7311 L2001.88 155.393 Q2001.88 173.795 2009.06 183.055 Q2016.23 192.198 2030.59 192.198 Q2047.83 192.198 2057.78 181.203 Q2067.85 170.207 2067.85 151.226 L2067.85 77.7311 L2089.15 77.7311 L2089.15 207.36 L2067.85 207.36 L2067.85 187.453 Q2060.1 199.258 2049.8 205.045 Q2039.61 210.716 2026.07 210.716 Q2003.73 210.716 1992.16 196.828 Q1980.59 182.939 1980.59 156.203 M2034.17 74.6061 L2034.17 74.6061 Z" fill="#000000" fill-rule="nonzero" fill-opacity="1" /><path clip-path="url(#clip910)" d="M2243.89 137.221 L2243.89 147.638 L2145.98 147.638 Q2147.37 169.629 2159.17 181.203 Q2171.09 192.661 2192.27 192.661 Q2204.54 192.661 2216 189.652 Q2227.57 186.643 2238.92 180.624 L2238.92 200.763 Q2227.46 205.624 2215.42 208.17 Q2203.39 210.716 2191 210.716 Q2159.98 210.716 2141.81 192.661 Q2123.76 174.606 2123.76 143.819 Q2123.76 111.99 2140.89 93.356 Q2158.13 74.6061 2187.3 74.6061 Q2213.45 74.6061 2228.62 91.5041 Q2243.89 108.286 2243.89 137.221 M2222.6 130.972 Q2222.37 113.495 2212.76 103.078 Q2203.27 92.6615 2187.53 92.6615 Q2169.7 92.6615 2158.94 102.731 Q2148.29 112.8 2146.67 131.087 L2222.6 130.972 Z" fill="#000000" fill-rule="nonzero" fill-opacity="1" /><path clip-path="url(#clip910)" d="M2386.6 129.12 L2386.6 207.36 L2365.31 207.36 L2365.31 129.814 Q2365.31 111.411 2358.13 102.268 Q2350.95 93.1245 2336.6 93.1245 Q2319.36 93.1245 2309.4 104.12 Q2299.45 115.115 2299.45 134.097 L2299.45 207.36 L2278.04 207.36 L2278.04 77.7311 L2299.45 77.7311 L2299.45 97.8698 Q2307.09 86.1801 2317.39 80.3931 Q2327.81 74.6061 2341.35 74.6061 Q2363.69 74.6061 2375.14 88.4949 Q2386.6 102.268 2386.6 129.12 Z" fill="#000000" fill-rule="nonzero" fill-opacity="1" /><path clip-path="url(#clip910)" d="M2522.36 82.7079 L2522.36 102.615 Q2513.34 97.6384 2504.19 95.2078 Q2495.17 92.6615 2485.91 92.6615 Q2465.19 92.6615 2453.73 105.856 Q2442.27 118.935 2442.27 142.661 Q2442.27 166.388 2453.73 179.582 Q2465.19 192.661 2485.91 192.661 Q2495.17 192.661 2504.19 190.23 Q2513.34 187.684 2522.36 182.707 L2522.36 202.383 Q2513.45 206.55 2503.85 208.633 Q2494.36 210.716 2483.59 210.716 Q2454.31 210.716 2437.06 192.314 Q2419.82 173.911 2419.82 142.661 Q2419.82 110.948 2437.18 92.7773 Q2454.66 74.6061 2484.98 74.6061 Q2494.82 74.6061 2504.19 76.6894 Q2513.57 78.657 2522.36 82.7079 Z" fill="#000000" fill-rule="nonzero" fill-opacity="1" /><path clip-path="url(#clip910)" d="M2613.34 219.397 Q2604.31 242.545 2595.74 249.605 Q2587.18 256.665 2572.83 256.665 L2555.81 256.665 L2555.81 238.841 L2568.31 238.841 Q2577.11 238.841 2581.97 234.675 Q2586.83 230.508 2592.73 214.999 L2596.55 205.277 L2544.12 77.7311 L2566.69 77.7311 L2607.2 179.119 L2647.71 77.7311 L2670.28 77.7311 L2613.34 219.397 Z" fill="#000000" fill-rule="nonzero" fill-opacity="1" /><path clip-path="url(#clip910)" d="M2826.18 27.4999 Q2810.67 54.1201 2803.15 80.1616 Q2795.63 106.203 2795.63 132.939 Q2795.63 159.675 2803.15 185.948 Q2810.79 212.105 2826.18 238.61 L2807.66 238.61 Q2790.3 211.411 2781.62 185.138 Q2773.06 158.865 2773.06 132.939 Q2773.06 107.129 2781.62 80.9718 Q2790.19 54.8145 2807.66 27.4999 L2826.18 27.4999 Z" fill="#000000" fill-rule="nonzero" fill-opacity="1" /><path clip-path="url(#clip910)" d="M2942.62 97.6384 Q2939.03 95.555 2934.75 94.6291 Q2930.58 93.5875 2925.49 93.5875 Q2907.43 93.5875 2897.71 105.393 Q2888.1 117.083 2888.1 139.073 L2888.1 207.36 L2866.69 207.36 L2866.69 77.7311 L2888.1 77.7311 L2888.1 97.8698 Q2894.82 86.0644 2905.58 80.3931 Q2916.34 74.6061 2931.74 74.6061 Q2933.94 74.6061 2936.6 74.9533 Q2939.26 75.1848 2942.5 75.7635 L2942.62 97.6384 Z" fill="#000000" fill-rule="nonzero" fill-opacity="1" /><path clip-path="url(#clip910)" d="M3070.63 137.221 L3070.63 147.638 L2972.71 147.638 Q2974.1 169.629 2985.9 181.203 Q2997.83 192.661 3019.01 192.661 Q3031.27 192.661 3042.73 189.652 Q3054.31 186.643 3065.65 180.624 L3065.65 200.763 Q3054.19 205.624 3042.15 208.17 Q3030.12 210.716 3017.73 210.716 Q2986.71 210.716 2968.54 192.661 Q2950.49 174.606 2950.49 143.819 Q2950.49 111.99 2967.62 93.356 Q2984.86 74.6061 3014.03 74.6061 Q3040.19 74.6061 3055.35 91.5041 Q3070.63 108.286 3070.63 137.221 M3049.33 130.972 Q3049.1 113.495 3039.49 103.078 Q3030 92.6615 3014.26 92.6615 Q2996.44 92.6615 2985.67 102.731 Q2975.02 112.8 2973.4 131.087 L3049.33 130.972 Z" fill="#000000" fill-rule="nonzero" fill-opacity="1" /><path clip-path="url(#clip910)" d="M3171.2 27.2684 L3171.2 44.9766 L3150.83 44.9766 Q3139.38 44.9766 3134.86 49.6062 Q3130.46 54.2358 3130.46 66.2728 L3130.46 77.7311 L3165.53 77.7311 L3165.53 94.2819 L3130.46 94.2819 L3130.46 207.36 L3109.05 207.36 L3109.05 94.2819 L3088.68 94.2819 L3088.68 77.7311 L3109.05 77.7311 L3109.05 68.7033 Q3109.05 47.0599 3119.12 37.222 Q3129.19 27.2684 3151.07 27.2684 L3171.2 27.2684 Z" fill="#000000" fill-rule="nonzero" fill-opacity="1" /><path clip-path="url(#clip910)" d="M3174.79 177.962 L3199.21 177.962 L3199.21 207.36 L3174.79 207.36 L3174.79 177.962 Z" fill="#000000" fill-rule="nonzero" fill-opacity="1" /><path clip-path="url(#clip910)" d="M3452.8 47.8701 L3452.8 72.5228 Q3440.99 61.5274 3427.57 56.0877 Q3414.26 50.6479 3399.21 50.6479 Q3369.58 50.6479 3353.84 68.8191 Q3338.1 86.8745 3338.1 121.134 Q3338.1 155.277 3353.84 173.448 Q3369.58 191.504 3399.21 191.504 Q3414.26 191.504 3427.57 186.064 Q3440.99 180.624 3452.8 169.629 L3452.8 194.05 Q3440.53 202.383 3426.76 206.55 Q3413.1 210.716 3397.82 210.716 Q3358.59 210.716 3336.02 186.758 Q3313.45 162.684 3313.45 121.134 Q3313.45 79.4672 3336.02 55.509 Q3358.59 31.435 3397.82 31.435 Q3413.33 31.435 3426.99 35.6017 Q3440.76 39.6526 3452.8 47.8701 Z" fill="#000000" fill-rule="nonzero" fill-opacity="1" /><path clip-path="url(#clip910)" d="M3559.05 50.4164 Q3533.59 50.4164 3518.54 69.3978 Q3503.61 88.3792 3503.61 121.134 Q3503.61 153.772 3518.54 172.754 Q3533.59 191.735 3559.05 191.735 Q3584.51 191.735 3599.33 172.754 Q3614.26 153.772 3614.26 121.134 Q3614.26 88.3792 3599.33 69.3978 Q3584.51 50.4164 3559.05 50.4164 M3559.05 31.435 Q3595.39 31.435 3617.15 55.8562 Q3638.91 80.1616 3638.91 121.134 Q3638.91 161.99 3617.15 186.411 Q3595.39 210.716 3559.05 210.716 Q3522.59 210.716 3500.72 186.411 Q3478.96 162.106 3478.96 121.134 Q3478.96 80.1616 3500.72 55.8562 Q3522.59 31.435 3559.05 31.435 Z" fill="#000000" fill-rule="nonzero" fill-opacity="1" /><path clip-path="url(#clip910)" d="M3675.48 34.56 L3698.86 34.56 L3698.86 207.36 L3675.48 207.36 L3675.48 34.56 Z" fill="#000000" fill-rule="nonzero" fill-opacity="1" /><path clip-path="url(#clip910)" d="M3741.11 27.4999 L3759.63 27.4999 Q3776.99 54.8145 3785.55 80.9718 Q3794.23 107.129 3794.23 132.939 Q3794.23 158.865 3785.55 185.138 Q3776.99 211.411 3759.63 238.61 L3741.11 238.61 Q3756.5 212.105 3764.02 185.948 Q3771.66 159.675 3771.66 132.939 Q3771.66 106.203 3764.02 80.1616 Q3756.5 54.1201 3741.11 27.4999 Z" fill="#000000" fill-rule="nonzero" fill-opacity="1" /><polyline clip-path="url(#clip912)" style="stroke:#009af9; stroke-linecap:round; stroke-linejoin:round; stroke-width:12; stroke-opacity:1; fill:none" points="771.125,1372.01 778.596,1379.72 786.067,1387.41 793.538,1395.05 801.009,1402.62 808.48,1410.11 815.951,1417.5 823.423,1424.77 830.894,1431.9 838.365,1438.89 845.836,1445.71 853.307,1452.35 860.778,1458.81 868.249,1465.07 875.72,1471.12 883.191,1476.97 890.662,1482.6 898.133,1488.02 905.604,1493.23 913.075,1498.22 920.546,1503.02 928.017,1507.61 935.488,1512.02 942.959,1516.25 950.43,1520.32 957.902,1524.23 965.373,1528.02 972.844,1531.69 980.315,1535.26 987.786,1538.75 995.257,1542.18 995.257,1539.24 1002.73,1529.89 1010.2,1520.44 1017.67,1510.91 1025.14,1501.34 1032.61,1491.73 1040.08,1482.09 1047.55,1472.44 1055.03,1462.79 1062.5,1453.14 1069.97,1443.49 1077.44,1433.87 1084.91,1424.27 1092.38,1414.71 1099.85,1405.2 1107.32,1395.76 1114.79,1386.4 1122.26,1377.14 1129.74,1367.99 1137.21,1358.96 1144.68,1350.07 1152.15,1341.32 1159.62,1332.73 1167.09,1324.3 1174.56,1316.02 1182.03,1307.91 1189.5,1299.95 1196.98,1292.13 1204.45,1284.45 1211.92,1276.9 1219.39,1269.46 1226.86,1262.12 1234.33,1254.85 1241.8,1247.66 1249.27,1240.52 1256.74,1233.43 1264.21,1226.38 1271.69,1219.38 1279.16,1212.43 1286.63,1205.55 1294.1,1198.75 1301.57,1192.08 1309.04,1185.57 1316.51,1179.27 1323.98,1173.24 1331.45,1167.55 1338.93,1162.26 1346.4,1157.46 1353.87,1153.2 1361.34,1149.57 1368.81,1146.64 1376.28,1144.47 1383.75,1143.1 1391.22,1142.59 1398.69,1142.98 1406.16,1144.27 1413.64,1146.5 1421.11,1149.67 1428.58,1153.76 1436.05,1158.77 1443.52,1164.68 1450.99,1171.46 1458.46,1179.06 1465.93,1187.46 1473.4,1196.62 1480.88,1206.48 1488.35,1216.99 1495.82,1228.1 1503.29,1239.76 1510.76,1251.92 1518.23,1264.51 1525.7,1277.49 1533.17,1290.81 1540.64,1304.41 1548.11,1318.24 1555.59,1332.27 1563.06,1346.45 1570.53,1360.74 1578,1375.1 1585.47,1389.5 1592.94,1403.89 1600.41,1418.25 1607.88,1432.52 1615.35,1446.68 1622.83,1460.66 1630.3,1474.43 1637.77,1487.92 1645.24,1501.07 1652.71,1513.82 1660.18,1526.08 1667.65,1537.79 1675.12,1548.85 1682.59,1559.19 1690.06,1568.71 1697.54,1577.35 1705.01,1585.02 1712.48,1591.66 1719.95,1597.23 1727.42,1601.67 1734.89,1604.96 1742.36,1607.1 1749.83,1608.1 1757.3,1607.97 1764.78,1606.76 1772.25,1604.5 1779.72,1601.27 1787.19,1597.13 1794.66,1592.14 1802.13,1586.4 1809.6,1579.96 1817.07,1572.92 1824.54,1565.34 1832.02,1557.31 1839.49,1548.9 1846.96,1540.18 1854.43,1531.2 1861.9,1522.04 1869.37,1512.74 1876.84,1503.36 1884.31,1493.94 1891.78,1484.53 1899.25,1475.15 1906.73,1465.84 1914.2,1456.62 1921.67,1447.49 1929.14,1438.49 1936.61,1429.6 1944.08,1420.83 1951.55,1412.18 1959.02,1403.63 1966.49,1395.19 1973.97,1386.82 1981.44,1378.52 1988.91,1370.27 1996.38,1362.04 2003.85,1353.82 2011.32,1345.59 2018.79,1337.32 2026.26,1328.99 2033.73,1320.59 2041.2,1312.11 2048.68,1303.53 2056.15,1294.85 2063.62,1286.06 2071.09,1277.17 2078.56,1268.17 2086.03,1259.1 2093.5,1249.95 2100.97,1240.77 2108.44,1231.58 2115.92,1222.42 2123.39,1213.34 2130.86,1204.39 2138.33,1195.62 2145.8,1187.1 2153.27,1178.89 2160.74,1171.06 2168.21,1163.69 2175.68,1156.85 2183.15,1150.62 2190.63,1145.07 2198.1,1140.29 2205.57,1136.33 2213.04,1133.28 2220.51,1131.19 2227.98,1130.11 2235.45,1130.09 2242.92,1131.17 2250.39,1133.36 2257.87,1136.68 2265.34,1141.1 2272.81,1146.62 2280.28,1153.2 2287.75,1160.79 2295.22,1169.32 2302.69,1178.73 2310.16,1188.96 2317.63,1199.9 2325.1,1211.5 2332.58,1223.66 2340.05,1236.32 2347.52,1249.4 2354.99,1262.83 2362.46,1276.54 2369.93,1290.49 2377.4,1304.62 2384.87,1318.89 2392.34,1333.24 2399.82,1347.65 2407.29,1362.07 2414.76,1376.47 2422.23,1390.81 2429.7,1405.05 2437.17,1419.15 2444.64,1433.08 2452.11,1446.77 2459.58,1460.2 2467.05,1473.3 2474.53,1486.02 2482,1498.3 2489.47,1510.1 2496.94,1521.34 2504.41,1531.97 2511.88,1541.94 2519.35,1551.19 2526.82,1559.67 2534.29,1567.34 2541.77,1574.14 2549.24,1580.05 2556.71,1585.04 2564.18,1589.09 2571.65,1592.17 2579.12,1594.3 2586.59,1595.47 2594.06,1595.7 2601.53,1595.02 2609,1593.45 2616.48,1591.06 2623.95,1587.88 2631.42,1583.99 2638.89,1579.44 2646.36,1574.32 2653.83,1568.7 2661.3,1562.64 2668.77,1556.23 2676.24,1549.54 2683.72,1542.62 2691.19,1535.52 2698.66,1528.3 2706.13,1521 2713.6,1513.63 2721.07,1506.23 2728.54,1498.81 2736.01,1491.37 2743.48,1483.92 2750.95,1476.44 2758.43,1468.93 2765.9,1461.38 2773.37,1453.77 2780.84,1446.09 2788.31,1438.32 2795.78,1430.45 2803.25,1422.47 2810.72,1414.36 2818.19,1406.11 2825.67,1397.72 2833.14,1389.18 2840.61,1380.49 2848.08,1371.66 2855.55,1362.68 2863.02,1353.57 2870.49,1344.33 2877.96,1334.97 2885.43,1325.51 2892.9,1315.96 2900.38,1306.33 2907.85,1296.63 2915.32,1286.89 2922.79,1277.11 2930.26,1267.31 2937.73,1257.51 2945.2,1247.71 2952.67,1237.94 2960.14,1228.22 2967.62,1218.56 2975.09,1208.99 2982.56,1199.54 2990.03,1190.26 2997.5,1181.2 3004.97,1172.4 3012.44,1163.95 3019.91,1155.92 3027.38,1148.41 3034.86,1141.52 3042.33,1135.36 3049.8,1130.04 3057.27,1125.68 3064.74,1122.4 3072.21,1120.28 3079.68,1119.41 3087.15,1119.84 3094.62,1121.62 3102.09,1124.74 3109.57,1129.18 3117.04,1134.89 3124.51,1141.81 3131.98,1149.85 3139.45,1158.89 3146.92,1168.85 3154.39,1179.6 3161.86,1191.05 3169.33,1203.08 3176.81,1215.61 3184.28,1228.55 3191.75,1241.82 3199.22,1255.36 3206.69,1269.09 3214.16,1282.97 3221.63,1296.95 3229.1,1310.99 3236.57,1325.03 3244.04,1339.05 3251.52,1353.01 3258.99,1366.86 3266.46,1380.58 3273.93,1394.12 3281.4,1407.44 3288.87,1420.52 3296.34,1433.31 3303.81,1445.77 3311.28,1457.88 3318.76,1469.59 3326.23,1480.87 3333.7,1491.69 3341.17,1502.02 3348.64,1511.83 3356.11,1521.08 3363.58,1529.75 3371.05,1537.81 3378.52,1545.22 3385.99,1551.96 3393.47,1557.99 3400.94,1563.29 3408.41,1567.83 3415.88,1571.59 3423.35,1574.57 3430.82,1576.76 3438.29,1578.18 3445.76,1578.85 3453.23,1578.82 3460.71,1578.13 3468.18,1576.85 3475.65,1575.04 3483.12,1572.79 3490.59,1570.18 3498.06,1567.25 3505.53,1564.09 3513,1560.74 3520.47,1557.24 3527.94,1553.61 3535.42,1549.86 3542.89,1546 3550.36,1542.01 3557.83,1537.86 3565.3,1533.54 3572.77,1529.02 3580.24,1524.25 3587.71,1519.22 3595.18,1513.88 3602.66,1508.22 3610.13,1502.21 3617.6,1495.84 3625.07,1489.11 3632.54,1482.02 3640.01,1474.58 3647.48,1466.82 3654.95,1458.76 3662.42,1450.45 3669.89,1441.93 3677.37,1433.25 3684.84,1424.45 3692.31,1415.6 3699.78,1406.74 3707.25,1397.93 3714.72,1389.22 3722.19,1380.63 3729.66,1372.21 3737.13,1363.98 3744.61,1355.96 3752.08,1348.15 3759.55,1340.56 3767.02,1333.17 3774.49,1325.98 3781.96,1318.94 3789.43,1312.04 3796.9,1305.24 3804.37,1298.49 3811.84,1291.76 3819.32,1285 3826.79,1278.16 3834.26,1271.19 3841.73,1264.05 3849.2,1256.7 3856.67,1249.1 3864.14,1241.23 3871.61,1233.07 3879.08,1224.61 3886.56,1215.88 3894.03,1206.91 3901.5,1197.76 3908.97,1188.52 3916.44,1179.31 3923.91,1170.28 3931.38,1161.58 3938.85,1153.43 3946.32,1146 3953.79,1139.5 3961.27,1134.12 3968.74,1130.01 3976.21,1127.3 3983.68,1126.06 3991.15,1126.32 3998.62,1128.08 4006.09,1131.28 4013.56,1135.82 4021.03,1141.6 4028.51,1148.49 4035.98,1156.36 4043.45,1165.07 4050.92,1174.51 4058.39,1184.56 4065.86,1195.1 4073.33,1206.05 4080.8,1217.31 4088.27,1228.81 4095.74,1240.48 4103.22,1252.25 4110.69,1264.07 4118.16,1275.91 4125.63,1287.72 4133.1,1299.46 4140.57,1311.11 4148.04,1322.65 4155.51,1334.05 4162.98,1345.28 4170.46,1356.34 4177.93,1367.2 4185.4,1377.84 4192.87,1388.26 4200.34,1398.44 4207.81,1408.36 4215.28,1418.03 4222.75,1427.43 4230.22,1436.56 4237.69,1445.42 4245.17,1453.98 4252.64,1462.26 4260.11,1470.23 4267.58,1477.88 4275.05,1485.18 4282.52,1492.12 4289.99,1498.66 4297.46,1504.77 4304.93,1510.43 4312.41,1515.6 4319.88,1520.27 4327.35,1524.43 4334.82,1528.08 4342.29,1531.24 4349.76,1533.96 4357.23,1536.28 4364.7,1538.29 4372.17,1540.05 4379.65,1541.64 4387.12,1543.14 4394.59,1544.61 4402.06,1546.08 4409.53,1547.58 4417,1549.11 4424.47,1550.64 4431.94,1552.13 4439.41,1553.53 4446.88,1554.77 4454.36,1555.77 4461.83,1556.45 4469.3,1556.71 4476.77,1556.46 4484.24,1555.62 4491.71,1554.1 4499.18,1551.84 "/>
<polyline clip-path="url(#clip912)" style="stroke:#e26f46; stroke-linecap:round; stroke-linejoin:round; stroke-width:12; stroke-opacity:1; fill:none" points="771.125,1360.81 778.596,1346.14 786.067,1331.48 793.538,1316.81 801.009,1302.15 808.48,1287.49 815.951,1272.83 823.423,1258.17 830.894,1243.52 838.365,1228.87 845.836,1214.24 853.307,1199.61 860.778,1185 868.249,1170.41 875.72,1155.83 883.191,1141.29 890.662,1126.76 898.133,1112.27 905.604,1097.82 913.075,1083.41 920.546,1069.04 928.017,1054.72 935.488,1040.45 942.959,1026.24 950.43,1012.09 957.902,997.999 965.373,983.976 972.844,970.022 980.315,956.14 987.786,942.33 995.257,928.596 995.257,923.232 1002.73,926.603 1010.2,930.837 1017.67,936.049 1025.14,942.353 1032.61,949.858 1040.08,958.668 1047.55,968.883 1055.03,980.592 1062.5,993.876 1069.97,1008.8 1077.44,1025.41 1084.91,1043.75 1092.38,1063.82 1099.85,1085.61 1107.32,1109.11 1114.79,1134.25 1122.26,1160.98 1129.74,1189.21 1137.21,1218.84 1144.68,1249.79 1152.15,1281.93 1159.62,1315.16 1167.09,1349.36 1174.56,1384.45 1182.03,1420.3 1189.5,1456.83 1196.98,1493.94 1204.45,1531.54 1211.92,1569.56 1219.39,1607.89 1226.86,1646.44 1234.33,1685.11 1241.8,1723.78 1249.27,1762.3 1256.74,1800.5 1264.21,1838.2 1271.69,1875.17 1279.16,1911.16 1286.63,1945.87 1294.1,1978.99 1301.57,2010.18 1309.04,2039.08 1316.51,2065.33 1323.98,2088.56 1331.45,2108.43 1338.93,2124.64 1346.4,2136.9 1353.87,2145.02 1361.34,2148.83 1368.81,2148.25 1376.28,2143.29 1383.75,2133.99 1391.22,2120.48 1398.69,2102.96 1406.16,2081.66 1413.64,2056.86 1421.11,2028.88 1428.58,1998.06 1436.05,1964.75 1443.52,1929.31 1450.99,1892.09 1458.46,1853.45 1465.93,1813.72 1473.4,1773.25 1480.88,1732.33 1488.35,1691.25 1495.82,1650.28 1503.29,1609.66 1510.76,1569.61 1518.23,1530.32 1525.7,1491.94 1533.17,1454.6 1540.64,1418.42 1548.11,1383.45 1555.59,1349.76 1563.06,1317.35 1570.53,1286.22 1578,1256.35 1585.47,1227.69 1592.94,1200.18 1600.41,1173.74 1607.88,1148.3 1615.35,1123.75 1622.83,1100.02 1630.3,1077 1637.77,1054.62 1645.24,1032.8 1652.71,1011.47 1660.18,990.581 1667.65,970.095 1675.12,949.995 1682.59,930.289 1690.06,911.003 1697.54,892.188 1705.01,873.919 1712.48,856.291 1719.95,839.42 1727.42,823.437 1734.89,808.487 1742.36,794.721 1749.83,782.296 1757.3,771.365 1764.78,762.077 1772.25,754.567 1779.72,748.962 1787.19,745.368 1794.66,743.876 1802.13,744.558 1809.6,747.464 1817.07,752.627 1824.54,760.06 1832.02,769.755 1839.49,781.689 1846.96,795.817 1854.43,812.081 1861.9,830.406 1869.37,850.699 1876.84,872.86 1884.31,896.772 1891.78,922.313 1899.25,949.351 1906.73,977.753 1914.2,1007.38 1921.67,1038.1 1929.14,1069.78 1936.61,1102.3 1944.08,1135.52 1951.55,1169.36 1959.02,1203.69 1966.49,1238.43 1973.97,1273.49 1981.44,1308.79 1988.91,1344.26 1996.38,1379.84 2003.85,1415.44 2011.32,1451.02 2018.79,1486.5 2026.26,1521.8 2033.73,1556.84 2041.2,1591.54 2048.68,1625.79 2056.15,1659.49 2063.62,1692.52 2071.09,1724.74 2078.56,1756.01 2086.03,1786.2 2093.5,1815.14 2100.97,1842.67 2108.44,1868.65 2115.92,1892.9 2123.39,1915.29 2130.86,1935.67 2138.33,1953.91 2145.8,1969.91 2153.27,1983.55 2160.74,1994.77 2168.21,2003.5 2175.68,2009.71 2183.15,2013.4 2190.63,2014.56 2198.1,2013.24 2205.57,2009.51 2213.04,2003.43 2220.51,1995.13 2227.98,1984.73 2235.45,1972.37 2242.92,1958.23 2250.39,1942.47 2257.87,1925.27 2265.34,1906.82 2272.81,1887.29 2280.28,1866.86 2287.75,1845.67 2295.22,1823.88 2302.69,1801.59 2310.16,1778.9 2317.63,1755.89 2325.1,1732.61 2332.58,1709.07 2340.05,1685.28 2347.52,1661.21 2354.99,1636.84 2362.46,1612.11 2369.93,1586.96 2377.4,1561.31 2384.87,1535.08 2392.34,1508.19 2399.82,1480.56 2407.29,1452.12 2414.76,1422.79 2422.23,1392.52 2429.7,1361.26 2437.17,1328.99 2444.64,1295.71 2452.11,1261.42 2459.58,1226.19 2467.05,1190.07 2474.53,1153.16 2482,1115.6 2489.47,1077.53 2496.94,1039.15 2504.41,1000.67 2511.88,962.327 2519.35,924.383 2526.82,887.125 2534.29,850.857 2541.77,815.896 2549.24,782.571 2556.71,751.216 2564.18,722.164 2571.65,695.743 2579.12,672.265 2586.59,652.02 2594.06,635.271 2601.53,622.242 2609,613.111 2616.48,608.004 2623.95,606.99 2631.42,610.077 2638.89,617.209 2646.36,628.271 2653.83,643.09 2661.3,661.443 2668.77,683.063 2676.24,707.654 2683.72,734.899 2691.19,764.468 2698.66,796.036 2706.13,829.284 2713.6,863.912 2721.07,899.642 2728.54,936.223 2736.01,973.431 2743.48,1011.07 2750.95,1048.97 2758.43,1086.98 2765.9,1124.99 2773.37,1162.87 2780.84,1200.53 2788.31,1237.89 2795.78,1274.85 2803.25,1311.35 2810.72,1347.28 2818.19,1382.57 2825.67,1417.13 2833.14,1450.85 2840.61,1483.64 2848.08,1515.4 2855.55,1546.01 2863.02,1575.39 2870.49,1603.43 2877.96,1630.05 2885.43,1655.15 2892.9,1678.69 2900.38,1700.61 2907.85,1720.88 2915.32,1739.49 2922.79,1756.44 2930.26,1771.74 2937.73,1785.45 2945.2,1797.6 2952.67,1808.27 2960.14,1817.52 2967.62,1825.44 2975.09,1832.11 2982.56,1837.63 2990.03,1842.09 2997.5,1845.58 3004.97,1848.23 3012.44,1850.12 3019.91,1851.37 3027.38,1852.09 3034.86,1852.39 3042.33,1852.4 3049.8,1852.21 3057.27,1851.94 3064.74,1851.67 3072.21,1851.47 3079.68,1851.41 3087.15,1851.5 3094.62,1851.75 3102.09,1852.1 3109.57,1852.51 3117.04,1852.85 3124.51,1853.02 3131.98,1852.85 3139.45,1852.17 3146.92,1850.8 3154.39,1848.54 3161.86,1845.16 3169.33,1840.47 3176.81,1834.24 3184.28,1826.24 3191.75,1816.27 3199.22,1804.1 3206.69,1789.52 3214.16,1772.37 3221.63,1752.46 3229.1,1729.68 3236.57,1703.91 3244.04,1675.13 3251.52,1643.31 3258.99,1608.52 3266.46,1570.85 3273.93,1530.44 3281.4,1487.5 3288.87,1442.24 3296.34,1394.92 3303.81,1345.81 3311.28,1295.2 3318.76,1243.38 3326.23,1190.64 3333.7,1137.29 3341.17,1083.62 3348.64,1029.94 3356.11,976.56 3363.58,923.812 3371.05,872.041 3378.52,821.623 3385.99,772.962 3393.47,726.498 3400.94,682.701 3408.41,642.071 3415.88,605.123 3423.35,572.377 3430.82,544.335 3438.29,521.455 3445.76,504.128 3453.23,492.646 3460.71,487.184 3468.18,487.78 3475.65,494.329 3483.12,506.584 3490.59,524.174 3498.06,546.624 3505.53,573.387 3513,603.875 3520.47,637.488 3527.94,673.649 3535.42,711.816 3542.89,751.505 3550.36,792.293 3557.83,833.826 3565.3,875.808 3572.77,918.003 3580.24,960.22 3587.71,1002.31 3595.18,1044.14 3602.66,1085.61 3610.13,1126.61 3617.6,1167.04 3625.07,1206.79 3632.54,1245.73 3640.01,1283.73 3647.48,1320.62 3654.95,1356.25 3662.42,1390.42 3669.89,1422.96 3677.37,1453.68 3684.84,1482.4 3692.31,1508.96 3699.78,1533.24 3707.25,1555.12 3714.72,1574.55 3722.19,1591.49 3729.66,1605.95 3737.13,1617.98 3744.61,1627.67 3752.08,1635.14 3759.55,1640.52 3767.02,1643.99 3774.49,1645.7 3781.96,1645.87 3789.43,1644.65 3796.9,1642.26 3804.37,1638.87 3811.84,1634.67 3819.32,1629.83 3826.79,1624.52 3834.26,1618.93 3841.73,1613.2 3849.2,1607.53 3856.67,1602.07 3864.14,1597.03 3871.61,1592.59 3879.08,1588.95 3886.56,1586.33 3894.03,1584.97 3901.5,1585.08 3908.97,1586.91 3916.44,1590.68 3923.91,1596.58 3931.38,1604.8 3938.85,1615.44 3946.32,1628.58 3953.79,1644.18 3961.27,1662.18 3968.74,1682.38 3976.21,1704.55 3983.68,1728.38 3991.15,1753.52 3998.62,1779.59 4006.09,1806.19 4013.56,1832.93 4021.03,1859.42 4028.51,1885.29 4035.98,1910.16 4043.45,1933.68 4050.92,1955.47 4058.39,1975.16 4065.86,1992.32 4073.33,2006.52 4080.8,2017.3 4088.27,2024.16 4095.74,2026.61 4103.22,2024.2 4110.69,2016.51 4118.16,2003.22 4125.63,1984.15 4133.1,1959.25 4140.57,1928.64 4148.04,1892.6 4155.51,1851.54 4162.98,1805.99 4170.46,1756.55 4177.93,1703.85 4185.4,1648.51 4192.87,1591.11 4200.34,1532.18 4207.81,1472.14 4215.28,1411.38 4222.75,1350.18 4230.22,1288.77 4237.69,1227.32 4245.17,1165.96 4252.64,1104.84 4260.11,1044.06 4267.58,983.78 4275.05,924.2 4282.52,865.578 4289.99,808.254 4297.46,752.668 4304.93,699.363 4312.41,648.986 4319.88,602.277 4327.35,560.045 4334.82,523.123 4342.29,492.316 4349.76,468.334 4357.23,451.727 4364.7,442.825 4372.17,441.702 4379.65,448.158 4387.12,461.742 4394.59,481.793 4402.06,507.505 4409.53,537.996 4417,572.378 4424.47,609.814 4431.94,649.554 4439.41,690.964 4446.88,733.529 4454.36,776.848 4461.83,820.625 4469.3,864.645 4476.77,908.754 4484.24,952.842 4491.71,996.815 4499.18,1040.58 "/>
<polyline clip-path="url(#clip912)" style="stroke:#3da44d; stroke-linecap:round; stroke-linejoin:round; stroke-width:12; stroke-opacity:1; fill:none" points="771.125,1353.4 778.596,1323.98 786.067,1294.79 793.538,1265.97 801.009,1237.67 808.48,1210.02 815.951,1183.17 823.423,1157.25 830.894,1132.37 838.365,1108.66 845.836,1086.22 853.307,1065.14 860.778,1045.49 868.249,1027.36 875.72,1010.79 883.191,995.804 890.662,982.435 898.133,970.68 905.604,960.521 913.075,951.926 920.546,944.843 928.017,939.206 935.488,934.931 942.959,931.922 950.43,930.07 957.902,929.253 965.373,929.342 972.844,930.197 980.315,931.673 987.786,933.619 995.257,935.883 995.257,970.394 1002.73,1036.65 1010.2,1101.88 1017.67,1165.6 1025.14,1227.4 1032.61,1286.92 1040.08,1343.85 1047.55,1397.9 1055.03,1448.83 1062.5,1496.4 1069.97,1540.42 1077.44,1580.7 1084.91,1617.1 1092.38,1649.51 1099.85,1677.82 1107.32,1702.01 1114.79,1722.05 1122.26,1737.97 1129.74,1749.83 1137.21,1757.72 1144.68,1761.76 1152.15,1762.11 1159.62,1758.93 1167.09,1752.44 1174.56,1742.83 1182.03,1730.33 1189.5,1715.19 1196.98,1697.65 1204.45,1677.99 1211.92,1656.48 1219.39,1633.42 1226.86,1609.13 1234.33,1583.95 1241.8,1558.24 1249.27,1532.4 1256.74,1506.85 1264.21,1482.04 1271.69,1458.42 1279.16,1436.5 1286.63,1416.77 1294.1,1399.71 1301.57,1385.81 1309.04,1375.5 1316.51,1369.16 1323.98,1367.1 1331.45,1369.54 1338.93,1376.61 1346.4,1388.28 1353.87,1404.43 1361.34,1424.82 1368.81,1449.07 1376.28,1476.73 1383.75,1507.22 1391.22,1539.93 1398.69,1574.18 1406.16,1609.27 1413.64,1644.48 1421.11,1679.11 1428.58,1712.48 1436.05,1743.95 1443.52,1772.93 1450.99,1798.87 1458.46,1821.28 1465.93,1839.75 1473.4,1853.92 1480.88,1863.51 1488.35,1868.3 1495.82,1868.12 1503.29,1862.89 1510.76,1852.58 1518.23,1837.22 1525.7,1816.87 1533.17,1791.68 1540.64,1761.81 1548.11,1727.49 1555.59,1688.95 1563.06,1646.5 1570.53,1600.46 1578,1551.18 1585.47,1499.05 1592.94,1444.5 1600.41,1387.98 1607.88,1329.97 1615.35,1271 1622.83,1211.62 1630.3,1152.44 1637.77,1094.07 1645.24,1037.16 1652.71,982.412 1660.18,930.504 1667.65,882.135 1675.12,837.988 1682.59,798.713 1690.06,764.906 1697.54,737.085 1705.01,715.674 1712.48,700.977 1719.95,693.166 1727.42,692.271 1734.89,698.177 1742.36,710.625 1749.83,729.226 1757.3,753.472 1764.78,782.761 1772.25,816.419 1779.72,853.718 1787.19,893.907 1794.66,936.224 1802.13,979.923 1809.6,1024.28 1817.07,1068.62 1824.54,1112.3 1832.02,1154.75 1839.49,1195.44 1846.96,1233.94 1854.43,1269.85 1861.9,1302.87 1869.37,1332.73 1876.84,1359.27 1884.31,1382.38 1891.78,1402 1899.25,1418.15 1906.73,1430.9 1914.2,1440.35 1921.67,1446.68 1929.14,1450.07 1936.61,1450.75 1944.08,1448.97 1951.55,1444.99 1959.02,1439.09 1966.49,1431.57 1973.97,1422.72 1981.44,1412.84 1988.91,1402.23 1996.38,1391.2 2003.85,1380.05 2011.32,1369.08 2018.79,1358.61 2026.26,1348.94 2033.73,1340.37 2041.2,1333.21 2048.68,1327.75 2056.15,1324.29 2063.62,1323.1 2071.09,1324.45 2078.56,1328.57 2086.03,1335.69 2093.5,1345.96 2100.97,1359.53 2108.44,1376.48 2115.92,1396.83 2123.39,1420.55 2130.86,1447.54 2138.33,1477.62 2145.8,1510.55 2153.27,1546.02 2160.74,1583.64 2168.21,1622.96 2175.68,1663.46 2183.15,1704.56 2190.63,1745.65 2198.1,1786.04 2205.57,1825.05 2213.04,1861.95 2220.51,1896.04 2227.98,1926.62 2235.45,1953.01 2242.92,1974.62 2250.39,1990.91 2257.87,2001.45 2265.34,2005.91 2272.81,2004.08 2280.28,1995.87 2287.75,1981.35 2295.22,1960.67 2302.69,1934.12 2310.16,1902.08 2317.63,1865.02 2325.1,1823.45 2332.58,1777.96 2340.05,1729.15 2347.52,1677.61 2354.99,1623.97 2362.46,1568.82 2369.93,1512.75 2377.4,1456.32 2384.87,1400.05 2392.34,1344.47 2399.82,1290.06 2407.29,1237.27 2414.76,1186.55 2422.23,1138.3 2429.7,1092.91 2437.17,1050.76 2444.64,1012.19 2452.11,977.501 2459.58,946.995 2467.05,920.92 2474.53,899.489 2482,882.871 2489.47,871.184 2496.94,864.491 2504.41,862.793 2511.88,866.025 2519.35,874.053 2526.82,886.67 2534.29,903.599 2541.77,924.489 2549.24,948.92 2556.71,976.41 2564.18,1006.41 2571.65,1038.34 2579.12,1071.56 2586.59,1105.41 2594.06,1139.21 2601.53,1172.29 2609,1203.98 2616.48,1233.67 2623.95,1260.77 2631.42,1284.8 2638.89,1305.32 2646.36,1322.02 2653.83,1334.68 2661.3,1343.19 2668.77,1347.56 2676.24,1347.86 2683.72,1344.31 2691.19,1337.15 2698.66,1326.73 2706.13,1313.41 2713.6,1297.61 2721.07,1279.75 2728.54,1260.26 2736.01,1239.58 2743.48,1218.11 2750.95,1196.25 2758.43,1174.4 2765.9,1152.91 2773.37,1132.12 2780.84,1112.36 2788.31,1093.94 2795.78,1077.14 2803.25,1062.26 2810.72,1049.56 2818.19,1039.29 2825.67,1031.72 2833.14,1027.07 2840.61,1025.57 2848.08,1027.43 2855.55,1032.83 2863.02,1041.94 2870.49,1054.9 2877.96,1071.8 2885.43,1092.73 2892.9,1117.71 2900.38,1146.74 2907.85,1179.77 2915.32,1216.73 2922.79,1257.49 2930.26,1301.9 2937.73,1349.76 2945.2,1400.85 2952.67,1454.9 2960.14,1511.62 2967.62,1570.65 2975.09,1631.61 2982.56,1694.05 2990.03,1757.45 2997.5,1821.22 3004.97,1884.67 3012.44,1947.03 3019.91,2007.43 3027.38,2064.89 3034.86,2118.37 3042.33,2166.75 3049.8,2208.91 3057.27,2243.71 3064.74,2270.1 3072.21,2287.16 3079.68,2294.14 3087.15,2290.53 3094.62,2276.07 3102.09,2250.8 3109.57,2215.06 3117.04,2169.43 3124.51,2114.74 3131.98,2052.01 3139.45,1982.39 3146.92,1907.12 3154.39,1827.49 3161.86,1744.77 3169.33,1660.23 3176.81,1575.07 3184.28,1490.45 3191.75,1407.43 3199.22,1327.02 3206.69,1250.13 3214.16,1177.58 3221.63,1110.11 3229.1,1048.35 3236.57,992.808 3244.04,943.912 3251.52,901.957 3258.99,867.129 3266.46,839.507 3273.93,819.07 3281.4,805.709 3288.87,799.238 3296.34,799.412 3303.81,805.936 3311.28,818.485 3318.76,836.708 3326.23,860.236 3333.7,888.691 3341.17,921.679 3348.64,958.794 3356.11,999.607 3363.58,1043.66 3371.05,1090.45 3378.52,1139.43 3385.99,1189.98 3393.47,1241.4 3400.94,1292.91 3408.41,1343.65 3415.88,1392.64 3423.35,1438.88 3430.82,1481.29 3438.29,1518.79 3445.76,1550.36 3453.23,1575.06 3460.71,1592.1 3468.18,1600.91 3475.65,1601.14 3483.12,1592.74 3490.59,1575.91 3498.06,1551.11 3505.53,1519.03 3513,1480.52 3520.47,1436.55 3527.94,1388.18 3535.42,1336.45 3542.89,1282.42 3550.36,1227.06 3557.83,1171.29 3565.3,1115.94 3572.77,1061.77 3580.24,1009.43 3587.71,959.487 3595.18,912.453 3602.66,868.759 3610.13,828.776 3617.6,792.826 3625.07,761.181 3632.54,734.073 3640.01,711.695 3647.48,694.204 3654.95,681.722 3662.42,674.333 3669.89,672.085 3677.37,674.984 3684.84,682.992 3692.31,696.028 3699.78,713.96 3707.25,736.616 3714.72,763.777 3722.19,795.189 3729.66,830.569 3737.13,869.612 3744.61,912.007 3752.08,957.443 3759.55,1005.62 3767.02,1056.28 3774.49,1109.16 3781.96,1164.07 3789.43,1220.84 3796.9,1279.36 3804.37,1339.54 3811.84,1401.34 3819.32,1464.75 3826.79,1529.77 3834.26,1596.39 3841.73,1664.62 3849.2,1734.42 3856.67,1805.67 3864.14,1878.22 3871.61,1951.78 3879.08,2025.92 3886.56,2100.06 3894.03,2173.42 3901.5,2245.04 3908.97,2313.71 3916.44,2378.03 3923.91,2436.44 3931.38,2487.24 3938.85,2528.68 3946.32,2559.09 3953.79,2576.93 3961.27,2580.95 3968.74,2570.27 3976.21,2544.44 3983.68,2503.49 3991.15,2447.94 3998.62,2378.7 4006.09,2297.05 4013.56,2204.51 4021.03,2102.8 4028.51,1993.7 4035.98,1879.01 4043.45,1760.54 4050.92,1640.06 4058.39,1519.31 4065.86,1400 4073.33,1283.84 4080.8,1172.48 4088.27,1067.6 4095.74,970.761 4103.22,883.432 4110.69,806.896 4118.16,742.181 4125.63,690.001 4133.1,650.708 4140.57,624.276 4148.04,610.313 4155.51,608.11 4162.98,616.709 4170.46,634.991 4177.93,661.759 4185.4,695.822 4192.87,736.056 4200.34,781.452 4207.81,831.145 4215.28,884.418 4222.75,940.705 4230.22,999.572 4237.69,1060.7 4245.17,1123.84 4252.64,1188.82 4260.11,1255.45 4267.58,1323.56 4275.05,1392.87 4282.52,1463.05 4289.99,1533.58 4297.46,1603.76 4304.93,1672.67 4312.41,1739.15 4319.88,1801.79 4327.35,1858.93 4334.82,1908.76 4342.29,1949.42 4349.76,1979.08 4357.23,1996.12 4364.7,1999.31 4372.17,1987.87 4379.65,1961.63 4387.12,1920.96 4394.59,1866.81 4402.06,1800.58 4409.53,1723.97 4417,1638.88 4424.47,1547.27 4431.94,1451.04 4439.41,1351.98 4446.88,1251.74 4454.36,1151.78 4461.83,1053.4 4469.3,957.77 4476.77,865.925 4484.24,778.791 4491.71,697.207 4499.18,621.928 "/>
<polyline clip-path="url(#clip912)" style="stroke:#ff00ff; stroke-linecap:round; stroke-linejoin:round; stroke-width:4; stroke-opacity:1; fill:none" stroke-dasharray="16, 10" points="995.257,4912.73 995.257,-1890.08 "/>
<path clip-path="url(#clip910)" d="M791.008 2569.54 L1344.69 2569.54 L1344.69 2083.54 L791.008 2083.54  Z" fill="#ffffff" fill-rule="evenodd" fill-opacity="1"/>
<polyline clip-path="url(#clip910)" style="stroke:#000000; stroke-linecap:round; stroke-linejoin:round; stroke-width:4; stroke-opacity:1; fill:none" points="791.008,2569.54 1344.69,2569.54 1344.69,2083.54 791.008,2083.54 791.008,2569.54 "/>
<polyline clip-path="url(#clip910)" style="stroke:#009af9; stroke-linecap:round; stroke-linejoin:round; stroke-width:22.5; stroke-opacity:1; fill:none" points="834.916,2180.74 1098.37,2180.74 "/>
<path clip-path="url(#clip910)" d="M1190.19 2203.9 L1190.19 2186.49 L1175.87 2186.49 L1175.87 2179.29 L1198.87 2179.29 L1198.87 2207.11 Q1193.79 2210.71 1187.67 2212.58 Q1181.55 2214.4 1174.61 2214.4 Q1159.42 2214.4 1150.82 2205.55 Q1142.27 2196.65 1142.27 2180.81 Q1142.27 2164.92 1150.82 2156.07 Q1159.42 2147.17 1174.61 2147.17 Q1180.95 2147.17 1186.63 2148.73 Q1192.36 2150.29 1197.18 2153.33 L1197.18 2162.66 Q1192.32 2158.54 1186.85 2156.46 Q1181.38 2154.37 1175.35 2154.37 Q1163.45 2154.37 1157.46 2161.01 Q1151.52 2167.65 1151.52 2180.81 Q1151.52 2193.91 1157.46 2200.55 Q1163.45 2207.19 1175.35 2207.19 Q1179.99 2207.19 1183.64 2206.41 Q1187.28 2205.59 1190.19 2203.9 Z" fill="#000000" fill-rule="nonzero" fill-opacity="1" /><path clip-path="url(#clip910)" d="M1217.19 2205.76 L1231.51 2205.76 L1231.51 2156.33 L1215.93 2159.45 L1215.93 2151.47 L1231.42 2148.34 L1240.19 2148.34 L1240.19 2205.76 L1254.51 2205.76 L1254.51 2213.14 L1217.19 2213.14 L1217.19 2205.76 Z" fill="#000000" fill-rule="nonzero" fill-opacity="1" /><polyline clip-path="url(#clip910)" style="stroke:#e26f46; stroke-linecap:round; stroke-linejoin:round; stroke-width:22.5; stroke-opacity:1; fill:none" points="834.916,2277.94 1098.37,2277.94 "/>
<path clip-path="url(#clip910)" d="M1190.19 2301.1 L1190.19 2283.69 L1175.87 2283.69 L1175.87 2276.49 L1198.87 2276.49 L1198.87 2304.31 Q1193.79 2307.91 1187.67 2309.78 Q1181.55 2311.6 1174.61 2311.6 Q1159.42 2311.6 1150.82 2302.75 Q1142.27 2293.85 1142.27 2278.01 Q1142.27 2262.12 1150.82 2253.27 Q1159.42 2244.37 1174.61 2244.37 Q1180.95 2244.37 1186.63 2245.93 Q1192.36 2247.49 1197.18 2250.53 L1197.18 2259.86 Q1192.32 2255.74 1186.85 2253.66 Q1181.38 2251.57 1175.35 2251.57 Q1163.45 2251.57 1157.46 2258.21 Q1151.52 2264.85 1151.52 2278.01 Q1151.52 2291.11 1157.46 2297.75 Q1163.45 2304.39 1175.35 2304.39 Q1179.99 2304.39 1183.64 2303.61 Q1187.28 2302.79 1190.19 2301.1 Z" fill="#000000" fill-rule="nonzero" fill-opacity="1" /><path clip-path="url(#clip910)" d="M1223.22 2302.96 L1253.82 2302.96 L1253.82 2310.34 L1212.67 2310.34 L1212.67 2302.96 Q1217.66 2297.8 1226.26 2289.12 Q1234.89 2280.39 1237.11 2277.88 Q1241.32 2273.14 1242.97 2269.89 Q1244.66 2266.59 1244.66 2263.42 Q1244.66 2258.26 1241.01 2255 Q1237.41 2251.75 1231.6 2251.75 Q1227.47 2251.75 1222.87 2253.18 Q1218.32 2254.61 1213.11 2257.52 L1213.11 2248.67 Q1218.4 2246.54 1223 2245.45 Q1227.6 2244.37 1231.42 2244.37 Q1241.49 2244.37 1247.48 2249.4 Q1253.47 2254.44 1253.47 2262.86 Q1253.47 2266.85 1251.95 2270.45 Q1250.48 2274.01 1246.53 2278.87 Q1245.44 2280.13 1239.63 2286.17 Q1233.81 2292.16 1223.22 2302.96 Z" fill="#000000" fill-rule="nonzero" fill-opacity="1" /><polyline clip-path="url(#clip910)" style="stroke:#3da44d; stroke-linecap:round; stroke-linejoin:round; stroke-width:22.5; stroke-opacity:1; fill:none" points="834.916,2375.14 1098.37,2375.14 "/>
<path clip-path="url(#clip910)" d="M1190.19 2398.3 L1190.19 2380.89 L1175.87 2380.89 L1175.87 2373.69 L1198.87 2373.69 L1198.87 2401.51 Q1193.79 2405.11 1187.67 2406.98 Q1181.55 2408.8 1174.61 2408.8 Q1159.42 2408.8 1150.82 2399.95 Q1142.27 2391.05 1142.27 2375.21 Q1142.27 2359.32 1150.82 2350.47 Q1159.42 2341.57 1174.61 2341.57 Q1180.95 2341.57 1186.63 2343.13 Q1192.36 2344.69 1197.18 2347.73 L1197.18 2357.06 Q1192.32 2352.94 1186.85 2350.86 Q1181.38 2348.77 1175.35 2348.77 Q1163.45 2348.77 1157.46 2355.41 Q1151.52 2362.05 1151.52 2375.21 Q1151.52 2388.31 1157.46 2394.95 Q1163.45 2401.59 1175.35 2401.59 Q1179.99 2401.59 1183.64 2400.81 Q1187.28 2399.99 1190.19 2398.3 Z" fill="#000000" fill-rule="nonzero" fill-opacity="1" /><path clip-path="url(#clip910)" d="M1242.23 2372.6 Q1248.52 2373.95 1252.04 2378.2 Q1255.6 2382.45 1255.6 2388.7 Q1255.6 2398.3 1249 2403.55 Q1242.4 2408.8 1230.25 2408.8 Q1226.17 2408.8 1221.83 2407.97 Q1217.53 2407.19 1212.93 2405.59 L1212.93 2397.12 Q1216.58 2399.25 1220.92 2400.34 Q1225.26 2401.42 1229.99 2401.42 Q1238.24 2401.42 1242.53 2398.17 Q1246.87 2394.91 1246.87 2388.7 Q1246.87 2382.97 1242.84 2379.76 Q1238.84 2376.51 1231.68 2376.51 L1224.13 2376.51 L1224.13 2369.3 L1232.03 2369.3 Q1238.5 2369.3 1241.93 2366.74 Q1245.35 2364.14 1245.35 2359.28 Q1245.35 2354.29 1241.8 2351.64 Q1238.28 2348.95 1231.68 2348.95 Q1228.08 2348.95 1223.96 2349.73 Q1219.83 2350.51 1214.89 2352.16 L1214.89 2344.35 Q1219.88 2342.96 1224.22 2342.26 Q1228.6 2341.57 1232.46 2341.57 Q1242.45 2341.57 1248.26 2346.13 Q1254.08 2350.64 1254.08 2358.37 Q1254.08 2363.75 1251 2367.48 Q1247.92 2371.17 1242.23 2372.6 Z" fill="#000000" fill-rule="nonzero" fill-opacity="1" /><polyline clip-path="url(#clip910)" style="stroke:#ff00ff; stroke-linecap:round; stroke-linejoin:round; stroke-width:7.5; stroke-opacity:1; fill:none" stroke-dasharray="30, 19" points="834.916,2472.34 1098.37,2472.34 "/>
<path clip-path="url(#clip910)" d="M1156.16 2442.33 L1156.16 2456.13 L1172.61 2456.13 L1172.61 2462.34 L1156.16 2462.34 L1156.16 2488.73 Q1156.16 2494.67 1157.77 2496.36 Q1159.42 2498.06 1164.41 2498.06 L1172.61 2498.06 L1172.61 2504.74 L1164.41 2504.74 Q1155.16 2504.74 1151.65 2501.31 Q1148.13 2497.84 1148.13 2488.73 L1148.13 2462.34 L1142.27 2462.34 L1142.27 2456.13 L1148.13 2456.13 L1148.13 2442.33 L1156.16 2442.33 Z" fill="#000000" fill-rule="nonzero" fill-opacity="1" /><path clip-path="url(#clip910)" d="M1220.05 2519.5 L1220.05 2525.7 L1173.87 2525.7 L1173.87 2519.5 L1220.05 2519.5 Z" fill="#000000" fill-rule="nonzero" fill-opacity="1" /><path clip-path="url(#clip910)" d="M1262.54 2458 L1262.54 2465.46 Q1259.16 2463.6 1255.73 2462.68 Q1252.34 2461.73 1248.87 2461.73 Q1241.1 2461.73 1236.8 2466.68 Q1232.51 2471.58 1232.51 2480.48 Q1232.51 2489.38 1236.8 2494.32 Q1241.1 2499.23 1248.87 2499.23 Q1252.34 2499.23 1255.73 2498.32 Q1259.16 2497.36 1262.54 2495.5 L1262.54 2502.87 Q1259.2 2504.44 1255.6 2505.22 Q1252.04 2506 1248 2506 Q1237.02 2506 1230.55 2499.1 Q1224.09 2492.2 1224.09 2480.48 Q1224.09 2468.59 1230.6 2461.77 Q1237.15 2454.96 1248.52 2454.96 Q1252.21 2454.96 1255.73 2455.74 Q1259.24 2456.48 1262.54 2458 Z" fill="#000000" fill-rule="nonzero" fill-opacity="1" /><path clip-path="url(#clip910)" d="M1284.33 2442.33 L1284.33 2456.13 L1300.78 2456.13 L1300.78 2462.34 L1284.33 2462.34 L1284.33 2488.73 Q1284.33 2494.67 1285.94 2496.36 Q1287.59 2498.06 1292.58 2498.06 L1300.78 2498.06 L1300.78 2504.74 L1292.58 2504.74 Q1283.33 2504.74 1279.82 2501.31 Q1276.3 2497.84 1276.3 2488.73 L1276.3 2462.34 L1270.44 2462.34 L1270.44 2456.13 L1276.3 2456.13 L1276.3 2442.33 L1284.33 2442.33 Z" fill="#000000" fill-rule="nonzero" fill-opacity="1" /></svg>
