<?xml version="1.0" encoding="utf-8"?>
<svg xmlns="http://www.w3.org/2000/svg" xmlns:xlink="http://www.w3.org/1999/xlink" width="1200" height="800" viewBox="0 0 4800 3200">
<defs>
  <clipPath id="clip150">
    <rect x="0" y="0" width="4800" height="3200"/>
  </clipPath>
</defs>
<path clip-path="url(#clip150)" d="M0 3200 L4800 3200 L4800 0 L0 0  Z" fill="#ffffff" fill-rule="evenodd" fill-opacity="1"/>
<defs>
  <clipPath id="clip151">
    <rect x="960" y="0" width="3361" height="3200"/>
  </clipPath>
</defs>
<path clip-path="url(#clip150)" d="M722.072 2645.13 L4611.02 2645.13 L4611.02 377.524 L722.072 377.524  Z" fill="#ffffff" fill-rule="evenodd" fill-opacity="1"/>
<defs>
  <clipPath id="clip152">
    <rect x="722" y="377" width="3890" height="2269"/>
  </clipPath>
</defs>
<polyline clip-path="url(#clip152)" style="stroke:#000000; stroke-linecap:round; stroke-linejoin:round; stroke-width:8; stroke-opacity:0.05; fill:none" stroke-dasharray="32, 20" points="824.785,2645.13 824.785,377.524 "/>
<polyline clip-path="url(#clip152)" style="stroke:#000000; stroke-linecap:round; stroke-linejoin:round; stroke-width:8; stroke-opacity:0.05; fill:none" stroke-dasharray="32, 20" points="1560.02,2645.13 1560.02,377.524 "/>
<polyline clip-path="url(#clip152)" style="stroke:#000000; stroke-linecap:round; stroke-linejoin:round; stroke-width:8; stroke-opacity:0.05; fill:none" stroke-dasharray="32, 20" points="2295.25,2645.13 2295.25,377.524 "/>
<polyline clip-path="url(#clip152)" style="stroke:#000000; stroke-linecap:round; stroke-linejoin:round; stroke-width:8; stroke-opacity:0.05; fill:none" stroke-dasharray="32, 20" points="3030.49,2645.13 3030.49,377.524 "/>
<polyline clip-path="url(#clip152)" style="stroke:#000000; stroke-linecap:round; stroke-linejoin:round; stroke-width:8; stroke-opacity:0.05; fill:none" stroke-dasharray="32, 20" points="3765.72,2645.13 3765.72,377.524 "/>
<polyline clip-path="url(#clip152)" style="stroke:#000000; stroke-linecap:round; stroke-linejoin:round; stroke-width:8; stroke-opacity:0.05; fill:none" stroke-dasharray="32, 20" points="4500.96,2645.13 4500.96,377.524 "/>
<polyline clip-path="url(#clip152)" style="stroke:#000000; stroke-linecap:round; stroke-linejoin:round; stroke-width:8; stroke-opacity:0.05; fill:none" stroke-dasharray="32, 20" points="722.072,2580.95 4611.02,2580.95 "/>
<polyline clip-path="url(#clip152)" style="stroke:#000000; stroke-linecap:round; stroke-linejoin:round; stroke-width:8; stroke-opacity:0.05; fill:none" stroke-dasharray="32, 20" points="722.072,2028.79 4611.02,2028.79 "/>
<polyline clip-path="url(#clip152)" style="stroke:#000000; stroke-linecap:round; stroke-linejoin:round; stroke-width:8; stroke-opacity:0.05; fill:none" stroke-dasharray="32, 20" points="722.072,1476.63 4611.02,1476.63 "/>
<polyline clip-path="url(#clip152)" style="stroke:#000000; stroke-linecap:round; stroke-linejoin:round; stroke-width:8; stroke-opacity:0.05; fill:none" stroke-dasharray="32, 20" points="722.072,924.464 4611.02,924.464 "/>
<polyline clip-path="url(#clip150)" style="stroke:#000000; stroke-linecap:round; stroke-linejoin:round; stroke-width:4; stroke-opacity:1; fill:none" points="722.072,2645.13 4611.02,2645.13 "/>
<polyline clip-path="url(#clip150)" style="stroke:#000000; stroke-linecap:round; stroke-linejoin:round; stroke-width:4; stroke-opacity:1; fill:none" points="824.785,2645.13 824.785,2626.23 "/>
<polyline clip-path="url(#clip150)" style="stroke:#000000; stroke-linecap:round; stroke-linejoin:round; stroke-width:4; stroke-opacity:1; fill:none" points="1560.02,2645.13 1560.02,2626.23 "/>
<polyline clip-path="url(#clip150)" style="stroke:#000000; stroke-linecap:round; stroke-linejoin:round; stroke-width:4; stroke-opacity:1; fill:none" points="2295.25,2645.13 2295.25,2626.23 "/>
<polyline clip-path="url(#clip150)" style="stroke:#000000; stroke-linecap:round; stroke-linejoin:round; stroke-width:4; stroke-opacity:1; fill:none" points="3030.49,2645.13 3030.49,2626.23 "/>
<polyline clip-path="url(#clip150)" style="stroke:#000000; stroke-linecap:round; stroke-linejoin:round; stroke-width:4; stroke-opacity:1; fill:none" points="3765.72,2645.13 3765.72,2626.23 "/>
<polyline clip-path="url(#clip150)" style="stroke:#000000; stroke-linecap:round; stroke-linejoin:round; stroke-width:4; stroke-opacity:1; fill:none" points="4500.96,2645.13 4500.96,2626.23 "/>
<path clip-path="url(#clip150)" d="M824.785 2734.8 Q808.986 2734.8 800.986 2750.39 Q793.086 2765.89 793.086 2797.08 Q793.086 2828.17 800.986 2843.77 Q808.986 2859.26 824.785 2859.26 Q840.685 2859.26 848.584 2843.77 Q856.584 2828.17 856.584 2797.08 Q856.584 2765.89 848.584 2750.39 Q840.685 2734.8 824.785 2734.8 M824.785 2718.59 Q850.204 2718.59 863.572 2738.75 Q877.041 2758.8 877.041 2797.08 Q877.041 2835.26 863.572 2855.41 Q850.204 2875.46 824.785 2875.46 Q799.365 2875.46 785.896 2855.41 Q772.528 2835.26 772.528 2797.08 Q772.528 2758.8 785.896 2738.75 Q799.365 2718.59 824.785 2718.59 Z" fill="#000000" fill-rule="nonzero" fill-opacity="1" /><path clip-path="url(#clip150)" d="M1517.94 2855.31 L1551.36 2855.31 L1551.36 2739.96 L1515 2747.25 L1515 2728.62 L1551.16 2721.33 L1571.62 2721.33 L1571.62 2855.31 L1605.04 2855.31 L1605.04 2872.53 L1517.94 2872.53 L1517.94 2855.31 Z" fill="#000000" fill-rule="nonzero" fill-opacity="1" /><path clip-path="url(#clip150)" d="M2271.86 2855.31 L2343.26 2855.31 L2343.26 2872.53 L2247.25 2872.53 L2247.25 2855.31 Q2258.9 2843.26 2278.95 2823.01 Q2299.1 2802.65 2304.27 2796.78 Q2314.09 2785.74 2317.94 2778.14 Q2321.89 2770.44 2321.89 2763.05 Q2321.89 2751 2313.38 2743.4 Q2304.98 2735.81 2291.41 2735.81 Q2281.79 2735.81 2271.05 2739.15 Q2260.42 2742.49 2248.26 2749.28 L2248.26 2728.62 Q2260.62 2723.66 2271.35 2721.13 Q2282.09 2718.59 2291 2718.59 Q2314.5 2718.59 2328.47 2730.34 Q2342.45 2742.09 2342.45 2761.74 Q2342.45 2771.05 2338.9 2779.46 Q2335.46 2787.76 2326.24 2799.1 Q2323.71 2802.04 2310.14 2816.12 Q2296.57 2830.09 2271.86 2855.31 Z" fill="#000000" fill-rule="nonzero" fill-opacity="1" /><path clip-path="url(#clip150)" d="M3049.07 2791 Q3063.76 2794.14 3071.96 2804.07 Q3080.26 2813.99 3080.26 2828.58 Q3080.26 2850.96 3064.87 2863.21 Q3049.48 2875.46 3021.12 2875.46 Q3011.6 2875.46 3001.47 2873.54 Q2991.45 2871.72 2980.71 2867.97 L2980.71 2848.22 Q2989.22 2853.18 2999.35 2855.72 Q3009.48 2858.25 3020.51 2858.25 Q3039.76 2858.25 3049.78 2850.65 Q3059.91 2843.06 3059.91 2828.58 Q3059.91 2815.21 3050.49 2807.71 Q3041.17 2800.12 3024.46 2800.12 L3006.84 2800.12 L3006.84 2783.31 L3025.27 2783.31 Q3040.36 2783.31 3048.36 2777.33 Q3056.36 2771.25 3056.36 2759.91 Q3056.36 2748.27 3048.06 2742.09 Q3039.86 2735.81 3024.46 2735.81 Q3016.06 2735.81 3006.44 2737.63 Q2996.82 2739.46 2985.27 2743.3 L2985.27 2725.07 Q2996.92 2721.83 3007.04 2720.21 Q3017.27 2718.59 3026.29 2718.59 Q3049.58 2718.59 3063.15 2729.23 Q3076.72 2739.76 3076.72 2757.79 Q3076.72 2770.34 3069.53 2779.05 Q3062.34 2787.66 3049.07 2791 Z" fill="#000000" fill-rule="nonzero" fill-opacity="1" /><path clip-path="url(#clip150)" d="M3778.89 2739.15 L3727.24 2819.87 L3778.89 2819.87 L3778.89 2739.15 M3773.52 2721.33 L3799.25 2721.33 L3799.25 2819.87 L3820.82 2819.87 L3820.82 2836.88 L3799.25 2836.88 L3799.25 2872.53 L3778.89 2872.53 L3778.89 2836.88 L3710.63 2836.88 L3710.63 2817.13 L3773.52 2721.33 Z" fill="#000000" fill-rule="nonzero" fill-opacity="1" /><path clip-path="url(#clip150)" d="M4458.42 2721.33 L4538.73 2721.33 L4538.73 2738.54 L4477.16 2738.54 L4477.16 2775.61 Q4481.62 2774.09 4486.07 2773.38 Q4490.53 2772.57 4494.98 2772.57 Q4520.3 2772.57 4535.09 2786.45 Q4549.87 2800.32 4549.87 2824.02 Q4549.87 2848.42 4534.68 2862 Q4519.49 2875.46 4491.84 2875.46 Q4482.32 2875.46 4472.4 2873.84 Q4462.58 2872.22 4452.04 2868.98 L4452.04 2848.42 Q4461.16 2853.39 4470.88 2855.82 Q4480.6 2858.25 4491.44 2858.25 Q4508.96 2858.25 4519.19 2849.03 Q4529.42 2839.82 4529.42 2824.02 Q4529.42 2808.22 4519.19 2799 Q4508.96 2789.79 4491.44 2789.79 Q4483.24 2789.79 4475.03 2791.61 Q4466.93 2793.43 4458.42 2797.28 L4458.42 2721.33 Z" fill="#000000" fill-rule="nonzero" fill-opacity="1" /><path clip-path="url(#clip150)" d="M2502.08 2979.74 L2502.08 3011.94 L2540.46 3011.94 L2540.46 3026.42 L2502.08 3026.42 L2502.08 3088 Q2502.08 3101.87 2505.83 3105.82 Q2509.68 3109.77 2521.32 3109.77 L2540.46 3109.77 L2540.46 3125.37 L2521.32 3125.37 Q2499.75 3125.37 2491.55 3117.37 Q2483.35 3109.27 2483.35 3088 L2483.35 3026.42 L2469.67 3026.42 L2469.67 3011.94 L2483.35 3011.94 L2483.35 2979.74 L2502.08 2979.74 Z" fill="#000000" fill-rule="nonzero" fill-opacity="1" /><path clip-path="url(#clip150)" d="M2675.66 2967.99 Q2662.09 2991.28 2655.51 3014.07 Q2648.93 3036.86 2648.93 3060.25 Q2648.93 3083.64 2655.51 3106.63 Q2662.19 3129.52 2675.66 3152.71 L2659.46 3152.71 Q2644.27 3128.91 2636.67 3105.92 Q2629.18 3082.93 2629.18 3060.25 Q2629.18 3037.67 2636.67 3014.78 Q2644.17 2991.89 2659.46 2967.99 L2675.66 2967.99 Z" fill="#000000" fill-rule="nonzero" fill-opacity="1" /><path clip-path="url(#clip150)" d="M2784.13 3015.28 L2784.13 3032.91 Q2776.23 3028.85 2767.72 3026.83 Q2759.21 3024.8 2750.1 3024.8 Q2736.22 3024.8 2729.24 3029.06 Q2722.35 3033.31 2722.35 3041.82 Q2722.35 3048.3 2727.31 3052.05 Q2732.27 3055.69 2747.26 3059.03 L2753.64 3060.45 Q2773.49 3064.71 2781.8 3072.5 Q2790.2 3080.2 2790.2 3094.07 Q2790.2 3109.87 2777.64 3119.09 Q2765.19 3128.3 2743.31 3128.3 Q2734.2 3128.3 2724.27 3126.48 Q2714.45 3124.76 2703.51 3121.22 L2703.51 3101.97 Q2713.84 3107.34 2723.87 3110.08 Q2733.89 3112.71 2743.72 3112.71 Q2756.88 3112.71 2763.97 3108.25 Q2771.06 3103.7 2771.06 3095.49 Q2771.06 3087.9 2765.9 3083.85 Q2760.83 3079.79 2743.52 3076.05 L2737.03 3074.53 Q2719.72 3070.88 2712.02 3063.39 Q2704.32 3055.79 2704.32 3042.63 Q2704.32 3026.63 2715.67 3017.92 Q2727.01 3009.21 2747.87 3009.21 Q2758.2 3009.21 2767.31 3010.73 Q2776.43 3012.25 2784.13 3015.28 Z" fill="#000000" fill-rule="nonzero" fill-opacity="1" /><path clip-path="url(#clip150)" d="M2816.94 2967.99 L2833.14 2967.99 Q2848.33 2991.89 2855.83 3014.78 Q2863.42 3037.67 2863.42 3060.25 Q2863.42 3082.93 2855.83 3105.92 Q2848.33 3128.91 2833.14 3152.71 L2816.94 3152.71 Q2830.41 3129.52 2836.99 3106.63 Q2843.67 3083.64 2843.67 3060.25 Q2843.67 3036.86 2836.99 3014.07 Q2830.41 2991.28 2816.94 2967.99 Z" fill="#000000" fill-rule="nonzero" fill-opacity="1" /><polyline clip-path="url(#clip150)" style="stroke:#000000; stroke-linecap:round; stroke-linejoin:round; stroke-width:4; stroke-opacity:1; fill:none" points="722.072,2645.13 722.072,377.524 "/>
<polyline clip-path="url(#clip150)" style="stroke:#000000; stroke-linecap:round; stroke-linejoin:round; stroke-width:4; stroke-opacity:1; fill:none" points="722.072,2580.95 740.97,2580.95 "/>
<polyline clip-path="url(#clip150)" style="stroke:#000000; stroke-linecap:round; stroke-linejoin:round; stroke-width:4; stroke-opacity:1; fill:none" points="722.072,2028.79 740.97,2028.79 "/>
<polyline clip-path="url(#clip150)" style="stroke:#000000; stroke-linecap:round; stroke-linejoin:round; stroke-width:4; stroke-opacity:1; fill:none" points="722.072,1476.63 740.97,1476.63 "/>
<polyline clip-path="url(#clip150)" style="stroke:#000000; stroke-linecap:round; stroke-linejoin:round; stroke-width:4; stroke-opacity:1; fill:none" points="722.072,924.464 740.97,924.464 "/>
<path clip-path="url(#clip150)" d="M399.929 2518.82 Q384.131 2518.82 376.13 2534.42 Q368.231 2549.91 368.231 2581.1 Q368.231 2612.19 376.13 2627.79 Q384.131 2643.28 399.929 2643.28 Q415.829 2643.28 423.728 2627.79 Q431.729 2612.19 431.729 2581.1 Q431.729 2549.91 423.728 2534.42 Q415.829 2518.82 399.929 2518.82 M399.929 2502.62 Q425.349 2502.62 438.717 2522.77 Q452.186 2542.82 452.186 2581.1 Q452.186 2619.28 438.717 2639.44 Q425.349 2659.49 399.929 2659.49 Q374.51 2659.49 361.04 2639.44 Q347.672 2619.28 347.672 2581.1 Q347.672 2542.82 361.04 2522.77 Q374.51 2502.62 399.929 2502.62 Z" fill="#000000" fill-rule="nonzero" fill-opacity="1" /><path clip-path="url(#clip150)" d="M488.138 2630.83 L509.506 2630.83 L509.506 2656.55 L488.138 2656.55 L488.138 2630.83 Z" fill="#000000" fill-rule="nonzero" fill-opacity="1" /><path clip-path="url(#clip150)" d="M597.816 2518.82 Q582.017 2518.82 574.017 2534.42 Q566.117 2549.91 566.117 2581.1 Q566.117 2612.19 574.017 2627.79 Q582.017 2643.28 597.816 2643.28 Q613.716 2643.28 621.615 2627.79 Q629.615 2612.19 629.615 2581.1 Q629.615 2549.91 621.615 2534.42 Q613.716 2518.82 597.816 2518.82 M597.816 2502.62 Q623.235 2502.62 636.603 2522.77 Q650.072 2542.82 650.072 2581.1 Q650.072 2619.28 636.603 2639.44 Q623.235 2659.49 597.816 2659.49 Q572.396 2659.49 558.927 2639.44 Q545.559 2619.28 545.559 2581.1 Q545.559 2542.82 558.927 2522.77 Q572.396 2502.62 597.816 2502.62 Z" fill="#000000" fill-rule="nonzero" fill-opacity="1" /><path clip-path="url(#clip150)" d="M404.284 1966.66 Q388.485 1966.66 380.485 1982.25 Q372.586 1997.75 372.586 2028.94 Q372.586 2060.03 380.485 2075.63 Q388.485 2091.12 404.284 2091.12 Q420.184 2091.12 428.083 2075.63 Q436.083 2060.03 436.083 2028.94 Q436.083 1997.75 428.083 1982.25 Q420.184 1966.66 404.284 1966.66 M404.284 1950.45 Q429.703 1950.45 443.071 1970.61 Q456.54 1990.66 456.54 2028.94 Q456.54 2067.12 443.071 2087.27 Q429.703 2107.33 404.284 2107.33 Q378.864 2107.33 365.395 2087.27 Q352.027 2067.12 352.027 2028.94 Q352.027 1990.66 365.395 1970.61 Q378.864 1950.45 404.284 1950.45 Z" fill="#000000" fill-rule="nonzero" fill-opacity="1" /><path clip-path="url(#clip150)" d="M492.492 2078.67 L513.861 2078.67 L513.861 2104.39 L492.492 2104.39 L492.492 2078.67 Z" fill="#000000" fill-rule="nonzero" fill-opacity="1" /><path clip-path="url(#clip150)" d="M558.623 1953.19 L638.932 1953.19 L638.932 1970.4 L577.359 1970.4 L577.359 2007.47 Q581.815 2005.95 586.271 2005.24 Q590.727 2004.43 595.183 2004.43 Q620.501 2004.43 635.287 2018.31 Q650.072 2032.18 650.072 2055.88 Q650.072 2080.29 634.882 2093.86 Q619.691 2107.33 592.043 2107.33 Q582.524 2107.33 572.599 2105.7 Q562.775 2104.08 552.243 2100.84 L552.243 2080.29 Q561.358 2085.25 571.08 2087.68 Q580.802 2090.11 591.638 2090.11 Q609.158 2090.11 619.387 2080.89 Q629.615 2071.68 629.615 2055.88 Q629.615 2040.08 619.387 2030.86 Q609.158 2021.65 591.638 2021.65 Q583.435 2021.65 575.232 2023.47 Q567.13 2025.29 558.623 2029.14 L558.623 1953.19 Z" fill="#000000" fill-rule="nonzero" fill-opacity="1" /><path clip-path="url(#clip150)" d="M359.724 1535.01 L393.144 1535.01 L393.144 1419.66 L356.787 1426.95 L356.787 1408.32 L392.941 1401.03 L413.398 1401.03 L413.398 1535.01 L446.818 1535.01 L446.818 1552.23 L359.724 1552.23 L359.724 1535.01 Z" fill="#000000" fill-rule="nonzero" fill-opacity="1" /><path clip-path="url(#clip150)" d="M488.138 1526.5 L509.506 1526.5 L509.506 1552.23 L488.138 1552.23 L488.138 1526.5 Z" fill="#000000" fill-rule="nonzero" fill-opacity="1" /><path clip-path="url(#clip150)" d="M597.816 1414.5 Q582.017 1414.5 574.017 1430.09 Q566.117 1445.59 566.117 1476.78 Q566.117 1507.87 574.017 1523.46 Q582.017 1538.96 597.816 1538.96 Q613.716 1538.96 621.615 1523.46 Q629.615 1507.87 629.615 1476.78 Q629.615 1445.59 621.615 1430.09 Q613.716 1414.5 597.816 1414.5 M597.816 1398.29 Q623.235 1398.29 636.603 1418.45 Q650.072 1438.5 650.072 1476.78 Q650.072 1514.96 636.603 1535.11 Q623.235 1555.16 597.816 1555.16 Q572.396 1555.16 558.927 1535.11 Q545.559 1514.96 545.559 1476.78 Q545.559 1438.5 558.927 1418.45 Q572.396 1398.29 597.816 1398.29 Z" fill="#000000" fill-rule="nonzero" fill-opacity="1" /><path clip-path="url(#clip150)" d="M364.079 982.848 L397.499 982.848 L397.499 867.499 L361.142 874.79 L361.142 856.156 L397.296 848.864 L417.753 848.864 L417.753 982.848 L451.173 982.848 L451.173 1000.06 L364.079 1000.06 L364.079 982.848 Z" fill="#000000" fill-rule="nonzero" fill-opacity="1" /><path clip-path="url(#clip150)" d="M492.492 974.341 L513.861 974.341 L513.861 1000.06 L492.492 1000.06 L492.492 974.341 Z" fill="#000000" fill-rule="nonzero" fill-opacity="1" /><path clip-path="url(#clip150)" d="M558.623 848.864 L638.932 848.864 L638.932 866.081 L577.359 866.081 L577.359 903.147 Q581.815 901.627 586.271 900.919 Q590.727 900.108 595.183 900.108 Q620.501 900.108 635.287 913.983 Q650.072 927.857 650.072 951.555 Q650.072 975.962 634.882 989.532 Q619.691 1003 592.043 1003 Q582.524 1003 572.599 1001.38 Q562.775 999.761 552.243 996.52 L552.243 975.962 Q561.358 980.924 571.08 983.354 Q580.802 985.785 591.638 985.785 Q609.158 985.785 619.387 976.569 Q629.615 967.353 629.615 951.555 Q629.615 935.756 619.387 926.541 Q609.158 917.325 591.638 917.325 Q583.435 917.325 575.232 919.148 Q567.13 920.971 558.623 924.819 L558.623 848.864 Z" fill="#000000" fill-rule="nonzero" fill-opacity="1" /><path clip-path="url(#clip150)" d="M230.312 2269.1 L79.1124 2326.82 L79.1124 2305.46 L206.412 2257.55 L79.1124 2209.55 L79.1124 2188.28 L230.312 2245.91 L230.312 2269.1 Z" fill="#000000" fill-rule="nonzero" fill-opacity="1" /><path clip-path="url(#clip150)" d="M264.745 2080.83 L279.227 2080.83 L279.227 2188.59 L264.745 2188.59 L264.745 2080.83 Z" fill="#000000" fill-rule="nonzero" fill-opacity="1" /><path clip-path="url(#clip150)" d="M72.7323 2064.02 L72.7323 2045.29 L165.802 2045.29 L116.887 1989.69 L116.887 1965.89 L169.954 2026.04 L230.312 1963.36 L230.312 1987.66 L174.916 2045.29 L230.312 2045.29 L230.312 2064.02 L72.7323 2064.02 Z" fill="#000000" fill-rule="nonzero" fill-opacity="1" /><path clip-path="url(#clip150)" d="M168.941 1853.58 L178.056 1853.58 L178.056 1939.25 Q197.298 1938.04 207.425 1927.71 Q217.451 1917.28 217.451 1898.74 Q217.451 1888.01 214.818 1877.98 Q212.185 1867.86 206.918 1857.93 L224.54 1857.93 Q228.793 1867.96 231.021 1878.49 Q233.249 1889.02 233.249 1899.86 Q233.249 1927 217.451 1942.9 Q201.652 1958.7 174.714 1958.7 Q146.864 1958.7 130.559 1943.71 Q114.153 1928.62 114.153 1903.1 Q114.153 1880.21 128.939 1866.94 Q143.623 1853.58 168.941 1853.58 M163.473 1872.21 Q148.18 1872.41 139.066 1880.82 Q129.951 1889.12 129.951 1902.9 Q129.951 1918.49 138.762 1927.91 Q147.573 1937.23 163.574 1938.65 L163.473 1872.21 Z" fill="#000000" fill-rule="nonzero" fill-opacity="1" /><path clip-path="url(#clip150)" d="M72.9348 1712.3 Q96.2275 1725.87 119.014 1732.45 Q141.8 1739.04 165.194 1739.04 Q188.588 1739.04 211.577 1732.45 Q234.465 1725.77 257.656 1712.3 L257.656 1728.51 Q233.857 1743.7 210.868 1751.29 Q187.879 1758.79 165.194 1758.79 Q142.61 1758.79 119.723 1751.29 Q96.8351 1743.8 72.9348 1728.51 L72.9348 1712.3 Z" fill="#000000" fill-rule="nonzero" fill-opacity="1" /><path clip-path="url(#clip150)" d="M213.299 1658.12 L273.455 1658.12 L273.455 1676.86 L116.887 1676.86 L116.887 1658.12 L134.103 1658.12 Q123.976 1652.25 119.115 1643.33 Q114.153 1634.32 114.153 1621.87 Q114.153 1601.21 130.559 1588.34 Q146.965 1575.38 173.701 1575.38 Q200.437 1575.38 216.843 1588.34 Q233.249 1601.21 233.249 1621.87 Q233.249 1634.32 228.388 1643.33 Q223.426 1652.25 213.299 1658.12 M173.701 1594.72 Q153.143 1594.72 141.496 1603.23 Q129.749 1611.64 129.749 1626.42 Q129.749 1641.21 141.496 1649.71 Q153.143 1658.12 173.701 1658.12 Q194.259 1658.12 206.007 1649.71 Q217.653 1641.21 217.653 1626.42 Q217.653 1611.64 206.007 1603.23 Q194.259 1594.72 173.701 1594.72 Z" fill="#000000" fill-rule="nonzero" fill-opacity="1" /><path clip-path="url(#clip150)" d="M204.589 1541.86 L204.589 1520.49 L230.312 1520.49 L230.312 1541.86 L204.589 1541.86 Z" fill="#000000" fill-rule="nonzero" fill-opacity="1" /><path clip-path="url(#clip150)" d="M185.55 1480.49 L116.887 1480.49 L116.887 1461.85 L184.841 1461.85 Q200.943 1461.85 209.045 1455.58 Q217.046 1449.3 217.046 1436.74 Q217.046 1421.65 207.425 1412.94 Q197.804 1404.13 181.195 1404.13 L116.887 1404.13 L116.887 1385.49 L230.312 1385.49 L230.312 1404.13 L212.894 1404.13 Q223.223 1410.91 228.287 1419.93 Q233.249 1428.84 233.249 1440.69 Q233.249 1460.23 221.097 1470.36 Q208.944 1480.49 185.55 1480.49 M114.153 1433.6 L114.153 1433.6 Z" fill="#000000" fill-rule="nonzero" fill-opacity="1" /><path clip-path="url(#clip150)" d="M204.589 1344.48 L204.589 1323.11 L230.312 1323.11 L230.312 1344.48 L204.589 1344.48 Z" fill="#000000" fill-rule="nonzero" fill-opacity="1" /><path clip-path="url(#clip150)" d="M145.446 1212.62 L145.446 1191.25 L171.169 1191.25 L171.169 1212.62 L145.446 1212.62 Z" fill="#000000" fill-rule="nonzero" fill-opacity="1" /><path clip-path="url(#clip150)" d="M134.306 1017.67 Q132.483 1020.81 131.673 1024.56 Q130.761 1028.21 130.761 1032.66 Q130.761 1048.46 141.091 1056.97 Q151.32 1065.37 170.562 1065.37 L230.312 1065.37 L230.312 1084.11 L116.887 1084.11 L116.887 1065.37 L134.509 1065.37 Q124.179 1059.5 119.216 1050.08 Q114.153 1040.66 114.153 1027.19 Q114.153 1025.27 114.457 1022.94 Q114.659 1020.61 115.165 1017.77 L134.306 1017.67 Z" fill="#000000" fill-rule="nonzero" fill-opacity="1" /><path clip-path="url(#clip150)" d="M173.296 946.579 Q173.296 969.163 178.461 977.873 Q183.626 986.582 196.082 986.582 Q206.007 986.582 211.881 980.101 Q217.653 973.518 217.653 962.277 Q217.653 946.782 206.716 937.465 Q195.677 928.046 177.448 928.046 L173.296 928.046 L173.296 946.579 M165.599 909.412 L230.312 909.412 L230.312 928.046 L213.096 928.046 Q223.426 934.427 228.388 943.946 Q233.249 953.466 233.249 967.239 Q233.249 984.658 223.527 994.988 Q213.704 1005.22 197.298 1005.22 Q178.157 1005.22 168.435 992.456 Q158.713 979.594 158.713 954.175 L158.713 928.046 L156.89 928.046 Q144.028 928.046 137.04 936.553 Q129.951 944.959 129.951 960.251 Q129.951 969.973 132.281 979.189 Q134.61 988.405 139.268 996.912 L122.052 996.912 Q118.102 986.683 116.178 977.062 Q114.153 967.441 114.153 958.327 Q114.153 933.718 126.913 921.565 Q139.673 909.412 165.599 909.412 Z" fill="#000000" fill-rule="nonzero" fill-opacity="1" /><path clip-path="url(#clip150)" d="M134.103 796.392 L72.7323 796.392 L72.7323 777.758 L230.312 777.758 L230.312 796.392 L213.299 796.392 Q223.426 802.266 228.388 811.279 Q233.249 820.191 233.249 832.749 Q233.249 853.307 216.843 866.27 Q200.437 879.132 173.701 879.132 Q146.965 879.132 130.559 866.27 Q114.153 853.307 114.153 832.749 Q114.153 820.191 119.115 811.279 Q123.976 802.266 134.103 796.392 M173.701 859.89 Q194.259 859.89 206.007 851.484 Q217.653 842.977 217.653 828.192 Q217.653 813.406 206.007 804.899 Q194.259 796.392 173.701 796.392 Q153.143 796.392 141.496 804.899 Q129.749 813.406 129.749 828.192 Q129.749 842.977 141.496 851.484 Q153.143 859.89 173.701 859.89 Z" fill="#000000" fill-rule="nonzero" fill-opacity="1" /><path clip-path="url(#clip150)" d="M72.9348 742.312 L72.9348 726.109 Q96.8351 710.918 119.723 703.424 Q142.61 695.828 165.194 695.828 Q187.879 695.828 210.868 703.424 Q233.857 710.918 257.656 726.109 L257.656 742.312 Q234.465 728.843 211.577 722.26 Q188.588 715.576 165.194 715.576 Q141.8 715.576 119.014 722.26 Q96.2275 728.843 72.9348 742.312 Z" fill="#000000" fill-rule="nonzero" fill-opacity="1" /><path clip-path="url(#clip150)" d="M2024.07 207.36 L1958.1 34.56 L1982.52 34.56 L2037.27 180.045 L2092.13 34.56 L2116.44 34.56 L2050.58 207.36 L2024.07 207.36 Z" fill="#000000" fill-rule="nonzero" fill-opacity="1" /><path clip-path="url(#clip150)" d="M2139.93 27.2684 L2161.34 27.2684 L2161.34 133.634 L2224.88 77.7311 L2252.08 77.7311 L2183.33 138.379 L2254.98 207.36 L2227.2 207.36 L2161.34 144.05 L2161.34 207.36 L2139.93 207.36 L2139.93 27.2684 Z" fill="#000000" fill-rule="nonzero" fill-opacity="1" /><path clip-path="url(#clip150)" d="M2380.44 137.221 L2380.44 147.638 L2282.52 147.638 Q2283.91 169.629 2295.72 181.203 Q2307.64 192.661 2328.82 192.661 Q2341.09 192.661 2352.55 189.652 Q2364.12 186.643 2375.46 180.624 L2375.46 200.763 Q2364 205.624 2351.97 208.17 Q2339.93 210.716 2327.55 210.716 Q2296.53 210.716 2278.36 192.661 Q2260.3 174.606 2260.3 143.819 Q2260.3 111.99 2277.43 93.356 Q2294.68 74.6061 2323.84 74.6061 Q2350 74.6061 2365.16 91.5041 Q2380.44 108.286 2380.44 137.221 M2359.14 130.972 Q2358.91 113.495 2349.3 103.078 Q2339.81 92.6615 2324.07 92.6615 Q2306.25 92.6615 2295.49 102.731 Q2284.84 112.8 2283.22 131.087 L2359.14 130.972 Z" fill="#000000" fill-rule="nonzero" fill-opacity="1" /><path clip-path="url(#clip150)" d="M2475.46 77.7311 L2498.03 77.7311 L2538.54 186.527 L2579.05 77.7311 L2601.62 77.7311 L2553.01 207.36 L2524.07 207.36 L2475.46 77.7311 Z" fill="#000000" fill-rule="nonzero" fill-opacity="1" /><path clip-path="url(#clip150)" d="M2713.65 81.5505 L2713.65 101.689 Q2704.63 97.0597 2694.9 94.7449 Q2685.18 92.4301 2674.77 92.4301 Q2658.91 92.4301 2650.92 97.2911 Q2643.05 102.152 2643.05 111.874 Q2643.05 119.282 2648.72 123.564 Q2654.4 127.731 2671.52 131.55 L2678.82 133.171 Q2701.5 138.032 2710.99 146.944 Q2720.6 155.74 2720.6 171.596 Q2720.6 189.652 2706.25 200.184 Q2692.01 210.716 2667.01 210.716 Q2656.59 210.716 2645.25 208.633 Q2634.03 206.666 2621.53 202.615 L2621.53 180.624 Q2633.33 186.758 2644.79 189.883 Q2656.25 192.892 2667.47 192.892 Q2682.52 192.892 2690.62 187.8 Q2698.72 182.592 2698.72 173.217 Q2698.72 164.536 2692.82 159.907 Q2687.03 155.277 2667.24 150.995 L2659.84 149.258 Q2640.04 145.092 2631.25 136.527 Q2622.45 127.847 2622.45 112.8 Q2622.45 94.5134 2635.41 84.5597 Q2648.38 74.6061 2672.22 74.6061 Q2684.02 74.6061 2694.44 76.3422 Q2704.86 78.0783 2713.65 81.5505 Z" fill="#000000" fill-rule="nonzero" fill-opacity="1" /><path clip-path="url(#clip150)" d="M2806.83 34.56 L2953 34.56 L2953 54.2358 L2891.66 54.2358 L2891.66 207.36 L2868.17 207.36 L2868.17 54.2358 L2806.83 54.2358 L2806.83 34.56 Z" fill="#000000" fill-rule="nonzero" fill-opacity="1" /><path clip-path="url(#clip150)" d="M2967.36 77.7311 L2988.65 77.7311 L2988.65 207.36 L2967.36 207.36 L2967.36 77.7311 M2967.36 27.2684 L2988.65 27.2684 L2988.65 54.2358 L2967.36 54.2358 L2967.36 27.2684 Z" fill="#000000" fill-rule="nonzero" fill-opacity="1" /><path clip-path="url(#clip150)" d="M3134.14 102.615 Q3142.12 88.2634 3153.24 81.4347 Q3164.35 74.6061 3179.39 74.6061 Q3199.65 74.6061 3210.64 88.8421 Q3221.64 102.962 3221.64 129.12 L3221.64 207.36 L3200.23 207.36 L3200.23 129.814 Q3200.23 111.18 3193.63 102.152 Q3187.03 93.1245 3173.49 93.1245 Q3156.94 93.1245 3147.33 104.12 Q3137.73 115.115 3137.73 134.097 L3137.73 207.36 L3116.31 207.36 L3116.31 129.814 Q3116.31 111.064 3109.72 102.152 Q3103.12 93.1245 3089.35 93.1245 Q3073.03 93.1245 3063.42 104.236 Q3053.81 115.231 3053.81 134.097 L3053.81 207.36 L3032.4 207.36 L3032.4 77.7311 L3053.81 77.7311 L3053.81 97.8698 Q3061.11 85.9486 3071.29 80.2773 Q3081.48 74.6061 3095.48 74.6061 Q3109.6 74.6061 3119.44 81.782 Q3129.39 88.9579 3134.14 102.615 Z" fill="#000000" fill-rule="nonzero" fill-opacity="1" /><path clip-path="url(#clip150)" d="M3374.99 137.221 L3374.99 147.638 L3277.08 147.638 Q3278.47 169.629 3290.27 181.203 Q3302.19 192.661 3323.37 192.661 Q3335.64 192.661 3347.1 189.652 Q3358.67 186.643 3370.02 180.624 L3370.02 200.763 Q3358.56 205.624 3346.52 208.17 Q3334.48 210.716 3322.1 210.716 Q3291.08 210.716 3272.91 192.661 Q3254.86 174.606 3254.86 143.819 Q3254.86 111.99 3271.98 93.356 Q3289.23 74.6061 3318.4 74.6061 Q3344.55 74.6061 3359.72 91.5041 Q3374.99 108.286 3374.99 137.221 M3353.7 130.972 Q3353.47 113.495 3343.86 103.078 Q3334.37 92.6615 3318.63 92.6615 Q3300.8 92.6615 3290.04 102.731 Q3279.39 112.8 3277.77 131.087 L3353.7 130.972 Z" fill="#000000" fill-rule="nonzero" fill-opacity="1" /><polyline clip-path="url(#clip152)" style="stroke:#009af9; stroke-linecap:round; stroke-linejoin:round; stroke-width:12; stroke-opacity:1; fill:none" points="832.137,2580.81 839.489,2579.72 846.842,2577.53 854.194,2574.29 861.546,2570.01 868.899,2564.73 876.251,2558.52 883.604,2551.43 890.956,2543.52 898.308,2534.88 905.661,2525.56 913.013,2515.67 920.365,2505.27 927.718,2494.46 935.07,2483.32 942.422,2471.92 949.775,2460.34 957.127,2448.65 964.479,2436.9 971.832,2425.17 979.184,2413.48 986.536,2401.87 993.889,2390.38 1001.24,2379 1008.59,2367.76 1015.95,2356.64 1023.3,2345.63 1030.65,2334.71 1038,2323.84 1045.36,2312.98 1052.71,2302.1 1052.71,2311.45 1060.06,2340.1 1067.41,2367.42 1074.76,2393.29 1082.12,2417.62 1089.47,2440.34 1096.82,2461.41 1104.17,2480.8 1111.53,2498.48 1118.88,2514.44 1126.23,2528.68 1133.58,2541.18 1140.94,2551.95 1148.29,2560.99 1155.64,2568.31 1162.99,2573.93 1170.35,2577.88 1177.7,2580.21 1185.05,2580.95 1192.4,2580.17 1199.75,2577.94 1207.11,2574.33 1214.46,2569.4 1221.81,2563.25 1229.16,2555.94 1236.52,2547.55 1243.87,2538.13 1251.22,2527.76 1258.57,2516.47 1265.93,2504.31 1273.28,2491.3 1280.63,2477.45 1287.98,2462.79 1295.34,2447.3 1302.69,2431 1310.04,2413.88 1317.39,2395.94 1324.74,2377.21 1332.1,2357.73 1339.45,2337.55 1346.8,2316.78 1354.15,2295.56 1361.51,2274.06 1368.86,2252.52 1376.21,2231.22 1383.56,2210.5 1390.92,2190.72 1398.27,2172.28 1405.62,2155.61 1412.97,2141.14 1420.32,2129.25 1427.68,2120.33 1435.03,2114.69 1442.38,2112.59 1449.73,2114.18 1457.09,2119.55 1464.44,2128.69 1471.79,2141.52 1479.14,2157.83 1486.5,2177.38 1493.85,2199.83 1501.2,2224.79 1508.55,2251.8 1515.91,2280.41 1523.26,2310.09 1530.61,2340.33 1537.96,2370.6 1545.31,2400.4 1552.67,2429.21 1560.02,2456.59 1567.37,2482.08 1574.72,2505.3 1582.08,2525.89 1589.43,2543.55 1596.78,2558.03 1604.13,2569.1 1611.49,2576.62 1618.84,2580.45 1626.19,2580.5 1633.54,2576.75 1640.9,2569.18 1648.25,2557.84 1655.6,2542.79 1662.95,2524.17 1670.3,2502.15 1677.66,2476.95 1685.01,2448.87 1692.36,2418.27 1699.71,2385.58 1707.07,2351.3 1714.42,2315.99 1721.77,2280.31 1729.12,2244.94 1736.48,2210.59 1743.83,2178.02 1751.18,2147.92 1758.53,2120.98 1765.89,2097.81 1773.24,2078.89 1780.59,2064.62 1787.94,2055.24 1795.29,2050.85 1802.65,2051.42 1810,2056.77 1817.35,2066.62 1824.7,2080.59 1832.06,2098.22 1839.41,2119 1846.76,2142.41 1854.11,2167.89 1861.47,2194.9 1868.82,2222.93 1876.17,2251.49 1883.52,2280.14 1890.88,2308.49 1898.23,2336.18 1905.58,2362.92 1912.93,2388.46 1920.28,2412.62 1927.64,2435.25 1934.99,2456.24 1942.34,2475.52 1949.69,2493.07 1957.05,2508.89 1964.4,2522.98 1971.75,2535.4 1979.1,2546.18 1986.46,2555.4 1993.81,2563.1 2001.16,2569.36 2008.51,2574.22 2015.87,2577.74 2023.22,2579.96 2030.57,2580.91 2037.92,2580.61 2045.27,2579.06 2052.63,2576.27 2059.98,2572.2 2067.33,2566.84 2074.68,2560.14 2082.04,2552.05 2089.39,2542.52 2096.74,2531.5 2104.09,2518.92 2111.45,2504.75 2118.8,2488.94 2126.15,2471.47 2133.5,2452.35 2140.86,2431.59 2148.21,2409.26 2155.56,2385.46 2162.91,2360.33 2170.26,2334.07 2177.62,2306.93 2184.97,2279.18 2192.32,2251.19 2199.67,2223.36 2207.03,2196.11 2214.38,2169.93 2221.73,2145.33 2229.08,2122.84 2236.44,2102.97 2243.79,2086.23 2251.14,2073.11 2258.49,2064.01 2265.85,2059.31 2273.2,2059.23 2280.55,2063.95 2287.9,2073.47 2295.25,2087.69 2302.61,2106.39 2309.96,2129.18 2317.31,2155.61 2324.66,2185.1 2332.02,2217.01 2339.37,2250.66 2346.72,2285.35 2354.07,2320.36 2361.43,2355.05 2368.78,2388.77 2376.13,2420.97 2383.48,2451.13 2390.83,2478.83 2398.19,2503.7 2405.54,2525.44 2412.89,2543.8 2420.24,2558.61 2427.6,2569.74 2434.95,2577.08 2442.3,2580.61 2449.65,2580.31 2457.01,2576.22 2464.36,2568.41 2471.71,2556.99 2479.06,2542.13 2486.42,2524.03 2493.77,2502.93 2501.12,2479.15 2508.47,2453.03 2515.82,2424.98 2523.18,2395.44 2530.53,2364.89 2537.88,2333.85 2545.23,2302.86 2552.59,2272.47 2559.94,2243.23 2567.29,2215.66 2574.64,2190.27 2582,2167.53 2589.35,2147.84 2596.7,2131.53 2604.05,2118.88 2611.41,2110.07 2618.76,2105.18 2626.11,2104.22 2633.46,2107.08 2640.81,2113.59 2648.17,2123.48 2655.52,2136.42 2662.87,2152.04 2670.22,2169.91 2677.58,2189.59 2684.93,2210.65 2692.28,2232.67 2699.63,2255.24 2706.99,2278.02 2714.34,2300.7 2721.69,2323.03 2729.04,2344.8 2736.4,2365.85 2743.75,2386.07 2751.1,2405.39 2758.45,2423.76 2765.8,2441.15 2773.16,2457.55 2780.51,2472.98 2787.86,2487.43 2795.21,2500.92 2802.57,2513.45 2809.92,2525.02 2817.27,2535.61 2824.62,2545.21 2831.98,2553.78 2839.33,2561.29 2846.68,2567.68 2854.03,2572.9 2861.39,2576.88 2868.74,2579.55 2876.09,2580.84 2883.44,2580.68 2890.79,2578.99 2898.15,2575.73 2905.5,2570.82 2912.85,2564.22 2920.2,2555.88 2927.56,2545.77 2934.91,2533.87 2942.26,2520.17 2949.61,2504.66 2956.97,2487.35 2964.32,2468.26 2971.67,2447.42 2979.02,2424.88 2986.38,2400.69 2993.73,2374.94 3001.08,2347.75 3008.43,2319.25 3015.78,2289.65 3023.14,2259.2 3030.49,2228.22 3037.84,2197.1 3045.19,2166.32 3052.55,2136.45 3059.9,2108.12 3067.25,2082.06 3074.6,2059.01 3081.96,2039.74 3089.31,2024.96 3096.66,2015.33 3104.01,2011.34 3111.37,2013.33 3118.72,2021.42 3126.07,2035.49 3133.42,2055.22 3140.77,2080.07 3148.13,2109.34 3155.48,2142.23 3162.83,2177.84 3170.18,2215.28 3177.54,2253.68 3184.89,2292.21 3192.24,2330.12 3199.59,2366.75 3206.95,2401.55 3214.3,2434.04 3221.65,2463.83 3229,2490.62 3236.36,2514.16 3243.71,2534.29 3251.06,2550.87 3258.41,2563.84 3265.76,2573.16 3273.12,2578.84 3280.47,2580.94 3287.82,2579.53 3295.17,2574.74 3302.53,2566.73 3309.88,2555.69 3317.23,2541.86 3324.58,2525.47 3331.94,2506.82 3339.29,2486.21 3346.64,2463.96 3353.99,2440.43 3361.34,2415.95 3368.7,2390.89 3376.05,2365.61 3383.4,2340.5 3390.75,2315.93 3398.11,2292.26 3405.46,2269.88 3412.81,2249.13 3420.16,2230.35 3427.52,2213.84 3434.87,2199.87 3442.22,2188.63 3449.57,2180.26 3456.93,2174.79 3464.28,2172.19 3471.63,2172.33 3478.98,2175.01 3486.33,2179.95 3493.69,2186.85 3501.04,2195.36 3508.39,2205.17 3515.74,2215.96 3523.1,2227.45 3530.45,2239.44 3537.8,2251.75 3545.15,2264.26 3552.51,2276.93 3559.86,2289.72 3567.21,2302.66 3574.56,2315.76 3581.92,2329.09 3589.27,2342.68 3596.62,2356.59 3603.97,2370.83 3611.32,2385.41 3618.68,2400.31 3626.03,2415.48 3633.38,2430.82 3640.73,2446.24 3648.09,2461.57 3655.44,2476.65 3662.79,2491.31 3670.14,2505.35 3677.5,2518.58 3684.85,2530.83 3692.2,2541.93 3699.55,2551.76 3706.91,2560.22 3714.26,2567.23 3721.61,2572.78 3728.96,2576.86 3736.31,2579.51 3743.67,2580.8 3751.02,2580.79 3758.37,2579.58 3765.72,2577.27 3773.08,2573.95 3780.43,2569.69 3787.78,2564.58 3795.13,2558.66 3802.49,2551.97 3809.84,2544.52 3817.19,2536.29 3824.54,2527.24 3831.9,2517.3 3839.25,2506.4 3846.6,2494.41 3853.95,2481.19 3861.3,2466.61 3868.66,2450.49 3876.01,2432.66 3883.36,2412.98 3890.71,2391.29 3898.07,2367.51 3905.42,2341.62 3912.77,2313.68 3920.12,2283.91 3927.48,2252.67 3934.83,2220.5 3942.18,2188.14 3949.53,2156.5 3956.89,2126.62 3964.24,2099.66 3971.59,2076.73 3978.94,2058.87 3986.29,2046.9 3993.65,2041.4 4001,2042.59 4008.35,2050.39 4015.7,2064.41 4023.06,2084.04 4030.41,2108.45 4037.76,2136.75 4045.11,2168.01 4052.47,2201.3 4059.82,2235.78 4067.17,2270.67 4074.52,2305.29 4081.88,2339.06 4089.23,2371.5 4096.58,2402.22 4103.93,2430.89 4111.28,2457.29 4118.64,2481.24 4125.99,2502.63 4133.34,2521.4 4140.69,2537.52 4148.05,2551.01 4155.4,2561.9 4162.75,2570.25 4170.1,2576.14 4177.46,2579.67 4184.81,2580.94 4192.16,2580.08 4199.51,2577.22 4206.87,2572.5 4214.22,2566.06 4221.57,2558.04 4228.92,2548.59 4236.27,2537.85 4243.63,2525.98 4250.98,2513.11 4258.33,2499.4 4265.68,2485 4273.04,2470.09 4280.39,2454.84 4287.74,2439.45 4295.09,2424.13 4302.45,2409.1 4309.8,2394.57 4317.15,2380.77 4324.5,2367.89 4331.85,2356.08 4339.21,2345.46 4346.56,2336.05 4353.91,2327.82 4361.26,2320.67 4368.62,2314.43 4375.97,2308.89 4383.32,2303.82 4390.67,2299 4398.03,2294.26 4405.38,2289.46 4412.73,2284.52 4420.08,2279.46 4427.44,2274.34 4434.79,2269.3 4442.14,2264.53 4449.49,2260.29 4456.84,2256.84 4464.2,2254.51 4471.55,2253.61 4478.9,2254.47 4486.25,2257.38 4493.61,2262.59 4500.96,2270.29 "/>
<polyline clip-path="url(#clip152)" style="stroke:#e26f46; stroke-linecap:round; stroke-linejoin:round; stroke-width:12; stroke-opacity:1; fill:none" points="832.137,2580.82 839.489,2579.74 846.842,2577.6 854.194,2574.38 861.546,2570.09 868.899,2564.74 876.251,2558.31 883.604,2550.81 890.956,2542.24 898.308,2532.61 905.661,2521.91 913.013,2510.16 920.365,2497.35 927.718,2483.5 935.07,2468.6 942.422,2452.68 949.775,2435.73 957.127,2417.77 964.479,2398.82 971.832,2378.88 979.184,2357.97 986.536,2336.11 993.889,2313.31 1001.24,2289.59 1008.59,2264.97 1015.95,2239.47 1023.3,2213.1 1030.65,2185.9 1038,2157.87 1045.36,2129.03 1052.71,2099.4 1052.71,2087.58 1060.06,2095.03 1067.41,2104.3 1074.76,2115.6 1082.12,2129.08 1089.47,2144.87 1096.82,2163.04 1104.17,2183.63 1111.53,2206.6 1118.88,2231.82 1126.23,2259.1 1133.58,2288.18 1140.94,2318.66 1148.29,2350.11 1155.64,2382 1162.99,2413.71 1170.35,2444.6 1177.7,2473.98 1185.05,2501.15 1192.4,2525.39 1199.75,2546.04 1207.11,2562.42 1214.46,2573.95 1221.81,2580.07 1229.16,2580.29 1236.52,2574.17 1243.87,2561.35 1251.22,2541.51 1258.57,2514.4 1265.93,2479.84 1273.28,2437.69 1280.63,2387.91 1287.98,2330.53 1295.34,2265.71 1302.69,2193.73 1310.04,2115.03 1317.39,2030.23 1324.74,1940.2 1332.1,1846.02 1339.45,1749.06 1346.8,1650.94 1354.15,1553.54 1361.51,1458.96 1368.86,1369.47 1376.21,1287.38 1383.56,1215.02 1390.92,1154.57 1398.27,1107.94 1405.62,1076.68 1412.97,1061.89 1420.32,1064.12 1427.68,1083.38 1435.03,1119.1 1442.38,1170.2 1449.73,1235.16 1457.09,1312.05 1464.44,1398.71 1471.79,1492.81 1479.14,1591.96 1486.5,1693.79 1493.85,1796.07 1501.2,1896.73 1508.55,1993.94 1515.91,2086.1 1523.26,2171.92 1530.61,2250.38 1537.96,2320.75 1545.31,2382.55 1552.67,2435.56 1560.02,2479.78 1567.37,2515.4 1574.72,2542.75 1582.08,2562.32 1589.43,2574.65 1596.78,2580.37 1604.13,2580.11 1611.49,2574.52 1618.84,2564.22 1626.19,2549.8 1633.54,2531.78 1640.9,2510.63 1648.25,2486.76 1655.6,2460.48 1662.95,2432.08 1670.3,2401.76 1677.66,2369.68 1685.01,2335.96 1692.36,2300.67 1699.71,2263.88 1707.07,2225.64 1714.42,2186.04 1721.77,2145.15 1729.12,2103.11 1736.48,2060.09 1743.83,2016.33 1751.18,1972.15 1758.53,1927.95 1765.89,1884.19 1773.24,1841.43 1780.59,1800.28 1787.94,1761.4 1795.29,1725.5 1802.65,1693.28 1810,1665.43 1817.35,1642.61 1824.7,1625.38 1832.06,1614.26 1839.41,1609.62 1846.76,1611.74 1854.11,1620.75 1861.47,1636.66 1868.82,1659.33 1876.17,1688.48 1883.52,1723.73 1890.88,1764.53 1898.23,1810.27 1905.58,1860.23 1912.93,1913.6 1920.28,1969.54 1927.64,2027.15 1934.99,2085.54 1942.34,2143.81 1949.69,2201.09 1957.05,2256.56 1964.4,2309.45 1971.75,2359.07 1979.1,2404.8 1986.46,2446.08 1993.81,2482.46 2001.16,2513.54 2008.51,2539.01 2015.87,2558.62 2023.22,2572.17 2030.57,2579.53 2037.92,2580.61 2045.27,2575.37 2052.63,2563.83 2059.98,2546.04 2067.33,2522.11 2074.68,2492.2 2082.04,2456.57 2089.39,2415.5 2096.74,2369.39 2104.09,2318.7 2111.45,2264.01 2118.8,2205.98 2126.15,2145.34 2133.5,2082.95 2140.86,2019.7 2148.21,1956.58 2155.56,1894.6 2162.91,1834.79 2170.26,1778.17 2177.62,1725.73 2184.97,1678.39 2192.32,1637 2199.67,1602.27 2207.03,1574.81 2214.38,1555.03 2221.73,1543.22 2229.08,1539.47 2236.44,1543.71 2243.79,1555.69 2251.14,1575.02 2258.49,1601.14 2265.85,1633.38 2273.2,1670.97 2280.55,1713.07 2287.9,1758.81 2295.25,1807.31 2302.61,1857.71 2309.96,1909.19 2317.31,1961.04 2324.66,2012.59 2332.02,2063.29 2339.37,2112.68 2346.72,2160.42 2354.07,2206.21 2361.43,2249.87 2368.78,2291.26 2376.13,2330.28 2383.48,2366.87 2390.83,2401 2398.19,2432.6 2405.54,2461.61 2412.89,2487.95 2420.24,2511.49 2427.6,2532.07 2434.95,2549.45 2442.3,2563.37 2449.65,2573.51 2457.01,2579.47 2464.36,2580.83 2471.71,2577.13 2479.06,2567.87 2486.42,2552.56 2493.77,2530.72 2501.12,2501.91 2508.47,2465.76 2515.82,2421.98 2523.18,2370.45 2530.53,2311.18 2537.88,2244.38 2545.23,2170.48 2552.59,2090.13 2559.94,2004.25 2567.29,1914.01 2574.64,1820.81 2582,1726.3 2589.35,1632.33 2596.7,1540.88 2604.05,1454.06 2611.41,1373.99 2618.76,1302.74 2626.11,1242.26 2633.46,1194.23 2640.81,1160.07 2648.17,1140.79 2655.52,1136.94 2662.87,1148.63 2670.22,1175.46 2677.58,1216.56 2684.93,1270.67 2692.28,1336.16 2699.63,1411.16 2706.99,1493.63 2714.34,1581.48 2721.69,1672.65 2729.04,1765.16 2736.4,1857.22 2743.75,1947.25 2751.1,2033.88 2758.45,2115.97 2765.8,2192.63 2773.16,2263.16 2780.51,2327.04 2787.86,2383.92 2795.21,2433.58 2802.57,2475.92 2809.92,2510.93 2817.27,2538.66 2824.62,2559.26 2831.98,2572.91 2839.33,2579.87 2846.68,2580.43 2854.03,2574.97 2861.39,2563.9 2868.74,2547.7 2876.09,2526.91 2883.44,2502.09 2890.79,2473.9 2898.15,2442.97 2905.5,2409.99 2912.85,2375.64 2920.2,2340.58 2927.56,2305.44 2934.91,2270.83 2942.26,2237.25 2949.61,2205.16 2956.97,2174.95 2964.32,2146.91 2971.67,2121.26 2979.02,2098.14 2986.38,2077.62 2993.73,2059.73 3001.08,2044.41 3008.43,2031.57 3015.78,2021.09 3023.14,2012.8 3030.49,2006.5 3037.84,2001.96 3045.19,1998.95 3052.55,1997.22 3059.9,1996.48 3067.25,1996.46 3074.6,1996.91 3081.96,1997.58 3089.31,1998.23 3096.66,1998.69 3104.01,1998.85 3111.37,1998.63 3118.72,1998.04 3126.07,1997.18 3133.42,1996.21 3140.77,1995.37 3148.13,1994.97 3155.48,1995.37 3162.83,1997.01 3170.18,2000.31 3177.54,2005.75 3184.89,2013.8 3192.24,2024.9 3199.59,2039.48 3206.95,2057.9 3214.3,2080.43 3221.65,2107.25 3229,2138.39 3236.36,2173.69 3243.71,2212.81 3251.06,2255.17 3258.41,2299.95 3265.76,2346.07 3273.12,2392.23 3280.47,2436.94 3287.82,2478.54 3295.17,2515.3 3302.53,2545.44 3309.88,2567.27 3317.23,2579.16 3324.58,2579.71 3331.94,2567.69 3339.29,2542.15 3346.64,2502.42 3353.99,2448.12 3361.34,2379.18 3368.7,2295.86 3376.05,2198.77 3383.4,2088.87 3390.75,1967.52 3398.11,1836.5 3405.46,1698.03 3412.81,1554.79 3420.16,1409.92 3427.52,1266.98 3434.87,1129.85 3442.22,1002.63 3449.57,889.429 3456.93,794.166 3464.28,720.285 3471.63,670.504 3478.98,646.593 3486.33,649.209 3493.69,677.84 3501.04,730.847 3508.39,805.62 3515.74,898.815 3523.1,1006.63 3530.45,1125.1 3537.8,1250.34 3545.15,1378.79 3552.51,1507.29 3559.86,1633.22 3567.21,1754.45 3574.56,1869.37 3581.92,1976.8 3589.27,2075.92 3596.62,2166.21 3603.97,2247.37 3611.32,2319.3 3618.68,2381.99 3626.03,2435.55 3633.38,2480.15 3640.73,2516.06 3648.09,2543.6 3655.44,2563.19 3662.79,2575.32 3670.14,2580.6 3677.5,2579.71 3684.85,2573.46 3692.2,2562.72 3699.55,2548.42 3706.91,2531.53 3714.26,2513.02 3721.61,2493.81 3728.96,2474.76 3736.31,2456.62 3743.67,2440 3751.02,2425.38 3758.37,2413.07 3765.72,2403.27 3773.08,2396.04 3780.43,2391.3 3787.78,2388.93 3795.13,2388.71 3802.49,2390.38 3809.84,2393.67 3817.19,2398.27 3824.54,2403.9 3831.9,2410.27 3839.25,2417.12 3846.6,2424.2 3853.95,2431.27 3861.3,2438.12 3868.66,2444.56 3876.01,2450.37 3883.36,2455.4 3890.71,2459.43 3898.07,2462.29 3905.42,2463.77 3912.77,2463.65 3920.12,2461.66 3927.48,2457.52 3934.83,2450.88 3942.18,2441.36 3949.53,2428.52 3956.89,2411.9 3964.24,2391.03 3971.59,2365.47 3978.94,2334.84 3986.29,2298.88 3993.65,2257.5 4001,2210.78 4008.35,2159 4015.7,2102.68 4023.06,2042.51 4030.41,1979.38 4037.76,1914.37 4045.11,1848.71 4052.47,1783.79 4059.82,1721.16 4067.17,1662.57 4074.52,1609.9 4081.88,1565.21 4089.23,1530.64 4096.58,1508.32 4103.93,1500.27 4111.28,1508.18 4118.64,1533.18 4125.99,1575.68 4133.34,1635.15 4140.69,1710.06 4148.05,1797.93 4155.4,1895.4 4162.75,1998.54 4170.1,2103.13 4177.46,2204.94 4184.81,2300.06 4192.16,2385.03 4199.51,2457.04 4206.87,2513.89 4214.22,2553.99 4221.57,2576.29 4228.92,2580.15 4236.27,2565.25 4243.63,2531.52 4250.98,2479.07 4258.33,2408.15 4265.68,2319.16 4273.04,2212.73 4280.39,2089.73 4287.74,1951.43 4295.09,1799.63 4302.45,1636.79 4309.8,1466.16 4317.15,1291.89 4324.5,1119 4331.85,953.327 4339.21,801.197 4346.56,669.062 4353.91,562.925 4361.26,487.748 4368.62,446.887 4375.97,441.702 4383.32,471.414 4390.67,533.252 4398.03,622.847 4405.38,734.802 4412.73,863.297 4420.08,1002.63 4427.44,1147.64 4434.79,1293.93 4442.14,1437.99 4449.49,1577.15 4456.84,1709.52 4464.2,1833.78 4471.55,1949.09 4478.9,2054.95 4486.25,2151.06 4493.61,2237.28 4500.96,2313.52 "/>
<polyline clip-path="url(#clip152)" style="stroke:#3da44d; stroke-linecap:round; stroke-linejoin:round; stroke-width:12; stroke-opacity:1; fill:none" points="832.137,2580.7 839.489,2578.66 846.842,2574.64 854.194,2568.71 861.546,2560.99 868.899,2551.64 876.251,2540.84 883.604,2528.81 890.956,2515.79 898.308,2502.02 905.661,2487.78 913.013,2473.32 920.365,2458.92 927.718,2444.82 935.07,2431.25 942.422,2418.44 949.775,2406.56 957.127,2395.77 964.479,2386.18 971.832,2377.88 979.184,2370.91 986.536,2365.28 993.889,2360.95 1001.24,2357.89 1008.59,2355.99 1015.95,2355.15 1023.3,2355.24 1030.65,2356.12 1038,2357.63 1045.36,2359.62 1052.71,2361.92 1052.71,2395.5 1060.06,2452.14 1067.41,2497.84 1074.76,2532.86 1082.12,2557.73 1089.47,2573.22 1096.82,2580.26 1104.17,2579.91 1111.53,2573.32 1118.88,2561.67 1126.23,2546.16 1133.58,2527.99 1140.94,2508.3 1148.29,2488.15 1155.64,2468.53 1162.99,2450.28 1170.35,2434.13 1177.7,2420.62 1185.05,2410.18 1192.4,2403.04 1199.75,2399.33 1207.11,2399.01 1214.46,2401.93 1221.81,2407.83 1229.16,2416.38 1236.52,2427.18 1243.87,2439.77 1251.22,2453.67 1258.57,2468.41 1265.93,2483.49 1273.28,2498.46 1280.63,2512.87 1287.98,2526.36 1295.34,2538.59 1302.69,2549.32 1310.04,2558.4 1317.39,2565.74 1324.74,2571.4 1332.1,2575.47 1339.45,2578.18 1346.8,2579.78 1354.15,2580.58 1361.51,2580.89 1368.86,2580.95 1376.21,2580.95 1383.56,2580.95 1390.92,2580.87 1398.27,2580.48 1405.62,2579.41 1412.97,2577.19 1420.32,2573.27 1427.68,2567.13 1435.03,2558.28 1442.38,2546.36 1449.73,2531.19 1457.09,2512.8 1464.44,2491.44 1471.79,2467.6 1479.14,2441.96 1486.5,2415.39 1493.85,2388.88 1501.2,2363.48 1508.55,2340.25 1515.91,2320.23 1523.26,2304.33 1530.61,2293.3 1537.96,2287.72 1545.31,2287.92 1552.67,2294.02 1560.02,2305.85 1567.37,2323.02 1574.72,2344.91 1582.08,2370.67 1589.43,2399.28 1596.78,2429.58 1604.13,2460.31 1611.49,2490.12 1618.84,2517.69 1626.19,2541.68 1633.54,2560.86 1640.9,2574.12 1648.25,2580.49 1655.6,2579.24 1662.95,2569.89 1670.3,2552.23 1677.66,2526.41 1685.01,2492.89 1692.36,2452.54 1699.71,2406.54 1707.07,2356.44 1714.42,2304.07 1721.77,2251.48 1729.12,2200.86 1736.48,2154.38 1743.83,2114.13 1751.18,2081.91 1758.53,2059.18 1765.89,2046.89 1773.24,2045.47 1780.59,2054.79 1787.94,2074.16 1795.29,2102.43 1802.65,2138.06 1810,2179.26 1817.35,2224.12 1824.7,2270.74 1832.06,2317.32 1839.41,2362.27 1846.76,2404.28 1854.11,2442.35 1861.47,2475.78 1868.82,2504.22 1876.17,2527.57 1883.52,2545.99 1890.88,2559.84 1898.23,2569.63 1905.58,2575.96 1912.93,2579.48 1920.28,2580.86 1927.64,2580.71 1934.99,2579.61 1942.34,2578.02 1949.69,2576.33 1957.05,2574.84 1964.4,2573.72 1971.75,2573.08 1979.1,2572.95 1986.46,2573.29 1993.81,2574.03 2001.16,2575.05 2008.51,2576.23 2015.87,2577.46 2023.22,2578.61 2030.57,2579.59 2037.92,2580.33 2045.27,2580.78 2052.63,2580.95 2059.98,2580.84 2067.33,2580.52 2074.68,2580.05 2082.04,2579.52 2089.39,2579.04 2096.74,2578.7 2104.09,2578.57 2111.45,2578.71 2118.8,2579.11 2126.15,2579.72 2133.5,2580.37 2140.86,2580.86 2148.21,2580.87 2155.56,2579.99 2162.91,2577.73 2170.26,2573.56 2177.62,2566.9 2184.97,2557.18 2192.32,2543.86 2199.67,2526.51 2207.03,2504.84 2214.38,2478.72 2221.73,2448.28 2229.08,2413.9 2236.44,2376.23 2243.79,2336.23 2251.14,2295.1 2258.49,2254.28 2265.85,2215.34 2273.2,2179.97 2280.55,2149.79 2287.9,2126.31 2295.25,2110.79 2302.61,2104.15 2309.96,2106.89 2317.31,2119.04 2324.66,2140.17 2332.02,2169.4 2339.37,2205.45 2346.72,2246.76 2354.07,2291.55 2361.43,2337.94 2368.78,2384.07 2376.13,2428.18 2383.48,2468.69 2390.83,2504.23 2398.19,2533.74 2405.54,2556.44 2412.89,2571.84 2420.24,2579.76 2427.6,2580.29 2434.95,2573.8 2442.3,2560.87 2449.65,2542.29 2457.01,2519.02 2464.36,2492.15 2471.71,2462.87 2479.06,2432.42 2486.42,2402.07 2493.77,2373.04 2501.12,2346.49 2508.47,2323.49 2515.82,2304.9 2523.18,2291.45 2530.53,2283.6 2537.88,2281.59 2545.23,2285.41 2552.59,2294.78 2559.94,2309.21 2567.29,2327.98 2574.64,2350.22 2582,2374.93 2589.35,2401.07 2596.7,2427.57 2604.05,2453.45 2611.41,2477.84 2618.76,2500.03 2626.11,2519.51 2633.46,2535.98 2640.81,2549.36 2648.17,2559.75 2655.52,2567.44 2662.87,2572.81 2670.22,2576.32 2677.58,2578.46 2684.93,2579.64 2692.28,2580.22 2699.63,2580.45 2706.99,2580.47 2714.34,2580.28 2721.69,2579.82 2729.04,2578.94 2736.4,2577.44 2743.75,2575.12 2751.1,2571.79 2758.45,2567.31 2765.8,2561.57 2773.16,2554.56 2780.51,2546.32 2787.86,2536.95 2795.21,2526.65 2802.57,2515.65 2809.92,2504.26 2817.27,2492.81 2824.62,2481.69 2831.98,2471.27 2839.33,2461.97 2846.68,2454.18 2854.03,2448.28 2861.39,2444.59 2868.74,2443.38 2876.09,2444.87 2883.44,2449.15 2890.79,2456.22 2898.15,2465.93 2905.5,2478.01 2912.85,2492.03 2920.2,2507.43 2927.56,2523.49 2934.91,2539.36 2942.26,2554.08 2949.61,2566.6 2956.97,2575.81 2964.32,2580.55 2971.67,2579.7 2979.02,2572.13 2986.38,2556.82 2993.73,2532.88 3001.08,2499.58 3008.43,2456.44 3015.78,2403.28 3023.14,2340.32 3030.49,2268.2 3037.84,2188.12 3045.19,2101.88 3052.55,2011.89 3059.9,1921.18 3067.25,1833.33 3074.6,1752.32 3081.96,1682.31 3089.31,1627.31 3096.66,1590.9 3104.01,1575.8 3111.37,1583.63 3118.72,1614.65 3126.07,1667.68 3133.42,1740.15 3140.77,1828.31 3148.13,1927.54 3155.48,2032.73 3162.83,2138.67 3170.18,2240.42 3177.54,2333.62 3184.89,2414.67 3192.24,2480.94 3199.59,2530.76 3206.95,2563.42 3214.3,2579.14 3221.65,2578.97 3229,2564.62 3236.36,2538.38 3243.71,2502.9 3251.06,2461.07 3258.41,2415.81 3265.76,2369.98 3273.12,2326.19 3280.47,2286.7 3287.82,2253.36 3295.17,2227.55 3302.53,2210.14 3309.88,2201.56 3317.23,2201.79 3324.58,2210.44 3331.94,2226.79 3339.29,2249.89 3346.64,2278.55 3353.99,2311.48 3361.34,2347.29 3368.7,2384.52 3376.05,2421.74 3383.4,2457.53 3390.75,2490.56 3398.11,2519.63 3405.46,2543.74 3412.81,2562.12 3420.16,2574.32 3427.52,2580.25 3434.87,2580.25 3442.22,2575.09 3449.57,2565.94 3456.93,2554.35 3464.28,2542.03 3471.63,2530.76 3478.98,2522.15 3486.33,2517.44 3493.69,2517.31 3501.04,2521.82 3508.39,2530.35 3515.74,2541.71 3523.1,2554.26 3530.45,2566.15 3537.8,2575.46 3545.15,2580.48 3552.51,2579.77 3559.86,2572.34 3567.21,2557.62 3574.56,2535.52 3581.92,2506.39 3589.27,2470.92 3596.62,2430.11 3603.97,2385.19 3611.32,2337.53 3618.68,2288.61 3626.03,2239.93 3633.38,2192.96 3640.73,2149.1 3648.09,2109.66 3655.44,2075.81 3662.79,2048.53 3670.14,2028.63 3677.5,2016.67 3684.85,2013.01 3692.2,2017.73 3699.55,2030.67 3706.91,2051.41 3714.26,2079.29 3721.61,2113.43 3728.96,2152.78 3736.31,2196.14 3743.67,2242.19 3751.02,2289.61 3758.37,2337.06 3765.72,2383.23 3773.08,2426.9 3780.43,2466.94 3787.78,2502.32 3795.13,2532.13 3802.49,2555.51 3809.84,2571.71 3817.19,2579.99 3824.54,2579.66 3831.9,2570.01 3839.25,2550.33 3846.6,2519.88 3853.95,2477.91 3861.3,2423.69 3868.66,2356.55 3876.01,2275.96 3883.36,2181.66 3890.71,2073.77 3898.07,1952.99 3905.42,1820.79 3912.77,1679.57 3920.12,1532.87 3927.48,1385.43 3934.83,1243.14 3942.18,1112.89 3949.53,1002.14 3956.89,918.321 3964.24,868.135 3971.59,856.722 3978.94,886.965 3986.29,958.979 3993.65,1069.93 4001,1214.18 4008.35,1383.84 4015.7,1569.48 4023.06,1760.96 4030.41,1948.27 4037.76,2122.24 4045.11,2275.02 4052.47,2400.46 4059.82,2494.28 4067.17,2554.16 4074.52,2579.76 4081.88,2572.62 4089.23,2536.07 4096.58,2475.07 4103.93,2395.84 4111.28,2305.54 4118.64,2211.7 4125.99,2121.64 4133.34,2041.87 4140.69,1977.59 4148.05,1932.31 4155.4,1907.73 4162.75,1903.81 4170.1,1919.05 4177.46,1950.86 4184.81,1996.03 4192.16,2051.09 4199.51,2112.61 4206.87,2177.46 4214.22,2242.92 4221.57,2306.66 4228.92,2366.78 4236.27,2421.71 4243.63,2470.15 4250.98,2510.99 4258.33,2543.25 4265.68,2566.06 4273.04,2578.62 4280.39,2580.23 4287.74,2570.39 4295.09,2548.87 4302.45,2515.88 4309.8,2472.24 4317.15,2419.59 4324.5,2360.52 4331.85,2298.6 4339.21,2238.34 4346.56,2184.87 4353.91,2143.43 4361.26,2118.68 4368.62,2113.97 4375.97,2130.74 4383.32,2168.07 4390.67,2222.71 4398.03,2289.45 4405.38,2361.75 4412.73,2432.53 4420.08,2495.03 4427.44,2543.34 4434.79,2572.9 4442.14,2580.64 4449.49,2565.07 4456.84,2526.07 4464.2,2464.82 4471.55,2383.54 4478.9,2285.29 4486.25,2173.79 4493.61,2053.27 4500.96,1928.21 "/>
<polyline clip-path="url(#clip152)" style="stroke:#ff00ff; stroke-linecap:round; stroke-linejoin:round; stroke-width:4; stroke-opacity:1; fill:none" stroke-dasharray="16, 10" points="1052.71,4912.73 1052.71,-1890.08 "/>
<path clip-path="url(#clip150)" d="M851.704 939.111 L1399.11 939.111 L1399.11 453.111 L851.704 453.111  Z" fill="#ffffff" fill-rule="evenodd" fill-opacity="1"/>
<polyline clip-path="url(#clip150)" style="stroke:#000000; stroke-linecap:round; stroke-linejoin:round; stroke-width:4; stroke-opacity:1; fill:none" points="851.704,939.111 1399.11,939.111 1399.11,453.111 851.704,453.111 851.704,939.111 "/>
<polyline clip-path="url(#clip150)" style="stroke:#009af9; stroke-linecap:round; stroke-linejoin:round; stroke-width:22.5; stroke-opacity:1; fill:none" points="894.915,550.311 1154.18,550.311 "/>
<path clip-path="url(#clip150)" d="M1245.31 573.466 L1245.31 556.062 L1230.98 556.062 L1230.98 548.857 L1253.99 548.857 L1253.99 576.678 Q1248.91 580.281 1242.79 582.147 Q1236.67 583.97 1229.72 583.97 Q1214.53 583.97 1205.94 575.116 Q1197.39 566.218 1197.39 550.376 Q1197.39 534.491 1205.94 525.637 Q1214.53 516.739 1229.72 516.739 Q1236.06 516.739 1241.75 518.302 Q1247.48 519.864 1252.29 522.902 L1252.29 532.234 Q1247.43 528.111 1241.96 526.027 Q1236.49 523.944 1230.46 523.944 Q1218.57 523.944 1212.58 530.585 Q1206.63 537.225 1206.63 550.376 Q1206.63 563.484 1212.58 570.124 Q1218.57 576.765 1230.46 576.765 Q1235.11 576.765 1238.75 575.984 Q1242.4 575.159 1245.31 573.466 Z" fill="#000000" fill-rule="nonzero" fill-opacity="1" /><path clip-path="url(#clip150)" d="M1272.3 575.333 L1286.62 575.333 L1286.62 525.897 L1271.04 529.022 L1271.04 521.036 L1286.54 517.911 L1295.3 517.911 L1295.3 575.333 L1309.63 575.333 L1309.63 582.711 L1272.3 582.711 L1272.3 575.333 Z" fill="#000000" fill-rule="nonzero" fill-opacity="1" /><polyline clip-path="url(#clip150)" style="stroke:#e26f46; stroke-linecap:round; stroke-linejoin:round; stroke-width:22.5; stroke-opacity:1; fill:none" points="894.915,647.511 1154.18,647.511 "/>
<path clip-path="url(#clip150)" d="M1245.31 670.666 L1245.31 653.262 L1230.98 653.262 L1230.98 646.057 L1253.99 646.057 L1253.99 673.878 Q1248.91 677.481 1242.79 679.347 Q1236.67 681.17 1229.72 681.17 Q1214.53 681.17 1205.94 672.316 Q1197.39 663.418 1197.39 647.576 Q1197.39 631.691 1205.94 622.837 Q1214.53 613.939 1229.72 613.939 Q1236.06 613.939 1241.75 615.502 Q1247.48 617.064 1252.29 620.102 L1252.29 629.434 Q1247.43 625.311 1241.96 623.227 Q1236.49 621.144 1230.46 621.144 Q1218.57 621.144 1212.58 627.785 Q1206.63 634.425 1206.63 647.576 Q1206.63 660.684 1212.58 667.324 Q1218.57 673.965 1230.46 673.965 Q1235.11 673.965 1238.75 673.184 Q1242.4 672.359 1245.31 670.666 Z" fill="#000000" fill-rule="nonzero" fill-opacity="1" /><path clip-path="url(#clip150)" d="M1278.33 672.533 L1308.93 672.533 L1308.93 679.911 L1267.79 679.911 L1267.79 672.533 Q1272.78 667.368 1281.37 658.687 Q1290.01 649.963 1292.22 647.446 Q1296.43 642.715 1298.08 639.46 Q1299.78 636.161 1299.78 632.993 Q1299.78 627.828 1296.13 624.573 Q1292.53 621.318 1286.71 621.318 Q1282.59 621.318 1277.99 622.75 Q1273.43 624.182 1268.22 627.09 L1268.22 618.236 Q1273.52 616.109 1278.12 615.024 Q1282.72 613.939 1286.54 613.939 Q1296.61 613.939 1302.6 618.974 Q1308.59 624.009 1308.59 632.429 Q1308.59 636.422 1307.07 640.024 Q1305.59 643.583 1301.64 648.444 Q1300.56 649.703 1294.74 655.736 Q1288.92 661.726 1278.33 672.533 Z" fill="#000000" fill-rule="nonzero" fill-opacity="1" /><polyline clip-path="url(#clip150)" style="stroke:#3da44d; stroke-linecap:round; stroke-linejoin:round; stroke-width:22.5; stroke-opacity:1; fill:none" points="894.915,744.711 1154.18,744.711 "/>
<path clip-path="url(#clip150)" d="M1245.31 767.866 L1245.31 750.462 L1230.98 750.462 L1230.98 743.257 L1253.99 743.257 L1253.99 771.078 Q1248.91 774.681 1242.79 776.547 Q1236.67 778.37 1229.72 778.37 Q1214.53 778.37 1205.94 769.516 Q1197.39 760.618 1197.39 744.776 Q1197.39 728.891 1205.94 720.037 Q1214.53 711.139 1229.72 711.139 Q1236.06 711.139 1241.75 712.702 Q1247.48 714.264 1252.29 717.302 L1252.29 726.634 Q1247.43 722.511 1241.96 720.427 Q1236.49 718.344 1230.46 718.344 Q1218.57 718.344 1212.58 724.985 Q1206.63 731.625 1206.63 744.776 Q1206.63 757.884 1212.58 764.524 Q1218.57 771.165 1230.46 771.165 Q1235.11 771.165 1238.75 770.384 Q1242.4 769.559 1245.31 767.866 Z" fill="#000000" fill-rule="nonzero" fill-opacity="1" /><path clip-path="url(#clip150)" d="M1297.34 742.172 Q1303.64 743.518 1307.15 747.771 Q1310.71 752.025 1310.71 758.274 Q1310.71 767.866 1304.12 773.118 Q1297.52 778.37 1285.37 778.37 Q1281.29 778.37 1276.95 777.545 Q1272.65 776.764 1268.05 775.158 L1268.05 766.695 Q1271.69 768.821 1276.03 769.906 Q1280.37 770.991 1285.11 770.991 Q1293.35 770.991 1297.65 767.736 Q1301.99 764.481 1301.99 758.274 Q1301.99 752.545 1297.95 749.334 Q1293.96 746.078 1286.8 746.078 L1279.25 746.078 L1279.25 738.874 L1287.15 738.874 Q1293.61 738.874 1297.04 736.313 Q1300.47 733.709 1300.47 728.848 Q1300.47 723.856 1296.91 721.209 Q1293.4 718.518 1286.8 718.518 Q1283.2 718.518 1279.07 719.299 Q1274.95 720.08 1270 721.73 L1270 713.917 Q1274.99 712.528 1279.33 711.834 Q1283.72 711.139 1287.58 711.139 Q1297.56 711.139 1303.38 715.697 Q1309.19 720.21 1309.19 727.936 Q1309.19 733.318 1306.11 737.051 Q1303.03 740.74 1297.34 742.172 Z" fill="#000000" fill-rule="nonzero" fill-opacity="1" /><polyline clip-path="url(#clip150)" style="stroke:#ff00ff; stroke-linecap:round; stroke-linejoin:round; stroke-width:7.5; stroke-opacity:1; fill:none" stroke-dasharray="30, 19" points="894.915,841.911 1154.18,841.911 "/>
<path clip-path="url(#clip150)" d="M1211.28 811.898 L1211.28 825.7 L1227.73 825.7 L1227.73 831.907 L1211.28 831.907 L1211.28 858.296 Q1211.28 864.242 1212.88 865.934 Q1214.53 867.627 1219.52 867.627 L1227.73 867.627 L1227.73 874.311 L1219.52 874.311 Q1210.28 874.311 1206.76 870.882 Q1203.25 867.41 1203.25 858.296 L1203.25 831.907 L1197.39 831.907 L1197.39 825.7 L1203.25 825.7 L1203.25 811.898 L1211.28 811.898 Z" fill="#000000" fill-rule="nonzero" fill-opacity="1" /><path clip-path="url(#clip150)" d="M1275.17 889.068 L1275.17 895.275 L1228.99 895.275 L1228.99 889.068 L1275.17 889.068 Z" fill="#000000" fill-rule="nonzero" fill-opacity="1" /><path clip-path="url(#clip150)" d="M1317.66 827.567 L1317.66 835.032 Q1314.27 833.166 1310.84 832.254 Q1307.46 831.299 1303.99 831.299 Q1296.22 831.299 1291.92 836.247 Q1287.62 841.152 1287.62 850.049 Q1287.62 858.947 1291.92 863.895 Q1296.22 868.799 1303.99 868.799 Q1307.46 868.799 1310.84 867.888 Q1314.27 866.933 1317.66 865.066 L1317.66 872.445 Q1314.32 874.007 1310.71 874.789 Q1307.15 875.57 1303.12 875.57 Q1292.14 875.57 1285.67 868.669 Q1279.2 861.768 1279.2 850.049 Q1279.2 838.157 1285.71 831.343 Q1292.27 824.528 1303.64 824.528 Q1307.33 824.528 1310.84 825.31 Q1314.36 826.048 1317.66 827.567 Z" fill="#000000" fill-rule="nonzero" fill-opacity="1" /><path clip-path="url(#clip150)" d="M1339.45 811.898 L1339.45 825.7 L1355.89 825.7 L1355.89 831.907 L1339.45 831.907 L1339.45 858.296 Q1339.45 864.242 1341.05 865.934 Q1342.7 867.627 1347.69 867.627 L1355.89 867.627 L1355.89 874.311 L1347.69 874.311 Q1338.45 874.311 1334.93 870.882 Q1331.42 867.41 1331.42 858.296 L1331.42 831.907 L1325.56 831.907 L1325.56 825.7 L1331.42 825.7 L1331.42 811.898 L1339.45 811.898 Z" fill="#000000" fill-rule="nonzero" fill-opacity="1" /></svg>
