<?xml version="1.0" encoding="utf-8"?>
<svg xmlns="http://www.w3.org/2000/svg" xmlns:xlink="http://www.w3.org/1999/xlink" width="1200" height="800" viewBox="0 0 4800 3200">
<defs>
  <clipPath id="clip190">
    <rect x="0" y="0" width="4800" height="3200"/>
  </clipPath>
</defs>
<path clip-path="url(#clip190)" d="M0 3200 L4800 3200 L4800 0 L0 0  Z" fill="#ffffff" fill-rule="evenodd" fill-opacity="1"/>
<defs>
  <clipPath id="clip191">
    <rect x="960" y="0" width="3361" height="3200"/>
  </clipPath>
</defs>
<path clip-path="url(#clip190)" d="M887.552 2645.13 L4611.02 2645.13 L4611.02 377.524 L887.552 377.524  Z" fill="#ffffff" fill-rule="evenodd" fill-opacity="1"/>
<defs>
  <clipPath id="clip192">
    <rect x="887" y="377" width="3724" height="2269"/>
  </clipPath>
</defs>
<polyline clip-path="url(#clip192)" style="stroke:#000000; stroke-linecap:round; stroke-linejoin:round; stroke-width:8; stroke-opacity:0.05; fill:none" stroke-dasharray="32, 20" points="985.894,2645.13 985.894,377.524 "/>
<polyline clip-path="url(#clip192)" style="stroke:#000000; stroke-linecap:round; stroke-linejoin:round; stroke-width:8; stroke-opacity:0.05; fill:none" stroke-dasharray="32, 20" points="1689.84,2645.13 1689.84,377.524 "/>
<polyline clip-path="url(#clip192)" style="stroke:#000000; stroke-linecap:round; stroke-linejoin:round; stroke-width:8; stroke-opacity:0.05; fill:none" stroke-dasharray="32, 20" points="2393.79,2645.13 2393.79,377.524 "/>
<polyline clip-path="url(#clip192)" style="stroke:#000000; stroke-linecap:round; stroke-linejoin:round; stroke-width:8; stroke-opacity:0.05; fill:none" stroke-dasharray="32, 20" points="3097.74,2645.13 3097.74,377.524 "/>
<polyline clip-path="url(#clip192)" style="stroke:#000000; stroke-linecap:round; stroke-linejoin:round; stroke-width:8; stroke-opacity:0.05; fill:none" stroke-dasharray="32, 20" points="3801.69,2645.13 3801.69,377.524 "/>
<polyline clip-path="url(#clip192)" style="stroke:#000000; stroke-linecap:round; stroke-linejoin:round; stroke-width:8; stroke-opacity:0.05; fill:none" stroke-dasharray="32, 20" points="4505.64,2645.13 4505.64,377.524 "/>
<polyline clip-path="url(#clip192)" style="stroke:#000000; stroke-linecap:round; stroke-linejoin:round; stroke-width:8; stroke-opacity:0.05; fill:none" stroke-dasharray="32, 20" points="887.552,2098.35 4611.02,2098.35 "/>
<polyline clip-path="url(#clip192)" style="stroke:#000000; stroke-linecap:round; stroke-linejoin:round; stroke-width:8; stroke-opacity:0.05; fill:none" stroke-dasharray="32, 20" points="887.552,1546.22 4611.02,1546.22 "/>
<polyline clip-path="url(#clip192)" style="stroke:#000000; stroke-linecap:round; stroke-linejoin:round; stroke-width:8; stroke-opacity:0.05; fill:none" stroke-dasharray="32, 20" points="887.552,994.087 4611.02,994.087 "/>
<polyline clip-path="url(#clip192)" style="stroke:#000000; stroke-linecap:round; stroke-linejoin:round; stroke-width:8; stroke-opacity:0.05; fill:none" stroke-dasharray="32, 20" points="887.552,441.956 4611.02,441.956 "/>
<polyline clip-path="url(#clip190)" style="stroke:#000000; stroke-linecap:round; stroke-linejoin:round; stroke-width:4; stroke-opacity:1; fill:none" points="887.552,2645.13 4611.02,2645.13 "/>
<polyline clip-path="url(#clip190)" style="stroke:#000000; stroke-linecap:round; stroke-linejoin:round; stroke-width:4; stroke-opacity:1; fill:none" points="985.894,2645.13 985.894,2626.23 "/>
<polyline clip-path="url(#clip190)" style="stroke:#000000; stroke-linecap:round; stroke-linejoin:round; stroke-width:4; stroke-opacity:1; fill:none" points="1689.84,2645.13 1689.84,2626.23 "/>
<polyline clip-path="url(#clip190)" style="stroke:#000000; stroke-linecap:round; stroke-linejoin:round; stroke-width:4; stroke-opacity:1; fill:none" points="2393.79,2645.13 2393.79,2626.23 "/>
<polyline clip-path="url(#clip190)" style="stroke:#000000; stroke-linecap:round; stroke-linejoin:round; stroke-width:4; stroke-opacity:1; fill:none" points="3097.74,2645.13 3097.74,2626.23 "/>
<polyline clip-path="url(#clip190)" style="stroke:#000000; stroke-linecap:round; stroke-linejoin:round; stroke-width:4; stroke-opacity:1; fill:none" points="3801.69,2645.13 3801.69,2626.23 "/>
<polyline clip-path="url(#clip190)" style="stroke:#000000; stroke-linecap:round; stroke-linejoin:round; stroke-width:4; stroke-opacity:1; fill:none" points="4505.64,2645.13 4505.64,2626.23 "/>
<path clip-path="url(#clip190)" d="M985.894 2734.8 Q970.095 2734.8 962.095 2750.39 Q954.195 2765.89 954.195 2797.08 Q954.195 2828.17 962.095 2843.77 Q970.095 2859.26 985.894 2859.26 Q1001.79 2859.26 1009.69 2843.77 Q1017.69 2828.17 1017.69 2797.08 Q1017.69 2765.89 1009.69 2750.39 Q1001.79 2734.8 985.894 2734.8 M985.894 2718.59 Q1011.31 2718.59 1024.68 2738.75 Q1038.15 2758.8 1038.15 2797.08 Q1038.15 2835.26 1024.68 2855.41 Q1011.31 2875.46 985.894 2875.46 Q960.474 2875.46 947.005 2855.41 Q933.637 2835.26 933.637 2797.08 Q933.637 2758.8 947.005 2738.75 Q960.474 2718.59 985.894 2718.59 Z" fill="#000000" fill-rule="nonzero" fill-opacity="1" /><path clip-path="url(#clip190)" d="M1647.76 2855.31 L1681.18 2855.31 L1681.18 2739.96 L1644.83 2747.25 L1644.83 2728.62 L1680.98 2721.33 L1701.44 2721.33 L1701.44 2855.31 L1734.86 2855.31 L1734.86 2872.53 L1647.76 2872.53 L1647.76 2855.31 Z" fill="#000000" fill-rule="nonzero" fill-opacity="1" /><path clip-path="url(#clip190)" d="M2370.4 2855.31 L2441.8 2855.31 L2441.8 2872.53 L2345.79 2872.53 L2345.79 2855.31 Q2357.44 2843.26 2377.49 2823.01 Q2397.64 2802.65 2402.81 2796.78 Q2412.63 2785.74 2416.48 2778.14 Q2420.43 2770.44 2420.43 2763.05 Q2420.43 2751 2411.92 2743.4 Q2403.52 2735.81 2389.94 2735.81 Q2380.32 2735.81 2369.59 2739.15 Q2358.96 2742.49 2346.8 2749.28 L2346.8 2728.62 Q2359.16 2723.66 2369.89 2721.13 Q2380.63 2718.59 2389.54 2718.59 Q2413.03 2718.59 2427.01 2730.34 Q2440.99 2742.09 2440.99 2761.74 Q2440.99 2771.05 2437.44 2779.46 Q2434 2787.76 2424.78 2799.1 Q2422.25 2802.04 2408.68 2816.12 Q2395.11 2830.09 2370.4 2855.31 Z" fill="#000000" fill-rule="nonzero" fill-opacity="1" /><path clip-path="url(#clip190)" d="M3116.33 2791 Q3131.01 2794.14 3139.21 2804.07 Q3147.52 2813.99 3147.52 2828.58 Q3147.52 2850.96 3132.12 2863.21 Q3116.73 2875.46 3088.38 2875.46 Q3078.86 2875.46 3068.73 2873.54 Q3058.7 2871.72 3047.97 2867.97 L3047.97 2848.22 Q3056.47 2853.18 3066.6 2855.72 Q3076.73 2858.25 3087.77 2858.25 Q3107.01 2858.25 3117.04 2850.65 Q3127.16 2843.06 3127.16 2828.58 Q3127.16 2815.21 3117.74 2807.71 Q3108.43 2800.12 3091.72 2800.12 L3074.1 2800.12 L3074.1 2783.31 L3092.53 2783.31 Q3107.62 2783.31 3115.62 2777.33 Q3123.62 2771.25 3123.62 2759.91 Q3123.62 2748.27 3115.31 2742.09 Q3107.11 2735.81 3091.72 2735.81 Q3083.31 2735.81 3073.69 2737.63 Q3064.07 2739.46 3052.52 2743.3 L3052.52 2725.07 Q3064.17 2721.83 3074.3 2720.21 Q3084.53 2718.59 3093.54 2718.59 Q3116.83 2718.59 3130.4 2729.23 Q3143.97 2739.76 3143.97 2757.79 Q3143.97 2770.34 3136.78 2779.05 Q3129.59 2787.66 3116.33 2791 Z" fill="#000000" fill-rule="nonzero" fill-opacity="1" /><path clip-path="url(#clip190)" d="M3814.86 2739.15 L3763.21 2819.87 L3814.86 2819.87 L3814.86 2739.15 M3809.49 2721.33 L3835.21 2721.33 L3835.21 2819.87 L3856.78 2819.87 L3856.78 2836.88 L3835.21 2836.88 L3835.21 2872.53 L3814.86 2872.53 L3814.86 2836.88 L3746.6 2836.88 L3746.6 2817.13 L3809.49 2721.33 Z" fill="#000000" fill-rule="nonzero" fill-opacity="1" /><path clip-path="url(#clip190)" d="M4463.11 2721.33 L4543.42 2721.33 L4543.42 2738.54 L4481.84 2738.54 L4481.84 2775.61 Q4486.3 2774.09 4490.76 2773.38 Q4495.21 2772.57 4499.67 2772.57 Q4524.99 2772.57 4539.77 2786.45 Q4554.56 2800.32 4554.56 2824.02 Q4554.56 2848.42 4539.37 2862 Q4524.18 2875.46 4496.53 2875.46 Q4487.01 2875.46 4477.08 2873.84 Q4467.26 2872.22 4456.73 2868.98 L4456.73 2848.42 Q4465.84 2853.39 4475.56 2855.82 Q4485.29 2858.25 4496.12 2858.25 Q4513.64 2858.25 4523.87 2849.03 Q4534.1 2839.82 4534.1 2824.02 Q4534.1 2808.22 4523.87 2799 Q4513.64 2789.79 4496.12 2789.79 Q4487.92 2789.79 4479.72 2791.61 Q4471.61 2793.43 4463.11 2797.28 L4463.11 2721.33 Z" fill="#000000" fill-rule="nonzero" fill-opacity="1" /><path clip-path="url(#clip190)" d="M2584.82 2979.74 L2584.82 3011.94 L2623.2 3011.94 L2623.2 3026.42 L2584.82 3026.42 L2584.82 3088 Q2584.82 3101.87 2588.57 3105.82 Q2592.42 3109.77 2604.06 3109.77 L2623.2 3109.77 L2623.2 3125.37 L2604.06 3125.37 Q2582.49 3125.37 2574.29 3117.37 Q2566.09 3109.27 2566.09 3088 L2566.09 3026.42 L2552.41 3026.42 L2552.41 3011.94 L2566.09 3011.94 L2566.09 2979.74 L2584.82 2979.74 Z" fill="#000000" fill-rule="nonzero" fill-opacity="1" /><path clip-path="url(#clip190)" d="M2758.4 2967.99 Q2744.83 2991.28 2738.25 3014.07 Q2731.67 3036.86 2731.67 3060.25 Q2731.67 3083.64 2738.25 3106.63 Q2744.93 3129.52 2758.4 3152.71 L2742.2 3152.71 Q2727.01 3128.91 2719.41 3105.92 Q2711.92 3082.93 2711.92 3060.25 Q2711.92 3037.67 2719.41 3014.78 Q2726.91 2991.89 2742.2 2967.99 L2758.4 2967.99 Z" fill="#000000" fill-rule="nonzero" fill-opacity="1" /><path clip-path="url(#clip190)" d="M2866.87 3015.28 L2866.87 3032.91 Q2858.97 3028.85 2850.46 3026.83 Q2841.95 3024.8 2832.84 3024.8 Q2818.96 3024.8 2811.98 3029.06 Q2805.09 3033.31 2805.09 3041.82 Q2805.09 3048.3 2810.05 3052.05 Q2815.01 3055.69 2830 3059.03 L2836.38 3060.45 Q2856.23 3064.71 2864.54 3072.5 Q2872.94 3080.2 2872.94 3094.07 Q2872.94 3109.87 2860.38 3119.09 Q2847.93 3128.3 2826.05 3128.3 Q2816.94 3128.3 2807.01 3126.48 Q2797.19 3124.76 2786.25 3121.22 L2786.25 3101.97 Q2796.58 3107.34 2806.61 3110.08 Q2816.63 3112.71 2826.46 3112.71 Q2839.62 3112.71 2846.71 3108.25 Q2853.8 3103.7 2853.8 3095.49 Q2853.8 3087.9 2848.64 3083.85 Q2843.57 3079.79 2826.25 3076.05 L2819.77 3074.53 Q2802.46 3070.88 2794.76 3063.39 Q2787.06 3055.79 2787.06 3042.63 Q2787.06 3026.63 2798.4 3017.92 Q2809.75 3009.21 2830.61 3009.21 Q2840.94 3009.21 2850.05 3010.73 Q2859.17 3012.25 2866.87 3015.28 Z" fill="#000000" fill-rule="nonzero" fill-opacity="1" /><path clip-path="url(#clip190)" d="M2899.68 2967.99 L2915.88 2967.99 Q2931.07 2991.89 2938.57 3014.78 Q2946.16 3037.67 2946.16 3060.25 Q2946.16 3082.93 2938.57 3105.92 Q2931.07 3128.91 2915.88 3152.71 L2899.68 3152.71 Q2913.15 3129.52 2919.73 3106.63 Q2926.41 3083.64 2926.41 3060.25 Q2926.41 3036.86 2919.73 3014.07 Q2913.15 2991.28 2899.68 2967.99 Z" fill="#000000" fill-rule="nonzero" fill-opacity="1" /><polyline clip-path="url(#clip190)" style="stroke:#000000; stroke-linecap:round; stroke-linejoin:round; stroke-width:4; stroke-opacity:1; fill:none" points="887.552,2645.13 887.552,377.524 "/>
<polyline clip-path="url(#clip190)" style="stroke:#000000; stroke-linecap:round; stroke-linejoin:round; stroke-width:4; stroke-opacity:1; fill:none" points="887.552,2098.35 906.45,2098.35 "/>
<polyline clip-path="url(#clip190)" style="stroke:#000000; stroke-linecap:round; stroke-linejoin:round; stroke-width:4; stroke-opacity:1; fill:none" points="887.552,1546.22 906.45,1546.22 "/>
<polyline clip-path="url(#clip190)" style="stroke:#000000; stroke-linecap:round; stroke-linejoin:round; stroke-width:4; stroke-opacity:1; fill:none" points="887.552,994.087 906.45,994.087 "/>
<polyline clip-path="url(#clip190)" style="stroke:#000000; stroke-linecap:round; stroke-linejoin:round; stroke-width:4; stroke-opacity:1; fill:none" points="887.552,441.956 906.45,441.956 "/>
<path clip-path="url(#clip190)" d="M352.027 2100.32 L481.859 2100.32 L481.859 2117.54 L352.027 2117.54 L352.027 2100.32 Z" fill="#000000" fill-rule="nonzero" fill-opacity="1" /><path clip-path="url(#clip190)" d="M529.558 2156.73 L562.978 2156.73 L562.978 2041.38 L526.621 2048.67 L526.621 2030.04 L562.775 2022.75 L583.233 2022.75 L583.233 2156.73 L616.652 2156.73 L616.652 2173.95 L529.558 2173.95 L529.558 2156.73 Z" fill="#000000" fill-rule="nonzero" fill-opacity="1" /><path clip-path="url(#clip190)" d="M657.972 2148.23 L679.34 2148.23 L679.34 2173.95 L657.972 2173.95 L657.972 2148.23 Z" fill="#000000" fill-rule="nonzero" fill-opacity="1" /><path clip-path="url(#clip190)" d="M724.103 2022.75 L804.412 2022.75 L804.412 2039.96 L742.838 2039.96 L742.838 2077.03 Q747.294 2075.51 751.75 2074.8 Q756.206 2073.99 760.662 2073.99 Q785.98 2073.99 800.766 2087.87 Q815.552 2101.74 815.552 2125.44 Q815.552 2149.85 800.361 2163.42 Q785.17 2176.89 757.523 2176.89 Q748.003 2176.89 738.078 2175.27 Q728.255 2173.64 717.723 2170.4 L717.723 2149.85 Q726.837 2154.81 736.559 2157.24 Q746.281 2159.67 757.118 2159.67 Q774.638 2159.67 784.866 2150.45 Q795.095 2141.24 795.095 2125.44 Q795.095 2109.64 784.866 2100.42 Q774.638 2091.21 757.118 2091.21 Q748.915 2091.21 740.711 2093.03 Q732.61 2094.85 724.103 2098.7 L724.103 2022.75 Z" fill="#000000" fill-rule="nonzero" fill-opacity="1" /><path clip-path="url(#clip190)" d="M347.672 1548.19 L477.504 1548.19 L477.504 1565.41 L347.672 1565.41 L347.672 1548.19 Z" fill="#000000" fill-rule="nonzero" fill-opacity="1" /><path clip-path="url(#clip190)" d="M525.203 1604.6 L558.623 1604.6 L558.623 1489.25 L522.266 1496.54 L522.266 1477.91 L558.421 1470.62 L578.878 1470.62 L578.878 1604.6 L612.298 1604.6 L612.298 1621.82 L525.203 1621.82 L525.203 1604.6 Z" fill="#000000" fill-rule="nonzero" fill-opacity="1" /><path clip-path="url(#clip190)" d="M653.617 1596.09 L674.986 1596.09 L674.986 1621.82 L653.617 1621.82 L653.617 1596.09 Z" fill="#000000" fill-rule="nonzero" fill-opacity="1" /><path clip-path="url(#clip190)" d="M763.295 1484.09 Q747.497 1484.09 739.496 1499.68 Q731.597 1515.18 731.597 1546.37 Q731.597 1577.46 739.496 1593.06 Q747.497 1608.55 763.295 1608.55 Q779.195 1608.55 787.094 1593.06 Q795.095 1577.46 795.095 1546.37 Q795.095 1515.18 787.094 1499.68 Q779.195 1484.09 763.295 1484.09 M763.295 1467.88 Q788.715 1467.88 802.083 1488.04 Q815.552 1508.09 815.552 1546.37 Q815.552 1584.55 802.083 1604.7 Q788.715 1624.75 763.295 1624.75 Q737.876 1624.75 724.407 1604.7 Q711.039 1584.55 711.039 1546.37 Q711.039 1508.09 724.407 1488.04 Q737.876 1467.88 763.295 1467.88 Z" fill="#000000" fill-rule="nonzero" fill-opacity="1" /><path clip-path="url(#clip190)" d="M352.027 996.061 L481.859 996.061 L481.859 1013.28 L352.027 1013.28 L352.027 996.061 Z" fill="#000000" fill-rule="nonzero" fill-opacity="1" /><path clip-path="url(#clip190)" d="M569.763 931.956 Q553.965 931.956 545.964 947.552 Q538.065 963.047 538.065 994.239 Q538.065 1025.33 545.964 1040.93 Q553.965 1056.42 569.763 1056.42 Q585.663 1056.42 593.562 1040.93 Q601.563 1025.33 601.563 994.239 Q601.563 963.047 593.562 947.552 Q585.663 931.956 569.763 931.956 M569.763 915.752 Q595.183 915.752 608.551 935.906 Q622.02 955.958 622.02 994.239 Q622.02 1032.42 608.551 1052.57 Q595.183 1072.62 569.763 1072.62 Q544.344 1072.62 530.875 1052.57 Q517.507 1032.42 517.507 994.239 Q517.507 955.958 530.875 935.906 Q544.344 915.752 569.763 915.752 Z" fill="#000000" fill-rule="nonzero" fill-opacity="1" /><path clip-path="url(#clip190)" d="M657.972 1043.96 L679.34 1043.96 L679.34 1069.69 L657.972 1069.69 L657.972 1043.96 Z" fill="#000000" fill-rule="nonzero" fill-opacity="1" /><path clip-path="url(#clip190)" d="M724.103 918.487 L804.412 918.487 L804.412 935.703 L742.838 935.703 L742.838 972.769 Q747.294 971.25 751.75 970.541 Q756.206 969.731 760.662 969.731 Q785.98 969.731 800.766 983.605 Q815.552 997.479 815.552 1021.18 Q815.552 1045.58 800.361 1059.15 Q785.17 1072.62 757.523 1072.62 Q748.003 1072.62 738.078 1071 Q728.255 1069.38 717.723 1066.14 L717.723 1045.58 Q726.837 1050.55 736.559 1052.98 Q746.281 1055.41 757.118 1055.41 Q774.638 1055.41 784.866 1046.19 Q795.095 1036.98 795.095 1021.18 Q795.095 1005.38 784.866 996.163 Q774.638 986.947 757.118 986.947 Q748.915 986.947 740.711 988.77 Q732.61 990.593 724.103 994.441 L724.103 918.487 Z" fill="#000000" fill-rule="nonzero" fill-opacity="1" /><path clip-path="url(#clip190)" d="M565.409 379.825 Q549.61 379.825 541.609 395.421 Q533.71 410.916 533.71 442.108 Q533.71 473.198 541.609 488.794 Q549.61 504.289 565.409 504.289 Q581.308 504.289 589.208 488.794 Q597.208 473.198 597.208 442.108 Q597.208 410.916 589.208 395.421 Q581.308 379.825 565.409 379.825 M565.409 363.621 Q590.828 363.621 604.196 383.775 Q617.665 403.827 617.665 442.108 Q617.665 480.287 604.196 500.441 Q590.828 520.493 565.409 520.493 Q539.989 520.493 526.52 500.441 Q513.152 480.287 513.152 442.108 Q513.152 403.827 526.52 383.775 Q539.989 363.621 565.409 363.621 Z" fill="#000000" fill-rule="nonzero" fill-opacity="1" /><path clip-path="url(#clip190)" d="M653.617 491.832 L674.986 491.832 L674.986 517.556 L653.617 517.556 L653.617 491.832 Z" fill="#000000" fill-rule="nonzero" fill-opacity="1" /><path clip-path="url(#clip190)" d="M763.295 379.825 Q747.497 379.825 739.496 395.421 Q731.597 410.916 731.597 442.108 Q731.597 473.198 739.496 488.794 Q747.497 504.289 763.295 504.289 Q779.195 504.289 787.094 488.794 Q795.095 473.198 795.095 442.108 Q795.095 410.916 787.094 395.421 Q779.195 379.825 763.295 379.825 M763.295 363.621 Q788.715 363.621 802.083 383.775 Q815.552 403.827 815.552 442.108 Q815.552 480.287 802.083 500.441 Q788.715 520.493 763.295 520.493 Q737.876 520.493 724.407 500.441 Q711.039 480.287 711.039 442.108 Q711.039 403.827 724.407 383.775 Q737.876 363.621 763.295 363.621 Z" fill="#000000" fill-rule="nonzero" fill-opacity="1" /><path clip-path="url(#clip190)" d="M230.312 2278.57 L79.1124 2336.29 L79.1124 2314.92 L206.412 2267.02 L79.1124 2219.02 L79.1124 2197.75 L230.312 2255.38 L230.312 2278.57 Z" fill="#000000" fill-rule="nonzero" fill-opacity="1" /><path clip-path="url(#clip190)" d="M264.745 2090.3 L279.227 2090.3 L279.227 2198.06 L264.745 2198.06 L264.745 2090.3 Z" fill="#000000" fill-rule="nonzero" fill-opacity="1" /><path clip-path="url(#clip190)" d="M213.299 2054.75 L273.455 2054.75 L273.455 2073.49 L116.887 2073.49 L116.887 2054.75 L134.103 2054.75 Q123.976 2048.88 119.115 2039.97 Q114.153 2030.96 114.153 2018.5 Q114.153 1997.84 130.559 1984.98 Q146.965 1972.02 173.701 1972.02 Q200.437 1972.02 216.843 1984.98 Q233.249 1997.84 233.249 2018.5 Q233.249 2030.96 228.388 2039.97 Q223.426 2048.88 213.299 2054.75 M173.701 1991.36 Q153.143 1991.36 141.496 1999.87 Q129.749 2008.27 129.749 2023.06 Q129.749 2037.84 141.496 2046.35 Q153.143 2054.75 173.701 2054.75 Q194.259 2054.75 206.007 2046.35 Q217.653 2037.84 217.653 2023.06 Q217.653 2008.27 206.007 1999.87 Q194.259 1991.36 173.701 1991.36 Z" fill="#000000" fill-rule="nonzero" fill-opacity="1" /><path clip-path="url(#clip190)" d="M168.941 1844.11 L178.056 1844.11 L178.056 1929.78 Q197.298 1928.57 207.425 1918.24 Q217.451 1907.81 217.451 1889.28 Q217.451 1878.54 214.818 1868.51 Q212.185 1858.39 206.918 1848.46 L224.54 1848.46 Q228.793 1858.49 231.021 1869.02 Q233.249 1879.55 233.249 1890.39 Q233.249 1917.53 217.451 1933.43 Q201.652 1949.23 174.714 1949.23 Q146.864 1949.23 130.559 1934.24 Q114.153 1919.15 114.153 1893.63 Q114.153 1870.74 128.939 1857.48 Q143.623 1844.11 168.941 1844.11 M163.473 1862.74 Q148.18 1862.94 139.066 1871.35 Q129.951 1879.65 129.951 1893.43 Q129.951 1909.02 138.762 1918.44 Q147.573 1927.76 163.574 1929.18 L163.473 1862.74 Z" fill="#000000" fill-rule="nonzero" fill-opacity="1" /><path clip-path="url(#clip190)" d="M72.9348 1702.83 Q96.2275 1716.4 119.014 1722.99 Q141.8 1729.57 165.194 1729.57 Q188.588 1729.57 211.577 1722.99 Q234.465 1716.3 257.656 1702.83 L257.656 1719.04 Q233.857 1734.23 210.868 1741.82 Q187.879 1749.32 165.194 1749.32 Q142.61 1749.32 119.723 1741.82 Q96.8351 1734.33 72.9348 1719.04 L72.9348 1702.83 Z" fill="#000000" fill-rule="nonzero" fill-opacity="1" /><path clip-path="url(#clip190)" d="M213.299 1648.65 L273.455 1648.65 L273.455 1667.39 L116.887 1667.39 L116.887 1648.65 L134.103 1648.65 Q123.976 1642.78 119.115 1633.87 Q114.153 1624.85 114.153 1612.4 Q114.153 1591.74 130.559 1578.87 Q146.965 1565.91 173.701 1565.91 Q200.437 1565.91 216.843 1578.87 Q233.249 1591.74 233.249 1612.4 Q233.249 1624.85 228.388 1633.87 Q223.426 1642.78 213.299 1648.65 M173.701 1585.25 Q153.143 1585.25 141.496 1593.76 Q129.749 1602.17 129.749 1616.95 Q129.749 1631.74 141.496 1640.25 Q153.143 1648.65 173.701 1648.65 Q194.259 1648.65 206.007 1640.25 Q217.653 1631.74 217.653 1616.95 Q217.653 1602.17 206.007 1593.76 Q194.259 1585.25 173.701 1585.25 Z" fill="#000000" fill-rule="nonzero" fill-opacity="1" /><path clip-path="url(#clip190)" d="M204.589 1532.39 L204.589 1511.02 L230.312 1511.02 L230.312 1532.39 L204.589 1532.39 Z" fill="#000000" fill-rule="nonzero" fill-opacity="1" /><path clip-path="url(#clip190)" d="M185.55 1471.02 L116.887 1471.02 L116.887 1452.39 L184.841 1452.39 Q200.943 1452.39 209.045 1446.11 Q217.046 1439.83 217.046 1427.27 Q217.046 1412.18 207.425 1403.47 Q197.804 1394.66 181.195 1394.66 L116.887 1394.66 L116.887 1376.03 L230.312 1376.03 L230.312 1394.66 L212.894 1394.66 Q223.223 1401.45 228.287 1410.46 Q233.249 1419.37 233.249 1431.22 Q233.249 1450.76 221.097 1460.89 Q208.944 1471.02 185.55 1471.02 M114.153 1424.13 L114.153 1424.13 Z" fill="#000000" fill-rule="nonzero" fill-opacity="1" /><path clip-path="url(#clip190)" d="M204.589 1335.01 L204.589 1313.64 L230.312 1313.64 L230.312 1335.01 L204.589 1335.01 Z" fill="#000000" fill-rule="nonzero" fill-opacity="1" /><path clip-path="url(#clip190)" d="M145.446 1203.15 L145.446 1181.78 L171.169 1181.78 L171.169 1203.15 L145.446 1203.15 Z" fill="#000000" fill-rule="nonzero" fill-opacity="1" /><path clip-path="url(#clip190)" d="M134.306 1008.2 Q132.483 1011.34 131.673 1015.09 Q130.761 1018.74 130.761 1023.19 Q130.761 1038.99 141.091 1047.5 Q151.32 1055.9 170.562 1055.9 L230.312 1055.9 L230.312 1074.64 L116.887 1074.64 L116.887 1055.9 L134.509 1055.9 Q124.179 1050.03 119.216 1040.61 Q114.153 1031.19 114.153 1017.72 Q114.153 1015.8 114.457 1013.47 Q114.659 1011.14 115.165 1008.3 L134.306 1008.2 Z" fill="#000000" fill-rule="nonzero" fill-opacity="1" /><path clip-path="url(#clip190)" d="M173.296 937.11 Q173.296 959.694 178.461 968.404 Q183.626 977.113 196.082 977.113 Q206.007 977.113 211.881 970.632 Q217.653 964.049 217.653 952.808 Q217.653 937.313 206.716 927.996 Q195.677 918.577 177.448 918.577 L173.296 918.577 L173.296 937.11 M165.599 899.943 L230.312 899.943 L230.312 918.577 L213.096 918.577 Q223.426 924.958 228.388 934.477 Q233.249 943.997 233.249 957.77 Q233.249 975.189 223.527 985.519 Q213.704 995.747 197.298 995.747 Q178.157 995.747 168.435 982.987 Q158.713 970.125 158.713 944.706 L158.713 918.577 L156.89 918.577 Q144.028 918.577 137.04 927.084 Q129.951 935.49 129.951 950.782 Q129.951 960.504 132.281 969.72 Q134.61 978.936 139.268 987.443 L122.052 987.443 Q118.102 977.214 116.178 967.593 Q114.153 957.972 114.153 948.858 Q114.153 924.249 126.913 912.096 Q139.673 899.943 165.599 899.943 Z" fill="#000000" fill-rule="nonzero" fill-opacity="1" /><path clip-path="url(#clip190)" d="M134.103 786.923 L72.7323 786.923 L72.7323 768.289 L230.312 768.289 L230.312 786.923 L213.299 786.923 Q223.426 792.797 228.388 801.81 Q233.249 810.722 233.249 823.28 Q233.249 843.838 216.843 856.801 Q200.437 869.663 173.701 869.663 Q146.965 869.663 130.559 856.801 Q114.153 843.838 114.153 823.28 Q114.153 810.722 119.115 801.81 Q123.976 792.797 134.103 786.923 M173.701 850.421 Q194.259 850.421 206.007 842.015 Q217.653 833.508 217.653 818.723 Q217.653 803.937 206.007 795.43 Q194.259 786.923 173.701 786.923 Q153.143 786.923 141.496 795.43 Q129.749 803.937 129.749 818.723 Q129.749 833.508 141.496 842.015 Q153.143 850.421 173.701 850.421 Z" fill="#000000" fill-rule="nonzero" fill-opacity="1" /><path clip-path="url(#clip190)" d="M72.9348 732.843 L72.9348 716.64 Q96.8351 701.449 119.723 693.955 Q142.61 686.359 165.194 686.359 Q187.879 686.359 210.868 693.955 Q233.857 701.449 257.656 716.64 L257.656 732.843 Q234.465 719.374 211.577 712.791 Q188.588 706.107 165.194 706.107 Q141.8 706.107 119.014 712.791 Q96.2275 719.374 72.9348 732.843 Z" fill="#000000" fill-rule="nonzero" fill-opacity="1" /><path clip-path="url(#clip190)" d="M2095.99 207.36 L2030.02 34.56 L2054.44 34.56 L2109.19 180.045 L2164.05 34.56 L2188.35 34.56 L2122.5 207.36 L2095.99 207.36 Z" fill="#000000" fill-rule="nonzero" fill-opacity="1" /><path clip-path="url(#clip190)" d="M2233.26 187.916 L2233.26 256.665 L2211.85 256.665 L2211.85 77.7311 L2233.26 77.7311 L2233.26 97.4069 Q2239.97 85.8329 2250.16 80.2773 Q2260.46 74.6061 2274.7 74.6061 Q2298.31 74.6061 2313.01 93.356 Q2327.82 112.106 2327.82 142.661 Q2327.82 173.217 2313.01 191.967 Q2298.31 210.716 2274.7 210.716 Q2260.46 210.716 2250.16 205.161 Q2239.97 199.49 2233.26 187.916 M2305.71 142.661 Q2305.71 119.166 2295.99 105.856 Q2286.39 92.4301 2269.49 92.4301 Q2252.59 92.4301 2242.87 105.856 Q2233.26 119.166 2233.26 142.661 Q2233.26 166.157 2242.87 179.582 Q2252.59 192.892 2269.49 192.892 Q2286.39 192.892 2295.99 179.582 Q2305.71 166.157 2305.71 142.661 Z" fill="#000000" fill-rule="nonzero" fill-opacity="1" /><path clip-path="url(#clip190)" d="M2474 137.221 L2474 147.638 L2376.08 147.638 Q2377.47 169.629 2389.28 181.203 Q2401.2 192.661 2422.38 192.661 Q2434.65 192.661 2446.11 189.652 Q2457.68 186.643 2469.02 180.624 L2469.02 200.763 Q2457.56 205.624 2445.53 208.17 Q2433.49 210.716 2421.11 210.716 Q2390.09 210.716 2371.92 192.661 Q2353.86 174.606 2353.86 143.819 Q2353.86 111.99 2370.99 93.356 Q2388.24 74.6061 2417.4 74.6061 Q2443.56 74.6061 2458.72 91.5041 Q2474 108.286 2474 137.221 M2452.7 130.972 Q2452.47 113.495 2442.87 103.078 Q2433.38 92.6615 2417.63 92.6615 Q2399.81 92.6615 2389.05 102.731 Q2378.4 112.8 2376.78 131.087 L2452.7 130.972 Z" fill="#000000" fill-rule="nonzero" fill-opacity="1" /><path clip-path="url(#clip190)" d="M2569.02 77.7311 L2591.59 77.7311 L2632.1 186.527 L2672.61 77.7311 L2695.18 77.7311 L2646.57 207.36 L2617.63 207.36 L2569.02 77.7311 Z" fill="#000000" fill-rule="nonzero" fill-opacity="1" /><path clip-path="url(#clip190)" d="M2807.22 81.5505 L2807.22 101.689 Q2798.19 97.0597 2788.47 94.7449 Q2778.74 92.4301 2768.33 92.4301 Q2752.47 92.4301 2744.48 97.2911 Q2736.61 102.152 2736.61 111.874 Q2736.61 119.282 2742.29 123.564 Q2747.96 127.731 2765.09 131.55 L2772.38 133.171 Q2795.06 138.032 2804.55 146.944 Q2814.16 155.74 2814.16 171.596 Q2814.16 189.652 2799.81 200.184 Q2785.57 210.716 2760.57 210.716 Q2750.16 210.716 2738.81 208.633 Q2727.59 206.666 2715.09 202.615 L2715.09 180.624 Q2726.89 186.758 2738.35 189.883 Q2749.81 192.892 2761.04 192.892 Q2776.08 192.892 2784.18 187.8 Q2792.29 182.592 2792.29 173.217 Q2792.29 164.536 2786.38 159.907 Q2780.6 155.277 2760.8 150.995 L2753.4 149.258 Q2733.6 145.092 2724.81 136.527 Q2716.01 127.847 2716.01 112.8 Q2716.01 94.5134 2728.98 84.5597 Q2741.94 74.6061 2765.78 74.6061 Q2777.59 74.6061 2788 76.3422 Q2798.42 78.0783 2807.22 81.5505 Z" fill="#000000" fill-rule="nonzero" fill-opacity="1" /><path clip-path="url(#clip190)" d="M2900.39 34.56 L3046.57 34.56 L3046.57 54.2358 L2985.22 54.2358 L2985.22 207.36 L2961.73 207.36 L2961.73 54.2358 L2900.39 54.2358 L2900.39 34.56 Z" fill="#000000" fill-rule="nonzero" fill-opacity="1" /><path clip-path="url(#clip190)" d="M3060.92 77.7311 L3082.21 77.7311 L3082.21 207.36 L3060.92 207.36 L3060.92 77.7311 M3060.92 27.2684 L3082.21 27.2684 L3082.21 54.2358 L3060.92 54.2358 L3060.92 27.2684 Z" fill="#000000" fill-rule="nonzero" fill-opacity="1" /><path clip-path="url(#clip190)" d="M3227.7 102.615 Q3235.69 88.2634 3246.8 81.4347 Q3257.91 74.6061 3272.95 74.6061 Q3293.21 74.6061 3304.2 88.8421 Q3315.2 102.962 3315.2 129.12 L3315.2 207.36 L3293.79 207.36 L3293.79 129.814 Q3293.79 111.18 3287.19 102.152 Q3280.59 93.1245 3267.05 93.1245 Q3250.5 93.1245 3240.89 104.12 Q3231.29 115.115 3231.29 134.097 L3231.29 207.36 L3209.88 207.36 L3209.88 129.814 Q3209.88 111.064 3203.28 102.152 Q3196.68 93.1245 3182.91 93.1245 Q3166.59 93.1245 3156.98 104.236 Q3147.38 115.231 3147.38 134.097 L3147.38 207.36 L3125.96 207.36 L3125.96 77.7311 L3147.38 77.7311 L3147.38 97.8698 Q3154.67 85.9486 3164.85 80.2773 Q3175.04 74.6061 3189.04 74.6061 Q3203.16 74.6061 3213 81.782 Q3222.95 88.9579 3227.7 102.615 Z" fill="#000000" fill-rule="nonzero" fill-opacity="1" /><path clip-path="url(#clip190)" d="M3468.55 137.221 L3468.55 147.638 L3370.64 147.638 Q3372.03 169.629 3383.83 181.203 Q3395.75 192.661 3416.93 192.661 Q3429.2 192.661 3440.66 189.652 Q3452.24 186.643 3463.58 180.624 L3463.58 200.763 Q3452.12 205.624 3440.08 208.17 Q3428.05 210.716 3415.66 210.716 Q3384.64 210.716 3366.47 192.661 Q3348.42 174.606 3348.42 143.819 Q3348.42 111.99 3365.55 93.356 Q3382.79 74.6061 3411.96 74.6061 Q3438.12 74.6061 3453.28 91.5041 Q3468.55 108.286 3468.55 137.221 M3447.26 130.972 Q3447.03 113.495 3437.42 103.078 Q3427.93 92.6615 3412.19 92.6615 Q3394.37 92.6615 3383.6 102.731 Q3372.95 112.8 3371.33 131.087 L3447.26 130.972 Z" fill="#000000" fill-rule="nonzero" fill-opacity="1" /><polyline clip-path="url(#clip192)" style="stroke:#009af9; stroke-linecap:round; stroke-linejoin:round; stroke-width:12; stroke-opacity:1; fill:none" points="992.933,441.956 999.973,443.053 1007.01,445.235 1014.05,448.483 1021.09,452.763 1028.13,458.034 1035.17,464.245 1042.21,471.337 1049.25,479.243 1056.29,487.89 1063.33,497.202 1070.37,507.096 1077.41,517.49 1084.45,528.3 1091.49,539.445 1098.53,550.844 1105.57,562.424 1112.6,574.115 1119.64,585.856 1126.68,597.593 1133.72,609.281 1140.76,620.886 1147.8,632.381 1154.84,643.753 1161.88,654.996 1168.92,666.115 1175.96,677.125 1183,688.048 1190.04,698.917 1197.08,709.77 1204.12,720.653 1204.12,711.305 1211.16,682.66 1218.2,655.336 1225.24,629.465 1232.28,605.138 1239.32,582.42 1246.36,561.353 1253.39,541.968 1260.43,524.286 1267.47,508.322 1274.51,494.085 1281.55,481.583 1288.59,470.816 1295.63,461.779 1302.67,454.461 1309.71,448.84 1316.75,444.888 1323.79,442.563 1330.83,441.819 1337.87,442.595 1344.91,444.826 1351.95,448.441 1358.99,453.363 1366.03,459.517 1373.07,466.827 1380.11,475.221 1387.15,484.633 1394.18,495.007 1401.22,506.295 1408.26,518.457 1415.3,531.468 1422.34,545.31 1429.38,559.974 1436.42,575.457 1443.46,591.761 1450.5,608.883 1457.54,626.818 1464.58,645.546 1471.62,665.03 1478.66,685.204 1485.7,705.972 1492.74,727.196 1499.78,748.693 1506.82,770.23 1513.86,791.526 1520.9,812.25 1527.93,832.03 1534.97,850.464 1542.01,867.131 1549.05,881.608 1556.09,893.49 1563.13,902.409 1570.17,908.048 1577.21,910.156 1584.25,908.566 1591.29,903.195 1598.33,894.049 1605.37,881.226 1612.41,864.91 1619.45,845.362 1626.49,822.915 1633.53,797.962 1640.57,770.946 1647.61,742.345 1654.65,712.666 1661.69,682.428 1668.72,652.156 1675.76,622.363 1682.8,593.546 1689.84,566.174 1696.88,540.683 1703.92,517.467 1710.96,496.876 1718,479.214 1725.04,464.74 1732.08,453.663 1739.12,446.15 1746.16,442.323 1753.2,442.264 1760.24,446.017 1767.28,453.584 1774.32,464.929 1781.36,479.974 1788.4,498.595 1795.44,520.618 1802.48,545.813 1809.51,573.889 1816.55,604.488 1823.59,637.179 1830.63,671.46 1837.67,706.759 1844.71,742.439 1851.75,777.811 1858.79,812.153 1865.83,844.731 1872.87,874.825 1879.91,901.76 1886.95,924.936 1893.99,943.848 1901.03,958.118 1908.07,967.498 1915.11,971.887 1922.15,971.322 1929.19,965.972 1936.23,956.123 1943.27,942.155 1950.3,924.526 1957.34,903.74 1964.38,880.336 1971.42,854.859 1978.46,827.848 1985.5,799.821 1992.54,771.26 1999.58,742.61 2006.62,714.268 2013.66,686.58 2020.7,659.841 2027.74,634.295 2034.78,610.136 2041.82,587.511 2048.86,566.524 2055.9,547.24 2062.94,529.691 2069.98,513.879 2077.02,499.785 2084.06,487.37 2091.09,476.585 2098.13,467.371 2105.17,459.668 2112.21,453.413 2119.25,448.55 2126.29,445.03 2133.33,442.81 2140.37,441.86 2147.41,442.161 2154.45,443.706 2161.49,446.502 2168.53,450.567 2175.57,455.93 2182.61,462.632 2189.65,470.72 2196.69,480.247 2203.73,491.269 2210.77,503.842 2217.81,518.013 2224.85,533.821 2231.88,551.288 2238.92,570.414 2245.96,591.172 2253,613.5 2260.04,637.299 2267.08,662.423 2274.12,688.68 2281.16,715.827 2288.2,743.568 2295.24,771.556 2302.28,799.393 2309.32,826.639 2316.36,852.814 2323.4,877.411 2330.44,899.906 2337.48,919.777 2344.52,936.511 2351.56,949.635 2358.6,958.725 2365.64,963.434 2372.67,963.505 2379.71,958.792 2386.75,949.271 2393.79,935.047 2400.83,916.357 2407.87,893.561 2414.91,867.136 2421.95,837.648 2428.99,805.737 2436.03,772.089 2443.07,737.407 2450.11,702.389 2457.15,667.706 2464.19,633.984 2471.23,601.79 2478.27,571.627 2485.31,543.93 2492.35,519.064 2499.39,497.329 2506.43,478.964 2513.46,464.154 2520.5,453.032 2527.54,445.684 2534.58,442.158 2541.62,442.457 2548.66,446.548 2555.7,454.359 2562.74,465.773 2569.78,480.634 2576.82,498.737 2583.86,519.83 2590.9,543.611 2597.94,569.728 2604.98,597.78 2612.02,627.322 2619.06,657.87 2626.1,688.906 2633.14,719.893 2640.18,750.281 2647.22,779.524 2654.25,807.089 2661.29,832.473 2668.33,855.215 2675.37,874.907 2682.41,891.21 2689.45,903.858 2696.49,912.671 2703.53,917.56 2710.57,918.526 2717.61,915.664 2724.65,909.156 2731.69,899.265 2738.73,886.319 2745.77,870.703 2752.81,852.834 2759.85,833.152 2766.89,812.093 2773.93,790.082 2780.97,767.51 2788,744.731 2795.04,722.051 2802.08,699.725 2809.12,677.957 2816.16,656.906 2823.2,636.684 2830.24,617.367 2837.28,599.003 2844.32,581.615 2851.36,565.21 2858.4,549.785 2865.44,535.332 2872.48,521.843 2879.52,509.314 2886.56,497.748 2893.6,487.156 2900.64,477.558 2907.68,468.985 2914.72,461.478 2921.76,455.087 2928.79,449.87 2935.83,445.892 2942.87,443.222 2949.91,441.932 2956.95,442.093 2963.99,443.774 2971.03,447.039 2978.07,451.948 2985.11,458.552 2992.15,466.891 2999.19,476.999 3006.23,488.897 3013.27,502.599 3020.31,518.107 3027.35,535.414 3034.39,554.501 3041.43,575.337 3048.47,597.88 3055.51,622.067 3062.55,647.815 3069.58,675.01 3076.62,703.505 3083.66,733.103 3090.7,763.552 3097.74,794.533 3104.78,825.651 3111.82,856.428 3118.86,886.298 3125.9,914.62 3132.94,940.681 3139.98,963.729 3147.02,983.003 3154.06,997.777 3161.1,1007.41 3168.14,1011.39 3175.18,1009.4 3182.22,1001.32 3189.26,987.244 3196.3,967.517 3203.34,942.67 3210.37,913.399 3217.41,880.517 3224.45,844.906 3231.49,807.465 3238.53,769.071 3245.57,730.547 3252.61,692.639 3259.65,656.004 3266.69,621.207 3273.73,588.72 3280.77,558.929 3287.81,532.143 3294.85,508.6 3301.89,488.476 3308.93,471.895 3315.97,458.929 3323.01,449.61 3330.05,443.928 3337.09,441.833 3344.13,443.241 3351.16,448.028 3358.2,456.036 3365.24,467.073 3372.28,480.911 3379.32,497.297 3386.36,515.947 3393.4,536.556 3400.44,558.798 3407.48,582.335 3414.52,606.813 3421.56,631.872 3428.6,657.142 3435.64,682.252 3442.68,706.825 3449.72,730.489 3456.76,752.874 3463.8,773.623 3470.84,792.401 3477.88,808.905 3484.92,822.875 3491.95,834.112 3498.99,842.488 3506.03,847.955 3513.07,850.555 3520.11,850.415 3527.15,847.739 3534.19,842.796 3541.23,835.9 3548.27,827.383 3555.31,817.577 3562.35,806.791 3569.39,795.296 3576.43,783.312 3583.47,771.004 3590.51,758.487 3597.55,745.822 3604.59,733.029 3611.63,720.098 3618.67,706.993 3625.71,693.668 3632.74,680.075 3639.78,666.171 3646.82,651.93 3653.86,637.348 3660.9,622.448 3667.94,607.282 3674.98,591.936 3682.02,576.526 3689.06,561.196 3696.1,546.111 3703.14,531.456 3710.18,517.418 3717.22,504.187 3724.26,491.94 3731.3,480.835 3738.34,471.005 3745.38,462.55 3752.42,455.534 3759.46,449.988 3766.5,445.906 3773.53,443.254 3780.57,441.971 3787.61,441.978 3794.65,443.185 3801.69,445.497 3808.73,448.822 3815.77,453.076 3822.81,458.188 3829.85,464.105 3836.89,470.795 3843.93,478.248 3850.97,486.48 3858.01,495.529 3865.05,505.462 3872.09,516.367 3879.13,528.358 3886.17,541.57 3893.21,556.153 3900.25,572.273 3907.29,590.096 3914.32,609.782 3921.36,631.468 3928.4,655.246 3935.44,681.139 3942.48,709.071 3949.52,738.838 3956.56,770.077 3963.6,802.244 3970.64,834.605 3977.68,866.248 3984.72,896.118 3991.76,923.082 3998.8,946.008 4005.84,963.87 4012.88,975.834 4019.92,981.342 4026.96,980.153 4034,972.352 4041.04,958.326 4048.08,938.704 4055.11,914.291 4062.15,885.99 4069.19,854.737 4076.23,821.445 4083.27,786.97 4090.31,752.084 4097.35,717.465 4104.39,683.693 4111.43,651.254 4118.47,620.541 4125.51,591.868 4132.55,565.471 4139.59,541.521 4146.63,520.132 4153.67,501.365 4160.71,485.244 4167.75,471.758 4174.79,460.87 4181.83,452.52 4188.86,446.629 4195.9,443.101 4202.94,441.827 4209.98,442.685 4217.02,445.544 4224.06,450.266 4231.1,456.709 4238.14,464.728 4245.18,474.177 4252.22,484.911 4259.26,496.786 4266.3,509.655 4273.34,523.366 4280.38,537.762 4287.42,552.674 4294.46,567.922 4301.5,583.31 4308.54,598.63 4315.58,613.664 4322.62,628.187 4329.65,641.987 4336.69,654.867 4343.73,666.673 4350.77,677.299 4357.81,686.707 4364.85,694.933 4371.89,702.083 4378.93,708.325 4385.97,713.867 4393.01,718.936 4400.05,723.75 4407.09,728.493 4414.13,733.297 4421.17,738.231 4428.21,743.293 4435.25,748.412 4442.29,753.452 4449.33,758.218 4456.37,762.465 4463.41,765.911 4470.44,768.245 4477.48,769.143 4484.52,768.285 4491.56,765.374 4498.6,760.16 4505.64,752.457 "/>
<polyline clip-path="url(#clip192)" style="stroke:#e26f46; stroke-linecap:round; stroke-linejoin:round; stroke-width:12; stroke-opacity:1; fill:none" points="992.933,441.956 999.973,443.028 1007.01,445.172 1014.05,448.389 1021.09,452.677 1028.13,458.036 1035.17,464.466 1042.21,471.965 1049.25,480.531 1056.29,490.163 1063.33,500.858 1070.37,512.61 1077.41,525.416 1084.45,539.269 1091.49,554.162 1098.53,570.087 1105.57,587.033 1112.6,604.99 1119.64,623.944 1126.68,643.883 1133.72,664.791 1140.76,686.653 1147.8,709.451 1154.84,733.168 1161.88,757.785 1168.92,783.285 1175.96,809.647 1183,836.853 1190.04,864.883 1197.08,893.718 1204.12,923.34 1204.12,935.164 1211.16,927.716 1218.2,918.443 1225.24,907.148 1232.28,893.67 1239.32,877.882 1246.36,859.706 1253.39,839.117 1260.43,816.155 1267.47,790.934 1274.51,763.649 1281.55,734.579 1288.59,704.094 1295.63,672.645 1302.67,640.766 1309.71,609.055 1316.75,578.165 1323.79,548.786 1330.83,521.621 1337.87,497.376 1344.91,476.735 1351.95,460.347 1358.99,448.819 1366.03,442.701 1373.07,442.484 1380.11,448.601 1387.15,461.422 1394.18,481.26 1401.22,508.365 1408.26,542.929 1415.3,585.076 1422.34,634.855 1429.38,692.225 1436.42,757.04 1443.46,829.017 1450.5,907.717 1457.54,992.507 1464.58,1082.54 1471.62,1176.71 1478.66,1273.67 1485.7,1371.78 1492.74,1469.17 1499.78,1563.74 1506.82,1653.24 1513.86,1735.32 1520.9,1807.67 1527.93,1868.12 1534.97,1914.75 1542.01,1946.01 1549.05,1960.8 1556.09,1958.57 1563.13,1939.31 1570.17,1903.59 1577.21,1852.49 1584.25,1787.54 1591.29,1710.65 1598.33,1623.99 1605.37,1529.9 1612.41,1430.76 1619.45,1328.93 1626.49,1226.65 1633.53,1126 1640.57,1028.8 1647.61,936.647 1654.65,850.83 1661.69,772.372 1668.72,702.008 1675.76,640.21 1682.8,587.2 1689.84,542.983 1696.88,507.369 1703.92,480.015 1710.96,460.452 1718,448.121 1725.04,442.406 1732.08,442.664 1739.12,448.252 1746.16,458.548 1753.2,472.969 1760.24,490.987 1767.28,512.134 1774.32,536.01 1781.36,562.282 1788.4,590.682 1795.44,620.999 1802.48,653.078 1809.51,686.803 1816.55,722.091 1823.59,758.879 1830.63,797.107 1837.67,836.709 1844.71,877.595 1851.75,919.638 1858.79,962.657 1865.83,1006.41 1872.87,1050.59 1879.91,1094.79 1886.95,1138.54 1893.99,1181.3 1901.03,1222.45 1908.07,1261.32 1915.11,1297.22 1922.15,1329.44 1929.19,1357.29 1936.23,1380.11 1943.27,1397.34 1950.3,1408.46 1957.34,1413.1 1964.38,1410.98 1971.42,1401.96 1978.46,1386.06 1985.5,1363.39 1992.54,1334.24 1999.58,1299 2006.62,1258.19 2013.66,1212.45 2020.7,1162.5 2027.74,1109.13 2034.78,1053.2 2041.82,995.589 2048.86,937.204 2055.9,878.939 2062.94,821.661 2069.98,766.193 2077.02,713.302 2084.06,663.685 2091.09,617.964 2098.13,576.684 2105.17,540.308 2112.21,509.227 2119.25,483.758 2126.29,464.153 2133.33,450.602 2140.37,443.243 2147.41,442.162 2154.45,447.398 2161.49,458.941 2168.53,476.733 2175.57,500.663 2182.61,530.563 2189.65,566.199 2196.69,607.265 2203.73,653.375 2210.77,704.055 2217.81,758.741 2224.85,816.774 2231.88,877.405 2238.92,939.796 2245.96,1003.04 2253,1066.15 2260.04,1128.13 2267.08,1187.94 2274.12,1244.56 2281.16,1297 2288.2,1344.33 2295.24,1385.72 2302.28,1420.44 2309.32,1447.91 2316.36,1467.69 2323.4,1479.5 2330.44,1483.25 2337.48,1479.01 2344.52,1467.02 2351.56,1447.7 2358.6,1421.58 2365.64,1389.34 2372.67,1351.75 2379.71,1309.65 2386.75,1263.91 2393.79,1215.42 2400.83,1165.02 2407.87,1113.54 2414.91,1061.7 2421.95,1010.15 2428.99,959.456 2436.03,910.062 2443.07,862.332 2450.11,816.54 2457.15,772.883 2464.19,731.499 2471.23,692.479 2478.27,655.886 2485.31,621.766 2492.35,590.168 2499.39,561.155 2506.43,534.816 2513.46,511.276 2520.5,490.703 2527.54,473.319 2534.58,459.396 2541.62,449.264 2548.66,443.302 2555.7,441.94 2562.74,445.642 2569.78,454.899 2576.82,470.207 2583.86,492.046 2590.9,520.856 2597.94,557.009 2604.98,600.779 2612.02,652.307 2619.06,711.574 2626.1,778.371 2633.14,852.272 2640.18,932.614 2647.22,1018.49 2654.25,1108.73 2661.29,1201.92 2668.33,1296.42 2675.37,1390.39 2682.41,1481.83 2689.45,1568.65 2696.49,1648.71 2703.53,1719.96 2710.57,1780.44 2717.61,1828.46 2724.65,1862.62 2731.69,1881.9 2738.73,1885.75 2745.77,1874.06 2752.81,1847.24 2759.85,1806.14 2766.89,1752.03 2773.93,1686.54 2780.97,1611.55 2788,1529.08 2795.04,1441.23 2802.08,1350.08 2809.12,1257.57 2816.16,1165.51 2823.2,1075.49 2830.24,988.865 2837.28,906.773 2844.32,830.117 2851.36,759.594 2858.4,695.718 2865.44,638.841 2872.48,589.18 2879.52,546.843 2886.56,511.84 2893.6,484.107 2900.64,463.512 2907.68,449.861 2914.72,442.906 2921.76,442.341 2928.79,447.802 2935.83,458.87 2942.87,475.068 2949.91,495.864 2956.95,520.673 2963.99,548.87 2971.03,579.797 2978.07,612.775 2985.11,647.125 2992.15,682.182 2999.19,717.313 3006.23,751.929 3013.27,785.507 3020.31,817.589 3027.35,847.8 3034.39,875.84 3041.43,901.491 3048.47,924.609 3055.51,945.121 3062.55,963.014 3069.58,978.332 3076.62,991.166 3083.66,1001.65 3090.7,1009.94 3097.74,1016.24 3104.78,1020.78 3111.82,1023.78 3118.86,1025.52 3125.9,1026.26 3132.94,1026.27 3139.98,1025.83 3147.02,1025.16 3154.06,1024.51 3161.1,1024.04 3168.14,1023.89 3175.18,1024.11 3182.22,1024.7 3189.26,1025.56 3196.3,1026.53 3203.34,1027.37 3210.37,1027.77 3217.41,1027.36 3224.45,1025.73 3231.49,1022.43 3238.53,1016.99 3245.57,1008.94 3252.61,997.839 3259.65,983.262 3266.69,964.846 3273.73,942.314 3280.77,915.494 3287.81,884.36 3294.85,849.058 3301.89,809.938 3308.93,767.58 3315.97,722.808 3323.01,676.692 3330.05,630.532 3337.09,585.827 3344.13,544.227 3351.16,507.473 3358.2,477.328 3365.24,455.506 3372.28,443.609 3379.32,443.065 3386.36,455.083 3393.4,480.619 3400.44,520.348 3407.48,574.648 3414.52,643.585 3421.56,726.898 3428.6,823.985 3435.64,933.879 3442.68,1055.22 3449.72,1186.23 3456.76,1324.7 3463.8,1467.92 3470.84,1612.78 3477.88,1755.72 3484.92,1892.84 3491.95,2020.06 3498.99,2133.25 3506.03,2228.51 3513.07,2302.38 3520.11,2352.16 3527.15,2376.07 3534.19,2373.45 3541.23,2344.83 3548.27,2291.82 3555.31,2217.05 3562.35,2123.86 3569.39,2016.05 3576.43,1897.59 3583.47,1772.35 3590.51,1643.92 3597.55,1515.42 3604.59,1389.5 3611.63,1268.28 3618.67,1153.36 3625.71,1045.94 3632.74,946.829 3639.78,856.544 3646.82,775.379 3653.86,703.457 3660.9,640.771 3667.94,587.218 3674.98,542.616 3682.02,506.71 3689.06,479.169 3696.1,459.582 3703.14,447.45 3710.18,442.174 3717.22,443.059 3724.26,449.31 3731.3,460.055 3738.34,474.355 3745.38,491.243 3752.42,509.753 3759.46,528.956 3766.5,548.002 3773.53,566.143 3780.57,582.762 3787.61,597.387 3794.65,609.69 3801.69,619.488 3808.73,626.725 3815.77,631.458 3822.81,633.829 3829.85,634.051 3836.89,632.379 3843.93,629.096 3850.97,624.494 3858.01,618.866 3865.05,612.494 3872.09,605.644 3879.13,598.566 3886.17,591.494 3893.21,584.64 3900.25,578.209 3907.29,572.39 3914.32,567.37 3921.36,563.333 3928.4,560.472 3935.44,558.991 3942.48,559.115 3949.52,561.1 3956.56,565.242 3963.6,571.881 3970.64,581.404 3977.68,594.243 3984.72,610.863 3991.76,631.732 3998.8,657.295 4005.84,687.922 4012.88,723.874 4019.92,765.253 4026.96,811.973 4034,863.745 4041.04,920.067 4048.08,980.236 4055.11,1043.36 4062.15,1108.36 4069.19,1174.02 4076.23,1238.94 4083.27,1301.56 4090.31,1360.15 4097.35,1412.81 4104.39,1457.5 4111.43,1492.08 4118.47,1514.39 4125.51,1522.44 4132.55,1514.53 4139.59,1489.53 4146.63,1447.04 4153.67,1387.57 4160.71,1312.66 4167.75,1224.8 4174.79,1127.33 4181.83,1024.2 4188.86,919.614 4195.9,817.807 4202.94,722.701 4209.98,637.731 4217.02,565.727 4224.06,508.881 4231.1,468.778 4238.14,446.481 4245.18,442.626 4252.22,457.524 4259.26,491.25 4266.3,543.698 4273.34,614.615 4280.38,703.593 4287.42,810.022 4294.46,933.018 4301.5,1071.31 4308.54,1223.1 4315.58,1385.93 4322.62,1556.55 4329.65,1730.81 4336.69,1903.69 4343.73,2069.35 4350.77,2221.47 4357.81,2353.6 4364.85,2459.73 4371.89,2534.91 4378.93,2575.77 4385.97,2580.95 4393.01,2551.24 4400.05,2489.41 4407.09,2399.82 4414.13,2287.87 4421.17,2159.38 4428.21,2020.05 4435.25,1875.06 4442.29,1728.77 4449.33,1584.72 4456.37,1445.56 4463.41,1313.2 4470.44,1188.95 4477.48,1073.65 4484.52,967.793 4491.56,871.683 4498.6,785.473 4505.64,709.239 "/>
<polyline clip-path="url(#clip192)" style="stroke:#3da44d; stroke-linecap:round; stroke-linejoin:round; stroke-width:12; stroke-opacity:1; fill:none" points="992.933,441.956 999.973,443.987 1007.01,448.008 1014.05,453.937 1021.09,461.655 1028.13,471.007 1035.17,481.805 1042.21,493.834 1049.25,506.858 1056.29,520.623 1063.33,534.866 1070.37,549.321 1077.41,563.726 1084.45,577.828 1091.49,591.392 1098.53,604.205 1105.57,616.084 1112.6,626.876 1119.64,636.462 1126.68,644.762 1133.72,651.732 1140.76,657.364 1147.8,661.684 1154.84,664.75 1161.88,666.649 1168.92,667.488 1175.96,667.397 1183,666.518 1190.04,665.005 1197.08,663.018 1204.12,660.718 1204.12,627.142 1211.16,570.508 1218.2,524.806 1225.24,489.79 1232.28,464.921 1239.32,449.434 1246.36,442.393 1253.39,442.739 1260.43,449.332 1267.47,460.983 1274.51,476.489 1281.55,494.66 1288.59,514.352 1295.63,534.494 1302.67,554.114 1309.71,572.36 1316.75,588.517 1323.79,602.022 1330.83,612.466 1337.87,619.597 1344.91,623.307 1351.95,623.628 1358.99,620.711 1366.03,614.808 1373.07,606.259 1380.11,595.466 1387.15,582.878 1394.18,568.971 1401.22,554.234 1408.26,539.151 1415.3,524.187 1422.34,509.773 1429.38,496.29 1436.42,484.059 1443.46,473.327 1450.5,464.253 1457.54,456.906 1464.58,451.255 1471.62,447.178 1478.66,444.472 1485.7,442.869 1492.74,442.067 1499.78,441.764 1506.82,441.702 1513.86,441.702 1520.9,441.703 1527.93,441.785 1534.97,442.176 1542.01,443.244 1549.05,445.466 1556.09,449.378 1563.13,455.521 1570.17,464.374 1577.21,476.293 1584.25,491.461 1591.29,509.851 1598.33,531.207 1605.37,555.047 1612.41,580.682 1619.45,607.25 1626.49,633.762 1633.53,659.163 1640.57,682.384 1647.61,702.404 1654.65,718.309 1661.69,729.337 1668.72,734.919 1675.76,734.713 1682.8,728.618 1689.84,716.786 1696.88,699.612 1703.92,677.726 1710.96,651.969 1718,623.358 1725.04,593.059 1732.08,562.337 1739.12,532.523 1746.16,504.962 1753.2,480.971 1760.24,461.788 1767.28,448.535 1774.32,442.162 1781.36,443.409 1788.4,452.763 1795.44,470.417 1802.48,496.24 1809.51,529.752 1816.55,570.108 1823.59,616.105 1830.63,666.203 1837.67,718.57 1844.71,771.154 1851.75,821.775 1858.79,868.245 1865.83,908.495 1872.87,940.709 1879.91,963.443 1886.95,975.731 1893.99,977.148 1901.03,967.831 1908.07,948.461 1915.11,920.196 1922.15,884.568 1929.19,843.368 1936.23,798.507 1943.27,751.893 1950.3,705.32 1957.34,660.372 1964.38,618.363 1971.42,580.298 1978.46,546.862 1985.5,518.426 1992.54,495.079 1999.58,476.66 2006.62,462.812 2013.66,453.025 2020.7,446.696 2027.74,443.171 2034.78,441.793 2041.82,441.938 2048.86,443.044 2055.9,444.632 2062.94,446.317 2069.98,447.813 2077.02,448.931 2084.06,449.569 2091.09,449.7 2098.13,449.358 2105.17,448.623 2112.21,447.601 2119.25,446.417 2126.29,445.192 2133.33,444.042 2140.37,443.063 2147.41,442.324 2154.45,441.867 2161.49,441.702 2168.53,441.807 2175.57,442.133 2182.61,442.605 2189.65,443.132 2196.69,443.613 2203.73,443.955 2210.77,444.079 2217.81,443.939 2224.85,443.536 2231.88,442.936 2238.92,442.278 2245.96,441.788 2253,441.782 2260.04,442.666 2267.08,444.92 2274.12,449.09 2281.16,455.749 2288.2,465.472 2295.24,478.789 2302.28,496.136 2309.32,517.812 2316.36,543.927 2323.4,574.365 2330.44,608.745 2337.48,646.405 2344.52,686.404 2351.56,727.531 2358.6,768.357 2365.64,807.289 2372.67,842.663 2379.71,872.84 2386.75,896.316 2393.79,911.832 2400.83,918.471 2407.87,915.734 2414.91,903.583 2421.95,882.454 2428.99,853.228 2436.03,817.176 2443.07,775.87 2450.11,731.087 2457.15,684.699 2464.19,638.569 2471.23,594.461 2478.27,553.959 2485.31,518.415 2492.35,488.906 2499.39,466.212 2506.43,450.814 2513.46,442.894 2520.5,442.358 2527.54,448.847 2534.58,461.776 2541.62,480.355 2548.66,503.625 2555.7,530.494 2562.74,559.774 2569.78,590.221 2576.82,620.574 2583.86,649.602 2590.9,676.143 2597.94,699.151 2604.98,717.732 2612.02,731.188 2619.06,739.038 2626.1,741.046 2633.14,737.229 2640.18,727.855 2647.22,713.427 2654.25,694.655 2661.29,672.417 2668.33,647.706 2675.37,621.575 2682.41,595.075 2689.45,569.194 2696.49,544.804 2703.53,522.613 2710.57,503.134 2717.61,486.664 2724.65,473.29 2731.69,462.898 2738.73,455.214 2745.77,449.844 2752.81,446.327 2759.85,444.194 2766.89,443.013 2773.93,442.43 2780.97,442.198 2788,442.183 2795.04,442.367 2802.08,442.827 2809.12,443.711 2816.16,445.212 2823.2,447.532 2830.24,450.859 2837.28,455.343 2844.32,461.076 2851.36,468.088 2858.4,476.334 2865.44,485.7 2872.48,496.003 2879.52,506.998 2886.56,518.389 2893.6,529.834 2900.64,540.96 2907.68,551.373 2914.72,560.672 2921.76,568.46 2928.79,574.367 2935.83,578.058 2942.87,579.259 2949.91,577.771 2956.95,573.491 2963.99,566.426 2971.03,556.716 2978.07,544.637 2985.11,530.613 2992.15,515.216 2999.19,499.161 3006.23,483.293 3013.27,468.574 3020.31,456.053 3027.35,446.845 3034.39,442.097 3041.43,442.955 3048.47,450.523 3055.51,465.829 3062.55,489.77 3069.58,523.068 3076.62,566.205 3083.66,619.357 3090.7,682.321 3097.74,754.435 3104.78,834.506 3111.82,920.745 3118.86,1010.73 3125.9,1101.44 3132.94,1189.28 3139.98,1270.28 3147.02,1340.29 3154.06,1395.28 3161.1,1431.7 3168.14,1446.79 3175.18,1438.96 3182.22,1407.94 3189.26,1354.92 3196.3,1282.45 3203.34,1194.3 3210.37,1095.07 3217.41,989.888 3224.45,883.954 3231.49,782.209 3238.53,689.021 3245.57,607.967 3252.61,541.701 3259.65,491.891 3266.69,459.234 3273.73,443.51 3280.77,443.683 3287.81,458.025 3294.85,484.265 3301.89,519.743 3308.93,561.578 3315.97,606.831 3323.01,652.657 3330.05,696.447 3337.09,735.932 3344.13,769.269 3351.16,795.085 3358.2,812.493 3365.24,821.074 3372.28,820.843 3379.32,812.194 3386.36,795.839 3393.4,772.747 3400.44,744.083 3407.48,711.151 3414.52,675.348 3421.56,638.116 3428.6,600.902 3435.64,565.117 3442.68,532.088 3449.72,503.014 3456.76,478.907 3463.8,460.529 3470.84,448.335 3477.88,442.404 3484.92,442.404 3491.95,447.566 3498.99,456.706 3506.03,468.304 3513.07,480.622 3520.11,491.887 3527.15,500.493 3534.19,505.207 3541.23,505.334 3548.27,500.828 3555.31,492.298 3562.35,480.941 3569.39,468.387 3576.43,456.503 3583.47,447.187 3590.51,442.171 3597.55,442.878 3604.59,450.315 3611.63,465.034 3618.67,487.125 3625.71,516.256 3632.74,551.725 3639.78,592.532 3646.82,637.452 3653.86,685.104 3660.9,734.02 3667.94,782.702 3674.98,829.674 3682.02,873.528 3689.06,912.962 3696.1,946.813 3703.14,974.089 3710.18,993.993 3717.22,1005.95 3724.26,1009.61 3731.3,1004.89 3738.34,991.951 3745.38,971.213 3752.42,943.334 3759.46,909.19 3766.5,869.843 3773.53,826.494 3780.57,780.44 3787.61,733.022 3794.65,685.581 3801.69,639.415 3808.73,595.747 3815.77,555.707 3822.81,520.322 3829.85,490.519 3836.89,467.135 3843.93,450.941 3850.97,442.66 3858.01,442.993 3865.05,452.641 3872.09,472.32 3879.13,502.768 3886.17,544.734 3893.21,598.952 3900.25,666.091 3907.29,746.674 3914.32,840.97 3921.36,948.853 3928.4,1069.62 3935.44,1201.82 3942.48,1343.03 3949.52,1489.72 3956.56,1637.16 3963.6,1779.44 3970.64,1909.68 3977.68,2020.43 3984.72,2104.24 3991.76,2154.42 3998.8,2165.83 4005.84,2135.59 4012.88,2063.58 4019.92,1952.64 4026.96,1808.39 4034,1638.74 4041.04,1453.12 4048.08,1261.65 4055.11,1074.34 4062.15,900.385 4069.19,747.615 4076.23,622.185 4083.27,528.37 4090.31,468.487 4097.35,442.891 4104.39,450.032 4111.43,486.574 4118.47,547.578 4125.51,626.8 4132.55,717.094 4139.59,810.931 4146.63,900.988 4153.67,980.752 4160.71,1045.03 4167.75,1090.3 4174.79,1114.88 4181.83,1118.8 4188.86,1103.57 4195.9,1071.75 4202.94,1026.58 4209.98,971.536 4217.02,910.02 4224.06,845.166 4231.1,779.714 4238.14,715.976 4245.18,655.859 4252.22,600.933 4259.26,552.497 4266.3,511.659 4273.34,479.395 4280.38,456.586 4287.42,444.031 4294.46,442.418 4301.5,452.259 4308.54,473.78 4315.58,506.771 4322.62,550.403 4329.65,603.048 4336.69,662.123 4343.73,724.038 4350.77,784.29 4357.81,837.754 4364.85,879.196 4371.89,903.95 4378.93,908.653 4385.97,891.888 4393.01,854.561 4400.05,799.918 4407.09,733.182 4414.13,660.893 4421.17,590.109 4428.21,527.618 4435.25,479.31 4442.29,449.755 4449.33,442.007 4456.37,457.584 4463.41,496.576 4470.44,557.82 4477.48,639.1 4484.52,737.347 4491.56,848.835 4498.6,969.356 4505.64,1094.4 "/>
<polyline clip-path="url(#clip192)" style="stroke:#ff00ff; stroke-linecap:round; stroke-linejoin:round; stroke-width:4; stroke-opacity:1; fill:none" stroke-dasharray="16, 10" points="1204.12,4912.73 1204.12,-1890.08 "/>
<path clip-path="url(#clip190)" d="M1011.67 2569.54 L1542.52 2569.54 L1542.52 2083.54 L1011.67 2083.54  Z" fill="#ffffff" fill-rule="evenodd" fill-opacity="1"/>
<polyline clip-path="url(#clip190)" style="stroke:#000000; stroke-linecap:round; stroke-linejoin:round; stroke-width:4; stroke-opacity:1; fill:none" points="1011.67,2569.54 1542.52,2569.54 1542.52,2083.54 1011.67,2083.54 1011.67,2569.54 "/>
<polyline clip-path="url(#clip190)" style="stroke:#009af9; stroke-linecap:round; stroke-linejoin:round; stroke-width:22.5; stroke-opacity:1; fill:none" points="1053.04,2180.74 1301.27,2180.74 "/>
<path clip-path="url(#clip190)" d="M1390.56 2203.9 L1390.56 2186.49 L1376.24 2186.49 L1376.24 2179.29 L1399.24 2179.29 L1399.24 2207.11 Q1394.16 2210.71 1388.04 2212.58 Q1381.92 2214.4 1374.98 2214.4 Q1359.79 2214.4 1351.19 2205.55 Q1342.64 2196.65 1342.64 2180.81 Q1342.64 2164.92 1351.19 2156.07 Q1359.79 2147.17 1374.98 2147.17 Q1381.31 2147.17 1387 2148.73 Q1392.73 2150.29 1397.55 2153.33 L1397.55 2162.66 Q1392.69 2158.54 1387.22 2156.46 Q1381.75 2154.37 1375.72 2154.37 Q1363.82 2154.37 1357.83 2161.01 Q1351.89 2167.65 1351.89 2180.81 Q1351.89 2193.91 1357.83 2200.55 Q1363.82 2207.19 1375.72 2207.19 Q1380.36 2207.19 1384.01 2206.41 Q1387.65 2205.59 1390.56 2203.9 Z" fill="#000000" fill-rule="nonzero" fill-opacity="1" /><path clip-path="url(#clip190)" d="M1417.56 2205.76 L1431.88 2205.76 L1431.88 2156.33 L1416.3 2159.45 L1416.3 2151.47 L1431.79 2148.34 L1440.56 2148.34 L1440.56 2205.76 L1454.88 2205.76 L1454.88 2213.14 L1417.56 2213.14 L1417.56 2205.76 Z" fill="#000000" fill-rule="nonzero" fill-opacity="1" /><polyline clip-path="url(#clip190)" style="stroke:#e26f46; stroke-linecap:round; stroke-linejoin:round; stroke-width:22.5; stroke-opacity:1; fill:none" points="1053.04,2277.94 1301.27,2277.94 "/>
<path clip-path="url(#clip190)" d="M1390.56 2301.1 L1390.56 2283.69 L1376.24 2283.69 L1376.24 2276.49 L1399.24 2276.49 L1399.24 2304.31 Q1394.16 2307.91 1388.04 2309.78 Q1381.92 2311.6 1374.98 2311.6 Q1359.79 2311.6 1351.19 2302.75 Q1342.64 2293.85 1342.64 2278.01 Q1342.64 2262.12 1351.19 2253.27 Q1359.79 2244.37 1374.98 2244.37 Q1381.31 2244.37 1387 2245.93 Q1392.73 2247.49 1397.55 2250.53 L1397.55 2259.86 Q1392.69 2255.74 1387.22 2253.66 Q1381.75 2251.57 1375.72 2251.57 Q1363.82 2251.57 1357.83 2258.21 Q1351.89 2264.85 1351.89 2278.01 Q1351.89 2291.11 1357.83 2297.75 Q1363.82 2304.39 1375.72 2304.39 Q1380.36 2304.39 1384.01 2303.61 Q1387.65 2302.79 1390.56 2301.1 Z" fill="#000000" fill-rule="nonzero" fill-opacity="1" /><path clip-path="url(#clip190)" d="M1423.59 2302.96 L1454.19 2302.96 L1454.19 2310.34 L1413.04 2310.34 L1413.04 2302.96 Q1418.03 2297.8 1426.63 2289.12 Q1435.26 2280.39 1437.48 2277.88 Q1441.69 2273.14 1443.34 2269.89 Q1445.03 2266.59 1445.03 2263.42 Q1445.03 2258.26 1441.38 2255 Q1437.78 2251.75 1431.97 2251.75 Q1427.84 2251.75 1423.24 2253.18 Q1418.68 2254.61 1413.48 2257.52 L1413.48 2248.67 Q1418.77 2246.54 1423.37 2245.45 Q1427.97 2244.37 1431.79 2244.37 Q1441.86 2244.37 1447.85 2249.4 Q1453.84 2254.44 1453.84 2262.86 Q1453.84 2266.85 1452.32 2270.45 Q1450.85 2274.01 1446.9 2278.87 Q1445.81 2280.13 1439.99 2286.17 Q1434.18 2292.16 1423.59 2302.96 Z" fill="#000000" fill-rule="nonzero" fill-opacity="1" /><polyline clip-path="url(#clip190)" style="stroke:#3da44d; stroke-linecap:round; stroke-linejoin:round; stroke-width:22.5; stroke-opacity:1; fill:none" points="1053.04,2375.14 1301.27,2375.14 "/>
<path clip-path="url(#clip190)" d="M1390.56 2398.3 L1390.56 2380.89 L1376.24 2380.89 L1376.24 2373.69 L1399.24 2373.69 L1399.24 2401.51 Q1394.16 2405.11 1388.04 2406.98 Q1381.92 2408.8 1374.98 2408.8 Q1359.79 2408.8 1351.19 2399.95 Q1342.64 2391.05 1342.64 2375.21 Q1342.64 2359.32 1351.19 2350.47 Q1359.79 2341.57 1374.98 2341.57 Q1381.31 2341.57 1387 2343.13 Q1392.73 2344.69 1397.55 2347.73 L1397.55 2357.06 Q1392.69 2352.94 1387.22 2350.86 Q1381.75 2348.77 1375.72 2348.77 Q1363.82 2348.77 1357.83 2355.41 Q1351.89 2362.05 1351.89 2375.21 Q1351.89 2388.31 1357.83 2394.95 Q1363.82 2401.59 1375.72 2401.59 Q1380.36 2401.59 1384.01 2400.81 Q1387.65 2399.99 1390.56 2398.3 Z" fill="#000000" fill-rule="nonzero" fill-opacity="1" /><path clip-path="url(#clip190)" d="M1442.6 2372.6 Q1448.89 2373.95 1452.41 2378.2 Q1455.97 2382.45 1455.97 2388.7 Q1455.97 2398.3 1449.37 2403.55 Q1442.77 2408.8 1430.62 2408.8 Q1426.54 2408.8 1422.2 2407.97 Q1417.9 2407.19 1413.3 2405.59 L1413.3 2397.12 Q1416.95 2399.25 1421.29 2400.34 Q1425.63 2401.42 1430.36 2401.42 Q1438.61 2401.42 1442.9 2398.17 Q1447.24 2394.91 1447.24 2388.7 Q1447.24 2382.97 1443.21 2379.76 Q1439.21 2376.51 1432.05 2376.51 L1424.5 2376.51 L1424.5 2369.3 L1432.4 2369.3 Q1438.87 2369.3 1442.3 2366.74 Q1445.72 2364.14 1445.72 2359.28 Q1445.72 2354.29 1442.16 2351.64 Q1438.65 2348.95 1432.05 2348.95 Q1428.45 2348.95 1424.33 2349.73 Q1420.2 2350.51 1415.26 2352.16 L1415.26 2344.35 Q1420.25 2342.96 1424.59 2342.26 Q1428.97 2341.57 1432.83 2341.57 Q1442.82 2341.57 1448.63 2346.13 Q1454.45 2350.64 1454.45 2358.37 Q1454.45 2363.75 1451.37 2367.48 Q1448.28 2371.17 1442.6 2372.6 Z" fill="#000000" fill-rule="nonzero" fill-opacity="1" /><polyline clip-path="url(#clip190)" style="stroke:#ff00ff; stroke-linecap:round; stroke-linejoin:round; stroke-width:7.5; stroke-opacity:1; fill:none" stroke-dasharray="30, 19" points="1053.04,2472.34 1301.27,2472.34 "/>
<path clip-path="url(#clip190)" d="M1356.53 2442.33 L1356.53 2456.13 L1372.98 2456.13 L1372.98 2462.34 L1356.53 2462.34 L1356.53 2488.73 Q1356.53 2494.67 1358.14 2496.36 Q1359.79 2498.06 1364.78 2498.06 L1372.98 2498.06 L1372.98 2504.74 L1364.78 2504.74 Q1355.53 2504.74 1352.02 2501.31 Q1348.5 2497.84 1348.5 2488.73 L1348.5 2462.34 L1342.64 2462.34 L1342.64 2456.13 L1348.5 2456.13 L1348.5 2442.33 L1356.53 2442.33 Z" fill="#000000" fill-rule="nonzero" fill-opacity="1" /><path clip-path="url(#clip190)" d="M1420.42 2519.5 L1420.42 2525.7 L1374.24 2525.7 L1374.24 2519.5 L1420.42 2519.5 Z" fill="#000000" fill-rule="nonzero" fill-opacity="1" /><path clip-path="url(#clip190)" d="M1462.91 2458 L1462.91 2465.46 Q1459.53 2463.6 1456.1 2462.68 Q1452.71 2461.73 1449.24 2461.73 Q1441.47 2461.73 1437.17 2466.68 Q1432.88 2471.58 1432.88 2480.48 Q1432.88 2489.38 1437.17 2494.32 Q1441.47 2499.23 1449.24 2499.23 Q1452.71 2499.23 1456.1 2498.32 Q1459.53 2497.36 1462.91 2495.5 L1462.91 2502.87 Q1459.57 2504.44 1455.97 2505.22 Q1452.41 2506 1448.37 2506 Q1437.39 2506 1430.92 2499.1 Q1424.46 2492.2 1424.46 2480.48 Q1424.46 2468.59 1430.97 2461.77 Q1437.52 2454.96 1448.89 2454.96 Q1452.58 2454.96 1456.1 2455.74 Q1459.61 2456.48 1462.91 2458 Z" fill="#000000" fill-rule="nonzero" fill-opacity="1" /><path clip-path="url(#clip190)" d="M1484.7 2442.33 L1484.7 2456.13 L1501.15 2456.13 L1501.15 2462.34 L1484.7 2462.34 L1484.7 2488.73 Q1484.7 2494.67 1486.31 2496.36 Q1487.95 2498.06 1492.95 2498.06 L1501.15 2498.06 L1501.15 2504.74 L1492.95 2504.74 Q1483.7 2504.74 1480.19 2501.31 Q1476.67 2497.84 1476.67 2488.73 L1476.67 2462.34 L1470.81 2462.34 L1470.81 2456.13 L1476.67 2456.13 L1476.67 2442.33 L1484.7 2442.33 Z" fill="#000000" fill-rule="nonzero" fill-opacity="1" /></svg>
