<?xml version="1.0" encoding="utf-8"?>
<svg xmlns="http://www.w3.org/2000/svg" xmlns:xlink="http://www.w3.org/1999/xlink" width="1200" height="800" viewBox="0 0 4800 3200">
<defs>
  <clipPath id="clip030">
    <rect x="0" y="0" width="4800" height="3200"/>
  </clipPath>
</defs>
<path clip-path="url(#clip030)" d="M0 3200 L4800 3200 L4800 0 L0 0  Z" fill="#ffffff" fill-rule="evenodd" fill-opacity="1"/>
<defs>
  <clipPath id="clip031">
    <rect x="960" y="0" width="3361" height="3200"/>
  </clipPath>
</defs>
<path clip-path="url(#clip030)" d="M953.582 2645.13 L4611.02 2645.13 L4611.02 377.524 L953.582 377.524  Z" fill="#ffffff" fill-rule="evenodd" fill-opacity="1"/>
<defs>
  <clipPath id="clip032">
    <rect x="953" y="377" width="3658" height="2269"/>
  </clipPath>
</defs>
<polyline clip-path="url(#clip032)" style="stroke:#000000; stroke-linecap:round; stroke-linejoin:round; stroke-width:8; stroke-opacity:0.05; fill:none" stroke-dasharray="32, 20" points="1410.55,2645.13 1410.55,377.524 "/>
<polyline clip-path="url(#clip032)" style="stroke:#000000; stroke-linecap:round; stroke-linejoin:round; stroke-width:8; stroke-opacity:0.05; fill:none" stroke-dasharray="32, 20" points="2442.87,2645.13 2442.87,377.524 "/>
<polyline clip-path="url(#clip032)" style="stroke:#000000; stroke-linecap:round; stroke-linejoin:round; stroke-width:8; stroke-opacity:0.05; fill:none" stroke-dasharray="32, 20" points="3475.19,2645.13 3475.19,377.524 "/>
<polyline clip-path="url(#clip032)" style="stroke:#000000; stroke-linecap:round; stroke-linejoin:round; stroke-width:8; stroke-opacity:0.05; fill:none" stroke-dasharray="32, 20" points="4507.51,2645.13 4507.51,377.524 "/>
<polyline clip-path="url(#clip032)" style="stroke:#000000; stroke-linecap:round; stroke-linejoin:round; stroke-width:8; stroke-opacity:0.05; fill:none" stroke-dasharray="32, 20" points="953.582,2347.99 4611.02,2347.99 "/>
<polyline clip-path="url(#clip032)" style="stroke:#000000; stroke-linecap:round; stroke-linejoin:round; stroke-width:8; stroke-opacity:0.05; fill:none" stroke-dasharray="32, 20" points="953.582,1959.52 4611.02,1959.52 "/>
<polyline clip-path="url(#clip032)" style="stroke:#000000; stroke-linecap:round; stroke-linejoin:round; stroke-width:8; stroke-opacity:0.05; fill:none" stroke-dasharray="32, 20" points="953.582,1571.05 4611.02,1571.05 "/>
<polyline clip-path="url(#clip032)" style="stroke:#000000; stroke-linecap:round; stroke-linejoin:round; stroke-width:8; stroke-opacity:0.05; fill:none" stroke-dasharray="32, 20" points="953.582,1182.58 4611.02,1182.58 "/>
<polyline clip-path="url(#clip032)" style="stroke:#000000; stroke-linecap:round; stroke-linejoin:round; stroke-width:8; stroke-opacity:0.05; fill:none" stroke-dasharray="32, 20" points="953.582,794.111 4611.02,794.111 "/>
<polyline clip-path="url(#clip032)" style="stroke:#000000; stroke-linecap:round; stroke-linejoin:round; stroke-width:8; stroke-opacity:0.05; fill:none" stroke-dasharray="32, 20" points="953.582,405.642 4611.02,405.642 "/>
<polyline clip-path="url(#clip030)" style="stroke:#000000; stroke-linecap:round; stroke-linejoin:round; stroke-width:4; stroke-opacity:1; fill:none" points="953.582,2645.13 4611.02,2645.13 "/>
<polyline clip-path="url(#clip030)" style="stroke:#000000; stroke-linecap:round; stroke-linejoin:round; stroke-width:4; stroke-opacity:1; fill:none" points="1410.55,2645.13 1410.55,2626.23 "/>
<polyline clip-path="url(#clip030)" style="stroke:#000000; stroke-linecap:round; stroke-linejoin:round; stroke-width:4; stroke-opacity:1; fill:none" points="2442.87,2645.13 2442.87,2626.23 "/>
<polyline clip-path="url(#clip030)" style="stroke:#000000; stroke-linecap:round; stroke-linejoin:round; stroke-width:4; stroke-opacity:1; fill:none" points="3475.19,2645.13 3475.19,2626.23 "/>
<polyline clip-path="url(#clip030)" style="stroke:#000000; stroke-linecap:round; stroke-linejoin:round; stroke-width:4; stroke-opacity:1; fill:none" points="4507.51,2645.13 4507.51,2626.23 "/>
<path clip-path="url(#clip030)" d="M1209.58 2798.9 L1339.41 2798.9 L1339.41 2816.12 L1209.58 2816.12 L1209.58 2798.9 Z" fill="#000000" fill-rule="nonzero" fill-opacity="1" /><path clip-path="url(#clip030)" d="M1383.77 2721.33 L1464.07 2721.33 L1464.07 2738.54 L1402.5 2738.54 L1402.5 2775.61 Q1406.96 2774.09 1411.41 2773.38 Q1415.87 2772.57 1420.32 2772.57 Q1445.64 2772.57 1460.43 2786.45 Q1475.21 2800.32 1475.21 2824.02 Q1475.21 2848.42 1460.02 2862 Q1444.83 2875.46 1417.19 2875.46 Q1407.67 2875.46 1397.74 2873.84 Q1387.92 2872.22 1377.39 2868.98 L1377.39 2848.42 Q1386.5 2853.39 1396.22 2855.82 Q1405.94 2858.25 1416.78 2858.25 Q1434.3 2858.25 1444.53 2849.03 Q1454.76 2839.82 1454.76 2824.02 Q1454.76 2808.22 1444.53 2799 Q1434.3 2789.79 1416.78 2789.79 Q1408.58 2789.79 1400.37 2791.61 Q1392.27 2793.43 1383.77 2797.28 L1383.77 2721.33 Z" fill="#000000" fill-rule="nonzero" fill-opacity="1" /><path clip-path="url(#clip030)" d="M1559.27 2734.8 Q1543.47 2734.8 1535.47 2750.39 Q1527.57 2765.89 1527.57 2797.08 Q1527.57 2828.17 1535.47 2843.77 Q1543.47 2859.26 1559.27 2859.26 Q1575.17 2859.26 1583.07 2843.77 Q1591.07 2828.17 1591.07 2797.08 Q1591.07 2765.89 1583.07 2750.39 Q1575.17 2734.8 1559.27 2734.8 M1559.27 2718.59 Q1584.69 2718.59 1598.06 2738.75 Q1611.53 2758.8 1611.53 2797.08 Q1611.53 2835.26 1598.06 2855.41 Q1584.69 2875.46 1559.27 2875.46 Q1533.85 2875.46 1520.38 2855.41 Q1507.01 2835.26 1507.01 2797.08 Q1507.01 2758.8 1520.38 2738.75 Q1533.85 2718.59 1559.27 2718.59 Z" fill="#000000" fill-rule="nonzero" fill-opacity="1" /><path clip-path="url(#clip030)" d="M2442.87 2734.8 Q2427.07 2734.8 2419.07 2750.39 Q2411.17 2765.89 2411.17 2797.08 Q2411.17 2828.17 2419.07 2843.77 Q2427.07 2859.26 2442.87 2859.26 Q2458.77 2859.26 2466.67 2843.77 Q2474.67 2828.17 2474.67 2797.08 Q2474.67 2765.89 2466.67 2750.39 Q2458.77 2734.8 2442.87 2734.8 M2442.87 2718.59 Q2468.29 2718.59 2481.66 2738.75 Q2495.13 2758.8 2495.13 2797.08 Q2495.13 2835.26 2481.66 2855.41 Q2468.29 2875.46 2442.87 2875.46 Q2417.45 2875.46 2403.98 2855.41 Q2390.62 2835.26 2390.62 2797.08 Q2390.62 2758.8 2403.98 2738.75 Q2417.45 2718.59 2442.87 2718.59 Z" fill="#000000" fill-rule="nonzero" fill-opacity="1" /><path clip-path="url(#clip030)" d="M3364.5 2721.33 L3444.81 2721.33 L3444.81 2738.54 L3383.24 2738.54 L3383.24 2775.61 Q3387.69 2774.09 3392.15 2773.38 Q3396.6 2772.57 3401.06 2772.57 Q3426.38 2772.57 3441.16 2786.45 Q3455.95 2800.32 3455.95 2824.02 Q3455.95 2848.42 3440.76 2862 Q3425.57 2875.46 3397.92 2875.46 Q3388.4 2875.46 3378.48 2873.84 Q3368.65 2872.22 3358.12 2868.98 L3358.12 2848.42 Q3367.23 2853.39 3376.96 2855.82 Q3386.68 2858.25 3397.52 2858.25 Q3415.04 2858.25 3425.26 2849.03 Q3435.49 2839.82 3435.49 2824.02 Q3435.49 2808.22 3425.26 2799 Q3415.04 2789.79 3397.52 2789.79 Q3389.31 2789.79 3381.11 2791.61 Q3373.01 2793.43 3364.5 2797.28 L3364.5 2721.33 Z" fill="#000000" fill-rule="nonzero" fill-opacity="1" /><path clip-path="url(#clip030)" d="M3540.01 2734.8 Q3524.21 2734.8 3516.21 2750.39 Q3508.31 2765.89 3508.31 2797.08 Q3508.31 2828.17 3516.21 2843.77 Q3524.21 2859.26 3540.01 2859.26 Q3555.91 2859.26 3563.8 2843.77 Q3571.81 2828.17 3571.81 2797.08 Q3571.81 2765.89 3563.8 2750.39 Q3555.91 2734.8 3540.01 2734.8 M3540.01 2718.59 Q3565.43 2718.59 3578.79 2738.75 Q3592.26 2758.8 3592.26 2797.08 Q3592.26 2835.26 3578.79 2855.41 Q3565.43 2875.46 3540.01 2875.46 Q3514.59 2875.46 3501.12 2855.41 Q3487.75 2835.26 3487.75 2797.08 Q3487.75 2758.8 3501.12 2738.75 Q3514.59 2718.59 3540.01 2718.59 Z" fill="#000000" fill-rule="nonzero" fill-opacity="1" /><path clip-path="url(#clip030)" d="M4330.79 2855.31 L4364.21 2855.31 L4364.21 2739.96 L4327.85 2747.25 L4327.85 2728.62 L4364.01 2721.33 L4384.46 2721.33 L4384.46 2855.31 L4417.88 2855.31 L4417.88 2872.53 L4330.79 2872.53 L4330.79 2855.31 Z" fill="#000000" fill-rule="nonzero" fill-opacity="1" /><path clip-path="url(#clip030)" d="M4502.95 2734.8 Q4487.16 2734.8 4479.15 2750.39 Q4471.26 2765.89 4471.26 2797.08 Q4471.26 2828.17 4479.15 2843.77 Q4487.16 2859.26 4502.95 2859.26 Q4518.85 2859.26 4526.75 2843.77 Q4534.75 2828.17 4534.75 2797.08 Q4534.75 2765.89 4526.75 2750.39 Q4518.85 2734.8 4502.95 2734.8 M4502.95 2718.59 Q4528.37 2718.59 4541.74 2738.75 Q4555.21 2758.8 4555.21 2797.08 Q4555.21 2835.26 4541.74 2855.41 Q4528.37 2875.46 4502.95 2875.46 Q4477.53 2875.46 4464.07 2855.41 Q4450.7 2835.26 4450.7 2797.08 Q4450.7 2758.8 4464.07 2738.75 Q4477.53 2718.59 4502.95 2718.59 Z" fill="#000000" fill-rule="nonzero" fill-opacity="1" /><path clip-path="url(#clip030)" d="M4634.91 2734.8 Q4619.11 2734.8 4611.11 2750.39 Q4603.21 2765.89 4603.21 2797.08 Q4603.21 2828.17 4611.11 2843.77 Q4619.11 2859.26 4634.91 2859.26 Q4650.81 2859.26 4658.71 2843.77 Q4666.71 2828.17 4666.71 2797.08 Q4666.71 2765.89 4658.71 2750.39 Q4650.81 2734.8 4634.91 2734.8 M4634.91 2718.59 Q4660.33 2718.59 4673.7 2738.75 Q4687.17 2758.8 4687.17 2797.08 Q4687.17 2835.26 4673.7 2855.41 Q4660.33 2875.46 4634.91 2875.46 Q4609.49 2875.46 4596.02 2855.41 Q4582.66 2835.26 4582.66 2797.08 Q4582.66 2758.8 4596.02 2738.75 Q4609.49 2718.59 4634.91 2718.59 Z" fill="#000000" fill-rule="nonzero" fill-opacity="1" /><path clip-path="url(#clip030)" d="M2514.39 2994.02 Q2504.06 2986.93 2479.85 2986.93 Q2454.23 2986.93 2454.23 2998.78 Q2454.23 3008.09 2480.97 3012.95 Q2502.03 3016.7 2513.88 3028.04 Q2528.26 3041.72 2528.26 3069.77 Q2528.26 3096.61 2514.39 3112.4 Q2500.51 3128.3 2476.21 3128.3 Q2452 3128.3 2438.03 3112.4 Q2424.15 3096.61 2424.15 3068.76 Q2424.15 3048.1 2438.03 3031.39 Q2443.39 3024.91 2450.99 3021.26 Q2435.19 3013.26 2435.19 2998.98 Q2435.19 2971.43 2479.85 2971.43 Q2502.23 2971.43 2514.39 2978.52 L2514.39 2994.02 M2464.96 3026.32 Q2458.08 3029.26 2452.51 3036.65 Q2443.8 3048.1 2443.8 3068.76 Q2443.8 3089.31 2452.41 3100.86 Q2461.12 3112.51 2476.21 3112.51 Q2491.09 3112.51 2499.8 3100.76 Q2508.51 3089.01 2508.51 3069.77 Q2508.51 3049.62 2499.3 3039.89 Q2489.47 3029.46 2476.71 3028.35 Q2470.23 3027.74 2464.96 3026.32 Z" fill="#000000" fill-rule="nonzero" fill-opacity="1" /><path clip-path="url(#clip030)" d="M2669.84 2967.99 Q2656.27 2991.28 2649.69 3014.07 Q2643.1 3036.86 2643.1 3060.25 Q2643.1 3083.64 2649.69 3106.63 Q2656.37 3129.52 2669.84 3152.71 L2653.64 3152.71 Q2638.44 3128.91 2630.85 3105.92 Q2623.36 3082.93 2623.36 3060.25 Q2623.36 3037.67 2630.85 3014.78 Q2638.34 2991.89 2653.64 2967.99 L2669.84 2967.99 Z" fill="#000000" fill-rule="nonzero" fill-opacity="1" /><path clip-path="url(#clip030)" d="M2780.63 3029.16 L2780.63 2967.79 L2799.27 2967.79 L2799.27 3125.37 L2780.63 3125.37 L2780.63 3108.35 Q2774.76 3118.48 2765.74 3123.44 Q2756.83 3128.3 2744.27 3128.3 Q2723.72 3128.3 2710.75 3111.9 Q2697.89 3095.49 2697.89 3068.76 Q2697.89 3042.02 2710.75 3025.61 Q2723.72 3009.21 2744.27 3009.21 Q2756.83 3009.21 2765.74 3014.17 Q2774.76 3019.03 2780.63 3029.16 M2717.13 3068.76 Q2717.13 3089.31 2725.54 3101.06 Q2734.05 3112.71 2748.83 3112.71 Q2763.62 3112.71 2772.12 3101.06 Q2780.63 3089.31 2780.63 3068.76 Q2780.63 3048.2 2772.12 3036.55 Q2763.62 3024.8 2748.83 3024.8 Q2734.05 3024.8 2725.54 3036.55 Q2717.13 3048.2 2717.13 3068.76 Z" fill="#000000" fill-rule="nonzero" fill-opacity="1" /><path clip-path="url(#clip030)" d="M2934.67 3064 L2934.67 3073.11 L2848.99 3073.11 Q2850.21 3092.35 2860.54 3102.48 Q2870.97 3112.51 2889.5 3112.51 Q2900.23 3112.51 2910.26 3109.87 Q2920.39 3107.24 2930.31 3101.97 L2930.31 3119.6 Q2920.29 3123.85 2909.75 3126.08 Q2899.22 3128.3 2888.39 3128.3 Q2861.24 3128.3 2845.34 3112.51 Q2829.55 3096.71 2829.55 3069.77 Q2829.55 3041.92 2844.53 3025.61 Q2859.62 3009.21 2885.14 3009.21 Q2908.03 3009.21 2921.3 3023.99 Q2934.67 3038.68 2934.67 3064 M2916.03 3058.53 Q2915.83 3043.24 2907.42 3034.12 Q2899.12 3025.01 2885.35 3025.01 Q2869.75 3025.01 2860.33 3033.82 Q2851.02 3042.63 2849.6 3058.63 L2916.03 3058.53 Z" fill="#000000" fill-rule="nonzero" fill-opacity="1" /><path clip-path="url(#clip030)" d="M3039.89 3067.34 Q3039.89 3047.08 3031.48 3035.94 Q3023.18 3024.8 3008.09 3024.8 Q2993.1 3024.8 2984.7 3035.94 Q2976.39 3047.08 2976.39 3067.34 Q2976.39 3087.49 2984.7 3098.63 Q2993.1 3109.77 3008.09 3109.77 Q3023.18 3109.77 3031.48 3098.63 Q3039.89 3087.49 3039.89 3067.34 M3058.52 3111.29 Q3058.52 3140.25 3045.66 3154.33 Q3032.8 3168.51 3006.27 3168.51 Q2996.44 3168.51 2987.73 3166.99 Q2979.02 3165.57 2970.82 3162.53 L2970.82 3144.41 Q2979.02 3148.86 2987.03 3150.99 Q2995.03 3153.12 3003.33 3153.12 Q3021.66 3153.12 3030.77 3143.5 Q3039.89 3133.98 3039.89 3114.63 L3039.89 3105.42 Q3034.12 3115.44 3025.1 3120.41 Q3016.09 3125.37 3003.53 3125.37 Q2982.67 3125.37 2969.91 3109.47 Q2957.15 3093.57 2957.15 3067.34 Q2957.15 3041.01 2969.91 3025.11 Q2982.67 3009.21 3003.53 3009.21 Q3016.09 3009.21 3025.1 3014.17 Q3034.12 3019.13 3039.89 3029.16 L3039.89 3011.94 L3058.52 3011.94 L3058.52 3111.29 Z" fill="#000000" fill-rule="nonzero" fill-opacity="1" /><path clip-path="url(#clip030)" d="M3093.97 2967.99 L3110.17 2967.99 Q3125.36 2991.89 3132.86 3014.78 Q3140.45 3037.67 3140.45 3060.25 Q3140.45 3082.93 3132.86 3105.92 Q3125.36 3128.91 3110.17 3152.71 L3093.97 3152.71 Q3107.44 3129.52 3114.02 3106.63 Q3120.71 3083.64 3120.71 3060.25 Q3120.71 3036.86 3114.02 3014.07 Q3107.44 2991.28 3093.97 2967.99 Z" fill="#000000" fill-rule="nonzero" fill-opacity="1" /><polyline clip-path="url(#clip030)" style="stroke:#000000; stroke-linecap:round; stroke-linejoin:round; stroke-width:4; stroke-opacity:1; fill:none" points="953.582,2645.13 953.582,377.524 "/>
<polyline clip-path="url(#clip030)" style="stroke:#000000; stroke-linecap:round; stroke-linejoin:round; stroke-width:4; stroke-opacity:1; fill:none" points="953.582,2347.99 972.479,2347.99 "/>
<polyline clip-path="url(#clip030)" style="stroke:#000000; stroke-linecap:round; stroke-linejoin:round; stroke-width:4; stroke-opacity:1; fill:none" points="953.582,1959.52 972.479,1959.52 "/>
<polyline clip-path="url(#clip030)" style="stroke:#000000; stroke-linecap:round; stroke-linejoin:round; stroke-width:4; stroke-opacity:1; fill:none" points="953.582,1571.05 972.479,1571.05 "/>
<polyline clip-path="url(#clip030)" style="stroke:#000000; stroke-linecap:round; stroke-linejoin:round; stroke-width:4; stroke-opacity:1; fill:none" points="953.582,1182.58 972.479,1182.58 "/>
<polyline clip-path="url(#clip030)" style="stroke:#000000; stroke-linecap:round; stroke-linejoin:round; stroke-width:4; stroke-opacity:1; fill:none" points="953.582,794.111 972.479,794.111 "/>
<polyline clip-path="url(#clip030)" style="stroke:#000000; stroke-linecap:round; stroke-linejoin:round; stroke-width:4; stroke-opacity:1; fill:none" points="953.582,405.642 972.479,405.642 "/>
<path clip-path="url(#clip030)" d="M347.672 2349.96 L477.504 2349.96 L477.504 2367.18 L347.672 2367.18 L347.672 2349.96 Z" fill="#000000" fill-rule="nonzero" fill-opacity="1" /><path clip-path="url(#clip030)" d="M525.203 2406.37 L558.623 2406.37 L558.623 2291.02 L522.266 2298.31 L522.266 2279.68 L558.421 2272.39 L578.878 2272.39 L578.878 2406.37 L612.298 2406.37 L612.298 2423.59 L525.203 2423.59 L525.203 2406.37 Z" fill="#000000" fill-rule="nonzero" fill-opacity="1" /><path clip-path="url(#clip030)" d="M697.367 2285.86 Q681.568 2285.86 673.568 2301.45 Q665.668 2316.95 665.668 2348.14 Q665.668 2379.23 673.568 2394.83 Q681.568 2410.32 697.367 2410.32 Q713.267 2410.32 721.166 2394.83 Q729.166 2379.23 729.166 2348.14 Q729.166 2316.95 721.166 2301.45 Q713.267 2285.86 697.367 2285.86 M697.367 2269.65 Q722.786 2269.65 736.154 2289.81 Q749.623 2309.86 749.623 2348.14 Q749.623 2386.32 736.154 2406.47 Q722.786 2426.53 697.367 2426.53 Q671.947 2426.53 658.478 2406.47 Q645.11 2386.32 645.11 2348.14 Q645.11 2309.86 658.478 2289.81 Q671.947 2269.65 697.367 2269.65 Z" fill="#000000" fill-rule="nonzero" fill-opacity="1" /><path clip-path="url(#clip030)" d="M829.325 2285.86 Q813.526 2285.86 805.526 2301.45 Q797.627 2316.95 797.627 2348.14 Q797.627 2379.23 805.526 2394.83 Q813.526 2410.32 829.325 2410.32 Q845.225 2410.32 853.124 2394.83 Q861.125 2379.23 861.125 2348.14 Q861.125 2316.95 853.124 2301.45 Q845.225 2285.86 829.325 2285.86 M829.325 2269.65 Q854.744 2269.65 868.112 2289.81 Q881.582 2309.86 881.582 2348.14 Q881.582 2386.32 868.112 2406.47 Q854.744 2426.53 829.325 2426.53 Q803.906 2426.53 790.436 2406.47 Q777.068 2386.32 777.068 2348.14 Q777.068 2309.86 790.436 2289.81 Q803.906 2269.65 829.325 2269.65 Z" fill="#000000" fill-rule="nonzero" fill-opacity="1" /><path clip-path="url(#clip030)" d="M829.325 1897.39 Q813.526 1897.39 805.526 1912.98 Q797.627 1928.48 797.627 1959.67 Q797.627 1990.76 805.526 2006.36 Q813.526 2021.85 829.325 2021.85 Q845.225 2021.85 853.124 2006.36 Q861.125 1990.76 861.125 1959.67 Q861.125 1928.48 853.124 1912.98 Q845.225 1897.39 829.325 1897.39 M829.325 1881.18 Q854.744 1881.18 868.112 1901.34 Q881.582 1921.39 881.582 1959.67 Q881.582 1997.85 868.112 2018 Q854.744 2038.06 829.325 2038.06 Q803.906 2038.06 790.436 2018 Q777.068 1997.85 777.068 1959.67 Q777.068 1921.39 790.436 1901.34 Q803.906 1881.18 829.325 1881.18 Z" fill="#000000" fill-rule="nonzero" fill-opacity="1" /><path clip-path="url(#clip030)" d="M525.203 1629.43 L558.623 1629.43 L558.623 1514.08 L522.266 1521.38 L522.266 1502.74 L558.421 1495.45 L578.878 1495.45 L578.878 1629.43 L612.298 1629.43 L612.298 1646.65 L525.203 1646.65 L525.203 1629.43 Z" fill="#000000" fill-rule="nonzero" fill-opacity="1" /><path clip-path="url(#clip030)" d="M697.367 1508.92 Q681.568 1508.92 673.568 1524.52 Q665.668 1540.01 665.668 1571.2 Q665.668 1602.29 673.568 1617.89 Q681.568 1633.38 697.367 1633.38 Q713.267 1633.38 721.166 1617.89 Q729.166 1602.29 729.166 1571.2 Q729.166 1540.01 721.166 1524.52 Q713.267 1508.92 697.367 1508.92 M697.367 1492.72 Q722.786 1492.72 736.154 1512.87 Q749.623 1532.92 749.623 1571.2 Q749.623 1609.38 736.154 1629.53 Q722.786 1649.59 697.367 1649.59 Q671.947 1649.59 658.478 1629.53 Q645.11 1609.38 645.11 1571.2 Q645.11 1532.92 658.478 1512.87 Q671.947 1492.72 697.367 1492.72 Z" fill="#000000" fill-rule="nonzero" fill-opacity="1" /><path clip-path="url(#clip030)" d="M829.325 1508.92 Q813.526 1508.92 805.526 1524.52 Q797.627 1540.01 797.627 1571.2 Q797.627 1602.29 805.526 1617.89 Q813.526 1633.38 829.325 1633.38 Q845.225 1633.38 853.124 1617.89 Q861.125 1602.29 861.125 1571.2 Q861.125 1540.01 853.124 1524.52 Q845.225 1508.92 829.325 1508.92 M829.325 1492.72 Q854.744 1492.72 868.112 1512.87 Q881.582 1532.92 881.582 1571.2 Q881.582 1609.38 868.112 1629.53 Q854.744 1649.59 829.325 1649.59 Q803.906 1649.59 790.436 1629.53 Q777.068 1609.38 777.068 1571.2 Q777.068 1532.92 790.436 1512.87 Q803.906 1492.72 829.325 1492.72 Z" fill="#000000" fill-rule="nonzero" fill-opacity="1" /><path clip-path="url(#clip030)" d="M539.28 1240.96 L610.677 1240.96 L610.677 1258.18 L514.671 1258.18 L514.671 1240.96 Q526.317 1228.91 546.369 1208.66 Q566.523 1188.3 571.687 1182.43 Q581.511 1171.39 585.359 1163.79 Q589.309 1156.1 589.309 1148.7 Q589.309 1136.65 580.802 1129.06 Q572.396 1121.46 558.826 1121.46 Q549.205 1121.46 538.47 1124.8 Q527.836 1128.15 515.684 1134.93 L515.684 1114.27 Q528.039 1109.31 538.774 1106.78 Q549.509 1104.25 558.421 1104.25 Q581.916 1104.25 595.892 1115.99 Q609.867 1127.74 609.867 1147.39 Q609.867 1156.71 606.323 1165.11 Q602.879 1173.42 593.664 1184.76 Q591.132 1187.69 577.561 1201.77 Q563.991 1215.75 539.28 1240.96 Z" fill="#000000" fill-rule="nonzero" fill-opacity="1" /><path clip-path="url(#clip030)" d="M697.367 1120.45 Q681.568 1120.45 673.568 1136.05 Q665.668 1151.54 665.668 1182.73 Q665.668 1213.82 673.568 1229.42 Q681.568 1244.91 697.367 1244.91 Q713.267 1244.91 721.166 1229.42 Q729.166 1213.82 729.166 1182.73 Q729.166 1151.54 721.166 1136.05 Q713.267 1120.45 697.367 1120.45 M697.367 1104.25 Q722.786 1104.25 736.154 1124.4 Q749.623 1144.45 749.623 1182.73 Q749.623 1220.91 736.154 1241.07 Q722.786 1261.12 697.367 1261.12 Q671.947 1261.12 658.478 1241.07 Q645.11 1220.91 645.11 1182.73 Q645.11 1144.45 658.478 1124.4 Q671.947 1104.25 697.367 1104.25 Z" fill="#000000" fill-rule="nonzero" fill-opacity="1" /><path clip-path="url(#clip030)" d="M829.325 1120.45 Q813.526 1120.45 805.526 1136.05 Q797.627 1151.54 797.627 1182.73 Q797.627 1213.82 805.526 1229.42 Q813.526 1244.91 829.325 1244.91 Q845.225 1244.91 853.124 1229.42 Q861.125 1213.82 861.125 1182.73 Q861.125 1151.54 853.124 1136.05 Q845.225 1120.45 829.325 1120.45 M829.325 1104.25 Q854.744 1104.25 868.112 1124.4 Q881.582 1144.45 881.582 1182.73 Q881.582 1220.91 868.112 1241.07 Q854.744 1261.12 829.325 1261.12 Q803.906 1261.12 790.436 1241.07 Q777.068 1220.91 777.068 1182.73 Q777.068 1144.45 790.436 1124.4 Q803.906 1104.25 829.325 1104.25 Z" fill="#000000" fill-rule="nonzero" fill-opacity="1" /><path clip-path="url(#clip030)" d="M583.638 788.187 Q598.322 791.326 606.525 801.251 Q614.83 811.176 614.83 825.759 Q614.83 848.14 599.436 860.394 Q584.043 872.648 555.686 872.648 Q546.167 872.648 536.039 870.724 Q526.013 868.901 515.279 865.154 L515.279 845.406 Q523.786 850.368 533.913 852.9 Q544.04 855.432 555.079 855.432 Q574.321 855.432 584.347 847.836 Q594.474 840.241 594.474 825.759 Q594.474 812.391 585.055 804.897 Q575.738 797.301 559.028 797.301 L541.407 797.301 L541.407 780.49 L559.839 780.49 Q574.928 780.49 582.929 774.515 Q590.929 768.439 590.929 757.096 Q590.929 745.45 582.625 739.272 Q574.422 732.993 559.028 732.993 Q550.623 732.993 541.002 734.816 Q531.381 736.639 519.836 740.487 L519.836 722.258 Q531.482 719.018 541.609 717.397 Q551.838 715.777 560.851 715.777 Q584.144 715.777 597.715 726.41 Q611.285 736.943 611.285 754.969 Q611.285 767.527 604.095 776.237 Q596.904 784.845 583.638 788.187 Z" fill="#000000" fill-rule="nonzero" fill-opacity="1" /><path clip-path="url(#clip030)" d="M697.367 731.98 Q681.568 731.98 673.568 747.576 Q665.668 763.071 665.668 794.263 Q665.668 825.354 673.568 840.95 Q681.568 856.444 697.367 856.444 Q713.267 856.444 721.166 840.95 Q729.166 825.354 729.166 794.263 Q729.166 763.071 721.166 747.576 Q713.267 731.98 697.367 731.98 M697.367 715.777 Q722.786 715.777 736.154 735.93 Q749.623 755.982 749.623 794.263 Q749.623 832.443 736.154 852.596 Q722.786 872.648 697.367 872.648 Q671.947 872.648 658.478 852.596 Q645.11 832.443 645.11 794.263 Q645.11 755.982 658.478 735.93 Q671.947 715.777 697.367 715.777 Z" fill="#000000" fill-rule="nonzero" fill-opacity="1" /><path clip-path="url(#clip030)" d="M829.325 731.98 Q813.526 731.98 805.526 747.576 Q797.627 763.071 797.627 794.263 Q797.627 825.354 805.526 840.95 Q813.526 856.444 829.325 856.444 Q845.225 856.444 853.124 840.95 Q861.125 825.354 861.125 794.263 Q861.125 763.071 853.124 747.576 Q845.225 731.98 829.325 731.98 M829.325 715.777 Q854.744 715.777 868.112 735.93 Q881.582 755.982 881.582 794.263 Q881.582 832.443 868.112 852.596 Q854.744 872.648 829.325 872.648 Q803.906 872.648 790.436 852.596 Q777.068 832.443 777.068 794.263 Q777.068 755.982 790.436 735.93 Q803.906 715.777 829.325 715.777 Z" fill="#000000" fill-rule="nonzero" fill-opacity="1" /><path clip-path="url(#clip030)" d="M577.865 347.866 L526.216 428.58 L577.865 428.58 L577.865 347.866 M572.498 330.042 L598.221 330.042 L598.221 428.58 L619.792 428.58 L619.792 445.594 L598.221 445.594 L598.221 481.242 L577.865 481.242 L577.865 445.594 L509.607 445.594 L509.607 425.846 L572.498 330.042 Z" fill="#000000" fill-rule="nonzero" fill-opacity="1" /><path clip-path="url(#clip030)" d="M697.367 343.511 Q681.568 343.511 673.568 359.107 Q665.668 374.602 665.668 405.794 Q665.668 436.884 673.568 452.48 Q681.568 467.975 697.367 467.975 Q713.267 467.975 721.166 452.48 Q729.166 436.884 729.166 405.794 Q729.166 374.602 721.166 359.107 Q713.267 343.511 697.367 343.511 M697.367 327.307 Q722.786 327.307 736.154 347.461 Q749.623 367.513 749.623 405.794 Q749.623 443.973 736.154 464.127 Q722.786 484.179 697.367 484.179 Q671.947 484.179 658.478 464.127 Q645.11 443.973 645.11 405.794 Q645.11 367.513 658.478 347.461 Q671.947 327.307 697.367 327.307 Z" fill="#000000" fill-rule="nonzero" fill-opacity="1" /><path clip-path="url(#clip030)" d="M829.325 343.511 Q813.526 343.511 805.526 359.107 Q797.627 374.602 797.627 405.794 Q797.627 436.884 805.526 452.48 Q813.526 467.975 829.325 467.975 Q845.225 467.975 853.124 452.48 Q861.125 436.884 861.125 405.794 Q861.125 374.602 853.124 359.107 Q845.225 343.511 829.325 343.511 M829.325 327.307 Q854.744 327.307 868.112 347.461 Q881.582 367.513 881.582 405.794 Q881.582 443.973 868.112 464.127 Q854.744 484.179 829.325 484.179 Q803.906 484.179 790.436 464.127 Q777.068 443.973 777.068 405.794 Q777.068 367.513 790.436 347.461 Q803.906 327.307 829.325 327.307 Z" fill="#000000" fill-rule="nonzero" fill-opacity="1" /><path clip-path="url(#clip030)" d="M95.9237 1840.21 L152.738 1840.21 L152.738 1814.49 Q152.738 1800.21 145.345 1792.41 Q137.952 1784.61 124.28 1784.61 Q110.709 1784.61 103.317 1792.41 Q95.9237 1800.21 95.9237 1814.49 L95.9237 1840.21 M79.1124 1860.67 L79.1124 1814.49 Q79.1124 1789.07 90.6575 1776.1 Q102.101 1763.04 124.28 1763.04 Q146.661 1763.04 158.105 1776.1 Q169.549 1789.07 169.549 1814.49 L169.549 1840.21 L230.312 1840.21 L230.312 1860.67 L79.1124 1860.67 Z" fill="#000000" fill-rule="nonzero" fill-opacity="1" /><path clip-path="url(#clip030)" d="M72.9348 1625.71 Q96.2275 1639.28 119.014 1645.87 Q141.8 1652.45 165.194 1652.45 Q188.588 1652.45 211.577 1645.87 Q234.465 1639.18 257.656 1625.71 L257.656 1641.92 Q233.857 1657.11 210.868 1664.7 Q187.879 1672.2 165.194 1672.2 Q142.61 1672.2 119.723 1664.7 Q96.8351 1657.21 72.9348 1641.92 L72.9348 1625.71 Z" fill="#000000" fill-rule="nonzero" fill-opacity="1" /><path clip-path="url(#clip030)" d="M79.1124 1588.75 L79.1124 1558.27 L182.005 1519.68 L79.1124 1480.89 L79.1124 1450.41 L230.312 1450.41 L230.312 1470.36 L97.5441 1470.36 L201.247 1509.35 L201.247 1529.91 L97.5441 1568.9 L230.312 1568.9 L230.312 1588.75 L79.1124 1588.75 Z" fill="#000000" fill-rule="nonzero" fill-opacity="1" /><path clip-path="url(#clip030)" d="M79.1124 1423.27 L79.1124 1402.61 L206.918 1370.81 L79.1124 1339.11 L79.1124 1316.12 L206.918 1284.32 L79.1124 1252.63 L79.1124 1231.86 L230.312 1269.84 L230.312 1295.56 L99.0631 1327.47 L230.312 1359.67 L230.312 1385.39 L79.1124 1423.27 Z" fill="#000000" fill-rule="nonzero" fill-opacity="1" /><path clip-path="url(#clip030)" d="M72.9348 1208.47 L72.9348 1192.27 Q96.8351 1177.08 119.723 1169.58 Q142.61 1161.99 165.194 1161.99 Q187.879 1161.99 210.868 1169.58 Q233.857 1177.08 257.656 1192.27 L257.656 1208.47 Q234.465 1195 211.577 1188.42 Q188.588 1181.73 165.194 1181.73 Q141.8 1181.73 119.014 1188.42 Q96.2275 1195 72.9348 1208.47 Z" fill="#000000" fill-rule="nonzero" fill-opacity="1" /><path clip-path="url(#clip030)" d="M2207.65 53.7729 L2207.65 118.703 L2237.05 118.703 Q2253.37 118.703 2262.28 110.254 Q2271.19 101.805 2271.19 86.1801 Q2271.19 70.6709 2262.28 62.2219 Q2253.37 53.7729 2237.05 53.7729 L2207.65 53.7729 M2184.27 34.56 L2237.05 34.56 Q2266.1 34.56 2280.92 47.7544 Q2295.85 60.833 2295.85 86.1801 Q2295.85 111.759 2280.92 124.837 Q2266.1 137.916 2237.05 137.916 L2207.65 137.916 L2207.65 207.36 L2184.27 207.36 L2184.27 34.56 Z" fill="#000000" fill-rule="nonzero" fill-opacity="1" /><path clip-path="url(#clip030)" d="M2386.36 77.7311 L2408.92 77.7311 L2449.43 186.527 L2489.94 77.7311 L2512.51 77.7311 L2463.9 207.36 L2434.97 207.36 L2386.36 77.7311 Z" fill="#000000" fill-rule="nonzero" fill-opacity="1" /><path clip-path="url(#clip030)" d="M2624.55 81.5505 L2624.55 101.689 Q2615.52 97.0597 2605.8 94.7449 Q2596.08 92.4301 2585.66 92.4301 Q2569.8 92.4301 2561.82 97.2911 Q2553.95 102.152 2553.95 111.874 Q2553.95 119.282 2559.62 123.564 Q2565.29 127.731 2582.42 131.55 L2589.71 133.171 Q2612.4 138.032 2621.89 146.944 Q2631.49 155.74 2631.49 171.596 Q2631.49 189.652 2617.14 200.184 Q2602.91 210.716 2577.91 210.716 Q2567.49 210.716 2556.15 208.633 Q2544.92 206.666 2532.42 202.615 L2532.42 180.624 Q2544.23 186.758 2555.68 189.883 Q2567.14 192.892 2578.37 192.892 Q2593.41 192.892 2601.52 187.8 Q2609.62 182.592 2609.62 173.217 Q2609.62 164.536 2603.72 159.907 Q2597.93 155.277 2578.14 150.995 L2570.73 149.258 Q2550.94 145.092 2542.14 136.527 Q2533.35 127.847 2533.35 112.8 Q2533.35 94.5134 2546.31 84.5597 Q2559.27 74.6061 2583.11 74.6061 Q2594.92 74.6061 2605.34 76.3422 Q2615.75 78.0783 2624.55 81.5505 Z" fill="#000000" fill-rule="nonzero" fill-opacity="1" /><path clip-path="url(#clip030)" d="M2799.43 57.5923 L2767.72 143.587 L2831.26 143.587 L2799.43 57.5923 M2786.24 34.56 L2812.74 34.56 L2878.6 207.36 L2854.29 207.36 L2838.55 163.032 L2760.66 163.032 L2744.92 207.36 L2720.27 207.36 L2786.24 34.56 Z" fill="#000000" fill-rule="nonzero" fill-opacity="1" /><path clip-path="url(#clip030)" d="M3010.66 129.12 L3010.66 207.36 L2989.36 207.36 L2989.36 129.814 Q2989.36 111.411 2982.19 102.268 Q2975.01 93.1245 2960.66 93.1245 Q2943.41 93.1245 2933.46 104.12 Q2923.51 115.115 2923.51 134.097 L2923.51 207.36 L2902.09 207.36 L2902.09 77.7311 L2923.51 77.7311 L2923.51 97.8698 Q2931.14 86.1801 2941.45 80.3931 Q2951.86 74.6061 2965.4 74.6061 Q2987.74 74.6061 2999.2 88.4949 Q3010.66 102.268 3010.66 129.12 Z" fill="#000000" fill-rule="nonzero" fill-opacity="1" /><path clip-path="url(#clip030)" d="M3138.43 141.041 Q3138.43 117.893 3128.83 105.161 Q3119.34 92.4301 3102.09 92.4301 Q3084.96 92.4301 3075.36 105.161 Q3065.87 117.893 3065.87 141.041 Q3065.87 164.073 3075.36 176.805 Q3084.96 189.536 3102.09 189.536 Q3119.34 189.536 3128.83 176.805 Q3138.43 164.073 3138.43 141.041 M3159.73 191.272 Q3159.73 224.374 3145.03 240.462 Q3130.33 256.665 3100.01 256.665 Q3088.78 256.665 3078.83 254.929 Q3068.88 253.309 3059.5 249.837 L3059.5 229.119 Q3068.88 234.212 3078.02 236.642 Q3087.16 239.073 3096.65 239.073 Q3117.6 239.073 3128.02 228.077 Q3138.43 217.198 3138.43 195.092 L3138.43 184.559 Q3131.84 196.017 3121.54 201.689 Q3111.24 207.36 3096.88 207.36 Q3073.04 207.36 3058.46 189.189 Q3043.88 171.018 3043.88 141.041 Q3043.88 110.948 3058.46 92.7773 Q3073.04 74.6061 3096.88 74.6061 Q3111.24 74.6061 3121.54 80.2773 Q3131.84 85.9486 3138.43 97.4069 L3138.43 77.7311 L3159.73 77.7311 L3159.73 191.272 Z" fill="#000000" fill-rule="nonzero" fill-opacity="1" /><path clip-path="url(#clip030)" d="M3203.6 27.2684 L3224.89 27.2684 L3224.89 207.36 L3203.6 207.36 L3203.6 27.2684 Z" fill="#000000" fill-rule="nonzero" fill-opacity="1" /><path clip-path="url(#clip030)" d="M3380.33 137.221 L3380.33 147.638 L3282.42 147.638 Q3283.8 169.629 3295.61 181.203 Q3307.53 192.661 3328.71 192.661 Q3340.98 192.661 3352.44 189.652 Q3364.01 186.643 3375.35 180.624 L3375.35 200.763 Q3363.9 205.624 3351.86 208.17 Q3339.82 210.716 3327.44 210.716 Q3296.42 210.716 3278.25 192.661 Q3260.19 174.606 3260.19 143.819 Q3260.19 111.99 3277.32 93.356 Q3294.57 74.6061 3323.73 74.6061 Q3349.89 74.6061 3365.05 91.5041 Q3380.33 108.286 3380.33 137.221 M3359.04 130.972 Q3358.8 113.495 3349.2 103.078 Q3339.71 92.6615 3323.97 92.6615 Q3306.14 92.6615 3295.38 102.731 Q3284.73 112.8 3283.11 131.087 L3359.04 130.972 Z" fill="#000000" fill-rule="nonzero" fill-opacity="1" /><polyline clip-path="url(#clip032)" style="stroke:#009af9; stroke-linecap:round; stroke-linejoin:round; stroke-width:12; stroke-opacity:1; fill:none" points="2451.1,1533.38 2450.14,1534.57 2448.22,1536.94 2445.35,1540.49 2441.53,1545.21 2436.77,1551.07 2431.08,1558.06 2424.48,1566.14 2416.99,1575.28 2408.61,1585.43 2399.38,1596.53 2389.31,1608.52 2378.42,1621.31 2366.74,1634.81 2354.3,1648.93 2341.11,1663.55 2327.21,1678.56 2312.62,1693.82 2297.37,1709.22 2281.49,1724.61 2264.99,1739.85 2247.91,1754.83 2230.27,1769.41 2212.09,1783.47 2193.4,1796.89 2174.21,1809.57 2154.54,1821.42 2134.4,1832.35 2113.82,1842.28 2092.79,1851.17 2071.33,1858.95 2049.85,1928.42 2029.13,1954.19 2009.57,1976.04 1991.21,1994.51 1974.02,2010.04 1958.04,2023.04 1943.25,2033.82 1929.66,2042.64 1917.28,2049.69 1906.09,2055.12 1896.11,2059.02 1887.33,2061.46 1879.74,2062.47 1873.35,2062.06 1868.14,2060.26 1864.12,2057.05 1861.26,2052.47 1859.56,2046.52 1859.01,2039.25 1859.59,2030.72 1861.29,2020.98 1864.09,2010.12 1867.96,1998.25 1872.9,1985.48 1878.87,1971.91 1885.87,1957.66 1893.86,1942.85 1902.84,1927.55 1912.78,1911.86 1923.67,1895.81 1935.5,1879.45 1948.24,1862.75 1961.89,1845.66 1976.45,1828.11 1991.9,1809.97 2008.23,1791.06 2025.44,1771.21 2043.53,1750.17 2062.48,1727.7 2082.3,1703.55 2102.97,1677.47 2124.47,1649.21 2146.8,1618.57 2169.93,1585.4 2193.82,1549.6 2218.44,1511.16 2243.75,1470.13 2269.68,1426.66 2296.18,1380.97 2323.17,1333.35 2350.57,1284.17 2378.28,1233.83 2406.22,1182.73 2434.27,1131.31 2462.33,1079.99 2490.29,1029.17 2518.02,979.215 2545.42,930.46 2572.37,883.207 2598.75,837.728 2624.45,794.264 2649.37,753.034 2673.38,714.231 2696.4,678.024 2718.33,644.553 2739.07,613.927 2758.55,586.217 2776.68,561.449 2793.39,539.6 2808.62,520.595 2822.3,504.308 2834.4,490.565 2844.86,479.151 2853.64,469.821 2860.71,462.311 2866.05,456.353 2869.64,451.693 2871.45,448.103 2871.48,445.4 2869.71,443.457 2866.16,442.216 2860.81,441.702 2853.69,442.025 2844.79,443.391 2834.14,446.095 2821.76,450.526 2807.69,457.151 2791.96,466.504 2774.61,479.165 2755.71,495.728 2735.32,516.774 2713.5,542.828 2690.36,574.317 2665.98,611.536 2640.47,654.611 2613.94,703.473 2586.52,757.845 2558.35,817.247 2529.55,881.011 2500.26,948.312 2470.64,1018.21 2440.83,1089.72 2410.96,1161.81 2381.17,1233.5 2351.6,1303.89 2322.37,1372.17 2293.6,1437.66 2265.4,1499.79 2237.87,1558.14 2211.09,1612.4 2185.16,1662.38 2160.13,1707.98 2136.08,1749.19 2113.05,1786.07 2091.08,1818.74 2070.22,1847.37 2050.49,1872.17 2031.91,1893.37 2014.49,1911.23 1998.24,1926.04 1983.16,1938.06 1969.25,1947.61 1956.51,1954.97 1944.92,1960.44 1934.47,1964.28 1925.15,1966.78 1916.94,1968.18 1909.84,1968.72 1903.82,1968.6 1898.86,1968.03 1894.97,1967.15 1892.13,1966.11 1890.32,1965.01 1889.54,1963.92 1889.79,1962.89 1891.06,1961.92 1893.35,1961.01 1896.68,1960.1 1901.03,1959.11 1906.43,1957.92 1912.88,1956.38 1920.39,1954.33 1928.98,1951.56 1938.65,1947.84 1949.42,1942.91 1961.31,1936.51 1974.32,1928.35 1988.47,1918.13 2003.76,1905.54 2020.19,1890.28 2037.76,1872.06 2056.47,1850.59 2076.3,1825.62 2097.24,1796.92 2119.25,1764.3 2142.31,1727.61 2166.36,1686.77 2191.36,1641.74 2217.24,1592.58 2243.94,1539.4 2271.37,1482.44 2299.44,1422 2328.06,1358.52 2357.11,1292.5 2386.48,1224.6 2416.06,1155.54 2445.7,1086.13 2475.27,1017.25 2504.64,949.805 2533.67,884.692 2562.21,822.76 2590.14,764.775 2617.31,711.375 2643.6,663.042 2668.89,620.086 2693.06,582.633 2716.01,550.63 2737.64,523.866 2757.86,501.99 2776.61,484.553 2793.81,471.032 2809.41,460.874 2823.36,453.523 2835.62,448.451 2846.16,445.179 2854.94,443.299 2861.97,442.481 2867.21,442.485 2870.65,443.16 2872.31,444.447 2872.17,446.371 2870.24,449.04 2866.53,452.625 2861.06,457.359 2853.84,463.517 2844.9,471.401 2834.27,481.325 2821.99,493.598 2808.11,508.508 2792.67,526.309 2775.73,547.205 2757.35,571.344 2737.62,598.811 2716.6,629.627 2694.38,663.748 2671.06,701.07 2646.73,741.434 2621.51,784.633 2595.49,830.416 2568.8,878.497 2541.54,928.554 2513.83,980.236 2485.81,1033.16 2457.58,1086.92 2429.26,1141.09 2400.96,1195.21 2372.81,1248.83 2344.91,1301.49 2317.35,1352.76 2290.23,1402.21 2263.64,1449.49 2237.65,1494.3 2212.33,1536.41 2187.73,1575.66 2163.91,1611.99 2140.91,1645.41 2118.76,1676.01 2097.47,1703.93 2077.08,1729.38 2057.6,1752.61 2039.02,1773.86 2021.37,1793.42 2004.63,1811.55 1988.83,1828.51 1973.95,1844.52 1960,1859.79 1946.98,1874.48 1934.9,1888.72 1923.77,1902.61 1913.58,1916.2 1904.36,1929.52 1896.11,1942.56 1888.85,1955.28 1882.59,1967.62 1877.35,1979.5 1873.15,1990.83 1870,2001.5 1867.92,2011.41 1866.93,2020.45 1867.05,2028.52 1868.3,2035.5 1870.69,2041.32 1874.24,2045.89 1878.96,2049.14 1884.86,2050.98 1891.96,2051.37 1900.26,2050.22 1909.77,2047.45 1920.5,2042.98 1932.44,2036.69 1945.61,2028.44 1959.99,2018.04 1975.59,2005.26 1992.41,1989.84 2010.44,1971.44 2029.66,1949.69 2050.06,1924.15 2071.63,1894.36 2094.35,1859.84 2118.17,1820.09 2143.07,1774.69 2168.99,1723.27 2195.88,1665.63 2223.67,1601.75 2252.27,1531.86 2281.59,1456.5 2311.51,1376.5 2341.9,1293.03 2372.63,1207.52 2403.55,1121.59 2434.49,1036.98 2465.3,955.374 2495.8,878.315 2525.83,807.084 2555.23,742.621 2583.84,685.486 2611.52,635.865 2638.14,593.605 2663.58,558.281 2687.72,529.278 2710.49,505.867 2731.79,487.284 2751.56,472.794 2769.75,461.73 2786.3,453.53 2801.19,447.749 2814.38,444.068 2825.85,442.279 2835.58,442.281 2843.57,444.055 2849.81,447.645 2854.31,453.13 2857.06,460.606 2858.09,470.157 2857.39,481.839 2855,495.666 2850.94,511.597 2845.23,529.536 2837.91,549.328 2829.02,570.774 2818.6,593.639 2806.7,617.664 2793.37,642.592 2778.66,668.179 2762.63,694.212 2745.35,720.526 2726.88,747.011 2707.3,773.622 2686.68,800.378 2665.09,827.358 2642.62,854.69 2619.36,882.536 2595.39,911.072 2570.81,940.468 2545.71,970.863 2520.19,1002.34 2494.35,1034.93 2468.29,1068.57 2442.09,1103.13 2415.86,1138.4 2389.67,1174.12 2363.61,1210 2337.73,1245.75 2312.11,1281.09 2286.79,1315.81 2261.82,1349.73 2237.22,1382.78 2213.03,1414.95 2189.27,1446.32 2165.95,1477.01 2143.09,1507.21 2120.7,1537.12 2098.81,1566.96 2077.42,1596.93 2056.55,1627.21 2036.24,1657.91 2016.51,1689.09 1997.38,1720.74 1978.9,1752.77 1961.11,1785.01 1944.04,1817.21 1927.75,1849.08 1912.26,1880.24 1897.64,1910.3 1883.93,1938.85 1871.16,1965.5 1859.37,1989.87 1848.61,2011.63 1838.89,2030.55 1830.24,2046.44 1822.68,2059.22 1816.22,2068.9 1810.87,2075.59 1806.61,2079.46 1803.44,2080.77 1801.35,2079.83 1800.32,2077 1800.33,2072.66 1801.35,2067.19 1803.35,2060.98 1806.31,2054.38 1810.21,2047.74 1815.01,2041.34 1820.7,2035.44 1827.25,2030.24 1834.66,2025.89 1842.91,2022.48 1852.01,2020.04 1861.94,2018.52 1872.72,2017.82 1884.35,2017.72 1896.87,2017.91 1910.29,2018 1924.64,2017.44 1939.95,2015.56 1956.26,2011.57 1973.61,2004.5 1992.02,1993.3 2011.54,1976.8 2032.18,1953.79 2053.97,1923.12 2076.91,1883.76 2100.99,1834.99 2126.17,1776.45 2152.39,1708.32 2179.59,1631.39 2207.66,1547.07 2236.46,1457.3 2265.85,1364.47 2295.67,1271.14 2325.74,1179.83 2355.87,1092.74 2385.87,1011.61 2415.56,937.594 2444.77,871.225 2473.34,812.499 2501.12,760.984 2527.98,715.977 2553.8,676.651 2578.5,642.19 2601.99,611.893 2624.19,585.239 2645.05,561.928 2664.53,541.883 2682.6,525.227 2699.22,512.244 2714.38,503.314 2728.08,498.843 2740.3,499.192 2751.05,504.605 2760.33,515.153 2768.16,530.703 2774.54,550.901 2779.49,575.195 2783.04,602.867 2785.2,633.087 2785.99,664.971 2785.45,697.631 2783.59,730.23 2780.45,762.011 2776.06,792.327 2770.45,820.647 2763.66,846.568 2755.71,869.803 2746.64,890.181 2736.48,907.633 2725.28,922.185 2713.06,933.944 2699.87,943.094 2685.76,949.884 2670.75,954.621 2654.91,957.663 2638.28,959.41 2620.91,960.298 2602.87,960.788 2584.22,961.352 2565.02,962.47 2545.34,964.602 2525.22,968.184 2504.75,973.6 2483.96,981.169 2462.9,991.129 2441.6,1003.62 2420.1,1018.68 2398.4,1036.25 2376.52,1056.22 2354.46,1078.4 2332.21,1102.61 2309.77,1128.69 2287.14,1156.56 2264.33,1186.18 2241.33,1217.65 2218.17,1251.14 2194.87,1286.88 2171.46,1325.17 2148,1366.28 2124.54,1410.41 2101.14,1457.67 2077.9,1507.99 2054.88,1561.1 "/>
<polyline clip-path="url(#clip032)" style="stroke:#e26f46; stroke-linecap:round; stroke-linejoin:round; stroke-width:12; stroke-opacity:1; fill:none" stroke-dasharray="48, 30" points="2451.1,1099.82 2450.14,1099.82 2448.22,1099.82 2445.35,1099.82 2441.53,1099.82 2436.77,1099.82 2431.08,1099.82 2424.48,1099.82 2416.99,1099.82 2408.61,1099.82 2399.38,1099.82 2389.31,1099.82 2378.42,1099.82 2366.74,1099.82 2354.3,1099.82 2341.11,1099.82 2327.21,1099.82 2312.62,1099.82 2297.37,1099.82 2281.49,1099.82 2264.99,1099.82 2247.91,1099.82 2230.27,1099.82 2212.09,1099.82 2193.4,1099.82 2174.21,1099.82 2154.54,1099.82 2134.4,1099.82 2113.82,1099.82 2092.79,1099.82 2071.33,1099.82 2049.85,1099.82 2029.13,1099.82 2009.57,1099.82 1991.21,1099.82 1974.02,1099.82 1958.04,1099.82 1943.25,1099.82 1929.66,1099.82 1917.28,1099.82 1906.09,1099.82 1896.11,1099.82 1887.33,1099.82 1879.74,1099.82 1873.35,1099.82 1868.14,1099.82 1864.12,1099.82 1861.26,1099.82 1859.56,1099.82 1859.01,1099.82 1859.59,1099.82 1861.29,1099.82 1864.09,1099.82 1867.96,1099.82 1872.9,1099.82 1878.87,1099.82 1885.87,1099.82 1893.86,1099.82 1902.84,1099.82 1912.78,1099.82 1923.67,1099.82 1935.5,1099.82 1948.24,1099.82 1961.89,1099.82 1976.45,1099.82 1991.9,1099.82 2008.23,1099.82 2025.44,1099.82 2043.53,1099.82 2062.48,1099.82 2082.3,1099.82 2102.97,1099.82 2124.47,1099.82 2146.8,1099.82 2169.93,1099.82 2193.82,1099.82 2218.44,1099.82 2243.75,1099.82 2269.68,1099.82 2296.18,1099.82 2323.17,1099.82 2350.57,1099.82 2378.28,1099.82 2406.22,1099.82 2434.27,1099.82 2462.33,1099.82 2490.29,1099.82 2518.02,1099.82 2545.42,1099.82 2572.37,1099.82 2598.75,1099.82 2624.45,1099.82 2649.37,1099.82 2673.38,1099.82 2696.4,1099.82 2718.33,1099.82 2739.07,1099.82 2758.55,1099.82 2776.68,1099.82 2793.39,1099.82 2808.62,1099.82 2822.3,1099.82 2834.4,1099.82 2844.86,1099.82 2853.64,1099.82 2860.71,1099.82 2866.05,1099.82 2869.64,1099.82 2871.45,1099.82 2871.48,1099.82 2869.71,1099.82 2866.16,1099.82 2860.81,1099.82 2853.69,1099.82 2844.79,1099.82 2834.14,1099.82 2821.76,1099.82 2807.69,1099.82 2791.96,1099.82 2774.61,1099.82 2755.71,1099.82 2735.32,1099.82 2713.5,1099.82 2690.36,1099.82 2665.98,1099.82 2640.47,1099.82 2613.94,1099.82 2586.52,1099.82 2558.35,1099.82 2529.55,1099.82 2500.26,1099.82 2470.64,1099.82 2440.83,1099.82 2410.96,1099.82 2381.17,1099.82 2351.6,1099.82 2322.37,1099.82 2293.6,1099.82 2265.4,1099.82 2237.87,1099.82 2211.09,1099.82 2185.16,1099.82 2160.13,1099.82 2136.08,1099.82 2113.05,1099.82 2091.08,1099.82 2070.22,1099.82 2050.49,1099.82 2031.91,1099.82 2014.49,1099.82 1998.24,1099.82 1983.16,1099.82 1969.25,1099.82 1956.51,1099.82 1944.92,1099.82 1934.47,1099.82 1925.15,1099.82 1916.94,1099.82 1909.84,1099.82 1903.82,1099.82 1898.86,1099.82 1894.97,1099.82 1892.13,1099.82 1890.32,1099.82 1889.54,1099.82 1889.79,1099.82 1891.06,1099.82 1893.35,1099.82 1896.68,1099.82 1901.03,1099.82 1906.43,1099.82 1912.88,1099.82 1920.39,1099.82 1928.98,1099.82 1938.65,1099.82 1949.42,1099.82 1961.31,1099.82 1974.32,1099.82 1988.47,1099.82 2003.76,1099.82 2020.19,1099.82 2037.76,1099.82 2056.47,1099.82 2076.3,1099.82 2097.24,1099.82 2119.25,1099.82 2142.31,1099.82 2166.36,1099.82 2191.36,1099.82 2217.24,1099.82 2243.94,1099.82 2271.37,1099.82 2299.44,1099.82 2328.06,1099.82 2357.11,1099.82 2386.48,1099.82 2416.06,1099.82 2445.7,1099.82 2475.27,1099.82 2504.64,1099.82 2533.67,1099.82 2562.21,1099.82 2590.14,1099.82 2617.31,1099.82 2643.6,1099.82 2668.89,1099.82 2693.06,1099.82 2716.01,1099.82 2737.64,1099.82 2757.86,1099.82 2776.61,1099.82 2793.81,1099.82 2809.41,1099.82 2823.36,1099.82 2835.62,1099.82 2846.16,1099.82 2854.94,1099.82 2861.97,1099.82 2867.21,1099.82 2870.65,1099.82 2872.31,1099.82 2872.17,1099.82 2870.24,1099.82 2866.53,1099.82 2861.06,1099.82 2853.84,1099.82 2844.9,1099.82 2834.27,1099.82 2821.99,1099.82 2808.11,1099.82 2792.67,1099.82 2775.73,1099.82 2757.35,1099.82 2737.62,1099.82 2716.6,1099.82 2694.38,1099.82 2671.06,1099.82 2646.73,1099.82 2621.51,1099.82 2595.49,1099.82 2568.8,1099.82 2541.54,1099.82 2513.83,1099.82 2485.81,1099.82 2457.58,1099.82 2429.26,1099.82 2400.96,1099.82 2372.81,1099.82 2344.91,1099.82 2317.35,1099.82 2290.23,1099.82 2263.64,1099.82 2237.65,1099.82 2212.33,1099.82 2187.73,1099.82 2163.91,1099.82 2140.91,1099.82 2118.76,1099.82 2097.47,1099.82 2077.08,1099.82 2057.6,1099.82 2039.02,1099.82 2021.37,1099.82 2004.63,1099.82 1988.83,1099.82 1973.95,1099.82 1960,1099.82 1946.98,1099.82 1934.9,1099.82 1923.77,1099.82 1913.58,1099.82 1904.36,1099.82 1896.11,1099.82 1888.85,1099.82 1882.59,1099.82 1877.35,1099.82 1873.15,1099.82 1870,1099.82 1867.92,1099.82 1866.93,1099.82 1867.05,1099.82 1868.3,1099.82 1870.69,1099.82 1874.24,1099.82 1878.96,1099.82 1884.86,1099.82 1891.96,1099.82 1900.26,1099.82 1909.77,1099.82 1920.5,1099.82 1932.44,1099.82 1945.61,1099.82 1959.99,1099.82 1975.59,1099.82 1992.41,1099.82 2010.44,1099.82 2029.66,1099.82 2050.06,1099.82 2071.63,1099.82 2094.35,1099.82 2118.17,1099.82 2143.07,1099.82 2168.99,1099.82 2195.88,1099.82 2223.67,1099.82 2252.27,1099.82 2281.59,1099.82 2311.51,1099.82 2341.9,1099.82 2372.63,1099.82 2403.55,1099.82 2434.49,1099.82 2465.3,1099.82 2495.8,1099.82 2525.83,1099.82 2555.23,1099.82 2583.84,1099.82 2611.52,1099.82 2638.14,1099.82 2663.58,1099.82 2687.72,1099.82 2710.49,1099.82 2731.79,1099.82 2751.56,1099.82 2769.75,1099.82 2786.3,1099.82 2801.19,1099.82 2814.38,1099.82 2825.85,1099.82 2835.58,1099.82 2843.57,1099.82 2849.81,1099.82 2854.31,1099.82 2857.06,1099.82 2858.09,1099.82 2857.39,1099.82 2855,1099.82 2850.94,1099.82 2845.23,1099.82 2837.91,1099.82 2829.02,1099.82 2818.6,1099.82 2806.7,1099.82 2793.37,1099.82 2778.66,1099.82 2762.63,1099.82 2745.35,1099.82 2726.88,1099.82 2707.3,1099.82 2686.68,1099.82 2665.09,1099.82 2642.62,1099.82 2619.36,1099.82 2595.39,1099.82 2570.81,1099.82 2545.71,1099.82 2520.19,1099.82 2494.35,1099.82 2468.29,1099.82 2442.09,1099.82 2415.86,1099.82 2389.67,1099.82 2363.61,1099.82 2337.73,1099.82 2312.11,1099.82 2286.79,1099.82 2261.82,1099.82 2237.22,1099.82 2213.03,1099.82 2189.27,1099.82 2165.95,1099.82 2143.09,1099.82 2120.7,1099.82 2098.81,1099.82 2077.42,1099.82 2056.55,1099.82 2036.24,1099.82 2016.51,1099.82 1997.38,1099.82 1978.9,1099.82 1961.11,1099.82 1944.04,1099.82 1927.75,1099.82 1912.26,1099.82 1897.64,1099.82 1883.93,1099.82 1871.16,1099.82 1859.37,1099.82 1848.61,1099.82 1838.89,1099.82 1830.24,1099.82 1822.68,1099.82 1816.22,1099.82 1810.87,1099.82 1806.61,1099.82 1803.44,1099.82 1801.35,1099.82 1800.32,1099.82 1800.33,1099.82 1801.35,1099.82 1803.35,1099.82 1806.31,1099.82 1810.21,1099.82 1815.01,1099.82 1820.7,1099.82 1827.25,1099.82 1834.66,1099.82 1842.91,1099.82 1852.01,1099.82 1861.94,1099.82 1872.72,1099.82 1884.35,1099.82 1896.87,1099.82 1910.29,1099.82 1924.64,1099.82 1939.95,1099.82 1956.26,1099.82 1973.61,1099.82 1992.02,1099.82 2011.54,1099.82 2032.18,1099.82 2053.97,1099.82 2076.91,1099.82 2100.99,1099.82 2126.17,1099.82 2152.39,1099.82 2179.59,1099.82 2207.66,1099.82 2236.46,1099.82 2265.85,1099.82 2295.67,1099.82 2325.74,1099.82 2355.87,1099.82 2385.87,1099.82 2415.56,1099.82 2444.77,1099.82 2473.34,1099.82 2501.12,1099.82 2527.98,1099.82 2553.8,1099.82 2578.5,1099.82 2601.99,1099.82 2624.19,1099.82 2645.05,1099.82 2664.53,1099.82 2682.6,1099.82 2699.22,1099.82 2714.38,1099.82 2728.08,1099.82 2740.3,1099.82 2751.05,1099.82 2760.33,1099.82 2768.16,1099.82 2774.54,1099.82 2779.49,1099.82 2783.04,1099.82 2785.2,1099.82 2785.99,1099.82 2785.45,1099.82 2783.59,1099.82 2780.45,1099.82 2776.06,1099.82 2770.45,1099.82 2763.66,1099.82 2755.71,1099.82 2746.64,1099.82 2736.48,1099.82 2725.28,1099.82 2713.06,1099.82 2699.87,1099.82 2685.76,1099.82 2670.75,1099.82 2654.91,1099.82 2638.28,1099.82 2620.91,1099.82 2602.87,1099.82 2584.22,1099.82 2565.02,1099.82 2545.34,1099.82 2525.22,1099.82 2504.75,1099.82 2483.96,1099.82 2462.9,1099.82 2441.6,1099.82 2420.1,1099.82 2398.4,1099.82 2376.52,1099.82 2354.46,1099.82 2332.21,1099.82 2309.77,1099.82 2287.14,1099.82 2264.33,1099.82 2241.33,1099.82 2218.17,1099.82 2194.87,1099.82 2171.46,1099.82 2148,1099.82 2124.54,1099.82 2101.14,1099.82 2077.9,1099.82 2054.88,1099.82 "/>
<polyline clip-path="url(#clip032)" style="stroke:#3da44d; stroke-linecap:round; stroke-linejoin:round; stroke-width:12; stroke-opacity:1; fill:none" points="2387.29,1959.49 2389.12,1959.49 2392.77,1959.49 2398.25,1959.49 2405.55,1959.49 2414.68,1959.49 2425.64,1959.49 2438.42,1959.49 2453.02,1959.49 2469.45,1959.49 2487.7,1959.49 2507.78,1959.49 2529.67,1959.49 2553.38,1959.49 2578.91,1959.49 2606.25,1959.49 2635.4,1959.49 2666.36,1959.49 2699.12,1959.49 2733.68,1959.49 2770.02,1959.49 2808.16,1959.49 2848.07,1959.49 2889.76,1959.49 2933.21,1959.49 2978.42,1959.49 3025.38,1959.49 3074.09,1959.49 3124.52,1959.49 3176.68,1959.49 3230.56,1959.49 3285.62,1489.19 3340.81,1480.77 3395.52,1469.91 3449.65,1456.65 3503.06,1441.04 3555.61,1423.19 3607.14,1403.2 3657.49,1381.23 3706.47,1357.49 3753.9,1332.2 3799.57,1305.67 3843.28,1278.2 3884.82,1250.15 3923.96,1221.89 3960.49,1193.78 3994.21,1166.18 4024.9,1139.42 4052.36,1113.78 4076.39,1089.48 4096.83,1066.71 4113.49,1045.56 4126.23,1026.09 4134.9,1008.28 4139.36,992.076 4139.52,977.391 4135.26,964.119 4126.49,952.155 4113.14,941.409 4095.13,931.823 4072.42,923.39 4044.95,916.161 4012.7,910.261 3975.64,905.896 3933.77,903.354 3887.09,903.011 3835.63,905.32 3779.45,910.801 3718.62,920.023 3653.25,933.577 3583.48,952.041 3509.48,975.947 3431.48,1005.73 3349.74,1041.7 3264.56,1083.98 3176.31,1132.49 3085.37,1186.93 2992.18,1246.77 2897.23,1311.25 2801,1379.42 2704.03,1450.22 2606.86,1522.44 2510.04,1594.9 2414.1,1666.38 2319.58,1735.79 2227,1802.13 2136.83,1864.54 2049.53,1922.32 1965.52,1974.95 1885.17,2022.04 1808.81,2063.38 1736.73,2098.86 1669.18,2128.48 1606.34,2152.36 1548.39,2170.67 1495.43,2183.66 1447.54,2191.62 1404.75,2194.87 1367.07,2193.81 1334.47,2188.81 1306.89,2180.31 1284.25,2168.73 1266.45,2154.55 1253.36,2138.2 1244.84,2120.15 1240.76,2100.83 1240.95,2080.67 1245.26,2060.07 1253.52,2039.38 1265.58,2018.92 1281.29,1998.96 1300.49,1979.73 1323.05,1961.37 1348.84,1944.02 1377.74,1927.73 1409.65,1912.52 1444.46,1898.36 1482.11,1885.17 1522.5,1872.83 1565.59,1861.2 1611.3,1850.09 1659.58,1839.27 1710.4,1828.51 1763.69,1817.55 1819.41,1806.12 1877.5,1793.93 1937.9,1780.72 2000.54,1766.25 2065.32,1750.28 2132.15,1732.64 2200.9,1713.19 2271.44,1691.86 2343.62,1668.62 2417.24,1643.51 2492.13,1616.63 2568.06,1588.1 2644.81,1558.12 2722.13,1526.88 2799.76,1494.64 2877.45,1461.63 2954.91,1428.12 3031.87,1394.39 3108.05,1360.69 3183.16,1327.31 3256.93,1294.5 3329.07,1262.53 3399.32,1231.65 3467.42,1202.08 3533.11,1174.05 3596.16,1147.74 3656.34,1123.29 3713.44,1100.84 3767.27,1080.44 3817.65,1062.14 3864.41,1045.91 3907.42,1031.71 3946.54,1019.44 3981.66,1008.97 4012.7,1000.17 4039.56,992.876 4062.17,986.924 4080.48,982.163 4094.45,978.452 4104.04,975.673 4109.22,973.739 4109.98,972.596 4106.31,972.227 4098.2,972.655 4085.68,973.943 4068.74,976.19 4047.43,979.528 4021.77,984.117 3991.83,990.138 3957.65,997.786 3919.31,1007.25 3876.92,1018.73 3830.57,1032.39 3780.4,1048.36 3726.54,1066.77 3669.17,1087.65 3608.47,1111.03 3544.64,1136.86 3477.91,1165.05 3408.51,1195.45 3336.71,1227.87 3262.78,1262.07 3187,1297.78 3109.68,1334.69 3031.11,1372.5 2951.61,1410.84 2871.5,1449.38 2791.08,1487.75 2710.68,1525.6 2630.59,1562.58 2551.11,1598.36 2472.52,1632.62 2395.1,1665.08 2319.1,1695.52 2244.74,1723.74 2172.25,1749.61 2101.81,1773.08 2033.59,1794.14 1967.73,1812.88 1904.36,1829.41 1843.58,1843.93 1785.48,1856.67 1730.12,1867.91 1677.57,1877.94 1627.85,1887.06 1581.02,1895.58 1537.11,1903.8 1496.14,1911.98 1458.15,1920.37 1423.18,1929.2 1391.26,1938.64 1362.45,1948.83 1336.8,1959.87 1314.38,1971.81 1295.27,1984.66 1279.55,1998.37 1267.32,2012.85 1258.69,2027.96 1253.78,2043.5 1252.69,2059.22 1255.55,2074.84 1262.5,2090.01 1273.65,2104.37 1289.14,2117.51 1309.06,2129.01 1333.53,2138.42 1362.64,2145.3 1396.45,2149.19 1435.03,2149.66 1478.39,2146.29 1526.53,2138.71 1579.42,2126.56 1636.99,2109.54 1699.15,2087.41 1765.73,2059.99 1836.57,2027.2 1911.43,1989.02 1990.06,1945.57 2072.13,1897.05 2157.32,1843.81 2245.23,1786.34 2335.44,1725.23 2427.5,1661.24 2520.94,1595.23 2615.27,1528.14 2709.98,1461.01 2804.56,1394.87 2898.51,1330.75 2991.32,1269.63 3082.52,1212.36 3171.66,1159.65 3258.31,1112.06 3342.08,1069.94 3422.62,1033.46 3499.63,1002.6 3572.83,977.186 3641.99,956.902 3706.93,941.338 3767.49,930.017 3823.55,922.429 3875.01,918.066 3921.82,916.44 3963.92,917.112 4001.29,919.7 4033.93,923.891 4061.85,929.447 4085.07,936.2 4103.61,944.054 4117.53,952.973 4126.87,962.972 4131.71,974.109 4132.11,986.468 4128.16,1000.14 4119.96,1015.23 4107.62,1031.82 4091.26,1049.94 4071.02,1069.61 4047.05,1090.79 4019.5,1113.39 3988.54,1137.24 3954.37,1162.15 3917.17,1187.87 3877.13,1214.11 3834.48,1240.55 3789.4,1266.87 3742.1,1292.75 3692.8,1317.88 3641.7,1341.98 3588.98,1364.79 3534.84,1386.11 3479.46,1405.76 3423.02,1423.59 3365.66,1439.5 3307.55,1453.42 3248.81,1465.29 3189.58,1475.09 3129.97,1482.79 3070.08,1488.43 3009.99,1492.05 2949.77,1493.74 2889.5,1493.62 2829.2,1491.89 2768.92,1488.83 2708.66,1484.76 2648.44,1480.1 2588.25,1475.32 2528.07,1470.94 2467.89,1467.51 2407.69,1465.56 2347.45,1465.56 2287.17,1467.95 2226.84,1473.08 2166.47,1481.19 2106.11,1492.47 2045.8,1507.01 1985.62,1524.86 1925.66,1546.03 1866.06,1570.52 1806.95,1598.32 1748.53,1629.41 1690.99,1663.74 1634.57,1701.27 1579.53,1741.86 1526.16,1785.35 1474.76,1831.43 1425.67,1879.72 1379.23,1929.7 1335.82,1980.73 1295.81,2032.08 1259.56,2082.96 1227.47,2132.54 1199.88,2180 1177.16,2224.59 1159.62,2265.63 1147.58,2302.57 1141.3,2334.97 1141.02,2362.53 1146.95,2385.05 1159.26,2402.38 1178.08,2414.47 1203.5,2421.24 1235.59,2422.59 1274.36,2418.39 1319.79,2408.42 1371.83,2392.37 1430.38,2369.84 1495.29,2340.37 1566.37,2303.47 1643.37,2258.62 1725.99,2205.41 1813.87,2143.56 1906.58,2073.03 2003.62,1994.1 2104.45,1907.47 2208.45,1814.25 2314.95,1716.03 2423.25,1614.8 2532.6,1512.86 2642.25,1412.64 2751.46,1316.59 2859.5,1226.91 2965.68,1145.43 3069.37,1073.5 3169.99,1011.86 3267.05,960.741 3360.12,919.832 3448.85,888.437 3532.95,865.571 3612.2,850.089 3686.44,840.792 3755.55,836.526 3819.47,836.246 3878.14,839.064 3931.56,844.274 3979.74,851.361 4022.68,860 4060.44,870.037 4093.07,881.474 4120.63,894.439 4143.19,909.153 4160.86,925.9 4173.74,944.991 4181.95,966.723 4185.65,991.346 4185,1019.03 4180.2,1049.84 4171.47,1083.71 4159.03,1120.45 4143.15,1159.7 4124.1,1201.01 4102.18,1243.8 4077.69,1287.43 4050.94,1331.21 4022.23,1374.45 3991.87,1416.49 3960.16,1456.72 3927.38,1494.63 3893.8,1529.79 3859.67,1561.87 3825.22,1590.64 3790.65,1615.96 3756.14,1637.76 3721.86,1656.03 3687.94,1670.78 3654.49,1682.05 3621.61,1689.88 3589.35,1694.29 3557.78,1695.28 3526.91,1692.78 3496.75,1686.72 3467.28,1676.96 3438.47,1663.33 3410.25,1645.65 3382.53,1623.72 3355.2,1597.41 3328.12,1566.64 3301.11,1531.44 3273.99,1492.04 3246.51,1448.88 3218.44,1402.66 3189.48,1354.35 3159.35,1305.17 3127.74,1256.55 3094.34,1210.03 3058.85,1167.16 3020.98,1129.34 2980.48,1097.72 2937.11,1073.11 2890.69,1055.97 2841.08,1046.36 2788.19,1044.07 2731.98,1048.68 2672.46,1059.71 2609.68,1076.67 2543.74,1099.24 2474.79,1127.26 2403.01,1160.82 2328.66,1200.24 2252.01,1246.01 2173.4,1298.72 2093.25,1358.95 2011.99,1427.11 1930.16,1503.25 1848.32,1586.97 1767.11,1677.28 1687.21,1772.56 1609.32,1870.66 1534.17,1969.03 1462.47,2064.97 1394.92,2155.87 1332.18,2239.49 1274.83,2314.14 1223.39,2378.77 1178.31,2433 1139.95,2477.06 1108.61,2511.65 1084.52,2537.77 1067.83,2556.6 1058.67,2569.33 1057.09,2577.07 1063.15,2580.72 1076.86,2580.95 1098.22,2578.15 1127.2,2572.39 1163.77,2563.4 1207.87,2550.59 1259.44,2533.04 1318.37,2509.55 1384.51,2478.66 1457.69,2438.75 1537.64,2388.18 1624.05,2325.46 1716.5,2249.47 1814.49,2159.69 1917.41,2056.49 2024.54,1941.29 2135.09,1816.62 2248.16,1686.05 2362.82,1553.91 2478.1,1424.83 2593.06,1303.29 2706.76,1193.05 2818.37,1096.83 2927.13,1016.08 3032.4,951.049 3133.62,900.908 3230.37,864.064 3322.32,838.466 3409.22,821.895 3490.89,812.206 3567.21,807.485 3638.11,806.162 3703.54,807.052 3763.48,809.374 3817.94,812.735 3866.91,817.099 3910.42,822.748 "/>
<polyline clip-path="url(#clip032)" style="stroke:#c271d2; stroke-linecap:round; stroke-linejoin:round; stroke-width:12; stroke-opacity:1; fill:none" stroke-dasharray="48, 30" points="2387.29,1469.07 2389.12,1469.07 2392.77,1469.07 2398.25,1469.07 2405.55,1469.07 2414.68,1469.07 2425.64,1469.07 2438.42,1469.07 2453.02,1469.07 2469.45,1469.07 2487.7,1469.07 2507.78,1469.07 2529.67,1469.07 2553.38,1469.07 2578.91,1469.07 2606.25,1469.07 2635.4,1469.07 2666.36,1469.07 2699.12,1469.07 2733.68,1469.07 2770.02,1469.07 2808.16,1469.07 2848.07,1469.07 2889.76,1469.07 2933.21,1469.07 2978.42,1469.07 3025.38,1469.07 3074.09,1469.07 3124.52,1469.07 3176.68,1469.07 3230.56,1469.07 3285.62,1469.07 3340.81,1469.07 3395.52,1469.07 3449.65,1469.07 3503.06,1469.07 3555.61,1469.07 3607.14,1469.07 3657.49,1469.07 3706.47,1469.07 3753.9,1469.07 3799.57,1469.07 3843.28,1469.07 3884.82,1469.07 3923.96,1469.07 3960.49,1469.07 3994.21,1469.07 4024.9,1469.07 4052.36,1469.07 4076.39,1469.07 4096.83,1469.07 4113.49,1469.07 4126.23,1469.07 4134.9,1469.07 4139.36,1469.07 4139.52,1469.07 4135.26,1469.07 4126.49,1469.07 4113.14,1469.07 4095.13,1469.07 4072.42,1469.07 4044.95,1469.07 4012.7,1469.07 3975.64,1469.07 3933.77,1469.07 3887.09,1469.07 3835.63,1469.07 3779.45,1469.07 3718.62,1469.07 3653.25,1469.07 3583.48,1469.07 3509.48,1469.07 3431.48,1469.07 3349.74,1469.07 3264.56,1469.07 3176.31,1469.07 3085.37,1469.07 2992.18,1469.07 2897.23,1469.07 2801,1469.07 2704.03,1469.07 2606.86,1469.07 2510.04,1469.07 2414.1,1469.07 2319.58,1469.07 2227,1469.07 2136.83,1469.07 2049.53,1469.07 1965.52,1469.07 1885.17,1469.07 1808.81,1469.07 1736.73,1469.07 1669.18,1469.07 1606.34,1469.07 1548.39,1469.07 1495.43,1469.07 1447.54,1469.07 1404.75,1469.07 1367.07,1469.07 1334.47,1469.07 1306.89,1469.07 1284.25,1469.07 1266.45,1469.07 1253.36,1469.07 1244.84,1469.07 1240.76,1469.07 1240.95,1469.07 1245.26,1469.07 1253.52,1469.07 1265.58,1469.07 1281.29,1469.07 1300.49,1469.07 1323.05,1469.07 1348.84,1469.07 1377.74,1469.07 1409.65,1469.07 1444.46,1469.07 1482.11,1469.07 1522.5,1469.07 1565.59,1469.07 1611.3,1469.07 1659.58,1469.07 1710.4,1469.07 1763.69,1469.07 1819.41,1469.07 1877.5,1469.07 1937.9,1469.07 2000.54,1469.07 2065.32,1469.07 2132.15,1469.07 2200.9,1469.07 2271.44,1469.07 2343.62,1469.07 2417.24,1469.07 2492.13,1469.07 2568.06,1469.07 2644.81,1469.07 2722.13,1469.07 2799.76,1469.07 2877.45,1469.07 2954.91,1469.07 3031.87,1469.07 3108.05,1469.07 3183.16,1469.07 3256.93,1469.07 3329.07,1469.07 3399.32,1469.07 3467.42,1469.07 3533.11,1469.07 3596.16,1469.07 3656.34,1469.07 3713.44,1469.07 3767.27,1469.07 3817.65,1469.07 3864.41,1469.07 3907.42,1469.07 3946.54,1469.07 3981.66,1469.07 4012.7,1469.07 4039.56,1469.07 4062.17,1469.07 4080.48,1469.07 4094.45,1469.07 4104.04,1469.07 4109.22,1469.07 4109.98,1469.07 4106.31,1469.07 4098.2,1469.07 4085.68,1469.07 4068.74,1469.07 4047.43,1469.07 4021.77,1469.07 3991.83,1469.07 3957.65,1469.07 3919.31,1469.07 3876.92,1469.07 3830.57,1469.07 3780.4,1469.07 3726.54,1469.07 3669.17,1469.07 3608.47,1469.07 3544.64,1469.07 3477.91,1469.07 3408.51,1469.07 3336.71,1469.07 3262.78,1469.07 3187,1469.07 3109.68,1469.07 3031.11,1469.07 2951.61,1469.07 2871.5,1469.07 2791.08,1469.07 2710.68,1469.07 2630.59,1469.07 2551.11,1469.07 2472.52,1469.07 2395.1,1469.07 2319.1,1469.07 2244.74,1469.07 2172.25,1469.07 2101.81,1469.07 2033.59,1469.07 1967.73,1469.07 1904.36,1469.07 1843.58,1469.07 1785.48,1469.07 1730.12,1469.07 1677.57,1469.07 1627.85,1469.07 1581.02,1469.07 1537.11,1469.07 1496.14,1469.07 1458.15,1469.07 1423.18,1469.07 1391.26,1469.07 1362.45,1469.07 1336.8,1469.07 1314.38,1469.07 1295.27,1469.07 1279.55,1469.07 1267.32,1469.07 1258.69,1469.07 1253.78,1469.07 1252.69,1469.07 1255.55,1469.07 1262.5,1469.07 1273.65,1469.07 1289.14,1469.07 1309.06,1469.07 1333.53,1469.07 1362.64,1469.07 1396.45,1469.07 1435.03,1469.07 1478.39,1469.07 1526.53,1469.07 1579.42,1469.07 1636.99,1469.07 1699.15,1469.07 1765.73,1469.07 1836.57,1469.07 1911.43,1469.07 1990.06,1469.07 2072.13,1469.07 2157.32,1469.07 2245.23,1469.07 2335.44,1469.07 2427.5,1469.07 2520.94,1469.07 2615.27,1469.07 2709.98,1469.07 2804.56,1469.07 2898.51,1469.07 2991.32,1469.07 3082.52,1469.07 3171.66,1469.07 3258.31,1469.07 3342.08,1469.07 3422.62,1469.07 3499.63,1469.07 3572.83,1469.07 3641.99,1469.07 3706.93,1469.07 3767.49,1469.07 3823.55,1469.07 3875.01,1469.07 3921.82,1469.07 3963.92,1469.07 4001.29,1469.07 4033.93,1469.07 4061.85,1469.07 4085.07,1469.07 4103.61,1469.07 4117.53,1469.07 4126.87,1469.07 4131.71,1469.07 4132.11,1469.07 4128.16,1469.07 4119.96,1469.07 4107.62,1469.07 4091.26,1469.07 4071.02,1469.07 4047.05,1469.07 4019.5,1469.07 3988.54,1469.07 3954.37,1469.07 3917.17,1469.07 3877.13,1469.07 3834.48,1469.07 3789.4,1469.07 3742.1,1469.07 3692.8,1469.07 3641.7,1469.07 3588.98,1469.07 3534.84,1469.07 3479.46,1469.07 3423.02,1469.07 3365.66,1469.07 3307.55,1469.07 3248.81,1469.07 3189.58,1469.07 3129.97,1469.07 3070.08,1469.07 3009.99,1469.07 2949.77,1469.07 2889.5,1469.07 2829.2,1469.07 2768.92,1469.07 2708.66,1469.07 2648.44,1469.07 2588.25,1469.07 2528.07,1469.07 2467.89,1469.07 2407.69,1469.07 2347.45,1469.07 2287.17,1469.07 2226.84,1469.07 2166.47,1469.07 2106.11,1469.07 2045.8,1469.07 1985.62,1469.07 1925.66,1469.07 1866.06,1469.07 1806.95,1469.07 1748.53,1469.07 1690.99,1469.07 1634.57,1469.07 1579.53,1469.07 1526.16,1469.07 1474.76,1469.07 1425.67,1469.07 1379.23,1469.07 1335.82,1469.07 1295.81,1469.07 1259.56,1469.07 1227.47,1469.07 1199.88,1469.07 1177.16,1469.07 1159.62,1469.07 1147.58,1469.07 1141.3,1469.07 1141.02,1469.07 1146.95,1469.07 1159.26,1469.07 1178.08,1469.07 1203.5,1469.07 1235.59,1469.07 1274.36,1469.07 1319.79,1469.07 1371.83,1469.07 1430.38,1469.07 1495.29,1469.07 1566.37,1469.07 1643.37,1469.07 1725.99,1469.07 1813.87,1469.07 1906.58,1469.07 2003.62,1469.07 2104.45,1469.07 2208.45,1469.07 2314.95,1469.07 2423.25,1469.07 2532.6,1469.07 2642.25,1469.07 2751.46,1469.07 2859.5,1469.07 2965.68,1469.07 3069.37,1469.07 3169.99,1469.07 3267.05,1469.07 3360.12,1469.07 3448.85,1469.07 3532.95,1469.07 3612.2,1469.07 3686.44,1469.07 3755.55,1469.07 3819.47,1469.07 3878.14,1469.07 3931.56,1469.07 3979.74,1469.07 4022.68,1469.07 4060.44,1469.07 4093.07,1469.07 4120.63,1469.07 4143.19,1469.07 4160.86,1469.07 4173.74,1469.07 4181.95,1469.07 4185.65,1469.07 4185,1469.07 4180.2,1469.07 4171.47,1469.07 4159.03,1469.07 4143.15,1469.07 4124.1,1469.07 4102.18,1469.07 4077.69,1469.07 4050.94,1469.07 4022.23,1469.07 3991.87,1469.07 3960.16,1469.07 3927.38,1469.07 3893.8,1469.07 3859.67,1469.07 3825.22,1469.07 3790.65,1469.07 3756.14,1469.07 3721.86,1469.07 3687.94,1469.07 3654.49,1469.07 3621.61,1469.07 3589.35,1469.07 3557.78,1469.07 3526.91,1469.07 3496.75,1469.07 3467.28,1469.07 3438.47,1469.07 3410.25,1469.07 3382.53,1469.07 3355.2,1469.07 3328.12,1469.07 3301.11,1469.07 3273.99,1469.07 3246.51,1469.07 3218.44,1469.07 3189.48,1469.07 3159.35,1469.07 3127.74,1469.07 3094.34,1469.07 3058.85,1469.07 3020.98,1469.07 2980.48,1469.07 2937.11,1469.07 2890.69,1469.07 2841.08,1469.07 2788.19,1469.07 2731.98,1469.07 2672.46,1469.07 2609.68,1469.07 2543.74,1469.07 2474.79,1469.07 2403.01,1469.07 2328.66,1469.07 2252.01,1469.07 2173.4,1469.07 2093.25,1469.07 2011.99,1469.07 1930.16,1469.07 1848.32,1469.07 1767.11,1469.07 1687.21,1469.07 1609.32,1469.07 1534.17,1469.07 1462.47,1469.07 1394.92,1469.07 1332.18,1469.07 1274.83,1469.07 1223.39,1469.07 1178.31,1469.07 1139.95,1469.07 1108.61,1469.07 1084.52,1469.07 1067.83,1469.07 1058.67,1469.07 1057.09,1469.07 1063.15,1469.07 1076.86,1469.07 1098.22,1469.07 1127.2,1469.07 1163.77,1469.07 1207.87,1469.07 1259.44,1469.07 1318.37,1469.07 1384.51,1469.07 1457.69,1469.07 1537.64,1469.07 1624.05,1469.07 1716.5,1469.07 1814.49,1469.07 1917.41,1469.07 2024.54,1469.07 2135.09,1469.07 2248.16,1469.07 2362.82,1469.07 2478.1,1469.07 2593.06,1469.07 2706.76,1469.07 2818.37,1469.07 2927.13,1469.07 3032.4,1469.07 3133.62,1469.07 3230.37,1469.07 3322.32,1469.07 3409.22,1469.07 3490.89,1469.07 3567.21,1469.07 3638.11,1469.07 3703.54,1469.07 3763.48,1469.07 3817.94,1469.07 3866.91,1469.07 3910.42,1469.07 "/>
<polyline clip-path="url(#clip032)" style="stroke:#ac8d18; stroke-linecap:round; stroke-linejoin:round; stroke-width:12; stroke-opacity:1; fill:none" points="2496.41,1798.22 2500.07,1797.05 2507.39,1794.72 2518.32,1791.24 2532.8,1786.63 2550.77,1780.94 2572.13,1774.21 2596.77,1766.5 2624.58,1757.86 2655.41,1748.37 2689.12,1738.13 2725.53,1727.22 2764.49,1715.76 2805.79,1703.86 2849.25,1691.65 2894.68,1679.26 2941.87,1666.82 2990.63,1654.48 3040.75,1642.36 3092.04,1630.61 3144.31,1619.36 3197.37,1608.73 3251.04,1598.83 3305.17,1589.77 3359.6,1581.64 3414.2,1574.53 3468.84,1568.49 3523.42,1563.59 3577.86,1559.87 3632.09,1557.36 3686.05,1556.09 3737.72,962.002 3783.12,970.388 3820.34,982.572 3849.53,997.985 3870.9,1016.17 3884.72,1036.76 3891.29,1059.47 3890.95,1084.09 3884.07,1110.41 3871.06,1138.26 3852.35,1167.47 3828.39,1197.84 3799.66,1229.16 3766.64,1261.2 3729.85,1293.69 3689.78,1326.37 3646.96,1358.94 3601.91,1391.13 3555.12,1422.65 3507.1,1453.26 3458.34,1482.72 3409.31,1510.82 3360.46,1537.39 3312.2,1562.26 3264.95,1585.32 3219.08,1606.44 3174.92,1625.51 3132.8,1642.42 3093,1657.05 3055.76,1669.27 3021.29,1678.94 2989.77,1685.87 2961.33,1689.87 2936.06,1690.75 2914,1688.29 2895.14,1682.28 2879.41,1672.53 2866.7,1658.89 2856.83,1641.29 2849.54,1619.73 2844.55,1594.32 2841.49,1565.32 2839.93,1533.12 2839.41,1498.26 2839.41,1461.45 2839.39,1423.52 2838.77,1385.38 2836.99,1348.02 2833.48,1312.44 2827.69,1279.6 2819.13,1250.38 2807.33,1225.54 2791.91,1205.66 2772.55,1191.21 2749.03,1182.43 2721.19,1179.46 2688.98,1182.23 2652.42,1190.6 2611.62,1204.28 2566.78,1222.93 2518.19,1246.12 2466.17,1273.38 2411.14,1304.2 2353.57,1338.07 2293.97,1374.44 2232.89,1412.78 2170.91,1452.56 2108.64,1493.25 2046.72,1534.37 1985.75,1575.43 1926.39,1615.99 1869.25,1655.65 1814.95,1694.02 1764.07,1730.74 1717.19,1765.48 1674.85,1797.95 1637.55,1827.85 1605.75,1854.92 1579.89,1878.89 1560.35,1899.49 1547.44,1916.47 1541.46,1929.55 1542.6,1938.46 1551.02,1942.93 1566.82,1942.68 1589.99,1937.46 1620.48,1927.01 1658.15,1911.15 1702.77,1889.75 1754.03,1862.78 1811.53,1830.3 1874.8,1792.54 1943.25,1749.9 2016.26,1702.92 2093.1,1652.35 2173.01,1599.09 2255.17,1544.17 2338.72,1488.71 2422.82,1433.9 2506.61,1380.89 2589.26,1330.77 2669.97,1284.52 2748.01,1242.97 2822.72,1206.77 2893.52,1176.35 2959.89,1152.01 3021.44,1133.82 3077.86,1121.73 3128.92,1115.54 3174.49,1114.97 3214.55,1119.63 3249.12,1129.09 3278.34,1142.87 3302.37,1160.45 3321.48,1181.29 3335.95,1204.86 3346.14,1230.6 3352.41,1257.95 3355.16,1286.37 3354.83,1315.36 3351.84,1344.41 3346.61,1373.07 3339.59,1400.93 3331.19,1427.6 3321.81,1452.79 3311.82,1476.21 3301.57,1497.65 3291.4,1516.93 3281.58,1533.94 3272.38,1548.57 3264.02,1560.76 3256.67,1570.46 3250.49,1577.65 3245.58,1582.31 3242.03,1584.43 3239.85,1584 3239.05,1581.02 3239.59,1575.49 3241.38,1567.41 3244.3,1556.8 3248.2,1543.68 3252.89,1528.11 3258.14,1510.17 3263.67,1489.97 3269.2,1467.67 3274.38,1443.49 3278.87,1417.68 3282.27,1390.56 3284.18,1362.52 3284.2,1333.98 3281.9,1305.41 3276.85,1277.34 3268.64,1250.32 3256.88,1224.9 3241.2,1201.68 3221.26,1181.23 3196.77,1164.1 3167.49,1150.84 3133.24,1141.94 3093.91,1137.86 3049.47,1138.98 2999.95,1145.61 2945.48,1157.97 2886.3,1176.15 2822.69,1200.13 2755.05,1229.72 2683.87,1264.6 2609.7,1304.25 2533.17,1348.02 2454.97,1395.12 2375.84,1444.62 2296.55,1495.53 2217.87,1546.81 2140.62,1597.45 2065.55,1646.48 1993.43,1693 1924.95,1736.28 1860.78,1775.68 1801.5,1810.73 1747.64,1841.13 1699.65,1866.66 1657.91,1887.26 1622.71,1902.95 1594.29,1913.81 1572.8,1920 1558.3,1921.68 1550.83,1919.06 1550.32,1912.32 1556.65,1901.68 1569.66,1887.31 1589.11,1869.41 1614.73,1848.17 1646.17,1823.77 1683.07,1796.41 1724.99,1766.3 1771.47,1733.67 1822.01,1698.8 1876.07,1661.98 1933.09,1623.55 1992.48,1583.91 2053.63,1543.49 2115.92,1502.76 2178.74,1462.25 2241.46,1422.51 2303.48,1384.1 2364.22,1347.61 2423.11,1313.64 2479.65,1282.73 2533.37,1255.45 2583.86,1232.3 2630.77,1213.73 2673.82,1200.12 2712.82,1191.77 2747.64,1188.88 2778.25,1191.53 2804.69,1199.68 2827.11,1213.14 2845.7,1231.6 2860.76,1254.58 2872.63,1281.48 2881.73,1311.57 2888.51,1344.05 2893.47,1378.06 2897.1,1412.71 2899.94,1447.16 2902.48,1480.6 2905.23,1512.32 2908.64,1541.75 2913.15,1568.4 2919.14,1591.92 2926.93,1612.1 2936.83,1628.82 2949.05,1642.04 2963.77,1651.82 2981.11,1658.24 3001.16,1661.44 3023.92,1661.58 3049.38,1658.79 3077.47,1653.24 3108.09,1645.05 3141.09,1634.36 3176.28,1621.28 3213.44,1605.9 3252.31,1588.31 3292.62,1568.62 3334.04,1546.89 3376.22,1523.26 3418.78,1497.83 3461.32,1470.76 3503.4,1442.23 3544.59,1412.43 3584.4,1381.61 3622.35,1350.03 3657.94,1317.96 3690.68,1285.71 3720.06,1253.58 3745.57,1221.85 3766.72,1190.83 3783.04,1160.8 3794.05,1132 3799.32,1104.72 3798.43,1079.2 3790.99,1055.71 3776.66,1034.56 3755.12,1016.09 3726.11,1000.7 3689.41,988.868 3644.89,981.175 3592.44,978.28 3532.08,980.921 3463.88,989.897 3388.04,1006.02 3304.86,1030.07 3214.78,1062.68 3118.35,1104.3 3016.29,1155.09 2909.44,1214.8 2798.78,1282.76 2685.41,1357.84 2570.54,1438.45 2455.47,1522.64 2341.52,1608.2 2230.05,1692.83 2122.37,1774.27 2019.76,1850.44 1923.39,1919.59 1834.34,1980.34 1753.52,2031.74 1681.72,2073.19 1619.57,2104.48 1567.53,2125.65 1525.9,2136.97 1494.83,2138.84 1474.33,2131.78 1464.27,2116.38 1464.39,2093.29 1474.29,2063.19 1493.5,2026.82 1521.43,1984.97 1557.41,1938.48 1600.68,1888.24 1650.46,1835.15 1705.89,1780.12 1766.11,1724.03 1830.21,1667.73 1897.31,1611.94 1966.51,1557.3 2036.94,1504.35 2107.76,1453.48 2178.17,1404.99 2247.39,1359.08 2314.7,1315.87 2379.41,1275.45 2440.88,1237.89 2498.52,1203.27 2551.8,1171.7 2600.23,1143.38 2643.37,1118.56 2680.86,1097.62 2712.39,1081.03 2737.72,1069.37 2756.7,1063.33 2769.28,1063.64 2775.48,1071.06 2775.48,1086.28 2769.56,1109.85 2758.11,1142.1 2741.69,1182.99 2720.96,1232.09 2696.74,1288.5 2669.91,1350.86 2641.48,1417.42 2612.48,1486.13 2583.99,1554.81 2557.07,1621.31 2532.75,1683.67 2511.96,1740.23 2495.57,1789.75 2484.32,1831.4 2478.81,1864.77 2479.54,1889.83 2486.85,1906.8 2500.97,1916.15 2522.01,1918.46 2549.97,1914.4 2584.74,1904.65 2626.15,1889.88 2673.92,1870.72 2727.73,1847.74 2787.19,1821.46 2851.86,1792.35 2921.26,1760.81 2994.86,1727.21 3072.13,1691.88 3152.47,1655.12 3235.29,1617.24 3319.99,1578.53 3405.91,1539.29 3492.44,1499.84 3578.93,1460.52 3664.74,1421.69 3749.24,1383.72 3831.81,1346.97 3911.85,1311.78 3988.8,1278.47 4062.09,1247.28 4131.23,1218.41 4195.74,1191.94 4255.17,1167.89 4309.14,1146.17 4357.27,1126.61 4399.26,1108.97 4434.8,1092.96 4463.63,1078.22 4485.5,1064.42 4500.2,1051.2 4507.51,1038.24 4507.23,1025.27 4499.14,1012.08 4483.07,998.576 4458.8,984.763 4426.13,970.799 4384.87,957.003 4334.82,943.888 4275.83,932.176 4207.74,922.819 4130.45,917.004 4043.94,916.141 3948.24,921.829 3843.51,935.791 3730.05,959.772 3608.31,995.397 3478.93,1043.99 3342.75,1106.39 3200.83,1182.75 3054.43,1272.38 2905.03,1373.7 2754.27,1484.25 2603.92,1600.83 2455.85,1719.77 2311.94,1837.25 2174.03,1949.62 2043.89,2053.67 1923.15,2146.88 1813.25,2227.42 1715.44,2294.19 1630.76,2346.65 1560.01,2384.69 1503.77,2408.45 1462.41,2418.13 1436.07,2413.96 1424.68,2396.1 1427.94,2364.7 1445.37,2320 1476.27,2262.42 1519.72,2192.76 1574.63,2112.28 1639.75,2022.79 1713.66,1926.65 1794.85,1826.63 1881.74,1725.75 1972.71,1627 2066.2,1533.08 2160.7,1446.19 2254.8,1367.9 2347.23,1299.02 2436.85,1239.72 2522.68,1189.58 2603.89,1147.74 2679.76,1113.1 2749.72,1084.41 2813.27,1060.4 2870,1039.93 2919.55,1021.98 2961.64,1005.76 2995.99,990.712 3022.36,976.54 3040.54,963.245 3050.33,951.136 3051.57,940.861 3044.12,933.415 3027.91,930.15 3002.95,932.747 2969.32,943.154 2927.26,963.466 2877.17,995.737 2819.62,1041.73 2755.4,1102.63 2685.56,1178.72 2611.33,1269.15 2534.2,1371.85 2455.81,1483.52 2377.94,1599.99 2302.41,1716.58 2231.04,1828.64 2165.58,1932.04 2107.61,2023.53 2058.54,2100.95 2019.53,2163.2 1991.52,2210.13 1975.21,2242.31 1971.06,2260.74 1979.31,2266.68 2000.03,2261.4 2033.09,2246.13 2078.24,2221.94 2135.05,2189.77 2203.01,2150.43 2281.47,2104.64 2369.7,2053.1 "/>
<polyline clip-path="url(#clip032)" style="stroke:#00a9ad; stroke-linecap:round; stroke-linejoin:round; stroke-width:12; stroke-opacity:1; fill:none" stroke-dasharray="48, 30" points="2496.41,1451.42 2500.07,1451.42 2507.39,1451.42 2518.32,1451.42 2532.8,1451.42 2550.77,1451.42 2572.13,1451.42 2596.77,1451.42 2624.58,1451.42 2655.41,1451.42 2689.12,1451.42 2725.53,1451.42 2764.49,1451.42 2805.79,1451.42 2849.25,1451.42 2894.68,1451.42 2941.87,1451.42 2990.63,1451.42 3040.75,1451.42 3092.04,1451.42 3144.31,1451.42 3197.37,1451.42 3251.04,1451.42 3305.17,1451.42 3359.6,1451.42 3414.2,1451.42 3468.84,1451.42 3523.42,1451.42 3577.86,1451.42 3632.09,1451.42 3686.05,1451.42 3737.72,1451.42 3783.12,1451.42 3820.34,1451.42 3849.53,1451.42 3870.9,1451.42 3884.72,1451.42 3891.29,1451.42 3890.95,1451.42 3884.07,1451.42 3871.06,1451.42 3852.35,1451.42 3828.39,1451.42 3799.66,1451.42 3766.64,1451.42 3729.85,1451.42 3689.78,1451.42 3646.96,1451.42 3601.91,1451.42 3555.12,1451.42 3507.1,1451.42 3458.34,1451.42 3409.31,1451.42 3360.46,1451.42 3312.2,1451.42 3264.95,1451.42 3219.08,1451.42 3174.92,1451.42 3132.8,1451.42 3093,1451.42 3055.76,1451.42 3021.29,1451.42 2989.77,1451.42 2961.33,1451.42 2936.06,1451.42 2914,1451.42 2895.14,1451.42 2879.41,1451.42 2866.7,1451.42 2856.83,1451.42 2849.54,1451.42 2844.55,1451.42 2841.49,1451.42 2839.93,1451.42 2839.41,1451.42 2839.41,1451.42 2839.39,1451.42 2838.77,1451.42 2836.99,1451.42 2833.48,1451.42 2827.69,1451.42 2819.13,1451.42 2807.33,1451.42 2791.91,1451.42 2772.55,1451.42 2749.03,1451.42 2721.19,1451.42 2688.98,1451.42 2652.42,1451.42 2611.62,1451.42 2566.78,1451.42 2518.19,1451.42 2466.17,1451.42 2411.14,1451.42 2353.57,1451.42 2293.97,1451.42 2232.89,1451.42 2170.91,1451.42 2108.64,1451.42 2046.72,1451.42 1985.75,1451.42 1926.39,1451.42 1869.25,1451.42 1814.95,1451.42 1764.07,1451.42 1717.19,1451.42 1674.85,1451.42 1637.55,1451.42 1605.75,1451.42 1579.89,1451.42 1560.35,1451.42 1547.44,1451.42 1541.46,1451.42 1542.6,1451.42 1551.02,1451.42 1566.82,1451.42 1589.99,1451.42 1620.48,1451.42 1658.15,1451.42 1702.77,1451.42 1754.03,1451.42 1811.53,1451.42 1874.8,1451.42 1943.25,1451.42 2016.26,1451.42 2093.1,1451.42 2173.01,1451.42 2255.17,1451.42 2338.72,1451.42 2422.82,1451.42 2506.61,1451.42 2589.26,1451.42 2669.97,1451.42 2748.01,1451.42 2822.72,1451.42 2893.52,1451.42 2959.89,1451.42 3021.44,1451.42 3077.86,1451.42 3128.92,1451.42 3174.49,1451.42 3214.55,1451.42 3249.12,1451.42 3278.34,1451.42 3302.37,1451.42 3321.48,1451.42 3335.95,1451.42 3346.14,1451.42 3352.41,1451.42 3355.16,1451.42 3354.83,1451.42 3351.84,1451.42 3346.61,1451.42 3339.59,1451.42 3331.19,1451.42 3321.81,1451.42 3311.82,1451.42 3301.57,1451.42 3291.4,1451.42 3281.58,1451.42 3272.38,1451.42 3264.02,1451.42 3256.67,1451.42 3250.49,1451.42 3245.58,1451.42 3242.03,1451.42 3239.85,1451.42 3239.05,1451.42 3239.59,1451.42 3241.38,1451.42 3244.3,1451.42 3248.2,1451.42 3252.89,1451.42 3258.14,1451.42 3263.67,1451.42 3269.2,1451.42 3274.38,1451.42 3278.87,1451.42 3282.27,1451.42 3284.18,1451.42 3284.2,1451.42 3281.9,1451.42 3276.85,1451.42 3268.64,1451.42 3256.88,1451.42 3241.2,1451.42 3221.26,1451.42 3196.77,1451.42 3167.49,1451.42 3133.24,1451.42 3093.91,1451.42 3049.47,1451.42 2999.95,1451.42 2945.48,1451.42 2886.3,1451.42 2822.69,1451.42 2755.05,1451.42 2683.87,1451.42 2609.7,1451.42 2533.17,1451.42 2454.97,1451.42 2375.84,1451.42 2296.55,1451.42 2217.87,1451.42 2140.62,1451.42 2065.55,1451.42 1993.43,1451.42 1924.95,1451.42 1860.78,1451.42 1801.5,1451.42 1747.64,1451.42 1699.65,1451.42 1657.91,1451.42 1622.71,1451.42 1594.29,1451.42 1572.8,1451.42 1558.3,1451.42 1550.83,1451.42 1550.32,1451.42 1556.65,1451.42 1569.66,1451.42 1589.11,1451.42 1614.73,1451.42 1646.17,1451.42 1683.07,1451.42 1724.99,1451.42 1771.47,1451.42 1822.01,1451.42 1876.07,1451.42 1933.09,1451.42 1992.48,1451.42 2053.63,1451.42 2115.92,1451.42 2178.74,1451.42 2241.46,1451.42 2303.48,1451.42 2364.22,1451.42 2423.11,1451.42 2479.65,1451.42 2533.37,1451.42 2583.86,1451.42 2630.77,1451.42 2673.82,1451.42 2712.82,1451.42 2747.64,1451.42 2778.25,1451.42 2804.69,1451.42 2827.11,1451.42 2845.7,1451.42 2860.76,1451.42 2872.63,1451.42 2881.73,1451.42 2888.51,1451.42 2893.47,1451.42 2897.1,1451.42 2899.94,1451.42 2902.48,1451.42 2905.23,1451.42 2908.64,1451.42 2913.15,1451.42 2919.14,1451.42 2926.93,1451.42 2936.83,1451.42 2949.05,1451.42 2963.77,1451.42 2981.11,1451.42 3001.16,1451.42 3023.92,1451.42 3049.38,1451.42 3077.47,1451.42 3108.09,1451.42 3141.09,1451.42 3176.28,1451.42 3213.44,1451.42 3252.31,1451.42 3292.62,1451.42 3334.04,1451.42 3376.22,1451.42 3418.78,1451.42 3461.32,1451.42 3503.4,1451.42 3544.59,1451.42 3584.4,1451.42 3622.35,1451.42 3657.94,1451.42 3690.68,1451.42 3720.06,1451.42 3745.57,1451.42 3766.72,1451.42 3783.04,1451.42 3794.05,1451.42 3799.32,1451.42 3798.43,1451.42 3790.99,1451.42 3776.66,1451.42 3755.12,1451.42 3726.11,1451.42 3689.41,1451.42 3644.89,1451.42 3592.44,1451.42 3532.08,1451.42 3463.88,1451.42 3388.04,1451.42 3304.86,1451.42 3214.78,1451.42 3118.35,1451.42 3016.29,1451.42 2909.44,1451.42 2798.78,1451.42 2685.41,1451.42 2570.54,1451.42 2455.47,1451.42 2341.52,1451.42 2230.05,1451.42 2122.37,1451.42 2019.76,1451.42 1923.39,1451.42 1834.34,1451.42 1753.52,1451.42 1681.72,1451.42 1619.57,1451.42 1567.53,1451.42 1525.9,1451.42 1494.83,1451.42 1474.33,1451.42 1464.27,1451.42 1464.39,1451.42 1474.29,1451.42 1493.5,1451.42 1521.43,1451.42 1557.41,1451.42 1600.68,1451.42 1650.46,1451.42 1705.89,1451.42 1766.11,1451.42 1830.21,1451.42 1897.31,1451.42 1966.51,1451.42 2036.94,1451.42 2107.76,1451.42 2178.17,1451.42 2247.39,1451.42 2314.7,1451.42 2379.41,1451.42 2440.88,1451.42 2498.52,1451.42 2551.8,1451.42 2600.23,1451.42 2643.37,1451.42 2680.86,1451.42 2712.39,1451.42 2737.72,1451.42 2756.7,1451.42 2769.28,1451.42 2775.48,1451.42 2775.48,1451.42 2769.56,1451.42 2758.11,1451.42 2741.69,1451.42 2720.96,1451.42 2696.74,1451.42 2669.91,1451.42 2641.48,1451.42 2612.48,1451.42 2583.99,1451.42 2557.07,1451.42 2532.75,1451.42 2511.96,1451.42 2495.57,1451.42 2484.32,1451.42 2478.81,1451.42 2479.54,1451.42 2486.85,1451.42 2500.97,1451.42 2522.01,1451.42 2549.97,1451.42 2584.74,1451.42 2626.15,1451.42 2673.92,1451.42 2727.73,1451.42 2787.19,1451.42 2851.86,1451.42 2921.26,1451.42 2994.86,1451.42 3072.13,1451.42 3152.47,1451.42 3235.29,1451.42 3319.99,1451.42 3405.91,1451.42 3492.44,1451.42 3578.93,1451.42 3664.74,1451.42 3749.24,1451.42 3831.81,1451.42 3911.85,1451.42 3988.8,1451.42 4062.09,1451.42 4131.23,1451.42 4195.74,1451.42 4255.17,1451.42 4309.14,1451.42 4357.27,1451.42 4399.26,1451.42 4434.8,1451.42 4463.63,1451.42 4485.5,1451.42 4500.2,1451.42 4507.51,1451.42 4507.23,1451.42 4499.14,1451.42 4483.07,1451.42 4458.8,1451.42 4426.13,1451.42 4384.87,1451.42 4334.82,1451.42 4275.83,1451.42 4207.74,1451.42 4130.45,1451.42 4043.94,1451.42 3948.24,1451.42 3843.51,1451.42 3730.05,1451.42 3608.31,1451.42 3478.93,1451.42 3342.75,1451.42 3200.83,1451.42 3054.43,1451.42 2905.03,1451.42 2754.27,1451.42 2603.92,1451.42 2455.85,1451.42 2311.94,1451.42 2174.03,1451.42 2043.89,1451.42 1923.15,1451.42 1813.25,1451.42 1715.44,1451.42 1630.76,1451.42 1560.01,1451.42 1503.77,1451.42 1462.41,1451.42 1436.07,1451.42 1424.68,1451.42 1427.94,1451.42 1445.37,1451.42 1476.27,1451.42 1519.72,1451.42 1574.63,1451.42 1639.75,1451.42 1713.66,1451.42 1794.85,1451.42 1881.74,1451.42 1972.71,1451.42 2066.2,1451.42 2160.7,1451.42 2254.8,1451.42 2347.23,1451.42 2436.85,1451.42 2522.68,1451.42 2603.89,1451.42 2679.76,1451.42 2749.72,1451.42 2813.27,1451.42 2870,1451.42 2919.55,1451.42 2961.64,1451.42 2995.99,1451.42 3022.36,1451.42 3040.54,1451.42 3050.33,1451.42 3051.57,1451.42 3044.12,1451.42 3027.91,1451.42 3002.95,1451.42 2969.32,1451.42 2927.26,1451.42 2877.17,1451.42 2819.62,1451.42 2755.4,1451.42 2685.56,1451.42 2611.33,1451.42 2534.2,1451.42 2455.81,1451.42 2377.94,1451.42 2302.41,1451.42 2231.04,1451.42 2165.58,1451.42 2107.61,1451.42 2058.54,1451.42 2019.53,1451.42 1991.52,1451.42 1975.21,1451.42 1971.06,1451.42 1979.31,1451.42 2000.03,1451.42 2033.09,1451.42 2078.24,1451.42 2135.05,1451.42 2203.01,1451.42 2281.47,1451.42 2369.7,1451.42 "/>
<path clip-path="url(#clip030)" d="M1075.5 1133.51 L1719.28 1133.51 L1719.28 453.111 L1075.5 453.111  Z" fill="#ffffff" fill-rule="evenodd" fill-opacity="1"/>
<polyline clip-path="url(#clip030)" style="stroke:#000000; stroke-linecap:round; stroke-linejoin:round; stroke-width:4; stroke-opacity:1; fill:none" points="1075.5,1133.51 1719.28,1133.51 1719.28,453.111 1075.5,453.111 1075.5,1133.51 "/>
<polyline clip-path="url(#clip030)" style="stroke:#009af9; stroke-linecap:round; stroke-linejoin:round; stroke-width:22.5; stroke-opacity:1; fill:none" points="1116.13,550.311 1359.96,550.311 "/>
<path clip-path="url(#clip030)" d="M1409.37 525.116 L1409.37 549.465 L1420.39 549.465 Q1426.51 549.465 1429.86 546.296 Q1433.2 543.128 1433.2 537.269 Q1433.2 531.453 1429.86 528.284 Q1426.51 525.116 1420.39 525.116 L1409.37 525.116 M1400.6 517.911 L1420.39 517.911 Q1431.29 517.911 1436.84 522.859 Q1442.44 527.764 1442.44 537.269 Q1442.44 546.861 1436.84 551.765 Q1431.29 556.67 1420.39 556.67 L1409.37 556.67 L1409.37 582.711 L1400.6 582.711 L1400.6 517.911 Z" fill="#000000" fill-rule="nonzero" fill-opacity="1" /><path clip-path="url(#clip030)" d="M1492.27 556.409 L1492.27 560.315 L1455.55 560.315 Q1456.07 568.562 1460.5 572.902 Q1464.97 577.199 1472.91 577.199 Q1477.51 577.199 1481.81 576.071 Q1486.15 574.942 1490.4 572.685 L1490.4 580.237 Q1486.11 582.06 1481.59 583.015 Q1477.08 583.97 1472.43 583.97 Q1460.8 583.97 1453.99 577.199 Q1447.22 570.428 1447.22 558.883 Q1447.22 546.947 1453.64 539.96 Q1460.11 532.928 1471.04 532.928 Q1480.85 532.928 1486.54 539.265 Q1492.27 545.559 1492.27 556.409 M1484.28 554.066 Q1484.2 547.512 1480.59 543.605 Q1477.03 539.699 1471.13 539.699 Q1464.45 539.699 1460.41 543.475 Q1456.42 547.251 1455.81 554.109 L1484.28 554.066 Z" fill="#000000" fill-rule="nonzero" fill-opacity="1" /><path clip-path="url(#clip030)" d="M1578.16 573.466 L1578.16 556.062 L1563.84 556.062 L1563.84 548.857 L1586.84 548.857 L1586.84 576.678 Q1581.76 580.281 1575.64 582.147 Q1569.53 583.97 1562.58 583.97 Q1547.39 583.97 1538.8 575.116 Q1530.25 566.218 1530.25 550.376 Q1530.25 534.491 1538.8 525.637 Q1547.39 516.739 1562.58 516.739 Q1568.92 516.739 1574.6 518.302 Q1580.33 519.864 1585.15 522.902 L1585.15 532.234 Q1580.29 528.111 1574.82 526.027 Q1569.35 523.944 1563.32 523.944 Q1551.43 523.944 1545.44 530.585 Q1539.49 537.225 1539.49 550.376 Q1539.49 563.484 1545.44 570.124 Q1551.43 576.765 1563.32 576.765 Q1567.96 576.765 1571.61 575.984 Q1575.25 575.159 1578.16 573.466 Z" fill="#000000" fill-rule="nonzero" fill-opacity="1" /><path clip-path="url(#clip030)" d="M1605.16 575.333 L1619.48 575.333 L1619.48 525.897 L1603.9 529.022 L1603.9 521.036 L1619.39 517.911 L1628.16 517.911 L1628.16 575.333 L1642.48 575.333 L1642.48 582.711 L1605.16 582.711 L1605.16 575.333 Z" fill="#000000" fill-rule="nonzero" fill-opacity="1" /><polyline clip-path="url(#clip030)" style="stroke:#e26f46; stroke-linecap:round; stroke-linejoin:round; stroke-width:22.5; stroke-opacity:1; fill:none" stroke-dasharray="90, 56" points="1116.13,647.511 1359.96,647.511 "/>
<path clip-path="url(#clip030)" d="M1409.37 622.316 L1409.37 646.665 L1420.39 646.665 Q1426.51 646.665 1429.86 643.496 Q1433.2 640.328 1433.2 634.469 Q1433.2 628.653 1429.86 625.484 Q1426.51 622.316 1420.39 622.316 L1409.37 622.316 M1400.6 615.111 L1420.39 615.111 Q1431.29 615.111 1436.84 620.059 Q1442.44 624.964 1442.44 634.469 Q1442.44 644.061 1436.84 648.965 Q1431.29 653.87 1420.39 653.87 L1409.37 653.87 L1409.37 679.911 L1400.6 679.911 L1400.6 615.111 Z" fill="#000000" fill-rule="nonzero" fill-opacity="1" /><path clip-path="url(#clip030)" d="M1491.7 640.632 Q1494.7 635.25 1498.87 632.689 Q1503.03 630.128 1508.67 630.128 Q1516.27 630.128 1520.39 635.467 Q1524.52 640.762 1524.52 650.571 L1524.52 679.911 L1516.49 679.911 L1516.49 650.831 Q1516.49 643.844 1514.01 640.458 Q1511.54 637.073 1506.46 637.073 Q1500.25 637.073 1496.65 641.196 Q1493.05 645.319 1493.05 652.437 L1493.05 679.911 L1485.02 679.911 L1485.02 650.831 Q1485.02 643.8 1482.55 640.458 Q1480.07 637.073 1474.91 637.073 Q1468.79 637.073 1465.19 641.24 Q1461.58 645.363 1461.58 652.437 L1461.58 679.911 L1453.55 679.911 L1453.55 631.3 L1461.58 631.3 L1461.58 638.852 Q1464.32 634.382 1468.14 632.255 Q1471.96 630.128 1477.21 630.128 Q1482.5 630.128 1486.19 632.819 Q1489.92 635.51 1491.7 640.632 Z" fill="#000000" fill-rule="nonzero" fill-opacity="1" /><path clip-path="url(#clip030)" d="M1613.23 670.666 L1613.23 653.262 L1598.91 653.262 L1598.91 646.057 L1621.91 646.057 L1621.91 673.878 Q1616.83 677.481 1610.71 679.347 Q1604.59 681.17 1597.65 681.17 Q1582.46 681.17 1573.87 672.316 Q1565.31 663.418 1565.31 647.576 Q1565.31 631.691 1573.87 622.837 Q1582.46 613.939 1597.65 613.939 Q1603.99 613.939 1609.67 615.502 Q1615.4 617.064 1620.22 620.102 L1620.22 629.434 Q1615.36 625.311 1609.89 623.227 Q1604.42 621.144 1598.39 621.144 Q1586.5 621.144 1580.51 627.785 Q1574.56 634.425 1574.56 647.576 Q1574.56 660.684 1580.51 667.324 Q1586.5 673.965 1598.39 673.965 Q1603.03 673.965 1606.68 673.184 Q1610.32 672.359 1613.23 670.666 Z" fill="#000000" fill-rule="nonzero" fill-opacity="1" /><path clip-path="url(#clip030)" d="M1640.23 672.533 L1654.55 672.533 L1654.55 623.097 L1638.97 626.222 L1638.97 618.236 L1654.46 615.111 L1663.23 615.111 L1663.23 672.533 L1677.55 672.533 L1677.55 679.911 L1640.23 679.911 L1640.23 672.533 Z" fill="#000000" fill-rule="nonzero" fill-opacity="1" /><polyline clip-path="url(#clip030)" style="stroke:#3da44d; stroke-linecap:round; stroke-linejoin:round; stroke-width:22.5; stroke-opacity:1; fill:none" points="1116.13,744.711 1359.96,744.711 "/>
<path clip-path="url(#clip030)" d="M1409.37 719.516 L1409.37 743.865 L1420.39 743.865 Q1426.51 743.865 1429.86 740.696 Q1433.2 737.528 1433.2 731.669 Q1433.2 725.853 1429.86 722.684 Q1426.51 719.516 1420.39 719.516 L1409.37 719.516 M1400.6 712.311 L1420.39 712.311 Q1431.29 712.311 1436.84 717.259 Q1442.44 722.164 1442.44 731.669 Q1442.44 741.261 1436.84 746.165 Q1431.29 751.07 1420.39 751.07 L1409.37 751.07 L1409.37 777.111 L1400.6 777.111 L1400.6 712.311 Z" fill="#000000" fill-rule="nonzero" fill-opacity="1" /><path clip-path="url(#clip030)" d="M1492.27 750.809 L1492.27 754.715 L1455.55 754.715 Q1456.07 762.962 1460.5 767.302 Q1464.97 771.599 1472.91 771.599 Q1477.51 771.599 1481.81 770.471 Q1486.15 769.342 1490.4 767.085 L1490.4 774.637 Q1486.11 776.46 1481.59 777.415 Q1477.08 778.37 1472.43 778.37 Q1460.8 778.37 1453.99 771.599 Q1447.22 764.828 1447.22 753.283 Q1447.22 741.347 1453.64 734.36 Q1460.11 727.328 1471.04 727.328 Q1480.85 727.328 1486.54 733.665 Q1492.27 739.959 1492.27 750.809 M1484.28 748.466 Q1484.2 741.912 1480.59 738.005 Q1477.03 734.099 1471.13 734.099 Q1464.45 734.099 1460.41 737.875 Q1456.42 741.651 1455.81 748.509 L1484.28 748.466 Z" fill="#000000" fill-rule="nonzero" fill-opacity="1" /><path clip-path="url(#clip030)" d="M1578.16 767.866 L1578.16 750.462 L1563.84 750.462 L1563.84 743.257 L1586.84 743.257 L1586.84 771.078 Q1581.76 774.681 1575.64 776.547 Q1569.53 778.37 1562.58 778.37 Q1547.39 778.37 1538.8 769.516 Q1530.25 760.618 1530.25 744.776 Q1530.25 728.891 1538.8 720.037 Q1547.39 711.139 1562.58 711.139 Q1568.92 711.139 1574.6 712.702 Q1580.33 714.264 1585.15 717.302 L1585.15 726.634 Q1580.29 722.511 1574.82 720.427 Q1569.35 718.344 1563.32 718.344 Q1551.43 718.344 1545.44 724.985 Q1539.49 731.625 1539.49 744.776 Q1539.49 757.884 1545.44 764.524 Q1551.43 771.165 1563.32 771.165 Q1567.96 771.165 1571.61 770.384 Q1575.25 769.559 1578.16 767.866 Z" fill="#000000" fill-rule="nonzero" fill-opacity="1" /><path clip-path="url(#clip030)" d="M1611.19 769.733 L1641.79 769.733 L1641.79 777.111 L1600.64 777.111 L1600.64 769.733 Q1605.64 764.568 1614.23 755.887 Q1622.87 747.163 1625.08 744.646 Q1629.29 739.915 1630.94 736.66 Q1632.63 733.361 1632.63 730.193 Q1632.63 725.028 1628.99 721.773 Q1625.38 718.518 1619.57 718.518 Q1615.44 718.518 1610.84 719.95 Q1606.29 721.382 1601.08 724.29 L1601.08 715.436 Q1606.37 713.309 1610.97 712.224 Q1615.58 711.139 1619.39 711.139 Q1629.46 711.139 1635.45 716.174 Q1641.44 721.209 1641.44 729.629 Q1641.44 733.622 1639.92 737.224 Q1638.45 740.783 1634.5 745.644 Q1633.41 746.903 1627.6 752.936 Q1621.78 758.926 1611.19 769.733 Z" fill="#000000" fill-rule="nonzero" fill-opacity="1" /><polyline clip-path="url(#clip030)" style="stroke:#c271d2; stroke-linecap:round; stroke-linejoin:round; stroke-width:22.5; stroke-opacity:1; fill:none" stroke-dasharray="90, 56" points="1116.13,841.911 1359.96,841.911 "/>
<path clip-path="url(#clip030)" d="M1409.37 816.716 L1409.37 841.065 L1420.39 841.065 Q1426.51 841.065 1429.86 837.896 Q1433.2 834.728 1433.2 828.869 Q1433.2 823.053 1429.86 819.884 Q1426.51 816.716 1420.39 816.716 L1409.37 816.716 M1400.6 809.511 L1420.39 809.511 Q1431.29 809.511 1436.84 814.459 Q1442.44 819.364 1442.44 828.869 Q1442.44 838.461 1436.84 843.365 Q1431.29 848.27 1420.39 848.27 L1409.37 848.27 L1409.37 874.311 L1400.6 874.311 L1400.6 809.511 Z" fill="#000000" fill-rule="nonzero" fill-opacity="1" /><path clip-path="url(#clip030)" d="M1491.7 835.032 Q1494.7 829.65 1498.87 827.089 Q1503.03 824.528 1508.67 824.528 Q1516.27 824.528 1520.39 829.867 Q1524.52 835.162 1524.52 844.971 L1524.52 874.311 L1516.49 874.311 L1516.49 845.231 Q1516.49 838.244 1514.01 834.858 Q1511.54 831.473 1506.46 831.473 Q1500.25 831.473 1496.65 835.596 Q1493.05 839.719 1493.05 846.837 L1493.05 874.311 L1485.02 874.311 L1485.02 845.231 Q1485.02 838.2 1482.55 834.858 Q1480.07 831.473 1474.91 831.473 Q1468.79 831.473 1465.19 835.64 Q1461.58 839.763 1461.58 846.837 L1461.58 874.311 L1453.55 874.311 L1453.55 825.7 L1461.58 825.7 L1461.58 833.252 Q1464.32 828.782 1468.14 826.655 Q1471.96 824.528 1477.21 824.528 Q1482.5 824.528 1486.19 827.219 Q1489.92 829.91 1491.7 835.032 Z" fill="#000000" fill-rule="nonzero" fill-opacity="1" /><path clip-path="url(#clip030)" d="M1613.23 865.066 L1613.23 847.662 L1598.91 847.662 L1598.91 840.457 L1621.91 840.457 L1621.91 868.278 Q1616.83 871.881 1610.71 873.747 Q1604.59 875.57 1597.65 875.57 Q1582.46 875.57 1573.87 866.716 Q1565.31 857.818 1565.31 841.976 Q1565.31 826.091 1573.87 817.237 Q1582.46 808.339 1597.65 808.339 Q1603.99 808.339 1609.67 809.902 Q1615.4 811.464 1620.22 814.502 L1620.22 823.834 Q1615.36 819.711 1609.89 817.627 Q1604.42 815.544 1598.39 815.544 Q1586.5 815.544 1580.51 822.185 Q1574.56 828.825 1574.56 841.976 Q1574.56 855.084 1580.51 861.724 Q1586.5 868.365 1598.39 868.365 Q1603.03 868.365 1606.68 867.584 Q1610.32 866.759 1613.23 865.066 Z" fill="#000000" fill-rule="nonzero" fill-opacity="1" /><path clip-path="url(#clip030)" d="M1646.26 866.933 L1676.86 866.933 L1676.86 874.311 L1635.71 874.311 L1635.71 866.933 Q1640.71 861.768 1649.3 853.087 Q1657.94 844.363 1660.15 841.846 Q1664.36 837.115 1666.01 833.86 Q1667.7 830.561 1667.7 827.393 Q1667.7 822.228 1664.06 818.973 Q1660.45 815.718 1654.64 815.718 Q1650.51 815.718 1645.91 817.15 Q1641.36 818.582 1636.15 821.49 L1636.15 812.636 Q1641.44 810.509 1646.04 809.424 Q1650.64 808.339 1654.46 808.339 Q1664.53 808.339 1670.52 813.374 Q1676.51 818.409 1676.51 826.829 Q1676.51 830.822 1674.99 834.424 Q1673.52 837.983 1669.57 842.844 Q1668.48 844.103 1662.67 850.136 Q1656.85 856.126 1646.26 866.933 Z" fill="#000000" fill-rule="nonzero" fill-opacity="1" /><polyline clip-path="url(#clip030)" style="stroke:#ac8d18; stroke-linecap:round; stroke-linejoin:round; stroke-width:22.5; stroke-opacity:1; fill:none" points="1116.13,939.111 1359.96,939.111 "/>
<path clip-path="url(#clip030)" d="M1409.37 913.916 L1409.37 938.265 L1420.39 938.265 Q1426.51 938.265 1429.86 935.096 Q1433.2 931.928 1433.2 926.069 Q1433.2 920.253 1429.86 917.084 Q1426.51 913.916 1420.39 913.916 L1409.37 913.916 M1400.6 906.711 L1420.39 906.711 Q1431.29 906.711 1436.84 911.659 Q1442.44 916.564 1442.44 926.069 Q1442.44 935.661 1436.84 940.565 Q1431.29 945.47 1420.39 945.47 L1409.37 945.47 L1409.37 971.511 L1400.6 971.511 L1400.6 906.711 Z" fill="#000000" fill-rule="nonzero" fill-opacity="1" /><path clip-path="url(#clip030)" d="M1492.27 945.209 L1492.27 949.115 L1455.55 949.115 Q1456.07 957.362 1460.5 961.702 Q1464.97 965.999 1472.91 965.999 Q1477.51 965.999 1481.81 964.871 Q1486.15 963.742 1490.4 961.485 L1490.4 969.037 Q1486.11 970.86 1481.59 971.815 Q1477.08 972.77 1472.43 972.77 Q1460.8 972.77 1453.99 965.999 Q1447.22 959.228 1447.22 947.683 Q1447.22 935.747 1453.64 928.76 Q1460.11 921.728 1471.04 921.728 Q1480.85 921.728 1486.54 928.065 Q1492.27 934.359 1492.27 945.209 M1484.28 942.866 Q1484.2 936.312 1480.59 932.405 Q1477.03 928.499 1471.13 928.499 Q1464.45 928.499 1460.41 932.275 Q1456.42 936.051 1455.81 942.909 L1484.28 942.866 Z" fill="#000000" fill-rule="nonzero" fill-opacity="1" /><path clip-path="url(#clip030)" d="M1578.16 962.266 L1578.16 944.862 L1563.84 944.862 L1563.84 937.657 L1586.84 937.657 L1586.84 965.478 Q1581.76 969.081 1575.64 970.947 Q1569.53 972.77 1562.58 972.77 Q1547.39 972.77 1538.8 963.916 Q1530.25 955.018 1530.25 939.176 Q1530.25 923.291 1538.8 914.437 Q1547.39 905.539 1562.58 905.539 Q1568.92 905.539 1574.6 907.102 Q1580.33 908.664 1585.15 911.702 L1585.15 921.034 Q1580.29 916.911 1574.82 914.827 Q1569.35 912.744 1563.32 912.744 Q1551.43 912.744 1545.44 919.385 Q1539.49 926.025 1539.49 939.176 Q1539.49 952.284 1545.44 958.924 Q1551.43 965.565 1563.32 965.565 Q1567.96 965.565 1571.61 964.784 Q1575.25 963.959 1578.16 962.266 Z" fill="#000000" fill-rule="nonzero" fill-opacity="1" /><path clip-path="url(#clip030)" d="M1630.2 936.572 Q1636.5 937.918 1640.01 942.171 Q1643.57 946.425 1643.57 952.674 Q1643.57 962.266 1636.97 967.518 Q1630.38 972.77 1618.22 972.77 Q1614.14 972.77 1609.8 971.945 Q1605.51 971.164 1600.91 969.558 L1600.91 961.095 Q1604.55 963.221 1608.89 964.306 Q1613.23 965.391 1617.96 965.391 Q1626.21 965.391 1630.51 962.136 Q1634.85 958.881 1634.85 952.674 Q1634.85 946.945 1630.81 943.734 Q1626.82 940.478 1619.65 940.478 L1612.1 940.478 L1612.1 933.274 L1620 933.274 Q1626.47 933.274 1629.9 930.713 Q1633.33 928.109 1633.33 923.248 Q1633.33 918.256 1629.77 915.609 Q1626.25 912.918 1619.65 912.918 Q1616.05 912.918 1611.93 913.699 Q1607.81 914.48 1602.86 916.13 L1602.86 908.317 Q1607.85 906.928 1612.19 906.234 Q1616.57 905.539 1620.44 905.539 Q1630.42 905.539 1636.23 910.097 Q1642.05 914.61 1642.05 922.336 Q1642.05 927.718 1638.97 931.451 Q1635.89 935.14 1630.2 936.572 Z" fill="#000000" fill-rule="nonzero" fill-opacity="1" /><polyline clip-path="url(#clip030)" style="stroke:#00a9ad; stroke-linecap:round; stroke-linejoin:round; stroke-width:22.5; stroke-opacity:1; fill:none" stroke-dasharray="90, 56" points="1116.13,1036.31 1359.96,1036.31 "/>
<path clip-path="url(#clip030)" d="M1409.37 1011.12 L1409.37 1035.46 L1420.39 1035.46 Q1426.51 1035.46 1429.86 1032.3 Q1433.2 1029.13 1433.2 1023.27 Q1433.2 1017.45 1429.86 1014.28 Q1426.51 1011.12 1420.39 1011.12 L1409.37 1011.12 M1400.6 1003.91 L1420.39 1003.91 Q1431.29 1003.91 1436.84 1008.86 Q1442.44 1013.76 1442.44 1023.27 Q1442.44 1032.86 1436.84 1037.77 Q1431.29 1042.67 1420.39 1042.67 L1409.37 1042.67 L1409.37 1068.71 L1400.6 1068.71 L1400.6 1003.91 Z" fill="#000000" fill-rule="nonzero" fill-opacity="1" /><path clip-path="url(#clip030)" d="M1491.7 1029.43 Q1494.7 1024.05 1498.87 1021.49 Q1503.03 1018.93 1508.67 1018.93 Q1516.27 1018.93 1520.39 1024.27 Q1524.52 1029.56 1524.52 1039.37 L1524.52 1068.71 L1516.49 1068.71 L1516.49 1039.63 Q1516.49 1032.64 1514.01 1029.26 Q1511.54 1025.87 1506.46 1025.87 Q1500.25 1025.87 1496.65 1030 Q1493.05 1034.12 1493.05 1041.24 L1493.05 1068.71 L1485.02 1068.71 L1485.02 1039.63 Q1485.02 1032.6 1482.55 1029.26 Q1480.07 1025.87 1474.91 1025.87 Q1468.79 1025.87 1465.19 1030.04 Q1461.58 1034.16 1461.58 1041.24 L1461.58 1068.71 L1453.55 1068.71 L1453.55 1020.1 L1461.58 1020.1 L1461.58 1027.65 Q1464.32 1023.18 1468.14 1021.06 Q1471.96 1018.93 1477.21 1018.93 Q1482.5 1018.93 1486.19 1021.62 Q1489.92 1024.31 1491.7 1029.43 Z" fill="#000000" fill-rule="nonzero" fill-opacity="1" /><path clip-path="url(#clip030)" d="M1613.23 1059.47 L1613.23 1042.06 L1598.91 1042.06 L1598.91 1034.86 L1621.91 1034.86 L1621.91 1062.68 Q1616.83 1066.28 1610.71 1068.15 Q1604.59 1069.97 1597.65 1069.97 Q1582.46 1069.97 1573.87 1061.12 Q1565.31 1052.22 1565.31 1036.38 Q1565.31 1020.49 1573.87 1011.64 Q1582.46 1002.74 1597.65 1002.74 Q1603.99 1002.74 1609.67 1004.3 Q1615.4 1005.86 1620.22 1008.9 L1620.22 1018.23 Q1615.36 1014.11 1609.89 1012.03 Q1604.42 1009.94 1598.39 1009.94 Q1586.5 1009.94 1580.51 1016.58 Q1574.56 1023.23 1574.56 1036.38 Q1574.56 1049.48 1580.51 1056.12 Q1586.5 1062.77 1598.39 1062.77 Q1603.03 1062.77 1606.68 1061.98 Q1610.32 1061.16 1613.23 1059.47 Z" fill="#000000" fill-rule="nonzero" fill-opacity="1" /><path clip-path="url(#clip030)" d="M1665.27 1033.77 Q1671.56 1035.12 1675.08 1039.37 Q1678.64 1043.62 1678.64 1049.87 Q1678.64 1059.47 1672.04 1064.72 Q1665.44 1069.97 1653.29 1069.97 Q1649.21 1069.97 1644.87 1069.15 Q1640.57 1068.36 1635.97 1066.76 L1635.97 1058.29 Q1639.62 1060.42 1643.96 1061.51 Q1648.3 1062.59 1653.03 1062.59 Q1661.28 1062.59 1665.57 1059.34 Q1669.92 1056.08 1669.92 1049.87 Q1669.92 1044.15 1665.88 1040.93 Q1661.89 1037.68 1654.72 1037.68 L1647.17 1037.68 L1647.17 1030.47 L1655.07 1030.47 Q1661.54 1030.47 1664.97 1027.91 Q1668.4 1025.31 1668.4 1020.45 Q1668.4 1015.46 1664.84 1012.81 Q1661.32 1010.12 1654.72 1010.12 Q1651.12 1010.12 1647 1010.9 Q1642.88 1011.68 1637.93 1013.33 L1637.93 1005.52 Q1642.92 1004.13 1647.26 1003.43 Q1651.64 1002.74 1655.51 1002.74 Q1665.49 1002.74 1671.3 1007.3 Q1677.12 1011.81 1677.12 1019.54 Q1677.12 1024.92 1674.04 1028.65 Q1670.96 1032.34 1665.27 1033.77 Z" fill="#000000" fill-rule="nonzero" fill-opacity="1" /></svg>
