<?xml version="1.0" encoding="utf-8"?>
<svg xmlns="http://www.w3.org/2000/svg" xmlns:xlink="http://www.w3.org/1999/xlink" width="1200" height="800" viewBox="0 0 4800 3200">
<defs>
  <clipPath id="clip950">
    <rect x="0" y="0" width="4800" height="3200"/>
  </clipPath>
</defs>
<path clip-path="url(#clip950)" d="M0 3200 L4800 3200 L4800 0 L0 0  Z" fill="#ffffff" fill-rule="evenodd" fill-opacity="1"/>
<defs>
  <clipPath id="clip951">
    <rect x="960" y="0" width="3361" height="3200"/>
  </clipPath>
</defs>
<path clip-path="url(#clip950)" d="M821.623 2645.13 L4611.02 2645.13 L4611.02 377.524 L821.623 377.524  Z" fill="#ffffff" fill-rule="evenodd" fill-opacity="1"/>
<defs>
  <clipPath id="clip952">
    <rect x="821" y="377" width="3790" height="2269"/>
  </clipPath>
</defs>
<polyline clip-path="url(#clip952)" style="stroke:#000000; stroke-linecap:round; stroke-linejoin:round; stroke-width:8; stroke-opacity:0.05; fill:none" stroke-dasharray="32, 20" points="921.706,2645.13 921.706,377.524 "/>
<polyline clip-path="url(#clip952)" style="stroke:#000000; stroke-linecap:round; stroke-linejoin:round; stroke-width:8; stroke-opacity:0.05; fill:none" stroke-dasharray="32, 20" points="1638.12,2645.13 1638.12,377.524 "/>
<polyline clip-path="url(#clip952)" style="stroke:#000000; stroke-linecap:round; stroke-linejoin:round; stroke-width:8; stroke-opacity:0.05; fill:none" stroke-dasharray="32, 20" points="2354.53,2645.13 2354.53,377.524 "/>
<polyline clip-path="url(#clip952)" style="stroke:#000000; stroke-linecap:round; stroke-linejoin:round; stroke-width:8; stroke-opacity:0.05; fill:none" stroke-dasharray="32, 20" points="3070.95,2645.13 3070.95,377.524 "/>
<polyline clip-path="url(#clip952)" style="stroke:#000000; stroke-linecap:round; stroke-linejoin:round; stroke-width:8; stroke-opacity:0.05; fill:none" stroke-dasharray="32, 20" points="3787.36,2645.13 3787.36,377.524 "/>
<polyline clip-path="url(#clip952)" style="stroke:#000000; stroke-linecap:round; stroke-linejoin:round; stroke-width:8; stroke-opacity:0.05; fill:none" stroke-dasharray="32, 20" points="4503.78,2645.13 4503.78,377.524 "/>
<polyline clip-path="url(#clip952)" style="stroke:#000000; stroke-linecap:round; stroke-linejoin:round; stroke-width:8; stroke-opacity:0.05; fill:none" stroke-dasharray="32, 20" points="821.623,2307.31 4611.02,2307.31 "/>
<polyline clip-path="url(#clip952)" style="stroke:#000000; stroke-linecap:round; stroke-linejoin:round; stroke-width:8; stroke-opacity:0.05; fill:none" stroke-dasharray="32, 20" points="821.623,1697.53 4611.02,1697.53 "/>
<polyline clip-path="url(#clip952)" style="stroke:#000000; stroke-linecap:round; stroke-linejoin:round; stroke-width:8; stroke-opacity:0.05; fill:none" stroke-dasharray="32, 20" points="821.623,1087.74 4611.02,1087.74 "/>
<polyline clip-path="url(#clip952)" style="stroke:#000000; stroke-linecap:round; stroke-linejoin:round; stroke-width:8; stroke-opacity:0.05; fill:none" stroke-dasharray="32, 20" points="821.623,477.96 4611.02,477.96 "/>
<polyline clip-path="url(#clip950)" style="stroke:#000000; stroke-linecap:round; stroke-linejoin:round; stroke-width:4; stroke-opacity:1; fill:none" points="821.623,2645.13 4611.02,2645.13 "/>
<polyline clip-path="url(#clip950)" style="stroke:#000000; stroke-linecap:round; stroke-linejoin:round; stroke-width:4; stroke-opacity:1; fill:none" points="921.706,2645.13 921.706,2626.23 "/>
<polyline clip-path="url(#clip950)" style="stroke:#000000; stroke-linecap:round; stroke-linejoin:round; stroke-width:4; stroke-opacity:1; fill:none" points="1638.12,2645.13 1638.12,2626.23 "/>
<polyline clip-path="url(#clip950)" style="stroke:#000000; stroke-linecap:round; stroke-linejoin:round; stroke-width:4; stroke-opacity:1; fill:none" points="2354.53,2645.13 2354.53,2626.23 "/>
<polyline clip-path="url(#clip950)" style="stroke:#000000; stroke-linecap:round; stroke-linejoin:round; stroke-width:4; stroke-opacity:1; fill:none" points="3070.95,2645.13 3070.95,2626.23 "/>
<polyline clip-path="url(#clip950)" style="stroke:#000000; stroke-linecap:round; stroke-linejoin:round; stroke-width:4; stroke-opacity:1; fill:none" points="3787.36,2645.13 3787.36,2626.23 "/>
<polyline clip-path="url(#clip950)" style="stroke:#000000; stroke-linecap:round; stroke-linejoin:round; stroke-width:4; stroke-opacity:1; fill:none" points="4503.78,2645.13 4503.78,2626.23 "/>
<path clip-path="url(#clip950)" d="M921.706 2734.8 Q905.908 2734.8 897.907 2750.39 Q890.008 2765.89 890.008 2797.08 Q890.008 2828.17 897.907 2843.77 Q905.908 2859.26 921.706 2859.26 Q937.606 2859.26 945.506 2843.77 Q953.506 2828.17 953.506 2797.08 Q953.506 2765.89 945.506 2750.39 Q937.606 2734.8 921.706 2734.8 M921.706 2718.59 Q947.126 2718.59 960.494 2738.75 Q973.963 2758.8 973.963 2797.08 Q973.963 2835.26 960.494 2855.41 Q947.126 2875.46 921.706 2875.46 Q896.287 2875.46 882.818 2855.41 Q869.45 2835.26 869.45 2797.08 Q869.45 2758.8 882.818 2738.75 Q896.287 2718.59 921.706 2718.59 Z" fill="#000000" fill-rule="nonzero" fill-opacity="1" /><path clip-path="url(#clip950)" d="M1596.04 2855.31 L1629.46 2855.31 L1629.46 2739.96 L1593.1 2747.25 L1593.1 2728.62 L1629.26 2721.33 L1649.72 2721.33 L1649.72 2855.31 L1683.14 2855.31 L1683.14 2872.53 L1596.04 2872.53 L1596.04 2855.31 Z" fill="#000000" fill-rule="nonzero" fill-opacity="1" /><path clip-path="url(#clip950)" d="M2331.14 2855.31 L2402.54 2855.31 L2402.54 2872.53 L2306.53 2872.53 L2306.53 2855.31 Q2318.18 2843.26 2338.23 2823.01 Q2358.38 2802.65 2363.55 2796.78 Q2373.37 2785.74 2377.22 2778.14 Q2381.17 2770.44 2381.17 2763.05 Q2381.17 2751 2372.66 2743.4 Q2364.26 2735.81 2350.69 2735.81 Q2341.07 2735.81 2330.33 2739.15 Q2319.7 2742.49 2307.54 2749.28 L2307.54 2728.62 Q2319.9 2723.66 2330.63 2721.13 Q2341.37 2718.59 2350.28 2718.59 Q2373.78 2718.59 2387.75 2730.34 Q2401.73 2742.09 2401.73 2761.74 Q2401.73 2771.05 2398.18 2779.46 Q2394.74 2787.76 2385.52 2799.1 Q2382.99 2802.04 2369.42 2816.12 Q2355.85 2830.09 2331.14 2855.31 Z" fill="#000000" fill-rule="nonzero" fill-opacity="1" /><path clip-path="url(#clip950)" d="M3089.53 2791 Q3104.22 2794.14 3112.42 2804.07 Q3120.72 2813.99 3120.72 2828.58 Q3120.72 2850.96 3105.33 2863.21 Q3089.94 2875.46 3061.58 2875.46 Q3052.06 2875.46 3041.93 2873.54 Q3031.91 2871.72 3021.17 2867.97 L3021.17 2848.22 Q3029.68 2853.18 3039.81 2855.72 Q3049.93 2858.25 3060.97 2858.25 Q3080.21 2858.25 3090.24 2850.65 Q3100.37 2843.06 3100.37 2828.58 Q3100.37 2815.21 3090.95 2807.71 Q3081.63 2800.12 3064.92 2800.12 L3047.3 2800.12 L3047.3 2783.31 L3065.73 2783.31 Q3080.82 2783.31 3088.82 2777.33 Q3096.82 2771.25 3096.82 2759.91 Q3096.82 2748.27 3088.52 2742.09 Q3080.32 2735.81 3064.92 2735.81 Q3056.52 2735.81 3046.9 2737.63 Q3037.28 2739.46 3025.73 2743.3 L3025.73 2725.07 Q3037.38 2721.83 3047.5 2720.21 Q3057.73 2718.59 3066.75 2718.59 Q3090.04 2718.59 3103.61 2729.23 Q3117.18 2739.76 3117.18 2757.79 Q3117.18 2770.34 3109.99 2779.05 Q3102.8 2787.66 3089.53 2791 Z" fill="#000000" fill-rule="nonzero" fill-opacity="1" /><path clip-path="url(#clip950)" d="M3800.53 2739.15 L3748.88 2819.87 L3800.53 2819.87 L3800.53 2739.15 M3795.16 2721.33 L3820.88 2721.33 L3820.88 2819.87 L3842.45 2819.87 L3842.45 2836.88 L3820.88 2836.88 L3820.88 2872.53 L3800.53 2872.53 L3800.53 2836.88 L3732.27 2836.88 L3732.27 2817.13 L3795.16 2721.33 Z" fill="#000000" fill-rule="nonzero" fill-opacity="1" /><path clip-path="url(#clip950)" d="M4461.24 2721.33 L4541.55 2721.33 L4541.55 2738.54 L4479.98 2738.54 L4479.98 2775.61 Q4484.43 2774.09 4488.89 2773.38 Q4493.35 2772.57 4497.8 2772.57 Q4523.12 2772.57 4537.91 2786.45 Q4552.69 2800.32 4552.69 2824.02 Q4552.69 2848.42 4537.5 2862 Q4522.31 2875.46 4494.66 2875.46 Q4485.14 2875.46 4475.22 2873.84 Q4465.39 2872.22 4454.86 2868.98 L4454.86 2848.42 Q4463.98 2853.39 4473.7 2855.82 Q4483.42 2858.25 4494.26 2858.25 Q4511.78 2858.25 4522.01 2849.03 Q4532.23 2839.82 4532.23 2824.02 Q4532.23 2808.22 4522.01 2799 Q4511.78 2789.79 4494.26 2789.79 Q4486.05 2789.79 4477.85 2791.61 Q4469.75 2793.43 4461.24 2797.28 L4461.24 2721.33 Z" fill="#000000" fill-rule="nonzero" fill-opacity="1" /><path clip-path="url(#clip950)" d="M2551.86 2979.74 L2551.86 3011.94 L2590.24 3011.94 L2590.24 3026.42 L2551.86 3026.42 L2551.86 3088 Q2551.86 3101.87 2555.6 3105.82 Q2559.45 3109.77 2571.1 3109.77 L2590.24 3109.77 L2590.24 3125.37 L2571.1 3125.37 Q2549.53 3125.37 2541.32 3117.37 Q2533.12 3109.27 2533.12 3088 L2533.12 3026.42 L2519.45 3026.42 L2519.45 3011.94 L2533.12 3011.94 L2533.12 2979.74 L2551.86 2979.74 Z" fill="#000000" fill-rule="nonzero" fill-opacity="1" /><path clip-path="url(#clip950)" d="M2725.44 2967.99 Q2711.87 2991.28 2705.28 3014.07 Q2698.7 3036.86 2698.7 3060.25 Q2698.7 3083.64 2705.28 3106.63 Q2711.97 3129.52 2725.44 3152.71 L2709.23 3152.71 Q2694.04 3128.91 2686.45 3105.92 Q2678.95 3082.93 2678.95 3060.25 Q2678.95 3037.67 2686.45 3014.78 Q2693.94 2991.89 2709.23 2967.99 L2725.44 2967.99 Z" fill="#000000" fill-rule="nonzero" fill-opacity="1" /><path clip-path="url(#clip950)" d="M2833.9 3015.28 L2833.9 3032.91 Q2826 3028.85 2817.49 3026.83 Q2808.99 3024.8 2799.87 3024.8 Q2786 3024.8 2779.01 3029.06 Q2772.12 3033.31 2772.12 3041.82 Q2772.12 3048.3 2777.09 3052.05 Q2782.05 3055.69 2797.04 3059.03 L2803.42 3060.45 Q2823.27 3064.71 2831.57 3072.5 Q2839.98 3080.2 2839.98 3094.07 Q2839.98 3109.87 2827.42 3119.09 Q2814.96 3128.3 2793.09 3128.3 Q2783.97 3128.3 2774.05 3126.48 Q2764.23 3124.76 2753.29 3121.22 L2753.29 3101.97 Q2763.62 3107.34 2773.64 3110.08 Q2783.67 3112.71 2793.49 3112.71 Q2806.66 3112.71 2813.75 3108.25 Q2820.84 3103.7 2820.84 3095.49 Q2820.84 3087.9 2815.67 3083.85 Q2810.61 3079.79 2793.29 3076.05 L2786.81 3074.53 Q2769.49 3070.88 2761.79 3063.39 Q2754.1 3055.79 2754.1 3042.63 Q2754.1 3026.63 2765.44 3017.92 Q2776.78 3009.21 2797.65 3009.21 Q2807.98 3009.21 2817.09 3010.73 Q2826.2 3012.25 2833.9 3015.28 Z" fill="#000000" fill-rule="nonzero" fill-opacity="1" /><path clip-path="url(#clip950)" d="M2866.71 2967.99 L2882.92 2967.99 Q2898.11 2991.89 2905.6 3014.78 Q2913.2 3037.67 2913.2 3060.25 Q2913.2 3082.93 2905.6 3105.92 Q2898.11 3128.91 2882.92 3152.71 L2866.71 3152.71 Q2880.18 3129.52 2886.77 3106.63 Q2893.45 3083.64 2893.45 3060.25 Q2893.45 3036.86 2886.77 3014.07 Q2880.18 2991.28 2866.71 2967.99 Z" fill="#000000" fill-rule="nonzero" fill-opacity="1" /><polyline clip-path="url(#clip950)" style="stroke:#000000; stroke-linecap:round; stroke-linejoin:round; stroke-width:4; stroke-opacity:1; fill:none" points="821.623,2645.13 821.623,377.524 "/>
<polyline clip-path="url(#clip950)" style="stroke:#000000; stroke-linecap:round; stroke-linejoin:round; stroke-width:4; stroke-opacity:1; fill:none" points="821.623,2307.31 840.521,2307.31 "/>
<polyline clip-path="url(#clip950)" style="stroke:#000000; stroke-linecap:round; stroke-linejoin:round; stroke-width:4; stroke-opacity:1; fill:none" points="821.623,1697.53 840.521,1697.53 "/>
<polyline clip-path="url(#clip950)" style="stroke:#000000; stroke-linecap:round; stroke-linejoin:round; stroke-width:4; stroke-opacity:1; fill:none" points="821.623,1087.74 840.521,1087.74 "/>
<polyline clip-path="url(#clip950)" style="stroke:#000000; stroke-linecap:round; stroke-linejoin:round; stroke-width:4; stroke-opacity:1; fill:none" points="821.623,477.96 840.521,477.96 "/>
<path clip-path="url(#clip950)" d="M347.672 2309.29 L477.504 2309.29 L477.504 2326.5 L347.672 2326.5 L347.672 2309.29 Z" fill="#000000" fill-rule="nonzero" fill-opacity="1" /><path clip-path="url(#clip950)" d="M525.203 2365.69 L558.623 2365.69 L558.623 2250.35 L522.266 2257.64 L522.266 2239 L558.421 2231.71 L578.878 2231.71 L578.878 2365.69 L612.298 2365.69 L612.298 2382.91 L525.203 2382.91 L525.203 2365.69 Z" fill="#000000" fill-rule="nonzero" fill-opacity="1" /><path clip-path="url(#clip950)" d="M697.367 2245.18 Q681.568 2245.18 673.568 2260.78 Q665.668 2276.27 665.668 2307.46 Q665.668 2338.55 673.568 2354.15 Q681.568 2369.64 697.367 2369.64 Q713.267 2369.64 721.166 2354.15 Q729.166 2338.55 729.166 2307.46 Q729.166 2276.27 721.166 2260.78 Q713.267 2245.18 697.367 2245.18 M697.367 2228.98 Q722.786 2228.98 736.154 2249.13 Q749.623 2269.18 749.623 2307.46 Q749.623 2345.64 736.154 2365.8 Q722.786 2385.85 697.367 2385.85 Q671.947 2385.85 658.478 2365.8 Q645.11 2345.64 645.11 2307.46 Q645.11 2269.18 658.478 2249.13 Q671.947 2228.98 697.367 2228.98 Z" fill="#000000" fill-rule="nonzero" fill-opacity="1" /><path clip-path="url(#clip950)" d="M697.367 1635.4 Q681.568 1635.4 673.568 1650.99 Q665.668 1666.49 665.668 1697.68 Q665.668 1728.77 673.568 1744.37 Q681.568 1759.86 697.367 1759.86 Q713.267 1759.86 721.166 1744.37 Q729.166 1728.77 729.166 1697.68 Q729.166 1666.49 721.166 1650.99 Q713.267 1635.4 697.367 1635.4 M697.367 1619.19 Q722.786 1619.19 736.154 1639.35 Q749.623 1659.4 749.623 1697.68 Q749.623 1735.86 736.154 1756.01 Q722.786 1776.06 697.367 1776.06 Q671.947 1776.06 658.478 1756.01 Q645.11 1735.86 645.11 1697.68 Q645.11 1659.4 658.478 1639.35 Q671.947 1619.19 697.367 1619.19 Z" fill="#000000" fill-rule="nonzero" fill-opacity="1" /><path clip-path="url(#clip950)" d="M525.203 1146.13 L558.623 1146.13 L558.623 1030.78 L522.266 1038.07 L522.266 1019.44 L558.421 1012.14 L578.878 1012.14 L578.878 1146.13 L612.298 1146.13 L612.298 1163.34 L525.203 1163.34 L525.203 1146.13 Z" fill="#000000" fill-rule="nonzero" fill-opacity="1" /><path clip-path="url(#clip950)" d="M697.367 1025.61 Q681.568 1025.61 673.568 1041.21 Q665.668 1056.7 665.668 1087.9 Q665.668 1118.99 673.568 1134.58 Q681.568 1150.08 697.367 1150.08 Q713.267 1150.08 721.166 1134.58 Q729.166 1118.99 729.166 1087.9 Q729.166 1056.7 721.166 1041.21 Q713.267 1025.61 697.367 1025.61 M697.367 1009.41 Q722.786 1009.41 736.154 1029.56 Q749.623 1049.61 749.623 1087.9 Q749.623 1126.08 736.154 1146.23 Q722.786 1166.28 697.367 1166.28 Q671.947 1166.28 658.478 1146.23 Q645.11 1126.08 645.11 1087.9 Q645.11 1049.61 658.478 1029.56 Q671.947 1009.41 697.367 1009.41 Z" fill="#000000" fill-rule="nonzero" fill-opacity="1" /><path clip-path="url(#clip950)" d="M539.28 536.344 L610.677 536.344 L610.677 553.56 L514.671 553.56 L514.671 536.344 Q526.317 524.293 546.369 504.038 Q566.523 483.682 571.687 477.808 Q581.511 466.77 585.359 459.174 Q589.309 451.478 589.309 444.085 Q589.309 432.033 580.802 424.438 Q572.396 416.842 558.826 416.842 Q549.205 416.842 538.47 420.184 Q527.836 423.526 515.684 430.312 L515.684 409.652 Q528.039 404.69 538.774 402.158 Q549.509 399.626 558.421 399.626 Q581.916 399.626 595.892 411.374 Q609.867 423.121 609.867 442.768 Q609.867 452.085 606.323 460.491 Q602.879 468.795 593.664 480.138 Q591.132 483.075 577.561 497.151 Q563.991 511.127 539.28 536.344 Z" fill="#000000" fill-rule="nonzero" fill-opacity="1" /><path clip-path="url(#clip950)" d="M697.367 415.83 Q681.568 415.83 673.568 431.426 Q665.668 446.92 665.668 478.112 Q665.668 509.203 673.568 524.799 Q681.568 540.294 697.367 540.294 Q713.267 540.294 721.166 524.799 Q729.166 509.203 729.166 478.112 Q729.166 446.92 721.166 431.426 Q713.267 415.83 697.367 415.83 M697.367 399.626 Q722.786 399.626 736.154 419.779 Q749.623 439.831 749.623 478.112 Q749.623 516.292 736.154 536.445 Q722.786 556.497 697.367 556.497 Q671.947 556.497 658.478 536.445 Q645.11 516.292 645.11 478.112 Q645.11 439.831 658.478 419.779 Q671.947 399.626 697.367 399.626 Z" fill="#000000" fill-rule="nonzero" fill-opacity="1" /><path clip-path="url(#clip950)" d="M134.103 2113.8 L72.7323 2113.8 L72.7323 2095.16 L230.312 2095.16 L230.312 2113.8 L213.299 2113.8 Q223.426 2119.67 228.388 2128.68 Q233.249 2137.6 233.249 2150.15 Q233.249 2170.71 216.843 2183.67 Q200.437 2196.54 173.701 2196.54 Q146.965 2196.54 130.559 2183.67 Q114.153 2170.71 114.153 2150.15 Q114.153 2137.6 119.115 2128.68 Q123.976 2119.67 134.103 2113.8 M173.701 2177.29 Q194.259 2177.29 206.007 2168.89 Q217.653 2160.38 217.653 2145.6 Q217.653 2130.81 206.007 2122.3 Q194.259 2113.8 173.701 2113.8 Q153.143 2113.8 141.496 2122.3 Q129.749 2130.81 129.749 2145.6 Q129.749 2160.38 141.496 2168.89 Q153.143 2177.29 173.701 2177.29 Z" fill="#000000" fill-rule="nonzero" fill-opacity="1" /><path clip-path="url(#clip950)" d="M72.7323 1999.36 L88.227 1999.36 L88.227 2017.18 Q88.227 2027.21 92.2779 2031.16 Q96.3288 2035.01 106.861 2035.01 L116.887 2035.01 L116.887 2004.32 L131.369 2004.32 L131.369 2035.01 L230.312 2035.01 L230.312 2053.74 L131.369 2053.74 L131.369 2071.57 L116.887 2071.57 L116.887 2053.74 L108.988 2053.74 Q90.0499 2053.74 81.4417 2044.93 Q72.7323 2036.12 72.7323 2016.98 L72.7323 1999.36 Z" fill="#000000" fill-rule="nonzero" fill-opacity="1" /><path clip-path="url(#clip950)" d="M79.1124 1950.65 L79.1124 1933.43 L249.554 1986.09 L249.554 2003.31 L79.1124 1950.65 Z" fill="#000000" fill-rule="nonzero" fill-opacity="1" /><path clip-path="url(#clip950)" d="M134.103 1839.25 L72.7323 1839.25 L72.7323 1820.61 L230.312 1820.61 L230.312 1839.25 L213.299 1839.25 Q223.426 1845.12 228.388 1854.13 Q233.249 1863.05 233.249 1875.6 Q233.249 1896.16 216.843 1909.12 Q200.437 1921.99 173.701 1921.99 Q146.965 1921.99 130.559 1909.12 Q114.153 1896.16 114.153 1875.6 Q114.153 1863.05 119.115 1854.13 Q123.976 1845.12 134.103 1839.25 M173.701 1902.74 Q194.259 1902.74 206.007 1894.34 Q217.653 1885.83 217.653 1871.05 Q217.653 1856.26 206.007 1847.75 Q194.259 1839.25 173.701 1839.25 Q153.143 1839.25 141.496 1847.75 Q129.749 1856.26 129.749 1871.05 Q129.749 1885.83 141.496 1894.34 Q153.143 1902.74 173.701 1902.74 Z" fill="#000000" fill-rule="nonzero" fill-opacity="1" /><path clip-path="url(#clip950)" d="M84.6824 1763.8 L116.887 1763.8 L116.887 1725.42 L131.369 1725.42 L131.369 1763.8 L192.943 1763.8 Q206.817 1763.8 210.767 1760.05 Q214.716 1756.2 214.716 1744.56 L214.716 1725.42 L230.312 1725.42 L230.312 1744.56 Q230.312 1766.13 222.312 1774.33 Q214.21 1782.53 192.943 1782.53 L131.369 1782.53 L131.369 1796.21 L116.887 1796.21 L116.887 1782.53 L84.6824 1782.53 L84.6824 1763.8 Z" fill="#000000" fill-rule="nonzero" fill-opacity="1" /><path clip-path="url(#clip950)" d="M72.9348 1590.22 Q96.2275 1603.79 119.014 1610.37 Q141.8 1616.95 165.194 1616.95 Q188.588 1616.95 211.577 1610.37 Q234.465 1603.69 257.656 1590.22 L257.656 1606.42 Q233.857 1621.61 210.868 1629.21 Q187.879 1636.7 165.194 1636.7 Q142.61 1636.7 119.723 1629.21 Q96.8351 1621.71 72.9348 1606.42 L72.9348 1590.22 Z" fill="#000000" fill-rule="nonzero" fill-opacity="1" /><path clip-path="url(#clip950)" d="M79.1124 1553.25 L79.1124 1532.8 L141.091 1532.8 L141.091 1458.46 L79.1124 1458.46 L79.1124 1438 L230.312 1438 L230.312 1458.46 L158.308 1458.46 L158.308 1532.8 L230.312 1532.8 L230.312 1553.25 L79.1124 1553.25 Z" fill="#000000" fill-rule="nonzero" fill-opacity="1" /><path clip-path="url(#clip950)" d="M116.887 1406.21 L116.887 1317.69 L133.901 1317.69 L215.425 1387.77 L215.425 1317.69 L230.312 1317.69 L230.312 1408.74 L213.299 1408.74 L131.774 1338.66 L131.774 1406.21 L116.887 1406.21 Z" fill="#000000" fill-rule="nonzero" fill-opacity="1" /><path clip-path="url(#clip950)" d="M79.1124 1256.12 L79.1124 1238.9 L249.554 1291.56 L249.554 1308.78 L79.1124 1256.12 Z" fill="#000000" fill-rule="nonzero" fill-opacity="1" /><path clip-path="url(#clip950)" d="M120.229 1147.05 L137.851 1147.05 Q133.8 1154.95 131.774 1163.45 Q129.749 1171.96 129.749 1181.08 Q129.749 1194.95 134.002 1201.94 Q138.256 1208.82 146.763 1208.82 Q153.244 1208.82 156.991 1203.86 Q160.637 1198.9 163.979 1183.91 L165.397 1177.53 Q169.65 1157.68 177.448 1149.38 Q185.145 1140.97 199.019 1140.97 Q214.818 1140.97 224.034 1153.53 Q233.249 1165.99 233.249 1187.86 Q233.249 1196.98 231.426 1206.9 Q229.705 1216.72 226.16 1227.66 L206.918 1227.66 Q212.286 1217.33 215.02 1207.31 Q217.653 1197.28 217.653 1187.46 Q217.653 1174.29 213.197 1167.2 Q208.64 1160.11 200.437 1160.11 Q192.842 1160.11 188.791 1165.28 Q184.74 1170.34 180.993 1187.66 L179.474 1194.14 Q175.828 1211.46 168.334 1219.15 Q160.738 1226.85 147.573 1226.85 Q131.572 1226.85 122.862 1215.51 Q114.153 1204.17 114.153 1183.3 Q114.153 1172.97 115.672 1163.86 Q117.191 1154.75 120.229 1147.05 Z" fill="#000000" fill-rule="nonzero" fill-opacity="1" /><path clip-path="url(#clip950)" d="M168.941 1014.28 L178.056 1014.28 L178.056 1099.96 Q197.298 1098.74 207.425 1088.41 Q217.451 1077.98 217.451 1059.45 Q217.451 1048.71 214.818 1038.69 Q212.185 1028.56 206.918 1018.63 L224.54 1018.63 Q228.793 1028.66 231.021 1039.19 Q233.249 1049.73 233.249 1060.56 Q233.249 1087.7 217.451 1103.6 Q201.652 1119.4 174.714 1119.4 Q146.864 1119.4 130.559 1104.41 Q114.153 1089.32 114.153 1063.8 Q114.153 1040.91 128.939 1027.65 Q143.623 1014.28 168.941 1014.28 M163.473 1032.91 Q148.18 1033.12 139.066 1041.52 Q129.951 1049.83 129.951 1063.6 Q129.951 1079.2 138.762 1088.61 Q147.573 1097.93 163.574 1099.35 L163.473 1032.91 Z" fill="#000000" fill-rule="nonzero" fill-opacity="1" /><path clip-path="url(#clip950)" d="M121.242 902.07 L138.661 902.07 Q134.306 909.969 132.179 917.97 Q129.951 925.869 129.951 933.971 Q129.951 952.099 141.496 962.125 Q152.94 972.151 173.701 972.151 Q194.462 972.151 206.007 962.125 Q217.451 952.099 217.451 933.971 Q217.451 925.869 215.324 917.97 Q213.096 909.969 208.741 902.07 L225.958 902.07 Q229.604 909.868 231.426 918.274 Q233.249 926.578 233.249 935.996 Q233.249 961.618 217.147 976.708 Q201.045 991.798 173.701 991.798 Q145.952 991.798 130.053 976.607 Q114.153 961.314 114.153 934.781 Q114.153 926.173 115.976 917.97 Q117.697 909.767 121.242 902.07 Z" fill="#000000" fill-rule="nonzero" fill-opacity="1" /><path clip-path="url(#clip950)" d="M72.9348 872.6 L72.9348 856.396 Q96.8351 841.205 119.723 833.711 Q142.61 826.116 165.194 826.116 Q187.879 826.116 210.868 833.711 Q233.857 841.205 257.656 856.396 L257.656 872.6 Q234.465 859.13 211.577 852.548 Q188.588 845.864 165.194 845.864 Q141.8 845.864 119.014 852.548 Q96.2275 859.13 72.9348 872.6 Z" fill="#000000" fill-rule="nonzero" fill-opacity="1" /><path clip-path="url(#clip950)" d="M2443.81 126.342 Q2451.34 128.888 2458.4 137.221 Q2465.57 145.555 2472.75 160.138 L2496.48 207.36 L2471.36 207.36 L2449.25 163.032 Q2440.69 145.671 2432.59 139.999 Q2424.6 134.328 2410.71 134.328 L2385.25 134.328 L2385.25 207.36 L2361.87 207.36 L2361.87 34.56 L2414.65 34.56 Q2444.28 34.56 2458.86 46.9442 Q2473.44 59.3284 2473.44 84.3283 Q2473.44 100.648 2465.8 111.411 Q2458.28 122.175 2443.81 126.342 M2385.25 53.7729 L2385.25 115.115 L2414.65 115.115 Q2431.54 115.115 2440.11 107.361 Q2448.79 99.4902 2448.79 84.3283 Q2448.79 69.1663 2440.11 61.5274 Q2431.54 53.7729 2414.65 53.7729 L2385.25 53.7729 Z" fill="#000000" fill-rule="nonzero" fill-opacity="1" /><path clip-path="url(#clip950)" d="M2565.22 92.6615 Q2548.1 92.6615 2538.14 106.087 Q2528.19 119.398 2528.19 142.661 Q2528.19 165.925 2538.03 179.351 Q2547.98 192.661 2565.22 192.661 Q2582.24 192.661 2592.19 179.235 Q2602.15 165.809 2602.15 142.661 Q2602.15 119.629 2592.19 106.203 Q2582.24 92.6615 2565.22 92.6615 M2565.22 74.6061 Q2593 74.6061 2608.86 92.6615 Q2624.72 110.717 2624.72 142.661 Q2624.72 174.49 2608.86 192.661 Q2593 210.716 2565.22 210.716 Q2537.33 210.716 2521.48 192.661 Q2505.73 174.49 2505.73 142.661 Q2505.73 110.717 2521.48 92.6615 Q2537.33 74.6061 2565.22 74.6061 Z" fill="#000000" fill-rule="nonzero" fill-opacity="1" /><path clip-path="url(#clip950)" d="M2790.34 47.8701 L2790.34 72.5228 Q2778.53 61.5274 2765.11 56.0877 Q2751.8 50.6479 2736.75 50.6479 Q2707.12 50.6479 2691.38 68.8191 Q2675.64 86.8745 2675.64 121.134 Q2675.64 155.277 2691.38 173.448 Q2707.12 191.504 2736.75 191.504 Q2751.8 191.504 2765.11 186.064 Q2778.53 180.624 2790.34 169.629 L2790.34 194.05 Q2778.07 202.383 2764.3 206.55 Q2750.64 210.716 2735.36 210.716 Q2696.13 210.716 2673.56 186.758 Q2650.99 162.684 2650.99 121.134 Q2650.99 79.4672 2673.56 55.509 Q2696.13 31.435 2735.36 31.435 Q2750.87 31.435 2764.53 35.6017 Q2778.3 39.6526 2790.34 47.8701 Z" fill="#000000" fill-rule="nonzero" fill-opacity="1" /><path clip-path="url(#clip950)" d="M2875.76 92.6615 Q2858.63 92.6615 2848.67 106.087 Q2838.72 119.398 2838.72 142.661 Q2838.72 165.925 2848.56 179.351 Q2858.51 192.661 2875.76 192.661 Q2892.77 192.661 2902.72 179.235 Q2912.68 165.809 2912.68 142.661 Q2912.68 119.629 2902.72 106.203 Q2892.77 92.6615 2875.76 92.6615 M2875.76 74.6061 Q2903.53 74.6061 2919.39 92.6615 Q2935.25 110.717 2935.25 142.661 Q2935.25 174.49 2919.39 192.661 Q2903.53 210.716 2875.76 210.716 Q2847.86 210.716 2832.01 192.661 Q2816.27 174.49 2816.27 142.661 Q2816.27 110.717 2832.01 92.6615 Q2847.86 74.6061 2875.76 74.6061 Z" fill="#000000" fill-rule="nonzero" fill-opacity="1" /><path clip-path="url(#clip950)" d="M2971.47 34.56 L3070.78 34.56 L3070.78 54.2358 L2994.85 54.2358 L2994.85 105.161 L3063.37 105.161 L3063.37 124.837 L2994.85 124.837 L2994.85 207.36 L2971.47 207.36 L2971.47 34.56 Z" fill="#000000" fill-rule="nonzero" fill-opacity="1" /><polyline clip-path="url(#clip952)" style="stroke:#009af9; stroke-linecap:round; stroke-linejoin:round; stroke-width:12; stroke-opacity:1; fill:none" points="928.871,1625.46 936.035,1625.31 943.199,1624.91 950.363,1624.33 957.527,1623.54 964.691,1622.57 971.855,1621.41 979.02,1620.07 986.184,1618.56 993.348,1616.88 1000.51,1615.04 1007.68,1613.05 1014.84,1610.93 1022,1608.69 1029.17,1606.35 1036.33,1603.93 1043.5,1601.44 1050.66,1598.92 1057.83,1596.37 1064.99,1593.82 1072.15,1591.29 1079.32,1588.81 1086.48,1586.4 1093.65,1584.07 1100.81,1581.84 1107.97,1579.74 1115.14,1577.78 1122.3,1575.97 1129.47,1574.32 1136.63,1572.85 1143.79,1440.37 1143.79,1426.06 1150.96,1555.86 1158.12,1552.21 1165.29,1549.13 1172.45,1546.53 1179.62,1544.36 1186.78,1542.56 1193.94,1541.09 1201.11,1539.91 1208.27,1539.01 1215.44,1538.36 1222.6,1537.95 1229.76,1537.78 1236.93,1537.85 1244.09,1538.15 1251.26,1538.68 1258.42,1539.44 1265.59,1540.43 1272.75,1541.63 1279.91,1543.05 1287.08,1544.66 1294.24,1546.46 1301.41,1548.42 1308.57,1550.54 1315.73,1552.79 1322.9,1555.15 1330.06,1557.6 1337.23,1560.14 1344.39,1562.74 1351.55,1565.4 1358.72,1568.12 1365.88,1570.9 1373.05,1573.74 1380.21,1576.65 1387.38,1579.67 1394.54,1582.82 1401.7,1586.12 1408.87,1589.63 1416.03,1593.37 1423.2,1597.39 1430.36,1601.73 1437.52,1606.43 1444.69,1611.52 1451.85,1617.03 1459.02,1622.97 1466.18,1629.35 1473.35,1636.16 1480.51,1643.36 1487.67,1650.94 1494.84,1658.82 1502,1666.97 1509.17,1675.31 1516.33,1683.78 1523.49,1692.3 1530.66,1700.8 1537.82,1709.22 1544.99,1717.5 1552.15,1725.58 1559.31,1733.41 1566.48,1740.95 1573.64,1748.16 1580.81,1754.99 1587.97,1761.43 1595.14,1767.43 1602.3,1772.98 1609.46,1778.06 1616.63,1782.66 1623.79,1786.78 1630.96,1790.41 1638.12,1793.57 1645.28,1796.28 1652.45,1798.57 1659.61,1800.47 1666.78,1802.03 1673.94,1803.29 1681.11,1804.29 1688.27,1805.07 1695.43,1805.68 1702.6,1806.13 1709.76,1806.45 1716.93,1806.66 1724.09,1806.74 1731.25,1806.68 1738.42,1806.44 1745.58,1805.97 1752.75,1805.22 1759.91,1804.1 1767.07,1802.52 1774.24,1800.39 1781.4,1797.62 1788.57,1794.11 1795.73,1789.76 1802.9,1784.52 1810.06,1778.34 1817.22,1771.19 1824.39,1763.09 1831.55,1754.09 1838.72,1744.25 1845.88,1733.7 1853.04,1722.57 1860.21,1711.01 1867.37,1699.18 1874.54,1687.25 1881.7,1675.39 1888.87,1663.74 1896.03,1652.43 1903.19,1641.58 1910.36,1631.29 1917.52,1621.61 1924.69,1612.62 1931.85,1604.32 1939.01,1596.75 1946.18,1589.91 1953.34,1583.78 1960.51,1578.35 1967.67,1573.59 1974.84,1569.46 1982,1565.93 1989.16,1562.96 1996.33,1560.49 2003.49,1558.48 2010.66,1556.88 2017.82,1555.65 2024.98,1554.73 2032.15,1554.08 2039.31,1553.66 2046.48,1553.41 2053.64,1553.32 2060.8,1553.33 2067.97,1553.42 2075.13,1553.56 2082.3,1553.72 2089.46,1553.9 2096.63,1554.08 2103.79,1554.25 2110.95,1554.41 2118.12,1554.57 2125.28,1554.72 2132.45,1554.89 2139.61,1555.1 2146.77,1555.36 2153.94,1555.71 2161.1,1556.18 2168.27,1556.8 2175.43,1557.63 2182.6,1558.71 2189.76,1560.08 2196.92,1561.79 2204.09,1563.89 2211.25,1566.43 2218.42,1569.47 2225.58,1573.04 2232.74,1577.2 2239.91,1581.97 2247.07,1587.39 2254.24,1593.48 2261.4,1600.27 2268.56,1607.74 2275.73,1615.9 2282.89,1624.71 2290.06,1634.16 2297.22,1644.17 2304.39,1654.69 2311.55,1665.62 2318.71,1676.86 2325.88,1688.29 2333.04,1699.78 2340.21,1711.17 2347.37,1722.33 2354.53,1733.11 2361.7,1743.36 2368.86,1752.95 2376.03,1761.8 2383.19,1769.81 2390.36,1776.93 2397.52,1783.15 2404.68,1788.48 2411.85,1792.93 2419.01,1796.58 2426.18,1799.5 2433.34,1801.77 2440.5,1803.48 2447.67,1804.72 2454.83,1805.58 2462,1806.14 2469.16,1806.47 2476.32,1806.61 2483.49,1806.62 2490.65,1806.51 2497.82,1806.29 2504.98,1805.97 2512.15,1805.52 2519.31,1804.91 2526.47,1804.12 2533.64,1803.08 2540.8,1801.76 2547.97,1800.1 2555.13,1798.05 2562.29,1795.57 2569.46,1792.6 2576.62,1789.13 2583.79,1785.12 2590.95,1780.56 2598.12,1775.44 2605.28,1769.78 2612.44,1763.59 2619.61,1756.9 2626.77,1749.74 2633.94,1742.15 2641.1,1734.18 2648.26,1725.89 2655.43,1717.33 2662.59,1708.56 2669.76,1699.65 2676.92,1690.68 2684.08,1681.71 2691.25,1672.83 2698.41,1664.11 2705.58,1655.61 2712.74,1647.42 2719.91,1639.58 2727.07,1632.15 2734.23,1625.17 2741.4,1618.66 2748.56,1612.63 2755.73,1607.08 2762.89,1601.99 2770.05,1597.35 2777.22,1593.11 2784.38,1589.25 2791.55,1585.71 2798.71,1582.45 2805.88,1579.43 2813.04,1576.6 2820.2,1573.94 2827.37,1571.4 2834.53,1568.95 2841.7,1566.58 2848.86,1564.28 2856.02,1562.02 2863.19,1559.81 2870.35,1557.64 2877.52,1555.54 2884.68,1553.49 2891.84,1551.52 2899.01,1549.65 2906.17,1547.88 2913.34,1546.24 2920.5,1544.74 2927.67,1543.41 2934.83,1542.25 2941.99,1541.29 2949.16,1540.53 2956.32,1540 2963.49,1539.69 2970.65,1539.63 2977.81,1539.83 2984.98,1540.29 2992.14,1541.04 2999.31,1542.09 3006.47,1543.46 3013.64,1545.2 3020.8,1547.33 3027.96,1549.91 3035.13,1552.98 3042.29,1556.6 3049.46,1560.86 3056.62,1565.83 3063.78,1571.58 3070.95,1578.2 3078.11,1585.75 3085.28,1594.29 3092.44,1603.86 3099.61,1614.46 3106.77,1626.03 3113.93,1638.51 3121.1,1651.74 3128.26,1665.54 3135.43,1679.67 3142.59,1693.86 3149.75,1707.83 3156.92,1721.32 3164.08,1734.06 3171.25,1745.84 3178.41,1756.52 3185.57,1765.99 3192.74,1774.24 3199.9,1781.27 3207.07,1787.16 3214.23,1792.01 3221.4,1795.92 3228.56,1799.04 3235.72,1801.47 3242.89,1803.33 3250.05,1804.71 3257.22,1805.68 3264.38,1806.3 3271.54,1806.61 3278.71,1806.61 3285.87,1806.31 3293.04,1805.71 3300.2,1804.8 3307.37,1803.55 3314.53,1801.96 3321.69,1800.02 3328.86,1797.73 3336.02,1795.09 3343.19,1792.12 3350.35,1788.84 3357.51,1785.29 3364.68,1781.51 3371.84,1777.53 3379.01,1773.4 3386.17,1769.16 3393.33,1764.85 3400.5,1760.48 3407.66,1756.09 3414.83,1751.67 3421.99,1747.23 3429.16,1742.74 3436.32,1738.2 3443.48,1733.57 3450.65,1728.82 3457.81,1723.94 3464.98,1718.89 3472.14,1713.66 3479.3,1708.25 3486.47,1702.68 3493.63,1696.95 3500.8,1691.1 3507.96,1685.19 3515.13,1679.24 3522.29,1673.32 3529.45,1667.46 3536.62,1661.71 3543.78,1656.08 3550.95,1650.59 3558.11,1645.25 3565.27,1640.04 3572.44,1634.93 3579.6,1629.91 3586.77,1624.94 3593.93,1619.98 3601.09,1614.99 3608.26,1609.96 3615.42,1604.86 3622.59,1599.69 3629.75,1594.44 3636.92,1589.13 3644.08,1583.79 3651.24,1578.45 3658.41,1573.18 3665.57,1568.02 3672.74,1563.05 3679.9,1558.33 3687.06,1553.92 3694.23,1549.89 3701.39,1546.28 3708.56,1543.15 3715.72,1540.52 3722.89,1538.39 3730.05,1536.78 3737.21,1535.67 3744.38,1535.01 3751.54,1534.78 3758.71,1534.92 3765.87,1535.38 3773.03,1536.08 3780.2,1536.97 3787.36,1537.99 3794.53,1539.07 3801.69,1540.16 3808.85,1541.21 3816.02,1542.18 3823.18,1543.04 3830.35,1543.76 3837.51,1544.32 3844.68,1544.73 3851.84,1544.99 3859,1545.11 3866.17,1545.14 3873.33,1545.13 3880.5,1545.13 3887.66,1545.26 3894.82,1545.6 3901.99,1546.3 3909.15,1547.52 3916.32,1549.43 3923.48,1552.22 3930.65,1556.09 3937.81,1561.22 3944.97,1567.78 3952.14,1575.89 3959.3,1585.6 3966.47,1596.88 3973.63,1609.59 3980.79,1623.51 3987.96,1638.31 3995.12,1653.61 4002.29,1669 4009.45,1684.07 4016.61,1698.46 4023.78,1711.87 4030.94,1724.14 4038.11,1735.16 4045.27,1744.92 4052.44,1753.5 4059.6,1761.01 4066.76,1767.57 4073.93,1773.32 4081.09,1778.37 4088.26,1782.81 4095.42,1786.68 4102.58,1790 4109.75,1792.76 4116.91,1794.9 4124.08,1796.36 4131.24,1797.09 4138.41,1797.02 4145.57,1796.12 4152.73,1794.37 4159.9,1791.81 4167.06,1788.48 4174.23,1784.48 4181.39,1779.92 4188.55,1774.94 4195.72,1769.68 4202.88,1764.29 4210.05,1758.91 4217.21,1753.66 4224.37,1748.65 4231.54,1743.97 4238.7,1739.68 4245.87,1735.83 4253.03,1732.45 4260.2,1729.55 4267.36,1727.13 4274.52,1725.17 4281.69,1723.64 4288.85,1722.5 4296.02,1721.7 4303.18,1721.18 4310.34,1720.87 4317.51,1720.7 4324.67,1720.6 4331.84,1720.49 4339,1720.29 4346.17,1719.91 4353.33,1719.3 4360.49,1718.39 4367.66,1717.12 4374.82,1715.46 4381.99,1713.39 4389.15,1710.89 4396.31,1707.98 4403.48,1704.67 4410.64,1701 4417.81,1696.99 4424.97,1692.66 4432.14,1688.04 4439.3,1683.11 4446.46,1677.88 4453.63,1672.31 4460.79,1666.37 4467.96,1660 4475.12,1653.17 4482.28,1645.84 4489.45,1638 4496.61,1629.65 4503.78,1625.36 "/>
<polyline clip-path="url(#clip952)" style="stroke:#e26f46; stroke-linecap:round; stroke-linejoin:round; stroke-width:12; stroke-opacity:1; fill:none" points="928.871,1396.82 936.035,1396.82 943.199,1396.82 950.363,1396.82 957.527,1396.82 964.691,1396.82 971.855,1396.82 979.02,1396.82 986.184,1396.82 993.348,1396.82 1000.51,1396.82 1007.68,1396.82 1014.84,1396.82 1022,1396.82 1029.17,1396.82 1036.33,1396.82 1043.5,1396.82 1050.66,1396.82 1057.83,1396.82 1064.99,1396.82 1072.15,1396.82 1079.32,1396.82 1086.48,1396.82 1093.65,1396.82 1100.81,1396.82 1107.97,1396.82 1115.14,1396.82 1122.3,1396.82 1129.47,1396.82 1136.63,1396.81 1143.79,1240.29 1143.79,1531.25 1150.96,1690.73 1158.12,1697.38 1165.29,1705.5 1172.45,1715.06 1179.62,1725.99 1186.78,1738.22 1193.94,1751.66 1201.11,1766.18 1208.27,1781.64 1215.44,1797.86 1222.6,1814.65 1229.76,1831.79 1236.93,1849.06 1244.09,1866.25 1251.26,1883.12 1258.42,1899.49 1265.59,1915.17 1272.75,1930.04 1279.91,1943.99 1287.08,1956.95 1294.24,1968.89 1301.41,1979.82 1308.57,1989.77 1315.73,1998.79 1322.9,2006.95 1330.06,2014.3 1337.23,2020.89 1344.39,2026.77 1351.55,2031.94 1358.72,2036.35 1365.88,2039.93 1373.05,2042.57 1380.21,2044.07 1387.38,2044.21 1394.54,2042.71 1401.7,2039.27 1408.87,2033.52 1416.03,2025.12 1423.2,2013.72 1430.36,1998.99 1437.52,1980.68 1444.69,1958.61 1451.85,1932.7 1459.02,1903 1466.18,1869.7 1473.35,1833.12 1480.51,1793.73 1487.67,1752.09 1494.84,1708.87 1502,1664.77 1509.17,1620.52 1516.33,1576.86 1523.49,1534.45 1530.66,1493.91 1537.82,1455.75 1544.99,1420.4 1552.15,1388.19 1559.31,1359.34 1566.48,1334.01 1573.64,1312.26 1580.81,1294.08 1587.97,1279.41 1595.14,1268.14 1602.3,1260.14 1609.46,1255.21 1616.63,1253.15 1623.79,1253.74 1630.96,1256.74 1638.12,1261.89 1645.28,1268.92 1652.45,1277.55 1659.61,1287.5 1666.78,1298.5 1673.94,1310.28 1681.11,1322.58 1688.27,1335.16 1695.43,1347.79 1702.6,1360.3 1709.76,1372.5 1716.93,1384.27 1724.09,1395.51 1731.25,1406.14 1738.42,1416.13 1745.58,1425.46 1752.75,1434.15 1759.91,1442.26 1767.07,1449.84 1774.24,1457 1781.4,1463.85 1788.57,1470.52 1795.73,1477.16 1802.9,1483.92 1810.06,1490.98 1817.22,1498.49 1824.39,1506.63 1831.55,1515.54 1838.72,1525.36 1845.88,1536.19 1853.04,1548.13 1860.21,1561.21 1867.37,1575.46 1874.54,1590.84 1881.7,1607.3 1888.87,1624.76 1896.03,1643.12 1903.19,1662.23 1910.36,1681.97 1917.52,1702.17 1924.69,1722.67 1931.85,1743.31 1939.01,1763.93 1946.18,1784.36 1953.34,1804.44 1960.51,1824 1967.67,1842.9 1974.84,1861 1982,1878.16 1989.16,1894.27 1996.33,1909.24 2003.49,1923 2010.66,1935.5 2017.82,1946.73 2024.98,1956.68 2032.15,1965.41 2039.31,1972.95 2046.48,1979.39 2053.64,1984.81 2060.8,1989.31 2067.97,1992.98 2075.13,1995.92 2082.3,1998.22 2089.46,1999.93 2096.63,2001.13 2103.79,2001.83 2110.95,2002.05 2118.12,2001.78 2125.28,2000.98 2132.45,1999.58 2139.61,1997.51 2146.77,1994.66 2153.94,1990.94 2161.1,1986.22 2168.27,1980.39 2175.43,1973.33 2182.6,1964.93 2189.76,1955.12 2196.92,1943.83 2204.09,1931.02 2211.25,1916.69 2218.42,1900.86 2225.58,1883.6 2232.74,1864.99 2239.91,1845.15 2247.07,1824.22 2254.24,1802.37 2261.4,1779.79 2268.56,1756.66 2275.73,1733.2 2282.89,1709.63 2290.06,1686.15 2297.22,1663 2304.39,1640.37 2311.55,1618.48 2318.71,1597.52 2325.88,1577.65 2333.04,1559.02 2340.21,1541.73 2347.37,1525.88 2354.53,1511.49 2361.7,1498.56 2368.86,1487.05 2376.03,1476.89 2383.19,1467.95 2390.36,1460.09 2397.52,1453.16 2404.68,1446.96 2411.85,1441.32 2419.01,1436.05 2426.18,1430.97 2433.34,1425.92 2440.5,1420.74 2447.67,1415.3 2454.83,1409.49 2462,1403.22 2469.16,1396.45 2476.32,1389.12 2483.49,1381.25 2490.65,1372.86 2497.82,1364 2504.98,1354.77 2512.15,1345.28 2519.31,1335.68 2526.47,1326.16 2533.64,1316.91 2540.8,1308.17 2547.97,1300.17 2555.13,1293.19 2562.29,1287.49 2569.46,1283.34 2576.62,1281.03 2583.79,1280.8 2590.95,1282.92 2598.12,1287.63 2605.28,1295.12 2612.44,1305.6 2619.61,1319.19 2626.77,1336.02 2633.94,1356.12 2641.1,1379.52 2648.26,1406.13 2655.43,1435.83 2662.59,1468.4 2669.76,1503.55 2676.92,1540.9 2684.08,1580 2691.25,1620.34 2698.41,1661.31 2705.58,1702.32 2712.74,1742.72 2719.91,1781.88 2727.07,1819.23 2734.23,1854.24 2741.4,1886.47 2748.56,1915.59 2755.73,1941.39 2762.89,1963.77 2770.05,1982.72 2777.22,1998.35 2784.38,2010.85 2791.55,2020.46 2798.71,2027.48 2805.88,2032.22 2813.04,2034.97 2820.2,2036.03 2827.37,2035.68 2834.53,2034.14 2841.7,2031.6 2848.86,2028.22 2856.02,2024.1 2863.19,2019.29 2870.35,2013.82 2877.52,2007.68 2884.68,2000.83 2891.84,1993.24 2899.01,1984.84 2906.17,1975.58 2913.34,1965.4 2920.5,1954.29 2927.67,1942.23 2934.83,1929.26 2941.99,1915.43 2949.16,1900.83 2956.32,1885.59 2963.49,1869.87 2970.65,1853.83 2977.81,1837.67 2984.98,1821.58 2992.14,1805.76 2999.31,1790.39 3006.47,1775.65 3013.64,1761.7 3020.8,1748.65 3027.96,1736.63 3035.13,1725.71 3042.29,1715.96 3049.46,1707.44 3056.62,1700.16 3063.78,1694.16 3070.95,1689.43 3078.11,1685.96 3085.28,1683.73 3092.44,1682.68 3099.61,1682.72 3106.77,1683.74 3113.93,1685.57 3121.1,1688 3128.26,1690.78 3135.43,1693.63 3142.59,1696.23 3149.75,1698.26 3156.92,1699.38 3164.08,1699.31 3171.25,1697.79 3178.41,1694.61 3185.57,1689.61 3192.74,1682.68 3199.9,1673.76 3207.07,1662.81 3214.23,1649.83 3221.4,1634.81 3228.56,1617.77 3235.72,1598.72 3242.89,1577.67 3250.05,1554.68 3257.22,1529.82 3264.38,1503.2 3271.54,1475 3278.71,1445.47 3285.87,1414.92 3293.04,1383.75 3300.2,1352.38 3307.37,1321.31 3314.53,1291.03 3321.69,1262.05 3328.86,1234.81 3336.02,1209.73 3343.19,1187.15 3350.35,1167.33 3357.51,1150.46 3364.68,1136.67 3371.84,1126.05 3379.01,1118.65 3386.17,1114.52 3393.33,1113.71 3400.5,1116.32 3407.66,1122.48 3414.83,1132.38 3421.99,1146.27 3429.16,1164.41 3436.32,1187.12 3443.48,1214.68 3450.65,1247.35 3457.81,1285.28 3464.98,1328.49 3472.14,1376.78 3479.3,1429.72 3486.47,1486.64 3493.63,1546.56 3500.8,1608.28 3507.96,1670.41 3515.13,1731.49 3522.29,1790.05 3529.45,1844.76 3536.62,1894.51 3543.78,1938.5 3550.95,1976.26 3558.11,2007.65 3565.27,2032.84 3572.44,2052.24 3579.6,2066.44 3586.77,2076.12 3593.93,2082 3601.09,2084.77 3608.26,2085.08 3615.42,2083.46 3622.59,2080.34 3629.75,2076.05 3636.92,2070.77 3644.08,2064.62 3651.24,2057.59 3658.41,2049.6 3665.57,2040.54 3672.74,2030.22 3679.9,2018.47 3687.06,2005.11 3694.23,1989.98 3701.39,1973 3708.56,1954.11 3715.72,1933.38 3722.89,1910.91 3730.05,1886.91 3737.21,1861.67 3744.38,1835.53 3751.54,1808.88 3758.71,1782.14 3765.87,1755.73 3773.03,1730.04 3780.2,1705.45 3787.36,1682.27 3794.53,1660.77 3801.69,1641.13 3808.85,1623.51 3816.02,1608 3823.18,1594.63 3830.35,1583.43 3837.51,1574.38 3844.68,1567.46 3851.84,1562.66 3859,1559.95 3866.17,1559.36 3873.33,1560.9 3880.5,1564.64 3887.66,1570.65 3894.82,1579.03 3901.99,1589.91 3909.15,1603.37 3916.32,1619.52 3923.48,1638.38 3930.65,1659.93 3937.81,1684.02 3944.97,1710.37 3952.14,1738.57 3959.3,1768 3966.47,1797.94 3973.63,1827.52 3980.79,1855.8 3987.96,1881.87 3995.12,1904.89 4002.29,1924.15 4009.45,1939.17 4016.61,1949.67 4023.78,1955.6 4030.94,1957.07 4038.11,1954.31 4045.27,1947.62 4052.44,1937.27 4059.6,1923.46 4066.76,1906.26 4073.93,1885.64 4081.09,1861.39 4088.26,1833.24 4095.42,1800.83 4102.58,1763.83 4109.75,1722.03 4116.91,1675.41 4124.08,1624.22 4131.24,1569.1 4138.41,1511.01 4145.57,1451.25 4152.73,1391.34 4159.9,1332.91 4167.06,1277.52 4174.23,1226.51 4181.39,1180.89 4188.55,1141.32 4195.72,1108.04 4202.88,1080.91 4210.05,1059.55 4217.21,1043.35 4224.37,1031.62 4231.54,1023.65 4238.7,1018.77 4245.87,1016.43 4253.03,1016.22 4260.2,1017.93 4267.36,1021.5 4274.52,1027.1 4281.69,1035.1 4288.85,1046.04 4296.02,1060.67 4303.18,1079.86 4310.34,1104.59 4317.51,1135.82 4324.67,1174.45 4331.84,1221.13 4339,1276.12 4346.17,1339.18 4353.33,1409.43 4360.49,1485.32 4367.66,1564.72 4374.82,1645.04 4381.99,1723.5 4389.15,1797.44 4396.31,1864.62 4403.48,1923.4 4410.64,1972.88 4417.81,2012.88 4424.97,2043.87 4432.14,2066.77 4439.3,2082.81 4446.46,2093.3 4453.63,2099.53 4460.79,2102.67 4467.96,2103.66 4475.12,2103.24 4482.28,2101.87 4489.45,2099.82 4496.61,2097.1 4503.78,2095.56 "/>
<polyline clip-path="url(#clip952)" style="stroke:#3da44d; stroke-linecap:round; stroke-linejoin:round; stroke-width:12; stroke-opacity:1; fill:none" points="928.871,1246.15 936.035,1247.29 943.199,1250.33 950.363,1254.86 957.527,1260.85 964.691,1268.25 971.855,1277.01 979.02,1287.05 986.184,1298.29 993.348,1310.63 1000.51,1323.95 1007.68,1338.13 1014.84,1353.04 1022,1368.51 1029.17,1384.39 1036.33,1400.5 1043.5,1416.67 1050.66,1432.72 1057.83,1448.47 1064.99,1463.75 1072.15,1478.38 1079.32,1492.2 1086.48,1505.08 1093.65,1516.86 1100.81,1527.43 1107.97,1536.68 1115.14,1544.53 1122.3,1550.9 1129.47,1555.74 1136.63,1559 1143.79,1811.05 1143.79,2580.95 1150.96,2323.43 1158.12,2307.73 1165.29,2287.79 1172.45,2264.2 1179.62,2237.45 1186.78,2207.91 1193.94,2175.88 1201.11,2141.62 1208.27,2105.36 1215.44,2067.35 1222.6,2027.82 1229.76,1987.06 1236.93,1945.38 1244.09,1903.11 1251.26,1860.6 1258.42,1818.23 1265.59,1776.35 1272.75,1735.33 1279.91,1695.5 1287.08,1657.16 1294.24,1620.59 1301.41,1586 1308.57,1553.61 1315.73,1523.59 1322.9,1496.09 1330.06,1471.27 1337.23,1449.26 1344.39,1430.23 1351.55,1414.34 1358.72,1401.8 1365.88,1392.82 1373.05,1387.67 1380.21,1386.59 1387.38,1389.87 1394.54,1397.77 1401.7,1410.53 1408.87,1428.33 1416.03,1451.28 1423.2,1479.35 1430.36,1512.39 1437.52,1550.08 1444.69,1591.88 1451.85,1637.1 1459.02,1684.82 1466.18,1733.98 1473.35,1783.38 1480.51,1831.76 1487.67,1877.83 1494.84,1920.36 1502,1958.2 1509.17,1990.4 1516.33,2016.17 1523.49,2034.93 1530.66,2046.33 1537.82,2050.23 1544.99,2046.66 1552.15,2035.84 1559.31,2018.11 1566.48,1993.94 1573.64,1963.86 1580.81,1928.49 1587.97,1888.47 1595.14,1844.49 1602.3,1797.25 1609.46,1747.43 1616.63,1695.75 1623.79,1642.85 1630.96,1589.41 1638.12,1536.02 1645.28,1483.26 1652.45,1431.68 1659.61,1381.78 1666.78,1334.02 1673.94,1288.81 1681.11,1246.58 1688.27,1207.68 1695.43,1172.48 1702.6,1141.31 1709.76,1114.54 1716.93,1092.5 1724.09,1075.53 1731.25,1064 1738.42,1058.26 1745.58,1058.67 1752.75,1065.56 1759.91,1079.24 1767.07,1099.96 1774.24,1127.87 1781.4,1163.02 1788.57,1205.29 1795.73,1254.39 1802.9,1309.8 1810.06,1370.81 1817.22,1436.44 1824.39,1505.55 1831.55,1576.78 1838.72,1648.7 1845.88,1719.78 1853.04,1788.54 1860.21,1853.57 1867.37,1913.59 1874.54,1967.55 1881.7,2014.61 1888.87,2054.17 1896.03,2085.88 1903.19,2109.61 1910.36,2125.44 1917.52,2133.6 1924.69,2134.47 1931.85,2128.54 1939.01,2116.36 1946.18,2098.56 1953.34,2075.82 1960.51,2048.82 1967.67,2018.27 1974.84,1984.9 1982,1949.42 1989.16,1912.52 1996.33,1874.89 2003.49,1837.17 2010.66,1799.94 2017.82,1763.74 2024.98,1729.07 2032.15,1696.32 2039.31,1665.86 2046.48,1637.96 2053.64,1612.86 2060.8,1590.72 2067.97,1571.67 2075.13,1555.79 2082.3,1543.15 2089.46,1533.79 2096.63,1527.71 2103.79,1524.95 2110.95,1525.51 2118.12,1529.39 2125.28,1536.6 2132.45,1547.13 2139.61,1560.96 2146.77,1578.04 2153.94,1598.31 2161.1,1621.67 2168.27,1647.95 2175.43,1676.96 2182.6,1708.4 2189.76,1741.95 2196.92,1777.18 2204.09,1813.6 2211.25,1850.65 2218.42,1887.73 2225.58,1924.14 2232.74,1959.19 2239.91,1992.14 2247.07,2022.22 2254.24,2048.71 2261.4,2070.86 2268.56,2087.99 2275.73,2099.45 2282.89,2104.64 2290.06,2103.08 2297.22,2094.36 2304.39,2078.22 2311.55,2054.52 2318.71,2023.32 2325.88,1984.85 2333.04,1939.54 2340.21,1888.06 2347.37,1831.25 2354.53,1770.15 2361.7,1705.94 2368.86,1639.9 2376.03,1573.37 2383.19,1507.67 2390.36,1444.04 2397.52,1383.63 2404.68,1327.41 2411.85,1276.2 2419.01,1230.6 2426.18,1191.04 2433.34,1157.77 2440.5,1130.91 2447.67,1110.43 2454.83,1096.21 2462,1088.09 2469.16,1085.83 2476.32,1089.19 2483.49,1097.9 2490.65,1111.72 2497.82,1130.39 2504.98,1153.66 2512.15,1181.3 2519.31,1213.04 2526.47,1248.65 2533.64,1287.83 2540.8,1330.27 2547.97,1375.64 2555.13,1423.54 2562.29,1473.51 2569.46,1525.05 2576.62,1577.59 2583.79,1630.52 2590.95,1683.15 2598.12,1734.79 2605.28,1784.67 2612.44,1832.05 2619.61,1876.16 2626.77,1916.27 2633.94,1951.67 2641.1,1981.71 2648.26,2005.8 2655.43,2023.44 2662.59,2034.27 2669.76,2038.01 2676.92,2034.57 2684.08,2024.01 2691.25,2006.55 2698.41,1982.64 2705.58,1952.88 2712.74,1918.05 2719.91,1879.08 2727.07,1837.01 2734.23,1792.96 2741.4,1748.06 2748.56,1703.42 2755.73,1660.05 2762.89,1618.88 2770.05,1580.67 2777.22,1546.04 2784.38,1515.44 2791.55,1489.17 2798.71,1467.39 2805.88,1450.13 2813.04,1437.36 2820.2,1428.94 2827.37,1424.71 2834.53,1424.49 2841.7,1428.07 2848.86,1435.27 2856.02,1445.9 2863.19,1459.8 2870.35,1476.83 2877.52,1496.85 2884.68,1519.74 2891.84,1545.4 2899.01,1573.68 2906.17,1604.45 2913.34,1637.56 2920.5,1672.79 2927.67,1709.93 2934.83,1748.7 2941.99,1788.79 2949.16,1829.88 2956.32,1871.58 2963.49,1913.53 2970.65,1955.33 2977.81,1996.6 2984.98,2036.95 2992.14,2076.02 2999.31,2113.47 3006.47,2148.96 3013.64,2182.15 3020.8,2212.67 3027.96,2240.13 3035.13,2264.09 3042.29,2284 3049.46,2299.23 3056.62,2309.04 3063.78,2312.58 3070.95,2308.88 3078.11,2296.91 3085.28,2275.63 3092.44,2244.07 3099.61,2201.41 3106.77,2147.09 3113.93,2080.96 3121.1,2003.33 3128.26,1915.1 3135.43,1817.73 3142.59,1713.27 3149.75,1604.23 3156.92,1493.43 3164.08,1383.83 3171.25,1278.33 3178.41,1179.6 3185.57,1089.9 3192.74,1011 3199.9,944.184 3207.07,890.209 3214.23,849.4 3221.4,821.714 3228.56,806.829 3235.72,804.223 3242.89,813.233 3250.05,833.096 3257.22,862.98 3264.38,901.984 3271.54,949.144 3278.71,1003.43 3285.87,1063.75 3293.04,1128.96 3300.2,1197.88 3307.37,1269.34 3314.53,1342.18 3321.69,1415.35 3328.86,1487.88 3336.02,1558.94 3343.19,1627.84 3350.35,1694.07 3357.51,1757.22 3364.68,1817.04 3371.84,1873.34 3379.01,1926.02 3386.17,1974.96 3393.33,2020.06 3400.5,2061.15 3407.66,2097.99 3414.83,2130.23 3421.99,2157.38 3429.16,2178.82 3436.32,2193.79 3443.48,2201.43 3450.65,2200.78 3457.81,2190.88 3464.98,2170.86 3472.14,2140.02 3479.3,2097.99 3486.47,2044.82 3493.63,1981.1 3500.8,1908 3507.96,1827.27 3515.13,1741.16 3522.29,1652.29 3529.45,1563.45 3536.62,1477.39 3543.78,1396.63 3550.95,1323.29 3558.11,1259 3565.27,1204.83 3572.44,1161.33 3579.6,1128.59 3586.77,1106.31 3593.93,1093.93 3601.09,1090.7 3608.26,1095.77 3615.42,1108.27 3622.59,1127.32 3629.75,1152.12 3636.92,1181.91 3644.08,1216.02 3651.24,1253.84 3658.41,1294.84 3665.57,1338.54 3672.74,1384.5 3679.9,1432.32 3687.06,1481.61 3694.23,1531.98 3701.39,1583.04 3708.56,1634.36 3715.72,1685.51 3722.89,1736.01 3730.05,1785.4 3737.21,1833.2 3744.38,1878.97 3751.54,1922.32 3758.71,1962.92 3765.87,2000.53 3773.03,2035.04 3780.2,2066.42 3787.36,2094.8 3794.53,2120.37 3801.69,2143.47 3808.85,2164.46 3816.02,2183.78 3823.18,2201.89 3830.35,2219.23 3837.51,2236.21 3844.68,2253.19 3851.84,2270.42 3859,2288.02 3866.17,2305.98 3873.33,2324.08 3880.5,2341.9 3887.66,2358.76 3894.82,2373.72 3901.99,2385.54 3909.15,2392.66 3916.32,2393.26 3923.48,2385.28 3930.65,2366.51 3937.81,2334.72 3944.97,2287.84 3952.14,2224.21 3959.3,2142.81 3966.47,2043.48 3973.63,1927.14 3980.79,1795.84 3987.96,1652.76 3995.12,1501.97 4002.29,1348.14 4009.45,1196.17 4016.61,1050.71 4023.78,915.88 4030.94,794.955 4038.11,690.312 4045.27,603.438 4052.44,535.079 4059.6,485.438 4066.76,454.398 4073.93,441.702 4081.09,447.086 4088.26,470.323 4095.42,511.182 4102.58,569.323 4109.75,644.131 4116.91,734.538 4124.08,838.872 4131.24,954.773 4138.41,1079.21 4145.57,1208.63 4152.73,1339.18 4159.9,1467.05 4167.06,1588.78 4174.23,1701.54 4181.39,1803.35 4188.55,1893.1 4195.72,1970.55 4202.88,2036.2 4210.05,2091.1 4217.21,2136.67 4224.37,2174.49 4231.54,2206.16 4238.7,2233.18 4245.87,2256.84 4253.03,2278.17 4260.2,2297.89 4267.36,2316.37 4274.52,2333.6 4281.69,2349.17 4288.85,2362.25 4296.02,2371.51 4303.18,2375.22 4310.34,2371.2 4317.51,2356.95 4324.67,2329.8 4331.84,2287.15 4339,2226.8 4346.17,2147.31 4353.33,2048.39 4360.49,1931.16 4367.66,1798.35 4374.82,1654.12 4381.99,1503.79 4389.15,1353.31 4396.31,1208.56 4403.48,1074.81 4410.64,956.23 4417.81,855.653 4424.97,774.544 4432.14,713.173 4439.3,670.894 4446.46,646.456 4453.63,638.297 4460.79,644.78 4467.96,664.339 4475.12,695.57 4482.28,737.247 4489.45,788.3 4496.61,847.77 4503.78,879.494 "/>
<polyline clip-path="url(#clip952)" style="stroke:#000000; stroke-linecap:round; stroke-linejoin:round; stroke-width:8; stroke-opacity:1; fill:none" points="928.871,1546.64 936.035,1546.63 943.199,1546.63 950.363,1546.62 957.527,1546.61 964.691,1546.59 971.855,1546.55 979.02,1546.51 986.184,1546.45 993.348,1546.37 1000.51,1546.27 1007.68,1546.14 1014.84,1545.98 1022,1545.79 1029.17,1545.56 1036.33,1545.3 1043.5,1544.99 1050.66,1544.64 1057.83,1544.25 1064.99,1543.82 1072.15,1543.35 1079.32,1542.83 1086.48,1542.28 1093.65,1541.69 1100.81,1541.06 1107.97,1540.4 1115.14,1539.71 1122.3,1538.99 1129.47,1538.25 1136.63,1537.5 1143.79,1435.39 1143.79,1551.61 1150.96,1651.89 1158.12,1649.13 1165.29,1646.68 1172.45,1644.53 1179.62,1642.66 1186.78,1641.05 1193.94,1639.68 1201.11,1638.53 1208.27,1637.57 1215.44,1636.79 1222.6,1636.15 1229.76,1635.64 1236.93,1635.23 1244.09,1634.92 1251.26,1634.7 1258.42,1634.55 1265.59,1634.48 1272.75,1634.49 1279.91,1634.57 1287.08,1634.74 1294.24,1635.01 1301.41,1635.38 1308.57,1635.87 1315.73,1636.49 1322.9,1637.26 1330.06,1638.18 1337.23,1639.26 1344.39,1640.53 1351.55,1641.99 1358.72,1643.64 1365.88,1645.51 1373.05,1647.58 1380.21,1649.86 1387.38,1652.34 1394.54,1655.02 1401.7,1657.88 1408.87,1660.9 1416.03,1664.03 1423.2,1667.26 1430.36,1670.52 1437.52,1673.77 1444.69,1676.94 1451.85,1679.98 1459.02,1682.83 1466.18,1685.42 1473.35,1687.71 1480.51,1689.64 1487.67,1691.19 1494.84,1692.33 1502,1693.07 1509.17,1693.4 1516.33,1693.35 1523.49,1692.93 1530.66,1692.2 1537.82,1691.19 1544.99,1689.94 1552.15,1688.5 1559.31,1686.9 1566.48,1685.19 1573.64,1683.39 1580.81,1681.54 1587.97,1679.66 1595.14,1677.76 1602.3,1675.88 1609.46,1674.03 1616.63,1672.21 1623.79,1670.45 1630.96,1668.76 1638.12,1667.15 1645.28,1665.65 1652.45,1664.26 1659.61,1663.01 1666.78,1661.9 1673.94,1660.97 1681.11,1660.22 1688.27,1659.67 1695.43,1659.34 1702.6,1659.25 1709.76,1659.41 1716.93,1659.82 1724.09,1660.51 1731.25,1661.48 1738.42,1662.72 1745.58,1664.23 1752.75,1666 1759.91,1668.01 1767.07,1670.24 1774.24,1672.65 1781.4,1675.19 1788.57,1677.82 1795.73,1680.47 1802.9,1683.08 1810.06,1685.58 1817.22,1687.9 1824.39,1689.97 1831.55,1691.74 1838.72,1693.16 1845.88,1694.19 1853.04,1694.8 1860.21,1694.98 1867.37,1694.75 1874.54,1694.11 1881.7,1693.1 1888.87,1691.75 1896.03,1690.1 1903.19,1688.21 1910.36,1686.11 1917.52,1683.84 1924.69,1681.45 1931.85,1678.98 1939.01,1676.45 1946.18,1673.89 1953.34,1671.32 1960.51,1668.77 1967.67,1666.24 1974.84,1663.75 1982,1661.32 1989.16,1658.95 1996.33,1656.66 2003.49,1654.45 2010.66,1652.34 2017.82,1650.33 2024.98,1648.44 2032.15,1646.69 2039.31,1645.07 2046.48,1643.6 2053.64,1642.3 2060.8,1641.16 2067.97,1640.2 2075.13,1639.42 2082.3,1638.84 2089.46,1638.44 2096.63,1638.25 2103.79,1638.26 2110.95,1638.47 2118.12,1638.88 2125.28,1639.49 2132.45,1640.3 2139.61,1641.3 2146.77,1642.49 2153.94,1643.87 2161.1,1645.42 2168.27,1647.13 2175.43,1649 2182.6,1651 2189.76,1653.14 2196.92,1655.38 2204.09,1657.72 2211.25,1660.14 2218.42,1662.63 2225.58,1665.16 2232.74,1667.72 2239.91,1670.29 2247.07,1672.85 2254.24,1675.39 2261.4,1677.89 2268.56,1680.32 2275.73,1682.65 2282.89,1684.86 2290.06,1686.93 2297.22,1688.82 2304.39,1690.49 2311.55,1691.91 2318.71,1693.05 2325.88,1693.87 2333.04,1694.36 2340.21,1694.47 2347.37,1694.21 2354.53,1693.56 2361.7,1692.54 2368.86,1691.17 2376.03,1689.47 2383.19,1687.48 2390.36,1685.26 2397.52,1682.87 2404.68,1680.35 2411.85,1677.78 2419.01,1675.22 2426.18,1672.72 2433.34,1670.33 2440.5,1668.11 2447.67,1666.08 2454.83,1664.27 2462,1662.72 2469.16,1661.44 2476.32,1660.43 2483.49,1659.7 2490.65,1659.26 2497.82,1659.09 2504.98,1659.19 2512.15,1659.54 2519.31,1660.15 2526.47,1660.97 2533.64,1662.01 2540.8,1663.24 2547.97,1664.63 2555.13,1666.18 2562.29,1667.85 2569.46,1669.62 2576.62,1671.47 2583.79,1673.38 2590.95,1675.32 2598.12,1677.28 2605.28,1679.22 2612.44,1681.14 2619.61,1683 2626.77,1684.79 2633.94,1686.48 2641.1,1688.05 2648.26,1689.46 2655.43,1690.69 2662.59,1691.72 2669.76,1692.49 2676.92,1692.99 2684.08,1693.19 2691.25,1693.06 2698.41,1692.58 2705.58,1691.73 2712.74,1690.52 2719.91,1688.95 2727.07,1687.04 2734.23,1684.81 2741.4,1682.3 2748.56,1679.56 2755.73,1676.64 2762.89,1673.58 2770.05,1670.45 2777.22,1667.3 2784.38,1664.17 2791.55,1661.1 2798.71,1658.15 2805.88,1655.33 2813.04,1652.68 2820.2,1650.21 2827.37,1647.94 2834.53,1645.88 2841.7,1644.02 2848.86,1642.37 2856.02,1640.92 2863.19,1639.68 2870.35,1638.62 2877.52,1637.75 2884.68,1637.04 2891.84,1636.5 2899.01,1636.11 2906.17,1635.85 2913.34,1635.72 2920.5,1635.71 2927.67,1635.8 2934.83,1635.99 2941.99,1636.28 2949.16,1636.65 2956.32,1637.12 2963.49,1637.68 2970.65,1638.33 2977.81,1639.1 2984.98,1639.99 2992.14,1641.02 2999.31,1642.21 3006.47,1643.57 3013.64,1645.13 3020.8,1646.91 3027.96,1648.93 3035.13,1651.19 3042.29,1653.71 3049.46,1656.49 3056.62,1659.53 3063.78,1662.8 3070.95,1666.28 3078.11,1669.92 3085.28,1673.66 3092.44,1677.43 3099.61,1681.13 3106.77,1684.66 3113.93,1687.92 3121.1,1690.78 3128.26,1693.16 3135.43,1694.94 3142.59,1696.09 3149.75,1696.54 3156.92,1696.31 3164.08,1695.43 3171.25,1693.96 3178.41,1691.99 3185.57,1689.63 3192.74,1687 3199.9,1684.21 3207.07,1681.39 3214.23,1678.63 3221.4,1676 3228.56,1673.57 3235.72,1671.39 3242.89,1669.46 3250.05,1667.81 3257.22,1666.41 3264.38,1665.25 3271.54,1664.3 3278.71,1663.52 3285.87,1662.89 3293.04,1662.36 3300.2,1661.91 3307.37,1661.51 3314.53,1661.15 3321.69,1660.81 3328.86,1660.5 3336.02,1660.23 3343.19,1660.01 3350.35,1659.86 3357.51,1659.8 3364.68,1659.87 3371.84,1660.1 3379.01,1660.51 3386.17,1661.14 3393.33,1662 3400.5,1663.13 3407.66,1664.53 3414.83,1666.22 3421.99,1668.21 3429.16,1670.47 3436.32,1672.98 3443.48,1675.7 3450.65,1678.57 3457.81,1681.52 3464.98,1684.45 3472.14,1687.26 3479.3,1689.81 3486.47,1692 3493.63,1693.7 3500.8,1694.82 3507.96,1695.27 3515.13,1695 3522.29,1694.01 3529.45,1692.32 3536.62,1690 3543.78,1687.14 3550.95,1683.85 3558.11,1680.25 3565.27,1676.47 3572.44,1672.61 3579.6,1668.79 3586.77,1665.07 3593.93,1661.53 3601.09,1658.21 3608.26,1655.14 3615.42,1652.31 3622.59,1649.74 3629.75,1647.42 3636.92,1645.31 3644.08,1643.4 3651.24,1641.67 3658.41,1640.09 3665.57,1638.62 3672.74,1637.25 3679.9,1635.96 3687.06,1634.7 3694.23,1633.48 3701.39,1632.26 3708.56,1631.04 3715.72,1629.8 3722.89,1628.53 3730.05,1627.23 3737.21,1625.89 3744.38,1624.53 3751.54,1623.16 3758.71,1621.78 3765.87,1620.41 3773.03,1619.08 3780.2,1617.82 3787.36,1616.64 3794.53,1615.58 3801.69,1614.66 3808.85,1613.91 3816.02,1613.36 3823.18,1613.04 3830.35,1612.96 3837.51,1613.16 3844.68,1613.66 3851.84,1614.48 3859,1615.65 3866.17,1617.19 3873.33,1619.12 3880.5,1621.48 3887.66,1624.26 3894.82,1627.5 3901.99,1631.18 3909.15,1635.31 3916.32,1639.85 3923.48,1644.77 3930.65,1650 3937.81,1655.44 3944.97,1660.97 3952.14,1666.44 3959.3,1671.67 3966.47,1676.49 3973.63,1680.71 3980.79,1684.19 3987.96,1686.79 3995.12,1688.46 4002.29,1689.19 4009.45,1689.03 4016.61,1688.11 4023.78,1686.58 4030.94,1684.62 4038.11,1682.44 4045.27,1680.22 4052.44,1678.12 4059.6,1676.3 4066.76,1674.83 4073.93,1673.79 4081.09,1673.2 4088.26,1673.04 4095.42,1673.26 4102.58,1673.76 4109.75,1674.45 4116.91,1675.19 4124.08,1675.83 4131.24,1676.23 4138.41,1676.26 4145.57,1675.83 4152.73,1674.87 4159.9,1673.37 4167.06,1671.35 4174.23,1668.87 4181.39,1666.05 4188.55,1663 4195.72,1659.85 4202.88,1656.72 4210.05,1653.74 4217.21,1651 4224.37,1648.59 4231.54,1646.58 4238.7,1645.02 4245.87,1643.97 4253.03,1643.46 4260.2,1643.51 4267.36,1644.15 4274.52,1645.41 4281.69,1647.28 4288.85,1649.77 4296.02,1652.88 4303.18,1656.56 4310.34,1660.76 4317.51,1665.39 4324.67,1670.32 4331.84,1675.4 4339,1680.4 4346.17,1685.11 4353.33,1689.27 4360.49,1692.64 4367.66,1695.01 4374.82,1696.24 4381.99,1696.26 4389.15,1695.09 4396.31,1692.83 4403.48,1689.66 4410.64,1685.82 4417.81,1681.53 4424.97,1677.05 4432.14,1672.59 4439.3,1668.33 4446.46,1664.39 4453.63,1660.87 4460.79,1657.82 4467.96,1655.24 4475.12,1653.11 4482.28,1651.4 4489.45,1650.04 4496.61,1648.96 4503.78,1648.48 "/>
<polyline clip-path="url(#clip952)" style="stroke:#ff00ff; stroke-linecap:round; stroke-linejoin:round; stroke-width:4; stroke-opacity:1; fill:none" stroke-dasharray="16, 10" points="1143.79,4912.73 1143.79,-1890.08 "/>
<path clip-path="url(#clip950)" d="M947.937 1036.31 L1485.38 1036.31 L1485.38 453.111 L947.937 453.111  Z" fill="#ffffff" fill-rule="evenodd" fill-opacity="1"/>
<polyline clip-path="url(#clip950)" style="stroke:#000000; stroke-linecap:round; stroke-linejoin:round; stroke-width:4; stroke-opacity:1; fill:none" points="947.937,1036.31 1485.38,1036.31 1485.38,453.111 947.937,453.111 947.937,1036.31 "/>
<polyline clip-path="url(#clip950)" style="stroke:#009af9; stroke-linecap:round; stroke-linejoin:round; stroke-width:22.5; stroke-opacity:1; fill:none" points="990.041,550.311 1242.67,550.311 "/>
<path clip-path="url(#clip950)" d="M1332.69 573.466 L1332.69 556.062 L1318.37 556.062 L1318.37 548.857 L1341.37 548.857 L1341.37 576.678 Q1336.29 580.281 1330.17 582.147 Q1324.05 583.97 1317.11 583.97 Q1301.92 583.97 1293.32 575.116 Q1284.77 566.218 1284.77 550.376 Q1284.77 534.491 1293.32 525.637 Q1301.92 516.739 1317.11 516.739 Q1323.44 516.739 1329.13 518.302 Q1334.86 519.864 1339.68 522.902 L1339.68 532.234 Q1334.82 528.111 1329.35 526.027 Q1323.88 523.944 1317.85 523.944 Q1305.95 523.944 1299.96 530.585 Q1294.02 537.225 1294.02 550.376 Q1294.02 563.484 1299.96 570.124 Q1305.95 576.765 1317.85 576.765 Q1322.49 576.765 1326.13 575.984 Q1329.78 575.159 1332.69 573.466 Z" fill="#000000" fill-rule="nonzero" fill-opacity="1" /><path clip-path="url(#clip950)" d="M1359.69 575.333 L1374.01 575.333 L1374.01 525.897 L1358.43 529.022 L1358.43 521.036 L1373.92 517.911 L1382.69 517.911 L1382.69 575.333 L1397.01 575.333 L1397.01 582.711 L1359.69 582.711 L1359.69 575.333 Z" fill="#000000" fill-rule="nonzero" fill-opacity="1" /><polyline clip-path="url(#clip950)" style="stroke:#e26f46; stroke-linecap:round; stroke-linejoin:round; stroke-width:22.5; stroke-opacity:1; fill:none" points="990.041,647.511 1242.67,647.511 "/>
<path clip-path="url(#clip950)" d="M1332.69 670.666 L1332.69 653.262 L1318.37 653.262 L1318.37 646.057 L1341.37 646.057 L1341.37 673.878 Q1336.29 677.481 1330.17 679.347 Q1324.05 681.17 1317.11 681.17 Q1301.92 681.17 1293.32 672.316 Q1284.77 663.418 1284.77 647.576 Q1284.77 631.691 1293.32 622.837 Q1301.92 613.939 1317.11 613.939 Q1323.44 613.939 1329.13 615.502 Q1334.86 617.064 1339.68 620.102 L1339.68 629.434 Q1334.82 625.311 1329.35 623.227 Q1323.88 621.144 1317.85 621.144 Q1305.95 621.144 1299.96 627.785 Q1294.02 634.425 1294.02 647.576 Q1294.02 660.684 1299.96 667.324 Q1305.95 673.965 1317.85 673.965 Q1322.49 673.965 1326.13 673.184 Q1329.78 672.359 1332.69 670.666 Z" fill="#000000" fill-rule="nonzero" fill-opacity="1" /><path clip-path="url(#clip950)" d="M1365.72 672.533 L1396.32 672.533 L1396.32 679.911 L1355.17 679.911 L1355.17 672.533 Q1360.16 667.368 1368.76 658.687 Q1377.39 649.963 1379.61 647.446 Q1383.82 642.715 1385.47 639.46 Q1387.16 636.161 1387.16 632.993 Q1387.16 627.828 1383.51 624.573 Q1379.91 621.318 1374.09 621.318 Q1369.97 621.318 1365.37 622.75 Q1360.81 624.182 1355.61 627.09 L1355.61 618.236 Q1360.9 616.109 1365.5 615.024 Q1370.1 613.939 1373.92 613.939 Q1383.99 613.939 1389.98 618.974 Q1395.97 624.009 1395.97 632.429 Q1395.97 636.422 1394.45 640.024 Q1392.97 643.583 1389.03 648.444 Q1387.94 649.703 1382.12 655.736 Q1376.31 661.726 1365.72 672.533 Z" fill="#000000" fill-rule="nonzero" fill-opacity="1" /><polyline clip-path="url(#clip950)" style="stroke:#3da44d; stroke-linecap:round; stroke-linejoin:round; stroke-width:22.5; stroke-opacity:1; fill:none" points="990.041,744.711 1242.67,744.711 "/>
<path clip-path="url(#clip950)" d="M1332.69 767.866 L1332.69 750.462 L1318.37 750.462 L1318.37 743.257 L1341.37 743.257 L1341.37 771.078 Q1336.29 774.681 1330.17 776.547 Q1324.05 778.37 1317.11 778.37 Q1301.92 778.37 1293.32 769.516 Q1284.77 760.618 1284.77 744.776 Q1284.77 728.891 1293.32 720.037 Q1301.92 711.139 1317.11 711.139 Q1323.44 711.139 1329.13 712.702 Q1334.86 714.264 1339.68 717.302 L1339.68 726.634 Q1334.82 722.511 1329.35 720.427 Q1323.88 718.344 1317.85 718.344 Q1305.95 718.344 1299.96 724.985 Q1294.02 731.625 1294.02 744.776 Q1294.02 757.884 1299.96 764.524 Q1305.95 771.165 1317.85 771.165 Q1322.49 771.165 1326.13 770.384 Q1329.78 769.559 1332.69 767.866 Z" fill="#000000" fill-rule="nonzero" fill-opacity="1" /><path clip-path="url(#clip950)" d="M1384.73 742.172 Q1391.02 743.518 1394.54 747.771 Q1398.1 752.025 1398.1 758.274 Q1398.1 767.866 1391.5 773.118 Q1384.9 778.37 1372.75 778.37 Q1368.67 778.37 1364.33 777.545 Q1360.03 776.764 1355.43 775.158 L1355.43 766.695 Q1359.08 768.821 1363.42 769.906 Q1367.76 770.991 1372.49 770.991 Q1380.74 770.991 1385.03 767.736 Q1389.37 764.481 1389.37 758.274 Q1389.37 752.545 1385.34 749.334 Q1381.34 746.078 1374.18 746.078 L1366.63 746.078 L1366.63 738.874 L1374.53 738.874 Q1381 738.874 1384.42 736.313 Q1387.85 733.709 1387.85 728.848 Q1387.85 723.856 1384.29 721.209 Q1380.78 718.518 1374.18 718.518 Q1370.58 718.518 1366.46 719.299 Q1362.33 720.08 1357.38 721.73 L1357.38 713.917 Q1362.38 712.528 1366.72 711.834 Q1371.1 711.139 1374.96 711.139 Q1384.95 711.139 1390.76 715.697 Q1396.58 720.21 1396.58 727.936 Q1396.58 733.318 1393.5 737.051 Q1390.41 740.74 1384.73 742.172 Z" fill="#000000" fill-rule="nonzero" fill-opacity="1" /><polyline clip-path="url(#clip950)" style="stroke:#000000; stroke-linecap:round; stroke-linejoin:round; stroke-width:15; stroke-opacity:1; fill:none" points="990.041,841.911 1242.67,841.911 "/>
<path clip-path="url(#clip950)" d="M1337.03 814.502 L1337.03 823.747 Q1332.6 819.624 1327.57 817.584 Q1322.58 815.544 1316.93 815.544 Q1305.82 815.544 1299.92 822.358 Q1294.02 829.129 1294.02 841.976 Q1294.02 854.78 1299.92 861.594 Q1305.82 868.365 1316.93 868.365 Q1322.58 868.365 1327.57 866.325 Q1332.6 864.285 1337.03 860.162 L1337.03 869.32 Q1332.43 872.445 1327.26 874.007 Q1322.14 875.57 1316.41 875.57 Q1301.7 875.57 1293.24 866.586 Q1284.77 857.558 1284.77 841.976 Q1284.77 826.351 1293.24 817.367 Q1301.7 808.339 1316.41 808.339 Q1322.23 808.339 1327.35 809.902 Q1332.52 811.421 1337.03 814.502 Z" fill="#000000" fill-rule="nonzero" fill-opacity="1" /><path clip-path="url(#clip950)" d="M1376.87 815.457 Q1367.32 815.457 1361.68 822.575 Q1356.08 829.693 1356.08 841.976 Q1356.08 854.216 1361.68 861.334 Q1367.32 868.452 1376.87 868.452 Q1386.42 868.452 1391.98 861.334 Q1397.58 854.216 1397.58 841.976 Q1397.58 829.693 1391.98 822.575 Q1386.42 815.457 1376.87 815.457 M1376.87 808.339 Q1390.5 808.339 1398.66 817.497 Q1406.82 826.612 1406.82 841.976 Q1406.82 857.297 1398.66 866.455 Q1390.5 875.57 1376.87 875.57 Q1363.2 875.57 1355 866.455 Q1346.84 857.341 1346.84 841.976 Q1346.84 826.612 1355 817.497 Q1363.2 808.339 1376.87 808.339 Z" fill="#000000" fill-rule="nonzero" fill-opacity="1" /><path clip-path="url(#clip950)" d="M1420.54 809.511 L1429.3 809.511 L1429.3 874.311 L1420.54 874.311 L1420.54 809.511 Z" fill="#000000" fill-rule="nonzero" fill-opacity="1" /><polyline clip-path="url(#clip950)" style="stroke:#ff00ff; stroke-linecap:round; stroke-linejoin:round; stroke-width:7.5; stroke-opacity:1; fill:none" stroke-dasharray="30, 19" points="990.041,939.111 1242.67,939.111 "/>
<path clip-path="url(#clip950)" d="M1298.66 909.098 L1298.66 922.9 L1315.11 922.9 L1315.11 929.107 L1298.66 929.107 L1298.66 955.496 Q1298.66 961.442 1300.27 963.134 Q1301.92 964.827 1306.91 964.827 L1315.11 964.827 L1315.11 971.511 L1306.91 971.511 Q1297.66 971.511 1294.15 968.082 Q1290.63 964.61 1290.63 955.496 L1290.63 929.107 L1284.77 929.107 L1284.77 922.9 L1290.63 922.9 L1290.63 909.098 L1298.66 909.098 Z" fill="#000000" fill-rule="nonzero" fill-opacity="1" /><path clip-path="url(#clip950)" d="M1362.55 986.268 L1362.55 992.475 L1316.37 992.475 L1316.37 986.268 L1362.55 986.268 Z" fill="#000000" fill-rule="nonzero" fill-opacity="1" /><path clip-path="url(#clip950)" d="M1405.04 924.767 L1405.04 932.232 Q1401.66 930.366 1398.23 929.454 Q1394.84 928.499 1391.37 928.499 Q1383.6 928.499 1379.3 933.447 Q1375.01 938.352 1375.01 947.249 Q1375.01 956.147 1379.3 961.095 Q1383.6 965.999 1391.37 965.999 Q1394.84 965.999 1398.23 965.088 Q1401.66 964.133 1405.04 962.266 L1405.04 969.645 Q1401.7 971.207 1398.1 971.989 Q1394.54 972.77 1390.5 972.77 Q1379.52 972.77 1373.05 965.869 Q1366.59 958.968 1366.59 947.249 Q1366.59 935.357 1373.1 928.543 Q1379.65 921.728 1391.02 921.728 Q1394.71 921.728 1398.23 922.51 Q1401.74 923.248 1405.04 924.767 Z" fill="#000000" fill-rule="nonzero" fill-opacity="1" /><path clip-path="url(#clip950)" d="M1426.83 909.098 L1426.83 922.9 L1443.28 922.9 L1443.28 929.107 L1426.83 929.107 L1426.83 955.496 Q1426.83 961.442 1428.43 963.134 Q1430.08 964.827 1435.08 964.827 L1443.28 964.827 L1443.28 971.511 L1435.08 971.511 Q1425.83 971.511 1422.31 968.082 Q1418.8 964.61 1418.8 955.496 L1418.8 929.107 L1412.94 929.107 L1412.94 922.9 L1418.8 922.9 L1418.8 909.098 L1426.83 909.098 Z" fill="#000000" fill-rule="nonzero" fill-opacity="1" /></svg>
