<?xml version="1.0" encoding="utf-8"?>
<svg xmlns="http://www.w3.org/2000/svg" xmlns:xlink="http://www.w3.org/1999/xlink" width="1200" height="800" viewBox="0 0 4800 3200">
<defs>
  <clipPath id="clip990">
    <rect x="0" y="0" width="4800" height="3200"/>
  </clipPath>
</defs>
<path clip-path="url(#clip990)" d="M0 3200 L4800 3200 L4800 0 L0 0  Z" fill="#ffffff" fill-rule="evenodd" fill-opacity="1"/>
<defs>
  <clipPath id="clip991">
    <rect x="960" y="0" width="3361" height="3200"/>
  </clipPath>
</defs>
<path clip-path="url(#clip990)" d="M854.74 2645.13 L4611.02 2645.13 L4611.02 377.524 L854.74 377.524  Z" fill="#ffffff" fill-rule="evenodd" fill-opacity="1"/>
<defs>
  <clipPath id="clip992">
    <rect x="854" y="377" width="3757" height="2269"/>
  </clipPath>
</defs>
<polyline clip-path="url(#clip992)" style="stroke:#000000; stroke-linecap:round; stroke-linejoin:round; stroke-width:8; stroke-opacity:0.05; fill:none" stroke-dasharray="32, 20" points="1324.06,2645.13 1324.06,377.524 "/>
<polyline clip-path="url(#clip992)" style="stroke:#000000; stroke-linecap:round; stroke-linejoin:round; stroke-width:8; stroke-opacity:0.05; fill:none" stroke-dasharray="32, 20" points="2384.28,2645.13 2384.28,377.524 "/>
<polyline clip-path="url(#clip992)" style="stroke:#000000; stroke-linecap:round; stroke-linejoin:round; stroke-width:8; stroke-opacity:0.05; fill:none" stroke-dasharray="32, 20" points="3444.5,2645.13 3444.5,377.524 "/>
<polyline clip-path="url(#clip992)" style="stroke:#000000; stroke-linecap:round; stroke-linejoin:round; stroke-width:8; stroke-opacity:0.05; fill:none" stroke-dasharray="32, 20" points="4504.71,2645.13 4504.71,377.524 "/>
<polyline clip-path="url(#clip992)" style="stroke:#000000; stroke-linecap:round; stroke-linejoin:round; stroke-width:8; stroke-opacity:0.05; fill:none" stroke-dasharray="32, 20" points="854.74,2562.02 4611.02,2562.02 "/>
<polyline clip-path="url(#clip992)" style="stroke:#000000; stroke-linecap:round; stroke-linejoin:round; stroke-width:8; stroke-opacity:0.05; fill:none" stroke-dasharray="32, 20" points="854.74,1965.08 4611.02,1965.08 "/>
<polyline clip-path="url(#clip992)" style="stroke:#000000; stroke-linecap:round; stroke-linejoin:round; stroke-width:8; stroke-opacity:0.05; fill:none" stroke-dasharray="32, 20" points="854.74,1368.14 4611.02,1368.14 "/>
<polyline clip-path="url(#clip992)" style="stroke:#000000; stroke-linecap:round; stroke-linejoin:round; stroke-width:8; stroke-opacity:0.05; fill:none" stroke-dasharray="32, 20" points="854.74,771.204 4611.02,771.204 "/>
<polyline clip-path="url(#clip990)" style="stroke:#000000; stroke-linecap:round; stroke-linejoin:round; stroke-width:4; stroke-opacity:1; fill:none" points="854.74,2645.13 4611.02,2645.13 "/>
<polyline clip-path="url(#clip990)" style="stroke:#000000; stroke-linecap:round; stroke-linejoin:round; stroke-width:4; stroke-opacity:1; fill:none" points="1324.06,2645.13 1324.06,2626.23 "/>
<polyline clip-path="url(#clip990)" style="stroke:#000000; stroke-linecap:round; stroke-linejoin:round; stroke-width:4; stroke-opacity:1; fill:none" points="2384.28,2645.13 2384.28,2626.23 "/>
<polyline clip-path="url(#clip990)" style="stroke:#000000; stroke-linecap:round; stroke-linejoin:round; stroke-width:4; stroke-opacity:1; fill:none" points="3444.5,2645.13 3444.5,2626.23 "/>
<polyline clip-path="url(#clip990)" style="stroke:#000000; stroke-linecap:round; stroke-linejoin:round; stroke-width:4; stroke-opacity:1; fill:none" points="4504.71,2645.13 4504.71,2626.23 "/>
<path clip-path="url(#clip990)" d="M1123.08 2798.9 L1252.92 2798.9 L1252.92 2816.12 L1123.08 2816.12 L1123.08 2798.9 Z" fill="#000000" fill-rule="nonzero" fill-opacity="1" /><path clip-path="url(#clip990)" d="M1297.27 2721.33 L1377.58 2721.33 L1377.58 2738.54 L1316.01 2738.54 L1316.01 2775.61 Q1320.46 2774.09 1324.92 2773.38 Q1329.38 2772.57 1333.83 2772.57 Q1359.15 2772.57 1373.94 2786.45 Q1388.72 2800.32 1388.72 2824.02 Q1388.72 2848.42 1373.53 2862 Q1358.34 2875.46 1330.69 2875.46 Q1321.17 2875.46 1311.25 2873.84 Q1301.43 2872.22 1290.89 2868.98 L1290.89 2848.42 Q1300.01 2853.39 1309.73 2855.82 Q1319.45 2858.25 1330.29 2858.25 Q1347.81 2858.25 1358.04 2849.03 Q1368.27 2839.82 1368.27 2824.02 Q1368.27 2808.22 1358.04 2799 Q1347.81 2789.79 1330.29 2789.79 Q1322.08 2789.79 1313.88 2791.61 Q1305.78 2793.43 1297.27 2797.28 L1297.27 2721.33 Z" fill="#000000" fill-rule="nonzero" fill-opacity="1" /><path clip-path="url(#clip990)" d="M1472.78 2734.8 Q1456.98 2734.8 1448.98 2750.39 Q1441.08 2765.89 1441.08 2797.08 Q1441.08 2828.17 1448.98 2843.77 Q1456.98 2859.26 1472.78 2859.26 Q1488.68 2859.26 1496.58 2843.77 Q1504.58 2828.17 1504.58 2797.08 Q1504.58 2765.89 1496.58 2750.39 Q1488.68 2734.8 1472.78 2734.8 M1472.78 2718.59 Q1498.2 2718.59 1511.57 2738.75 Q1525.03 2758.8 1525.03 2797.08 Q1525.03 2835.26 1511.57 2855.41 Q1498.2 2875.46 1472.78 2875.46 Q1447.36 2875.46 1433.89 2855.41 Q1420.52 2835.26 1420.52 2797.08 Q1420.52 2758.8 1433.89 2738.75 Q1447.36 2718.59 1472.78 2718.59 Z" fill="#000000" fill-rule="nonzero" fill-opacity="1" /><path clip-path="url(#clip990)" d="M2384.28 2734.8 Q2368.48 2734.8 2360.48 2750.39 Q2352.58 2765.89 2352.58 2797.08 Q2352.58 2828.17 2360.48 2843.77 Q2368.48 2859.26 2384.28 2859.26 Q2400.18 2859.26 2408.08 2843.77 Q2416.08 2828.17 2416.08 2797.08 Q2416.08 2765.89 2408.08 2750.39 Q2400.18 2734.8 2384.28 2734.8 M2384.28 2718.59 Q2409.7 2718.59 2423.06 2738.75 Q2436.53 2758.8 2436.53 2797.08 Q2436.53 2835.26 2423.06 2855.41 Q2409.7 2875.46 2384.28 2875.46 Q2358.86 2875.46 2345.39 2855.41 Q2332.02 2835.26 2332.02 2797.08 Q2332.02 2758.8 2345.39 2738.75 Q2358.86 2718.59 2384.28 2718.59 Z" fill="#000000" fill-rule="nonzero" fill-opacity="1" /><path clip-path="url(#clip990)" d="M3333.8 2721.33 L3414.11 2721.33 L3414.11 2738.54 L3352.54 2738.54 L3352.54 2775.61 Q3357 2774.09 3361.45 2773.38 Q3365.91 2772.57 3370.36 2772.57 Q3395.68 2772.57 3410.47 2786.45 Q3425.25 2800.32 3425.25 2824.02 Q3425.25 2848.42 3410.06 2862 Q3394.87 2875.46 3367.22 2875.46 Q3357.7 2875.46 3347.78 2873.84 Q3337.96 2872.22 3327.42 2868.98 L3327.42 2848.42 Q3336.54 2853.39 3346.26 2855.82 Q3355.98 2858.25 3366.82 2858.25 Q3384.34 2858.25 3394.57 2849.03 Q3404.8 2839.82 3404.8 2824.02 Q3404.8 2808.22 3394.57 2799 Q3384.34 2789.79 3366.82 2789.79 Q3358.62 2789.79 3350.41 2791.61 Q3342.31 2793.43 3333.8 2797.28 L3333.8 2721.33 Z" fill="#000000" fill-rule="nonzero" fill-opacity="1" /><path clip-path="url(#clip990)" d="M3509.31 2734.8 Q3493.51 2734.8 3485.51 2750.39 Q3477.61 2765.89 3477.61 2797.08 Q3477.61 2828.17 3485.51 2843.77 Q3493.51 2859.26 3509.31 2859.26 Q3525.21 2859.26 3533.11 2843.77 Q3541.11 2828.17 3541.11 2797.08 Q3541.11 2765.89 3533.11 2750.39 Q3525.21 2734.8 3509.31 2734.8 M3509.31 2718.59 Q3534.73 2718.59 3548.1 2738.75 Q3561.57 2758.8 3561.57 2797.08 Q3561.57 2835.26 3548.1 2855.41 Q3534.73 2875.46 3509.31 2875.46 Q3483.89 2875.46 3470.42 2855.41 Q3457.05 2835.26 3457.05 2797.08 Q3457.05 2758.8 3470.42 2738.75 Q3483.89 2718.59 3509.31 2718.59 Z" fill="#000000" fill-rule="nonzero" fill-opacity="1" /><path clip-path="url(#clip990)" d="M4327.99 2855.31 L4361.41 2855.31 L4361.41 2739.96 L4325.06 2747.25 L4325.06 2728.62 L4361.21 2721.33 L4381.67 2721.33 L4381.67 2855.31 L4415.09 2855.31 L4415.09 2872.53 L4327.99 2872.53 L4327.99 2855.31 Z" fill="#000000" fill-rule="nonzero" fill-opacity="1" /><path clip-path="url(#clip990)" d="M4500.16 2734.8 Q4484.36 2734.8 4476.36 2750.39 Q4468.46 2765.89 4468.46 2797.08 Q4468.46 2828.17 4476.36 2843.77 Q4484.36 2859.26 4500.16 2859.26 Q4516.06 2859.26 4523.96 2843.77 Q4531.96 2828.17 4531.96 2797.08 Q4531.96 2765.89 4523.96 2750.39 Q4516.06 2734.8 4500.16 2734.8 M4500.16 2718.59 Q4525.58 2718.59 4538.94 2738.75 Q4552.41 2758.8 4552.41 2797.08 Q4552.41 2835.26 4538.94 2855.41 Q4525.58 2875.46 4500.16 2875.46 Q4474.74 2875.46 4461.27 2855.41 Q4447.9 2835.26 4447.9 2797.08 Q4447.9 2758.8 4461.27 2738.75 Q4474.74 2718.59 4500.16 2718.59 Z" fill="#000000" fill-rule="nonzero" fill-opacity="1" /><path clip-path="url(#clip990)" d="M4632.11 2734.8 Q4616.32 2734.8 4608.32 2750.39 Q4600.42 2765.89 4600.42 2797.08 Q4600.42 2828.17 4608.32 2843.77 Q4616.32 2859.26 4632.11 2859.26 Q4648.01 2859.26 4655.91 2843.77 Q4663.91 2828.17 4663.91 2797.08 Q4663.91 2765.89 4655.91 2750.39 Q4648.01 2734.8 4632.11 2734.8 M4632.11 2718.59 Q4657.53 2718.59 4670.9 2738.75 Q4684.37 2758.8 4684.37 2797.08 Q4684.37 2835.26 4670.9 2855.41 Q4657.53 2875.46 4632.11 2875.46 Q4606.7 2875.46 4593.23 2855.41 Q4579.86 2835.26 4579.86 2797.08 Q4579.86 2758.8 4593.23 2738.75 Q4606.7 2718.59 4632.11 2718.59 Z" fill="#000000" fill-rule="nonzero" fill-opacity="1" /><path clip-path="url(#clip990)" d="M2464.96 2994.02 Q2454.64 2986.93 2430.43 2986.93 Q2404.81 2986.93 2404.81 2998.78 Q2404.81 3008.09 2431.54 3012.95 Q2452.61 3016.7 2464.46 3028.04 Q2478.84 3041.72 2478.84 3069.77 Q2478.84 3096.61 2464.96 3112.4 Q2451.09 3128.3 2426.79 3128.3 Q2402.58 3128.3 2388.61 3112.4 Q2374.73 3096.61 2374.73 3068.76 Q2374.73 3048.1 2388.61 3031.39 Q2393.97 3024.91 2401.57 3021.26 Q2385.77 3013.26 2385.77 2998.98 Q2385.77 2971.43 2430.43 2971.43 Q2452.81 2971.43 2464.96 2978.52 L2464.96 2994.02 M2415.54 3026.32 Q2408.66 3029.26 2403.09 3036.65 Q2394.38 3048.1 2394.38 3068.76 Q2394.38 3089.31 2402.99 3100.86 Q2411.7 3112.51 2426.79 3112.51 Q2441.67 3112.51 2450.38 3100.76 Q2459.09 3089.01 2459.09 3069.77 Q2459.09 3049.62 2449.88 3039.89 Q2440.05 3029.46 2427.29 3028.35 Q2420.81 3027.74 2415.54 3026.32 Z" fill="#000000" fill-rule="nonzero" fill-opacity="1" /><path clip-path="url(#clip990)" d="M2620.42 2967.99 Q2606.85 2991.28 2600.27 3014.07 Q2593.68 3036.86 2593.68 3060.25 Q2593.68 3083.64 2600.27 3106.63 Q2606.95 3129.52 2620.42 3152.71 L2604.21 3152.71 Q2589.02 3128.91 2581.43 3105.92 Q2573.93 3082.93 2573.93 3060.25 Q2573.93 3037.67 2581.43 3014.78 Q2588.92 2991.89 2604.21 2967.99 L2620.42 2967.99 Z" fill="#000000" fill-rule="nonzero" fill-opacity="1" /><path clip-path="url(#clip990)" d="M2731.21 3029.16 L2731.21 2967.79 L2749.84 2967.79 L2749.84 3125.37 L2731.21 3125.37 L2731.21 3108.35 Q2725.34 3118.48 2716.32 3123.44 Q2707.41 3128.3 2694.85 3128.3 Q2674.3 3128.3 2661.33 3111.9 Q2648.47 3095.49 2648.47 3068.76 Q2648.47 3042.02 2661.33 3025.61 Q2674.3 3009.21 2694.85 3009.21 Q2707.41 3009.21 2716.32 3014.17 Q2725.34 3019.03 2731.21 3029.16 M2667.71 3068.76 Q2667.71 3089.31 2676.12 3101.06 Q2684.63 3112.71 2699.41 3112.71 Q2714.2 3112.71 2722.7 3101.06 Q2731.21 3089.31 2731.21 3068.76 Q2731.21 3048.2 2722.7 3036.55 Q2714.2 3024.8 2699.41 3024.8 Q2684.63 3024.8 2676.12 3036.55 Q2667.71 3048.2 2667.71 3068.76 Z" fill="#000000" fill-rule="nonzero" fill-opacity="1" /><path clip-path="url(#clip990)" d="M2885.25 3064 L2885.25 3073.11 L2799.57 3073.11 Q2800.78 3092.35 2811.11 3102.48 Q2821.55 3112.51 2840.08 3112.51 Q2850.81 3112.51 2860.84 3109.87 Q2870.97 3107.24 2880.89 3101.97 L2880.89 3119.6 Q2870.87 3123.85 2860.33 3126.08 Q2849.8 3128.3 2838.96 3128.3 Q2811.82 3128.3 2795.92 3112.51 Q2780.13 3096.71 2780.13 3069.77 Q2780.13 3041.92 2795.11 3025.61 Q2810.2 3009.21 2835.72 3009.21 Q2858.61 3009.21 2871.88 3023.99 Q2885.25 3038.68 2885.25 3064 M2866.61 3058.53 Q2866.41 3043.24 2858 3034.12 Q2849.7 3025.01 2835.93 3025.01 Q2820.33 3025.01 2810.91 3033.82 Q2801.6 3042.63 2800.18 3058.63 L2866.61 3058.53 Z" fill="#000000" fill-rule="nonzero" fill-opacity="1" /><path clip-path="url(#clip990)" d="M2990.47 3067.34 Q2990.47 3047.08 2982.06 3035.94 Q2973.76 3024.8 2958.67 3024.8 Q2943.68 3024.8 2935.27 3035.94 Q2926.97 3047.08 2926.97 3067.34 Q2926.97 3087.49 2935.27 3098.63 Q2943.68 3109.77 2958.67 3109.77 Q2973.76 3109.77 2982.06 3098.63 Q2990.47 3087.49 2990.47 3067.34 M3009.1 3111.29 Q3009.1 3140.25 2996.24 3154.33 Q2983.38 3168.51 2956.85 3168.51 Q2947.02 3168.51 2938.31 3166.99 Q2929.6 3165.57 2921.4 3162.53 L2921.4 3144.41 Q2929.6 3148.86 2937.6 3150.99 Q2945.6 3153.12 2953.91 3153.12 Q2972.24 3153.12 2981.35 3143.5 Q2990.47 3133.98 2990.47 3114.63 L2990.47 3105.42 Q2984.7 3115.44 2975.68 3120.41 Q2966.67 3125.37 2954.11 3125.37 Q2933.25 3125.37 2920.49 3109.47 Q2907.73 3093.57 2907.73 3067.34 Q2907.73 3041.01 2920.49 3025.11 Q2933.25 3009.21 2954.11 3009.21 Q2966.67 3009.21 2975.68 3014.17 Q2984.7 3019.13 2990.47 3029.16 L2990.47 3011.94 L3009.1 3011.94 L3009.1 3111.29 Z" fill="#000000" fill-rule="nonzero" fill-opacity="1" /><path clip-path="url(#clip990)" d="M3044.55 2967.99 L3060.75 2967.99 Q3075.94 2991.89 3083.44 3014.78 Q3091.03 3037.67 3091.03 3060.25 Q3091.03 3082.93 3083.44 3105.92 Q3075.94 3128.91 3060.75 3152.71 L3044.55 3152.71 Q3058.02 3129.52 3064.6 3106.63 Q3071.28 3083.64 3071.28 3060.25 Q3071.28 3036.86 3064.6 3014.07 Q3058.02 2991.28 3044.55 2967.99 Z" fill="#000000" fill-rule="nonzero" fill-opacity="1" /><polyline clip-path="url(#clip990)" style="stroke:#000000; stroke-linecap:round; stroke-linejoin:round; stroke-width:4; stroke-opacity:1; fill:none" points="854.74,2645.13 854.74,377.524 "/>
<polyline clip-path="url(#clip990)" style="stroke:#000000; stroke-linecap:round; stroke-linejoin:round; stroke-width:4; stroke-opacity:1; fill:none" points="854.74,2562.02 873.637,2562.02 "/>
<polyline clip-path="url(#clip990)" style="stroke:#000000; stroke-linecap:round; stroke-linejoin:round; stroke-width:4; stroke-opacity:1; fill:none" points="854.74,1965.08 873.637,1965.08 "/>
<polyline clip-path="url(#clip990)" style="stroke:#000000; stroke-linecap:round; stroke-linejoin:round; stroke-width:4; stroke-opacity:1; fill:none" points="854.74,1368.14 873.637,1368.14 "/>
<polyline clip-path="url(#clip990)" style="stroke:#000000; stroke-linecap:round; stroke-linejoin:round; stroke-width:4; stroke-opacity:1; fill:none" points="854.74,771.204 873.637,771.204 "/>
<path clip-path="url(#clip990)" d="M399.929 2499.89 Q384.131 2499.89 376.13 2515.49 Q368.231 2530.98 368.231 2562.18 Q368.231 2593.27 376.13 2608.86 Q384.131 2624.36 399.929 2624.36 Q415.829 2624.36 423.728 2608.86 Q431.729 2593.27 431.729 2562.18 Q431.729 2530.98 423.728 2515.49 Q415.829 2499.89 399.929 2499.89 M399.929 2483.69 Q425.349 2483.69 438.717 2503.84 Q452.186 2523.89 452.186 2562.18 Q452.186 2600.35 438.717 2620.51 Q425.349 2640.56 399.929 2640.56 Q374.51 2640.56 361.04 2620.51 Q347.672 2600.35 347.672 2562.18 Q347.672 2523.89 361.04 2503.84 Q374.51 2483.69 399.929 2483.69 Z" fill="#000000" fill-rule="nonzero" fill-opacity="1" /><path clip-path="url(#clip990)" d="M488.138 2611.9 L509.506 2611.9 L509.506 2637.62 L488.138 2637.62 L488.138 2611.9 Z" fill="#000000" fill-rule="nonzero" fill-opacity="1" /><path clip-path="url(#clip990)" d="M554.674 2634.48 L554.674 2615.85 Q562.37 2619.5 570.27 2621.42 Q578.169 2623.34 585.764 2623.34 Q606.019 2623.34 616.652 2609.77 Q627.387 2596.1 628.906 2568.35 Q623.033 2577.06 614.019 2581.72 Q605.006 2586.38 594.069 2586.38 Q571.384 2586.38 558.117 2572.71 Q544.951 2558.93 544.951 2535.14 Q544.951 2511.84 558.725 2497.77 Q572.498 2483.69 595.385 2483.69 Q621.615 2483.69 635.388 2503.84 Q649.262 2523.89 649.262 2562.18 Q649.262 2597.92 632.248 2619.29 Q615.336 2640.56 586.676 2640.56 Q578.979 2640.56 571.08 2639.04 Q563.181 2637.52 554.674 2634.48 M595.385 2570.38 Q609.158 2570.38 617.159 2560.96 Q625.261 2551.54 625.261 2535.14 Q625.261 2518.83 617.159 2509.41 Q609.158 2499.89 595.385 2499.89 Q581.612 2499.89 573.51 2509.41 Q565.51 2518.83 565.51 2535.14 Q565.51 2551.54 573.51 2560.96 Q581.612 2570.38 595.385 2570.38 Z" fill="#000000" fill-rule="nonzero" fill-opacity="1" /><path clip-path="url(#clip990)" d="M732.306 2553.87 Q718.533 2553.87 710.431 2563.29 Q702.43 2572.71 702.43 2589.11 Q702.43 2605.42 710.431 2614.94 Q718.533 2624.36 732.306 2624.36 Q746.079 2624.36 754.079 2614.94 Q762.181 2605.42 762.181 2589.11 Q762.181 2572.71 754.079 2563.29 Q746.079 2553.87 732.306 2553.87 M772.916 2489.77 L772.916 2508.4 Q765.219 2504.75 757.32 2502.83 Q749.522 2500.91 741.825 2500.91 Q721.571 2500.91 710.836 2514.58 Q700.202 2528.25 698.683 2555.9 Q704.658 2547.09 713.672 2542.43 Q722.685 2537.67 733.521 2537.67 Q756.307 2537.67 769.473 2551.54 Q782.74 2565.31 782.74 2589.11 Q782.74 2612.41 768.966 2626.48 Q755.193 2640.56 732.306 2640.56 Q706.076 2640.56 692.202 2620.51 Q678.327 2600.35 678.327 2562.18 Q678.327 2526.32 695.341 2505.06 Q712.355 2483.69 741.015 2483.69 Q748.712 2483.69 756.51 2485.21 Q764.409 2486.73 772.916 2489.77 Z" fill="#000000" fill-rule="nonzero" fill-opacity="1" /><path clip-path="url(#clip990)" d="M401.043 1902.95 Q385.245 1902.95 377.244 1918.55 Q369.345 1934.04 369.345 1965.24 Q369.345 1996.33 377.244 2011.92 Q385.245 2027.42 401.043 2027.42 Q416.943 2027.42 424.842 2011.92 Q432.843 1996.33 432.843 1965.24 Q432.843 1934.04 424.842 1918.55 Q416.943 1902.95 401.043 1902.95 M401.043 1886.75 Q426.463 1886.75 439.831 1906.9 Q453.3 1926.95 453.3 1965.24 Q453.3 2003.41 439.831 2023.57 Q426.463 2043.62 401.043 2043.62 Q375.624 2043.62 362.154 2023.57 Q348.786 2003.41 348.786 1965.24 Q348.786 1926.95 362.154 1906.9 Q375.624 1886.75 401.043 1886.75 Z" fill="#000000" fill-rule="nonzero" fill-opacity="1" /><path clip-path="url(#clip990)" d="M489.252 2014.96 L510.62 2014.96 L510.62 2040.68 L489.252 2040.68 L489.252 2014.96 Z" fill="#000000" fill-rule="nonzero" fill-opacity="1" /><path clip-path="url(#clip990)" d="M555.788 2037.54 L555.788 2018.91 Q563.484 2022.56 571.384 2024.48 Q579.283 2026.4 586.878 2026.4 Q607.133 2026.4 617.766 2012.83 Q628.501 1999.16 630.02 1971.41 Q624.147 1980.12 615.133 1984.78 Q606.12 1989.44 595.183 1989.44 Q572.498 1989.44 559.231 1975.77 Q546.065 1961.99 546.065 1938.2 Q546.065 1914.9 559.839 1900.83 Q573.612 1886.75 596.499 1886.75 Q622.729 1886.75 636.502 1906.9 Q650.376 1926.95 650.376 1965.24 Q650.376 2000.98 633.362 2022.35 Q616.45 2043.62 587.79 2043.62 Q580.093 2043.62 572.194 2042.1 Q564.295 2040.58 555.788 2037.54 M596.499 1973.44 Q610.272 1973.44 618.273 1964.02 Q626.375 1954.6 626.375 1938.2 Q626.375 1921.89 618.273 1912.47 Q610.272 1902.95 596.499 1902.95 Q582.726 1902.95 574.624 1912.47 Q566.624 1921.89 566.624 1938.2 Q566.624 1954.6 574.624 1964.02 Q582.726 1973.44 596.499 1973.44 Z" fill="#000000" fill-rule="nonzero" fill-opacity="1" /><path clip-path="url(#clip990)" d="M730.888 1968.88 Q716.305 1968.88 707.899 1976.68 Q699.595 1984.48 699.595 1998.15 Q699.595 2011.82 707.899 2019.62 Q716.305 2027.42 730.888 2027.42 Q745.471 2027.42 753.877 2019.62 Q762.282 2011.72 762.282 1998.15 Q762.282 1984.48 753.877 1976.68 Q745.573 1968.88 730.888 1968.88 M710.431 1960.17 Q697.265 1956.93 689.873 1947.92 Q682.581 1938.9 682.581 1925.94 Q682.581 1907.81 695.443 1897.28 Q708.405 1886.75 730.888 1886.75 Q753.472 1886.75 766.333 1897.28 Q779.195 1907.81 779.195 1925.94 Q779.195 1938.9 771.802 1947.92 Q764.51 1956.93 751.446 1960.17 Q766.232 1963.61 774.435 1973.64 Q782.74 1983.67 782.74 1998.15 Q782.74 2020.12 769.27 2031.87 Q755.902 2043.62 730.888 2043.62 Q705.874 2043.62 692.404 2031.87 Q679.036 2020.12 679.036 1998.15 Q679.036 1983.67 687.341 1973.64 Q695.645 1963.61 710.431 1960.17 M702.937 1927.87 Q702.937 1939.61 710.228 1946.2 Q717.621 1952.78 730.888 1952.78 Q744.053 1952.78 751.446 1946.2 Q758.94 1939.61 758.94 1927.87 Q758.94 1916.12 751.446 1909.54 Q744.053 1902.95 730.888 1902.95 Q717.621 1902.95 710.228 1909.54 Q702.937 1916.12 702.937 1927.87 Z" fill="#000000" fill-rule="nonzero" fill-opacity="1" /><path clip-path="url(#clip990)" d="M360.433 1426.53 L393.853 1426.53 L393.853 1311.18 L357.496 1318.47 L357.496 1299.84 L393.65 1292.54 L414.107 1292.54 L414.107 1426.53 L447.527 1426.53 L447.527 1443.74 L360.433 1443.74 L360.433 1426.53 Z" fill="#000000" fill-rule="nonzero" fill-opacity="1" /><path clip-path="url(#clip990)" d="M488.846 1418.02 L510.215 1418.02 L510.215 1443.74 L488.846 1443.74 L488.846 1418.02 Z" fill="#000000" fill-rule="nonzero" fill-opacity="1" /><path clip-path="url(#clip990)" d="M598.525 1306.01 Q582.726 1306.01 574.726 1321.61 Q566.826 1337.1 566.826 1368.3 Q566.826 1399.39 574.726 1414.98 Q582.726 1430.48 598.525 1430.48 Q614.424 1430.48 622.324 1414.98 Q630.324 1399.39 630.324 1368.3 Q630.324 1337.1 622.324 1321.61 Q614.424 1306.01 598.525 1306.01 M598.525 1289.81 Q623.944 1289.81 637.312 1309.96 Q650.781 1330.01 650.781 1368.3 Q650.781 1406.48 637.312 1426.63 Q623.944 1446.68 598.525 1446.68 Q573.105 1446.68 559.636 1426.63 Q546.268 1406.48 546.268 1368.3 Q546.268 1330.01 559.636 1309.96 Q573.105 1289.81 598.525 1289.81 Z" fill="#000000" fill-rule="nonzero" fill-opacity="1" /><path clip-path="url(#clip990)" d="M730.483 1306.01 Q714.684 1306.01 706.684 1321.61 Q698.785 1337.1 698.785 1368.3 Q698.785 1399.39 706.684 1414.98 Q714.684 1430.48 730.483 1430.48 Q746.383 1430.48 754.282 1414.98 Q762.282 1399.39 762.282 1368.3 Q762.282 1337.1 754.282 1321.61 Q746.383 1306.01 730.483 1306.01 M730.483 1289.81 Q755.902 1289.81 769.27 1309.96 Q782.74 1330.01 782.74 1368.3 Q782.74 1406.48 769.27 1426.63 Q755.902 1446.68 730.483 1446.68 Q705.063 1446.68 691.594 1426.63 Q678.226 1406.48 678.226 1368.3 Q678.226 1330.01 691.594 1309.96 Q705.063 1289.81 730.483 1289.81 Z" fill="#000000" fill-rule="nonzero" fill-opacity="1" /><path clip-path="url(#clip990)" d="M367.421 829.587 L400.841 829.587 L400.841 714.238 L364.484 721.529 L364.484 702.895 L400.638 695.604 L421.095 695.604 L421.095 829.587 L454.515 829.587 L454.515 846.804 L367.421 846.804 L367.421 829.587 Z" fill="#000000" fill-rule="nonzero" fill-opacity="1" /><path clip-path="url(#clip990)" d="M495.834 821.08 L517.203 821.08 L517.203 846.804 L495.834 846.804 L495.834 821.08 Z" fill="#000000" fill-rule="nonzero" fill-opacity="1" /><path clip-path="url(#clip990)" d="M605.512 709.073 Q589.714 709.073 581.713 724.669 Q573.814 740.164 573.814 771.355 Q573.814 802.446 581.713 818.042 Q589.714 833.537 605.512 833.537 Q621.412 833.537 629.312 818.042 Q637.312 802.446 637.312 771.355 Q637.312 740.164 629.312 724.669 Q621.412 709.073 605.512 709.073 M605.512 692.869 Q630.932 692.869 644.3 713.022 Q657.769 733.074 657.769 771.355 Q657.769 809.535 644.3 829.688 Q630.932 849.74 605.512 849.74 Q580.093 849.74 566.624 829.688 Q553.256 809.535 553.256 771.355 Q553.256 733.074 566.624 713.022 Q580.093 692.869 605.512 692.869 Z" fill="#000000" fill-rule="nonzero" fill-opacity="1" /><path clip-path="url(#clip990)" d="M711.342 829.587 L782.74 829.587 L782.74 846.804 L686.733 846.804 L686.733 829.587 Q698.379 817.536 718.431 797.281 Q738.585 776.925 743.75 771.052 Q753.573 760.013 757.421 752.417 Q761.371 744.721 761.371 737.328 Q761.371 725.276 752.864 717.681 Q744.459 710.086 730.888 710.086 Q721.267 710.086 710.532 713.428 Q699.899 716.77 687.746 723.555 L687.746 702.895 Q700.101 697.933 710.836 695.401 Q721.571 692.869 730.483 692.869 Q753.978 692.869 767.954 704.617 Q781.929 716.364 781.929 736.011 Q781.929 745.328 778.385 753.734 Q774.942 762.038 765.726 773.381 Q763.194 776.318 749.623 790.395 Q736.053 804.37 711.342 829.587 Z" fill="#000000" fill-rule="nonzero" fill-opacity="1" /><path clip-path="url(#clip990)" d="M99.2657 1901.48 L213.299 1943 L213.299 1859.86 L99.2657 1901.48 M230.312 1970.75 L79.1124 1913.02 L79.1124 1889.83 L230.312 1832.21 L230.312 1970.75 Z" fill="#000000" fill-rule="nonzero" fill-opacity="1" /><path clip-path="url(#clip990)" d="M233.249 1774.79 Q233.249 1816.81 173.093 1816.81 Q149.294 1816.81 116.887 1801.12 L116.887 1781.07 Q149.294 1795.55 173.6 1795.55 Q217.451 1795.55 217.451 1773.07 Q217.451 1752.51 162.966 1752.51 L162.966 1735.29 Q217.451 1735.29 217.451 1714.73 Q217.451 1692.25 173.6 1692.25 Q149.294 1692.25 116.887 1706.73 L116.887 1686.68 Q149.294 1670.98 173.093 1670.98 Q233.249 1670.98 233.249 1713.01 Q233.249 1740.56 202.969 1743.9 Q233.249 1748.05 233.249 1774.79 Z" fill="#000000" fill-rule="nonzero" fill-opacity="1" /><path clip-path="url(#clip990)" d="M72.9348 1526.57 Q96.2275 1540.14 119.014 1546.72 Q141.8 1553.3 165.194 1553.3 Q188.588 1553.3 211.577 1546.72 Q234.465 1540.04 257.656 1526.57 L257.656 1542.77 Q233.857 1557.96 210.868 1565.56 Q187.879 1573.05 165.194 1573.05 Q142.61 1573.05 119.723 1565.56 Q96.8351 1558.06 72.9348 1542.77 L72.9348 1526.57 Z" fill="#000000" fill-rule="nonzero" fill-opacity="1" /><path clip-path="url(#clip990)" d="M213.299 1472.39 L273.455 1472.39 L273.455 1491.12 L116.887 1491.12 L116.887 1472.39 L134.103 1472.39 Q123.976 1466.51 119.115 1457.6 Q114.153 1448.59 114.153 1436.13 Q114.153 1415.47 130.559 1402.61 Q146.965 1389.65 173.701 1389.65 Q200.437 1389.65 216.843 1402.61 Q233.249 1415.47 233.249 1436.13 Q233.249 1448.59 228.388 1457.6 Q223.426 1466.51 213.299 1472.39 M173.701 1408.99 Q153.143 1408.99 141.496 1417.5 Q129.749 1425.9 129.749 1440.69 Q129.749 1455.47 141.496 1463.98 Q153.143 1472.39 173.701 1472.39 Q194.259 1472.39 206.007 1463.98 Q217.653 1455.47 217.653 1440.69 Q217.653 1425.9 206.007 1417.5 Q194.259 1408.99 173.701 1408.99 Z" fill="#000000" fill-rule="nonzero" fill-opacity="1" /><path clip-path="url(#clip990)" d="M204.589 1356.13 L204.589 1334.76 L230.312 1334.76 L230.312 1356.13 L204.589 1356.13 Z" fill="#000000" fill-rule="nonzero" fill-opacity="1" /><path clip-path="url(#clip990)" d="M185.55 1294.75 L116.887 1294.75 L116.887 1276.12 L184.841 1276.12 Q200.943 1276.12 209.045 1269.84 Q217.046 1263.56 217.046 1251 Q217.046 1235.92 207.425 1227.21 Q197.804 1218.39 181.195 1218.39 L116.887 1218.39 L116.887 1199.76 L230.312 1199.76 L230.312 1218.39 L212.894 1218.39 Q223.223 1225.18 228.287 1234.19 Q233.249 1243.11 233.249 1254.95 Q233.249 1274.5 221.097 1284.63 Q208.944 1294.75 185.55 1294.75 M114.153 1247.87 L114.153 1247.87 Z" fill="#000000" fill-rule="nonzero" fill-opacity="1" /><path clip-path="url(#clip990)" d="M204.589 1158.75 L204.589 1137.38 L230.312 1137.38 L230.312 1158.75 L204.589 1158.75 Z" fill="#000000" fill-rule="nonzero" fill-opacity="1" /><path clip-path="url(#clip990)" d="M72.9348 1098.39 L72.9348 1082.18 Q96.8351 1066.99 119.723 1059.5 Q142.61 1051.9 165.194 1051.9 Q187.879 1051.9 210.868 1059.5 Q233.857 1066.99 257.656 1082.18 L257.656 1098.39 Q234.465 1084.92 211.577 1078.33 Q188.588 1071.65 165.194 1071.65 Q141.8 1071.65 119.014 1078.33 Q96.2275 1084.92 72.9348 1098.39 Z" fill="#000000" fill-rule="nonzero" fill-opacity="1" /><path clip-path="url(#clip990)" d="M1575.31 126.342 Q1582.83 128.888 1589.89 137.221 Q1597.07 145.555 1604.24 160.138 L1627.97 207.36 L1602.85 207.36 L1580.75 163.032 Q1572.18 145.671 1564.08 139.999 Q1556.09 134.328 1542.21 134.328 L1516.74 134.328 L1516.74 207.36 L1493.36 207.36 L1493.36 34.56 L1546.14 34.56 Q1575.77 34.56 1590.35 46.9442 Q1604.94 59.3284 1604.94 84.3283 Q1604.94 100.648 1597.3 111.411 Q1589.77 122.175 1575.31 126.342 M1516.74 53.7729 L1516.74 115.115 L1546.14 115.115 Q1563.04 115.115 1571.6 107.361 Q1580.28 99.4902 1580.28 84.3283 Q1580.28 69.1663 1571.6 61.5274 Q1563.04 53.7729 1546.14 53.7729 L1516.74 53.7729 Z" fill="#000000" fill-rule="nonzero" fill-opacity="1" /><path clip-path="url(#clip990)" d="M1696.72 92.6615 Q1679.59 92.6615 1669.63 106.087 Q1659.68 119.398 1659.68 142.661 Q1659.68 165.925 1669.52 179.351 Q1679.47 192.661 1696.72 192.661 Q1713.73 192.661 1723.69 179.235 Q1733.64 165.809 1733.64 142.661 Q1733.64 119.629 1723.69 106.203 Q1713.73 92.6615 1696.72 92.6615 M1696.72 74.6061 Q1724.5 74.6061 1740.35 92.6615 Q1756.21 110.717 1756.21 142.661 Q1756.21 174.49 1740.35 192.661 Q1724.5 210.716 1696.72 210.716 Q1668.82 210.716 1652.97 192.661 Q1637.23 174.49 1637.23 142.661 Q1637.23 110.717 1652.97 92.6615 Q1668.82 74.6061 1696.72 74.6061 Z" fill="#000000" fill-rule="nonzero" fill-opacity="1" /><path clip-path="url(#clip990)" d="M1812.57 40.9257 L1812.57 77.7311 L1856.44 77.7311 L1856.44 94.2819 L1812.57 94.2819 L1812.57 164.652 Q1812.57 180.508 1816.86 185.022 Q1821.25 189.536 1834.56 189.536 L1856.44 189.536 L1856.44 207.36 L1834.56 207.36 Q1809.91 207.36 1800.54 198.217 Q1791.16 188.957 1791.16 164.652 L1791.16 94.2819 L1775.54 94.2819 L1775.54 77.7311 L1791.16 77.7311 L1791.16 40.9257 L1812.57 40.9257 Z" fill="#000000" fill-rule="nonzero" fill-opacity="1" /><path clip-path="url(#clip990)" d="M1934.68 92.6615 Q1917.55 92.6615 1907.6 106.087 Q1897.64 119.398 1897.64 142.661 Q1897.64 165.925 1907.48 179.351 Q1917.43 192.661 1934.68 192.661 Q1951.69 192.661 1961.65 179.235 Q1971.6 165.809 1971.6 142.661 Q1971.6 119.629 1961.65 106.203 Q1951.69 92.6615 1934.68 92.6615 M1934.68 74.6061 Q1962.46 74.6061 1978.31 92.6615 Q1994.17 110.717 1994.17 142.661 Q1994.17 174.49 1978.31 192.661 Q1962.46 210.716 1934.68 210.716 Q1906.79 210.716 1890.93 192.661 Q1875.19 174.49 1875.19 142.661 Q1875.19 110.717 1890.93 92.6615 Q1906.79 74.6061 1934.68 74.6061 Z" fill="#000000" fill-rule="nonzero" fill-opacity="1" /><path clip-path="url(#clip990)" d="M2104.59 97.6384 Q2101 95.555 2096.72 94.6291 Q2092.55 93.5875 2087.46 93.5875 Q2069.4 93.5875 2059.68 105.393 Q2050.07 117.083 2050.07 139.073 L2050.07 207.36 L2028.66 207.36 L2028.66 77.7311 L2050.07 77.7311 L2050.07 97.8698 Q2056.79 86.0644 2067.55 80.3931 Q2078.31 74.6061 2093.71 74.6061 Q2095.91 74.6061 2098.57 74.9533 Q2101.23 75.1848 2104.47 75.7635 L2104.59 97.6384 Z" fill="#000000" fill-rule="nonzero" fill-opacity="1" /><path clip-path="url(#clip990)" d="M2284.91 81.5505 L2284.91 101.689 Q2275.88 97.0597 2266.16 94.7449 Q2256.44 92.4301 2246.02 92.4301 Q2230.16 92.4301 2222.18 97.2911 Q2214.31 102.152 2214.31 111.874 Q2214.31 119.282 2219.98 123.564 Q2225.65 127.731 2242.78 131.55 L2250.07 133.171 Q2272.76 138.032 2282.25 146.944 Q2291.85 155.74 2291.85 171.596 Q2291.85 189.652 2277.5 200.184 Q2263.27 210.716 2238.27 210.716 Q2227.85 210.716 2216.51 208.633 Q2205.28 206.666 2192.78 202.615 L2192.78 180.624 Q2204.59 186.758 2216.04 189.883 Q2227.5 192.892 2238.73 192.892 Q2253.78 192.892 2261.88 187.8 Q2269.98 182.592 2269.98 173.217 Q2269.98 164.536 2264.08 159.907 Q2258.29 155.277 2238.5 150.995 L2231.09 149.258 Q2211.3 145.092 2202.5 136.527 Q2193.71 127.847 2193.71 112.8 Q2193.71 94.5134 2206.67 84.5597 Q2219.63 74.6061 2243.47 74.6061 Q2255.28 74.6061 2265.7 76.3422 Q2276.11 78.0783 2284.91 81.5505 Z" fill="#000000" fill-rule="nonzero" fill-opacity="1" /><path clip-path="url(#clip990)" d="M2346.37 187.916 L2346.37 256.665 L2324.96 256.665 L2324.96 77.7311 L2346.37 77.7311 L2346.37 97.4069 Q2353.08 85.8329 2363.27 80.2773 Q2373.57 74.6061 2387.8 74.6061 Q2411.41 74.6061 2426.11 93.356 Q2440.93 112.106 2440.93 142.661 Q2440.93 173.217 2426.11 191.967 Q2411.41 210.716 2387.8 210.716 Q2373.57 210.716 2363.27 205.161 Q2353.08 199.49 2346.37 187.916 M2418.82 142.661 Q2418.82 119.166 2409.1 105.856 Q2399.49 92.4301 2382.59 92.4301 Q2365.7 92.4301 2355.97 105.856 Q2346.37 119.166 2346.37 142.661 Q2346.37 166.157 2355.97 179.582 Q2365.7 192.892 2382.59 192.892 Q2399.49 192.892 2409.1 179.582 Q2418.82 166.157 2418.82 142.661 Z" fill="#000000" fill-rule="nonzero" fill-opacity="1" /><path clip-path="url(#clip990)" d="M2587.11 137.221 L2587.11 147.638 L2489.19 147.638 Q2490.58 169.629 2502.39 181.203 Q2514.31 192.661 2535.49 192.661 Q2547.76 192.661 2559.21 189.652 Q2570.79 186.643 2582.13 180.624 L2582.13 200.763 Q2570.67 205.624 2558.63 208.17 Q2546.6 210.716 2534.21 210.716 Q2503.2 210.716 2485.02 192.661 Q2466.97 174.606 2466.97 143.819 Q2466.97 111.99 2484.1 93.356 Q2501.34 74.6061 2530.51 74.6061 Q2556.67 74.6061 2571.83 91.5041 Q2587.11 108.286 2587.11 137.221 M2565.81 130.972 Q2565.58 113.495 2555.97 103.078 Q2546.48 92.6615 2530.74 92.6615 Q2512.92 92.6615 2502.15 102.731 Q2491.51 112.8 2489.89 131.087 L2565.81 130.972 Z" fill="#000000" fill-rule="nonzero" fill-opacity="1" /><path clip-path="url(#clip990)" d="M2732.94 137.221 L2732.94 147.638 L2635.02 147.638 Q2636.41 169.629 2648.22 181.203 Q2660.14 192.661 2681.32 192.661 Q2693.59 192.661 2705.05 189.652 Q2716.62 186.643 2727.96 180.624 L2727.96 200.763 Q2716.5 205.624 2704.47 208.17 Q2692.43 210.716 2680.05 210.716 Q2649.03 210.716 2630.86 192.661 Q2612.8 174.606 2612.8 143.819 Q2612.8 111.99 2629.93 93.356 Q2647.18 74.6061 2676.34 74.6061 Q2702.5 74.6061 2717.66 91.5041 Q2732.94 108.286 2732.94 137.221 M2711.64 130.972 Q2711.41 113.495 2701.81 103.078 Q2692.31 92.6615 2676.57 92.6615 Q2658.75 92.6615 2647.99 102.731 Q2637.34 112.8 2635.72 131.087 L2711.64 130.972 Z" fill="#000000" fill-rule="nonzero" fill-opacity="1" /><path clip-path="url(#clip990)" d="M2853.19 97.4069 L2853.19 27.2684 L2874.49 27.2684 L2874.49 207.36 L2853.19 207.36 L2853.19 187.916 Q2846.48 199.49 2836.18 205.161 Q2825.99 210.716 2811.64 210.716 Q2788.15 210.716 2773.33 191.967 Q2758.63 173.217 2758.63 142.661 Q2758.63 112.106 2773.33 93.356 Q2788.15 74.6061 2811.64 74.6061 Q2825.99 74.6061 2836.18 80.2773 Q2846.48 85.8329 2853.19 97.4069 M2780.62 142.661 Q2780.62 166.157 2790.23 179.582 Q2799.95 192.892 2816.85 192.892 Q2833.75 192.892 2843.47 179.582 Q2853.19 166.157 2853.19 142.661 Q2853.19 119.166 2843.47 105.856 Q2833.75 92.4301 2816.85 92.4301 Q2799.95 92.4301 2790.23 105.856 Q2780.62 119.166 2780.62 142.661 Z" fill="#000000" fill-rule="nonzero" fill-opacity="1" /><path clip-path="url(#clip990)" d="M2978.42 77.7311 L3000.99 77.7311 L3041.5 186.527 L3082.01 77.7311 L3104.58 77.7311 L3055.97 207.36 L3027.04 207.36 L2978.42 77.7311 Z" fill="#000000" fill-rule="nonzero" fill-opacity="1" /><path clip-path="url(#clip990)" d="M3216.62 81.5505 L3216.62 101.689 Q3207.59 97.0597 3197.87 94.7449 Q3188.15 92.4301 3177.73 92.4301 Q3161.87 92.4301 3153.89 97.2911 Q3146.02 102.152 3146.02 111.874 Q3146.02 119.282 3151.69 123.564 Q3157.36 127.731 3174.49 131.55 L3181.78 133.171 Q3204.46 138.032 3213.96 146.944 Q3223.56 155.74 3223.56 171.596 Q3223.56 189.652 3209.21 200.184 Q3194.97 210.716 3169.97 210.716 Q3159.56 210.716 3148.22 208.633 Q3136.99 206.666 3124.49 202.615 L3124.49 180.624 Q3136.29 186.758 3147.75 189.883 Q3159.21 192.892 3170.44 192.892 Q3185.48 192.892 3193.59 187.8 Q3201.69 182.592 3201.69 173.217 Q3201.69 164.536 3195.78 159.907 Q3190 155.277 3170.21 150.995 L3162.8 149.258 Q3143.01 145.092 3134.21 136.527 Q3125.41 127.847 3125.41 112.8 Q3125.41 94.5134 3138.38 84.5597 Q3151.34 74.6061 3175.18 74.6061 Q3186.99 74.6061 3197.4 76.3422 Q3207.82 78.0783 3216.62 81.5505 Z" fill="#000000" fill-rule="nonzero" fill-opacity="1" /><path clip-path="url(#clip990)" d="M3391.5 57.5923 L3359.79 143.587 L3423.33 143.587 L3391.5 57.5923 M3378.31 34.56 L3404.81 34.56 L3470.67 207.36 L3446.36 207.36 L3430.62 163.032 L3352.73 163.032 L3336.99 207.36 L3312.33 207.36 L3378.31 34.56 Z" fill="#000000" fill-rule="nonzero" fill-opacity="1" /><path clip-path="url(#clip990)" d="M3602.73 129.12 L3602.73 207.36 L3581.43 207.36 L3581.43 129.814 Q3581.43 111.411 3574.25 102.268 Q3567.08 93.1245 3552.73 93.1245 Q3535.48 93.1245 3525.53 104.12 Q3515.57 115.115 3515.57 134.097 L3515.57 207.36 L3494.16 207.36 L3494.16 77.7311 L3515.57 77.7311 L3515.57 97.8698 Q3523.21 86.1801 3533.51 80.3931 Q3543.93 74.6061 3557.47 74.6061 Q3579.81 74.6061 3591.27 88.4949 Q3602.73 102.268 3602.73 129.12 Z" fill="#000000" fill-rule="nonzero" fill-opacity="1" /><path clip-path="url(#clip990)" d="M3730.5 141.041 Q3730.5 117.893 3720.9 105.161 Q3711.41 92.4301 3694.16 92.4301 Q3677.03 92.4301 3667.43 105.161 Q3657.93 117.893 3657.93 141.041 Q3657.93 164.073 3667.43 176.805 Q3677.03 189.536 3694.16 189.536 Q3711.41 189.536 3720.9 176.805 Q3730.5 164.073 3730.5 141.041 M3751.8 191.272 Q3751.8 224.374 3737.1 240.462 Q3722.4 256.665 3692.08 256.665 Q3680.85 256.665 3670.9 254.929 Q3660.94 253.309 3651.57 249.837 L3651.57 229.119 Q3660.94 234.212 3670.09 236.642 Q3679.23 239.073 3688.72 239.073 Q3709.67 239.073 3720.09 228.077 Q3730.5 217.198 3730.5 195.092 L3730.5 184.559 Q3723.91 196.017 3713.61 201.689 Q3703.3 207.36 3688.95 207.36 Q3665.11 207.36 3650.53 189.189 Q3635.94 171.018 3635.94 141.041 Q3635.94 110.948 3650.53 92.7773 Q3665.11 74.6061 3688.95 74.6061 Q3703.3 74.6061 3713.61 80.2773 Q3723.91 85.9486 3730.5 97.4069 L3730.5 77.7311 L3751.8 77.7311 L3751.8 191.272 Z" fill="#000000" fill-rule="nonzero" fill-opacity="1" /><path clip-path="url(#clip990)" d="M3795.67 27.2684 L3816.96 27.2684 L3816.96 207.36 L3795.67 207.36 L3795.67 27.2684 Z" fill="#000000" fill-rule="nonzero" fill-opacity="1" /><path clip-path="url(#clip990)" d="M3972.4 137.221 L3972.4 147.638 L3874.48 147.638 Q3875.87 169.629 3887.68 181.203 Q3899.6 192.661 3920.78 192.661 Q3933.05 192.661 3944.51 189.652 Q3956.08 186.643 3967.42 180.624 L3967.42 200.763 Q3955.97 205.624 3943.93 208.17 Q3931.89 210.716 3919.51 210.716 Q3888.49 210.716 3870.32 192.661 Q3852.26 174.606 3852.26 143.819 Q3852.26 111.99 3869.39 93.356 Q3886.64 74.6061 3915.8 74.6061 Q3941.96 74.6061 3957.12 91.5041 Q3972.4 108.286 3972.4 137.221 M3951.1 130.972 Q3950.87 113.495 3941.27 103.078 Q3931.78 92.6615 3916.03 92.6615 Q3898.21 92.6615 3887.45 102.731 Q3876.8 112.8 3875.18 131.087 L3951.1 130.972 Z" fill="#000000" fill-rule="nonzero" fill-opacity="1" /><polyline clip-path="url(#clip992)" style="stroke:#009af9; stroke-linecap:round; stroke-linejoin:round; stroke-width:12; stroke-opacity:1; fill:none" points="2392.73,1372.01 2391.74,1379.72 2389.77,1387.41 2386.82,1395.05 2382.89,1402.62 2378.01,1410.11 2372.17,1417.5 2365.39,1424.77 2357.69,1431.9 2349.09,1438.89 2339.61,1445.71 2329.27,1452.35 2318.09,1458.81 2306.09,1465.07 2293.31,1471.12 2279.77,1476.97 2265.49,1482.6 2250.51,1488.02 2234.85,1493.23 2218.53,1498.22 2201.59,1503.02 2184.05,1507.61 2165.93,1512.02 2147.26,1516.25 2128.06,1520.32 2108.35,1524.23 2088.15,1528.02 2067.47,1531.69 2046.33,1535.26 2024.74,1538.75 2002.7,1542.18 1980.63,1539.24 1959.35,1529.89 1939.27,1520.44 1920.4,1510.91 1902.76,1501.34 1886.34,1491.73 1871.15,1482.09 1857.2,1472.44 1844.48,1462.79 1832.99,1453.14 1822.74,1443.49 1813.72,1433.87 1805.93,1424.27 1799.36,1414.71 1794.02,1405.2 1789.88,1395.76 1786.95,1386.4 1785.21,1377.14 1784.64,1367.99 1785.24,1358.96 1786.98,1350.07 1789.85,1341.32 1793.83,1332.73 1798.9,1324.3 1805.03,1316.02 1812.22,1307.91 1820.43,1299.95 1829.65,1292.13 1839.86,1284.45 1851.05,1276.9 1863.19,1269.46 1876.28,1262.12 1890.3,1254.85 1905.25,1247.66 1921.11,1240.52 1937.89,1233.43 1955.56,1226.38 1974.14,1219.38 1993.61,1212.43 2013.96,1205.55 2035.19,1198.75 2057.28,1192.08 2080.21,1185.57 2103.96,1179.27 2128.5,1173.24 2153.78,1167.55 2179.77,1162.26 2206.41,1157.46 2233.62,1153.2 2261.34,1149.57 2289.48,1146.64 2317.94,1144.47 2346.63,1143.1 2375.44,1142.59 2404.26,1142.98 2432.97,1144.27 2461.46,1146.5 2489.6,1149.67 2517.28,1153.76 2544.37,1158.77 2570.77,1164.68 2596.35,1171.46 2621.02,1179.06 2644.66,1187.46 2667.18,1196.62 2688.48,1206.48 2708.49,1216.99 2727.1,1228.1 2744.27,1239.76 2759.91,1251.92 2773.96,1264.51 2786.39,1277.49 2797.13,1290.81 2806.15,1304.41 2813.41,1318.24 2818.9,1332.27 2822.58,1346.45 2824.44,1360.74 2824.47,1375.1 2822.66,1389.5 2819,1403.89 2813.51,1418.25 2806.19,1432.52 2797.06,1446.68 2786.12,1460.66 2773.41,1474.43 2758.95,1487.92 2742.8,1501.07 2724.98,1513.82 2705.57,1526.08 2684.62,1537.79 2662.22,1548.85 2638.45,1559.19 2613.41,1568.71 2587.21,1577.35 2559.97,1585.02 2531.81,1591.66 2502.87,1597.23 2473.29,1601.67 2443.22,1604.96 2412.8,1607.1 2382.18,1608.1 2351.5,1607.97 2320.91,1606.76 2290.54,1604.5 2260.52,1601.27 2230.97,1597.13 2202.01,1592.14 2173.73,1586.4 2146.24,1579.96 2119.6,1572.92 2093.9,1565.34 2069.19,1557.31 2045.54,1548.9 2022.98,1540.18 2001.56,1531.2 1981.29,1522.04 1962.21,1512.74 1944.32,1503.36 1927.63,1493.94 1912.14,1484.53 1897.86,1475.15 1884.77,1465.84 1872.86,1456.62 1862.13,1447.49 1852.56,1438.49 1844.14,1429.6 1836.84,1420.83 1830.65,1412.18 1825.57,1403.63 1821.57,1395.19 1818.65,1386.82 1816.79,1378.52 1815.99,1370.27 1816.24,1362.04 1817.55,1353.82 1819.91,1345.59 1823.32,1337.32 1827.8,1328.99 1833.34,1320.59 1839.96,1312.11 1847.68,1303.53 1856.49,1294.85 1866.43,1286.06 1877.49,1277.17 1889.7,1268.17 1903.07,1259.1 1917.6,1249.95 1933.3,1240.77 1950.17,1231.58 1968.22,1222.42 1987.44,1213.34 2007.8,1204.39 2029.31,1195.62 2051.91,1187.1 2075.59,1178.89 2100.29,1171.06 2125.96,1163.69 2152.55,1156.85 2179.97,1150.62 2208.14,1145.07 2236.97,1140.29 2266.36,1136.33 2296.2,1133.28 2326.37,1131.19 2356.74,1130.11 2387.18,1130.09 2417.55,1131.17 2447.71,1133.36 2477.53,1136.68 2506.84,1141.1 2535.52,1146.62 2563.43,1153.2 2590.43,1160.79 2616.4,1169.32 2641.23,1178.73 2664.79,1188.96 2687.01,1199.9 2707.78,1211.5 2727.03,1223.66 2744.7,1236.32 2760.72,1249.4 2775.05,1262.83 2787.64,1276.54 2798.46,1290.49 2807.49,1304.62 2814.7,1318.89 2820.08,1333.24 2823.62,1347.65 2825.32,1362.07 2825.17,1376.47 2823.19,1390.81 2819.38,1405.05 2813.76,1419.15 2806.35,1433.08 2797.17,1446.77 2786.26,1460.2 2773.65,1473.3 2759.39,1486.02 2743.53,1498.3 2726.13,1510.1 2707.26,1521.34 2686.99,1531.97 2665.4,1541.94 2642.58,1551.19 2618.63,1559.67 2593.65,1567.34 2567.74,1574.14 2541.02,1580.05 2513.6,1585.04 2485.61,1589.09 2457.16,1592.17 2428.37,1594.3 2399.38,1595.47 2370.29,1595.7 2341.24,1595.02 2312.33,1593.45 2283.67,1591.06 2255.36,1587.88 2227.51,1583.99 2200.2,1579.44 2173.51,1574.32 2147.5,1568.7 2122.24,1562.64 2097.78,1556.23 2074.16,1549.54 2051.4,1542.62 2029.54,1535.52 2008.6,1528.3 1988.59,1521 1969.51,1513.63 1951.38,1506.23 1934.2,1498.81 1917.96,1491.37 1902.68,1483.92 1888.35,1476.44 1874.99,1468.93 1862.58,1461.38 1851.14,1453.77 1840.69,1446.09 1831.21,1438.32 1822.74,1430.45 1815.29,1422.47 1808.86,1414.36 1803.48,1406.11 1799.16,1397.72 1795.92,1389.18 1793.79,1380.49 1792.77,1371.66 1792.9,1362.68 1794.18,1353.57 1796.63,1344.33 1800.28,1334.97 1805.12,1325.51 1811.19,1315.96 1818.48,1306.33 1827,1296.63 1836.77,1286.89 1847.78,1277.11 1860.05,1267.31 1873.57,1257.51 1888.35,1247.71 1904.37,1237.94 1921.64,1228.22 1940.15,1218.56 1959.9,1208.99 1980.85,1199.54 2003.01,1190.26 2026.33,1181.2 2050.8,1172.4 2076.37,1163.95 2103,1155.92 2130.62,1148.41 2159.16,1141.52 2188.53,1135.36 2218.64,1130.04 2249.36,1125.68 2280.58,1122.4 2312.14,1120.28 2343.89,1119.41 2375.67,1119.84 2407.31,1121.62 2438.64,1124.74 2469.48,1129.18 2499.67,1134.89 2529.06,1141.81 2557.49,1149.85 2584.83,1158.89 2610.95,1168.85 2635.75,1179.6 2659.12,1191.05 2681,1203.08 2701.31,1215.61 2719.99,1228.55 2736.99,1241.82 2752.28,1255.36 2765.82,1269.09 2777.6,1282.97 2787.6,1296.95 2795.81,1310.99 2802.22,1325.03 2806.83,1339.05 2809.66,1353.01 2810.71,1366.86 2810,1380.58 2807.54,1394.12 2803.37,1407.44 2797.51,1420.52 2789.99,1433.31 2780.86,1445.77 2770.16,1457.88 2757.94,1469.59 2744.24,1480.87 2729.14,1491.69 2712.68,1502.02 2694.93,1511.83 2675.97,1521.08 2655.85,1529.75 2634.67,1537.81 2612.5,1545.22 2589.43,1551.96 2565.53,1557.99 2540.92,1563.29 2515.67,1567.83 2489.9,1571.59 2463.69,1574.57 2437.15,1576.76 2410.38,1578.18 2383.48,1578.85 2356.54,1578.82 2329.64,1578.13 2302.87,1576.85 2276.3,1575.04 2249.98,1572.79 2223.98,1570.18 2198.33,1567.25 2173.07,1564.09 2148.23,1560.74 2123.82,1557.24 2099.87,1553.61 2076.39,1549.86 2053.4,1546 2030.91,1542.01 2008.95,1537.86 1987.52,1533.54 1966.66,1529.02 1946.39,1524.25 1926.75,1519.22 1907.77,1513.88 1889.5,1508.22 1871.97,1502.21 1855.23,1495.84 1839.33,1489.11 1824.32,1482.02 1810.23,1474.58 1797.11,1466.82 1785.01,1458.76 1773.95,1450.45 1763.97,1441.93 1755.09,1433.25 1747.33,1424.45 1740.7,1415.6 1735.19,1406.74 1730.82,1397.93 1727.57,1389.22 1725.42,1380.63 1724.36,1372.21 1724.37,1363.98 1725.42,1355.96 1727.47,1348.15 1730.51,1340.56 1734.51,1333.17 1739.45,1325.98 1745.29,1318.94 1752.02,1312.04 1759.63,1305.24 1768.11,1298.49 1777.44,1291.76 1787.64,1285 1798.71,1278.16 1810.67,1271.19 1823.52,1264.05 1837.3,1256.7 1852.04,1249.1 1867.77,1241.23 1884.52,1233.07 1902.33,1224.61 1921.24,1215.88 1941.29,1206.91 1962.49,1197.76 1984.87,1188.52 2008.43,1179.31 2033.15,1170.28 2059.01,1161.58 2085.95,1153.43 2113.88,1146 2142.7,1139.5 2172.29,1134.12 2202.48,1130.01 2233.1,1127.3 2263.98,1126.06 2294.92,1126.32 2325.73,1128.08 2356.23,1131.28 2386.23,1135.82 2415.57,1141.6 2444.1,1148.49 2471.68,1156.36 2498.21,1165.07 2523.57,1174.51 2547.69,1184.56 2570.49,1195.1 2591.92,1206.05 2611.93,1217.31 2630.48,1228.81 2647.55,1240.48 2663.13,1252.25 2677.19,1264.07 2689.74,1275.91 2700.78,1287.72 2710.32,1299.46 2718.35,1311.11 2724.91,1322.65 2730,1334.05 2733.64,1345.28 2735.86,1356.34 2736.67,1367.2 2736.11,1377.84 2734.2,1388.26 2730.98,1398.44 2726.47,1408.36 2720.71,1418.03 2713.73,1427.43 2705.57,1436.56 2696.25,1445.42 2685.82,1453.98 2674.31,1462.26 2661.77,1470.23 2648.23,1477.88 2633.73,1485.18 2618.32,1492.12 2602.04,1498.66 2584.96,1504.77 2567.13,1510.43 2548.6,1515.6 2529.45,1520.27 2509.73,1524.43 2489.51,1528.08 2468.86,1531.24 2447.83,1533.96 2426.47,1536.28 2404.84,1538.29 2382.97,1540.05 2360.89,1541.64 2338.6,1543.14 2316.13,1544.61 2293.47,1546.08 2270.62,1547.58 2247.58,1549.11 2224.34,1550.64 2200.91,1552.13 2177.29,1553.53 2153.5,1554.77 2129.57,1555.77 2105.54,1556.45 2081.44,1556.71 2057.34,1556.46 2033.31,1555.62 2009.44,1554.1 1985.8,1551.84 "/>
<polyline clip-path="url(#clip992)" style="stroke:#e26f46; stroke-linecap:round; stroke-linejoin:round; stroke-width:12; stroke-opacity:1; fill:none" points="2327.19,1360.81 2329.07,1346.14 2332.82,1331.48 2338.45,1316.81 2345.95,1302.15 2355.32,1287.49 2366.58,1272.83 2379.7,1258.17 2394.7,1243.52 2411.58,1228.87 2430.32,1214.24 2450.94,1199.61 2473.42,1185 2497.78,1170.41 2523.99,1155.83 2552.07,1141.29 2582.01,1126.76 2613.81,1112.27 2647.45,1097.82 2682.94,1083.41 2720.27,1069.04 2759.44,1054.72 2800.43,1040.45 2843.24,1026.24 2887.87,1012.09 2934.3,997.999 2982.53,983.976 3032.55,970.022 3084.35,956.14 3137.92,942.33 3193.25,928.596 3249.8,923.232 3306.48,926.603 3362.67,930.837 3418.26,936.049 3473.11,942.353 3527.08,949.858 3580.01,958.668 3631.72,968.883 3682.03,980.592 3730.74,993.876 3777.64,1008.8 3822.53,1025.41 3865.19,1043.75 3905.39,1063.82 3942.91,1085.61 3977.54,1109.11 4009.06,1134.25 4037.26,1160.98 4061.95,1189.21 4082.93,1218.84 4100.05,1249.79 4113.13,1281.93 4122.03,1315.16 4126.62,1349.36 4126.78,1384.45 4122.4,1420.3 4113.39,1456.83 4099.68,1493.94 4081.19,1531.54 4057.86,1569.56 4029.66,1607.89 3996.53,1646.44 3958.47,1685.11 3915.46,1723.78 3867.52,1762.3 3814.68,1800.5 3756.98,1838.2 3694.5,1875.17 3627.36,1911.16 3555.71,1945.87 3479.71,1978.99 3399.6,2010.18 3315.65,2039.08 3228.17,2065.33 3137.53,2088.56 3044.14,2108.43 2948.44,2124.64 2850.91,2136.9 2752.09,2145.02 2652.5,2148.83 2552.7,2148.25 2453.26,2143.29 2354.73,2133.99 2257.66,2120.48 2162.57,2102.96 2069.97,2081.66 1980.31,2056.86 1894.03,2028.88 1811.5,1998.06 1733.08,1964.75 1659.05,1929.31 1589.67,1892.09 1525.14,1853.45 1465.62,1813.72 1411.23,1773.25 1362.04,1732.33 1318.1,1691.25 1279.4,1650.28 1245.92,1609.66 1217.59,1569.61 1194.34,1530.32 1176.06,1491.94 1162.62,1454.6 1153.87,1418.42 1149.68,1383.45 1149.88,1349.76 1154.3,1317.35 1162.79,1286.22 1175.17,1256.35 1191.3,1227.69 1211.02,1200.18 1234.19,1173.74 1260.68,1148.3 1290.36,1123.75 1323.13,1100.02 1358.89,1077 1397.55,1054.62 1439.04,1032.8 1483.28,1011.47 1530.23,990.581 1579.82,970.095 1632.01,949.995 1686.74,930.289 1743.97,911.003 1803.63,892.188 1865.66,873.919 1929.99,856.291 1996.52,839.42 2065.16,823.437 2135.77,808.487 2208.22,794.721 2282.34,782.296 2357.95,771.365 2434.86,762.077 2512.85,754.567 2591.67,748.962 2671.08,745.368 2750.81,743.876 2830.6,744.558 2910.16,747.464 2989.2,752.627 3067.43,760.06 3144.58,769.755 3220.33,781.689 3294.42,795.817 3366.57,812.081 3436.51,830.406 3503.98,850.699 3568.73,872.86 3630.54,896.772 3689.18,922.313 3744.47,949.351 3796.2,977.753 3844.23,1007.38 3888.4,1038.1 3928.58,1069.78 3964.66,1102.3 3996.53,1135.52 4024.11,1169.36 4047.34,1203.69 4066.15,1238.43 4080.49,1273.49 4090.34,1308.79 4095.66,1344.26 4096.44,1379.84 4092.67,1415.44 4084.35,1451.02 4071.48,1486.5 4054.09,1521.8 4032.2,1556.84 4005.85,1591.54 3975.09,1625.79 3939.99,1659.49 3900.62,1692.52 3857.08,1724.74 3809.48,1756.01 3757.95,1786.2 3702.64,1815.14 3643.72,1842.67 3581.37,1868.65 3515.82,1892.9 3447.28,1915.29 3376.01,1935.67 3302.27,1953.91 3226.34,1969.91 3148.52,1983.55 3069.1,1994.77 2988.41,2003.5 2906.77,2009.71 2824.49,2013.4 2741.9,2014.56 2659.32,2013.24 2577.06,2009.51 2495.44,2003.43 2414.73,1995.13 2335.21,1984.73 2257.16,1972.37 2180.79,1958.23 2106.34,1942.47 2034,1925.27 1963.93,1906.82 1896.3,1887.29 1831.21,1866.86 1768.79,1845.67 1709.12,1823.88 1652.27,1801.59 1598.29,1778.9 1547.23,1755.89 1499.14,1732.61 1454.04,1709.07 1411.96,1685.28 1372.94,1661.21 1337.03,1636.84 1304.25,1612.11 1274.66,1586.96 1248.31,1561.31 1225.29,1535.08 1205.66,1508.19 1189.52,1480.56 1176.96,1452.12 1168.1,1422.79 1163.05,1392.52 1161.93,1361.26 1164.87,1328.99 1172.01,1295.71 1183.46,1261.42 1199.36,1226.19 1219.83,1190.07 1244.96,1153.16 1274.85,1115.6 1309.58,1077.53 1349.2,1039.15 1393.73,1000.67 1443.17,962.327 1497.49,924.383 1556.62,887.125 1620.45,850.857 1688.84,815.896 1761.59,782.571 1838.48,751.216 1919.23,722.164 2003.52,695.743 2091.01,672.265 2181.29,652.02 2273.94,635.271 2368.49,622.242 2464.46,613.111 2561.34,608.004 2658.61,606.99 2755.74,610.077 2852.23,617.209 2947.55,628.271 3041.22,643.09 3132.76,661.443 3221.75,683.063 3307.79,707.654 3390.51,734.899 3469.59,764.468 3544.77,796.036 3615.81,829.284 3682.5,863.912 3744.7,899.642 3802.27,936.223 3855.12,973.431 3903.19,1011.07 3946.43,1048.97 3984.81,1086.98 4018.34,1124.99 4047.01,1162.87 4070.85,1200.53 4089.9,1237.89 4104.19,1274.85 4113.79,1311.35 4118.75,1347.28 4119.17,1382.57 4115.11,1417.13 4106.69,1450.85 4094.02,1483.64 4077.22,1515.4 4056.43,1546.01 4031.81,1575.39 4003.51,1603.43 3971.72,1630.05 3936.62,1655.15 3898.42,1678.69 3857.3,1700.61 3813.49,1720.88 3767.19,1739.49 3718.62,1756.44 3667.99,1771.74 3615.5,1785.45 3561.36,1797.6 3505.76,1808.27 3448.88,1817.52 3390.91,1825.44 3332.01,1832.11 3272.32,1837.63 3212,1842.09 3151.17,1845.58 3089.95,1848.23 3028.43,1850.12 2966.72,1851.37 2904.88,1852.09 2842.97,1852.39 2781.05,1852.4 2719.13,1852.21 2657.25,1851.94 2595.4,1851.67 2533.58,1851.47 2471.78,1851.41 2409.97,1851.5 2348.15,1851.75 2286.28,1852.1 2224.37,1852.51 2162.4,1852.85 2100.41,1853.02 2038.42,1852.85 1976.48,1852.17 1914.67,1850.8 1853.09,1848.54 1791.87,1845.16 1731.17,1840.47 1671.17,1834.24 1612.08,1826.24 1554.14,1816.27 1497.61,1804.1 1442.79,1789.52 1390,1772.37 1339.58,1752.46 1291.89,1729.68 1247.31,1703.91 1206.21,1675.13 1168.99,1643.31 1136.03,1608.52 1107.7,1570.85 1084.36,1530.44 1066.35,1487.5 1053.98,1442.24 1047.53,1394.92 1047.25,1345.81 1053.34,1295.2 1065.98,1243.38 1085.31,1190.64 1111.42,1137.29 1144.37,1083.62 1184.19,1029.94 1230.85,976.56 1284.3,923.812 1344.43,872.041 1411.09,821.623 1484.09,772.962 1563.17,726.498 1648.03,682.701 1738.28,642.071 1833.49,605.123 1933.16,572.377 2036.71,544.335 2143.52,521.455 2252.9,504.128 2364.12,492.646 2476.43,487.184 2589.05,487.78 2701.21,494.329 2812.17,506.584 2921.22,524.174 3027.71,546.624 3131.05,573.387 3230.73,603.875 3326.32,637.488 3417.44,673.649 3503.81,711.816 3585.2,751.505 3661.45,792.293 3732.43,833.826 3798.08,875.808 3858.34,918.003 3913.2,960.22 3962.68,1002.31 4006.78,1044.14 4045.56,1085.61 4079.07,1126.61 4107.37,1167.04 4130.55,1206.79 4148.69,1245.73 4161.92,1283.73 4170.35,1320.62 4174.15,1356.25 4173.49,1390.42 4168.56,1422.96 4159.59,1453.68 4146.81,1482.4 4130.5,1508.96 4110.94,1533.24 4088.43,1555.12 4063.28,1574.55 4035.8,1591.49 4006.32,1605.95 3975.14,1617.98 3942.57,1627.67 3908.9,1635.14 3874.42,1640.52 3839.36,1643.99 3803.98,1645.7 3768.48,1645.87 3733.04,1644.65 3697.83,1642.26 3662.99,1638.87 3628.64,1634.67 3594.87,1629.83 3561.74,1624.52 3529.32,1618.93 3497.61,1613.2 3466.64,1607.53 3436.38,1602.07 3406.78,1597.03 3377.8,1592.59 3349.33,1588.95 3321.26,1586.33 3293.45,1584.97 3265.71,1585.08 3237.85,1586.91 3209.64,1590.68 3180.8,1596.58 3151.06,1604.8 3120.12,1615.44 3087.66,1628.58 3053.35,1644.18 3016.9,1662.18 2978.01,1682.38 2936.41,1704.55 2891.87,1728.38 2844.19,1753.52 2793.24,1779.59 2738.93,1806.19 2681.2,1832.93 2620.07,1859.42 2555.59,1885.29 2487.87,1910.16 2417.05,1933.68 2343.34,1955.47 2266.98,1975.16 2188.25,1992.32 2107.53,2006.52 2025.2,2017.3 1941.75,2024.16 1857.71,2026.61 1773.66,2024.2 1690.25,2016.51 1608.19,2003.22 1528.2,1984.15 1451.01,1959.25 1377.38,1928.64 1308.01,1892.6 1243.57,1851.54 1184.67,1805.99 1131.84,1756.55 1085.54,1703.85 1046.15,1648.51 1013.96,1591.11 989.218,1532.18 972.08,1472.14 962.666,1411.38 961.049,1350.18 967.273,1288.77 981.353,1227.32 1003.28,1165.96 1033.05,1104.84 1070.6,1044.06 1115.9,983.78 1168.86,924.2 1229.38,865.578 1297.31,808.254 1372.47,752.668 1454.58,699.363 1543.32,648.986 1638.28,602.277 1738.91,560.045 1844.61,523.123 1954.64,492.316 2068.18,468.334 2184.3,451.727 2302.06,442.825 2420.46,441.702 2538.52,448.158 2655.3,461.742 2769.93,481.793 2881.63,507.505 2989.73,537.996 3093.69,572.378 3193.06,609.814 3287.49,649.554 3376.74,690.964 3460.61,733.529 3539,776.848 3611.81,820.625 3679.01,864.645 3740.58,908.754 3796.51,952.842 3846.8,996.815 3891.49,1040.58 "/>
<polyline clip-path="url(#clip992)" style="stroke:#3da44d; stroke-linecap:round; stroke-linejoin:round; stroke-width:12; stroke-opacity:1; fill:none" points="2439.26,1353.4 2443.02,1323.98 2450.54,1294.79 2461.76,1265.97 2476.64,1237.67 2495.09,1210.02 2517.03,1183.17 2542.34,1157.25 2570.9,1132.37 2602.56,1108.66 2637.18,1086.22 2674.58,1065.14 2714.58,1045.49 2757,1027.36 2801.64,1010.79 2848.3,995.804 2896.77,982.435 2946.84,970.68 2998.32,960.521 3050.99,951.926 3104.67,944.843 3159.16,939.206 3214.29,934.931 3269.88,931.922 3325.78,930.07 3381.85,929.253 3437.97,929.342 3494.03,930.197 3549.94,931.673 3605.63,933.619 3661.05,935.883 3714.12,970.394 3760.75,1036.65 3798.97,1101.88 3828.95,1165.6 3850.9,1227.4 3865.09,1286.92 3871.84,1343.85 3871.49,1397.9 3864.42,1448.83 3851.06,1496.4 3831.85,1540.42 3807.24,1580.7 3777.73,1617.1 3743.83,1649.51 3706.03,1677.82 3664.89,1702.01 3620.91,1722.05 3574.64,1737.97 3526.58,1749.83 3477.27,1757.72 3427.19,1761.76 3376.84,1762.11 3326.66,1758.93 3277.1,1752.44 3228.57,1742.83 3181.46,1730.33 3136.11,1715.19 3092.85,1697.65 3051.97,1677.99 3013.72,1656.48 2978.33,1633.42 2945.96,1609.13 2916.75,1583.95 2890.8,1558.24 2868.14,1532.4 2848.77,1506.85 2832.62,1482.04 2819.56,1458.42 2809.42,1436.5 2801.94,1416.77 2796.81,1399.71 2793.66,1385.81 2792.06,1375.5 2791.53,1369.16 2791.53,1367.1 2791.51,1369.54 2790.88,1376.61 2789.05,1388.28 2785.44,1404.43 2779.5,1424.82 2770.7,1449.07 2758.58,1476.73 2742.75,1507.22 2722.87,1539.93 2698.71,1574.18 2670.12,1609.27 2637.04,1644.48 2599.48,1679.11 2557.58,1712.48 2511.54,1743.95 2461.63,1772.93 2408.21,1798.87 2351.69,1821.28 2292.57,1839.75 2231.35,1853.92 2168.62,1863.51 2104.96,1868.3 2041.02,1868.12 1977.42,1862.89 1914.81,1852.58 1853.84,1837.22 1795.16,1816.87 1739.38,1791.68 1687.13,1761.81 1638.99,1727.49 1595.5,1688.95 1557.19,1646.5 1524.54,1600.46 1497.98,1551.18 1477.9,1499.05 1464.65,1444.5 1458.5,1387.98 1459.67,1329.97 1468.33,1271 1484.55,1211.62 1508.35,1152.44 1539.66,1094.07 1578.35,1037.16 1624.17,982.412 1676.82,930.504 1735.88,882.135 1800.85,837.988 1871.16,798.713 1946.14,764.906 2025.06,737.085 2107.12,715.674 2191.5,700.977 2277.32,693.166 2363.69,692.271 2449.74,698.177 2534.62,710.625 2617.51,729.226 2697.66,753.472 2774.39,782.761 2847.1,816.419 2915.27,853.718 2978.48,893.907 3036.42,936.224 3088.86,979.923 3135.67,1024.28 3176.81,1068.62 3212.32,1112.3 3242.32,1154.75 3267.01,1195.44 3286.63,1233.94 3301.5,1269.85 3311.95,1302.87 3318.39,1332.73 3321.22,1359.27 3320.88,1382.38 3317.81,1402 3312.44,1418.15 3305.23,1430.9 3296.6,1440.35 3286.97,1446.68 3276.71,1450.07 3266.19,1450.75 3255.74,1448.97 3245.65,1444.99 3236.2,1439.09 3227.61,1431.57 3220.07,1422.72 3213.72,1412.84 3208.68,1402.23 3205.03,1391.2 3202.79,1380.05 3201.97,1369.08 3202.52,1358.61 3204.36,1348.94 3207.36,1340.37 3211.37,1333.21 3216.19,1327.75 3221.58,1324.29 3227.26,1323.1 3232.94,1324.45 3238.26,1328.57 3242.86,1335.69 3246.36,1345.96 3248.33,1359.53 3248.34,1376.48 3245.98,1396.83 3240.79,1420.55 3232.36,1447.54 3220.29,1477.62 3204.18,1510.55 3183.7,1546.02 3158.55,1583.64 3128.48,1622.96 3093.31,1663.46 3052.91,1704.56 3007.26,1745.65 2956.41,1786.04 2900.47,1825.05 2839.69,1861.95 2774.36,1896.04 2704.9,1926.62 2631.79,1953.01 2555.62,1974.62 2477.02,1990.91 2396.71,2001.45 2315.44,2005.91 2234,2004.08 2153.2,1995.87 2073.86,1981.35 1996.76,1960.67 1922.69,1934.12 1852.36,1902.08 1786.45,1865.02 1725.57,1823.45 1670.25,1777.96 1620.97,1729.15 1578.1,1677.61 1541.96,1623.97 1512.77,1568.82 1490.69,1512.75 1475.81,1456.32 1468.13,1400.05 1467.6,1344.47 1474.11,1290.06 1487.47,1237.27 1507.45,1186.55 1533.75,1138.3 1566.05,1092.91 1603.94,1050.76 1646.99,1012.19 1694.73,977.501 1746.63,946.995 1802.16,920.92 1860.72,899.489 1921.71,882.871 1984.51,871.184 2048.49,864.491 2113.01,862.793 2177.42,866.025 2241.12,874.053 2303.5,886.67 2363.98,903.599 2422.05,924.489 2477.22,948.92 2529.08,976.41 2577.25,1006.41 2621.47,1038.34 2661.52,1071.56 2697.28,1105.41 2728.72,1139.21 2755.88,1172.29 2778.9,1203.98 2797.99,1233.67 2813.46,1260.77 2825.65,1284.8 2835,1305.32 2841.96,1322.02 2847.05,1334.68 2850.79,1343.19 2853.7,1347.56 2856.31,1347.86 2859.13,1344.31 2862.64,1337.15 2867.27,1326.73 2873.41,1313.41 2881.42,1297.61 2891.58,1279.75 2904.13,1260.26 2919.25,1239.58 2937.07,1218.11 2957.65,1196.25 2981.03,1174.4 3007.18,1152.91 3036.03,1132.12 3067.48,1112.36 3101.36,1093.94 3137.5,1077.14 3175.67,1062.26 3215.59,1049.56 3256.99,1039.29 3299.53,1031.72 3342.85,1027.07 3386.56,1025.57 3430.25,1027.43 3473.47,1032.83 3515.77,1041.94 3556.65,1054.9 3595.63,1071.8 3632.19,1092.73 3665.81,1117.71 3695.98,1146.74 3722.18,1179.77 3743.9,1216.73 3760.66,1257.49 3771.97,1301.9 3777.38,1349.76 3776.47,1400.85 3768.83,1454.9 3754.11,1511.62 3731.99,1570.65 3702.19,1631.61 3664.51,1694.05 3618.78,1757.45 3564.91,1821.22 3502.92,1884.67 3432.88,1947.03 3354.99,2007.43 3269.57,2064.89 3177.05,2118.37 3078.02,2166.75 2973.2,2208.91 2863.45,2243.71 2749.8,2270.1 2633.37,2287.16 2515.4,2294.14 2397.22,2290.53 2280.19,2276.07 2165.7,2250.8 2055.11,2215.06 1949.73,2169.43 1850.76,2114.74 1759.3,2052.01 1676.3,1982.39 1602.56,1907.12 1538.73,1827.49 1485.28,1744.77 1442.52,1660.23 1410.61,1575.07 1389.56,1490.45 1379.23,1407.43 1379.35,1327.02 1389.52,1250.13 1409.25,1177.58 1437.94,1110.11 1474.88,1048.35 1519.33,992.808 1570.45,943.912 1627.38,901.957 1689.23,867.129 1755.06,839.507 1823.97,819.07 1895.04,805.709 1967.37,799.238 2040.11,799.412 2112.43,805.936 2183.52,818.485 2252.64,836.708 2319.1,860.236 2382.23,888.691 2441.43,921.679 2496.15,958.794 2545.89,999.607 2590.2,1043.66 2628.7,1090.45 2661.08,1139.43 2687.09,1189.98 2706.59,1241.4 2719.5,1292.91 2725.88,1343.65 2725.88,1392.64 2719.79,1438.88 2708.03,1481.29 2691.17,1518.79 2669.88,1550.36 2645,1575.06 2617.45,1592.1 2588.25,1600.91 2558.47,1601.14 2529.21,1592.74 2501.57,1575.91 2476.58,1551.11 2455.24,1519.03 2438.4,1480.52 2426.85,1436.55 2421.19,1388.18 2421.94,1336.45 2429.44,1282.42 2443.95,1227.06 2465.55,1171.29 2494.27,1115.94 2529.98,1061.77 2572.51,1009.43 2621.57,959.487 2676.84,912.453 2737.9,868.759 2804.32,828.776 2875.59,792.826 2951.19,761.181 3030.54,734.073 3113.05,711.695 3198.12,694.204 3285.1,681.722 3373.35,674.333 3462.21,672.085 3551.04,674.984 3639.17,682.992 3725.95,696.028 3810.75,713.96 3892.96,736.616 3971.98,763.777 4047.26,795.189 4118.26,830.569 4184.51,869.612 4245.55,912.007 4300.98,957.443 4350.42,1005.62 4393.54,1056.28 4430.04,1109.16 4459.64,1164.07 4482.11,1220.84 4497.21,1279.36 4504.71,1339.54 4504.42,1401.34 4496.12,1464.75 4479.61,1529.77 4454.68,1596.39 4421.13,1664.62 4378.75,1734.42 4327.36,1805.67 4266.77,1878.22 4196.84,1951.78 4117.47,2025.92 4028.61,2100.06 3930.32,2173.42 3822.77,2245.04 3706.24,2313.71 3581.21,2378.03 3448.33,2436.44 3308.47,2487.24 3162.71,2528.68 3012.36,2559.09 2858.93,2576.93 2704.09,2580.95 2549.68,2570.27 2397.61,2544.44 2249.8,2503.49 2108.17,2447.94 1974.51,2378.7 1850.51,2297.05 1737.64,2204.51 1637.19,2102.8 1550.21,1993.7 1477.55,1879.01 1419.8,1760.54 1377.32,1640.06 1350.27,1519.31 1338.57,1400 1341.92,1283.84 1359.82,1172.48 1391.55,1067.6 1436.17,970.761 1492.58,883.432 1559.45,806.896 1635.36,742.181 1718.75,690.001 1807.98,650.708 1901.41,624.276 1997.43,610.313 2094.48,608.11 2191.12,616.709 2286.05,634.991 2378.09,661.759 2466.24,695.822 2549.65,736.056 2627.57,781.452 2699.42,831.145 2764.68,884.418 2822.94,940.705 2873.84,999.572 2917.06,1060.7 2952.34,1123.84 2979.43,1188.82 2998.1,1255.45 3008.16,1323.56 3009.43,1392.87 3001.78,1463.05 2985.13,1533.58 2959.49,1603.76 2924.95,1672.67 2881.76,1739.15 2830.31,1801.79 2771.2,1858.93 2705.26,1908.76 2633.52,1949.42 2557.29,1979.08 2478.08,1996.12 2397.57,1999.31 2317.59,1987.87 2240.02,1961.63 2166.72,1920.96 2099.49,1866.81 2039.96,1800.58 1989.56,1723.97 1949.5,1638.88 1920.73,1547.27 1903.98,1451.04 1899.71,1351.98 1908.19,1251.74 1929.47,1151.78 1963.42,1053.4 2009.79,957.77 2068.14,865.925 2137.93,778.791 2218.51,697.207 2309.13,621.928 "/>
<circle clip-path="url(#clip992)" cx="2002.7" cy="1542.18" r="25.2" fill="#000000" fill-rule="evenodd" fill-opacity="1" stroke="none"/>
<circle clip-path="url(#clip992)" cx="3193.25" cy="928.596" r="25.2" fill="#000000" fill-rule="evenodd" fill-opacity="1" stroke="none"/>
<circle clip-path="url(#clip992)" cx="3661.05" cy="935.883" r="25.2" fill="#000000" fill-rule="evenodd" fill-opacity="1" stroke="none"/>
<path clip-path="url(#clip990)" d="M979.949 2569.54 L1468.9 2569.54 L1468.9 2180.74 L979.949 2180.74  Z" fill="#ffffff" fill-rule="evenodd" fill-opacity="1"/>
<polyline clip-path="url(#clip990)" style="stroke:#000000; stroke-linecap:round; stroke-linejoin:round; stroke-width:4; stroke-opacity:1; fill:none" points="979.949,2569.54 1468.9,2569.54 1468.9,2180.74 979.949,2180.74 979.949,2569.54 "/>
<polyline clip-path="url(#clip990)" style="stroke:#009af9; stroke-linecap:round; stroke-linejoin:round; stroke-width:22.5; stroke-opacity:1; fill:none" points="1021.69,2277.94 1272.1,2277.94 "/>
<path clip-path="url(#clip990)" d="M1361.76 2301.1 L1361.76 2283.69 L1347.43 2283.69 L1347.43 2276.49 L1370.44 2276.49 L1370.44 2304.31 Q1365.36 2307.91 1359.24 2309.78 Q1353.12 2311.6 1346.18 2311.6 Q1330.98 2311.6 1322.39 2302.75 Q1313.84 2293.85 1313.84 2278.01 Q1313.84 2262.12 1322.39 2253.27 Q1330.98 2244.37 1346.18 2244.37 Q1352.51 2244.37 1358.2 2245.93 Q1363.93 2247.49 1368.75 2250.53 L1368.75 2259.86 Q1363.88 2255.74 1358.42 2253.66 Q1352.95 2251.57 1346.91 2251.57 Q1335.02 2251.57 1329.03 2258.21 Q1323.09 2264.85 1323.09 2278.01 Q1323.09 2291.11 1329.03 2297.75 Q1335.02 2304.39 1346.91 2304.39 Q1351.56 2304.39 1355.2 2303.61 Q1358.85 2302.79 1361.76 2301.1 Z" fill="#000000" fill-rule="nonzero" fill-opacity="1" /><path clip-path="url(#clip990)" d="M1388.75 2302.96 L1403.08 2302.96 L1403.08 2253.53 L1387.5 2256.65 L1387.5 2248.67 L1402.99 2245.54 L1411.76 2245.54 L1411.76 2302.96 L1426.08 2302.96 L1426.08 2310.34 L1388.75 2310.34 L1388.75 2302.96 Z" fill="#000000" fill-rule="nonzero" fill-opacity="1" /><polyline clip-path="url(#clip990)" style="stroke:#e26f46; stroke-linecap:round; stroke-linejoin:round; stroke-width:22.5; stroke-opacity:1; fill:none" points="1021.69,2375.14 1272.1,2375.14 "/>
<path clip-path="url(#clip990)" d="M1361.76 2398.3 L1361.76 2380.89 L1347.43 2380.89 L1347.43 2373.69 L1370.44 2373.69 L1370.44 2401.51 Q1365.36 2405.11 1359.24 2406.98 Q1353.12 2408.8 1346.18 2408.8 Q1330.98 2408.8 1322.39 2399.95 Q1313.84 2391.05 1313.84 2375.21 Q1313.84 2359.32 1322.39 2350.47 Q1330.98 2341.57 1346.18 2341.57 Q1352.51 2341.57 1358.2 2343.13 Q1363.93 2344.69 1368.75 2347.73 L1368.75 2357.06 Q1363.88 2352.94 1358.42 2350.86 Q1352.95 2348.77 1346.91 2348.77 Q1335.02 2348.77 1329.03 2355.41 Q1323.09 2362.05 1323.09 2375.21 Q1323.09 2388.31 1329.03 2394.95 Q1335.02 2401.59 1346.91 2401.59 Q1351.56 2401.59 1355.2 2400.81 Q1358.85 2399.99 1361.76 2398.3 Z" fill="#000000" fill-rule="nonzero" fill-opacity="1" /><path clip-path="url(#clip990)" d="M1394.79 2400.16 L1425.39 2400.16 L1425.39 2407.54 L1384.24 2407.54 L1384.24 2400.16 Q1389.23 2395 1397.82 2386.32 Q1406.46 2377.59 1408.68 2375.08 Q1412.89 2370.34 1414.53 2367.09 Q1416.23 2363.79 1416.23 2360.62 Q1416.23 2355.46 1412.58 2352.2 Q1408.98 2348.95 1403.16 2348.95 Q1399.04 2348.95 1394.44 2350.38 Q1389.88 2351.81 1384.67 2354.72 L1384.67 2345.87 Q1389.97 2343.74 1394.57 2342.65 Q1399.17 2341.57 1402.99 2341.57 Q1413.06 2341.57 1419.05 2346.6 Q1425.04 2351.64 1425.04 2360.06 Q1425.04 2364.05 1423.52 2367.65 Q1422.04 2371.21 1418.09 2376.07 Q1417.01 2377.33 1411.19 2383.37 Q1405.38 2389.36 1394.79 2400.16 Z" fill="#000000" fill-rule="nonzero" fill-opacity="1" /><polyline clip-path="url(#clip990)" style="stroke:#3da44d; stroke-linecap:round; stroke-linejoin:round; stroke-width:22.5; stroke-opacity:1; fill:none" points="1021.69,2472.34 1272.1,2472.34 "/>
<path clip-path="url(#clip990)" d="M1361.76 2495.5 L1361.76 2478.09 L1347.43 2478.09 L1347.43 2470.89 L1370.44 2470.89 L1370.44 2498.71 Q1365.36 2502.31 1359.24 2504.18 Q1353.12 2506 1346.18 2506 Q1330.98 2506 1322.39 2497.15 Q1313.84 2488.25 1313.84 2472.41 Q1313.84 2456.52 1322.39 2447.67 Q1330.98 2438.77 1346.18 2438.77 Q1352.51 2438.77 1358.2 2440.33 Q1363.93 2441.89 1368.75 2444.93 L1368.75 2454.26 Q1363.88 2450.14 1358.42 2448.06 Q1352.95 2445.97 1346.91 2445.97 Q1335.02 2445.97 1329.03 2452.61 Q1323.09 2459.25 1323.09 2472.41 Q1323.09 2485.51 1329.03 2492.15 Q1335.02 2498.79 1346.91 2498.79 Q1351.56 2498.79 1355.2 2498.01 Q1358.85 2497.19 1361.76 2495.5 Z" fill="#000000" fill-rule="nonzero" fill-opacity="1" /><path clip-path="url(#clip990)" d="M1413.8 2469.8 Q1420.09 2471.15 1423.61 2475.4 Q1427.16 2479.65 1427.16 2485.9 Q1427.16 2495.5 1420.57 2500.75 Q1413.97 2506 1401.82 2506 Q1397.74 2506 1393.4 2505.17 Q1389.1 2504.39 1384.5 2502.79 L1384.5 2494.32 Q1388.15 2496.45 1392.49 2497.54 Q1396.83 2498.62 1401.56 2498.62 Q1409.8 2498.62 1414.1 2495.37 Q1418.44 2492.11 1418.44 2485.9 Q1418.44 2480.17 1414.4 2476.96 Q1410.41 2473.71 1403.25 2473.71 L1395.7 2473.71 L1395.7 2466.5 L1403.6 2466.5 Q1410.06 2466.5 1413.49 2463.94 Q1416.92 2461.34 1416.92 2456.48 Q1416.92 2451.49 1413.36 2448.84 Q1409.85 2446.15 1403.25 2446.15 Q1399.65 2446.15 1395.52 2446.93 Q1391.4 2447.71 1386.45 2449.36 L1386.45 2441.55 Q1391.44 2440.16 1395.78 2439.46 Q1400.17 2438.77 1404.03 2438.77 Q1414.01 2438.77 1419.83 2443.33 Q1425.65 2447.84 1425.65 2455.57 Q1425.65 2460.95 1422.56 2464.68 Q1419.48 2468.37 1413.8 2469.8 Z" fill="#000000" fill-rule="nonzero" fill-opacity="1" /></svg>
