<?xml version="1.0" encoding="utf-8"?>
<svg xmlns="http://www.w3.org/2000/svg" xmlns:xlink="http://www.w3.org/1999/xlink" width="1200" height="800" viewBox="0 0 4800 3200">
<defs>
  <clipPath id="clip790">
    <rect x="0" y="0" width="4800" height="3200"/>
  </clipPath>
</defs>
<path clip-path="url(#clip790)" d="M0 3200 L4800 3200 L4800 0 L0 0  Z" fill="#ffffff" fill-rule="evenodd" fill-opacity="1"/>
<defs>
  <clipPath id="clip791">
    <rect x="960" y="0" width="3361" height="3200"/>
  </clipPath>
</defs>
<path clip-path="url(#clip790)" d="M976.874 2645.13 L4611.02 2645.13 L4611.02 377.524 L976.874 377.524  Z" fill="#ffffff" fill-rule="evenodd" fill-opacity="1"/>
<defs>
  <clipPath id="clip792">
    <rect x="976" y="377" width="3635" height="2269"/>
  </clipPath>
</defs>
<polyline clip-path="url(#clip792)" style="stroke:#000000; stroke-linecap:round; stroke-linejoin:round; stroke-width:8; stroke-opacity:0.05; fill:none" stroke-dasharray="32, 20" points="1072.86,2645.13 1072.86,377.524 "/>
<polyline clip-path="url(#clip792)" style="stroke:#000000; stroke-linecap:round; stroke-linejoin:round; stroke-width:8; stroke-opacity:0.05; fill:none" stroke-dasharray="32, 20" points="1759.92,2645.13 1759.92,377.524 "/>
<polyline clip-path="url(#clip792)" style="stroke:#000000; stroke-linecap:round; stroke-linejoin:round; stroke-width:8; stroke-opacity:0.05; fill:none" stroke-dasharray="32, 20" points="2446.98,2645.13 2446.98,377.524 "/>
<polyline clip-path="url(#clip792)" style="stroke:#000000; stroke-linecap:round; stroke-linejoin:round; stroke-width:8; stroke-opacity:0.05; fill:none" stroke-dasharray="32, 20" points="3134.04,2645.13 3134.04,377.524 "/>
<polyline clip-path="url(#clip792)" style="stroke:#000000; stroke-linecap:round; stroke-linejoin:round; stroke-width:8; stroke-opacity:0.05; fill:none" stroke-dasharray="32, 20" points="3821.11,2645.13 3821.11,377.524 "/>
<polyline clip-path="url(#clip792)" style="stroke:#000000; stroke-linecap:round; stroke-linejoin:round; stroke-width:8; stroke-opacity:0.05; fill:none" stroke-dasharray="32, 20" points="4508.17,2645.13 4508.17,377.524 "/>
<polyline clip-path="url(#clip792)" style="stroke:#000000; stroke-linecap:round; stroke-linejoin:round; stroke-width:8; stroke-opacity:0.05; fill:none" stroke-dasharray="32, 20" points="976.874,2518.98 4611.02,2518.98 "/>
<polyline clip-path="url(#clip792)" style="stroke:#000000; stroke-linecap:round; stroke-linejoin:round; stroke-width:8; stroke-opacity:0.05; fill:none" stroke-dasharray="32, 20" points="976.874,1985.34 4611.02,1985.34 "/>
<polyline clip-path="url(#clip792)" style="stroke:#000000; stroke-linecap:round; stroke-linejoin:round; stroke-width:8; stroke-opacity:0.05; fill:none" stroke-dasharray="32, 20" points="976.874,1451.71 4611.02,1451.71 "/>
<polyline clip-path="url(#clip792)" style="stroke:#000000; stroke-linecap:round; stroke-linejoin:round; stroke-width:8; stroke-opacity:0.05; fill:none" stroke-dasharray="32, 20" points="976.874,918.071 4611.02,918.071 "/>
<polyline clip-path="url(#clip792)" style="stroke:#000000; stroke-linecap:round; stroke-linejoin:round; stroke-width:8; stroke-opacity:0.05; fill:none" stroke-dasharray="32, 20" points="976.874,384.435 4611.02,384.435 "/>
<polyline clip-path="url(#clip790)" style="stroke:#000000; stroke-linecap:round; stroke-linejoin:round; stroke-width:4; stroke-opacity:1; fill:none" points="976.874,2645.13 4611.02,2645.13 "/>
<polyline clip-path="url(#clip790)" style="stroke:#000000; stroke-linecap:round; stroke-linejoin:round; stroke-width:4; stroke-opacity:1; fill:none" points="1072.86,2645.13 1072.86,2626.23 "/>
<polyline clip-path="url(#clip790)" style="stroke:#000000; stroke-linecap:round; stroke-linejoin:round; stroke-width:4; stroke-opacity:1; fill:none" points="1759.92,2645.13 1759.92,2626.23 "/>
<polyline clip-path="url(#clip790)" style="stroke:#000000; stroke-linecap:round; stroke-linejoin:round; stroke-width:4; stroke-opacity:1; fill:none" points="2446.98,2645.13 2446.98,2626.23 "/>
<polyline clip-path="url(#clip790)" style="stroke:#000000; stroke-linecap:round; stroke-linejoin:round; stroke-width:4; stroke-opacity:1; fill:none" points="3134.04,2645.13 3134.04,2626.23 "/>
<polyline clip-path="url(#clip790)" style="stroke:#000000; stroke-linecap:round; stroke-linejoin:round; stroke-width:4; stroke-opacity:1; fill:none" points="3821.11,2645.13 3821.11,2626.23 "/>
<polyline clip-path="url(#clip790)" style="stroke:#000000; stroke-linecap:round; stroke-linejoin:round; stroke-width:4; stroke-opacity:1; fill:none" points="4508.17,2645.13 4508.17,2626.23 "/>
<path clip-path="url(#clip790)" d="M1072.86 2734.8 Q1057.06 2734.8 1049.06 2750.39 Q1041.16 2765.89 1041.16 2797.08 Q1041.16 2828.17 1049.06 2843.77 Q1057.06 2859.26 1072.86 2859.26 Q1088.76 2859.26 1096.66 2843.77 Q1104.66 2828.17 1104.66 2797.08 Q1104.66 2765.89 1096.66 2750.39 Q1088.76 2734.8 1072.86 2734.8 M1072.86 2718.59 Q1098.28 2718.59 1111.64 2738.75 Q1125.11 2758.8 1125.11 2797.08 Q1125.11 2835.26 1111.64 2855.41 Q1098.28 2875.46 1072.86 2875.46 Q1047.44 2875.46 1033.97 2855.41 Q1020.6 2835.26 1020.6 2797.08 Q1020.6 2758.8 1033.97 2738.75 Q1047.44 2718.59 1072.86 2718.59 Z" fill="#000000" fill-rule="nonzero" fill-opacity="1" /><path clip-path="url(#clip790)" d="M1717.84 2855.31 L1751.26 2855.31 L1751.26 2739.96 L1714.9 2747.25 L1714.9 2728.62 L1751.06 2721.33 L1771.52 2721.33 L1771.52 2855.31 L1804.94 2855.31 L1804.94 2872.53 L1717.84 2872.53 L1717.84 2855.31 Z" fill="#000000" fill-rule="nonzero" fill-opacity="1" /><path clip-path="url(#clip790)" d="M2423.59 2855.31 L2494.99 2855.31 L2494.99 2872.53 L2398.98 2872.53 L2398.98 2855.31 Q2410.63 2843.26 2430.68 2823.01 Q2450.83 2802.65 2456 2796.78 Q2465.82 2785.74 2469.67 2778.14 Q2473.62 2770.44 2473.62 2763.05 Q2473.62 2751 2465.11 2743.4 Q2456.7 2735.81 2443.13 2735.81 Q2433.51 2735.81 2422.78 2739.15 Q2412.14 2742.49 2399.99 2749.28 L2399.99 2728.62 Q2412.35 2723.66 2423.08 2721.13 Q2433.82 2718.59 2442.73 2718.59 Q2466.22 2718.59 2480.2 2730.34 Q2494.18 2742.09 2494.18 2761.74 Q2494.18 2771.05 2490.63 2779.46 Q2487.19 2787.76 2477.97 2799.1 Q2475.44 2802.04 2461.87 2816.12 Q2448.3 2830.09 2423.59 2855.31 Z" fill="#000000" fill-rule="nonzero" fill-opacity="1" /><path clip-path="url(#clip790)" d="M3152.63 2791 Q3167.31 2794.14 3175.52 2804.07 Q3183.82 2813.99 3183.82 2828.58 Q3183.82 2850.96 3168.43 2863.21 Q3153.03 2875.46 3124.68 2875.46 Q3115.16 2875.46 3105.03 2873.54 Q3095 2871.72 3084.27 2867.97 L3084.27 2848.22 Q3092.78 2853.18 3102.9 2855.72 Q3113.03 2858.25 3124.07 2858.25 Q3143.31 2858.25 3153.34 2850.65 Q3163.46 2843.06 3163.46 2828.58 Q3163.46 2815.21 3154.05 2807.71 Q3144.73 2800.12 3128.02 2800.12 L3110.4 2800.12 L3110.4 2783.31 L3128.83 2783.31 Q3143.92 2783.31 3151.92 2777.33 Q3159.92 2771.25 3159.92 2759.91 Q3159.92 2748.27 3151.62 2742.09 Q3143.41 2735.81 3128.02 2735.81 Q3119.61 2735.81 3109.99 2737.63 Q3100.37 2739.46 3088.83 2743.3 L3088.83 2725.07 Q3100.47 2721.83 3110.6 2720.21 Q3120.83 2718.59 3129.84 2718.59 Q3153.13 2718.59 3166.71 2729.23 Q3180.28 2739.76 3180.28 2757.79 Q3180.28 2770.34 3173.09 2779.05 Q3165.9 2787.66 3152.63 2791 Z" fill="#000000" fill-rule="nonzero" fill-opacity="1" /><path clip-path="url(#clip790)" d="M3834.27 2739.15 L3782.62 2819.87 L3834.27 2819.87 L3834.27 2739.15 M3828.91 2721.33 L3854.63 2721.33 L3854.63 2819.87 L3876.2 2819.87 L3876.2 2836.88 L3854.63 2836.88 L3854.63 2872.53 L3834.27 2872.53 L3834.27 2836.88 L3766.02 2836.88 L3766.02 2817.13 L3828.91 2721.33 Z" fill="#000000" fill-rule="nonzero" fill-opacity="1" /><path clip-path="url(#clip790)" d="M4465.64 2721.33 L4545.95 2721.33 L4545.95 2738.54 L4484.37 2738.54 L4484.37 2775.61 Q4488.83 2774.09 4493.28 2773.38 Q4497.74 2772.57 4502.2 2772.57 Q4527.51 2772.57 4542.3 2786.45 Q4557.09 2800.32 4557.09 2824.02 Q4557.09 2848.42 4541.89 2862 Q4526.7 2875.46 4499.06 2875.46 Q4489.54 2875.46 4479.61 2873.84 Q4469.79 2872.22 4459.26 2868.98 L4459.26 2848.42 Q4468.37 2853.39 4478.09 2855.82 Q4487.81 2858.25 4498.65 2858.25 Q4516.17 2858.25 4526.4 2849.03 Q4536.63 2839.82 4536.63 2824.02 Q4536.63 2808.22 4526.4 2799 Q4516.17 2789.79 4498.65 2789.79 Q4490.45 2789.79 4482.24 2791.61 Q4474.14 2793.43 4465.64 2797.28 L4465.64 2721.33 Z" fill="#000000" fill-rule="nonzero" fill-opacity="1" /><path clip-path="url(#clip790)" d="M2629.48 2979.74 L2629.48 3011.94 L2667.86 3011.94 L2667.86 3026.42 L2629.48 3026.42 L2629.48 3088 Q2629.48 3101.87 2633.23 3105.82 Q2637.08 3109.77 2648.72 3109.77 L2667.86 3109.77 L2667.86 3125.37 L2648.72 3125.37 Q2627.15 3125.37 2618.95 3117.37 Q2610.75 3109.27 2610.75 3088 L2610.75 3026.42 L2597.08 3026.42 L2597.08 3011.94 L2610.75 3011.94 L2610.75 2979.74 L2629.48 2979.74 Z" fill="#000000" fill-rule="nonzero" fill-opacity="1" /><path clip-path="url(#clip790)" d="M2803.06 2967.99 Q2789.49 2991.28 2782.91 3014.07 Q2776.33 3036.86 2776.33 3060.25 Q2776.33 3083.64 2782.91 3106.63 Q2789.59 3129.52 2803.06 3152.71 L2786.86 3152.71 Q2771.67 3128.91 2764.07 3105.92 Q2756.58 3082.93 2756.58 3060.25 Q2756.58 3037.67 2764.07 3014.78 Q2771.57 2991.89 2786.86 2967.99 L2803.06 2967.99 Z" fill="#000000" fill-rule="nonzero" fill-opacity="1" /><path clip-path="url(#clip790)" d="M2911.53 3015.28 L2911.53 3032.91 Q2903.63 3028.85 2895.12 3026.83 Q2886.61 3024.8 2877.5 3024.8 Q2863.62 3024.8 2856.64 3029.06 Q2849.75 3033.31 2849.75 3041.82 Q2849.75 3048.3 2854.71 3052.05 Q2859.67 3055.69 2874.66 3059.03 L2881.04 3060.45 Q2900.89 3064.71 2909.2 3072.5 Q2917.6 3080.2 2917.6 3094.07 Q2917.6 3109.87 2905.05 3119.09 Q2892.59 3128.3 2870.71 3128.3 Q2861.6 3128.3 2851.67 3126.48 Q2841.85 3124.76 2830.91 3121.22 L2830.91 3101.97 Q2841.24 3107.34 2851.27 3110.08 Q2861.3 3112.71 2871.12 3112.71 Q2884.28 3112.71 2891.37 3108.25 Q2898.46 3103.7 2898.46 3095.49 Q2898.46 3087.9 2893.3 3083.85 Q2888.23 3079.79 2870.92 3076.05 L2864.43 3074.53 Q2847.12 3070.88 2839.42 3063.39 Q2831.72 3055.79 2831.72 3042.63 Q2831.72 3026.63 2843.07 3017.92 Q2854.41 3009.21 2875.27 3009.21 Q2885.6 3009.21 2894.72 3010.73 Q2903.83 3012.25 2911.53 3015.28 Z" fill="#000000" fill-rule="nonzero" fill-opacity="1" /><path clip-path="url(#clip790)" d="M2944.34 2967.99 L2960.54 2967.99 Q2975.73 2991.89 2983.23 3014.78 Q2990.82 3037.67 2990.82 3060.25 Q2990.82 3082.93 2983.23 3105.92 Q2975.73 3128.91 2960.54 3152.71 L2944.34 3152.71 Q2957.81 3129.52 2964.39 3106.63 Q2971.07 3083.64 2971.07 3060.25 Q2971.07 3036.86 2964.39 3014.07 Q2957.81 2991.28 2944.34 2967.99 Z" fill="#000000" fill-rule="nonzero" fill-opacity="1" /><polyline clip-path="url(#clip790)" style="stroke:#000000; stroke-linecap:round; stroke-linejoin:round; stroke-width:4; stroke-opacity:1; fill:none" points="976.874,2645.13 976.874,377.524 "/>
<polyline clip-path="url(#clip790)" style="stroke:#000000; stroke-linecap:round; stroke-linejoin:round; stroke-width:4; stroke-opacity:1; fill:none" points="976.874,2518.98 995.772,2518.98 "/>
<polyline clip-path="url(#clip790)" style="stroke:#000000; stroke-linecap:round; stroke-linejoin:round; stroke-width:4; stroke-opacity:1; fill:none" points="976.874,1985.34 995.772,1985.34 "/>
<polyline clip-path="url(#clip790)" style="stroke:#000000; stroke-linecap:round; stroke-linejoin:round; stroke-width:4; stroke-opacity:1; fill:none" points="976.874,1451.71 995.772,1451.71 "/>
<polyline clip-path="url(#clip790)" style="stroke:#000000; stroke-linecap:round; stroke-linejoin:round; stroke-width:4; stroke-opacity:1; fill:none" points="976.874,918.071 995.772,918.071 "/>
<polyline clip-path="url(#clip790)" style="stroke:#000000; stroke-linecap:round; stroke-linejoin:round; stroke-width:4; stroke-opacity:1; fill:none" points="976.874,384.435 995.772,384.435 "/>
<path clip-path="url(#clip790)" d="M350.609 2577.36 L384.029 2577.36 L384.029 2462.01 L347.672 2469.3 L347.672 2450.67 L383.827 2443.38 L404.284 2443.38 L404.284 2577.36 L437.704 2577.36 L437.704 2594.58 L350.609 2594.58 L350.609 2577.36 Z" fill="#000000" fill-rule="nonzero" fill-opacity="1" /><path clip-path="url(#clip790)" d="M479.023 2568.86 L500.392 2568.86 L500.392 2594.58 L479.023 2594.58 L479.023 2568.86 Z" fill="#000000" fill-rule="nonzero" fill-opacity="1" /><path clip-path="url(#clip790)" d="M588.701 2456.85 Q572.903 2456.85 564.902 2472.44 Q557.003 2487.94 557.003 2519.13 Q557.003 2550.22 564.902 2565.82 Q572.903 2581.31 588.701 2581.31 Q604.601 2581.31 612.5 2565.82 Q620.501 2550.22 620.501 2519.13 Q620.501 2487.94 612.5 2472.44 Q604.601 2456.85 588.701 2456.85 M588.701 2440.64 Q614.121 2440.64 627.489 2460.8 Q640.958 2480.85 640.958 2519.13 Q640.958 2557.31 627.489 2577.46 Q614.121 2597.52 588.701 2597.52 Q563.282 2597.52 549.813 2577.46 Q536.445 2557.31 536.445 2519.13 Q536.445 2480.85 549.813 2460.8 Q563.282 2440.64 588.701 2440.64 Z" fill="#000000" fill-rule="nonzero" fill-opacity="1" /><path clip-path="url(#clip790)" d="M720.659 2456.85 Q704.861 2456.85 696.86 2472.44 Q688.961 2487.94 688.961 2519.13 Q688.961 2550.22 696.86 2565.82 Q704.861 2581.31 720.659 2581.31 Q736.559 2581.31 744.459 2565.82 Q752.459 2550.22 752.459 2519.13 Q752.459 2487.94 744.459 2472.44 Q736.559 2456.85 720.659 2456.85 M720.659 2440.64 Q746.079 2440.64 759.447 2460.8 Q772.916 2480.85 772.916 2519.13 Q772.916 2557.31 759.447 2577.46 Q746.079 2597.52 720.659 2597.52 Q695.24 2597.52 681.771 2577.46 Q668.403 2557.31 668.403 2519.13 Q668.403 2480.85 681.771 2460.8 Q695.24 2440.64 720.659 2440.64 Z" fill="#000000" fill-rule="nonzero" fill-opacity="1" /><path clip-path="url(#clip790)" d="M852.618 2456.85 Q836.819 2456.85 828.819 2472.44 Q820.919 2487.94 820.919 2519.13 Q820.919 2550.22 828.819 2565.82 Q836.819 2581.31 852.618 2581.31 Q868.517 2581.31 876.417 2565.82 Q884.417 2550.22 884.417 2519.13 Q884.417 2487.94 876.417 2472.44 Q868.517 2456.85 852.618 2456.85 M852.618 2440.64 Q878.037 2440.64 891.405 2460.8 Q904.874 2480.85 904.874 2519.13 Q904.874 2557.31 891.405 2577.46 Q878.037 2597.52 852.618 2597.52 Q827.198 2597.52 813.729 2577.46 Q800.361 2557.31 800.361 2519.13 Q800.361 2480.85 813.729 2460.8 Q827.198 2440.64 852.618 2440.64 Z" fill="#000000" fill-rule="nonzero" fill-opacity="1" /><path clip-path="url(#clip790)" d="M354.964 2043.73 L388.384 2043.73 L388.384 1928.38 L352.027 1935.67 L352.027 1917.03 L388.181 1909.74 L408.639 1909.74 L408.639 2043.73 L442.059 2043.73 L442.059 2060.94 L354.964 2060.94 L354.964 2043.73 Z" fill="#000000" fill-rule="nonzero" fill-opacity="1" /><path clip-path="url(#clip790)" d="M483.378 2035.22 L504.746 2035.22 L504.746 2060.94 L483.378 2060.94 L483.378 2035.22 Z" fill="#000000" fill-rule="nonzero" fill-opacity="1" /><path clip-path="url(#clip790)" d="M593.056 1923.21 Q577.257 1923.21 569.257 1938.81 Q561.358 1954.3 561.358 1985.49 Q561.358 2016.59 569.257 2032.18 Q577.257 2047.68 593.056 2047.68 Q608.956 2047.68 616.855 2032.18 Q624.856 2016.59 624.856 1985.49 Q624.856 1954.3 616.855 1938.81 Q608.956 1923.21 593.056 1923.21 M593.056 1907.01 Q618.475 1907.01 631.843 1927.16 Q645.313 1947.21 645.313 1985.49 Q645.313 2023.67 631.843 2043.83 Q618.475 2063.88 593.056 2063.88 Q567.637 2063.88 554.167 2043.83 Q540.799 2023.67 540.799 1985.49 Q540.799 1947.21 554.167 1927.16 Q567.637 1907.01 593.056 1907.01 Z" fill="#000000" fill-rule="nonzero" fill-opacity="1" /><path clip-path="url(#clip790)" d="M698.886 2043.73 L770.283 2043.73 L770.283 2060.94 L674.277 2060.94 L674.277 2043.73 Q685.923 2031.67 705.975 2011.42 Q726.128 1991.06 731.293 1985.19 Q741.117 1974.15 744.965 1966.56 Q748.915 1958.86 748.915 1951.47 Q748.915 1939.42 740.408 1931.82 Q732.002 1924.22 718.431 1924.22 Q708.811 1924.22 698.076 1927.57 Q687.442 1930.91 675.289 1937.69 L675.289 1917.03 Q687.645 1912.07 698.379 1909.54 Q709.114 1907.01 718.026 1907.01 Q741.522 1907.01 755.497 1918.76 Q769.473 1930.5 769.473 1950.15 Q769.473 1959.47 765.928 1967.87 Q762.485 1976.18 753.269 1987.52 Q750.737 1990.46 737.167 2004.53 Q723.596 2018.51 698.886 2043.73 Z" fill="#000000" fill-rule="nonzero" fill-opacity="1" /><path clip-path="url(#clip790)" d="M813.425 1909.74 L893.734 1909.74 L893.734 1926.96 L832.161 1926.96 L832.161 1964.02 Q836.617 1962.51 841.073 1961.8 Q845.529 1960.99 849.985 1960.99 Q875.303 1960.99 890.089 1974.86 Q904.874 1988.74 904.874 2012.43 Q904.874 2036.84 889.683 2050.41 Q874.493 2063.88 846.845 2063.88 Q837.325 2063.88 827.401 2062.26 Q817.577 2060.64 807.045 2057.4 L807.045 2036.84 Q816.16 2041.8 825.882 2044.23 Q835.604 2046.66 846.44 2046.66 Q863.96 2046.66 874.189 2037.45 Q884.417 2028.23 884.417 2012.43 Q884.417 1996.63 874.189 1987.42 Q863.96 1978.2 846.44 1978.2 Q838.237 1978.2 830.034 1980.03 Q821.932 1981.85 813.425 1985.7 L813.425 1909.74 Z" fill="#000000" fill-rule="nonzero" fill-opacity="1" /><path clip-path="url(#clip790)" d="M350.609 1510.09 L384.029 1510.09 L384.029 1394.74 L347.672 1402.03 L347.672 1383.4 L383.827 1376.11 L404.284 1376.11 L404.284 1510.09 L437.704 1510.09 L437.704 1527.31 L350.609 1527.31 L350.609 1510.09 Z" fill="#000000" fill-rule="nonzero" fill-opacity="1" /><path clip-path="url(#clip790)" d="M479.023 1501.58 L500.392 1501.58 L500.392 1527.31 L479.023 1527.31 L479.023 1501.58 Z" fill="#000000" fill-rule="nonzero" fill-opacity="1" /><path clip-path="url(#clip790)" d="M588.701 1389.58 Q572.903 1389.58 564.902 1405.17 Q557.003 1420.67 557.003 1451.86 Q557.003 1482.95 564.902 1498.55 Q572.903 1514.04 588.701 1514.04 Q604.601 1514.04 612.5 1498.55 Q620.501 1482.95 620.501 1451.86 Q620.501 1420.67 612.5 1405.17 Q604.601 1389.58 588.701 1389.58 M588.701 1373.37 Q614.121 1373.37 627.489 1393.53 Q640.958 1413.58 640.958 1451.86 Q640.958 1490.04 627.489 1510.19 Q614.121 1530.24 588.701 1530.24 Q563.282 1530.24 549.813 1510.19 Q536.445 1490.04 536.445 1451.86 Q536.445 1413.58 549.813 1393.53 Q563.282 1373.37 588.701 1373.37 Z" fill="#000000" fill-rule="nonzero" fill-opacity="1" /><path clip-path="url(#clip790)" d="M677.112 1376.11 L757.421 1376.11 L757.421 1393.32 L695.848 1393.32 L695.848 1430.39 Q700.304 1428.87 704.76 1428.16 Q709.216 1427.35 713.672 1427.35 Q738.99 1427.35 753.776 1441.23 Q768.561 1455.1 768.561 1478.8 Q768.561 1503.2 753.37 1516.77 Q738.18 1530.24 710.532 1530.24 Q701.013 1530.24 691.088 1528.62 Q681.264 1527 670.732 1523.76 L670.732 1503.2 Q679.847 1508.17 689.569 1510.6 Q699.291 1513.03 710.127 1513.03 Q727.647 1513.03 737.876 1503.81 Q748.104 1494.6 748.104 1478.8 Q748.104 1463 737.876 1453.78 Q727.647 1444.57 710.127 1444.57 Q701.924 1444.57 693.721 1446.39 Q685.619 1448.21 677.112 1452.06 L677.112 1376.11 Z" fill="#000000" fill-rule="nonzero" fill-opacity="1" /><path clip-path="url(#clip790)" d="M852.618 1389.58 Q836.819 1389.58 828.819 1405.17 Q820.919 1420.67 820.919 1451.86 Q820.919 1482.95 828.819 1498.55 Q836.819 1514.04 852.618 1514.04 Q868.517 1514.04 876.417 1498.55 Q884.417 1482.95 884.417 1451.86 Q884.417 1420.67 876.417 1405.17 Q868.517 1389.58 852.618 1389.58 M852.618 1373.37 Q878.037 1373.37 891.405 1393.53 Q904.874 1413.58 904.874 1451.86 Q904.874 1490.04 891.405 1510.19 Q878.037 1530.24 852.618 1530.24 Q827.198 1530.24 813.729 1510.19 Q800.361 1490.04 800.361 1451.86 Q800.361 1413.58 813.729 1393.53 Q827.198 1373.37 852.618 1373.37 Z" fill="#000000" fill-rule="nonzero" fill-opacity="1" /><path clip-path="url(#clip790)" d="M354.964 976.455 L388.384 976.455 L388.384 861.105 L352.027 868.397 L352.027 849.763 L388.181 842.471 L408.639 842.471 L408.639 976.455 L442.059 976.455 L442.059 993.671 L354.964 993.671 L354.964 976.455 Z" fill="#000000" fill-rule="nonzero" fill-opacity="1" /><path clip-path="url(#clip790)" d="M483.378 967.948 L504.746 967.948 L504.746 993.671 L483.378 993.671 L483.378 967.948 Z" fill="#000000" fill-rule="nonzero" fill-opacity="1" /><path clip-path="url(#clip790)" d="M593.056 855.94 Q577.257 855.94 569.257 871.536 Q561.358 887.031 561.358 918.223 Q561.358 949.314 569.257 964.91 Q577.257 980.404 593.056 980.404 Q608.956 980.404 616.855 964.91 Q624.856 949.314 624.856 918.223 Q624.856 887.031 616.855 871.536 Q608.956 855.94 593.056 855.94 M593.056 839.737 Q618.475 839.737 631.843 859.89 Q645.313 879.942 645.313 918.223 Q645.313 956.403 631.843 976.556 Q618.475 996.608 593.056 996.608 Q567.637 996.608 554.167 976.556 Q540.799 956.403 540.799 918.223 Q540.799 879.942 554.167 859.89 Q567.637 839.737 593.056 839.737 Z" fill="#000000" fill-rule="nonzero" fill-opacity="1" /><path clip-path="url(#clip790)" d="M676.1 842.471 L773.321 842.471 L773.321 851.181 L718.431 993.671 L697.063 993.671 L748.712 859.687 L676.1 859.687 L676.1 842.471 Z" fill="#000000" fill-rule="nonzero" fill-opacity="1" /><path clip-path="url(#clip790)" d="M813.425 842.471 L893.734 842.471 L893.734 859.687 L832.161 859.687 L832.161 896.753 Q836.617 895.234 841.073 894.525 Q845.529 893.715 849.985 893.715 Q875.303 893.715 890.089 907.589 Q904.874 921.464 904.874 945.162 Q904.874 969.568 889.683 983.139 Q874.493 996.608 846.845 996.608 Q837.325 996.608 827.401 994.988 Q817.577 993.367 807.045 990.127 L807.045 969.568 Q816.16 974.531 825.882 976.961 Q835.604 979.392 846.44 979.392 Q863.96 979.392 874.189 970.176 Q884.417 960.96 884.417 945.162 Q884.417 929.363 874.189 920.147 Q863.96 910.931 846.44 910.931 Q838.237 910.931 830.034 912.754 Q821.932 914.577 813.425 918.426 L813.425 842.471 Z" fill="#000000" fill-rule="nonzero" fill-opacity="1" /><path clip-path="url(#clip790)" d="M350.609 442.819 L384.029 442.819 L384.029 327.469 L347.672 334.761 L347.672 316.127 L383.827 308.835 L404.284 308.835 L404.284 442.819 L437.704 442.819 L437.704 460.035 L350.609 460.035 L350.609 442.819 Z" fill="#000000" fill-rule="nonzero" fill-opacity="1" /><path clip-path="url(#clip790)" d="M479.023 434.312 L500.392 434.312 L500.392 460.035 L479.023 460.035 L479.023 434.312 Z" fill="#000000" fill-rule="nonzero" fill-opacity="1" /><path clip-path="url(#clip790)" d="M548.496 442.819 L581.916 442.819 L581.916 327.469 L545.559 334.761 L545.559 316.127 L581.713 308.835 L602.17 308.835 L602.17 442.819 L635.59 442.819 L635.59 460.035 L548.496 460.035 L548.496 442.819 Z" fill="#000000" fill-rule="nonzero" fill-opacity="1" /><path clip-path="url(#clip790)" d="M720.659 322.305 Q704.861 322.305 696.86 337.901 Q688.961 353.395 688.961 384.587 Q688.961 415.678 696.86 431.274 Q704.861 446.769 720.659 446.769 Q736.559 446.769 744.459 431.274 Q752.459 415.678 752.459 384.587 Q752.459 353.395 744.459 337.901 Q736.559 322.305 720.659 322.305 M720.659 306.101 Q746.079 306.101 759.447 326.254 Q772.916 346.306 772.916 384.587 Q772.916 422.767 759.447 442.92 Q746.079 462.972 720.659 462.972 Q695.24 462.972 681.771 442.92 Q668.403 422.767 668.403 384.587 Q668.403 346.306 681.771 326.254 Q695.24 306.101 720.659 306.101 Z" fill="#000000" fill-rule="nonzero" fill-opacity="1" /><path clip-path="url(#clip790)" d="M852.618 322.305 Q836.819 322.305 828.819 337.901 Q820.919 353.395 820.919 384.587 Q820.919 415.678 828.819 431.274 Q836.819 446.769 852.618 446.769 Q868.517 446.769 876.417 431.274 Q884.417 415.678 884.417 384.587 Q884.417 353.395 876.417 337.901 Q868.517 322.305 852.618 322.305 M852.618 306.101 Q878.037 306.101 891.405 326.254 Q904.874 346.306 904.874 384.587 Q904.874 422.767 891.405 442.92 Q878.037 462.972 852.618 462.972 Q827.198 462.972 813.729 442.92 Q800.361 422.767 800.361 384.587 Q800.361 346.306 813.729 326.254 Q827.198 306.101 852.618 306.101 Z" fill="#000000" fill-rule="nonzero" fill-opacity="1" /><path clip-path="url(#clip790)" d="M99.2657 1901.48 L213.299 1943 L213.299 1859.86 L99.2657 1901.48 M230.312 1970.75 L79.1124 1913.02 L79.1124 1889.83 L230.312 1832.21 L230.312 1970.75 Z" fill="#000000" fill-rule="nonzero" fill-opacity="1" /><path clip-path="url(#clip790)" d="M233.249 1774.79 Q233.249 1816.81 173.093 1816.81 Q149.294 1816.81 116.887 1801.12 L116.887 1781.07 Q149.294 1795.55 173.6 1795.55 Q217.451 1795.55 217.451 1773.07 Q217.451 1752.51 162.966 1752.51 L162.966 1735.29 Q217.451 1735.29 217.451 1714.73 Q217.451 1692.25 173.6 1692.25 Q149.294 1692.25 116.887 1706.73 L116.887 1686.68 Q149.294 1670.98 173.093 1670.98 Q233.249 1670.98 233.249 1713.01 Q233.249 1740.56 202.969 1743.9 Q233.249 1748.05 233.249 1774.79 Z" fill="#000000" fill-rule="nonzero" fill-opacity="1" /><path clip-path="url(#clip790)" d="M72.9348 1526.57 Q96.2275 1540.14 119.014 1546.72 Q141.8 1553.3 165.194 1553.3 Q188.588 1553.3 211.577 1546.72 Q234.465 1540.04 257.656 1526.57 L257.656 1542.77 Q233.857 1557.96 210.868 1565.56 Q187.879 1573.05 165.194 1573.05 Q142.61 1573.05 119.723 1565.56 Q96.8351 1558.06 72.9348 1542.77 L72.9348 1526.57 Z" fill="#000000" fill-rule="nonzero" fill-opacity="1" /><path clip-path="url(#clip790)" d="M213.299 1472.39 L273.455 1472.39 L273.455 1491.12 L116.887 1491.12 L116.887 1472.39 L134.103 1472.39 Q123.976 1466.51 119.115 1457.6 Q114.153 1448.59 114.153 1436.13 Q114.153 1415.47 130.559 1402.61 Q146.965 1389.65 173.701 1389.65 Q200.437 1389.65 216.843 1402.61 Q233.249 1415.47 233.249 1436.13 Q233.249 1448.59 228.388 1457.6 Q223.426 1466.51 213.299 1472.39 M173.701 1408.99 Q153.143 1408.99 141.496 1417.5 Q129.749 1425.9 129.749 1440.69 Q129.749 1455.47 141.496 1463.98 Q153.143 1472.39 173.701 1472.39 Q194.259 1472.39 206.007 1463.98 Q217.653 1455.47 217.653 1440.69 Q217.653 1425.9 206.007 1417.5 Q194.259 1408.99 173.701 1408.99 Z" fill="#000000" fill-rule="nonzero" fill-opacity="1" /><path clip-path="url(#clip790)" d="M204.589 1356.13 L204.589 1334.76 L230.312 1334.76 L230.312 1356.13 L204.589 1356.13 Z" fill="#000000" fill-rule="nonzero" fill-opacity="1" /><path clip-path="url(#clip790)" d="M185.55 1294.75 L116.887 1294.75 L116.887 1276.12 L184.841 1276.12 Q200.943 1276.12 209.045 1269.84 Q217.046 1263.56 217.046 1251 Q217.046 1235.92 207.425 1227.21 Q197.804 1218.39 181.195 1218.39 L116.887 1218.39 L116.887 1199.76 L230.312 1199.76 L230.312 1218.39 L212.894 1218.39 Q223.223 1225.18 228.287 1234.19 Q233.249 1243.11 233.249 1254.95 Q233.249 1274.5 221.097 1284.63 Q208.944 1294.75 185.55 1294.75 M114.153 1247.87 L114.153 1247.87 Z" fill="#000000" fill-rule="nonzero" fill-opacity="1" /><path clip-path="url(#clip790)" d="M204.589 1158.75 L204.589 1137.38 L230.312 1137.38 L230.312 1158.75 L204.589 1158.75 Z" fill="#000000" fill-rule="nonzero" fill-opacity="1" /><path clip-path="url(#clip790)" d="M72.9348 1098.39 L72.9348 1082.18 Q96.8351 1066.99 119.723 1059.5 Q142.61 1051.9 165.194 1051.9 Q187.879 1051.9 210.868 1059.5 Q233.857 1066.99 257.656 1082.18 L257.656 1098.39 Q234.465 1084.92 211.577 1078.33 Q188.588 1071.65 165.194 1071.65 Q141.8 1071.65 119.014 1078.33 Q96.2275 1084.92 72.9348 1098.39 Z" fill="#000000" fill-rule="nonzero" fill-opacity="1" /><path clip-path="url(#clip790)" d="M2171.85 126.342 Q2179.37 128.888 2186.43 137.221 Q2193.6 145.555 2200.78 160.138 L2224.51 207.36 L2199.39 207.36 L2177.29 163.032 Q2168.72 145.671 2160.62 139.999 Q2152.63 134.328 2138.74 134.328 L2113.28 134.328 L2113.28 207.36 L2089.9 207.36 L2089.9 34.56 L2142.68 34.56 Q2172.31 34.56 2186.89 46.9442 Q2201.48 59.3284 2201.48 84.3283 Q2201.48 100.648 2193.84 111.411 Q2186.31 122.175 2171.85 126.342 M2113.28 53.7729 L2113.28 115.115 L2142.68 115.115 Q2159.58 115.115 2168.14 107.361 Q2176.82 99.4902 2176.82 84.3283 Q2176.82 69.1663 2168.14 61.5274 Q2159.58 53.7729 2142.68 53.7729 L2113.28 53.7729 Z" fill="#000000" fill-rule="nonzero" fill-opacity="1" /><path clip-path="url(#clip790)" d="M2293.26 92.6615 Q2276.13 92.6615 2266.17 106.087 Q2256.22 119.398 2256.22 142.661 Q2256.22 165.925 2266.06 179.351 Q2276.01 192.661 2293.26 192.661 Q2310.27 192.661 2320.22 179.235 Q2330.18 165.809 2330.18 142.661 Q2330.18 119.629 2320.22 106.203 Q2310.27 92.6615 2293.26 92.6615 M2293.26 74.6061 Q2321.03 74.6061 2336.89 92.6615 Q2352.75 110.717 2352.75 142.661 Q2352.75 174.49 2336.89 192.661 Q2321.03 210.716 2293.26 210.716 Q2265.36 210.716 2249.51 192.661 Q2233.77 174.49 2233.77 142.661 Q2233.77 110.717 2249.51 92.6615 Q2265.36 74.6061 2293.26 74.6061 Z" fill="#000000" fill-rule="nonzero" fill-opacity="1" /><path clip-path="url(#clip790)" d="M2409.11 40.9257 L2409.11 77.7311 L2452.98 77.7311 L2452.98 94.2819 L2409.11 94.2819 L2409.11 164.652 Q2409.11 180.508 2413.4 185.022 Q2417.79 189.536 2431.1 189.536 L2452.98 189.536 L2452.98 207.36 L2431.1 207.36 Q2406.45 207.36 2397.08 198.217 Q2387.7 188.957 2387.7 164.652 L2387.7 94.2819 L2372.08 94.2819 L2372.08 77.7311 L2387.7 77.7311 L2387.7 40.9257 L2409.11 40.9257 Z" fill="#000000" fill-rule="nonzero" fill-opacity="1" /><path clip-path="url(#clip790)" d="M2531.22 92.6615 Q2514.09 92.6615 2504.14 106.087 Q2494.18 119.398 2494.18 142.661 Q2494.18 165.925 2504.02 179.351 Q2513.97 192.661 2531.22 192.661 Q2548.23 192.661 2558.19 179.235 Q2568.14 165.809 2568.14 142.661 Q2568.14 119.629 2558.19 106.203 Q2548.23 92.6615 2531.22 92.6615 M2531.22 74.6061 Q2559 74.6061 2574.85 92.6615 Q2590.71 110.717 2590.71 142.661 Q2590.71 174.49 2574.85 192.661 Q2559 210.716 2531.22 210.716 Q2503.33 210.716 2487.47 192.661 Q2471.73 174.49 2471.73 142.661 Q2471.73 110.717 2487.47 92.6615 Q2503.33 74.6061 2531.22 74.6061 Z" fill="#000000" fill-rule="nonzero" fill-opacity="1" /><path clip-path="url(#clip790)" d="M2701.13 97.6384 Q2697.54 95.555 2693.26 94.6291 Q2689.09 93.5875 2684 93.5875 Q2665.94 93.5875 2656.22 105.393 Q2646.61 117.083 2646.61 139.073 L2646.61 207.36 L2625.2 207.36 L2625.2 77.7311 L2646.61 77.7311 L2646.61 97.8698 Q2653.32 86.0644 2664.09 80.3931 Q2674.85 74.6061 2690.25 74.6061 Q2692.44 74.6061 2695.11 74.9533 Q2697.77 75.1848 2701.01 75.7635 L2701.13 97.6384 Z" fill="#000000" fill-rule="nonzero" fill-opacity="1" /><path clip-path="url(#clip790)" d="M2903.32 40.2313 L2903.32 63.0321 Q2890.01 56.6664 2878.21 53.5414 Q2866.4 50.4164 2855.41 50.4164 Q2836.31 50.4164 2825.89 57.8238 Q2815.59 65.2311 2815.59 78.8885 Q2815.59 90.3467 2822.42 96.2495 Q2829.37 102.036 2848.58 105.624 L2862.7 108.518 Q2888.86 113.495 2901.24 126.11 Q2913.74 138.61 2913.74 159.675 Q2913.74 184.791 2896.84 197.754 Q2880.06 210.716 2847.54 210.716 Q2835.27 210.716 2821.38 207.939 Q2807.61 205.161 2792.79 199.721 L2792.79 175.647 Q2807.03 183.633 2820.68 187.684 Q2834.34 191.735 2847.54 191.735 Q2867.56 191.735 2878.44 183.865 Q2889.32 175.994 2889.32 161.411 Q2889.32 148.68 2881.45 141.504 Q2873.69 134.328 2855.87 130.74 L2841.63 127.962 Q2815.48 122.754 2803.79 111.643 Q2792.1 100.532 2792.1 80.7403 Q2792.1 57.8238 2808.19 44.6294 Q2824.39 31.435 2852.74 31.435 Q2864.9 31.435 2877.51 33.6341 Q2890.13 35.8331 2903.32 40.2313 Z" fill="#000000" fill-rule="nonzero" fill-opacity="1" /><path clip-path="url(#clip790)" d="M2969.87 187.916 L2969.87 256.665 L2948.46 256.665 L2948.46 77.7311 L2969.87 77.7311 L2969.87 97.4069 Q2976.59 85.8329 2986.77 80.2773 Q2997.07 74.6061 3011.31 74.6061 Q3034.92 74.6061 3049.62 93.356 Q3064.43 112.106 3064.43 142.661 Q3064.43 173.217 3049.62 191.967 Q3034.92 210.716 3011.31 210.716 Q2997.07 210.716 2986.77 205.161 Q2976.59 199.49 2969.87 187.916 M3042.33 142.661 Q3042.33 119.166 3032.61 105.856 Q3023 92.4301 3006.1 92.4301 Q2989.2 92.4301 2979.48 105.856 Q2969.87 119.166 2969.87 142.661 Q2969.87 166.157 2979.48 179.582 Q2989.2 192.892 3006.1 192.892 Q3023 192.892 3032.61 179.582 Q3042.33 166.157 3042.33 142.661 Z" fill="#000000" fill-rule="nonzero" fill-opacity="1" /><path clip-path="url(#clip790)" d="M3210.61 137.221 L3210.61 147.638 L3112.7 147.638 Q3114.09 169.629 3125.89 181.203 Q3137.81 192.661 3158.99 192.661 Q3171.26 192.661 3182.72 189.652 Q3194.29 186.643 3205.64 180.624 L3205.64 200.763 Q3194.18 205.624 3182.14 208.17 Q3170.1 210.716 3157.72 210.716 Q3126.7 210.716 3108.53 192.661 Q3090.48 174.606 3090.48 143.819 Q3090.48 111.99 3107.6 93.356 Q3124.85 74.6061 3154.02 74.6061 Q3180.17 74.6061 3195.34 91.5041 Q3210.61 108.286 3210.61 137.221 M3189.32 130.972 Q3189.09 113.495 3179.48 103.078 Q3169.99 92.6615 3154.25 92.6615 Q3136.42 92.6615 3125.66 102.731 Q3115.01 112.8 3113.39 131.087 L3189.32 130.972 Z" fill="#000000" fill-rule="nonzero" fill-opacity="1" /><path clip-path="url(#clip790)" d="M3356.45 137.221 L3356.45 147.638 L3258.53 147.638 Q3259.92 169.629 3271.72 181.203 Q3283.65 192.661 3304.83 192.661 Q3317.09 192.661 3328.55 189.652 Q3340.13 186.643 3351.47 180.624 L3351.47 200.763 Q3340.01 205.624 3327.97 208.17 Q3315.94 210.716 3303.55 210.716 Q3272.53 210.716 3254.36 192.661 Q3236.31 174.606 3236.31 143.819 Q3236.31 111.99 3253.44 93.356 Q3270.68 74.6061 3299.85 74.6061 Q3326.01 74.6061 3341.17 91.5041 Q3356.45 108.286 3356.45 137.221 M3335.15 130.972 Q3334.92 113.495 3325.31 103.078 Q3315.82 92.6615 3300.08 92.6615 Q3282.26 92.6615 3271.49 102.731 Q3260.84 112.8 3259.22 131.087 L3335.15 130.972 Z" fill="#000000" fill-rule="nonzero" fill-opacity="1" /><path clip-path="url(#clip790)" d="M3476.7 97.4069 L3476.7 27.2684 L3498 27.2684 L3498 207.36 L3476.7 207.36 L3476.7 187.916 Q3469.99 199.49 3459.69 205.161 Q3449.5 210.716 3435.15 210.716 Q3411.65 210.716 3396.84 191.967 Q3382.14 173.217 3382.14 142.661 Q3382.14 112.106 3396.84 93.356 Q3411.65 74.6061 3435.15 74.6061 Q3449.5 74.6061 3459.69 80.2773 Q3469.99 85.8329 3476.7 97.4069 M3404.13 142.661 Q3404.13 166.157 3413.74 179.582 Q3423.46 192.892 3440.36 192.892 Q3457.26 192.892 3466.98 179.582 Q3476.7 166.157 3476.7 142.661 Q3476.7 119.166 3466.98 105.856 Q3457.26 92.4301 3440.36 92.4301 Q3423.46 92.4301 3413.74 105.856 Q3404.13 119.166 3404.13 142.661 Z" fill="#000000" fill-rule="nonzero" fill-opacity="1" /><polyline clip-path="url(#clip792)" style="stroke:#009af9; stroke-linecap:round; stroke-linejoin:round; stroke-width:12; stroke-opacity:1; fill:none" points="1079.73,2516.46 1086.6,2511.41 1093.47,2506.35 1100.34,2501.25 1107.21,2496.1 1114.08,2490.89 1120.95,2485.6 1127.82,2480.23 1134.69,2474.76 1141.56,2469.17 1148.43,2463.46 1155.3,2457.62 1162.18,2451.64 1169.05,2445.5 1175.92,2439.2 1182.79,2432.73 1189.66,2426.09 1196.53,2419.28 1203.4,2412.28 1210.27,2405.11 1217.14,2397.76 1224.01,2390.24 1230.88,2382.54 1237.75,2374.68 1244.62,2366.65 1251.49,2358.48 1258.36,2350.16 1265.23,2341.71 1272.11,2333.14 1278.98,2324.46 1285.85,2315.68 1285.85,2306.46 1292.72,2296.68 1299.59,2286.62 1306.46,2276.33 1313.33,2265.84 1320.2,2255.19 1327.07,2244.4 1333.94,2233.49 1340.81,2222.49 1347.68,2211.42 1354.55,2200.3 1361.42,2189.13 1368.29,2177.95 1375.16,2166.77 1382.04,2155.59 1388.91,2144.45 1395.78,2133.35 1402.65,2122.32 1409.52,2111.36 1416.39,2100.49 1423.26,2089.72 1430.13,2079.08 1437,2068.57 1443.87,2058.2 1450.74,2047.99 1457.61,2037.94 1464.48,2028.05 1471.35,2018.35 1478.22,2008.82 1485.09,1999.47 1491.97,1990.32 1498.84,1981.35 1505.71,1972.59 1512.58,1964.02 1519.45,1955.66 1526.32,1947.52 1533.19,1939.6 1540.06,1931.92 1546.93,1924.49 1553.8,1917.34 1560.67,1910.47 1567.54,1903.92 1574.41,1897.71 1581.28,1891.88 1588.15,1886.44 1595.02,1881.44 1601.9,1876.9 1608.77,1872.85 1615.64,1869.31 1622.51,1866.32 1629.38,1863.89 1636.25,1862.04 1643.12,1860.78 1649.99,1860.12 1656.86,1860.05 1663.73,1860.58 1670.6,1861.69 1677.47,1863.37 1684.34,1865.62 1691.21,1868.4 1698.08,1871.7 1704.95,1875.49 1711.83,1879.74 1718.7,1884.43 1725.57,1889.53 1732.44,1895 1739.31,1900.81 1746.18,1906.92 1753.05,1913.3 1759.92,1919.92 1766.79,1926.75 1773.66,1933.75 1780.53,1940.9 1787.4,1948.17 1794.27,1955.53 1801.14,1962.97 1808.01,1970.48 1814.88,1978.03 1821.76,1985.62 1828.63,1993.24 1835.5,2000.87 1842.37,2008.52 1849.24,2016.17 1856.11,2023.8 1862.98,2031.42 1869.85,2038.99 1876.72,2046.5 1883.59,2053.91 1890.46,2061.2 1897.33,2068.31 1904.2,2075.21 1911.07,2081.84 1917.94,2088.13 1924.81,2094.02 1931.69,2099.44 1938.56,2104.33 1945.43,2108.62 1952.3,2112.25 1959.17,2115.16 1966.04,2117.32 1972.91,2118.67 1979.78,2119.2 1986.65,2118.9 1993.52,2117.77 2000.39,2115.8 2007.26,2113.03 2014.13,2109.49 2021,2105.2 2027.87,2100.21 2034.74,2094.57 2041.62,2088.32 2048.49,2081.52 2055.36,2074.21 2062.23,2066.45 2069.1,2058.29 2075.97,2049.77 2082.84,2040.93 2089.71,2031.83 2096.58,2022.51 2103.45,2012.99 2110.32,2003.32 2117.19,1993.52 2124.06,1983.63 2130.93,1973.66 2137.8,1963.63 2144.67,1953.57 2151.55,1943.49 2158.42,1933.39 2165.29,1923.3 2172.16,1913.2 2179.03,1903.12 2185.9,1893.04 2192.77,1882.98 2199.64,1872.93 2206.51,1862.9 2213.38,1852.87 2220.25,1842.86 2227.12,1832.85 2233.99,1822.86 2240.86,1812.88 2247.73,1802.92 2254.6,1792.98 2261.48,1783.06 2268.35,1773.18 2275.22,1763.36 2282.09,1753.6 2288.96,1743.92 2295.83,1734.35 2302.7,1724.91 2309.57,1715.64 2316.44,1706.56 2323.31,1697.71 2330.18,1689.13 2337.05,1680.86 2343.92,1672.95 2350.79,1665.44 2357.66,1658.38 2364.53,1651.82 2371.41,1645.81 2378.28,1640.39 2385.15,1635.61 2392.02,1631.52 2398.89,1628.14 2405.76,1625.52 2412.63,1623.67 2419.5,1622.62 2426.37,1622.38 2433.24,1622.94 2440.11,1624.29 2446.98,1626.41 2453.85,1629.27 2460.72,1632.83 2467.59,1637.03 2474.46,1641.83 2481.34,1647.15 2488.21,1652.95 2495.08,1659.14 2501.95,1665.68 2508.82,1672.5 2515.69,1679.55 2522.56,1686.78 2529.43,1694.15 2536.3,1701.61 2543.17,1709.15 2550.04,1716.74 2556.91,1724.36 2563.78,1732 2570.65,1739.64 2577.52,1747.27 2584.39,1754.9 2591.27,1762.5 2598.14,1770.08 2605.01,1777.62 2611.88,1785.12 2618.75,1792.55 2625.62,1799.9 2632.49,1807.14 2639.36,1814.26 2646.23,1821.22 2653.1,1827.99 2659.97,1834.53 2666.84,1840.81 2673.71,1846.79 2680.58,1852.44 2687.45,1857.7 2694.32,1862.55 2701.2,1866.95 2708.07,1870.87 2714.94,1874.26 2721.81,1877.12 2728.68,1879.4 2735.55,1881.09 2742.42,1882.17 2749.29,1882.63 2756.16,1882.47 2763.03,1881.67 2769.9,1880.25 2776.77,1878.21 2783.64,1875.57 2790.51,1872.35 2797.38,1868.56 2804.25,1864.23 2811.13,1859.4 2818,1854.1 2824.87,1848.36 2831.74,1842.21 2838.61,1835.69 2845.48,1828.84 2852.35,1821.67 2859.22,1814.22 2866.09,1806.51 2872.96,1798.56 2879.83,1790.39 2886.7,1782.02 2893.57,1773.46 2900.44,1764.72 2907.31,1755.8 2914.18,1746.71 2921.06,1737.46 2927.93,1728.06 2934.8,1718.49 2941.67,1708.77 2948.54,1698.9 2955.41,1688.89 2962.28,1678.74 2969.15,1668.45 2976.02,1658.03 2982.89,1647.49 2989.76,1636.85 2996.63,1626.1 3003.5,1615.27 3010.37,1604.36 3017.24,1593.39 3024.11,1582.38 3030.99,1571.33 3037.86,1560.28 3044.73,1549.22 3051.6,1538.19 3058.47,1527.21 3065.34,1516.28 3072.21,1505.44 3079.08,1494.71 3085.95,1484.11 3092.82,1473.68 3099.69,1463.44 3106.56,1453.44 3113.43,1443.71 3120.3,1434.3 3127.17,1425.27 3134.04,1416.67 3140.92,1408.56 3147.79,1401.02 3154.66,1394.11 3161.53,1387.9 3168.4,1382.47 3175.27,1377.89 3182.14,1374.21 3189.01,1371.48 3195.88,1369.73 3202.75,1368.98 3209.62,1369.22 3216.49,1370.42 3223.36,1372.55 3230.23,1375.54 3237.1,1379.31 3243.98,1383.8 3250.85,1388.9 3257.72,1394.54 3264.59,1400.63 3271.46,1407.09 3278.33,1413.86 3285.2,1420.87 3292.07,1428.07 3298.94,1435.42 3305.81,1442.88 3312.68,1450.43 3319.55,1458.03 3326.42,1465.66 3333.29,1473.3 3340.16,1480.93 3347.03,1488.53 3353.91,1496.08 3360.78,1503.55 3367.65,1510.92 3374.52,1518.17 3381.39,1525.28 3388.26,1532.21 3395.13,1538.94 3402,1545.45 3408.87,1551.72 3415.74,1557.74 3422.61,1563.48 3429.48,1568.94 3436.35,1574.1 3443.22,1578.97 3450.09,1583.53 3456.96,1587.78 3463.84,1591.73 3470.71,1595.37 3477.58,1598.69 3484.45,1601.7 3491.32,1604.38 3498.19,1606.74 3505.06,1608.77 3511.93,1610.44 3518.8,1611.76 3525.67,1612.7 3532.54,1613.26 3539.41,1613.42 3546.28,1613.18 3553.15,1612.52 3560.02,1611.45 3566.89,1609.96 3573.77,1608.06 3580.64,1605.75 3587.51,1603.04 3594.38,1599.95 3601.25,1596.47 3608.12,1592.63 3614.99,1588.42 3621.86,1583.86 3628.73,1578.95 3635.6,1573.7 3642.47,1568.1 3649.34,1562.14 3656.21,1555.83 3663.08,1549.17 3669.95,1542.14 3676.82,1534.73 3683.7,1526.96 3690.57,1518.81 3697.44,1510.28 3704.31,1501.4 3711.18,1492.15 3718.05,1482.57 3724.92,1472.66 3731.79,1462.46 3738.66,1451.99 3745.53,1441.28 3752.4,1430.37 3759.27,1419.3 3766.14,1408.09 3773.01,1396.79 3779.88,1385.43 3786.75,1374.03 3793.63,1362.64 3800.5,1351.26 3807.37,1339.93 3814.24,1328.66 3821.11,1317.45 3827.98,1306.32 3834.85,1295.27 3841.72,1284.29 3848.59,1273.38 3855.46,1262.54 3862.33,1251.75 3869.2,1241 3876.07,1230.3 3882.94,1219.61 3889.81,1208.94 3896.68,1198.27 3903.56,1187.6 3910.43,1176.93 3917.3,1166.26 3924.17,1155.61 3931.04,1144.99 3937.91,1134.43 3944.78,1123.99 3951.65,1113.7 3958.52,1103.64 3965.39,1093.89 3972.26,1084.55 3979.13,1075.73 3986,1067.52 3992.87,1060.05 3999.74,1053.43 4006.61,1047.74 4013.49,1043.07 4020.36,1039.45 4027.23,1036.92 4034.1,1035.46 4040.97,1035.03 4047.84,1035.59 4054.71,1037.04 4061.58,1039.31 4068.45,1042.31 4075.32,1045.95 4082.19,1050.15 4089.06,1054.84 4095.93,1059.96 4102.8,1065.45 4109.67,1071.27 4116.54,1077.39 4123.42,1083.76 4130.29,1090.34 4137.16,1097.09 4144.03,1103.97 4150.9,1110.93 4157.77,1117.91 4164.64,1124.86 4171.51,1131.72 4178.38,1138.42 4185.25,1144.92 4192.12,1151.16 4198.99,1157.09 4205.86,1162.69 4212.73,1167.93 4219.6,1172.8 4226.47,1177.28 4233.35,1181.39 4240.22,1185.14 4247.09,1188.55 4253.96,1191.64 4260.83,1194.45 4267.7,1197.01 4274.57,1199.34 4281.44,1201.49 4288.31,1203.49 4295.18,1205.36 4302.05,1207.14 4308.92,1208.86 4315.79,1210.53 4322.66,1212.17 4329.53,1213.8 4336.4,1215.42 4343.28,1217.03 4350.15,1218.63 4357.02,1220.21 4363.89,1221.76 4370.76,1223.26 4377.63,1224.69 4384.5,1226.01 4391.37,1227.2 4398.24,1228.23 4405.11,1229.07 4411.98,1229.69 4418.85,1230.07 4425.72,1230.18 4432.59,1229.99 4439.46,1229.5 4446.33,1228.66 4453.21,1227.48 4460.08,1225.91 4466.95,1223.95 4473.82,1221.55 4480.69,1218.69 4487.56,1215.34 4494.43,1211.46 4501.3,1207 4508.17,1201.95 "/>
<polyline clip-path="url(#clip792)" style="stroke:#e26f46; stroke-linecap:round; stroke-linejoin:round; stroke-width:12; stroke-opacity:1; fill:none" points="1079.73,2508.45 1086.6,2487.4 1093.47,2466.35 1100.34,2445.29 1107.21,2424.24 1114.08,2403.19 1120.95,2382.14 1127.82,2361.08 1134.69,2340.03 1141.56,2318.98 1148.43,2297.93 1155.3,2276.87 1162.18,2255.82 1169.05,2234.77 1175.92,2213.71 1182.79,2192.66 1189.66,2171.61 1196.53,2150.56 1203.4,2129.5 1210.27,2108.45 1217.14,2087.4 1224.01,2066.35 1230.88,2045.29 1237.75,2024.24 1244.62,2003.19 1251.49,1982.13 1258.36,1961.08 1265.23,1940.03 1272.11,1918.98 1278.98,1897.92 1285.85,1876.87 1285.85,1865.91 1292.72,1865.23 1299.59,1864.96 1306.46,1865.21 1313.33,1866.08 1320.2,1867.66 1327.07,1870.06 1333.94,1873.36 1340.81,1877.64 1347.68,1882.97 1354.55,1889.42 1361.42,1897.02 1368.29,1905.82 1375.16,1915.82 1382.04,1927.04 1388.91,1939.45 1395.78,1953.02 1402.65,1967.72 1409.52,1983.5 1416.39,2000.28 1423.26,2018.01 1430.13,2036.61 1437,2056 1443.87,2076.13 1450.74,2096.92 1457.61,2118.32 1464.48,2140.25 1471.35,2162.67 1478.22,2185.53 1485.09,2208.77 1491.97,2232.35 1498.84,2256.21 1505.71,2280.29 1512.58,2304.52 1519.45,2328.82 1526.32,2353.07 1533.19,2377.15 1540.06,2400.92 1546.93,2424.19 1553.8,2446.79 1560.67,2468.47 1567.54,2489 1574.41,2508.12 1581.28,2525.55 1588.15,2541.04 1595.02,2554.32 1601.9,2565.15 1608.77,2573.31 1615.64,2578.62 1622.51,2580.95 1629.38,2580.21 1636.25,2576.36 1643.12,2569.43 1649.99,2559.47 1656.86,2546.59 1663.73,2530.96 1670.6,2512.74 1677.47,2492.15 1684.34,2469.43 1691.21,2444.8 1698.08,2418.53 1704.95,2390.85 1711.83,2362.04 1718.7,2332.31 1725.57,2301.91 1732.44,2271.07 1739.31,2239.98 1746.18,2208.85 1753.05,2177.84 1759.92,2147.13 1766.79,2116.84 1773.66,2087.11 1780.53,2058.04 1787.4,2029.7 1794.27,2002.17 1801.14,1975.48 1808.01,1949.67 1814.88,1924.74 1821.76,1900.7 1828.63,1877.52 1835.5,1855.19 1842.37,1833.66 1849.24,1812.9 1856.11,1792.86 1862.98,1773.5 1869.85,1754.76 1876.72,1736.62 1883.59,1719.02 1890.46,1701.94 1897.33,1685.34 1904.2,1669.22 1911.07,1653.56 1917.94,1638.36 1924.81,1623.65 1931.69,1609.44 1938.56,1595.78 1945.43,1582.71 1952.3,1570.3 1959.17,1558.6 1966.04,1547.71 1972.91,1537.69 1979.78,1528.62 1986.65,1520.59 1993.52,1513.68 2000.39,1507.96 2007.26,1503.49 2014.13,1500.34 2021,1498.55 2027.87,1498.16 2034.74,1499.2 2041.62,1501.68 2048.49,1505.61 2055.36,1510.98 2062.23,1517.77 2069.1,1525.95 2075.97,1535.48 2082.84,1546.31 2089.71,1558.37 2096.58,1571.6 2103.45,1585.92 2110.32,1601.24 2117.19,1617.49 2124.06,1634.56 2130.93,1652.38 2137.8,1670.85 2144.67,1689.89 2151.55,1709.41 2158.42,1729.35 2165.29,1749.64 2172.16,1770.21 2179.03,1791.01 2185.9,1811.99 2192.77,1833.11 2199.64,1854.33 2206.51,1875.62 2213.38,1896.94 2220.25,1918.26 2227.12,1939.54 2233.99,1960.75 2240.86,1981.84 2247.73,2002.75 2254.6,2023.44 2261.48,2043.84 2268.35,2063.86 2275.22,2083.44 2282.09,2102.48 2288.96,2120.88 2295.83,2138.55 2302.7,2155.37 2309.57,2171.24 2316.44,2186.06 2323.31,2199.71 2330.18,2212.11 2337.05,2223.16 2343.92,2232.78 2350.79,2240.9 2357.66,2247.46 2364.53,2252.42 2371.41,2255.74 2378.28,2257.41 2385.15,2257.44 2392.02,2255.82 2398.89,2252.6 2405.76,2247.82 2412.63,2241.53 2419.5,2233.82 2426.37,2224.75 2433.24,2214.42 2440.11,2202.93 2446.98,2190.39 2453.85,2176.88 2460.72,2162.53 2467.59,2147.41 2474.46,2131.63 2481.34,2115.27 2488.21,2098.39 2495.08,2081.05 2501.95,2063.3 2508.82,2045.18 2515.69,2026.69 2522.56,2007.85 2529.43,1988.66 2536.3,1969.1 2543.17,1949.14 2550.04,1928.77 2556.91,1907.93 2563.78,1886.61 2570.65,1864.75 2577.52,1842.32 2584.39,1819.29 2591.27,1795.62 2598.14,1771.3 2605.01,1746.3 2611.88,1720.63 2618.75,1694.3 2625.62,1667.34 2632.49,1639.79 2639.36,1611.7 2646.23,1583.17 2653.1,1554.29 2659.97,1525.18 2666.84,1495.97 2673.71,1466.83 2680.58,1437.92 2687.45,1409.43 2694.32,1381.57 2701.2,1354.55 2708.07,1328.6 2714.94,1303.94 2721.81,1280.8 2728.68,1259.41 2735.55,1239.99 2742.42,1222.76 2749.29,1207.91 2756.16,1195.6 2763.03,1185.98 2769.9,1179.15 2776.77,1175.17 2783.64,1174.08 2790.51,1175.84 2797.38,1180.4 2804.25,1187.65 2811.13,1197.44 2818,1209.6 2824.87,1223.9 2831.74,1240.13 2838.61,1258.05 2845.48,1277.41 2852.35,1297.98 2859.22,1319.53 2866.09,1341.85 2872.96,1364.75 2879.83,1388.05 2886.7,1411.61 2893.57,1435.3 2900.44,1459.01 2907.31,1482.65 2914.18,1506.14 2921.06,1529.42 2927.93,1552.44 2934.8,1575.15 2941.67,1597.49 2948.54,1619.44 2955.41,1640.92 2962.28,1661.9 2969.15,1682.33 2976.02,1702.13 2982.89,1721.26 2989.76,1739.64 2996.63,1757.21 3003.5,1773.9 3010.37,1789.66 3017.24,1804.41 3024.11,1818.12 3030.99,1830.75 3037.86,1842.26 3044.73,1852.63 3051.6,1861.88 3058.47,1870 3065.34,1877.03 3072.21,1883 3079.08,1887.97 3085.95,1891.99 3092.82,1895.13 3099.69,1897.46 3106.56,1899.07 3113.43,1900.05 3120.3,1900.46 3127.17,1900.41 3134.04,1899.99 3140.92,1899.28 3147.79,1898.37 3154.66,1897.35 3161.53,1896.29 3168.4,1895.28 3175.27,1894.36 3182.14,1893.6 3189.01,1893.03 3195.88,1892.66 3202.75,1892.48 3209.62,1892.47 3216.49,1892.58 3223.36,1892.73 3230.23,1892.83 3237.1,1892.77 3243.98,1892.42 3250.85,1891.66 3257.72,1890.35 3264.59,1888.33 3271.46,1885.48 3278.33,1881.66 3285.2,1876.7 3292.07,1870.49 3298.94,1862.87 3305.81,1853.71 3312.68,1842.87 3319.55,1830.22 3326.42,1815.66 3333.29,1799.06 3340.16,1780.36 3347.03,1759.49 3353.91,1736.43 3360.78,1711.17 3367.65,1683.75 3374.52,1654.25 3381.39,1622.77 3388.26,1589.46 3395.13,1554.47 3402,1518 3408.87,1480.23 3415.74,1441.4 3422.61,1401.7 3429.48,1361.38 3436.35,1320.65 3443.22,1279.75 3450.09,1238.9 3456.96,1198.36 3463.84,1158.39 3470.71,1119.23 3477.58,1081.2 3484.45,1044.59 3491.32,1009.73 3498.19,976.979 3505.06,946.698 3511.93,919.257 3518.8,895.025 3525.67,874.346 3532.54,857.527 3539.41,844.817 3546.28,836.388 3553.15,832.32 3560.02,832.592 3566.89,837.076 3573.77,845.546 3580.64,857.691 3587.51,873.128 3594.38,891.432 3601.25,912.156 3608.12,934.855 3614.99,959.106 3621.86,984.522 3628.73,1010.76 3635.6,1037.53 3642.47,1064.59 3649.34,1091.75 3656.21,1118.86 3663.08,1145.79 3669.95,1172.46 3676.82,1198.79 3683.7,1224.72 3690.57,1250.19 3697.44,1275.14 3704.31,1299.49 3711.18,1323.17 3718.05,1346.07 3724.92,1368.11 3731.79,1389.14 3738.66,1409.05 3745.53,1427.71 3752.4,1444.98 3759.27,1460.74 3766.14,1474.86 3773.01,1487.25 3779.88,1497.84 3786.75,1506.58 3793.63,1513.43 3800.5,1518.42 3807.37,1521.58 3814.24,1522.98 3821.11,1522.69 3827.98,1520.84 3834.85,1517.55 3841.72,1512.94 3848.59,1507.18 3855.46,1500.41 3862.33,1492.77 3869.2,1484.43 3876.07,1475.53 3882.94,1466.22 3889.81,1456.65 3896.68,1446.96 3903.56,1437.3 3910.43,1427.83 3917.3,1418.69 3924.17,1410.06 3931.04,1402.1 3937.91,1394.99 3944.78,1388.92 3951.65,1384.07 3958.52,1380.64 3965.39,1378.8 3972.26,1378.74 3979.13,1380.6 3986,1384.49 3992.87,1390.47 3999.74,1398.55 4006.61,1408.67 4013.49,1420.71 4020.36,1434.48 4027.23,1449.75 4034.1,1466.22 4040.97,1483.58 4047.84,1501.52 4054.71,1519.72 4061.58,1537.86 4068.45,1555.67 4075.32,1572.88 4082.19,1589.24 4089.06,1604.52 4095.93,1618.47 4102.8,1630.85 4109.67,1641.41 4116.54,1649.86 4123.42,1655.88 4130.29,1659.14 4137.16,1659.31 4144.03,1656.04 4150.9,1649.04 4157.77,1638.06 4164.64,1622.93 4171.51,1603.58 4178.38,1580.06 4185.25,1552.52 4192.12,1521.25 4198.99,1486.57 4205.86,1448.91 4212.73,1408.69 4219.6,1366.37 4226.47,1322.35 4233.35,1277.04 4240.22,1230.76 4247.09,1183.8 4253.96,1136.4 4260.83,1088.76 4267.7,1041.03 4274.57,993.361 4281.44,945.874 4288.31,898.704 4295.18,852.002 4302.05,805.951 4308.92,760.781 4315.79,716.779 4322.66,674.296 4329.53,633.755 4336.4,595.646 4343.28,560.514 4350.15,528.94 4357.02,501.508 4363.89,478.764 4370.76,461.169 4377.63,449.052 4384.5,442.573 4391.37,441.702 4398.24,446.21 4405.11,455.692 4411.98,469.606 4418.85,487.319 4425.72,508.161 4432.59,531.474 4439.46,556.655 4446.33,583.176 4453.21,610.602 4460.08,638.592 4466.95,666.891 4473.82,695.319 4480.69,723.757 4487.56,752.126 4494.43,780.374 4501.3,808.455 4508.17,836.321 "/>
<polyline clip-path="url(#clip792)" style="stroke:#3da44d; stroke-linecap:round; stroke-linejoin:round; stroke-width:12; stroke-opacity:1; fill:none" points="1079.73,2503.15 1086.6,2471.55 1093.47,2440.11 1100.34,2408.93 1107.21,2378.13 1114.08,2347.79 1120.95,2318.02 1127.82,2288.91 1134.69,2260.55 1141.56,2233.01 1148.43,2206.37 1155.3,2180.7 1162.18,2156.05 1169.05,2132.47 1175.92,2109.98 1182.79,2088.62 1189.66,2068.39 1196.53,2049.29 1203.4,2031.31 1210.27,2014.42 1217.14,1998.58 1224.01,1983.73 1230.88,1969.83 1237.75,1956.79 1244.62,1944.53 1251.49,1932.97 1258.36,1922.01 1265.23,1911.55 1272.11,1901.48 1278.98,1891.69 1285.85,1882.08 1285.85,1899.64 1292.72,1943.93 1299.59,1987.28 1306.46,2029.37 1313.33,2069.93 1320.2,2108.72 1327.07,2145.53 1333.94,2180.18 1340.81,2212.51 1347.68,2242.36 1354.55,2269.61 1361.42,2294.14 1368.29,2315.86 1375.16,2334.68 1382.04,2350.56 1388.91,2363.47 1395.78,2373.4 1402.65,2380.37 1409.52,2384.43 1416.39,2385.66 1423.26,2384.15 1430.13,2380.01 1437,2373.38 1443.87,2364.4 1450.74,2353.23 1457.61,2340.04 1464.48,2325.02 1471.35,2308.36 1478.22,2290.26 1485.09,2270.93 1491.97,2250.61 1498.84,2229.52 1505.71,2207.94 1512.58,2186.14 1519.45,2164.41 1526.32,2143.06 1533.19,2122.43 1540.06,2102.87 1546.93,2084.74 1553.8,2068.39 1560.67,2054.19 1567.54,2042.47 1574.41,2033.55 1581.28,2027.68 1588.15,2025.08 1595.02,2025.9 1601.9,2030.19 1608.77,2037.92 1615.64,2048.98 1622.51,2063.17 1629.38,2080.18 1636.25,2099.67 1643.12,2121.19 1649.99,2144.28 1656.86,2168.43 1663.73,2193.12 1670.6,2217.82 1677.47,2242.01 1684.34,2265.19 1691.21,2286.9 1698.08,2306.69 1704.95,2324.19 1711.83,2339.03 1718.7,2350.92 1725.57,2359.61 1732.44,2364.89 1739.31,2366.6 1746.18,2364.64 1753.05,2358.94 1759.92,2349.5 1766.79,2336.33 1773.66,2319.5 1780.53,2299.1 1787.4,2275.29 1794.27,2248.2 1801.14,2218.06 1808.01,2185.06 1814.88,2149.47 1821.76,2111.55 1828.63,2071.59 1835.5,2029.92 1842.37,1986.87 1849.24,1942.82 1856.11,1898.17 1862.98,1853.31 1869.85,1808.71 1876.72,1764.83 1883.59,1722.14 1890.46,1681.16 1897.33,1642.38 1904.2,1606.31 1911.07,1573.45 1917.94,1544.27 1924.81,1519.17 1931.69,1498.52 1938.56,1482.61 1945.43,1471.64 1952.3,1465.7 1959.17,1464.8 1966.04,1468.82 1972.91,1477.54 1979.78,1490.67 1986.65,1507.8 1993.52,1528.47 2000.39,1552.19 2007.26,1578.41 2014.13,1606.57 2021,1636.11 2027.87,1666.49 2034.74,1697.17 2041.62,1727.67 2048.49,1757.52 2055.36,1786.31 2062.23,1813.67 2069.1,1839.28 2075.97,1862.86 2082.84,1884.19 2089.71,1903.1 2096.58,1919.46 2103.45,1933.2 2110.32,1944.3 2117.19,1952.75 2124.06,1958.63 2130.93,1962.03 2137.8,1963.05 2144.67,1961.86 2151.55,1958.62 2158.42,1953.52 2165.29,1946.76 2172.16,1938.56 2179.03,1929.14 2185.9,1918.72 2192.77,1907.52 2199.64,1895.79 2206.51,1883.75 2213.38,1871.63 2220.25,1859.66 2227.12,1848.08 2233.99,1837.13 2240.86,1827.02 2247.73,1818 2254.6,1810.29 2261.48,1804.11 2268.35,1799.67 2275.22,1797.17 2282.09,1796.79 2288.96,1798.69 2295.83,1803.01 2302.7,1809.85 2309.57,1819.26 2316.44,1831.29 2323.31,1845.9 2330.18,1863.02 2337.05,1882.53 2343.92,1904.27 2350.79,1928 2357.66,1953.44 2364.53,1980.27 2371.41,2008.11 2378.28,2036.55 2385.15,2065.12 2392.02,2093.33 2398.89,2120.68 2405.76,2146.64 2412.63,2170.67 2419.5,2192.26 2426.37,2210.9 2433.24,2226.14 2440.11,2237.58 2446.98,2244.87 2453.85,2247.75 2460.72,2246.04 2467.59,2239.68 2474.46,2228.66 2481.34,2213.09 2488.21,2193.17 2495.08,2169.14 2501.95,2141.34 2508.82,2110.15 2515.69,2075.96 2522.56,2039.23 2529.43,2000.39 2536.3,1959.89 2543.17,1918.18 2550.04,1875.69 2556.91,1832.85 2563.78,1790.05 2570.65,1747.67 2577.52,1706.09 2584.39,1665.64 2591.27,1626.68 2598.14,1589.49 2605.01,1554.39 2611.88,1521.66 2618.75,1491.54 2625.62,1464.29 2632.49,1440.12 2639.36,1419.22 2646.23,1401.75 2653.1,1387.85 2659.97,1377.6 2666.84,1371.06 2673.71,1368.22 2680.58,1369.05 2687.45,1373.44 2694.32,1381.25 2701.2,1392.27 2708.07,1406.26 2714.94,1422.9 2721.81,1441.85 2728.68,1462.69 2735.55,1485.01 2742.42,1508.33 2749.29,1532.16 2756.16,1556 2763.03,1579.35 2769.9,1601.72 2776.77,1622.62 2783.64,1641.64 2790.51,1658.38 2797.38,1672.51 2804.25,1683.8 2811.13,1692.04 2818,1697.16 2824.87,1699.12 2831.74,1697.98 2838.61,1693.87 2845.48,1686.97 2852.35,1677.51 2859.22,1665.76 2866.09,1652.01 2872.96,1636.59 2879.83,1619.79 2886.7,1601.95 2893.57,1583.36 2900.44,1564.34 2907.31,1545.16 2914.18,1526.11 2921.06,1507.43 2927.93,1489.39 2934.8,1472.2 2941.67,1456.1 2948.54,1441.3 2955.41,1428 2962.28,1416.4 2969.15,1406.7 2976.02,1399.06 2982.89,1393.67 2989.76,1390.67 2996.63,1390.2 3003.5,1392.4 3010.37,1397.37 3017.24,1405.18 3024.11,1415.9 3030.99,1429.55 3037.86,1446.14 3044.73,1465.65 3051.6,1488.02 3058.47,1513.18 3065.34,1541.02 3072.21,1571.42 3079.08,1604.23 3085.95,1639.27 3092.82,1676.36 3099.69,1715.25 3106.56,1755.69 3113.43,1797.37 3120.3,1839.94 3127.17,1882.99 3134.04,1926.06 3140.92,1968.59 3147.79,2009.98 3154.66,2049.54 3161.53,2086.51 3168.4,2120.09 3175.27,2149.46 3182.14,2173.78 3189.01,2192.27 3195.88,2204.24 3202.75,2209.1 3209.62,2206.45 3216.49,2196.04 3223.36,2177.87 3230.23,2152.12 3237.1,2119.17 3243.98,2079.6 3250.85,2034.09 3257.72,1983.47 3264.59,1928.61 3271.46,1870.43 3278.33,1809.86 3285.2,1747.8 3292.07,1685.14 3298.94,1622.72 3305.81,1561.32 3312.68,1501.68 3319.55,1444.47 3326.42,1390.29 3333.29,1339.68 3340.16,1293.1 3347.03,1250.94 3353.91,1213.49 3360.78,1180.98 3367.65,1153.54 3374.52,1131.22 3381.39,1114.03 3388.26,1101.87 3395.13,1094.62 3402,1092.11 3408.87,1094.14 3415.74,1100.47 3422.61,1110.87 3429.48,1125.09 3436.35,1142.86 3443.22,1163.93 3450.09,1188.02 3456.96,1214.85 3463.84,1244.1 3470.71,1275.43 3477.58,1308.48 3484.45,1342.82 3491.32,1377.97 3498.19,1413.38 3505.06,1448.44 3511.93,1482.46 3518.8,1514.71 3525.67,1544.42 3532.54,1570.79 3539.41,1593.05 3546.28,1610.49 3553.15,1622.52 3560.02,1628.66 3566.89,1628.62 3573.77,1622.32 3580.64,1609.85 3587.51,1591.5 3594.38,1567.72 3601.25,1539.1 3608.12,1506.32 3614.99,1470.11 3621.86,1431.24 3628.73,1390.45 3635.6,1348.46 3642.47,1305.93 3649.34,1263.49 3656.21,1221.68 3663.08,1180.98 3669.95,1141.84 3676.82,1104.61 3683.7,1069.64 3690.57,1037.19 3697.44,1007.52 3704.31,980.809 3711.18,957.249 3718.05,936.979 3724.92,920.115 3731.79,906.747 3738.66,896.936 3745.53,890.716 3752.4,888.092 3759.27,889.033 3766.14,893.48 3773.01,901.337 3779.88,912.477 3786.75,926.743 3793.63,943.952 3800.5,963.903 3807.37,986.379 3814.24,1011.16 3821.11,1038.03 3827.98,1066.79 3834.85,1097.24 3841.72,1129.23 3848.59,1162.62 3855.46,1197.31 3862.33,1233.24 3869.2,1270.36 3876.07,1308.66 3882.94,1348.16 3889.81,1388.88 3896.68,1430.84 3903.56,1474.08 3910.43,1518.57 3917.3,1564.3 3924.17,1611.16 3931.04,1658.98 3937.91,1707.49 3944.78,1756.31 3951.65,1804.91 3958.52,1852.61 3965.39,1898.58 3972.26,1941.83 3979.13,1981.24 3986,2015.58 3992.87,2043.59 3999.74,2064.02 4006.61,2075.74 4013.49,2077.78 4020.36,2069.47 4027.23,2050.4 4034.1,2020.55 4040.97,1980.2 4047.84,1929.98 4054.71,1870.76 4061.58,1803.6 4068.45,1729.73 4075.32,1650.41 4082.19,1566.96 4089.06,1480.69 4095.93,1392.9 4102.8,1304.85 4109.67,1217.81 4116.54,1133.02 4123.42,1051.7 4130.29,975.048 4137.16,904.203 4144.03,840.21 4150.9,783.974 4157.77,736.21 4164.64,697.398 4171.51,667.754 4178.38,647.222 4185.25,635.483 4192.12,631.995 4198.99,636.045 4205.86,646.812 4212.73,663.429 4219.6,685.04 4226.47,710.849 4233.35,740.148 4240.22,772.338 4247.09,806.932 4253.96,843.557 4260.83,881.934 4267.7,921.872 4274.57,963.236 4281.44,1005.93 4288.31,1049.89 4295.18,1095 4302.05,1141.13 4308.92,1188.07 4315.79,1235.5 4322.66,1282.96 4329.53,1329.83 4336.4,1375.29 4343.28,1418.36 4350.15,1457.85 4357.02,1492.47 4363.89,1520.83 4370.76,1541.59 4377.63,1553.54 4384.5,1555.71 4391.37,1547.47 4398.24,1528.58 4405.11,1499.27 4411.98,1460.12 4418.85,1412.07 4425.72,1356.32 4432.59,1294.2 4439.46,1227.09 4446.33,1156.37 4453.21,1083.34 4460.08,1009.2 4466.95,935.024 4473.82,861.79 4480.69,790.357 4487.56,721.497 4494.43,655.899 4501.3,594.187 4508.17,536.916 "/>
<polyline clip-path="url(#clip792)" style="stroke:#000000; stroke-linecap:round; stroke-linejoin:round; stroke-width:8; stroke-opacity:1; fill:none" points="1079.73,2513.7 1086.6,2503.13 1093.47,2492.57 1100.34,2482 1107.21,2471.44 1114.08,2460.87 1120.95,2450.3 1127.82,2439.73 1134.69,2429.16 1141.56,2418.58 1148.43,2407.99 1155.3,2397.4 1162.18,2386.8 1169.05,2376.18 1175.92,2365.55 1182.79,2354.9 1189.66,2344.23 1196.53,2333.54 1203.4,2322.83 1210.27,2312.08 1217.14,2301.31 1224.01,2290.49 1230.88,2279.65 1237.75,2268.76 1244.62,2257.82 1251.49,2246.85 1258.36,2235.82 1265.23,2224.75 1272.11,2213.63 1278.98,2202.45 1285.85,2191.22 1285.85,2184.1 1292.72,2181 1299.59,2177.71 1306.46,2174.23 1313.33,2170.59 1320.2,2166.81 1327.07,2162.9 1333.94,2158.9 1340.81,2154.8 1347.68,2150.64 1354.55,2146.41 1361.42,2142.13 1368.29,2137.81 1375.16,2133.47 1382.04,2129.09 1388.91,2124.7 1395.78,2120.29 1402.65,2115.88 1409.52,2111.47 1416.39,2107.05 1423.26,2102.65 1430.13,2098.26 1437,2093.9 1443.87,2089.56 1450.74,2085.27 1457.61,2081.02 1464.48,2076.83 1471.35,2072.71 1478.22,2068.67 1485.09,2064.73 1491.97,2060.89 1498.84,2057.18 1505.71,2053.61 1512.58,2050.19 1519.45,2046.93 1526.32,2043.86 1533.19,2040.98 1540.06,2038.31 1546.93,2035.85 1553.8,2033.62 1560.67,2031.61 1567.54,2029.84 1574.41,2028.29 1581.28,2026.96 1588.15,2025.83 1595.02,2024.9 1601.9,2024.14 1608.77,2023.52 1615.64,2023.03 1622.51,2022.63 1629.38,2022.3 1636.25,2022.01 1643.12,2021.73 1649.99,2021.42 1656.86,2021.08 1663.73,2020.68 1670.6,2020.2 1677.47,2019.62 1684.34,2018.93 1691.21,2018.13 1698.08,2017.2 1704.95,2016.15 1711.83,2014.97 1718.7,2013.65 1725.57,2012.2 1732.44,2010.62 1739.31,2008.91 1746.18,2007.07 1753.05,2005.12 1759.92,2003.04 1766.79,2000.86 1773.66,1998.58 1780.53,1996.21 1787.4,1993.75 1794.27,1991.22 1801.14,1988.63 1808.01,1985.99 1814.88,1983.33 1821.76,1980.65 1828.63,1977.97 1835.5,1975.31 1842.37,1972.69 1849.24,1970.12 1856.11,1967.64 1862.98,1965.25 1869.85,1962.98 1876.72,1960.84 1883.59,1958.84 1890.46,1957.02 1897.33,1955.36 1904.2,1953.89 1911.07,1952.6 1917.94,1951.5 1924.81,1950.58 1931.69,1949.83 1938.56,1949.23 1945.43,1948.77 1952.3,1948.42 1959.17,1948.16 1966.04,1947.95 1972.91,1947.78 1979.78,1947.6 1986.65,1947.39 1993.52,1947.12 2000.39,1946.77 2007.26,1946.31 2014.13,1945.73 2021,1945 2027.87,1944.13 2034.74,1943.09 2041.62,1941.88 2048.49,1940.49 2055.36,1938.93 2062.23,1937.18 2069.1,1935.26 2075.97,1933.15 2082.84,1930.88 2089.71,1928.43 2096.58,1925.81 2103.45,1923.02 2110.32,1920.08 2117.19,1916.99 2124.06,1913.76 2130.93,1910.38 2137.8,1906.88 2144.67,1903.27 2151.55,1899.54 2158.42,1895.71 2165.29,1891.8 2172.16,1887.82 2179.03,1883.78 2185.9,1879.69 2192.77,1875.56 2199.64,1871.41 2206.51,1867.26 2213.38,1863.11 2220.25,1858.99 2227.12,1854.9 2233.99,1850.86 2240.86,1846.89 2247.73,1842.99 2254.6,1839.18 2261.48,1835.48 2268.35,1831.89 2275.22,1828.42 2282.09,1825.09 2288.96,1821.91 2295.83,1818.87 2302.7,1816 2309.57,1813.3 2316.44,1810.77 2323.31,1808.41 2330.18,1806.24 2337.05,1804.24 2343.92,1802.42 2350.79,1800.79 2357.66,1799.32 2364.53,1798.04 2371.41,1796.91 2378.28,1795.95 2385.15,1795.14 2392.02,1794.47 2398.89,1793.92 2405.76,1793.48 2412.63,1793.14 2419.5,1792.86 2426.37,1792.62 2433.24,1792.41 2440.11,1792.2 2446.98,1791.95 2453.85,1791.64 2460.72,1791.25 2467.59,1790.75 2474.46,1790.12 2481.34,1789.34 2488.21,1788.4 2495.08,1787.29 2501.95,1786 2508.82,1784.53 2515.69,1782.88 2522.56,1781.05 2529.43,1779.07 2536.3,1776.93 2543.17,1774.66 2550.04,1772.28 2556.91,1769.79 2563.78,1767.22 2570.65,1764.6 2577.52,1761.93 2584.39,1759.24 2591.27,1756.55 2598.14,1753.87 2605.01,1751.23 2611.88,1748.63 2618.75,1746.11 2625.62,1743.66 2632.49,1741.31 2639.36,1739.06 2646.23,1736.92 2653.1,1734.9 2659.97,1733.01 2666.84,1731.25 2673.71,1729.63 2680.58,1728.14 2687.45,1726.79 2694.32,1725.58 2701.2,1724.5 2708.07,1723.55 2714.94,1722.71 2721.81,1722 2728.68,1721.39 2735.55,1720.87 2742.42,1720.43 2749.29,1720.06 2756.16,1719.73 2763.03,1719.42 2769.9,1719.12 2776.77,1718.8 2783.64,1718.43 2790.51,1717.98 2797.38,1717.44 2804.25,1716.78 2811.13,1715.98 2818,1715 2824.87,1713.84 2831.74,1712.49 2838.61,1710.92 2845.48,1709.13 2852.35,1707.13 2859.22,1704.9 2866.09,1702.46 2872.96,1699.8 2879.83,1696.94 2886.7,1693.89 2893.57,1690.66 2900.44,1687.27 2907.31,1683.72 2914.18,1680.04 2921.06,1676.23 2927.93,1672.31 2934.8,1668.3 2941.67,1664.21 2948.54,1660.05 2955.41,1655.84 2962.28,1651.58 2969.15,1647.3 2976.02,1642.98 2982.89,1638.66 2989.76,1634.33 2996.63,1630 3003.5,1625.69 3010.37,1621.39 3017.24,1617.11 3024.11,1612.87 3030.99,1608.65 3037.86,1604.49 3044.73,1600.37 3051.6,1596.3 3058.47,1592.31 3065.34,1588.39 3072.21,1584.56 3079.08,1580.84 3085.95,1577.23 3092.82,1573.75 3099.69,1570.42 3106.56,1567.26 3113.43,1564.29 3120.3,1561.52 3127.17,1558.97 3134.04,1556.65 3140.92,1554.59 3147.79,1552.79 3154.66,1551.25 3161.53,1549.97 3168.4,1548.95 3175.27,1548.17 3182.14,1547.61 3189.01,1547.23 3195.88,1547 3202.75,1546.87 3209.62,1546.79 3216.49,1546.73 3223.36,1546.62 3230.23,1546.44 3237.1,1546.12 3243.98,1545.66 3250.85,1545.02 3257.72,1544.19 3264.59,1543.15 3271.46,1541.93 3278.33,1540.51 3285.2,1538.91 3292.07,1537.15 3298.94,1535.25 3305.81,1533.22 3312.68,1531.09 3319.55,1528.87 3326.42,1526.57 3333.29,1524.21 3340.16,1521.81 3347.03,1519.36 3353.91,1516.89 3360.78,1514.38 3367.65,1511.84 3374.52,1509.28 3381.39,1506.7 3388.26,1504.1 3395.13,1501.48 3402,1498.85 3408.87,1496.2 3415.74,1493.56 3422.61,1490.93 3429.48,1488.32 3436.35,1485.75 3443.22,1483.23 3450.09,1480.77 3456.96,1478.41 3463.84,1476.15 3470.71,1474.03 3477.58,1472.05 3484.45,1470.24 3491.32,1468.61 3498.19,1467.18 3505.06,1465.96 3511.93,1464.94 3518.8,1464.13 3525.67,1463.5 3532.54,1463.05 3539.41,1462.73 3546.28,1462.51 3553.15,1462.35 3560.02,1462.19 3566.89,1461.99 3573.77,1461.7 3580.64,1461.27 3587.51,1460.65 3594.38,1459.81 3601.25,1458.73 3608.12,1457.39 3614.99,1455.78 3621.86,1453.9 3628.73,1451.76 3635.6,1449.36 3642.47,1446.72 3649.34,1443.85 3656.21,1440.78 3663.08,1437.52 3669.95,1434.09 3676.82,1430.51 3683.7,1426.78 3690.57,1422.93 3697.44,1418.96 3704.31,1414.89 3711.18,1410.71 3718.05,1406.45 3724.92,1402.09 3731.79,1397.65 3738.66,1393.12 3745.53,1388.51 3752.4,1383.81 3759.27,1379.03 3766.14,1374.15 3773.01,1369.18 3779.88,1364.12 3786.75,1358.96 3793.63,1353.71 3800.5,1348.36 3807.37,1342.91 3814.24,1337.37 3821.11,1331.75 3827.98,1326.05 3834.85,1320.27 3841.72,1314.44 3848.59,1308.57 3855.46,1302.66 3862.33,1296.74 3869.2,1290.82 3876.07,1284.92 3882.94,1279.07 3889.81,1273.29 3896.68,1267.61 3903.56,1262.04 3910.43,1256.63 3917.3,1251.4 3924.17,1246.37 3931.04,1241.59 3937.91,1237.08 3944.78,1232.88 3951.65,1229.01 3958.52,1225.49 3965.39,1222.35 3972.26,1219.6 3979.13,1217.23 3986,1215.24 3992.87,1213.61 3999.74,1212.3 4006.61,1211.26 4013.49,1210.43 4020.36,1209.75 4027.23,1209.16 4034.1,1208.59 4040.97,1207.97 4047.84,1207.27 4054.71,1206.44 4061.58,1205.46 4068.45,1204.33 4075.32,1203.04 4082.19,1201.61 4089.06,1200.06 4095.93,1198.43 4102.8,1196.74 4109.67,1195.03 4116.54,1193.31 4123.42,1191.63 4130.29,1189.99 4137.16,1188.4 4144.03,1186.86 4150.9,1185.36 4157.77,1183.87 4164.64,1182.38 4171.51,1180.84 4178.38,1179.21 4185.25,1177.45 4192.12,1175.54 4198.99,1173.44 4205.86,1171.13 4212.73,1168.61 4219.6,1165.86 4226.47,1162.89 4233.35,1159.73 4240.22,1156.38 4247.09,1152.87 4253.96,1149.24 4260.83,1145.52 4267.7,1141.75 4274.57,1137.95 4281.44,1134.18 4288.31,1130.48 4295.18,1126.88 4302.05,1123.44 4308.92,1120.2 4315.79,1117.19 4322.66,1114.46 4329.53,1112.04 4336.4,1109.96 4343.28,1108.23 4350.15,1106.86 4357.02,1105.83 4363.89,1105.12 4370.76,1104.68 4377.63,1104.44 4384.5,1104.33 4391.37,1104.26 4398.24,1104.15 4405.11,1103.92 4411.98,1103.49 4418.85,1102.81 4425.72,1101.85 4432.59,1100.58 4439.46,1098.98 4446.33,1097.08 4453.21,1094.89 4460.08,1092.44 4466.95,1089.76 4473.82,1086.88 4480.69,1083.84 4487.56,1080.66 4494.43,1077.38 4501.3,1074.01 4508.17,1070.58 "/>
<polyline clip-path="url(#clip792)" style="stroke:#ff00ff; stroke-linecap:round; stroke-linejoin:round; stroke-width:4; stroke-opacity:1; fill:none" stroke-dasharray="16, 10" points="1285.85,4912.73 1285.85,-1890.08 "/>
<path clip-path="url(#clip790)" d="M3967.96 2569.54 L4489.89 2569.54 L4489.89 1986.34 L3967.96 1986.34  Z" fill="#ffffff" fill-rule="evenodd" fill-opacity="1"/>
<polyline clip-path="url(#clip790)" style="stroke:#000000; stroke-linecap:round; stroke-linejoin:round; stroke-width:4; stroke-opacity:1; fill:none" points="3967.96,2569.54 4489.89,2569.54 4489.89,1986.34 3967.96,1986.34 3967.96,2569.54 "/>
<polyline clip-path="url(#clip790)" style="stroke:#009af9; stroke-linecap:round; stroke-linejoin:round; stroke-width:22.5; stroke-opacity:1; fill:none" points="4008.34,2083.54 4250.62,2083.54 "/>
<path clip-path="url(#clip790)" d="M4338.92 2106.7 L4338.92 2089.29 L4324.59 2089.29 L4324.59 2082.09 L4347.6 2082.09 L4347.6 2109.91 Q4342.52 2113.51 4336.4 2115.38 Q4330.28 2117.2 4323.33 2117.2 Q4308.14 2117.2 4299.55 2108.35 Q4291 2099.45 4291 2083.61 Q4291 2067.72 4299.55 2058.87 Q4308.14 2049.97 4323.33 2049.97 Q4329.67 2049.97 4335.36 2051.53 Q4341.09 2053.09 4345.9 2056.13 L4345.9 2065.46 Q4341.04 2061.34 4335.57 2059.26 Q4330.11 2057.17 4324.07 2057.17 Q4312.18 2057.17 4306.19 2063.81 Q4300.24 2070.45 4300.24 2083.61 Q4300.24 2096.71 4306.19 2103.35 Q4312.18 2109.99 4324.07 2109.99 Q4328.72 2109.99 4332.36 2109.21 Q4336.01 2108.39 4338.92 2106.7 Z" fill="#000000" fill-rule="nonzero" fill-opacity="1" /><path clip-path="url(#clip790)" d="M4365.91 2108.56 L4380.24 2108.56 L4380.24 2059.13 L4364.65 2062.25 L4364.65 2054.27 L4380.15 2051.14 L4388.92 2051.14 L4388.92 2108.56 L4403.24 2108.56 L4403.24 2115.94 L4365.91 2115.94 L4365.91 2108.56 Z" fill="#000000" fill-rule="nonzero" fill-opacity="1" /><polyline clip-path="url(#clip790)" style="stroke:#e26f46; stroke-linecap:round; stroke-linejoin:round; stroke-width:22.5; stroke-opacity:1; fill:none" points="4008.34,2180.74 4250.62,2180.74 "/>
<path clip-path="url(#clip790)" d="M4338.92 2203.9 L4338.92 2186.49 L4324.59 2186.49 L4324.59 2179.29 L4347.6 2179.29 L4347.6 2207.11 Q4342.52 2210.71 4336.4 2212.58 Q4330.28 2214.4 4323.33 2214.4 Q4308.14 2214.4 4299.55 2205.55 Q4291 2196.65 4291 2180.81 Q4291 2164.92 4299.55 2156.07 Q4308.14 2147.17 4323.33 2147.17 Q4329.67 2147.17 4335.36 2148.73 Q4341.09 2150.29 4345.9 2153.33 L4345.9 2162.66 Q4341.04 2158.54 4335.57 2156.46 Q4330.11 2154.37 4324.07 2154.37 Q4312.18 2154.37 4306.19 2161.01 Q4300.24 2167.65 4300.24 2180.81 Q4300.24 2193.91 4306.19 2200.55 Q4312.18 2207.19 4324.07 2207.19 Q4328.72 2207.19 4332.36 2206.41 Q4336.01 2205.59 4338.92 2203.9 Z" fill="#000000" fill-rule="nonzero" fill-opacity="1" /><path clip-path="url(#clip790)" d="M4371.95 2205.76 L4402.54 2205.76 L4402.54 2213.14 L4361.4 2213.14 L4361.4 2205.76 Q4366.39 2200.6 4374.98 2191.92 Q4383.62 2183.19 4385.83 2180.68 Q4390.04 2175.94 4391.69 2172.69 Q4393.39 2169.39 4393.39 2166.22 Q4393.39 2161.06 4389.74 2157.8 Q4386.14 2154.55 4380.32 2154.55 Q4376.2 2154.55 4371.6 2155.98 Q4367.04 2157.41 4361.83 2160.32 L4361.83 2151.47 Q4367.13 2149.34 4371.73 2148.25 Q4376.33 2147.17 4380.15 2147.17 Q4390.22 2147.17 4396.21 2152.2 Q4402.2 2157.24 4402.2 2165.66 Q4402.2 2169.65 4400.68 2173.25 Q4399.2 2176.81 4395.25 2181.67 Q4394.17 2182.93 4388.35 2188.97 Q4382.54 2194.96 4371.95 2205.76 Z" fill="#000000" fill-rule="nonzero" fill-opacity="1" /><polyline clip-path="url(#clip790)" style="stroke:#3da44d; stroke-linecap:round; stroke-linejoin:round; stroke-width:22.5; stroke-opacity:1; fill:none" points="4008.34,2277.94 4250.62,2277.94 "/>
<path clip-path="url(#clip790)" d="M4338.92 2301.1 L4338.92 2283.69 L4324.59 2283.69 L4324.59 2276.49 L4347.6 2276.49 L4347.6 2304.31 Q4342.52 2307.91 4336.4 2309.78 Q4330.28 2311.6 4323.33 2311.6 Q4308.14 2311.6 4299.55 2302.75 Q4291 2293.85 4291 2278.01 Q4291 2262.12 4299.55 2253.27 Q4308.14 2244.37 4323.33 2244.37 Q4329.67 2244.37 4335.36 2245.93 Q4341.09 2247.49 4345.9 2250.53 L4345.9 2259.86 Q4341.04 2255.74 4335.57 2253.66 Q4330.11 2251.57 4324.07 2251.57 Q4312.18 2251.57 4306.19 2258.21 Q4300.24 2264.85 4300.24 2278.01 Q4300.24 2291.11 4306.19 2297.75 Q4312.18 2304.39 4324.07 2304.39 Q4328.72 2304.39 4332.36 2303.61 Q4336.01 2302.79 4338.92 2301.1 Z" fill="#000000" fill-rule="nonzero" fill-opacity="1" /><path clip-path="url(#clip790)" d="M4390.96 2275.4 Q4397.25 2276.75 4400.76 2281 Q4404.32 2285.25 4404.32 2291.5 Q4404.32 2301.1 4397.73 2306.35 Q4391.13 2311.6 4378.98 2311.6 Q4374.9 2311.6 4370.56 2310.77 Q4366.26 2309.99 4361.66 2308.39 L4361.66 2299.92 Q4365.3 2302.05 4369.65 2303.14 Q4373.99 2304.22 4378.72 2304.22 Q4386.96 2304.22 4391.26 2300.97 Q4395.6 2297.71 4395.6 2291.5 Q4395.6 2285.77 4391.56 2282.56 Q4387.57 2279.31 4380.41 2279.31 L4372.86 2279.31 L4372.86 2272.1 L4380.76 2272.1 Q4387.22 2272.1 4390.65 2269.54 Q4394.08 2266.94 4394.08 2262.08 Q4394.08 2257.09 4390.52 2254.44 Q4387.01 2251.75 4380.41 2251.75 Q4376.81 2251.75 4372.68 2252.53 Q4368.56 2253.31 4363.61 2254.96 L4363.61 2247.15 Q4368.6 2245.76 4372.94 2245.06 Q4377.33 2244.37 4381.19 2244.37 Q4391.17 2244.37 4396.99 2248.93 Q4402.8 2253.44 4402.8 2261.17 Q4402.8 2266.55 4399.72 2270.28 Q4396.64 2273.97 4390.96 2275.4 Z" fill="#000000" fill-rule="nonzero" fill-opacity="1" /><polyline clip-path="url(#clip790)" style="stroke:#000000; stroke-linecap:round; stroke-linejoin:round; stroke-width:15; stroke-opacity:1; fill:none" points="4008.34,2375.14 4250.62,2375.14 "/>
<path clip-path="url(#clip790)" d="M4343.26 2347.73 L4343.26 2356.98 Q4338.83 2352.85 4333.79 2350.81 Q4328.8 2348.77 4323.16 2348.77 Q4312.05 2348.77 4306.15 2355.59 Q4300.24 2362.36 4300.24 2375.21 Q4300.24 2388.01 4306.15 2394.82 Q4312.05 2401.59 4323.16 2401.59 Q4328.8 2401.59 4333.79 2399.55 Q4338.83 2397.51 4343.26 2393.39 L4343.26 2402.55 Q4338.66 2405.67 4333.49 2407.24 Q4328.37 2408.8 4322.64 2408.8 Q4307.93 2408.8 4299.46 2399.82 Q4291 2390.79 4291 2375.21 Q4291 2359.58 4299.46 2350.6 Q4307.93 2341.57 4322.64 2341.57 Q4328.46 2341.57 4333.58 2343.13 Q4338.74 2344.65 4343.26 2347.73 Z" fill="#000000" fill-rule="nonzero" fill-opacity="1" /><path clip-path="url(#clip790)" d="M4383.1 2348.69 Q4373.55 2348.69 4367.91 2355.8 Q4362.31 2362.92 4362.31 2375.21 Q4362.31 2387.45 4367.91 2394.56 Q4373.55 2401.68 4383.1 2401.68 Q4392.65 2401.68 4398.2 2394.56 Q4403.8 2387.45 4403.8 2375.21 Q4403.8 2362.92 4398.2 2355.8 Q4392.65 2348.69 4383.1 2348.69 M4383.1 2341.57 Q4396.73 2341.57 4404.89 2350.73 Q4413.05 2359.84 4413.05 2375.21 Q4413.05 2390.53 4404.89 2399.68 Q4396.73 2408.8 4383.1 2408.8 Q4369.43 2408.8 4361.23 2399.68 Q4353.07 2390.57 4353.07 2375.21 Q4353.07 2359.84 4361.23 2350.73 Q4369.43 2341.57 4383.1 2341.57 Z" fill="#000000" fill-rule="nonzero" fill-opacity="1" /><path clip-path="url(#clip790)" d="M4426.76 2342.74 L4435.53 2342.74 L4435.53 2407.54 L4426.76 2407.54 L4426.76 2342.74 Z" fill="#000000" fill-rule="nonzero" fill-opacity="1" /><polyline clip-path="url(#clip790)" style="stroke:#ff00ff; stroke-linecap:round; stroke-linejoin:round; stroke-width:7.5; stroke-opacity:1; fill:none" stroke-dasharray="30, 19" points="4008.34,2472.34 4250.62,2472.34 "/>
<path clip-path="url(#clip790)" d="M4304.89 2442.33 L4304.89 2456.13 L4321.34 2456.13 L4321.34 2462.34 L4304.89 2462.34 L4304.89 2488.73 Q4304.89 2494.67 4306.49 2496.36 Q4308.14 2498.06 4313.14 2498.06 L4321.34 2498.06 L4321.34 2504.74 L4313.14 2504.74 Q4303.89 2504.74 4300.37 2501.31 Q4296.86 2497.84 4296.86 2488.73 L4296.86 2462.34 L4291 2462.34 L4291 2456.13 L4296.86 2456.13 L4296.86 2442.33 L4304.89 2442.33 Z" fill="#000000" fill-rule="nonzero" fill-opacity="1" /><path clip-path="url(#clip790)" d="M4368.78 2519.5 L4368.78 2525.7 L4322.6 2525.7 L4322.6 2519.5 L4368.78 2519.5 Z" fill="#000000" fill-rule="nonzero" fill-opacity="1" /><path clip-path="url(#clip790)" d="M4411.27 2458 L4411.27 2465.46 Q4407.88 2463.6 4404.45 2462.68 Q4401.07 2461.73 4397.6 2461.73 Q4389.83 2461.73 4385.53 2466.68 Q4381.23 2471.58 4381.23 2480.48 Q4381.23 2489.38 4385.53 2494.32 Q4389.83 2499.23 4397.6 2499.23 Q4401.07 2499.23 4404.45 2498.32 Q4407.88 2497.36 4411.27 2495.5 L4411.27 2502.87 Q4407.93 2504.44 4404.32 2505.22 Q4400.76 2506 4396.73 2506 Q4385.75 2506 4379.28 2499.1 Q4372.81 2492.2 4372.81 2480.48 Q4372.81 2468.59 4379.32 2461.77 Q4385.88 2454.96 4397.25 2454.96 Q4400.94 2454.96 4404.45 2455.74 Q4407.97 2456.48 4411.27 2458 Z" fill="#000000" fill-rule="nonzero" fill-opacity="1" /><path clip-path="url(#clip790)" d="M4433.06 2442.33 L4433.06 2456.13 L4449.51 2456.13 L4449.51 2462.34 L4433.06 2462.34 L4433.06 2488.73 Q4433.06 2494.67 4434.66 2496.36 Q4436.31 2498.06 4441.3 2498.06 L4449.51 2498.06 L4449.51 2504.74 L4441.3 2504.74 Q4432.06 2504.74 4428.54 2501.31 Q4425.03 2497.84 4425.03 2488.73 L4425.03 2462.34 L4419.17 2462.34 L4419.17 2456.13 L4425.03 2456.13 L4425.03 2442.33 L4433.06 2442.33 Z" fill="#000000" fill-rule="nonzero" fill-opacity="1" /></svg>
