<?xml version="1.0" encoding="utf-8"?>
<svg xmlns="http://www.w3.org/2000/svg" xmlns:xlink="http://www.w3.org/1999/xlink" width="1200" height="800" viewBox="0 0 4800 3200">
<defs>
  <clipPath id="clip830">
    <rect x="0" y="0" width="4800" height="3200"/>
  </clipPath>
</defs>
<path clip-path="url(#clip830)" d="M0 3200 L4800 3200 L4800 0 L0 0  Z" fill="#ffffff" fill-rule="evenodd" fill-opacity="1"/>
<defs>
  <clipPath id="clip831">
    <rect x="960" y="0" width="3361" height="3200"/>
  </clipPath>
</defs>
<path clip-path="url(#clip830)" d="M854.74 2645.13 L4611.02 2645.13 L4611.02 377.524 L854.74 377.524  Z" fill="#ffffff" fill-rule="evenodd" fill-opacity="1"/>
<defs>
  <clipPath id="clip832">
    <rect x="854" y="377" width="3757" height="2269"/>
  </clipPath>
</defs>
<polyline clip-path="url(#clip832)" style="stroke:#000000; stroke-linecap:round; stroke-linejoin:round; stroke-width:8; stroke-opacity:0.05; fill:none" stroke-dasharray="32, 20" points="953.948,2645.13 953.948,377.524 "/>
<polyline clip-path="url(#clip832)" style="stroke:#000000; stroke-linecap:round; stroke-linejoin:round; stroke-width:8; stroke-opacity:0.05; fill:none" stroke-dasharray="32, 20" points="1664.1,2645.13 1664.1,377.524 "/>
<polyline clip-path="url(#clip832)" style="stroke:#000000; stroke-linecap:round; stroke-linejoin:round; stroke-width:8; stroke-opacity:0.05; fill:none" stroke-dasharray="32, 20" points="2374.25,2645.13 2374.25,377.524 "/>
<polyline clip-path="url(#clip832)" style="stroke:#000000; stroke-linecap:round; stroke-linejoin:round; stroke-width:8; stroke-opacity:0.05; fill:none" stroke-dasharray="32, 20" points="3084.41,2645.13 3084.41,377.524 "/>
<polyline clip-path="url(#clip832)" style="stroke:#000000; stroke-linecap:round; stroke-linejoin:round; stroke-width:8; stroke-opacity:0.05; fill:none" stroke-dasharray="32, 20" points="3794.56,2645.13 3794.56,377.524 "/>
<polyline clip-path="url(#clip832)" style="stroke:#000000; stroke-linecap:round; stroke-linejoin:round; stroke-width:8; stroke-opacity:0.05; fill:none" stroke-dasharray="32, 20" points="4504.71,2645.13 4504.71,377.524 "/>
<polyline clip-path="url(#clip832)" style="stroke:#000000; stroke-linecap:round; stroke-linejoin:round; stroke-width:8; stroke-opacity:0.05; fill:none" stroke-dasharray="32, 20" points="854.74,2562.02 4611.02,2562.02 "/>
<polyline clip-path="url(#clip832)" style="stroke:#000000; stroke-linecap:round; stroke-linejoin:round; stroke-width:8; stroke-opacity:0.05; fill:none" stroke-dasharray="32, 20" points="854.74,1965.08 4611.02,1965.08 "/>
<polyline clip-path="url(#clip832)" style="stroke:#000000; stroke-linecap:round; stroke-linejoin:round; stroke-width:8; stroke-opacity:0.05; fill:none" stroke-dasharray="32, 20" points="854.74,1368.14 4611.02,1368.14 "/>
<polyline clip-path="url(#clip832)" style="stroke:#000000; stroke-linecap:round; stroke-linejoin:round; stroke-width:8; stroke-opacity:0.05; fill:none" stroke-dasharray="32, 20" points="854.74,771.204 4611.02,771.204 "/>
<polyline clip-path="url(#clip830)" style="stroke:#000000; stroke-linecap:round; stroke-linejoin:round; stroke-width:4; stroke-opacity:1; fill:none" points="854.74,2645.13 4611.02,2645.13 "/>
<polyline clip-path="url(#clip830)" style="stroke:#000000; stroke-linecap:round; stroke-linejoin:round; stroke-width:4; stroke-opacity:1; fill:none" points="953.948,2645.13 953.948,2626.23 "/>
<polyline clip-path="url(#clip830)" style="stroke:#000000; stroke-linecap:round; stroke-linejoin:round; stroke-width:4; stroke-opacity:1; fill:none" points="1664.1,2645.13 1664.1,2626.23 "/>
<polyline clip-path="url(#clip830)" style="stroke:#000000; stroke-linecap:round; stroke-linejoin:round; stroke-width:4; stroke-opacity:1; fill:none" points="2374.25,2645.13 2374.25,2626.23 "/>
<polyline clip-path="url(#clip830)" style="stroke:#000000; stroke-linecap:round; stroke-linejoin:round; stroke-width:4; stroke-opacity:1; fill:none" points="3084.41,2645.13 3084.41,2626.23 "/>
<polyline clip-path="url(#clip830)" style="stroke:#000000; stroke-linecap:round; stroke-linejoin:round; stroke-width:4; stroke-opacity:1; fill:none" points="3794.56,2645.13 3794.56,2626.23 "/>
<polyline clip-path="url(#clip830)" style="stroke:#000000; stroke-linecap:round; stroke-linejoin:round; stroke-width:4; stroke-opacity:1; fill:none" points="4504.71,2645.13 4504.71,2626.23 "/>
<path clip-path="url(#clip830)" d="M953.948 2734.8 Q938.149 2734.8 930.149 2750.39 Q922.25 2765.89 922.25 2797.08 Q922.25 2828.17 930.149 2843.77 Q938.149 2859.26 953.948 2859.26 Q969.848 2859.26 977.747 2843.77 Q985.748 2828.17 985.748 2797.08 Q985.748 2765.89 977.747 2750.39 Q969.848 2734.8 953.948 2734.8 M953.948 2718.59 Q979.367 2718.59 992.735 2738.75 Q1006.2 2758.8 1006.2 2797.08 Q1006.2 2835.26 992.735 2855.41 Q979.367 2875.46 953.948 2875.46 Q928.529 2875.46 915.059 2855.41 Q901.691 2835.26 901.691 2797.08 Q901.691 2758.8 915.059 2738.75 Q928.529 2718.59 953.948 2718.59 Z" fill="#000000" fill-rule="nonzero" fill-opacity="1" /><path clip-path="url(#clip830)" d="M1622.02 2855.31 L1655.44 2855.31 L1655.44 2739.96 L1619.09 2747.25 L1619.09 2728.62 L1655.24 2721.33 L1675.7 2721.33 L1675.7 2855.31 L1709.12 2855.31 L1709.12 2872.53 L1622.02 2872.53 L1622.02 2855.31 Z" fill="#000000" fill-rule="nonzero" fill-opacity="1" /><path clip-path="url(#clip830)" d="M2350.86 2855.31 L2422.26 2855.31 L2422.26 2872.53 L2326.25 2872.53 L2326.25 2855.31 Q2337.9 2843.26 2357.95 2823.01 Q2378.1 2802.65 2383.27 2796.78 Q2393.09 2785.74 2396.94 2778.14 Q2400.89 2770.44 2400.89 2763.05 Q2400.89 2751 2392.38 2743.4 Q2383.98 2735.81 2370.41 2735.81 Q2360.78 2735.81 2350.05 2739.15 Q2339.42 2742.49 2327.26 2749.28 L2327.26 2728.62 Q2339.62 2723.66 2350.35 2721.13 Q2361.09 2718.59 2370 2718.59 Q2393.5 2718.59 2407.47 2730.34 Q2421.45 2742.09 2421.45 2761.74 Q2421.45 2771.05 2417.9 2779.46 Q2414.46 2787.76 2405.24 2799.1 Q2402.71 2802.04 2389.14 2816.12 Q2375.57 2830.09 2350.86 2855.31 Z" fill="#000000" fill-rule="nonzero" fill-opacity="1" /><path clip-path="url(#clip830)" d="M3102.99 2791 Q3117.68 2794.14 3125.88 2804.07 Q3134.18 2813.99 3134.18 2828.58 Q3134.18 2850.96 3118.79 2863.21 Q3103.4 2875.46 3075.04 2875.46 Q3065.52 2875.46 3055.39 2873.54 Q3045.37 2871.72 3034.63 2867.97 L3034.63 2848.22 Q3043.14 2853.18 3053.27 2855.72 Q3063.39 2858.25 3074.43 2858.25 Q3093.67 2858.25 3103.7 2850.65 Q3113.83 2843.06 3113.83 2828.58 Q3113.83 2815.21 3104.41 2807.71 Q3095.09 2800.12 3078.38 2800.12 L3060.76 2800.12 L3060.76 2783.31 L3079.19 2783.31 Q3094.28 2783.31 3102.28 2777.33 Q3110.28 2771.25 3110.28 2759.91 Q3110.28 2748.27 3101.98 2742.09 Q3093.78 2735.81 3078.38 2735.81 Q3069.98 2735.81 3060.36 2737.63 Q3050.73 2739.46 3039.19 2743.3 L3039.19 2725.07 Q3050.84 2721.83 3060.96 2720.21 Q3071.19 2718.59 3080.2 2718.59 Q3103.5 2718.59 3117.07 2729.23 Q3130.64 2739.76 3130.64 2757.79 Q3130.64 2770.34 3123.45 2779.05 Q3116.26 2787.66 3102.99 2791 Z" fill="#000000" fill-rule="nonzero" fill-opacity="1" /><path clip-path="url(#clip830)" d="M3807.73 2739.15 L3756.08 2819.87 L3807.73 2819.87 L3807.73 2739.15 M3802.36 2721.33 L3828.08 2721.33 L3828.08 2819.87 L3849.65 2819.87 L3849.65 2836.88 L3828.08 2836.88 L3828.08 2872.53 L3807.73 2872.53 L3807.73 2836.88 L3739.47 2836.88 L3739.47 2817.13 L3802.36 2721.33 Z" fill="#000000" fill-rule="nonzero" fill-opacity="1" /><path clip-path="url(#clip830)" d="M4462.18 2721.33 L4542.49 2721.33 L4542.49 2738.54 L4480.91 2738.54 L4480.91 2775.61 Q4485.37 2774.09 4489.83 2773.38 Q4494.28 2772.57 4498.74 2772.57 Q4524.06 2772.57 4538.84 2786.45 Q4553.63 2800.32 4553.63 2824.02 Q4553.63 2848.42 4538.44 2862 Q4523.25 2875.46 4495.6 2875.46 Q4486.08 2875.46 4476.15 2873.84 Q4466.33 2872.22 4455.8 2868.98 L4455.8 2848.42 Q4464.91 2853.39 4474.64 2855.82 Q4484.36 2858.25 4495.19 2858.25 Q4512.71 2858.25 4522.94 2849.03 Q4533.17 2839.82 4533.17 2824.02 Q4533.17 2808.22 4522.94 2799 Q4512.71 2789.79 4495.19 2789.79 Q4486.99 2789.79 4478.79 2791.61 Q4470.69 2793.43 4462.18 2797.28 L4462.18 2721.33 Z" fill="#000000" fill-rule="nonzero" fill-opacity="1" /><path clip-path="url(#clip830)" d="M2568.41 2979.74 L2568.41 3011.94 L2606.8 3011.94 L2606.8 3026.42 L2568.41 3026.42 L2568.41 3088 Q2568.41 3101.87 2572.16 3105.82 Q2576.01 3109.77 2587.66 3109.77 L2606.8 3109.77 L2606.8 3125.37 L2587.66 3125.37 Q2566.09 3125.37 2557.88 3117.37 Q2549.68 3109.27 2549.68 3088 L2549.68 3026.42 L2536.01 3026.42 L2536.01 3011.94 L2549.68 3011.94 L2549.68 2979.74 L2568.41 2979.74 Z" fill="#000000" fill-rule="nonzero" fill-opacity="1" /><path clip-path="url(#clip830)" d="M2742 2967.99 Q2728.43 2991.28 2721.84 3014.07 Q2715.26 3036.86 2715.26 3060.25 Q2715.26 3083.64 2721.84 3106.63 Q2728.53 3129.52 2742 3152.71 L2725.79 3152.71 Q2710.6 3128.91 2703.01 3105.92 Q2695.51 3082.93 2695.51 3060.25 Q2695.51 3037.67 2703.01 3014.78 Q2710.5 2991.89 2725.79 2967.99 L2742 2967.99 Z" fill="#000000" fill-rule="nonzero" fill-opacity="1" /><path clip-path="url(#clip830)" d="M2850.46 3015.28 L2850.46 3032.91 Q2842.56 3028.85 2834.05 3026.83 Q2825.55 3024.8 2816.43 3024.8 Q2802.56 3024.8 2795.57 3029.06 Q2788.68 3033.31 2788.68 3041.82 Q2788.68 3048.3 2793.65 3052.05 Q2798.61 3055.69 2813.6 3059.03 L2819.98 3060.45 Q2839.83 3064.71 2848.13 3072.5 Q2856.54 3080.2 2856.54 3094.07 Q2856.54 3109.87 2843.98 3119.09 Q2831.52 3128.3 2809.65 3128.3 Q2800.53 3128.3 2790.61 3126.48 Q2780.78 3124.76 2769.85 3121.22 L2769.85 3101.97 Q2780.18 3107.34 2790.2 3110.08 Q2800.23 3112.71 2810.05 3112.71 Q2823.22 3112.71 2830.31 3108.25 Q2837.39 3103.7 2837.39 3095.49 Q2837.39 3087.9 2832.23 3083.85 Q2827.17 3079.79 2809.85 3076.05 L2803.37 3074.53 Q2786.05 3070.88 2778.35 3063.39 Q2770.66 3055.79 2770.66 3042.63 Q2770.66 3026.63 2782 3017.92 Q2793.34 3009.21 2814.2 3009.21 Q2824.53 3009.21 2833.65 3010.73 Q2842.76 3012.25 2850.46 3015.28 Z" fill="#000000" fill-rule="nonzero" fill-opacity="1" /><path clip-path="url(#clip830)" d="M2883.27 2967.99 L2899.48 2967.99 Q2914.67 2991.89 2922.16 3014.78 Q2929.76 3037.67 2929.76 3060.25 Q2929.76 3082.93 2922.16 3105.92 Q2914.67 3128.91 2899.48 3152.71 L2883.27 3152.71 Q2896.74 3129.52 2903.32 3106.63 Q2910.01 3083.64 2910.01 3060.25 Q2910.01 3036.86 2903.32 3014.07 Q2896.74 2991.28 2883.27 2967.99 Z" fill="#000000" fill-rule="nonzero" fill-opacity="1" /><polyline clip-path="url(#clip830)" style="stroke:#000000; stroke-linecap:round; stroke-linejoin:round; stroke-width:4; stroke-opacity:1; fill:none" points="854.74,2645.13 854.74,377.524 "/>
<polyline clip-path="url(#clip830)" style="stroke:#000000; stroke-linecap:round; stroke-linejoin:round; stroke-width:4; stroke-opacity:1; fill:none" points="854.74,2562.02 873.637,2562.02 "/>
<polyline clip-path="url(#clip830)" style="stroke:#000000; stroke-linecap:round; stroke-linejoin:round; stroke-width:4; stroke-opacity:1; fill:none" points="854.74,1965.08 873.637,1965.08 "/>
<polyline clip-path="url(#clip830)" style="stroke:#000000; stroke-linecap:round; stroke-linejoin:round; stroke-width:4; stroke-opacity:1; fill:none" points="854.74,1368.14 873.637,1368.14 "/>
<polyline clip-path="url(#clip830)" style="stroke:#000000; stroke-linecap:round; stroke-linejoin:round; stroke-width:4; stroke-opacity:1; fill:none" points="854.74,771.204 873.637,771.204 "/>
<path clip-path="url(#clip830)" d="M399.929 2499.89 Q384.131 2499.89 376.13 2515.49 Q368.231 2530.98 368.231 2562.18 Q368.231 2593.27 376.13 2608.86 Q384.131 2624.36 399.929 2624.36 Q415.829 2624.36 423.728 2608.86 Q431.729 2593.27 431.729 2562.18 Q431.729 2530.98 423.728 2515.49 Q415.829 2499.89 399.929 2499.89 M399.929 2483.69 Q425.349 2483.69 438.717 2503.84 Q452.186 2523.89 452.186 2562.18 Q452.186 2600.35 438.717 2620.51 Q425.349 2640.56 399.929 2640.56 Q374.51 2640.56 361.04 2620.51 Q347.672 2600.35 347.672 2562.18 Q347.672 2523.89 361.04 2503.84 Q374.51 2483.69 399.929 2483.69 Z" fill="#000000" fill-rule="nonzero" fill-opacity="1" /><path clip-path="url(#clip830)" d="M488.138 2611.9 L509.506 2611.9 L509.506 2637.62 L488.138 2637.62 L488.138 2611.9 Z" fill="#000000" fill-rule="nonzero" fill-opacity="1" /><path clip-path="url(#clip830)" d="M554.674 2634.48 L554.674 2615.85 Q562.37 2619.5 570.27 2621.42 Q578.169 2623.34 585.764 2623.34 Q606.019 2623.34 616.652 2609.77 Q627.387 2596.1 628.906 2568.35 Q623.033 2577.06 614.019 2581.72 Q605.006 2586.38 594.069 2586.38 Q571.384 2586.38 558.117 2572.71 Q544.951 2558.93 544.951 2535.14 Q544.951 2511.84 558.725 2497.77 Q572.498 2483.69 595.385 2483.69 Q621.615 2483.69 635.388 2503.84 Q649.262 2523.89 649.262 2562.18 Q649.262 2597.92 632.248 2619.29 Q615.336 2640.56 586.676 2640.56 Q578.979 2640.56 571.08 2639.04 Q563.181 2637.52 554.674 2634.48 M595.385 2570.38 Q609.158 2570.38 617.159 2560.96 Q625.261 2551.54 625.261 2535.14 Q625.261 2518.83 617.159 2509.41 Q609.158 2499.89 595.385 2499.89 Q581.612 2499.89 573.51 2509.41 Q565.51 2518.83 565.51 2535.14 Q565.51 2551.54 573.51 2560.96 Q581.612 2570.38 595.385 2570.38 Z" fill="#000000" fill-rule="nonzero" fill-opacity="1" /><path clip-path="url(#clip830)" d="M732.306 2553.87 Q718.533 2553.87 710.431 2563.29 Q702.43 2572.71 702.43 2589.11 Q702.43 2605.42 710.431 2614.94 Q718.533 2624.36 732.306 2624.36 Q746.079 2624.36 754.079 2614.94 Q762.181 2605.42 762.181 2589.11 Q762.181 2572.71 754.079 2563.29 Q746.079 2553.87 732.306 2553.87 M772.916 2489.77 L772.916 2508.4 Q765.219 2504.75 757.32 2502.83 Q749.522 2500.91 741.825 2500.91 Q721.571 2500.91 710.836 2514.58 Q700.202 2528.25 698.683 2555.9 Q704.658 2547.09 713.672 2542.43 Q722.685 2537.67 733.521 2537.67 Q756.307 2537.67 769.473 2551.54 Q782.74 2565.31 782.74 2589.11 Q782.74 2612.41 768.966 2626.48 Q755.193 2640.56 732.306 2640.56 Q706.076 2640.56 692.202 2620.51 Q678.327 2600.35 678.327 2562.18 Q678.327 2526.32 695.341 2505.06 Q712.355 2483.69 741.015 2483.69 Q748.712 2483.69 756.51 2485.21 Q764.409 2486.73 772.916 2489.77 Z" fill="#000000" fill-rule="nonzero" fill-opacity="1" /><path clip-path="url(#clip830)" d="M401.043 1902.95 Q385.245 1902.95 377.244 1918.55 Q369.345 1934.04 369.345 1965.24 Q369.345 1996.33 377.244 2011.92 Q385.245 2027.42 401.043 2027.42 Q416.943 2027.42 424.842 2011.92 Q432.843 1996.33 432.843 1965.24 Q432.843 1934.04 424.842 1918.55 Q416.943 1902.95 401.043 1902.95 M401.043 1886.75 Q426.463 1886.75 439.831 1906.9 Q453.3 1926.95 453.3 1965.24 Q453.3 2003.41 439.831 2023.57 Q426.463 2043.62 401.043 2043.62 Q375.624 2043.62 362.154 2023.57 Q348.786 2003.41 348.786 1965.24 Q348.786 1926.95 362.154 1906.9 Q375.624 1886.75 401.043 1886.75 Z" fill="#000000" fill-rule="nonzero" fill-opacity="1" /><path clip-path="url(#clip830)" d="M489.252 2014.96 L510.62 2014.96 L510.62 2040.68 L489.252 2040.68 L489.252 2014.96 Z" fill="#000000" fill-rule="nonzero" fill-opacity="1" /><path clip-path="url(#clip830)" d="M555.788 2037.54 L555.788 2018.91 Q563.484 2022.56 571.384 2024.48 Q579.283 2026.4 586.878 2026.4 Q607.133 2026.4 617.766 2012.83 Q628.501 1999.16 630.02 1971.41 Q624.147 1980.12 615.133 1984.78 Q606.12 1989.44 595.183 1989.44 Q572.498 1989.44 559.231 1975.77 Q546.065 1961.99 546.065 1938.2 Q546.065 1914.9 559.839 1900.83 Q573.612 1886.75 596.499 1886.75 Q622.729 1886.75 636.502 1906.9 Q650.376 1926.95 650.376 1965.24 Q650.376 2000.98 633.362 2022.35 Q616.45 2043.62 587.79 2043.62 Q580.093 2043.62 572.194 2042.1 Q564.295 2040.58 555.788 2037.54 M596.499 1973.44 Q610.272 1973.44 618.273 1964.02 Q626.375 1954.6 626.375 1938.2 Q626.375 1921.89 618.273 1912.47 Q610.272 1902.95 596.499 1902.95 Q582.726 1902.95 574.624 1912.47 Q566.624 1921.89 566.624 1938.2 Q566.624 1954.6 574.624 1964.02 Q582.726 1973.44 596.499 1973.44 Z" fill="#000000" fill-rule="nonzero" fill-opacity="1" /><path clip-path="url(#clip830)" d="M730.888 1968.88 Q716.305 1968.88 707.899 1976.68 Q699.595 1984.48 699.595 1998.15 Q699.595 2011.82 707.899 2019.62 Q716.305 2027.42 730.888 2027.42 Q745.471 2027.42 753.877 2019.62 Q762.282 2011.72 762.282 1998.15 Q762.282 1984.48 753.877 1976.68 Q745.573 1968.88 730.888 1968.88 M710.431 1960.17 Q697.265 1956.93 689.873 1947.92 Q682.581 1938.9 682.581 1925.94 Q682.581 1907.81 695.443 1897.28 Q708.405 1886.75 730.888 1886.75 Q753.472 1886.75 766.333 1897.28 Q779.195 1907.81 779.195 1925.94 Q779.195 1938.9 771.802 1947.92 Q764.51 1956.93 751.446 1960.17 Q766.232 1963.61 774.435 1973.64 Q782.74 1983.67 782.74 1998.15 Q782.74 2020.12 769.27 2031.87 Q755.902 2043.62 730.888 2043.62 Q705.874 2043.62 692.404 2031.87 Q679.036 2020.12 679.036 1998.15 Q679.036 1983.67 687.341 1973.64 Q695.645 1963.61 710.431 1960.17 M702.937 1927.87 Q702.937 1939.61 710.228 1946.2 Q717.621 1952.78 730.888 1952.78 Q744.053 1952.78 751.446 1946.2 Q758.94 1939.61 758.94 1927.87 Q758.94 1916.12 751.446 1909.54 Q744.053 1902.95 730.888 1902.95 Q717.621 1902.95 710.228 1909.54 Q702.937 1916.12 702.937 1927.87 Z" fill="#000000" fill-rule="nonzero" fill-opacity="1" /><path clip-path="url(#clip830)" d="M360.433 1426.53 L393.853 1426.53 L393.853 1311.18 L357.496 1318.47 L357.496 1299.84 L393.65 1292.54 L414.107 1292.54 L414.107 1426.53 L447.527 1426.53 L447.527 1443.74 L360.433 1443.74 L360.433 1426.53 Z" fill="#000000" fill-rule="nonzero" fill-opacity="1" /><path clip-path="url(#clip830)" d="M488.846 1418.02 L510.215 1418.02 L510.215 1443.74 L488.846 1443.74 L488.846 1418.02 Z" fill="#000000" fill-rule="nonzero" fill-opacity="1" /><path clip-path="url(#clip830)" d="M598.525 1306.01 Q582.726 1306.01 574.726 1321.61 Q566.826 1337.1 566.826 1368.3 Q566.826 1399.39 574.726 1414.98 Q582.726 1430.48 598.525 1430.48 Q614.424 1430.48 622.324 1414.98 Q630.324 1399.39 630.324 1368.3 Q630.324 1337.1 622.324 1321.61 Q614.424 1306.01 598.525 1306.01 M598.525 1289.81 Q623.944 1289.81 637.312 1309.96 Q650.781 1330.01 650.781 1368.3 Q650.781 1406.48 637.312 1426.63 Q623.944 1446.68 598.525 1446.68 Q573.105 1446.68 559.636 1426.63 Q546.268 1406.48 546.268 1368.3 Q546.268 1330.01 559.636 1309.96 Q573.105 1289.81 598.525 1289.81 Z" fill="#000000" fill-rule="nonzero" fill-opacity="1" /><path clip-path="url(#clip830)" d="M730.483 1306.01 Q714.684 1306.01 706.684 1321.61 Q698.785 1337.1 698.785 1368.3 Q698.785 1399.39 706.684 1414.98 Q714.684 1430.48 730.483 1430.48 Q746.383 1430.48 754.282 1414.98 Q762.282 1399.39 762.282 1368.3 Q762.282 1337.1 754.282 1321.61 Q746.383 1306.01 730.483 1306.01 M730.483 1289.81 Q755.902 1289.81 769.27 1309.96 Q782.74 1330.01 782.74 1368.3 Q782.74 1406.48 769.27 1426.63 Q755.902 1446.68 730.483 1446.68 Q705.063 1446.68 691.594 1426.63 Q678.226 1406.48 678.226 1368.3 Q678.226 1330.01 691.594 1309.96 Q705.063 1289.81 730.483 1289.81 Z" fill="#000000" fill-rule="nonzero" fill-opacity="1" /><path clip-path="url(#clip830)" d="M367.421 829.587 L400.841 829.587 L400.841 714.238 L364.484 721.529 L364.484 702.895 L400.638 695.604 L421.095 695.604 L421.095 829.587 L454.515 829.587 L454.515 846.804 L367.421 846.804 L367.421 829.587 Z" fill="#000000" fill-rule="nonzero" fill-opacity="1" /><path clip-path="url(#clip830)" d="M495.834 821.08 L517.203 821.08 L517.203 846.804 L495.834 846.804 L495.834 821.08 Z" fill="#000000" fill-rule="nonzero" fill-opacity="1" /><path clip-path="url(#clip830)" d="M605.512 709.073 Q589.714 709.073 581.713 724.669 Q573.814 740.164 573.814 771.355 Q573.814 802.446 581.713 818.042 Q589.714 833.537 605.512 833.537 Q621.412 833.537 629.312 818.042 Q637.312 802.446 637.312 771.355 Q637.312 740.164 629.312 724.669 Q621.412 709.073 605.512 709.073 M605.512 692.869 Q630.932 692.869 644.3 713.022 Q657.769 733.074 657.769 771.355 Q657.769 809.535 644.3 829.688 Q630.932 849.74 605.512 849.74 Q580.093 849.74 566.624 829.688 Q553.256 809.535 553.256 771.355 Q553.256 733.074 566.624 713.022 Q580.093 692.869 605.512 692.869 Z" fill="#000000" fill-rule="nonzero" fill-opacity="1" /><path clip-path="url(#clip830)" d="M711.342 829.587 L782.74 829.587 L782.74 846.804 L686.733 846.804 L686.733 829.587 Q698.379 817.536 718.431 797.281 Q738.585 776.925 743.75 771.052 Q753.573 760.013 757.421 752.417 Q761.371 744.721 761.371 737.328 Q761.371 725.276 752.864 717.681 Q744.459 710.086 730.888 710.086 Q721.267 710.086 710.532 713.428 Q699.899 716.77 687.746 723.555 L687.746 702.895 Q700.101 697.933 710.836 695.401 Q721.571 692.869 730.483 692.869 Q753.978 692.869 767.954 704.617 Q781.929 716.364 781.929 736.011 Q781.929 745.328 778.385 753.734 Q774.942 762.038 765.726 773.381 Q763.194 776.318 749.623 790.395 Q736.053 804.37 711.342 829.587 Z" fill="#000000" fill-rule="nonzero" fill-opacity="1" /><path clip-path="url(#clip830)" d="M99.2657 2137.95 L213.299 2179.47 L213.299 2096.33 L99.2657 2137.95 M230.312 2207.22 L79.1124 2149.5 L79.1124 2126.3 L230.312 2068.68 L230.312 2207.22 Z" fill="#000000" fill-rule="nonzero" fill-opacity="1" /><path clip-path="url(#clip830)" d="M233.249 2011.26 Q233.249 2053.29 173.093 2053.29 Q149.294 2053.29 116.887 2037.59 L116.887 2017.54 Q149.294 2032.02 173.6 2032.02 Q217.451 2032.02 217.451 2009.54 Q217.451 1988.98 162.966 1988.98 L162.966 1971.76 Q217.451 1971.76 217.451 1951.2 Q217.451 1928.72 173.6 1928.72 Q149.294 1928.72 116.887 1943.2 L116.887 1923.15 Q149.294 1907.45 173.093 1907.45 Q233.249 1907.45 233.249 1949.48 Q233.249 1977.03 202.969 1980.37 Q233.249 1984.52 233.249 2011.26 Z" fill="#000000" fill-rule="nonzero" fill-opacity="1" /><path clip-path="url(#clip830)" d="M264.745 1787.55 L279.227 1787.55 L279.227 1895.3 L264.745 1895.3 L264.745 1787.55 Z" fill="#000000" fill-rule="nonzero" fill-opacity="1" /><path clip-path="url(#clip830)" d="M90.7588 1655.99 L112.33 1655.99 Q102.709 1666.32 97.9491 1678.07 Q93.1893 1689.72 93.1893 1702.88 Q93.1893 1728.81 109.089 1742.58 Q124.888 1756.36 154.864 1756.36 Q184.74 1756.36 200.64 1742.58 Q216.438 1728.81 216.438 1702.88 Q216.438 1689.72 211.678 1678.07 Q206.918 1666.32 197.298 1655.99 L218.666 1655.99 Q225.958 1666.73 229.604 1678.78 Q233.249 1690.73 233.249 1704.1 Q233.249 1738.43 212.286 1758.18 Q191.221 1777.93 154.864 1777.93 Q118.406 1777.93 97.4428 1758.18 Q76.3781 1738.43 76.3781 1704.1 Q76.3781 1690.53 80.0239 1678.58 Q83.5684 1666.53 90.7588 1655.99 Z" fill="#000000" fill-rule="nonzero" fill-opacity="1" /><path clip-path="url(#clip830)" d="M92.9868 1563.03 Q92.9868 1585.31 109.595 1598.47 Q126.204 1611.54 154.864 1611.54 Q183.423 1611.54 200.032 1598.47 Q216.641 1585.31 216.641 1563.03 Q216.641 1540.75 200.032 1527.78 Q183.423 1514.72 154.864 1514.72 Q126.204 1514.72 109.595 1527.78 Q92.9868 1540.75 92.9868 1563.03 M76.3781 1563.03 Q76.3781 1531.23 97.7466 1512.19 Q119.014 1493.15 154.864 1493.15 Q190.614 1493.15 211.982 1512.19 Q233.249 1531.23 233.249 1563.03 Q233.249 1594.93 211.982 1614.07 Q190.715 1633.11 154.864 1633.11 Q119.014 1633.11 97.7466 1614.07 Q76.3781 1594.93 76.3781 1563.03 Z" fill="#000000" fill-rule="nonzero" fill-opacity="1" /><path clip-path="url(#clip830)" d="M79.1124 1461.15 L79.1124 1440.69 L230.312 1440.69 L230.312 1461.15 L79.1124 1461.15 Z" fill="#000000" fill-rule="nonzero" fill-opacity="1" /><path clip-path="url(#clip830)" d="M72.9348 1290.1 Q96.2275 1303.67 119.014 1310.25 Q141.8 1316.83 165.194 1316.83 Q188.588 1316.83 211.577 1310.25 Q234.465 1303.57 257.656 1290.1 L257.656 1306.3 Q233.857 1321.49 210.868 1329.09 Q187.879 1336.58 165.194 1336.58 Q142.61 1336.58 119.723 1329.09 Q96.8351 1321.59 72.9348 1306.3 L72.9348 1290.1 Z" fill="#000000" fill-rule="nonzero" fill-opacity="1" /><path clip-path="url(#clip830)" d="M213.299 1235.92 L273.455 1235.92 L273.455 1254.65 L116.887 1254.65 L116.887 1235.92 L134.103 1235.92 Q123.976 1230.04 119.115 1221.13 Q114.153 1212.12 114.153 1199.66 Q114.153 1179 130.559 1166.14 Q146.965 1153.18 173.701 1153.18 Q200.437 1153.18 216.843 1166.14 Q233.249 1179 233.249 1199.66 Q233.249 1212.12 228.388 1221.13 Q223.426 1230.04 213.299 1235.92 M173.701 1172.52 Q153.143 1172.52 141.496 1181.03 Q129.749 1189.43 129.749 1204.22 Q129.749 1219 141.496 1227.51 Q153.143 1235.92 173.701 1235.92 Q194.259 1235.92 206.007 1227.51 Q217.653 1219 217.653 1204.22 Q217.653 1189.43 206.007 1181.03 Q194.259 1172.52 173.701 1172.52 Z" fill="#000000" fill-rule="nonzero" fill-opacity="1" /><path clip-path="url(#clip830)" d="M204.589 1119.65 L204.589 1098.29 L230.312 1098.29 L230.312 1119.65 L204.589 1119.65 Z" fill="#000000" fill-rule="nonzero" fill-opacity="1" /><path clip-path="url(#clip830)" d="M185.55 1058.28 L116.887 1058.28 L116.887 1039.65 L184.841 1039.65 Q200.943 1039.65 209.045 1033.37 Q217.046 1027.09 217.046 1014.53 Q217.046 999.444 207.425 990.734 Q197.804 981.923 181.195 981.923 L116.887 981.923 L116.887 963.289 L230.312 963.289 L230.312 981.923 L212.894 981.923 Q223.223 988.709 228.287 997.722 Q233.249 1006.63 233.249 1018.48 Q233.249 1038.03 221.097 1048.16 Q208.944 1058.28 185.55 1058.28 M114.153 1011.39 L114.153 1011.39 Z" fill="#000000" fill-rule="nonzero" fill-opacity="1" /><path clip-path="url(#clip830)" d="M204.589 922.274 L204.589 900.905 L230.312 900.905 L230.312 922.274 L204.589 922.274 Z" fill="#000000" fill-rule="nonzero" fill-opacity="1" /><path clip-path="url(#clip830)" d="M72.9348 861.915 L72.9348 845.712 Q96.8351 830.521 119.723 823.027 Q142.61 815.431 165.194 815.431 Q187.879 815.431 210.868 823.027 Q233.857 830.521 257.656 845.712 L257.656 861.915 Q234.465 848.446 211.577 841.863 Q188.588 835.179 165.194 835.179 Q141.8 835.179 119.014 841.863 Q96.2275 848.446 72.9348 861.915 Z" fill="#000000" fill-rule="nonzero" fill-opacity="1" /><path clip-path="url(#clip830)" d="M1541.57 126.342 Q1549.09 128.888 1556.15 137.221 Q1563.33 145.555 1570.5 160.138 L1594.23 207.36 L1569.11 207.36 L1547.01 163.032 Q1538.44 145.671 1530.34 139.999 Q1522.36 134.328 1508.47 134.328 L1483 134.328 L1483 207.36 L1459.62 207.36 L1459.62 34.56 L1512.4 34.56 Q1542.03 34.56 1556.61 46.9442 Q1571.2 59.3284 1571.2 84.3283 Q1571.2 100.648 1563.56 111.411 Q1556.04 122.175 1541.57 126.342 M1483 53.7729 L1483 115.115 L1512.4 115.115 Q1529.3 115.115 1537.86 107.361 Q1546.55 99.4902 1546.55 84.3283 Q1546.55 69.1663 1537.86 61.5274 Q1529.3 53.7729 1512.4 53.7729 L1483 53.7729 Z" fill="#000000" fill-rule="nonzero" fill-opacity="1" /><path clip-path="url(#clip830)" d="M1662.98 92.6615 Q1645.85 92.6615 1635.9 106.087 Q1625.94 119.398 1625.94 142.661 Q1625.94 165.925 1635.78 179.351 Q1645.73 192.661 1662.98 192.661 Q1679.99 192.661 1689.95 179.235 Q1699.9 165.809 1699.9 142.661 Q1699.9 119.629 1689.95 106.203 Q1679.99 92.6615 1662.98 92.6615 M1662.98 74.6061 Q1690.76 74.6061 1706.61 92.6615 Q1722.47 110.717 1722.47 142.661 Q1722.47 174.49 1706.61 192.661 Q1690.76 210.716 1662.98 210.716 Q1635.09 210.716 1619.23 192.661 Q1603.49 174.49 1603.49 142.661 Q1603.49 110.717 1619.23 92.6615 Q1635.09 74.6061 1662.98 74.6061 Z" fill="#000000" fill-rule="nonzero" fill-opacity="1" /><path clip-path="url(#clip830)" d="M1778.84 40.9257 L1778.84 77.7311 L1822.7 77.7311 L1822.7 94.2819 L1778.84 94.2819 L1778.84 164.652 Q1778.84 180.508 1783.12 185.022 Q1787.52 189.536 1800.83 189.536 L1822.7 189.536 L1822.7 207.36 L1800.83 207.36 Q1776.17 207.36 1766.8 198.217 Q1757.42 188.957 1757.42 164.652 L1757.42 94.2819 L1741.8 94.2819 L1741.8 77.7311 L1757.42 77.7311 L1757.42 40.9257 L1778.84 40.9257 Z" fill="#000000" fill-rule="nonzero" fill-opacity="1" /><path clip-path="url(#clip830)" d="M1900.94 92.6615 Q1883.81 92.6615 1873.86 106.087 Q1863.9 119.398 1863.9 142.661 Q1863.9 165.925 1873.74 179.351 Q1883.7 192.661 1900.94 192.661 Q1917.96 192.661 1927.91 179.235 Q1937.86 165.809 1937.86 142.661 Q1937.86 119.629 1927.91 106.203 Q1917.96 92.6615 1900.94 92.6615 M1900.94 74.6061 Q1928.72 74.6061 1944.58 92.6615 Q1960.43 110.717 1960.43 142.661 Q1960.43 174.49 1944.58 192.661 Q1928.72 210.716 1900.94 210.716 Q1873.05 210.716 1857.19 192.661 Q1841.45 174.49 1841.45 142.661 Q1841.45 110.717 1857.19 92.6615 Q1873.05 74.6061 1900.94 74.6061 Z" fill="#000000" fill-rule="nonzero" fill-opacity="1" /><path clip-path="url(#clip830)" d="M2070.85 97.6384 Q2067.26 95.555 2062.98 94.6291 Q2058.81 93.5875 2053.72 93.5875 Q2035.66 93.5875 2025.94 105.393 Q2016.33 117.083 2016.33 139.073 L2016.33 207.36 L1994.92 207.36 L1994.92 77.7311 L2016.33 77.7311 L2016.33 97.8698 Q2023.05 86.0644 2033.81 80.3931 Q2044.58 74.6061 2059.97 74.6061 Q2062.17 74.6061 2064.83 74.9533 Q2067.49 75.1848 2070.73 75.7635 L2070.85 97.6384 Z" fill="#000000" fill-rule="nonzero" fill-opacity="1" /><path clip-path="url(#clip830)" d="M2273.05 40.2313 L2273.05 63.0321 Q2259.74 56.6664 2247.93 53.5414 Q2236.12 50.4164 2225.13 50.4164 Q2206.03 50.4164 2195.62 57.8238 Q2185.32 65.2311 2185.32 78.8885 Q2185.32 90.3467 2192.14 96.2495 Q2199.09 102.036 2218.3 105.624 L2232.42 108.518 Q2258.58 113.495 2270.96 126.11 Q2283.46 138.61 2283.46 159.675 Q2283.46 184.791 2266.56 197.754 Q2249.78 210.716 2217.26 210.716 Q2204.99 210.716 2191.1 207.939 Q2177.33 205.161 2162.51 199.721 L2162.51 175.647 Q2176.75 183.633 2190.41 187.684 Q2204.06 191.735 2217.26 191.735 Q2237.28 191.735 2248.16 183.865 Q2259.04 175.994 2259.04 161.411 Q2259.04 148.68 2251.17 141.504 Q2243.42 134.328 2225.59 130.74 L2211.36 127.962 Q2185.2 122.754 2173.51 111.643 Q2161.82 100.532 2161.82 80.7403 Q2161.82 57.8238 2177.91 44.6294 Q2194.11 31.435 2222.47 31.435 Q2234.62 31.435 2247.24 33.6341 Q2259.85 35.8331 2273.05 40.2313 Z" fill="#000000" fill-rule="nonzero" fill-opacity="1" /><path clip-path="url(#clip830)" d="M2339.6 187.916 L2339.6 256.665 L2318.18 256.665 L2318.18 77.7311 L2339.6 77.7311 L2339.6 97.4069 Q2346.31 85.8329 2356.49 80.2773 Q2366.8 74.6061 2381.03 74.6061 Q2404.64 74.6061 2419.34 93.356 Q2434.16 112.106 2434.16 142.661 Q2434.16 173.217 2419.34 191.967 Q2404.64 210.716 2381.03 210.716 Q2366.8 210.716 2356.49 205.161 Q2346.31 199.49 2339.6 187.916 M2412.05 142.661 Q2412.05 119.166 2402.33 105.856 Q2392.72 92.4301 2375.82 92.4301 Q2358.93 92.4301 2349.2 105.856 Q2339.6 119.166 2339.6 142.661 Q2339.6 166.157 2349.2 179.582 Q2358.93 192.892 2375.82 192.892 Q2392.72 192.892 2402.33 179.582 Q2412.05 166.157 2412.05 142.661 Z" fill="#000000" fill-rule="nonzero" fill-opacity="1" /><path clip-path="url(#clip830)" d="M2580.34 137.221 L2580.34 147.638 L2482.42 147.638 Q2483.81 169.629 2495.61 181.203 Q2507.54 192.661 2528.72 192.661 Q2540.98 192.661 2552.44 189.652 Q2564.02 186.643 2575.36 180.624 L2575.36 200.763 Q2563.9 205.624 2551.86 208.17 Q2539.83 210.716 2527.44 210.716 Q2496.42 210.716 2478.25 192.661 Q2460.2 174.606 2460.2 143.819 Q2460.2 111.99 2477.33 93.356 Q2494.57 74.6061 2523.74 74.6061 Q2549.9 74.6061 2565.06 91.5041 Q2580.34 108.286 2580.34 137.221 M2559.04 130.972 Q2558.81 113.495 2549.2 103.078 Q2539.71 92.6615 2523.97 92.6615 Q2506.15 92.6615 2495.38 102.731 Q2484.73 112.8 2483.11 131.087 L2559.04 130.972 Z" fill="#000000" fill-rule="nonzero" fill-opacity="1" /><path clip-path="url(#clip830)" d="M2726.17 137.221 L2726.17 147.638 L2628.25 147.638 Q2629.64 169.629 2641.45 181.203 Q2653.37 192.661 2674.55 192.661 Q2686.82 192.661 2698.28 189.652 Q2709.85 186.643 2721.19 180.624 L2721.19 200.763 Q2709.73 205.624 2697.7 208.17 Q2685.66 210.716 2673.28 210.716 Q2642.26 210.716 2624.09 192.661 Q2606.03 174.606 2606.03 143.819 Q2606.03 111.99 2623.16 93.356 Q2640.41 74.6061 2669.57 74.6061 Q2695.73 74.6061 2710.89 91.5041 Q2726.17 108.286 2726.17 137.221 M2704.87 130.972 Q2704.64 113.495 2695.03 103.078 Q2685.54 92.6615 2669.8 92.6615 Q2651.98 92.6615 2641.22 102.731 Q2630.57 112.8 2628.95 131.087 L2704.87 130.972 Z" fill="#000000" fill-rule="nonzero" fill-opacity="1" /><path clip-path="url(#clip830)" d="M2846.42 97.4069 L2846.42 27.2684 L2867.72 27.2684 L2867.72 207.36 L2846.42 207.36 L2846.42 187.916 Q2839.71 199.49 2829.41 205.161 Q2819.22 210.716 2804.87 210.716 Q2781.38 210.716 2766.56 191.967 Q2751.86 173.217 2751.86 142.661 Q2751.86 112.106 2766.56 93.356 Q2781.38 74.6061 2804.87 74.6061 Q2819.22 74.6061 2829.41 80.2773 Q2839.71 85.8329 2846.42 97.4069 M2773.85 142.661 Q2773.85 166.157 2783.46 179.582 Q2793.18 192.892 2810.08 192.892 Q2826.98 192.892 2836.7 179.582 Q2846.42 166.157 2846.42 142.661 Q2846.42 119.166 2836.7 105.856 Q2826.98 92.4301 2810.08 92.4301 Q2793.18 92.4301 2783.46 105.856 Q2773.85 119.166 2773.85 142.661 Z" fill="#000000" fill-rule="nonzero" fill-opacity="1" /><path clip-path="url(#clip830)" d="M3038.09 27.4999 Q3022.58 54.1201 3015.06 80.1616 Q3007.53 106.203 3007.53 132.939 Q3007.53 159.675 3015.06 185.948 Q3022.69 212.105 3038.09 238.61 L3019.57 238.61 Q3002.21 211.411 2993.53 185.138 Q2984.96 158.865 2984.96 132.939 Q2984.96 107.129 2993.53 80.9718 Q3002.09 54.8145 3019.57 27.4999 L3038.09 27.4999 Z" fill="#000000" fill-rule="nonzero" fill-opacity="1" /><path clip-path="url(#clip830)" d="M3154.52 97.6384 Q3150.93 95.555 3146.65 94.6291 Q3142.49 93.5875 3137.39 93.5875 Q3119.34 93.5875 3109.62 105.393 Q3100.01 117.083 3100.01 139.073 L3100.01 207.36 L3078.6 207.36 L3078.6 77.7311 L3100.01 77.7311 L3100.01 97.8698 Q3106.72 86.0644 3117.49 80.3931 Q3128.25 74.6061 3143.64 74.6061 Q3145.84 74.6061 3148.5 74.9533 Q3151.17 75.1848 3154.41 75.7635 L3154.52 97.6384 Z" fill="#000000" fill-rule="nonzero" fill-opacity="1" /><path clip-path="url(#clip830)" d="M3282.53 137.221 L3282.53 147.638 L3184.62 147.638 Q3186 169.629 3197.81 181.203 Q3209.73 192.661 3230.91 192.661 Q3243.18 192.661 3254.64 189.652 Q3266.21 186.643 3277.55 180.624 L3277.55 200.763 Q3266.1 205.624 3254.06 208.17 Q3242.02 210.716 3229.64 210.716 Q3198.62 210.716 3180.45 192.661 Q3162.39 174.606 3162.39 143.819 Q3162.39 111.99 3179.52 93.356 Q3196.77 74.6061 3225.93 74.6061 Q3252.09 74.6061 3267.25 91.5041 Q3282.53 108.286 3282.53 137.221 M3261.24 130.972 Q3261 113.495 3251.4 103.078 Q3241.91 92.6615 3226.17 92.6615 Q3208.34 92.6615 3197.58 102.731 Q3186.93 112.8 3185.31 131.087 L3261.24 130.972 Z" fill="#000000" fill-rule="nonzero" fill-opacity="1" /><path clip-path="url(#clip830)" d="M3383.11 27.2684 L3383.11 44.9766 L3362.74 44.9766 Q3351.28 44.9766 3346.77 49.6062 Q3342.37 54.2358 3342.37 66.2728 L3342.37 77.7311 L3377.44 77.7311 L3377.44 94.2819 L3342.37 94.2819 L3342.37 207.36 L3320.96 207.36 L3320.96 94.2819 L3300.59 94.2819 L3300.59 77.7311 L3320.96 77.7311 L3320.96 68.7033 Q3320.96 47.0599 3331.03 37.222 Q3341.1 27.2684 3362.97 27.2684 L3383.11 27.2684 Z" fill="#000000" fill-rule="nonzero" fill-opacity="1" /><path clip-path="url(#clip830)" d="M3386.7 177.962 L3411.12 177.962 L3411.12 207.36 L3386.7 207.36 L3386.7 177.962 Z" fill="#000000" fill-rule="nonzero" fill-opacity="1" /><path clip-path="url(#clip830)" d="M3664.71 47.8701 L3664.71 72.5228 Q3652.9 61.5274 3639.47 56.0877 Q3626.16 50.6479 3611.12 50.6479 Q3581.49 50.6479 3565.75 68.8191 Q3550.01 86.8745 3550.01 121.134 Q3550.01 155.277 3565.75 173.448 Q3581.49 191.504 3611.12 191.504 Q3626.16 191.504 3639.47 186.064 Q3652.9 180.624 3664.71 169.629 L3664.71 194.05 Q3652.44 202.383 3638.66 206.55 Q3625.01 210.716 3609.73 210.716 Q3570.49 210.716 3547.92 186.758 Q3525.35 162.684 3525.35 121.134 Q3525.35 79.4672 3547.92 55.509 Q3570.49 31.435 3609.73 31.435 Q3625.24 31.435 3638.9 35.6017 Q3652.67 39.6526 3664.71 47.8701 Z" fill="#000000" fill-rule="nonzero" fill-opacity="1" /><path clip-path="url(#clip830)" d="M3770.95 50.4164 Q3745.49 50.4164 3730.45 69.3978 Q3715.52 88.3792 3715.52 121.134 Q3715.52 153.772 3730.45 172.754 Q3745.49 191.735 3770.95 191.735 Q3796.42 191.735 3811.23 172.754 Q3826.16 153.772 3826.16 121.134 Q3826.16 88.3792 3811.23 69.3978 Q3796.42 50.4164 3770.95 50.4164 M3770.95 31.435 Q3807.3 31.435 3829.06 55.8562 Q3850.82 80.1616 3850.82 121.134 Q3850.82 161.99 3829.06 186.411 Q3807.3 210.716 3770.95 210.716 Q3734.5 210.716 3712.62 186.411 Q3690.86 162.106 3690.86 121.134 Q3690.86 80.1616 3712.62 55.8562 Q3734.5 31.435 3770.95 31.435 Z" fill="#000000" fill-rule="nonzero" fill-opacity="1" /><path clip-path="url(#clip830)" d="M3887.39 34.56 L3910.77 34.56 L3910.77 207.36 L3887.39 207.36 L3887.39 34.56 Z" fill="#000000" fill-rule="nonzero" fill-opacity="1" /><path clip-path="url(#clip830)" d="M3953.01 27.4999 L3971.53 27.4999 Q3988.89 54.8145 3997.46 80.9718 Q4006.14 107.129 4006.14 132.939 Q4006.14 158.865 3997.46 185.138 Q3988.89 211.411 3971.53 238.61 L3953.01 238.61 Q3968.41 212.105 3975.93 185.948 Q3983.57 159.675 3983.57 132.939 Q3983.57 106.203 3975.93 80.1616 Q3968.41 54.1201 3953.01 27.4999 Z" fill="#000000" fill-rule="nonzero" fill-opacity="1" /><polyline clip-path="url(#clip832)" style="stroke:#009af9; stroke-linecap:round; stroke-linejoin:round; stroke-width:12; stroke-opacity:1; fill:none" points="961.049,1372.01 968.151,1379.72 975.253,1387.41 982.354,1395.05 989.456,1402.62 996.557,1410.11 1003.66,1417.5 1010.76,1424.77 1017.86,1431.9 1024.96,1438.89 1032.06,1445.71 1039.17,1452.35 1046.27,1458.81 1053.37,1465.07 1060.47,1471.12 1067.57,1476.97 1074.67,1482.6 1081.78,1488.02 1088.88,1493.23 1095.98,1498.22 1103.08,1503.02 1110.18,1507.61 1117.28,1512.02 1124.38,1516.25 1131.49,1520.32 1138.59,1524.23 1145.69,1528.02 1152.79,1531.69 1159.89,1535.26 1166.99,1538.75 1174.1,1542.18 1174.1,1539.24 1181.2,1529.89 1188.3,1520.44 1195.4,1510.91 1202.5,1501.34 1209.6,1491.73 1216.7,1482.09 1223.81,1472.44 1230.91,1462.79 1238.01,1453.14 1245.11,1443.49 1252.21,1433.87 1259.31,1424.27 1266.42,1414.71 1273.52,1405.2 1280.62,1395.76 1287.72,1386.4 1294.82,1377.14 1301.92,1367.99 1309.02,1358.96 1316.13,1350.07 1323.23,1341.32 1330.33,1332.73 1337.43,1324.3 1344.53,1316.02 1351.63,1307.91 1358.74,1299.95 1365.84,1292.13 1372.94,1284.45 1380.04,1276.9 1387.14,1269.46 1394.24,1262.12 1401.34,1254.85 1408.45,1247.66 1415.55,1240.52 1422.65,1233.43 1429.75,1226.38 1436.85,1219.38 1443.95,1212.43 1451.06,1205.55 1458.16,1198.75 1465.26,1192.08 1472.36,1185.57 1479.46,1179.27 1486.56,1173.24 1493.66,1167.55 1500.77,1162.26 1507.87,1157.46 1514.97,1153.2 1522.07,1149.57 1529.17,1146.64 1536.27,1144.47 1543.38,1143.1 1550.48,1142.59 1557.58,1142.98 1564.68,1144.27 1571.78,1146.5 1578.88,1149.67 1585.98,1153.76 1593.09,1158.77 1600.19,1164.68 1607.29,1171.46 1614.39,1179.06 1621.49,1187.46 1628.59,1196.62 1635.69,1206.48 1642.8,1216.99 1649.9,1228.1 1657,1239.76 1664.1,1251.92 1671.2,1264.51 1678.3,1277.49 1685.41,1290.81 1692.51,1304.41 1699.61,1318.24 1706.71,1332.27 1713.81,1346.45 1720.91,1360.74 1728.01,1375.1 1735.12,1389.5 1742.22,1403.89 1749.32,1418.25 1756.42,1432.52 1763.52,1446.68 1770.62,1460.66 1777.73,1474.43 1784.83,1487.92 1791.93,1501.07 1799.03,1513.82 1806.13,1526.08 1813.23,1537.79 1820.33,1548.85 1827.44,1559.19 1834.54,1568.71 1841.64,1577.35 1848.74,1585.02 1855.84,1591.66 1862.94,1597.23 1870.05,1601.67 1877.15,1604.96 1884.25,1607.1 1891.35,1608.1 1898.45,1607.97 1905.55,1606.76 1912.65,1604.5 1919.76,1601.27 1926.86,1597.13 1933.96,1592.14 1941.06,1586.4 1948.16,1579.96 1955.26,1572.92 1962.37,1565.34 1969.47,1557.31 1976.57,1548.9 1983.67,1540.18 1990.77,1531.2 1997.87,1522.04 2004.97,1512.74 2012.08,1503.36 2019.18,1493.94 2026.28,1484.53 2033.38,1475.15 2040.48,1465.84 2047.58,1456.62 2054.69,1447.49 2061.79,1438.49 2068.89,1429.6 2075.99,1420.83 2083.09,1412.18 2090.19,1403.63 2097.29,1395.19 2104.4,1386.82 2111.5,1378.52 2118.6,1370.27 2125.7,1362.04 2132.8,1353.82 2139.9,1345.59 2147.01,1337.32 2154.11,1328.99 2161.21,1320.59 2168.31,1312.11 2175.41,1303.53 2182.51,1294.85 2189.61,1286.06 2196.72,1277.17 2203.82,1268.17 2210.92,1259.1 2218.02,1249.95 2225.12,1240.77 2232.22,1231.58 2239.33,1222.42 2246.43,1213.34 2253.53,1204.39 2260.63,1195.62 2267.73,1187.1 2274.83,1178.89 2281.93,1171.06 2289.04,1163.69 2296.14,1156.85 2303.24,1150.62 2310.34,1145.07 2317.44,1140.29 2324.54,1136.33 2331.65,1133.28 2338.75,1131.19 2345.85,1130.11 2352.95,1130.09 2360.05,1131.17 2367.15,1133.36 2374.25,1136.68 2381.36,1141.1 2388.46,1146.62 2395.56,1153.2 2402.66,1160.79 2409.76,1169.32 2416.86,1178.73 2423.96,1188.96 2431.07,1199.9 2438.17,1211.5 2445.27,1223.66 2452.37,1236.32 2459.47,1249.4 2466.57,1262.83 2473.68,1276.54 2480.78,1290.49 2487.88,1304.62 2494.98,1318.89 2502.08,1333.24 2509.18,1347.65 2516.28,1362.07 2523.39,1376.47 2530.49,1390.81 2537.59,1405.05 2544.69,1419.15 2551.79,1433.08 2558.89,1446.77 2566,1460.2 2573.1,1473.3 2580.2,1486.02 2587.3,1498.3 2594.4,1510.1 2601.5,1521.34 2608.6,1531.97 2615.71,1541.94 2622.81,1551.19 2629.91,1559.67 2637.01,1567.34 2644.11,1574.14 2651.21,1580.05 2658.32,1585.04 2665.42,1589.09 2672.52,1592.17 2679.62,1594.3 2686.72,1595.47 2693.82,1595.7 2700.92,1595.02 2708.03,1593.45 2715.13,1591.06 2722.23,1587.88 2729.33,1583.99 2736.43,1579.44 2743.53,1574.32 2750.64,1568.7 2757.74,1562.64 2764.84,1556.23 2771.94,1549.54 2779.04,1542.62 2786.14,1535.52 2793.24,1528.3 2800.35,1521 2807.45,1513.63 2814.55,1506.23 2821.65,1498.81 2828.75,1491.37 2835.85,1483.92 2842.96,1476.44 2850.06,1468.93 2857.16,1461.38 2864.26,1453.77 2871.36,1446.09 2878.46,1438.32 2885.56,1430.45 2892.67,1422.47 2899.77,1414.36 2906.87,1406.11 2913.97,1397.72 2921.07,1389.18 2928.17,1380.49 2935.28,1371.66 2942.38,1362.68 2949.48,1353.57 2956.58,1344.33 2963.68,1334.97 2970.78,1325.51 2977.88,1315.96 2984.99,1306.33 2992.09,1296.63 2999.19,1286.89 3006.29,1277.11 3013.39,1267.31 3020.49,1257.51 3027.6,1247.71 3034.7,1237.94 3041.8,1228.22 3048.9,1218.56 3056,1208.99 3063.1,1199.54 3070.2,1190.26 3077.31,1181.2 3084.41,1172.4 3091.51,1163.95 3098.61,1155.92 3105.71,1148.41 3112.81,1141.52 3119.92,1135.36 3127.02,1130.04 3134.12,1125.68 3141.22,1122.4 3148.32,1120.28 3155.42,1119.41 3162.52,1119.84 3169.63,1121.62 3176.73,1124.74 3183.83,1129.18 3190.93,1134.89 3198.03,1141.81 3205.13,1149.85 3212.23,1158.89 3219.34,1168.85 3226.44,1179.6 3233.54,1191.05 3240.64,1203.08 3247.74,1215.61 3254.84,1228.55 3261.95,1241.82 3269.05,1255.36 3276.15,1269.09 3283.25,1282.97 3290.35,1296.95 3297.45,1310.99 3304.55,1325.03 3311.66,1339.05 3318.76,1353.01 3325.86,1366.86 3332.96,1380.58 3340.06,1394.12 3347.16,1407.44 3354.27,1420.52 3361.37,1433.31 3368.47,1445.77 3375.57,1457.88 3382.67,1469.59 3389.77,1480.87 3396.87,1491.69 3403.98,1502.02 3411.08,1511.83 3418.18,1521.08 3425.28,1529.75 3432.38,1537.81 3439.48,1545.22 3446.59,1551.96 3453.69,1557.99 3460.79,1563.29 3467.89,1567.83 3474.99,1571.59 3482.09,1574.57 3489.19,1576.76 3496.3,1578.18 3503.4,1578.85 3510.5,1578.82 3517.6,1578.13 3524.7,1576.85 3531.8,1575.04 3538.91,1572.79 3546.01,1570.18 3553.11,1567.25 3560.21,1564.09 3567.31,1560.74 3574.41,1557.24 3581.51,1553.61 3588.62,1549.86 3595.72,1546 3602.82,1542.01 3609.92,1537.86 3617.02,1533.54 3624.12,1529.02 3631.23,1524.25 3638.33,1519.22 3645.43,1513.88 3652.53,1508.22 3659.63,1502.21 3666.73,1495.84 3673.83,1489.11 3680.94,1482.02 3688.04,1474.58 3695.14,1466.82 3702.24,1458.76 3709.34,1450.45 3716.44,1441.93 3723.55,1433.25 3730.65,1424.45 3737.75,1415.6 3744.85,1406.74 3751.95,1397.93 3759.05,1389.22 3766.15,1380.63 3773.26,1372.21 3780.36,1363.98 3787.46,1355.96 3794.56,1348.15 3801.66,1340.56 3808.76,1333.17 3815.87,1325.98 3822.97,1318.94 3830.07,1312.04 3837.17,1305.24 3844.27,1298.49 3851.37,1291.76 3858.47,1285 3865.58,1278.16 3872.68,1271.19 3879.78,1264.05 3886.88,1256.7 3893.98,1249.1 3901.08,1241.23 3908.19,1233.07 3915.29,1224.61 3922.39,1215.88 3929.49,1206.91 3936.59,1197.76 3943.69,1188.52 3950.79,1179.31 3957.9,1170.28 3965,1161.58 3972.1,1153.43 3979.2,1146 3986.3,1139.5 3993.4,1134.12 4000.5,1130.01 4007.61,1127.3 4014.71,1126.06 4021.81,1126.32 4028.91,1128.08 4036.01,1131.28 4043.11,1135.82 4050.22,1141.6 4057.32,1148.49 4064.42,1156.36 4071.52,1165.07 4078.62,1174.51 4085.72,1184.56 4092.82,1195.1 4099.93,1206.05 4107.03,1217.31 4114.13,1228.81 4121.23,1240.48 4128.33,1252.25 4135.43,1264.07 4142.54,1275.91 4149.64,1287.72 4156.74,1299.46 4163.84,1311.11 4170.94,1322.65 4178.04,1334.05 4185.14,1345.28 4192.25,1356.34 4199.35,1367.2 4206.45,1377.84 4213.55,1388.26 4220.65,1398.44 4227.75,1408.36 4234.86,1418.03 4241.96,1427.43 4249.06,1436.56 4256.16,1445.42 4263.26,1453.98 4270.36,1462.26 4277.46,1470.23 4284.57,1477.88 4291.67,1485.18 4298.77,1492.12 4305.87,1498.66 4312.97,1504.77 4320.07,1510.43 4327.18,1515.6 4334.28,1520.27 4341.38,1524.43 4348.48,1528.08 4355.58,1531.24 4362.68,1533.96 4369.78,1536.28 4376.89,1538.29 4383.99,1540.05 4391.09,1541.64 4398.19,1543.14 4405.29,1544.61 4412.39,1546.08 4419.5,1547.58 4426.6,1549.11 4433.7,1550.64 4440.8,1552.13 4447.9,1553.53 4455,1554.77 4462.1,1555.77 4469.21,1556.45 4476.31,1556.71 4483.41,1556.46 4490.51,1555.62 4497.61,1554.1 4504.71,1551.84 "/>
<polyline clip-path="url(#clip832)" style="stroke:#e26f46; stroke-linecap:round; stroke-linejoin:round; stroke-width:12; stroke-opacity:1; fill:none" points="961.049,1360.81 968.151,1346.14 975.253,1331.48 982.354,1316.81 989.456,1302.15 996.557,1287.49 1003.66,1272.83 1010.76,1258.17 1017.86,1243.52 1024.96,1228.87 1032.06,1214.24 1039.17,1199.61 1046.27,1185 1053.37,1170.41 1060.47,1155.83 1067.57,1141.29 1074.67,1126.76 1081.78,1112.27 1088.88,1097.82 1095.98,1083.41 1103.08,1069.04 1110.18,1054.72 1117.28,1040.45 1124.38,1026.24 1131.49,1012.09 1138.59,997.999 1145.69,983.976 1152.79,970.022 1159.89,956.14 1166.99,942.33 1174.1,928.596 1174.1,923.232 1181.2,926.603 1188.3,930.837 1195.4,936.049 1202.5,942.353 1209.6,949.858 1216.7,958.668 1223.81,968.883 1230.91,980.592 1238.01,993.876 1245.11,1008.8 1252.21,1025.41 1259.31,1043.75 1266.42,1063.82 1273.52,1085.61 1280.62,1109.11 1287.72,1134.25 1294.82,1160.98 1301.92,1189.21 1309.02,1218.84 1316.13,1249.79 1323.23,1281.93 1330.33,1315.16 1337.43,1349.36 1344.53,1384.45 1351.63,1420.3 1358.74,1456.83 1365.84,1493.94 1372.94,1531.54 1380.04,1569.56 1387.14,1607.89 1394.24,1646.44 1401.34,1685.11 1408.45,1723.78 1415.55,1762.3 1422.65,1800.5 1429.75,1838.2 1436.85,1875.17 1443.95,1911.16 1451.06,1945.87 1458.16,1978.99 1465.26,2010.18 1472.36,2039.08 1479.46,2065.33 1486.56,2088.56 1493.66,2108.43 1500.77,2124.64 1507.87,2136.9 1514.97,2145.02 1522.07,2148.83 1529.17,2148.25 1536.27,2143.29 1543.38,2133.99 1550.48,2120.48 1557.58,2102.96 1564.68,2081.66 1571.78,2056.86 1578.88,2028.88 1585.98,1998.06 1593.09,1964.75 1600.19,1929.31 1607.29,1892.09 1614.39,1853.45 1621.49,1813.72 1628.59,1773.25 1635.69,1732.33 1642.8,1691.25 1649.9,1650.28 1657,1609.66 1664.1,1569.61 1671.2,1530.32 1678.3,1491.94 1685.41,1454.6 1692.51,1418.42 1699.61,1383.45 1706.71,1349.76 1713.81,1317.35 1720.91,1286.22 1728.01,1256.35 1735.12,1227.69 1742.22,1200.18 1749.32,1173.74 1756.42,1148.3 1763.52,1123.75 1770.62,1100.02 1777.73,1077 1784.83,1054.62 1791.93,1032.8 1799.03,1011.47 1806.13,990.581 1813.23,970.095 1820.33,949.995 1827.44,930.289 1834.54,911.003 1841.64,892.188 1848.74,873.919 1855.84,856.291 1862.94,839.42 1870.05,823.437 1877.15,808.487 1884.25,794.721 1891.35,782.296 1898.45,771.365 1905.55,762.077 1912.65,754.567 1919.76,748.962 1926.86,745.368 1933.96,743.876 1941.06,744.558 1948.16,747.464 1955.26,752.627 1962.37,760.06 1969.47,769.755 1976.57,781.689 1983.67,795.817 1990.77,812.081 1997.87,830.406 2004.97,850.699 2012.08,872.86 2019.18,896.772 2026.28,922.313 2033.38,949.351 2040.48,977.753 2047.58,1007.38 2054.69,1038.1 2061.79,1069.78 2068.89,1102.3 2075.99,1135.52 2083.09,1169.36 2090.19,1203.69 2097.29,1238.43 2104.4,1273.49 2111.5,1308.79 2118.6,1344.26 2125.7,1379.84 2132.8,1415.44 2139.9,1451.02 2147.01,1486.5 2154.11,1521.8 2161.21,1556.84 2168.31,1591.54 2175.41,1625.79 2182.51,1659.49 2189.61,1692.52 2196.72,1724.74 2203.82,1756.01 2210.92,1786.2 2218.02,1815.14 2225.12,1842.67 2232.22,1868.65 2239.33,1892.9 2246.43,1915.29 2253.53,1935.67 2260.63,1953.91 2267.73,1969.91 2274.83,1983.55 2281.93,1994.77 2289.04,2003.5 2296.14,2009.71 2303.24,2013.4 2310.34,2014.56 2317.44,2013.24 2324.54,2009.51 2331.65,2003.43 2338.75,1995.13 2345.85,1984.73 2352.95,1972.37 2360.05,1958.23 2367.15,1942.47 2374.25,1925.27 2381.36,1906.82 2388.46,1887.29 2395.56,1866.86 2402.66,1845.67 2409.76,1823.88 2416.86,1801.59 2423.96,1778.9 2431.07,1755.89 2438.17,1732.61 2445.27,1709.07 2452.37,1685.28 2459.47,1661.21 2466.57,1636.84 2473.68,1612.11 2480.78,1586.96 2487.88,1561.31 2494.98,1535.08 2502.08,1508.19 2509.18,1480.56 2516.28,1452.12 2523.39,1422.79 2530.49,1392.52 2537.59,1361.26 2544.69,1328.99 2551.79,1295.71 2558.89,1261.42 2566,1226.19 2573.1,1190.07 2580.2,1153.16 2587.3,1115.6 2594.4,1077.53 2601.5,1039.15 2608.6,1000.67 2615.71,962.327 2622.81,924.383 2629.91,887.125 2637.01,850.857 2644.11,815.896 2651.21,782.571 2658.32,751.216 2665.42,722.164 2672.52,695.743 2679.62,672.265 2686.72,652.02 2693.82,635.271 2700.92,622.242 2708.03,613.111 2715.13,608.004 2722.23,606.99 2729.33,610.077 2736.43,617.209 2743.53,628.271 2750.64,643.09 2757.74,661.443 2764.84,683.063 2771.94,707.654 2779.04,734.899 2786.14,764.468 2793.24,796.036 2800.35,829.284 2807.45,863.912 2814.55,899.642 2821.65,936.223 2828.75,973.431 2835.85,1011.07 2842.96,1048.97 2850.06,1086.98 2857.16,1124.99 2864.26,1162.87 2871.36,1200.53 2878.46,1237.89 2885.56,1274.85 2892.67,1311.35 2899.77,1347.28 2906.87,1382.57 2913.97,1417.13 2921.07,1450.85 2928.17,1483.64 2935.28,1515.4 2942.38,1546.01 2949.48,1575.39 2956.58,1603.43 2963.68,1630.05 2970.78,1655.15 2977.88,1678.69 2984.99,1700.61 2992.09,1720.88 2999.19,1739.49 3006.29,1756.44 3013.39,1771.74 3020.49,1785.45 3027.6,1797.6 3034.7,1808.27 3041.8,1817.52 3048.9,1825.44 3056,1832.11 3063.1,1837.63 3070.2,1842.09 3077.31,1845.58 3084.41,1848.23 3091.51,1850.12 3098.61,1851.37 3105.71,1852.09 3112.81,1852.39 3119.92,1852.4 3127.02,1852.21 3134.12,1851.94 3141.22,1851.67 3148.32,1851.47 3155.42,1851.41 3162.52,1851.5 3169.63,1851.75 3176.73,1852.1 3183.83,1852.51 3190.93,1852.85 3198.03,1853.02 3205.13,1852.85 3212.23,1852.17 3219.34,1850.8 3226.44,1848.54 3233.54,1845.16 3240.64,1840.47 3247.74,1834.24 3254.84,1826.24 3261.95,1816.27 3269.05,1804.1 3276.15,1789.52 3283.25,1772.37 3290.35,1752.46 3297.45,1729.68 3304.55,1703.91 3311.66,1675.13 3318.76,1643.31 3325.86,1608.52 3332.96,1570.85 3340.06,1530.44 3347.16,1487.5 3354.27,1442.24 3361.37,1394.92 3368.47,1345.81 3375.57,1295.2 3382.67,1243.38 3389.77,1190.64 3396.87,1137.29 3403.98,1083.62 3411.08,1029.94 3418.18,976.56 3425.28,923.812 3432.38,872.041 3439.48,821.623 3446.59,772.962 3453.69,726.498 3460.79,682.701 3467.89,642.071 3474.99,605.123 3482.09,572.377 3489.19,544.335 3496.3,521.455 3503.4,504.128 3510.5,492.646 3517.6,487.184 3524.7,487.78 3531.8,494.329 3538.91,506.584 3546.01,524.174 3553.11,546.624 3560.21,573.387 3567.31,603.875 3574.41,637.488 3581.51,673.649 3588.62,711.816 3595.72,751.505 3602.82,792.293 3609.92,833.826 3617.02,875.808 3624.12,918.003 3631.23,960.22 3638.33,1002.31 3645.43,1044.14 3652.53,1085.61 3659.63,1126.61 3666.73,1167.04 3673.83,1206.79 3680.94,1245.73 3688.04,1283.73 3695.14,1320.62 3702.24,1356.25 3709.34,1390.42 3716.44,1422.96 3723.55,1453.68 3730.65,1482.4 3737.75,1508.96 3744.85,1533.24 3751.95,1555.12 3759.05,1574.55 3766.15,1591.49 3773.26,1605.95 3780.36,1617.98 3787.46,1627.67 3794.56,1635.14 3801.66,1640.52 3808.76,1643.99 3815.87,1645.7 3822.97,1645.87 3830.07,1644.65 3837.17,1642.26 3844.27,1638.87 3851.37,1634.67 3858.47,1629.83 3865.58,1624.52 3872.68,1618.93 3879.78,1613.2 3886.88,1607.53 3893.98,1602.07 3901.08,1597.03 3908.19,1592.59 3915.29,1588.95 3922.39,1586.33 3929.49,1584.97 3936.59,1585.08 3943.69,1586.91 3950.79,1590.68 3957.9,1596.58 3965,1604.8 3972.1,1615.44 3979.2,1628.58 3986.3,1644.18 3993.4,1662.18 4000.5,1682.38 4007.61,1704.55 4014.71,1728.38 4021.81,1753.52 4028.91,1779.59 4036.01,1806.19 4043.11,1832.93 4050.22,1859.42 4057.32,1885.29 4064.42,1910.16 4071.52,1933.68 4078.62,1955.47 4085.72,1975.16 4092.82,1992.32 4099.93,2006.52 4107.03,2017.3 4114.13,2024.16 4121.23,2026.61 4128.33,2024.2 4135.43,2016.51 4142.54,2003.22 4149.64,1984.15 4156.74,1959.25 4163.84,1928.64 4170.94,1892.6 4178.04,1851.54 4185.14,1805.99 4192.25,1756.55 4199.35,1703.85 4206.45,1648.51 4213.55,1591.11 4220.65,1532.18 4227.75,1472.14 4234.86,1411.38 4241.96,1350.18 4249.06,1288.77 4256.16,1227.32 4263.26,1165.96 4270.36,1104.84 4277.46,1044.06 4284.57,983.78 4291.67,924.2 4298.77,865.578 4305.87,808.254 4312.97,752.668 4320.07,699.363 4327.18,648.986 4334.28,602.277 4341.38,560.045 4348.48,523.123 4355.58,492.316 4362.68,468.334 4369.78,451.727 4376.89,442.825 4383.99,441.702 4391.09,448.158 4398.19,461.742 4405.29,481.793 4412.39,507.505 4419.5,537.996 4426.6,572.378 4433.7,609.814 4440.8,649.554 4447.9,690.964 4455,733.529 4462.1,776.848 4469.21,820.625 4476.31,864.645 4483.41,908.754 4490.51,952.842 4497.61,996.815 4504.71,1040.58 "/>
<polyline clip-path="url(#clip832)" style="stroke:#3da44d; stroke-linecap:round; stroke-linejoin:round; stroke-width:12; stroke-opacity:1; fill:none" points="961.049,1353.4 968.151,1323.98 975.253,1294.79 982.354,1265.97 989.456,1237.67 996.557,1210.02 1003.66,1183.17 1010.76,1157.25 1017.86,1132.37 1024.96,1108.66 1032.06,1086.22 1039.17,1065.14 1046.27,1045.49 1053.37,1027.36 1060.47,1010.79 1067.57,995.804 1074.67,982.435 1081.78,970.68 1088.88,960.521 1095.98,951.926 1103.08,944.843 1110.18,939.206 1117.28,934.931 1124.38,931.922 1131.49,930.07 1138.59,929.253 1145.69,929.342 1152.79,930.197 1159.89,931.673 1166.99,933.619 1174.1,935.883 1174.1,970.394 1181.2,1036.65 1188.3,1101.88 1195.4,1165.6 1202.5,1227.4 1209.6,1286.92 1216.7,1343.85 1223.81,1397.9 1230.91,1448.83 1238.01,1496.4 1245.11,1540.42 1252.21,1580.7 1259.31,1617.1 1266.42,1649.51 1273.52,1677.82 1280.62,1702.01 1287.72,1722.05 1294.82,1737.97 1301.92,1749.83 1309.02,1757.72 1316.13,1761.76 1323.23,1762.11 1330.33,1758.93 1337.43,1752.44 1344.53,1742.83 1351.63,1730.33 1358.74,1715.19 1365.84,1697.65 1372.94,1677.99 1380.04,1656.48 1387.14,1633.42 1394.24,1609.13 1401.34,1583.95 1408.45,1558.24 1415.55,1532.4 1422.65,1506.85 1429.75,1482.04 1436.85,1458.42 1443.95,1436.5 1451.06,1416.77 1458.16,1399.71 1465.26,1385.81 1472.36,1375.5 1479.46,1369.16 1486.56,1367.1 1493.66,1369.54 1500.77,1376.61 1507.87,1388.28 1514.97,1404.43 1522.07,1424.82 1529.17,1449.07 1536.27,1476.73 1543.38,1507.22 1550.48,1539.93 1557.58,1574.18 1564.68,1609.27 1571.78,1644.48 1578.88,1679.11 1585.98,1712.48 1593.09,1743.95 1600.19,1772.93 1607.29,1798.87 1614.39,1821.28 1621.49,1839.75 1628.59,1853.92 1635.69,1863.51 1642.8,1868.3 1649.9,1868.12 1657,1862.89 1664.1,1852.58 1671.2,1837.22 1678.3,1816.87 1685.41,1791.68 1692.51,1761.81 1699.61,1727.49 1706.71,1688.95 1713.81,1646.5 1720.91,1600.46 1728.01,1551.18 1735.12,1499.05 1742.22,1444.5 1749.32,1387.98 1756.42,1329.97 1763.52,1271 1770.62,1211.62 1777.73,1152.44 1784.83,1094.07 1791.93,1037.16 1799.03,982.412 1806.13,930.504 1813.23,882.135 1820.33,837.988 1827.44,798.713 1834.54,764.906 1841.64,737.085 1848.74,715.674 1855.84,700.977 1862.94,693.166 1870.05,692.271 1877.15,698.177 1884.25,710.625 1891.35,729.226 1898.45,753.472 1905.55,782.761 1912.65,816.419 1919.76,853.718 1926.86,893.907 1933.96,936.224 1941.06,979.923 1948.16,1024.28 1955.26,1068.62 1962.37,1112.3 1969.47,1154.75 1976.57,1195.44 1983.67,1233.94 1990.77,1269.85 1997.87,1302.87 2004.97,1332.73 2012.08,1359.27 2019.18,1382.38 2026.28,1402 2033.38,1418.15 2040.48,1430.9 2047.58,1440.35 2054.69,1446.68 2061.79,1450.07 2068.89,1450.75 2075.99,1448.97 2083.09,1444.99 2090.19,1439.09 2097.29,1431.57 2104.4,1422.72 2111.5,1412.84 2118.6,1402.23 2125.7,1391.2 2132.8,1380.05 2139.9,1369.08 2147.01,1358.61 2154.11,1348.94 2161.21,1340.37 2168.31,1333.21 2175.41,1327.75 2182.51,1324.29 2189.61,1323.1 2196.72,1324.45 2203.82,1328.57 2210.92,1335.69 2218.02,1345.96 2225.12,1359.53 2232.22,1376.48 2239.33,1396.83 2246.43,1420.55 2253.53,1447.54 2260.63,1477.62 2267.73,1510.55 2274.83,1546.02 2281.93,1583.64 2289.04,1622.96 2296.14,1663.46 2303.24,1704.56 2310.34,1745.65 2317.44,1786.04 2324.54,1825.05 2331.65,1861.95 2338.75,1896.04 2345.85,1926.62 2352.95,1953.01 2360.05,1974.62 2367.15,1990.91 2374.25,2001.45 2381.36,2005.91 2388.46,2004.08 2395.56,1995.87 2402.66,1981.35 2409.76,1960.67 2416.86,1934.12 2423.96,1902.08 2431.07,1865.02 2438.17,1823.45 2445.27,1777.96 2452.37,1729.15 2459.47,1677.61 2466.57,1623.97 2473.68,1568.82 2480.78,1512.75 2487.88,1456.32 2494.98,1400.05 2502.08,1344.47 2509.18,1290.06 2516.28,1237.27 2523.39,1186.55 2530.49,1138.3 2537.59,1092.91 2544.69,1050.76 2551.79,1012.19 2558.89,977.501 2566,946.995 2573.1,920.92 2580.2,899.489 2587.3,882.871 2594.4,871.184 2601.5,864.491 2608.6,862.793 2615.71,866.025 2622.81,874.053 2629.91,886.67 2637.01,903.599 2644.11,924.489 2651.21,948.92 2658.32,976.41 2665.42,1006.41 2672.52,1038.34 2679.62,1071.56 2686.72,1105.41 2693.82,1139.21 2700.92,1172.29 2708.03,1203.98 2715.13,1233.67 2722.23,1260.77 2729.33,1284.8 2736.43,1305.32 2743.53,1322.02 2750.64,1334.68 2757.74,1343.19 2764.84,1347.56 2771.94,1347.86 2779.04,1344.31 2786.14,1337.15 2793.24,1326.73 2800.35,1313.41 2807.45,1297.61 2814.55,1279.75 2821.65,1260.26 2828.75,1239.58 2835.85,1218.11 2842.96,1196.25 2850.06,1174.4 2857.16,1152.91 2864.26,1132.12 2871.36,1112.36 2878.46,1093.94 2885.56,1077.14 2892.67,1062.26 2899.77,1049.56 2906.87,1039.29 2913.97,1031.72 2921.07,1027.07 2928.17,1025.57 2935.28,1027.43 2942.38,1032.83 2949.48,1041.94 2956.58,1054.9 2963.68,1071.8 2970.78,1092.73 2977.88,1117.71 2984.99,1146.74 2992.09,1179.77 2999.19,1216.73 3006.29,1257.49 3013.39,1301.9 3020.49,1349.76 3027.6,1400.85 3034.7,1454.9 3041.8,1511.62 3048.9,1570.65 3056,1631.61 3063.1,1694.05 3070.2,1757.45 3077.31,1821.22 3084.41,1884.67 3091.51,1947.03 3098.61,2007.43 3105.71,2064.89 3112.81,2118.37 3119.92,2166.75 3127.02,2208.91 3134.12,2243.71 3141.22,2270.1 3148.32,2287.16 3155.42,2294.14 3162.52,2290.53 3169.63,2276.07 3176.73,2250.8 3183.83,2215.06 3190.93,2169.43 3198.03,2114.74 3205.13,2052.01 3212.23,1982.39 3219.34,1907.12 3226.44,1827.49 3233.54,1744.77 3240.64,1660.23 3247.74,1575.07 3254.84,1490.45 3261.95,1407.43 3269.05,1327.02 3276.15,1250.13 3283.25,1177.58 3290.35,1110.11 3297.45,1048.35 3304.55,992.808 3311.66,943.912 3318.76,901.957 3325.86,867.129 3332.96,839.507 3340.06,819.07 3347.16,805.709 3354.27,799.238 3361.37,799.412 3368.47,805.936 3375.57,818.485 3382.67,836.708 3389.77,860.236 3396.87,888.691 3403.98,921.679 3411.08,958.794 3418.18,999.607 3425.28,1043.66 3432.38,1090.45 3439.48,1139.43 3446.59,1189.98 3453.69,1241.4 3460.79,1292.91 3467.89,1343.65 3474.99,1392.64 3482.09,1438.88 3489.19,1481.29 3496.3,1518.79 3503.4,1550.36 3510.5,1575.06 3517.6,1592.1 3524.7,1600.91 3531.8,1601.14 3538.91,1592.74 3546.01,1575.91 3553.11,1551.11 3560.21,1519.03 3567.31,1480.52 3574.41,1436.55 3581.51,1388.18 3588.62,1336.45 3595.72,1282.42 3602.82,1227.06 3609.92,1171.29 3617.02,1115.94 3624.12,1061.77 3631.23,1009.43 3638.33,959.487 3645.43,912.453 3652.53,868.759 3659.63,828.776 3666.73,792.826 3673.83,761.181 3680.94,734.073 3688.04,711.695 3695.14,694.204 3702.24,681.722 3709.34,674.333 3716.44,672.085 3723.55,674.984 3730.65,682.992 3737.75,696.028 3744.85,713.96 3751.95,736.616 3759.05,763.777 3766.15,795.189 3773.26,830.569 3780.36,869.612 3787.46,912.007 3794.56,957.443 3801.66,1005.62 3808.76,1056.28 3815.87,1109.16 3822.97,1164.07 3830.07,1220.84 3837.17,1279.36 3844.27,1339.54 3851.37,1401.34 3858.47,1464.75 3865.58,1529.77 3872.68,1596.39 3879.78,1664.62 3886.88,1734.42 3893.98,1805.67 3901.08,1878.22 3908.19,1951.78 3915.29,2025.92 3922.39,2100.06 3929.49,2173.42 3936.59,2245.04 3943.69,2313.71 3950.79,2378.03 3957.9,2436.44 3965,2487.24 3972.1,2528.68 3979.2,2559.09 3986.3,2576.93 3993.4,2580.95 4000.5,2570.27 4007.61,2544.44 4014.71,2503.49 4021.81,2447.94 4028.91,2378.7 4036.01,2297.05 4043.11,2204.51 4050.22,2102.8 4057.32,1993.7 4064.42,1879.01 4071.52,1760.54 4078.62,1640.06 4085.72,1519.31 4092.82,1400 4099.93,1283.84 4107.03,1172.48 4114.13,1067.6 4121.23,970.761 4128.33,883.432 4135.43,806.896 4142.54,742.181 4149.64,690.001 4156.74,650.708 4163.84,624.276 4170.94,610.313 4178.04,608.11 4185.14,616.709 4192.25,634.991 4199.35,661.759 4206.45,695.822 4213.55,736.056 4220.65,781.452 4227.75,831.145 4234.86,884.418 4241.96,940.705 4249.06,999.572 4256.16,1060.7 4263.26,1123.84 4270.36,1188.82 4277.46,1255.45 4284.57,1323.56 4291.67,1392.87 4298.77,1463.05 4305.87,1533.58 4312.97,1603.76 4320.07,1672.67 4327.18,1739.15 4334.28,1801.79 4341.38,1858.93 4348.48,1908.76 4355.58,1949.42 4362.68,1979.08 4369.78,1996.12 4376.89,1999.31 4383.99,1987.87 4391.09,1961.63 4398.19,1920.96 4405.29,1866.81 4412.39,1800.58 4419.5,1723.97 4426.6,1638.88 4433.7,1547.27 4440.8,1451.04 4447.9,1351.98 4455,1251.74 4462.1,1151.78 4469.21,1053.4 4476.31,957.77 4483.41,865.925 4490.51,778.791 4497.61,697.207 4504.71,621.928 "/>
<polyline clip-path="url(#clip832)" style="stroke:#ff00ff; stroke-linecap:round; stroke-linejoin:round; stroke-width:4; stroke-opacity:1; fill:none" stroke-dasharray="16, 10" points="1174.1,4912.73 1174.1,-1890.08 "/>
<path clip-path="url(#clip830)" d="M979.949 2569.54 L1514.08 2569.54 L1514.08 2083.54 L979.949 2083.54  Z" fill="#ffffff" fill-rule="evenodd" fill-opacity="1"/>
<polyline clip-path="url(#clip830)" style="stroke:#000000; stroke-linecap:round; stroke-linejoin:round; stroke-width:4; stroke-opacity:1; fill:none" points="979.949,2569.54 1514.08,2569.54 1514.08,2083.54 979.949,2083.54 979.949,2569.54 "/>
<polyline clip-path="url(#clip830)" style="stroke:#009af9; stroke-linecap:round; stroke-linejoin:round; stroke-width:22.5; stroke-opacity:1; fill:none" points="1021.69,2180.74 1272.1,2180.74 "/>
<path clip-path="url(#clip830)" d="M1361.76 2203.9 L1361.76 2186.49 L1347.43 2186.49 L1347.43 2179.29 L1370.44 2179.29 L1370.44 2207.11 Q1365.36 2210.71 1359.24 2212.58 Q1353.12 2214.4 1346.18 2214.4 Q1330.98 2214.4 1322.39 2205.55 Q1313.84 2196.65 1313.84 2180.81 Q1313.84 2164.92 1322.39 2156.07 Q1330.98 2147.17 1346.18 2147.17 Q1352.51 2147.17 1358.2 2148.73 Q1363.93 2150.29 1368.75 2153.33 L1368.75 2162.66 Q1363.88 2158.54 1358.42 2156.46 Q1352.95 2154.37 1346.91 2154.37 Q1335.02 2154.37 1329.03 2161.01 Q1323.09 2167.65 1323.09 2180.81 Q1323.09 2193.91 1329.03 2200.55 Q1335.02 2207.19 1346.91 2207.19 Q1351.56 2207.19 1355.2 2206.41 Q1358.85 2205.59 1361.76 2203.9 Z" fill="#000000" fill-rule="nonzero" fill-opacity="1" /><path clip-path="url(#clip830)" d="M1388.75 2205.76 L1403.08 2205.76 L1403.08 2156.33 L1387.5 2159.45 L1387.5 2151.47 L1402.99 2148.34 L1411.76 2148.34 L1411.76 2205.76 L1426.08 2205.76 L1426.08 2213.14 L1388.75 2213.14 L1388.75 2205.76 Z" fill="#000000" fill-rule="nonzero" fill-opacity="1" /><polyline clip-path="url(#clip830)" style="stroke:#e26f46; stroke-linecap:round; stroke-linejoin:round; stroke-width:22.5; stroke-opacity:1; fill:none" points="1021.69,2277.94 1272.1,2277.94 "/>
<path clip-path="url(#clip830)" d="M1361.76 2301.1 L1361.76 2283.69 L1347.43 2283.69 L1347.43 2276.49 L1370.44 2276.49 L1370.44 2304.31 Q1365.36 2307.91 1359.24 2309.78 Q1353.12 2311.6 1346.18 2311.6 Q1330.98 2311.6 1322.39 2302.75 Q1313.84 2293.85 1313.84 2278.01 Q1313.84 2262.12 1322.39 2253.27 Q1330.98 2244.37 1346.18 2244.37 Q1352.51 2244.37 1358.2 2245.93 Q1363.93 2247.49 1368.75 2250.53 L1368.75 2259.86 Q1363.88 2255.74 1358.42 2253.66 Q1352.95 2251.57 1346.91 2251.57 Q1335.02 2251.57 1329.03 2258.21 Q1323.09 2264.85 1323.09 2278.01 Q1323.09 2291.11 1329.03 2297.75 Q1335.02 2304.39 1346.91 2304.39 Q1351.56 2304.39 1355.2 2303.61 Q1358.85 2302.79 1361.76 2301.1 Z" fill="#000000" fill-rule="nonzero" fill-opacity="1" /><path clip-path="url(#clip830)" d="M1394.79 2302.96 L1425.39 2302.96 L1425.39 2310.34 L1384.24 2310.34 L1384.24 2302.96 Q1389.23 2297.8 1397.82 2289.12 Q1406.46 2280.39 1408.68 2277.88 Q1412.89 2273.14 1414.53 2269.89 Q1416.23 2266.59 1416.23 2263.42 Q1416.23 2258.26 1412.58 2255 Q1408.98 2251.75 1403.16 2251.75 Q1399.04 2251.75 1394.44 2253.18 Q1389.88 2254.61 1384.67 2257.52 L1384.67 2248.67 Q1389.97 2246.54 1394.57 2245.45 Q1399.17 2244.37 1402.99 2244.37 Q1413.06 2244.37 1419.05 2249.4 Q1425.04 2254.44 1425.04 2262.86 Q1425.04 2266.85 1423.52 2270.45 Q1422.04 2274.01 1418.09 2278.87 Q1417.01 2280.13 1411.19 2286.17 Q1405.38 2292.16 1394.79 2302.96 Z" fill="#000000" fill-rule="nonzero" fill-opacity="1" /><polyline clip-path="url(#clip830)" style="stroke:#3da44d; stroke-linecap:round; stroke-linejoin:round; stroke-width:22.5; stroke-opacity:1; fill:none" points="1021.69,2375.14 1272.1,2375.14 "/>
<path clip-path="url(#clip830)" d="M1361.76 2398.3 L1361.76 2380.89 L1347.43 2380.89 L1347.43 2373.69 L1370.44 2373.69 L1370.44 2401.51 Q1365.36 2405.11 1359.24 2406.98 Q1353.12 2408.8 1346.18 2408.8 Q1330.98 2408.8 1322.39 2399.95 Q1313.84 2391.05 1313.84 2375.21 Q1313.84 2359.32 1322.39 2350.47 Q1330.98 2341.57 1346.18 2341.57 Q1352.51 2341.57 1358.2 2343.13 Q1363.93 2344.69 1368.75 2347.73 L1368.75 2357.06 Q1363.88 2352.94 1358.42 2350.86 Q1352.95 2348.77 1346.91 2348.77 Q1335.02 2348.77 1329.03 2355.41 Q1323.09 2362.05 1323.09 2375.21 Q1323.09 2388.31 1329.03 2394.95 Q1335.02 2401.59 1346.91 2401.59 Q1351.56 2401.59 1355.2 2400.81 Q1358.85 2399.99 1361.76 2398.3 Z" fill="#000000" fill-rule="nonzero" fill-opacity="1" /><path clip-path="url(#clip830)" d="M1413.8 2372.6 Q1420.09 2373.95 1423.61 2378.2 Q1427.16 2382.45 1427.16 2388.7 Q1427.16 2398.3 1420.57 2403.55 Q1413.97 2408.8 1401.82 2408.8 Q1397.74 2408.8 1393.4 2407.97 Q1389.1 2407.19 1384.5 2405.59 L1384.5 2397.12 Q1388.15 2399.25 1392.49 2400.34 Q1396.83 2401.42 1401.56 2401.42 Q1409.8 2401.42 1414.1 2398.17 Q1418.44 2394.91 1418.44 2388.7 Q1418.44 2382.97 1414.4 2379.76 Q1410.41 2376.51 1403.25 2376.51 L1395.7 2376.51 L1395.7 2369.3 L1403.6 2369.3 Q1410.06 2369.3 1413.49 2366.74 Q1416.92 2364.14 1416.92 2359.28 Q1416.92 2354.29 1413.36 2351.64 Q1409.85 2348.95 1403.25 2348.95 Q1399.65 2348.95 1395.52 2349.73 Q1391.4 2350.51 1386.45 2352.16 L1386.45 2344.35 Q1391.44 2342.96 1395.78 2342.26 Q1400.17 2341.57 1404.03 2341.57 Q1414.01 2341.57 1419.83 2346.13 Q1425.65 2350.64 1425.65 2358.37 Q1425.65 2363.75 1422.56 2367.48 Q1419.48 2371.17 1413.8 2372.6 Z" fill="#000000" fill-rule="nonzero" fill-opacity="1" /><polyline clip-path="url(#clip830)" style="stroke:#ff00ff; stroke-linecap:round; stroke-linejoin:round; stroke-width:7.5; stroke-opacity:1; fill:none" stroke-dasharray="30, 19" points="1021.69,2472.34 1272.1,2472.34 "/>
<path clip-path="url(#clip830)" d="M1327.73 2442.33 L1327.73 2456.13 L1344.18 2456.13 L1344.18 2462.34 L1327.73 2462.34 L1327.73 2488.73 Q1327.73 2494.67 1329.34 2496.36 Q1330.98 2498.06 1335.98 2498.06 L1344.18 2498.06 L1344.18 2504.74 L1335.98 2504.74 Q1326.73 2504.74 1323.22 2501.31 Q1319.7 2497.84 1319.7 2488.73 L1319.7 2462.34 L1313.84 2462.34 L1313.84 2456.13 L1319.7 2456.13 L1319.7 2442.33 L1327.73 2442.33 Z" fill="#000000" fill-rule="nonzero" fill-opacity="1" /><path clip-path="url(#clip830)" d="M1391.62 2519.5 L1391.62 2525.7 L1345.44 2525.7 L1345.44 2519.5 L1391.62 2519.5 Z" fill="#000000" fill-rule="nonzero" fill-opacity="1" /><path clip-path="url(#clip830)" d="M1434.11 2458 L1434.11 2465.46 Q1430.72 2463.6 1427.3 2462.68 Q1423.91 2461.73 1420.44 2461.73 Q1412.67 2461.73 1408.37 2466.68 Q1404.07 2471.58 1404.07 2480.48 Q1404.07 2489.38 1408.37 2494.32 Q1412.67 2499.23 1420.44 2499.23 Q1423.91 2499.23 1427.3 2498.32 Q1430.72 2497.36 1434.11 2495.5 L1434.11 2502.87 Q1430.77 2504.44 1427.16 2505.22 Q1423.61 2506 1419.57 2506 Q1408.59 2506 1402.12 2499.1 Q1395.65 2492.2 1395.65 2480.48 Q1395.65 2468.59 1402.17 2461.77 Q1408.72 2454.96 1420.09 2454.96 Q1423.78 2454.96 1427.3 2455.74 Q1430.81 2456.48 1434.11 2458 Z" fill="#000000" fill-rule="nonzero" fill-opacity="1" /><path clip-path="url(#clip830)" d="M1455.9 2442.33 L1455.9 2456.13 L1472.35 2456.13 L1472.35 2462.34 L1455.9 2462.34 L1455.9 2488.73 Q1455.9 2494.67 1457.5 2496.36 Q1459.15 2498.06 1464.14 2498.06 L1472.35 2498.06 L1472.35 2504.74 L1464.14 2504.74 Q1454.9 2504.74 1451.38 2501.31 Q1447.87 2497.84 1447.87 2488.73 L1447.87 2462.34 L1442.01 2462.34 L1442.01 2456.13 L1447.87 2456.13 L1447.87 2442.33 L1455.9 2442.33 Z" fill="#000000" fill-rule="nonzero" fill-opacity="1" /></svg>
