<?xml version="1.0" encoding="utf-8"?>
<svg xmlns="http://www.w3.org/2000/svg" xmlns:xlink="http://www.w3.org/1999/xlink" width="1200" height="800" viewBox="0 0 4800 3200">
<defs>
  <clipPath id="clip750">
    <rect x="0" y="0" width="4800" height="3200"/>
  </clipPath>
</defs>
<path clip-path="url(#clip750)" d="M0 3200 L4800 3200 L4800 0 L0 0  Z" fill="#ffffff" fill-rule="evenodd" fill-opacity="1"/>
<defs>
  <clipPath id="clip751">
    <rect x="960" y="0" width="3361" height="3200"/>
  </clipPath>
</defs>
<path clip-path="url(#clip750)" d="M1021.64 2645.13 L4611.02 2645.13 L4611.02 377.524 L1021.64 377.524  Z" fill="#ffffff" fill-rule="evenodd" fill-opacity="1"/>
<defs>
  <clipPath id="clip752">
    <rect x="1021" y="377" width="3590" height="2269"/>
  </clipPath>
</defs>
<polyline clip-path="url(#clip752)" style="stroke:#000000; stroke-linecap:round; stroke-linejoin:round; stroke-width:8; stroke-opacity:0.05; fill:none" stroke-dasharray="32, 20" points="1116.44,2645.13 1116.44,377.524 "/>
<polyline clip-path="url(#clip752)" style="stroke:#000000; stroke-linecap:round; stroke-linejoin:round; stroke-width:8; stroke-opacity:0.05; fill:none" stroke-dasharray="32, 20" points="1795.04,2645.13 1795.04,377.524 "/>
<polyline clip-path="url(#clip752)" style="stroke:#000000; stroke-linecap:round; stroke-linejoin:round; stroke-width:8; stroke-opacity:0.05; fill:none" stroke-dasharray="32, 20" points="2473.64,2645.13 2473.64,377.524 "/>
<polyline clip-path="url(#clip752)" style="stroke:#000000; stroke-linecap:round; stroke-linejoin:round; stroke-width:8; stroke-opacity:0.05; fill:none" stroke-dasharray="32, 20" points="3152.24,2645.13 3152.24,377.524 "/>
<polyline clip-path="url(#clip752)" style="stroke:#000000; stroke-linecap:round; stroke-linejoin:round; stroke-width:8; stroke-opacity:0.05; fill:none" stroke-dasharray="32, 20" points="3830.84,2645.13 3830.84,377.524 "/>
<polyline clip-path="url(#clip752)" style="stroke:#000000; stroke-linecap:round; stroke-linejoin:round; stroke-width:8; stroke-opacity:0.05; fill:none" stroke-dasharray="32, 20" points="4509.44,2645.13 4509.44,377.524 "/>
<polyline clip-path="url(#clip752)" style="stroke:#000000; stroke-linecap:round; stroke-linejoin:round; stroke-width:8; stroke-opacity:0.05; fill:none" stroke-dasharray="32, 20" points="1021.64,2562.02 4611.02,2562.02 "/>
<polyline clip-path="url(#clip752)" style="stroke:#000000; stroke-linecap:round; stroke-linejoin:round; stroke-width:8; stroke-opacity:0.05; fill:none" stroke-dasharray="32, 20" points="1021.64,1965.08 4611.02,1965.08 "/>
<polyline clip-path="url(#clip752)" style="stroke:#000000; stroke-linecap:round; stroke-linejoin:round; stroke-width:8; stroke-opacity:0.05; fill:none" stroke-dasharray="32, 20" points="1021.64,1368.14 4611.02,1368.14 "/>
<polyline clip-path="url(#clip752)" style="stroke:#000000; stroke-linecap:round; stroke-linejoin:round; stroke-width:8; stroke-opacity:0.05; fill:none" stroke-dasharray="32, 20" points="1021.64,771.204 4611.02,771.204 "/>
<polyline clip-path="url(#clip750)" style="stroke:#000000; stroke-linecap:round; stroke-linejoin:round; stroke-width:4; stroke-opacity:1; fill:none" points="1021.64,2645.13 4611.02,2645.13 "/>
<polyline clip-path="url(#clip750)" style="stroke:#000000; stroke-linecap:round; stroke-linejoin:round; stroke-width:4; stroke-opacity:1; fill:none" points="1116.44,2645.13 1116.44,2626.23 "/>
<polyline clip-path="url(#clip750)" style="stroke:#000000; stroke-linecap:round; stroke-linejoin:round; stroke-width:4; stroke-opacity:1; fill:none" points="1795.04,2645.13 1795.04,2626.23 "/>
<polyline clip-path="url(#clip750)" style="stroke:#000000; stroke-linecap:round; stroke-linejoin:round; stroke-width:4; stroke-opacity:1; fill:none" points="2473.64,2645.13 2473.64,2626.23 "/>
<polyline clip-path="url(#clip750)" style="stroke:#000000; stroke-linecap:round; stroke-linejoin:round; stroke-width:4; stroke-opacity:1; fill:none" points="3152.24,2645.13 3152.24,2626.23 "/>
<polyline clip-path="url(#clip750)" style="stroke:#000000; stroke-linecap:round; stroke-linejoin:round; stroke-width:4; stroke-opacity:1; fill:none" points="3830.84,2645.13 3830.84,2626.23 "/>
<polyline clip-path="url(#clip750)" style="stroke:#000000; stroke-linecap:round; stroke-linejoin:round; stroke-width:4; stroke-opacity:1; fill:none" points="4509.44,2645.13 4509.44,2626.23 "/>
<path clip-path="url(#clip750)" d="M1116.44 2734.8 Q1100.64 2734.8 1092.64 2750.39 Q1084.74 2765.89 1084.74 2797.08 Q1084.74 2828.17 1092.64 2843.77 Q1100.64 2859.26 1116.44 2859.26 Q1132.34 2859.26 1140.24 2843.77 Q1148.24 2828.17 1148.24 2797.08 Q1148.24 2765.89 1140.24 2750.39 Q1132.34 2734.8 1116.44 2734.8 M1116.44 2718.59 Q1141.86 2718.59 1155.22 2738.75 Q1168.69 2758.8 1168.69 2797.08 Q1168.69 2835.26 1155.22 2855.41 Q1141.86 2875.46 1116.44 2875.46 Q1091.02 2875.46 1077.55 2855.41 Q1064.18 2835.26 1064.18 2797.08 Q1064.18 2758.8 1077.55 2738.75 Q1091.02 2718.59 1116.44 2718.59 Z" fill="#000000" fill-rule="nonzero" fill-opacity="1" /><path clip-path="url(#clip750)" d="M1752.96 2855.31 L1786.38 2855.31 L1786.38 2739.96 L1750.02 2747.25 L1750.02 2728.62 L1786.18 2721.33 L1806.63 2721.33 L1806.63 2855.31 L1840.05 2855.31 L1840.05 2872.53 L1752.96 2872.53 L1752.96 2855.31 Z" fill="#000000" fill-rule="nonzero" fill-opacity="1" /><path clip-path="url(#clip750)" d="M2450.24 2855.31 L2521.64 2855.31 L2521.64 2872.53 L2425.63 2872.53 L2425.63 2855.31 Q2437.28 2843.26 2457.33 2823.01 Q2477.49 2802.65 2482.65 2796.78 Q2492.47 2785.74 2496.32 2778.14 Q2500.27 2770.44 2500.27 2763.05 Q2500.27 2751 2491.77 2743.4 Q2483.36 2735.81 2469.79 2735.81 Q2460.17 2735.81 2449.43 2739.15 Q2438.8 2742.49 2426.65 2749.28 L2426.65 2728.62 Q2439 2723.66 2449.74 2721.13 Q2460.47 2718.59 2469.38 2718.59 Q2492.88 2718.59 2506.85 2730.34 Q2520.83 2742.09 2520.83 2761.74 Q2520.83 2771.05 2517.29 2779.46 Q2513.84 2787.76 2504.63 2799.1 Q2502.09 2802.04 2488.52 2816.12 Q2474.95 2830.09 2450.24 2855.31 Z" fill="#000000" fill-rule="nonzero" fill-opacity="1" /><path clip-path="url(#clip750)" d="M3170.82 2791 Q3185.51 2794.14 3193.71 2804.07 Q3202.01 2813.99 3202.01 2828.58 Q3202.01 2850.96 3186.62 2863.21 Q3171.23 2875.46 3142.87 2875.46 Q3133.35 2875.46 3123.22 2873.54 Q3113.2 2871.72 3102.46 2867.97 L3102.46 2848.22 Q3110.97 2853.18 3121.1 2855.72 Q3131.22 2858.25 3142.26 2858.25 Q3161.5 2858.25 3171.53 2850.65 Q3181.66 2843.06 3181.66 2828.58 Q3181.66 2815.21 3172.24 2807.71 Q3162.92 2800.12 3146.21 2800.12 L3128.59 2800.12 L3128.59 2783.31 L3147.02 2783.31 Q3162.11 2783.31 3170.11 2777.33 Q3178.11 2771.25 3178.11 2759.91 Q3178.11 2748.27 3169.81 2742.09 Q3161.6 2735.81 3146.21 2735.81 Q3137.81 2735.81 3128.18 2737.63 Q3118.56 2739.46 3107.02 2743.3 L3107.02 2725.07 Q3118.67 2721.83 3128.79 2720.21 Q3139.02 2718.59 3148.03 2718.59 Q3171.33 2718.59 3184.9 2729.23 Q3198.47 2739.76 3198.47 2757.79 Q3198.47 2770.34 3191.28 2779.05 Q3184.09 2787.66 3170.82 2791 Z" fill="#000000" fill-rule="nonzero" fill-opacity="1" /><path clip-path="url(#clip750)" d="M3844 2739.15 L3792.35 2819.87 L3844 2819.87 L3844 2739.15 M3838.64 2721.33 L3864.36 2721.33 L3864.36 2819.87 L3885.93 2819.87 L3885.93 2836.88 L3864.36 2836.88 L3864.36 2872.53 L3844 2872.53 L3844 2836.88 L3775.74 2836.88 L3775.74 2817.13 L3838.64 2721.33 Z" fill="#000000" fill-rule="nonzero" fill-opacity="1" /><path clip-path="url(#clip750)" d="M4466.9 2721.33 L4547.21 2721.33 L4547.21 2738.54 L4485.64 2738.54 L4485.64 2775.61 Q4490.09 2774.09 4494.55 2773.38 Q4499.01 2772.57 4503.46 2772.57 Q4528.78 2772.57 4543.57 2786.45 Q4558.35 2800.32 4558.35 2824.02 Q4558.35 2848.42 4543.16 2862 Q4527.97 2875.46 4500.32 2875.46 Q4490.8 2875.46 4480.88 2873.84 Q4471.05 2872.22 4460.52 2868.98 L4460.52 2848.42 Q4469.64 2853.39 4479.36 2855.82 Q4489.08 2858.25 4499.92 2858.25 Q4517.44 2858.25 4527.67 2849.03 Q4537.89 2839.82 4537.89 2824.02 Q4537.89 2808.22 4527.67 2799 Q4517.44 2789.79 4499.92 2789.79 Q4491.71 2789.79 4483.51 2791.61 Q4475.41 2793.43 4466.9 2797.28 L4466.9 2721.33 Z" fill="#000000" fill-rule="nonzero" fill-opacity="1" /><path clip-path="url(#clip750)" d="M2651.86 2979.74 L2651.86 3011.94 L2690.25 3011.94 L2690.25 3026.42 L2651.86 3026.42 L2651.86 3088 Q2651.86 3101.87 2655.61 3105.82 Q2659.46 3109.77 2671.11 3109.77 L2690.25 3109.77 L2690.25 3125.37 L2671.11 3125.37 Q2649.53 3125.37 2641.33 3117.37 Q2633.13 3109.27 2633.13 3088 L2633.13 3026.42 L2619.46 3026.42 L2619.46 3011.94 L2633.13 3011.94 L2633.13 2979.74 L2651.86 2979.74 Z" fill="#000000" fill-rule="nonzero" fill-opacity="1" /><path clip-path="url(#clip750)" d="M2825.44 2967.99 Q2811.87 2991.28 2805.29 3014.07 Q2798.71 3036.86 2798.71 3060.25 Q2798.71 3083.64 2805.29 3106.63 Q2811.98 3129.52 2825.44 3152.71 L2809.24 3152.71 Q2794.05 3128.91 2786.45 3105.92 Q2778.96 3082.93 2778.96 3060.25 Q2778.96 3037.67 2786.45 3014.78 Q2793.95 2991.89 2809.24 2967.99 L2825.44 2967.99 Z" fill="#000000" fill-rule="nonzero" fill-opacity="1" /><path clip-path="url(#clip750)" d="M2933.91 3015.28 L2933.91 3032.91 Q2926.01 3028.85 2917.5 3026.83 Q2908.99 3024.8 2899.88 3024.8 Q2886.01 3024.8 2879.02 3029.06 Q2872.13 3033.31 2872.13 3041.82 Q2872.13 3048.3 2877.09 3052.05 Q2882.06 3055.69 2897.04 3059.03 L2903.42 3060.45 Q2923.27 3064.71 2931.58 3072.5 Q2939.98 3080.2 2939.98 3094.07 Q2939.98 3109.87 2927.43 3119.09 Q2914.97 3128.3 2893.09 3128.3 Q2883.98 3128.3 2874.06 3126.48 Q2864.23 3124.76 2853.29 3121.22 L2853.29 3101.97 Q2863.62 3107.34 2873.65 3110.08 Q2883.68 3112.71 2893.5 3112.71 Q2906.67 3112.71 2913.75 3108.25 Q2920.84 3103.7 2920.84 3095.49 Q2920.84 3087.9 2915.68 3083.85 Q2910.62 3079.79 2893.3 3076.05 L2886.82 3074.53 Q2869.5 3070.88 2861.8 3063.39 Q2854.1 3055.79 2854.1 3042.63 Q2854.1 3026.63 2865.45 3017.92 Q2876.79 3009.21 2897.65 3009.21 Q2907.98 3009.21 2917.1 3010.73 Q2926.21 3012.25 2933.91 3015.28 Z" fill="#000000" fill-rule="nonzero" fill-opacity="1" /><path clip-path="url(#clip750)" d="M2966.72 2967.99 L2982.92 2967.99 Q2998.11 2991.89 3005.61 3014.78 Q3013.2 3037.67 3013.2 3060.25 Q3013.2 3082.93 3005.61 3105.92 Q2998.11 3128.91 2982.92 3152.71 L2966.72 3152.71 Q2980.19 3129.52 2986.77 3106.63 Q2993.46 3083.64 2993.46 3060.25 Q2993.46 3036.86 2986.77 3014.07 Q2980.19 2991.28 2966.72 2967.99 Z" fill="#000000" fill-rule="nonzero" fill-opacity="1" /><polyline clip-path="url(#clip750)" style="stroke:#000000; stroke-linecap:round; stroke-linejoin:round; stroke-width:4; stroke-opacity:1; fill:none" points="1021.64,2645.13 1021.64,377.524 "/>
<polyline clip-path="url(#clip750)" style="stroke:#000000; stroke-linecap:round; stroke-linejoin:round; stroke-width:4; stroke-opacity:1; fill:none" points="1021.64,2562.02 1040.53,2562.02 "/>
<polyline clip-path="url(#clip750)" style="stroke:#000000; stroke-linecap:round; stroke-linejoin:round; stroke-width:4; stroke-opacity:1; fill:none" points="1021.64,1965.08 1040.53,1965.08 "/>
<polyline clip-path="url(#clip750)" style="stroke:#000000; stroke-linecap:round; stroke-linejoin:round; stroke-width:4; stroke-opacity:1; fill:none" points="1021.64,1368.14 1040.53,1368.14 "/>
<polyline clip-path="url(#clip750)" style="stroke:#000000; stroke-linecap:round; stroke-linejoin:round; stroke-width:4; stroke-opacity:1; fill:none" points="1021.64,771.204 1040.53,771.204 "/>
<path clip-path="url(#clip750)" d="M347.672 2564 L477.504 2564 L477.504 2581.21 L347.672 2581.21 L347.672 2564 Z" fill="#000000" fill-rule="nonzero" fill-opacity="1" /><path clip-path="url(#clip750)" d="M565.409 2499.89 Q549.61 2499.89 541.609 2515.49 Q533.71 2530.98 533.71 2562.18 Q533.71 2593.27 541.609 2608.86 Q549.61 2624.36 565.409 2624.36 Q581.308 2624.36 589.208 2608.86 Q597.208 2593.27 597.208 2562.18 Q597.208 2530.98 589.208 2515.49 Q581.308 2499.89 565.409 2499.89 M565.409 2483.69 Q590.828 2483.69 604.196 2503.84 Q617.665 2523.89 617.665 2562.18 Q617.665 2600.35 604.196 2620.51 Q590.828 2640.56 565.409 2640.56 Q539.989 2640.56 526.52 2620.51 Q513.152 2600.35 513.152 2562.18 Q513.152 2523.89 526.52 2503.84 Q539.989 2483.69 565.409 2483.69 Z" fill="#000000" fill-rule="nonzero" fill-opacity="1" /><path clip-path="url(#clip750)" d="M653.617 2611.9 L674.986 2611.9 L674.986 2637.62 L653.617 2637.62 L653.617 2611.9 Z" fill="#000000" fill-rule="nonzero" fill-opacity="1" /><path clip-path="url(#clip750)" d="M763.295 2499.89 Q747.497 2499.89 739.496 2515.49 Q731.597 2530.98 731.597 2562.18 Q731.597 2593.27 739.496 2608.86 Q747.497 2624.36 763.295 2624.36 Q779.195 2624.36 787.094 2608.86 Q795.095 2593.27 795.095 2562.18 Q795.095 2530.98 787.094 2515.49 Q779.195 2499.89 763.295 2499.89 M763.295 2483.69 Q788.715 2483.69 802.083 2503.84 Q815.552 2523.89 815.552 2562.18 Q815.552 2600.35 802.083 2620.51 Q788.715 2640.56 763.295 2640.56 Q737.876 2640.56 724.407 2620.51 Q711.039 2600.35 711.039 2562.18 Q711.039 2523.89 724.407 2503.84 Q737.876 2483.69 763.295 2483.69 Z" fill="#000000" fill-rule="nonzero" fill-opacity="1" /><path clip-path="url(#clip750)" d="M907.71 2504.25 L856.061 2584.96 L907.71 2584.96 L907.71 2504.25 M902.343 2486.42 L928.066 2486.42 L928.066 2584.96 L949.637 2584.96 L949.637 2601.98 L928.066 2601.98 L928.066 2637.62 L907.71 2637.62 L907.71 2601.98 L839.452 2601.98 L839.452 2582.23 L902.343 2486.42 Z" fill="#000000" fill-rule="nonzero" fill-opacity="1" /><path clip-path="url(#clip750)" d="M356.787 1967.06 L486.618 1967.06 L486.618 1984.27 L356.787 1984.27 L356.787 1967.06 Z" fill="#000000" fill-rule="nonzero" fill-opacity="1" /><path clip-path="url(#clip750)" d="M574.523 1902.95 Q558.725 1902.95 550.724 1918.55 Q542.825 1934.04 542.825 1965.24 Q542.825 1996.33 550.724 2011.92 Q558.725 2027.42 574.523 2027.42 Q590.423 2027.42 598.322 2011.92 Q606.323 1996.33 606.323 1965.24 Q606.323 1934.04 598.322 1918.55 Q590.423 1902.95 574.523 1902.95 M574.523 1886.75 Q599.943 1886.75 613.31 1906.9 Q626.78 1926.95 626.78 1965.24 Q626.78 2003.41 613.31 2023.57 Q599.943 2043.62 574.523 2043.62 Q549.104 2043.62 535.634 2023.57 Q522.266 2003.41 522.266 1965.24 Q522.266 1926.95 535.634 1906.9 Q549.104 1886.75 574.523 1886.75 Z" fill="#000000" fill-rule="nonzero" fill-opacity="1" /><path clip-path="url(#clip750)" d="M662.732 2014.96 L684.1 2014.96 L684.1 2040.68 L662.732 2040.68 L662.732 2014.96 Z" fill="#000000" fill-rule="nonzero" fill-opacity="1" /><path clip-path="url(#clip750)" d="M772.41 1902.95 Q756.611 1902.95 748.611 1918.55 Q740.711 1934.04 740.711 1965.24 Q740.711 1996.33 748.611 2011.92 Q756.611 2027.42 772.41 2027.42 Q788.31 2027.42 796.209 2011.92 Q804.209 1996.33 804.209 1965.24 Q804.209 1934.04 796.209 1918.55 Q788.31 1902.95 772.41 1902.95 M772.41 1886.75 Q797.829 1886.75 811.197 1906.9 Q824.666 1926.95 824.666 1965.24 Q824.666 2003.41 811.197 2023.57 Q797.829 2043.62 772.41 2043.62 Q746.99 2043.62 733.521 2023.57 Q720.153 2003.41 720.153 1965.24 Q720.153 1926.95 733.521 1906.9 Q746.99 1886.75 772.41 1886.75 Z" fill="#000000" fill-rule="nonzero" fill-opacity="1" /><path clip-path="url(#clip750)" d="M878.24 2023.47 L949.637 2023.47 L949.637 2040.68 L853.63 2040.68 L853.63 2023.47 Q865.277 2011.42 885.329 1991.16 Q905.482 1970.81 910.647 1964.93 Q920.47 1953.89 924.319 1946.3 Q928.268 1938.6 928.268 1931.21 Q928.268 1919.16 919.761 1911.56 Q911.356 1903.97 897.785 1903.97 Q888.164 1903.97 877.429 1907.31 Q866.796 1910.65 854.643 1917.43 L854.643 1896.77 Q866.998 1891.81 877.733 1889.28 Q888.468 1886.75 897.38 1886.75 Q920.875 1886.75 934.851 1898.5 Q948.827 1910.24 948.827 1929.89 Q948.827 1939.21 945.282 1947.61 Q941.839 1955.92 932.623 1967.26 Q930.091 1970.2 916.521 1984.27 Q902.95 1998.25 878.24 2023.47 Z" fill="#000000" fill-rule="nonzero" fill-opacity="1" /><path clip-path="url(#clip750)" d="M567.535 1306.01 Q551.737 1306.01 543.736 1321.61 Q535.837 1337.1 535.837 1368.3 Q535.837 1399.39 543.736 1414.98 Q551.737 1430.48 567.535 1430.48 Q583.435 1430.48 591.334 1414.98 Q599.335 1399.39 599.335 1368.3 Q599.335 1337.1 591.334 1321.61 Q583.435 1306.01 567.535 1306.01 M567.535 1289.81 Q592.955 1289.81 606.323 1309.96 Q619.792 1330.01 619.792 1368.3 Q619.792 1406.48 606.323 1426.63 Q592.955 1446.68 567.535 1446.68 Q542.116 1446.68 528.647 1426.63 Q515.279 1406.48 515.279 1368.3 Q515.279 1330.01 528.647 1309.96 Q542.116 1289.81 567.535 1289.81 Z" fill="#000000" fill-rule="nonzero" fill-opacity="1" /><path clip-path="url(#clip750)" d="M655.744 1418.02 L677.112 1418.02 L677.112 1443.74 L655.744 1443.74 L655.744 1418.02 Z" fill="#000000" fill-rule="nonzero" fill-opacity="1" /><path clip-path="url(#clip750)" d="M765.422 1306.01 Q749.623 1306.01 741.623 1321.61 Q733.724 1337.1 733.724 1368.3 Q733.724 1399.39 741.623 1414.98 Q749.623 1430.48 765.422 1430.48 Q781.322 1430.48 789.221 1414.98 Q797.222 1399.39 797.222 1368.3 Q797.222 1337.1 789.221 1321.61 Q781.322 1306.01 765.422 1306.01 M765.422 1289.81 Q790.841 1289.81 804.209 1309.96 Q817.679 1330.01 817.679 1368.3 Q817.679 1406.48 804.209 1426.63 Q790.841 1446.68 765.422 1446.68 Q740.003 1446.68 726.533 1426.63 Q713.165 1406.48 713.165 1368.3 Q713.165 1330.01 726.533 1309.96 Q740.003 1289.81 765.422 1289.81 Z" fill="#000000" fill-rule="nonzero" fill-opacity="1" /><path clip-path="url(#clip750)" d="M897.38 1306.01 Q881.582 1306.01 873.581 1321.61 Q865.682 1337.1 865.682 1368.3 Q865.682 1399.39 873.581 1414.98 Q881.582 1430.48 897.38 1430.48 Q913.28 1430.48 921.179 1414.98 Q929.18 1399.39 929.18 1368.3 Q929.18 1337.1 921.179 1321.61 Q913.28 1306.01 897.38 1306.01 M897.38 1289.81 Q922.8 1289.81 936.168 1309.96 Q949.637 1330.01 949.637 1368.3 Q949.637 1406.48 936.168 1426.63 Q922.8 1446.68 897.38 1446.68 Q871.961 1446.68 858.491 1426.63 Q845.123 1406.48 845.123 1368.3 Q845.123 1330.01 858.491 1309.96 Q871.961 1289.81 897.38 1289.81 Z" fill="#000000" fill-rule="nonzero" fill-opacity="1" /><path clip-path="url(#clip750)" d="M574.523 709.073 Q558.725 709.073 550.724 724.669 Q542.825 740.164 542.825 771.355 Q542.825 802.446 550.724 818.042 Q558.725 833.537 574.523 833.537 Q590.423 833.537 598.322 818.042 Q606.323 802.446 606.323 771.355 Q606.323 740.164 598.322 724.669 Q590.423 709.073 574.523 709.073 M574.523 692.869 Q599.943 692.869 613.31 713.022 Q626.78 733.074 626.78 771.355 Q626.78 809.535 613.31 829.688 Q599.943 849.74 574.523 849.74 Q549.104 849.74 535.634 829.688 Q522.266 809.535 522.266 771.355 Q522.266 733.074 535.634 713.022 Q549.104 692.869 574.523 692.869 Z" fill="#000000" fill-rule="nonzero" fill-opacity="1" /><path clip-path="url(#clip750)" d="M662.732 821.08 L684.1 821.08 L684.1 846.804 L662.732 846.804 L662.732 821.08 Z" fill="#000000" fill-rule="nonzero" fill-opacity="1" /><path clip-path="url(#clip750)" d="M772.41 709.073 Q756.611 709.073 748.611 724.669 Q740.711 740.164 740.711 771.355 Q740.711 802.446 748.611 818.042 Q756.611 833.537 772.41 833.537 Q788.31 833.537 796.209 818.042 Q804.209 802.446 804.209 771.355 Q804.209 740.164 796.209 724.669 Q788.31 709.073 772.41 709.073 M772.41 692.869 Q797.829 692.869 811.197 713.022 Q824.666 733.074 824.666 771.355 Q824.666 809.535 811.197 829.688 Q797.829 849.74 772.41 849.74 Q746.99 849.74 733.521 829.688 Q720.153 809.535 720.153 771.355 Q720.153 733.074 733.521 713.022 Q746.99 692.869 772.41 692.869 Z" fill="#000000" fill-rule="nonzero" fill-opacity="1" /><path clip-path="url(#clip750)" d="M878.24 829.587 L949.637 829.587 L949.637 846.804 L853.63 846.804 L853.63 829.587 Q865.277 817.536 885.329 797.281 Q905.482 776.925 910.647 771.052 Q920.47 760.013 924.319 752.417 Q928.268 744.721 928.268 737.328 Q928.268 725.276 919.761 717.681 Q911.356 710.086 897.785 710.086 Q888.164 710.086 877.429 713.428 Q866.796 716.77 854.643 723.555 L854.643 702.895 Q866.998 697.933 877.733 695.401 Q888.468 692.869 897.38 692.869 Q920.875 692.869 934.851 704.617 Q948.827 716.364 948.827 736.011 Q948.827 745.328 945.282 753.734 Q941.839 762.038 932.623 773.381 Q930.091 776.318 916.521 790.395 Q902.95 804.37 878.24 829.587 Z" fill="#000000" fill-rule="nonzero" fill-opacity="1" /><path clip-path="url(#clip750)" d="M99.2657 2137.95 L213.299 2179.47 L213.299 2096.33 L99.2657 2137.95 M230.312 2207.22 L79.1124 2149.5 L79.1124 2126.3 L230.312 2068.68 L230.312 2207.22 Z" fill="#000000" fill-rule="nonzero" fill-opacity="1" /><path clip-path="url(#clip750)" d="M233.249 2011.26 Q233.249 2053.29 173.093 2053.29 Q149.294 2053.29 116.887 2037.59 L116.887 2017.54 Q149.294 2032.02 173.6 2032.02 Q217.451 2032.02 217.451 2009.54 Q217.451 1988.98 162.966 1988.98 L162.966 1971.76 Q217.451 1971.76 217.451 1951.2 Q217.451 1928.72 173.6 1928.72 Q149.294 1928.72 116.887 1943.2 L116.887 1923.15 Q149.294 1907.45 173.093 1907.45 Q233.249 1907.45 233.249 1949.48 Q233.249 1977.03 202.969 1980.37 Q233.249 1984.52 233.249 2011.26 Z" fill="#000000" fill-rule="nonzero" fill-opacity="1" /><path clip-path="url(#clip750)" d="M264.745 1787.55 L279.227 1787.55 L279.227 1895.3 L264.745 1895.3 L264.745 1787.55 Z" fill="#000000" fill-rule="nonzero" fill-opacity="1" /><path clip-path="url(#clip750)" d="M90.7588 1655.99 L112.33 1655.99 Q102.709 1666.32 97.9491 1678.07 Q93.1893 1689.72 93.1893 1702.88 Q93.1893 1728.81 109.089 1742.58 Q124.888 1756.36 154.864 1756.36 Q184.74 1756.36 200.64 1742.58 Q216.438 1728.81 216.438 1702.88 Q216.438 1689.72 211.678 1678.07 Q206.918 1666.32 197.298 1655.99 L218.666 1655.99 Q225.958 1666.73 229.604 1678.78 Q233.249 1690.73 233.249 1704.1 Q233.249 1738.43 212.286 1758.18 Q191.221 1777.93 154.864 1777.93 Q118.406 1777.93 97.4428 1758.18 Q76.3781 1738.43 76.3781 1704.1 Q76.3781 1690.53 80.0239 1678.58 Q83.5684 1666.53 90.7588 1655.99 Z" fill="#000000" fill-rule="nonzero" fill-opacity="1" /><path clip-path="url(#clip750)" d="M92.9868 1563.03 Q92.9868 1585.31 109.595 1598.47 Q126.204 1611.54 154.864 1611.54 Q183.423 1611.54 200.032 1598.47 Q216.641 1585.31 216.641 1563.03 Q216.641 1540.75 200.032 1527.78 Q183.423 1514.72 154.864 1514.72 Q126.204 1514.72 109.595 1527.78 Q92.9868 1540.75 92.9868 1563.03 M76.3781 1563.03 Q76.3781 1531.23 97.7466 1512.19 Q119.014 1493.15 154.864 1493.15 Q190.614 1493.15 211.982 1512.19 Q233.249 1531.23 233.249 1563.03 Q233.249 1594.93 211.982 1614.07 Q190.715 1633.11 154.864 1633.11 Q119.014 1633.11 97.7466 1614.07 Q76.3781 1594.93 76.3781 1563.03 Z" fill="#000000" fill-rule="nonzero" fill-opacity="1" /><path clip-path="url(#clip750)" d="M79.1124 1461.15 L79.1124 1440.69 L230.312 1440.69 L230.312 1461.15 L79.1124 1461.15 Z" fill="#000000" fill-rule="nonzero" fill-opacity="1" /><path clip-path="url(#clip750)" d="M72.9348 1290.1 Q96.2275 1303.67 119.014 1310.25 Q141.8 1316.83 165.194 1316.83 Q188.588 1316.83 211.577 1310.25 Q234.465 1303.57 257.656 1290.1 L257.656 1306.3 Q233.857 1321.49 210.868 1329.09 Q187.879 1336.58 165.194 1336.58 Q142.61 1336.58 119.723 1329.09 Q96.8351 1321.59 72.9348 1306.3 L72.9348 1290.1 Z" fill="#000000" fill-rule="nonzero" fill-opacity="1" /><path clip-path="url(#clip750)" d="M213.299 1235.92 L273.455 1235.92 L273.455 1254.65 L116.887 1254.65 L116.887 1235.92 L134.103 1235.92 Q123.976 1230.04 119.115 1221.13 Q114.153 1212.12 114.153 1199.66 Q114.153 1179 130.559 1166.14 Q146.965 1153.18 173.701 1153.18 Q200.437 1153.18 216.843 1166.14 Q233.249 1179 233.249 1199.66 Q233.249 1212.12 228.388 1221.13 Q223.426 1230.04 213.299 1235.92 M173.701 1172.52 Q153.143 1172.52 141.496 1181.03 Q129.749 1189.43 129.749 1204.22 Q129.749 1219 141.496 1227.51 Q153.143 1235.92 173.701 1235.92 Q194.259 1235.92 206.007 1227.51 Q217.653 1219 217.653 1204.22 Q217.653 1189.43 206.007 1181.03 Q194.259 1172.52 173.701 1172.52 Z" fill="#000000" fill-rule="nonzero" fill-opacity="1" /><path clip-path="url(#clip750)" d="M204.589 1119.65 L204.589 1098.29 L230.312 1098.29 L230.312 1119.65 L204.589 1119.65 Z" fill="#000000" fill-rule="nonzero" fill-opacity="1" /><path clip-path="url(#clip750)" d="M185.55 1058.28 L116.887 1058.28 L116.887 1039.65 L184.841 1039.65 Q200.943 1039.65 209.045 1033.37 Q217.046 1027.09 217.046 1014.53 Q217.046 999.444 207.425 990.734 Q197.804 981.923 181.195 981.923 L116.887 981.923 L116.887 963.289 L230.312 963.289 L230.312 981.923 L212.894 981.923 Q223.223 988.709 228.287 997.722 Q233.249 1006.63 233.249 1018.48 Q233.249 1038.03 221.097 1048.16 Q208.944 1058.28 185.55 1058.28 M114.153 1011.39 L114.153 1011.39 Z" fill="#000000" fill-rule="nonzero" fill-opacity="1" /><path clip-path="url(#clip750)" d="M204.589 922.274 L204.589 900.905 L230.312 900.905 L230.312 922.274 L204.589 922.274 Z" fill="#000000" fill-rule="nonzero" fill-opacity="1" /><path clip-path="url(#clip750)" d="M72.9348 861.915 L72.9348 845.712 Q96.8351 830.521 119.723 823.027 Q142.61 815.431 165.194 815.431 Q187.879 815.431 210.868 823.027 Q233.857 830.521 257.656 845.712 L257.656 861.915 Q234.465 848.446 211.577 841.863 Q188.588 835.179 165.194 835.179 Q141.8 835.179 119.014 841.863 Q96.2275 848.446 72.9348 861.915 Z" fill="#000000" fill-rule="nonzero" fill-opacity="1" /><path clip-path="url(#clip750)" d="M1400.83 40.2313 L1400.83 63.0321 Q1387.52 56.6664 1375.71 53.5414 Q1363.91 50.4164 1352.91 50.4164 Q1333.82 50.4164 1323.4 57.8238 Q1313.1 65.2311 1313.1 78.8885 Q1313.1 90.3467 1319.93 96.2495 Q1326.87 102.036 1346.08 105.624 L1360.2 108.518 Q1386.36 113.495 1398.75 126.11 Q1411.25 138.61 1411.25 159.675 Q1411.25 184.791 1394.35 197.754 Q1377.56 210.716 1345.04 210.716 Q1332.77 210.716 1318.88 207.939 Q1305.11 205.161 1290.3 199.721 L1290.3 175.647 Q1304.53 183.633 1318.19 187.684 Q1331.85 191.735 1345.04 191.735 Q1365.06 191.735 1375.94 183.865 Q1386.82 175.994 1386.82 161.411 Q1386.82 148.68 1378.95 141.504 Q1371.2 134.328 1353.38 130.74 L1339.14 127.962 Q1312.98 122.754 1301.29 111.643 Q1289.6 100.532 1289.6 80.7403 Q1289.6 57.8238 1305.69 44.6294 Q1321.89 31.435 1350.25 31.435 Q1362.4 31.435 1375.02 33.6341 Q1387.63 35.8331 1400.83 40.2313 Z" fill="#000000" fill-rule="nonzero" fill-opacity="1" /><path clip-path="url(#clip750)" d="M1467.38 187.916 L1467.38 256.665 L1445.97 256.665 L1445.97 77.7311 L1467.38 77.7311 L1467.38 97.4069 Q1474.09 85.8329 1484.28 80.2773 Q1494.58 74.6061 1508.81 74.6061 Q1532.43 74.6061 1547.12 93.356 Q1561.94 112.106 1561.94 142.661 Q1561.94 173.217 1547.12 191.967 Q1532.43 210.716 1508.81 210.716 Q1494.58 210.716 1484.28 205.161 Q1474.09 199.49 1467.38 187.916 M1539.83 142.661 Q1539.83 119.166 1530.11 105.856 Q1520.5 92.4301 1503.61 92.4301 Q1486.71 92.4301 1476.99 105.856 Q1467.38 119.166 1467.38 142.661 Q1467.38 166.157 1476.99 179.582 Q1486.71 192.892 1503.61 192.892 Q1520.5 192.892 1530.11 179.582 Q1539.83 166.157 1539.83 142.661 Z" fill="#000000" fill-rule="nonzero" fill-opacity="1" /><path clip-path="url(#clip750)" d="M1708.12 137.221 L1708.12 147.638 L1610.2 147.638 Q1611.59 169.629 1623.4 181.203 Q1635.32 192.661 1656.5 192.661 Q1668.77 192.661 1680.23 189.652 Q1691.8 186.643 1703.14 180.624 L1703.14 200.763 Q1691.68 205.624 1679.65 208.17 Q1667.61 210.716 1655.23 210.716 Q1624.21 210.716 1606.04 192.661 Q1587.98 174.606 1587.98 143.819 Q1587.98 111.99 1605.11 93.356 Q1622.36 74.6061 1651.52 74.6061 Q1677.68 74.6061 1692.84 91.5041 Q1708.12 108.286 1708.12 137.221 M1686.82 130.972 Q1686.59 113.495 1676.98 103.078 Q1667.49 92.6615 1651.75 92.6615 Q1633.93 92.6615 1623.17 102.731 Q1612.52 112.8 1610.9 131.087 L1686.82 130.972 Z" fill="#000000" fill-rule="nonzero" fill-opacity="1" /><path clip-path="url(#clip750)" d="M1853.95 137.221 L1853.95 147.638 L1756.03 147.638 Q1757.42 169.629 1769.23 181.203 Q1781.15 192.661 1802.33 192.661 Q1814.6 192.661 1826.06 189.652 Q1837.63 186.643 1848.97 180.624 L1848.97 200.763 Q1837.52 205.624 1825.48 208.17 Q1813.44 210.716 1801.06 210.716 Q1770.04 210.716 1751.87 192.661 Q1733.81 174.606 1733.81 143.819 Q1733.81 111.99 1750.94 93.356 Q1768.19 74.6061 1797.35 74.6061 Q1823.51 74.6061 1838.67 91.5041 Q1853.95 108.286 1853.95 137.221 M1832.65 130.972 Q1832.42 113.495 1822.82 103.078 Q1813.33 92.6615 1797.59 92.6615 Q1779.76 92.6615 1769 102.731 Q1758.35 112.8 1756.73 131.087 L1832.65 130.972 Z" fill="#000000" fill-rule="nonzero" fill-opacity="1" /><path clip-path="url(#clip750)" d="M1974.21 97.4069 L1974.21 27.2684 L1995.5 27.2684 L1995.5 207.36 L1974.21 207.36 L1974.21 187.916 Q1967.49 199.49 1957.19 205.161 Q1947.01 210.716 1932.65 210.716 Q1909.16 210.716 1894.34 191.967 Q1879.65 173.217 1879.65 142.661 Q1879.65 112.106 1894.34 93.356 Q1909.16 74.6061 1932.65 74.6061 Q1947.01 74.6061 1957.19 80.2773 Q1967.49 85.8329 1974.21 97.4069 M1901.64 142.661 Q1901.64 166.157 1911.24 179.582 Q1920.96 192.892 1937.86 192.892 Q1954.76 192.892 1964.48 179.582 Q1974.21 166.157 1974.21 142.661 Q1974.21 119.166 1964.48 105.856 Q1954.76 92.4301 1937.86 92.4301 Q1920.96 92.4301 1911.24 105.856 Q1901.64 119.166 1901.64 142.661 Z" fill="#000000" fill-rule="nonzero" fill-opacity="1" /><path clip-path="url(#clip750)" d="M2139.02 53.7729 L2139.02 188.147 L2167.26 188.147 Q2203.02 188.147 2219.57 171.944 Q2236.24 155.74 2236.24 120.786 Q2236.24 86.0644 2219.57 69.9765 Q2203.02 53.7729 2167.26 53.7729 L2139.02 53.7729 M2115.64 34.56 L2163.67 34.56 Q2213.9 34.56 2237.4 55.509 Q2260.89 76.3422 2260.89 120.786 Q2260.89 165.462 2237.28 186.411 Q2213.67 207.36 2163.67 207.36 L2115.64 207.36 L2115.64 34.56 Z" fill="#000000" fill-rule="nonzero" fill-opacity="1" /><path clip-path="url(#clip750)" d="M2408.11 137.221 L2408.11 147.638 L2310.2 147.638 Q2311.59 169.629 2323.39 181.203 Q2335.31 192.661 2356.49 192.661 Q2368.76 192.661 2380.22 189.652 Q2391.8 186.643 2403.14 180.624 L2403.14 200.763 Q2391.68 205.624 2379.64 208.17 Q2367.61 210.716 2355.22 210.716 Q2324.2 210.716 2306.03 192.661 Q2287.98 174.606 2287.98 143.819 Q2287.98 111.99 2305.11 93.356 Q2322.35 74.6061 2351.52 74.6061 Q2377.68 74.6061 2392.84 91.5041 Q2408.11 108.286 2408.11 137.221 M2386.82 130.972 Q2386.59 113.495 2376.98 103.078 Q2367.49 92.6615 2351.75 92.6615 Q2333.93 92.6615 2323.16 102.731 Q2312.51 112.8 2310.89 131.087 L2386.82 130.972 Z" fill="#000000" fill-rule="nonzero" fill-opacity="1" /><path clip-path="url(#clip750)" d="M2427.79 77.7311 L2450.36 77.7311 L2490.87 186.527 L2531.38 77.7311 L2553.95 77.7311 L2505.34 207.36 L2476.4 207.36 L2427.79 77.7311 Z" fill="#000000" fill-rule="nonzero" fill-opacity="1" /><path clip-path="url(#clip750)" d="M2583.35 77.7311 L2604.64 77.7311 L2604.64 207.36 L2583.35 207.36 L2583.35 77.7311 M2583.35 27.2684 L2604.64 27.2684 L2604.64 54.2358 L2583.35 54.2358 L2583.35 27.2684 Z" fill="#000000" fill-rule="nonzero" fill-opacity="1" /><path clip-path="url(#clip750)" d="M2708.11 142.198 Q2682.3 142.198 2672.35 148.101 Q2662.4 154.004 2662.4 168.24 Q2662.4 179.582 2669.8 186.295 Q2677.33 192.892 2690.17 192.892 Q2707.88 192.892 2718.53 180.393 Q2729.29 167.777 2729.29 146.944 L2729.29 142.198 L2708.11 142.198 M2750.59 133.402 L2750.59 207.36 L2729.29 207.36 L2729.29 187.684 Q2722 199.49 2711.12 205.161 Q2700.24 210.716 2684.5 210.716 Q2664.59 210.716 2652.79 199.605 Q2641.1 188.379 2641.1 169.629 Q2641.1 147.754 2655.68 136.643 Q2670.38 125.532 2699.43 125.532 L2729.29 125.532 L2729.29 123.448 Q2729.29 108.749 2719.57 100.763 Q2709.97 92.6615 2692.49 92.6615 Q2681.38 92.6615 2670.84 95.3236 Q2660.31 97.9856 2650.59 103.31 L2650.59 83.6338 Q2662.28 79.1199 2673.28 76.9209 Q2684.27 74.6061 2694.69 74.6061 Q2722.81 74.6061 2736.7 89.1893 Q2750.59 103.773 2750.59 133.402 Z" fill="#000000" fill-rule="nonzero" fill-opacity="1" /><path clip-path="url(#clip750)" d="M2815.52 40.9257 L2815.52 77.7311 L2859.39 77.7311 L2859.39 94.2819 L2815.52 94.2819 L2815.52 164.652 Q2815.52 180.508 2819.8 185.022 Q2824.2 189.536 2837.51 189.536 L2859.39 189.536 L2859.39 207.36 L2837.51 207.36 Q2812.86 207.36 2803.48 198.217 Q2794.11 188.957 2794.11 164.652 L2794.11 94.2819 L2778.48 94.2819 L2778.48 77.7311 L2794.11 77.7311 L2794.11 40.9257 L2815.52 40.9257 Z" fill="#000000" fill-rule="nonzero" fill-opacity="1" /><path clip-path="url(#clip750)" d="M2887.39 77.7311 L2908.69 77.7311 L2908.69 207.36 L2887.39 207.36 L2887.39 77.7311 M2887.39 27.2684 L2908.69 27.2684 L2908.69 54.2358 L2887.39 54.2358 L2887.39 27.2684 Z" fill="#000000" fill-rule="nonzero" fill-opacity="1" /><path clip-path="url(#clip750)" d="M3003.48 92.6615 Q2986.35 92.6615 2976.4 106.087 Q2966.45 119.398 2966.45 142.661 Q2966.45 165.925 2976.28 179.351 Q2986.24 192.661 3003.48 192.661 Q3020.5 192.661 3030.45 179.235 Q3040.4 165.809 3040.4 142.661 Q3040.4 119.629 3030.45 106.203 Q3020.5 92.6615 3003.48 92.6615 M3003.48 74.6061 Q3031.26 74.6061 3047.12 92.6615 Q3062.97 110.717 3062.97 142.661 Q3062.97 174.49 3047.12 192.661 Q3031.26 210.716 3003.48 210.716 Q2975.59 210.716 2959.73 192.661 Q2943.99 174.49 2943.99 142.661 Q2943.99 110.717 2959.73 92.6615 Q2975.59 74.6061 3003.48 74.6061 Z" fill="#000000" fill-rule="nonzero" fill-opacity="1" /><path clip-path="url(#clip750)" d="M3206.03 129.12 L3206.03 207.36 L3184.73 207.36 L3184.73 129.814 Q3184.73 111.411 3177.56 102.268 Q3170.38 93.1245 3156.03 93.1245 Q3138.78 93.1245 3128.83 104.12 Q3118.87 115.115 3118.87 134.097 L3118.87 207.36 L3097.46 207.36 L3097.46 77.7311 L3118.87 77.7311 L3118.87 97.8698 Q3126.51 86.1801 3136.81 80.3931 Q3147.23 74.6061 3160.77 74.6061 Q3183.11 74.6061 3194.57 88.4949 Q3206.03 102.268 3206.03 129.12 Z" fill="#000000" fill-rule="nonzero" fill-opacity="1" /><path clip-path="url(#clip750)" d="M3375.01 27.4999 Q3359.5 54.1201 3351.98 80.1616 Q3344.45 106.203 3344.45 132.939 Q3344.45 159.675 3351.98 185.948 Q3359.61 212.105 3375.01 238.61 L3356.49 238.61 Q3339.13 211.411 3330.45 185.138 Q3321.88 158.865 3321.88 132.939 Q3321.88 107.129 3330.45 80.9718 Q3339.01 54.8145 3356.49 27.4999 L3375.01 27.4999 Z" fill="#000000" fill-rule="nonzero" fill-opacity="1" /><path clip-path="url(#clip750)" d="M3491.44 97.6384 Q3487.85 95.555 3483.57 94.6291 Q3479.41 93.5875 3474.31 93.5875 Q3456.26 93.5875 3446.54 105.393 Q3436.93 117.083 3436.93 139.073 L3436.93 207.36 L3415.52 207.36 L3415.52 77.7311 L3436.93 77.7311 L3436.93 97.8698 Q3443.64 86.0644 3454.41 80.3931 Q3465.17 74.6061 3480.56 74.6061 Q3482.76 74.6061 3485.42 74.9533 Q3488.09 75.1848 3491.33 75.7635 L3491.44 97.6384 Z" fill="#000000" fill-rule="nonzero" fill-opacity="1" /><path clip-path="url(#clip750)" d="M3619.45 137.221 L3619.45 147.638 L3521.53 147.638 Q3522.92 169.629 3534.73 181.203 Q3546.65 192.661 3567.83 192.661 Q3580.1 192.661 3591.56 189.652 Q3603.13 186.643 3614.47 180.624 L3614.47 200.763 Q3603.02 205.624 3590.98 208.17 Q3578.94 210.716 3566.56 210.716 Q3535.54 210.716 3517.37 192.661 Q3499.31 174.606 3499.31 143.819 Q3499.31 111.99 3516.44 93.356 Q3533.69 74.6061 3562.85 74.6061 Q3589.01 74.6061 3604.17 91.5041 Q3619.45 108.286 3619.45 137.221 M3598.15 130.972 Q3597.92 113.495 3588.32 103.078 Q3578.83 92.6615 3563.09 92.6615 Q3545.26 92.6615 3534.5 102.731 Q3523.85 112.8 3522.23 131.087 L3598.15 130.972 Z" fill="#000000" fill-rule="nonzero" fill-opacity="1" /><path clip-path="url(#clip750)" d="M3720.03 27.2684 L3720.03 44.9766 L3699.66 44.9766 Q3688.2 44.9766 3683.69 49.6062 Q3679.29 54.2358 3679.29 66.2728 L3679.29 77.7311 L3714.36 77.7311 L3714.36 94.2819 L3679.29 94.2819 L3679.29 207.36 L3657.88 207.36 L3657.88 94.2819 L3637.51 94.2819 L3637.51 77.7311 L3657.88 77.7311 L3657.88 68.7033 Q3657.88 47.0599 3667.95 37.222 Q3678.02 27.2684 3699.89 27.2684 L3720.03 27.2684 Z" fill="#000000" fill-rule="nonzero" fill-opacity="1" /><path clip-path="url(#clip750)" d="M3723.62 177.962 L3748.04 177.962 L3748.04 207.36 L3723.62 207.36 L3723.62 177.962 Z" fill="#000000" fill-rule="nonzero" fill-opacity="1" /><path clip-path="url(#clip750)" d="M4001.62 47.8701 L4001.62 72.5228 Q3989.82 61.5274 3976.39 56.0877 Q3963.08 50.6479 3948.04 50.6479 Q3918.41 50.6479 3902.67 68.8191 Q3886.93 86.8745 3886.93 121.134 Q3886.93 155.277 3902.67 173.448 Q3918.41 191.504 3948.04 191.504 Q3963.08 191.504 3976.39 186.064 Q3989.82 180.624 4001.62 169.629 L4001.62 194.05 Q3989.36 202.383 3975.58 206.55 Q3961.93 210.716 3946.65 210.716 Q3907.41 210.716 3884.84 186.758 Q3862.27 162.684 3862.27 121.134 Q3862.27 79.4672 3884.84 55.509 Q3907.41 31.435 3946.65 31.435 Q3962.16 31.435 3975.81 35.6017 Q3989.59 39.6526 4001.62 47.8701 Z" fill="#000000" fill-rule="nonzero" fill-opacity="1" /><path clip-path="url(#clip750)" d="M4107.87 50.4164 Q4082.41 50.4164 4067.37 69.3978 Q4052.43 88.3792 4052.43 121.134 Q4052.43 153.772 4067.37 172.754 Q4082.41 191.735 4107.87 191.735 Q4133.34 191.735 4148.15 172.754 Q4163.08 153.772 4163.08 121.134 Q4163.08 88.3792 4148.15 69.3978 Q4133.34 50.4164 4107.87 50.4164 M4107.87 31.435 Q4144.22 31.435 4165.98 55.8562 Q4187.73 80.1616 4187.73 121.134 Q4187.73 161.99 4165.98 186.411 Q4144.22 210.716 4107.87 210.716 Q4071.42 210.716 4049.54 186.411 Q4027.78 162.106 4027.78 121.134 Q4027.78 80.1616 4049.54 55.8562 Q4071.42 31.435 4107.87 31.435 Z" fill="#000000" fill-rule="nonzero" fill-opacity="1" /><path clip-path="url(#clip750)" d="M4224.31 34.56 L4247.69 34.56 L4247.69 207.36 L4224.31 207.36 L4224.31 34.56 Z" fill="#000000" fill-rule="nonzero" fill-opacity="1" /><path clip-path="url(#clip750)" d="M4289.93 27.4999 L4308.45 27.4999 Q4325.81 54.8145 4334.38 80.9718 Q4343.06 107.129 4343.06 132.939 Q4343.06 158.865 4334.38 185.138 Q4325.81 211.411 4308.45 238.61 L4289.93 238.61 Q4305.33 212.105 4312.85 185.948 Q4320.49 159.675 4320.49 132.939 Q4320.49 106.203 4312.85 80.1616 Q4305.33 54.1201 4289.93 27.4999 Z" fill="#000000" fill-rule="nonzero" fill-opacity="1" /><polyline clip-path="url(#clip752)" style="stroke:#009af9; stroke-linecap:round; stroke-linejoin:round; stroke-width:12; stroke-opacity:1; fill:none" points="1123.22,1372.01 1130.01,1379.72 1136.8,1387.41 1143.58,1395.05 1150.37,1402.62 1157.15,1410.11 1163.94,1417.5 1170.73,1424.77 1177.51,1431.9 1184.3,1438.89 1191.08,1445.71 1197.87,1452.35 1204.66,1458.81 1211.44,1465.07 1218.23,1471.12 1225.01,1476.97 1231.8,1482.6 1238.59,1488.02 1245.37,1493.23 1252.16,1498.22 1258.94,1503.02 1265.73,1507.61 1272.52,1512.02 1279.3,1516.25 1286.09,1520.32 1292.87,1524.23 1299.66,1528.02 1306.45,1531.69 1313.23,1535.26 1320.02,1538.75 1326.8,1542.18 1326.8,1539.24 1333.59,1529.89 1340.38,1520.44 1347.16,1510.91 1353.95,1501.34 1360.73,1491.73 1367.52,1482.09 1374.31,1472.44 1381.09,1462.79 1387.88,1453.14 1394.66,1443.49 1401.45,1433.87 1408.24,1424.27 1415.02,1414.71 1421.81,1405.2 1428.59,1395.76 1435.38,1386.4 1442.17,1377.14 1448.95,1367.99 1455.74,1358.96 1462.52,1350.07 1469.31,1341.32 1476.1,1332.73 1482.88,1324.3 1489.67,1316.02 1496.45,1307.91 1503.24,1299.95 1510.03,1292.13 1516.81,1284.45 1523.6,1276.9 1530.38,1269.46 1537.17,1262.12 1543.96,1254.85 1550.74,1247.66 1557.53,1240.52 1564.31,1233.43 1571.1,1226.38 1577.89,1219.38 1584.67,1212.43 1591.46,1205.55 1598.24,1198.75 1605.03,1192.08 1611.82,1185.57 1618.6,1179.27 1625.39,1173.24 1632.17,1167.55 1638.96,1162.26 1645.75,1157.46 1652.53,1153.2 1659.32,1149.57 1666.1,1146.64 1672.89,1144.47 1679.68,1143.1 1686.46,1142.59 1693.25,1142.98 1700.03,1144.27 1706.82,1146.5 1713.61,1149.67 1720.39,1153.76 1727.18,1158.77 1733.96,1164.68 1740.75,1171.46 1747.54,1179.06 1754.32,1187.46 1761.11,1196.62 1767.89,1206.48 1774.68,1216.99 1781.47,1228.1 1788.25,1239.76 1795.04,1251.92 1801.82,1264.51 1808.61,1277.49 1815.4,1290.81 1822.18,1304.41 1828.97,1318.24 1835.75,1332.27 1842.54,1346.45 1849.33,1360.74 1856.11,1375.1 1862.9,1389.5 1869.68,1403.89 1876.47,1418.25 1883.26,1432.52 1890.04,1446.68 1896.83,1460.66 1903.61,1474.43 1910.4,1487.92 1917.19,1501.07 1923.97,1513.82 1930.76,1526.08 1937.54,1537.79 1944.33,1548.85 1951.12,1559.19 1957.9,1568.71 1964.69,1577.35 1971.47,1585.02 1978.26,1591.66 1985.05,1597.23 1991.83,1601.67 1998.62,1604.96 2005.4,1607.1 2012.19,1608.1 2018.98,1607.97 2025.76,1606.76 2032.55,1604.5 2039.33,1601.27 2046.12,1597.13 2052.91,1592.14 2059.69,1586.4 2066.48,1579.96 2073.26,1572.92 2080.05,1565.34 2086.84,1557.31 2093.62,1548.9 2100.41,1540.18 2107.19,1531.2 2113.98,1522.04 2120.77,1512.74 2127.55,1503.36 2134.34,1493.94 2141.12,1484.53 2147.91,1475.15 2154.7,1465.84 2161.48,1456.62 2168.27,1447.49 2175.05,1438.49 2181.84,1429.6 2188.63,1420.83 2195.41,1412.18 2202.2,1403.63 2208.98,1395.19 2215.77,1386.82 2222.56,1378.52 2229.34,1370.27 2236.13,1362.04 2242.91,1353.82 2249.7,1345.59 2256.49,1337.32 2263.27,1328.99 2270.06,1320.59 2276.84,1312.11 2283.63,1303.53 2290.42,1294.85 2297.2,1286.06 2303.99,1277.17 2310.77,1268.17 2317.56,1259.1 2324.35,1249.95 2331.13,1240.77 2337.92,1231.58 2344.7,1222.42 2351.49,1213.34 2358.28,1204.39 2365.06,1195.62 2371.85,1187.1 2378.63,1178.89 2385.42,1171.06 2392.21,1163.69 2398.99,1156.85 2405.78,1150.62 2412.56,1145.07 2419.35,1140.29 2426.14,1136.33 2432.92,1133.28 2439.71,1131.19 2446.49,1130.11 2453.28,1130.09 2460.07,1131.17 2466.85,1133.36 2473.64,1136.68 2480.42,1141.1 2487.21,1146.62 2494,1153.2 2500.78,1160.79 2507.57,1169.32 2514.35,1178.73 2521.14,1188.96 2527.93,1199.9 2534.71,1211.5 2541.5,1223.66 2548.28,1236.32 2555.07,1249.4 2561.86,1262.83 2568.64,1276.54 2575.43,1290.49 2582.21,1304.62 2589,1318.89 2595.79,1333.24 2602.57,1347.65 2609.36,1362.07 2616.14,1376.47 2622.93,1390.81 2629.72,1405.05 2636.5,1419.15 2643.29,1433.08 2650.07,1446.77 2656.86,1460.2 2663.65,1473.3 2670.43,1486.02 2677.22,1498.3 2684,1510.1 2690.79,1521.34 2697.58,1531.97 2704.36,1541.94 2711.15,1551.19 2717.93,1559.67 2724.72,1567.34 2731.51,1574.14 2738.29,1580.05 2745.08,1585.04 2751.86,1589.09 2758.65,1592.17 2765.44,1594.3 2772.22,1595.47 2779.01,1595.7 2785.79,1595.02 2792.58,1593.45 2799.37,1591.06 2806.15,1587.88 2812.94,1583.99 2819.72,1579.44 2826.51,1574.32 2833.3,1568.7 2840.08,1562.64 2846.87,1556.23 2853.65,1549.54 2860.44,1542.62 2867.23,1535.52 2874.01,1528.3 2880.8,1521 2887.58,1513.63 2894.37,1506.23 2901.16,1498.81 2907.94,1491.37 2914.73,1483.92 2921.51,1476.44 2928.3,1468.93 2935.09,1461.38 2941.87,1453.77 2948.66,1446.09 2955.44,1438.32 2962.23,1430.45 2969.02,1422.47 2975.8,1414.36 2982.59,1406.11 2989.37,1397.72 2996.16,1389.18 3002.95,1380.49 3009.73,1371.66 3016.52,1362.68 3023.3,1353.57 3030.09,1344.33 3036.88,1334.97 3043.66,1325.51 3050.45,1315.96 3057.23,1306.33 3064.02,1296.63 3070.81,1286.89 3077.59,1277.11 3084.38,1267.31 3091.16,1257.51 3097.95,1247.71 3104.74,1237.94 3111.52,1228.22 3118.31,1218.56 3125.09,1208.99 3131.88,1199.54 3138.67,1190.26 3145.45,1181.2 3152.24,1172.4 3159.02,1163.95 3165.81,1155.92 3172.6,1148.41 3179.38,1141.52 3186.17,1135.36 3192.95,1130.04 3199.74,1125.68 3206.53,1122.4 3213.31,1120.28 3220.1,1119.41 3226.88,1119.84 3233.67,1121.62 3240.46,1124.74 3247.24,1129.18 3254.03,1134.89 3260.81,1141.81 3267.6,1149.85 3274.39,1158.89 3281.17,1168.85 3287.96,1179.6 3294.74,1191.05 3301.53,1203.08 3308.32,1215.61 3315.1,1228.55 3321.89,1241.82 3328.67,1255.36 3335.46,1269.09 3342.25,1282.97 3349.03,1296.95 3355.82,1310.99 3362.6,1325.03 3369.39,1339.05 3376.18,1353.01 3382.96,1366.86 3389.75,1380.58 3396.53,1394.12 3403.32,1407.44 3410.11,1420.52 3416.89,1433.31 3423.68,1445.77 3430.46,1457.88 3437.25,1469.59 3444.04,1480.87 3450.82,1491.69 3457.61,1502.02 3464.39,1511.83 3471.18,1521.08 3477.97,1529.75 3484.75,1537.81 3491.54,1545.22 3498.32,1551.96 3505.11,1557.99 3511.9,1563.29 3518.68,1567.83 3525.47,1571.59 3532.25,1574.57 3539.04,1576.76 3545.83,1578.18 3552.61,1578.85 3559.4,1578.82 3566.18,1578.13 3572.97,1576.85 3579.76,1575.04 3586.54,1572.79 3593.33,1570.18 3600.11,1567.25 3606.9,1564.09 3613.69,1560.74 3620.47,1557.24 3627.26,1553.61 3634.04,1549.86 3640.83,1546 3647.62,1542.01 3654.4,1537.86 3661.19,1533.54 3667.97,1529.02 3674.76,1524.25 3681.55,1519.22 3688.33,1513.88 3695.12,1508.22 3701.9,1502.21 3708.69,1495.84 3715.48,1489.11 3722.26,1482.02 3729.05,1474.58 3735.83,1466.82 3742.62,1458.76 3749.41,1450.45 3756.19,1441.93 3762.98,1433.25 3769.76,1424.45 3776.55,1415.6 3783.34,1406.74 3790.12,1397.93 3796.91,1389.22 3803.69,1380.63 3810.48,1372.21 3817.27,1363.98 3824.05,1355.96 3830.84,1348.15 3837.62,1340.56 3844.41,1333.17 3851.2,1325.98 3857.98,1318.94 3864.77,1312.04 3871.55,1305.24 3878.34,1298.49 3885.13,1291.76 3891.91,1285 3898.7,1278.16 3905.48,1271.19 3912.27,1264.05 3919.06,1256.7 3925.84,1249.1 3932.63,1241.23 3939.41,1233.07 3946.2,1224.61 3952.99,1215.88 3959.77,1206.91 3966.56,1197.76 3973.34,1188.52 3980.13,1179.31 3986.92,1170.28 3993.7,1161.58 4000.49,1153.43 4007.27,1146 4014.06,1139.5 4020.85,1134.12 4027.63,1130.01 4034.42,1127.3 4041.2,1126.06 4047.99,1126.32 4054.78,1128.08 4061.56,1131.28 4068.35,1135.82 4075.13,1141.6 4081.92,1148.49 4088.71,1156.36 4095.49,1165.07 4102.28,1174.51 4109.06,1184.56 4115.85,1195.1 4122.64,1206.05 4129.42,1217.31 4136.21,1228.81 4142.99,1240.48 4149.78,1252.25 4156.57,1264.07 4163.35,1275.91 4170.14,1287.72 4176.92,1299.46 4183.71,1311.11 4190.5,1322.65 4197.28,1334.05 4204.07,1345.28 4210.85,1356.34 4217.64,1367.2 4224.43,1377.84 4231.21,1388.26 4238,1398.44 4244.78,1408.36 4251.57,1418.03 4258.36,1427.43 4265.14,1436.56 4271.93,1445.42 4278.71,1453.98 4285.5,1462.26 4292.29,1470.23 4299.07,1477.88 4305.86,1485.18 4312.64,1492.12 4319.43,1498.66 4326.22,1504.77 4333,1510.43 4339.79,1515.6 4346.57,1520.27 4353.36,1524.43 4360.15,1528.08 4366.93,1531.24 4373.72,1533.96 4380.5,1536.28 4387.29,1538.29 4394.08,1540.05 4400.86,1541.64 4407.65,1543.14 4414.43,1544.61 4421.22,1546.08 4428.01,1547.58 4434.79,1549.11 4441.58,1550.64 4448.36,1552.13 4455.15,1553.53 4461.94,1554.77 4468.72,1555.77 4475.51,1556.45 4482.29,1556.71 4489.08,1556.46 4495.87,1555.62 4502.65,1554.1 4509.44,1551.84 "/>
<polyline clip-path="url(#clip752)" style="stroke:#e26f46; stroke-linecap:round; stroke-linejoin:round; stroke-width:12; stroke-opacity:1; fill:none" points="1123.22,1360.81 1130.01,1346.14 1136.8,1331.48 1143.58,1316.81 1150.37,1302.15 1157.15,1287.49 1163.94,1272.83 1170.73,1258.17 1177.51,1243.52 1184.3,1228.87 1191.08,1214.24 1197.87,1199.61 1204.66,1185 1211.44,1170.41 1218.23,1155.83 1225.01,1141.29 1231.8,1126.76 1238.59,1112.27 1245.37,1097.82 1252.16,1083.41 1258.94,1069.04 1265.73,1054.72 1272.52,1040.45 1279.3,1026.24 1286.09,1012.09 1292.87,997.999 1299.66,983.976 1306.45,970.022 1313.23,956.14 1320.02,942.33 1326.8,928.596 1326.8,923.232 1333.59,926.603 1340.38,930.837 1347.16,936.049 1353.95,942.353 1360.73,949.858 1367.52,958.668 1374.31,968.883 1381.09,980.592 1387.88,993.876 1394.66,1008.8 1401.45,1025.41 1408.24,1043.75 1415.02,1063.82 1421.81,1085.61 1428.59,1109.11 1435.38,1134.25 1442.17,1160.98 1448.95,1189.21 1455.74,1218.84 1462.52,1249.79 1469.31,1281.93 1476.1,1315.16 1482.88,1349.36 1489.67,1384.45 1496.45,1420.3 1503.24,1456.83 1510.03,1493.94 1516.81,1531.54 1523.6,1569.56 1530.38,1607.89 1537.17,1646.44 1543.96,1685.11 1550.74,1723.78 1557.53,1762.3 1564.31,1800.5 1571.1,1838.2 1577.89,1875.17 1584.67,1911.16 1591.46,1945.87 1598.24,1978.99 1605.03,2010.18 1611.82,2039.08 1618.6,2065.33 1625.39,2088.56 1632.17,2108.43 1638.96,2124.64 1645.75,2136.9 1652.53,2145.02 1659.32,2148.83 1666.1,2148.25 1672.89,2143.29 1679.68,2133.99 1686.46,2120.48 1693.25,2102.96 1700.03,2081.66 1706.82,2056.86 1713.61,2028.88 1720.39,1998.06 1727.18,1964.75 1733.96,1929.31 1740.75,1892.09 1747.54,1853.45 1754.32,1813.72 1761.11,1773.25 1767.89,1732.33 1774.68,1691.25 1781.47,1650.28 1788.25,1609.66 1795.04,1569.61 1801.82,1530.32 1808.61,1491.94 1815.4,1454.6 1822.18,1418.42 1828.97,1383.45 1835.75,1349.76 1842.54,1317.35 1849.33,1286.22 1856.11,1256.35 1862.9,1227.69 1869.68,1200.18 1876.47,1173.74 1883.26,1148.3 1890.04,1123.75 1896.83,1100.02 1903.61,1077 1910.4,1054.62 1917.19,1032.8 1923.97,1011.47 1930.76,990.581 1937.54,970.095 1944.33,949.995 1951.12,930.289 1957.9,911.003 1964.69,892.188 1971.47,873.919 1978.26,856.291 1985.05,839.42 1991.83,823.437 1998.62,808.487 2005.4,794.721 2012.19,782.296 2018.98,771.365 2025.76,762.077 2032.55,754.567 2039.33,748.962 2046.12,745.368 2052.91,743.876 2059.69,744.558 2066.48,747.464 2073.26,752.627 2080.05,760.06 2086.84,769.755 2093.62,781.689 2100.41,795.817 2107.19,812.081 2113.98,830.406 2120.77,850.699 2127.55,872.86 2134.34,896.772 2141.12,922.313 2147.91,949.351 2154.7,977.753 2161.48,1007.38 2168.27,1038.1 2175.05,1069.78 2181.84,1102.3 2188.63,1135.52 2195.41,1169.36 2202.2,1203.69 2208.98,1238.43 2215.77,1273.49 2222.56,1308.79 2229.34,1344.26 2236.13,1379.84 2242.91,1415.44 2249.7,1451.02 2256.49,1486.5 2263.27,1521.8 2270.06,1556.84 2276.84,1591.54 2283.63,1625.79 2290.42,1659.49 2297.2,1692.52 2303.99,1724.74 2310.77,1756.01 2317.56,1786.2 2324.35,1815.14 2331.13,1842.67 2337.92,1868.65 2344.7,1892.9 2351.49,1915.29 2358.28,1935.67 2365.06,1953.91 2371.85,1969.91 2378.63,1983.55 2385.42,1994.77 2392.21,2003.5 2398.99,2009.71 2405.78,2013.4 2412.56,2014.56 2419.35,2013.24 2426.14,2009.51 2432.92,2003.43 2439.71,1995.13 2446.49,1984.73 2453.28,1972.37 2460.07,1958.23 2466.85,1942.47 2473.64,1925.27 2480.42,1906.82 2487.21,1887.29 2494,1866.86 2500.78,1845.67 2507.57,1823.88 2514.35,1801.59 2521.14,1778.9 2527.93,1755.89 2534.71,1732.61 2541.5,1709.07 2548.28,1685.28 2555.07,1661.21 2561.86,1636.84 2568.64,1612.11 2575.43,1586.96 2582.21,1561.31 2589,1535.08 2595.79,1508.19 2602.57,1480.56 2609.36,1452.12 2616.14,1422.79 2622.93,1392.52 2629.72,1361.26 2636.5,1328.99 2643.29,1295.71 2650.07,1261.42 2656.86,1226.19 2663.65,1190.07 2670.43,1153.16 2677.22,1115.6 2684,1077.53 2690.79,1039.15 2697.58,1000.67 2704.36,962.327 2711.15,924.383 2717.93,887.125 2724.72,850.857 2731.51,815.896 2738.29,782.571 2745.08,751.216 2751.86,722.164 2758.65,695.743 2765.44,672.265 2772.22,652.02 2779.01,635.271 2785.79,622.242 2792.58,613.111 2799.37,608.004 2806.15,606.99 2812.94,610.077 2819.72,617.209 2826.51,628.271 2833.3,643.09 2840.08,661.443 2846.87,683.063 2853.65,707.654 2860.44,734.899 2867.23,764.468 2874.01,796.036 2880.8,829.284 2887.58,863.912 2894.37,899.642 2901.16,936.223 2907.94,973.431 2914.73,1011.07 2921.51,1048.97 2928.3,1086.98 2935.09,1124.99 2941.87,1162.87 2948.66,1200.53 2955.44,1237.89 2962.23,1274.85 2969.02,1311.35 2975.8,1347.28 2982.59,1382.57 2989.37,1417.13 2996.16,1450.85 3002.95,1483.64 3009.73,1515.4 3016.52,1546.01 3023.3,1575.39 3030.09,1603.43 3036.88,1630.05 3043.66,1655.15 3050.45,1678.69 3057.23,1700.61 3064.02,1720.88 3070.81,1739.49 3077.59,1756.44 3084.38,1771.74 3091.16,1785.45 3097.95,1797.6 3104.74,1808.27 3111.52,1817.52 3118.31,1825.44 3125.09,1832.11 3131.88,1837.63 3138.67,1842.09 3145.45,1845.58 3152.24,1848.23 3159.02,1850.12 3165.81,1851.37 3172.6,1852.09 3179.38,1852.39 3186.17,1852.4 3192.95,1852.21 3199.74,1851.94 3206.53,1851.67 3213.31,1851.47 3220.1,1851.41 3226.88,1851.5 3233.67,1851.75 3240.46,1852.1 3247.24,1852.51 3254.03,1852.85 3260.81,1853.02 3267.6,1852.85 3274.39,1852.17 3281.17,1850.8 3287.96,1848.54 3294.74,1845.16 3301.53,1840.47 3308.32,1834.24 3315.1,1826.24 3321.89,1816.27 3328.67,1804.1 3335.46,1789.52 3342.25,1772.37 3349.03,1752.46 3355.82,1729.68 3362.6,1703.91 3369.39,1675.13 3376.18,1643.31 3382.96,1608.52 3389.75,1570.85 3396.53,1530.44 3403.32,1487.5 3410.11,1442.24 3416.89,1394.92 3423.68,1345.81 3430.46,1295.2 3437.25,1243.38 3444.04,1190.64 3450.82,1137.29 3457.61,1083.62 3464.39,1029.94 3471.18,976.56 3477.97,923.812 3484.75,872.041 3491.54,821.623 3498.32,772.962 3505.11,726.498 3511.9,682.701 3518.68,642.071 3525.47,605.123 3532.25,572.377 3539.04,544.335 3545.83,521.455 3552.61,504.128 3559.4,492.646 3566.18,487.184 3572.97,487.78 3579.76,494.329 3586.54,506.584 3593.33,524.174 3600.11,546.624 3606.9,573.387 3613.69,603.875 3620.47,637.488 3627.26,673.649 3634.04,711.816 3640.83,751.505 3647.62,792.293 3654.4,833.826 3661.19,875.808 3667.97,918.003 3674.76,960.22 3681.55,1002.31 3688.33,1044.14 3695.12,1085.61 3701.9,1126.61 3708.69,1167.04 3715.48,1206.79 3722.26,1245.73 3729.05,1283.73 3735.83,1320.62 3742.62,1356.25 3749.41,1390.42 3756.19,1422.96 3762.98,1453.68 3769.76,1482.4 3776.55,1508.96 3783.34,1533.24 3790.12,1555.12 3796.91,1574.55 3803.69,1591.49 3810.48,1605.95 3817.27,1617.98 3824.05,1627.67 3830.84,1635.14 3837.62,1640.52 3844.41,1643.99 3851.2,1645.7 3857.98,1645.87 3864.77,1644.65 3871.55,1642.26 3878.34,1638.87 3885.13,1634.67 3891.91,1629.83 3898.7,1624.52 3905.48,1618.93 3912.27,1613.2 3919.06,1607.53 3925.84,1602.07 3932.63,1597.03 3939.41,1592.59 3946.2,1588.95 3952.99,1586.33 3959.77,1584.97 3966.56,1585.08 3973.34,1586.91 3980.13,1590.68 3986.92,1596.58 3993.7,1604.8 4000.49,1615.44 4007.27,1628.58 4014.06,1644.18 4020.85,1662.18 4027.63,1682.38 4034.42,1704.55 4041.2,1728.38 4047.99,1753.52 4054.78,1779.59 4061.56,1806.19 4068.35,1832.93 4075.13,1859.42 4081.92,1885.29 4088.71,1910.16 4095.49,1933.68 4102.28,1955.47 4109.06,1975.16 4115.85,1992.32 4122.64,2006.52 4129.42,2017.3 4136.21,2024.16 4142.99,2026.61 4149.78,2024.2 4156.57,2016.51 4163.35,2003.22 4170.14,1984.15 4176.92,1959.25 4183.71,1928.64 4190.5,1892.6 4197.28,1851.54 4204.07,1805.99 4210.85,1756.55 4217.64,1703.85 4224.43,1648.51 4231.21,1591.11 4238,1532.18 4244.78,1472.14 4251.57,1411.38 4258.36,1350.18 4265.14,1288.77 4271.93,1227.32 4278.71,1165.96 4285.5,1104.84 4292.29,1044.06 4299.07,983.78 4305.86,924.2 4312.64,865.578 4319.43,808.254 4326.22,752.668 4333,699.363 4339.79,648.986 4346.57,602.277 4353.36,560.045 4360.15,523.123 4366.93,492.316 4373.72,468.334 4380.5,451.727 4387.29,442.825 4394.08,441.702 4400.86,448.158 4407.65,461.742 4414.43,481.793 4421.22,507.505 4428.01,537.996 4434.79,572.378 4441.58,609.814 4448.36,649.554 4455.15,690.964 4461.94,733.529 4468.72,776.848 4475.51,820.625 4482.29,864.645 4489.08,908.754 4495.87,952.842 4502.65,996.815 4509.44,1040.58 "/>
<polyline clip-path="url(#clip752)" style="stroke:#3da44d; stroke-linecap:round; stroke-linejoin:round; stroke-width:12; stroke-opacity:1; fill:none" points="1123.22,1353.4 1130.01,1323.98 1136.8,1294.79 1143.58,1265.97 1150.37,1237.67 1157.15,1210.02 1163.94,1183.17 1170.73,1157.25 1177.51,1132.37 1184.3,1108.66 1191.08,1086.22 1197.87,1065.14 1204.66,1045.49 1211.44,1027.36 1218.23,1010.79 1225.01,995.804 1231.8,982.435 1238.59,970.68 1245.37,960.521 1252.16,951.926 1258.94,944.843 1265.73,939.206 1272.52,934.931 1279.3,931.922 1286.09,930.07 1292.87,929.253 1299.66,929.342 1306.45,930.197 1313.23,931.673 1320.02,933.619 1326.8,935.883 1326.8,970.394 1333.59,1036.65 1340.38,1101.88 1347.16,1165.6 1353.95,1227.4 1360.73,1286.92 1367.52,1343.85 1374.31,1397.9 1381.09,1448.83 1387.88,1496.4 1394.66,1540.42 1401.45,1580.7 1408.24,1617.1 1415.02,1649.51 1421.81,1677.82 1428.59,1702.01 1435.38,1722.05 1442.17,1737.97 1448.95,1749.83 1455.74,1757.72 1462.52,1761.76 1469.31,1762.11 1476.1,1758.93 1482.88,1752.44 1489.67,1742.83 1496.45,1730.33 1503.24,1715.19 1510.03,1697.65 1516.81,1677.99 1523.6,1656.48 1530.38,1633.42 1537.17,1609.13 1543.96,1583.95 1550.74,1558.24 1557.53,1532.4 1564.31,1506.85 1571.1,1482.04 1577.89,1458.42 1584.67,1436.5 1591.46,1416.77 1598.24,1399.71 1605.03,1385.81 1611.82,1375.5 1618.6,1369.16 1625.39,1367.1 1632.17,1369.54 1638.96,1376.61 1645.75,1388.28 1652.53,1404.43 1659.32,1424.82 1666.1,1449.07 1672.89,1476.73 1679.68,1507.22 1686.46,1539.93 1693.25,1574.18 1700.03,1609.27 1706.82,1644.48 1713.61,1679.11 1720.39,1712.48 1727.18,1743.95 1733.96,1772.93 1740.75,1798.87 1747.54,1821.28 1754.32,1839.75 1761.11,1853.92 1767.89,1863.51 1774.68,1868.3 1781.47,1868.12 1788.25,1862.89 1795.04,1852.58 1801.82,1837.22 1808.61,1816.87 1815.4,1791.68 1822.18,1761.81 1828.97,1727.49 1835.75,1688.95 1842.54,1646.5 1849.33,1600.46 1856.11,1551.18 1862.9,1499.05 1869.68,1444.5 1876.47,1387.98 1883.26,1329.97 1890.04,1271 1896.83,1211.62 1903.61,1152.44 1910.4,1094.07 1917.19,1037.16 1923.97,982.412 1930.76,930.504 1937.54,882.135 1944.33,837.988 1951.12,798.713 1957.9,764.906 1964.69,737.085 1971.47,715.674 1978.26,700.977 1985.05,693.166 1991.83,692.271 1998.62,698.177 2005.4,710.625 2012.19,729.226 2018.98,753.472 2025.76,782.761 2032.55,816.419 2039.33,853.718 2046.12,893.907 2052.91,936.224 2059.69,979.923 2066.48,1024.28 2073.26,1068.62 2080.05,1112.3 2086.84,1154.75 2093.62,1195.44 2100.41,1233.94 2107.19,1269.85 2113.98,1302.87 2120.77,1332.73 2127.55,1359.27 2134.34,1382.38 2141.12,1402 2147.91,1418.15 2154.7,1430.9 2161.48,1440.35 2168.27,1446.68 2175.05,1450.07 2181.84,1450.75 2188.63,1448.97 2195.41,1444.99 2202.2,1439.09 2208.98,1431.57 2215.77,1422.72 2222.56,1412.84 2229.34,1402.23 2236.13,1391.2 2242.91,1380.05 2249.7,1369.08 2256.49,1358.61 2263.27,1348.94 2270.06,1340.37 2276.84,1333.21 2283.63,1327.75 2290.42,1324.29 2297.2,1323.1 2303.99,1324.45 2310.77,1328.57 2317.56,1335.69 2324.35,1345.96 2331.13,1359.53 2337.92,1376.48 2344.7,1396.83 2351.49,1420.55 2358.28,1447.54 2365.06,1477.62 2371.85,1510.55 2378.63,1546.02 2385.42,1583.64 2392.21,1622.96 2398.99,1663.46 2405.78,1704.56 2412.56,1745.65 2419.35,1786.04 2426.14,1825.05 2432.92,1861.95 2439.71,1896.04 2446.49,1926.62 2453.28,1953.01 2460.07,1974.62 2466.85,1990.91 2473.64,2001.45 2480.42,2005.91 2487.21,2004.08 2494,1995.87 2500.78,1981.35 2507.57,1960.67 2514.35,1934.12 2521.14,1902.08 2527.93,1865.02 2534.71,1823.45 2541.5,1777.96 2548.28,1729.15 2555.07,1677.61 2561.86,1623.97 2568.64,1568.82 2575.43,1512.75 2582.21,1456.32 2589,1400.05 2595.79,1344.47 2602.57,1290.06 2609.36,1237.27 2616.14,1186.55 2622.93,1138.3 2629.72,1092.91 2636.5,1050.76 2643.29,1012.19 2650.07,977.501 2656.86,946.995 2663.65,920.92 2670.43,899.489 2677.22,882.871 2684,871.184 2690.79,864.491 2697.58,862.793 2704.36,866.025 2711.15,874.053 2717.93,886.67 2724.72,903.599 2731.51,924.489 2738.29,948.92 2745.08,976.41 2751.86,1006.41 2758.65,1038.34 2765.44,1071.56 2772.22,1105.41 2779.01,1139.21 2785.79,1172.29 2792.58,1203.98 2799.37,1233.67 2806.15,1260.77 2812.94,1284.8 2819.72,1305.32 2826.51,1322.02 2833.3,1334.68 2840.08,1343.19 2846.87,1347.56 2853.65,1347.86 2860.44,1344.31 2867.23,1337.15 2874.01,1326.73 2880.8,1313.41 2887.58,1297.61 2894.37,1279.75 2901.16,1260.26 2907.94,1239.58 2914.73,1218.11 2921.51,1196.25 2928.3,1174.4 2935.09,1152.91 2941.87,1132.12 2948.66,1112.36 2955.44,1093.94 2962.23,1077.14 2969.02,1062.26 2975.8,1049.56 2982.59,1039.29 2989.37,1031.72 2996.16,1027.07 3002.95,1025.57 3009.73,1027.43 3016.52,1032.83 3023.3,1041.94 3030.09,1054.9 3036.88,1071.8 3043.66,1092.73 3050.45,1117.71 3057.23,1146.74 3064.02,1179.77 3070.81,1216.73 3077.59,1257.49 3084.38,1301.9 3091.16,1349.76 3097.95,1400.85 3104.74,1454.9 3111.52,1511.62 3118.31,1570.65 3125.09,1631.61 3131.88,1694.05 3138.67,1757.45 3145.45,1821.22 3152.24,1884.67 3159.02,1947.03 3165.81,2007.43 3172.6,2064.89 3179.38,2118.37 3186.17,2166.75 3192.95,2208.91 3199.74,2243.71 3206.53,2270.1 3213.31,2287.16 3220.1,2294.14 3226.88,2290.53 3233.67,2276.07 3240.46,2250.8 3247.24,2215.06 3254.03,2169.43 3260.81,2114.74 3267.6,2052.01 3274.39,1982.39 3281.17,1907.12 3287.96,1827.49 3294.74,1744.77 3301.53,1660.23 3308.32,1575.07 3315.1,1490.45 3321.89,1407.43 3328.67,1327.02 3335.46,1250.13 3342.25,1177.58 3349.03,1110.11 3355.82,1048.35 3362.6,992.808 3369.39,943.912 3376.18,901.957 3382.96,867.129 3389.75,839.507 3396.53,819.07 3403.32,805.709 3410.11,799.238 3416.89,799.412 3423.68,805.936 3430.46,818.485 3437.25,836.708 3444.04,860.236 3450.82,888.691 3457.61,921.679 3464.39,958.794 3471.18,999.607 3477.97,1043.66 3484.75,1090.45 3491.54,1139.43 3498.32,1189.98 3505.11,1241.4 3511.9,1292.91 3518.68,1343.65 3525.47,1392.64 3532.25,1438.88 3539.04,1481.29 3545.83,1518.79 3552.61,1550.36 3559.4,1575.06 3566.18,1592.1 3572.97,1600.91 3579.76,1601.14 3586.54,1592.74 3593.33,1575.91 3600.11,1551.11 3606.9,1519.03 3613.69,1480.52 3620.47,1436.55 3627.26,1388.18 3634.04,1336.45 3640.83,1282.42 3647.62,1227.06 3654.4,1171.29 3661.19,1115.94 3667.97,1061.77 3674.76,1009.43 3681.55,959.487 3688.33,912.453 3695.12,868.759 3701.9,828.776 3708.69,792.826 3715.48,761.181 3722.26,734.073 3729.05,711.695 3735.83,694.204 3742.62,681.722 3749.41,674.333 3756.19,672.085 3762.98,674.984 3769.76,682.992 3776.55,696.028 3783.34,713.96 3790.12,736.616 3796.91,763.777 3803.69,795.189 3810.48,830.569 3817.27,869.612 3824.05,912.007 3830.84,957.443 3837.62,1005.62 3844.41,1056.28 3851.2,1109.16 3857.98,1164.07 3864.77,1220.84 3871.55,1279.36 3878.34,1339.54 3885.13,1401.34 3891.91,1464.75 3898.7,1529.77 3905.48,1596.39 3912.27,1664.62 3919.06,1734.42 3925.84,1805.67 3932.63,1878.22 3939.41,1951.78 3946.2,2025.92 3952.99,2100.06 3959.77,2173.42 3966.56,2245.04 3973.34,2313.71 3980.13,2378.03 3986.92,2436.44 3993.7,2487.24 4000.49,2528.68 4007.27,2559.09 4014.06,2576.93 4020.85,2580.95 4027.63,2570.27 4034.42,2544.44 4041.2,2503.49 4047.99,2447.94 4054.78,2378.7 4061.56,2297.05 4068.35,2204.51 4075.13,2102.8 4081.92,1993.7 4088.71,1879.01 4095.49,1760.54 4102.28,1640.06 4109.06,1519.31 4115.85,1400 4122.64,1283.84 4129.42,1172.48 4136.21,1067.6 4142.99,970.761 4149.78,883.432 4156.57,806.896 4163.35,742.181 4170.14,690.001 4176.92,650.708 4183.71,624.276 4190.5,610.313 4197.28,608.11 4204.07,616.709 4210.85,634.991 4217.64,661.759 4224.43,695.822 4231.21,736.056 4238,781.452 4244.78,831.145 4251.57,884.418 4258.36,940.705 4265.14,999.572 4271.93,1060.7 4278.71,1123.84 4285.5,1188.82 4292.29,1255.45 4299.07,1323.56 4305.86,1392.87 4312.64,1463.05 4319.43,1533.58 4326.22,1603.76 4333,1672.67 4339.79,1739.15 4346.57,1801.79 4353.36,1858.93 4360.15,1908.76 4366.93,1949.42 4373.72,1979.08 4380.5,1996.12 4387.29,1999.31 4394.08,1987.87 4400.86,1961.63 4407.65,1920.96 4414.43,1866.81 4421.22,1800.58 4428.01,1723.97 4434.79,1638.88 4441.58,1547.27 4448.36,1451.04 4455.15,1351.98 4461.94,1251.74 4468.72,1151.78 4475.51,1053.4 4482.29,957.77 4489.08,865.925 4495.87,778.791 4502.65,697.207 4509.44,621.928 "/>
<polyline clip-path="url(#clip752)" style="stroke:#ff00ff; stroke-linecap:round; stroke-linejoin:round; stroke-width:4; stroke-opacity:1; fill:none" stroke-dasharray="16, 10" points="1326.8,4912.73 1326.8,-1890.08 "/>
<path clip-path="url(#clip750)" d="M1141.28 2569.54 L1658.73 2569.54 L1658.73 2083.54 L1141.28 2083.54  Z" fill="#ffffff" fill-rule="evenodd" fill-opacity="1"/>
<polyline clip-path="url(#clip750)" style="stroke:#000000; stroke-linecap:round; stroke-linejoin:round; stroke-width:4; stroke-opacity:1; fill:none" points="1141.28,2569.54 1658.73,2569.54 1658.73,2083.54 1141.28,2083.54 1141.28,2569.54 "/>
<polyline clip-path="url(#clip750)" style="stroke:#009af9; stroke-linecap:round; stroke-linejoin:round; stroke-width:22.5; stroke-opacity:1; fill:none" points="1181.17,2180.74 1420.46,2180.74 "/>
<path clip-path="url(#clip750)" d="M1508.26 2203.9 L1508.26 2186.49 L1493.93 2186.49 L1493.93 2179.29 L1516.94 2179.29 L1516.94 2207.11 Q1511.86 2210.71 1505.74 2212.58 Q1499.62 2214.4 1492.67 2214.4 Q1477.48 2214.4 1468.89 2205.55 Q1460.34 2196.65 1460.34 2180.81 Q1460.34 2164.92 1468.89 2156.07 Q1477.48 2147.17 1492.67 2147.17 Q1499.01 2147.17 1504.7 2148.73 Q1510.43 2150.29 1515.24 2153.33 L1515.24 2162.66 Q1510.38 2158.54 1504.91 2156.46 Q1499.45 2154.37 1493.41 2154.37 Q1481.52 2154.37 1475.53 2161.01 Q1469.58 2167.65 1469.58 2180.81 Q1469.58 2193.91 1475.53 2200.55 Q1481.52 2207.19 1493.41 2207.19 Q1498.06 2207.19 1501.7 2206.41 Q1505.35 2205.59 1508.26 2203.9 Z" fill="#000000" fill-rule="nonzero" fill-opacity="1" /><path clip-path="url(#clip750)" d="M1535.25 2205.76 L1549.58 2205.76 L1549.58 2156.33 L1533.99 2159.45 L1533.99 2151.47 L1549.49 2148.34 L1558.26 2148.34 L1558.26 2205.76 L1572.58 2205.76 L1572.58 2213.14 L1535.25 2213.14 L1535.25 2205.76 Z" fill="#000000" fill-rule="nonzero" fill-opacity="1" /><polyline clip-path="url(#clip750)" style="stroke:#e26f46; stroke-linecap:round; stroke-linejoin:round; stroke-width:22.5; stroke-opacity:1; fill:none" points="1181.17,2277.94 1420.46,2277.94 "/>
<path clip-path="url(#clip750)" d="M1508.26 2301.1 L1508.26 2283.69 L1493.93 2283.69 L1493.93 2276.49 L1516.94 2276.49 L1516.94 2304.31 Q1511.86 2307.91 1505.74 2309.78 Q1499.62 2311.6 1492.67 2311.6 Q1477.48 2311.6 1468.89 2302.75 Q1460.34 2293.85 1460.34 2278.01 Q1460.34 2262.12 1468.89 2253.27 Q1477.48 2244.37 1492.67 2244.37 Q1499.01 2244.37 1504.7 2245.93 Q1510.43 2247.49 1515.24 2250.53 L1515.24 2259.86 Q1510.38 2255.74 1504.91 2253.66 Q1499.45 2251.57 1493.41 2251.57 Q1481.52 2251.57 1475.53 2258.21 Q1469.58 2264.85 1469.58 2278.01 Q1469.58 2291.11 1475.53 2297.75 Q1481.52 2304.39 1493.41 2304.39 Q1498.06 2304.39 1501.7 2303.61 Q1505.35 2302.79 1508.26 2301.1 Z" fill="#000000" fill-rule="nonzero" fill-opacity="1" /><path clip-path="url(#clip750)" d="M1541.29 2302.96 L1571.88 2302.96 L1571.88 2310.34 L1530.74 2310.34 L1530.74 2302.96 Q1535.73 2297.8 1544.32 2289.12 Q1552.96 2280.39 1555.17 2277.88 Q1559.38 2273.14 1561.03 2269.89 Q1562.73 2266.59 1562.73 2263.42 Q1562.73 2258.26 1559.08 2255 Q1555.48 2251.75 1549.66 2251.75 Q1545.54 2251.75 1540.94 2253.18 Q1536.38 2254.61 1531.17 2257.52 L1531.17 2248.67 Q1536.47 2246.54 1541.07 2245.45 Q1545.67 2244.37 1549.49 2244.37 Q1559.56 2244.37 1565.55 2249.4 Q1571.54 2254.44 1571.54 2262.86 Q1571.54 2266.85 1570.02 2270.45 Q1568.54 2274.01 1564.59 2278.87 Q1563.51 2280.13 1557.69 2286.17 Q1551.88 2292.16 1541.29 2302.96 Z" fill="#000000" fill-rule="nonzero" fill-opacity="1" /><polyline clip-path="url(#clip750)" style="stroke:#3da44d; stroke-linecap:round; stroke-linejoin:round; stroke-width:22.5; stroke-opacity:1; fill:none" points="1181.17,2375.14 1420.46,2375.14 "/>
<path clip-path="url(#clip750)" d="M1508.26 2398.3 L1508.26 2380.89 L1493.93 2380.89 L1493.93 2373.69 L1516.94 2373.69 L1516.94 2401.51 Q1511.86 2405.11 1505.74 2406.98 Q1499.62 2408.8 1492.67 2408.8 Q1477.48 2408.8 1468.89 2399.95 Q1460.34 2391.05 1460.34 2375.21 Q1460.34 2359.32 1468.89 2350.47 Q1477.48 2341.57 1492.67 2341.57 Q1499.01 2341.57 1504.7 2343.13 Q1510.43 2344.69 1515.24 2347.73 L1515.24 2357.06 Q1510.38 2352.94 1504.91 2350.86 Q1499.45 2348.77 1493.41 2348.77 Q1481.52 2348.77 1475.53 2355.41 Q1469.58 2362.05 1469.58 2375.21 Q1469.58 2388.31 1475.53 2394.95 Q1481.52 2401.59 1493.41 2401.59 Q1498.06 2401.59 1501.7 2400.81 Q1505.35 2399.99 1508.26 2398.3 Z" fill="#000000" fill-rule="nonzero" fill-opacity="1" /><path clip-path="url(#clip750)" d="M1560.3 2372.6 Q1566.59 2373.95 1570.1 2378.2 Q1573.66 2382.45 1573.66 2388.7 Q1573.66 2398.3 1567.07 2403.55 Q1560.47 2408.8 1548.32 2408.8 Q1544.24 2408.8 1539.9 2407.97 Q1535.6 2407.19 1531 2405.59 L1531 2397.12 Q1534.64 2399.25 1538.99 2400.34 Q1543.33 2401.42 1548.06 2401.42 Q1556.3 2401.42 1560.6 2398.17 Q1564.94 2394.91 1564.94 2388.7 Q1564.94 2382.97 1560.9 2379.76 Q1556.91 2376.51 1549.75 2376.51 L1542.2 2376.51 L1542.2 2369.3 L1550.1 2369.3 Q1556.56 2369.3 1559.99 2366.74 Q1563.42 2364.14 1563.42 2359.28 Q1563.42 2354.29 1559.86 2351.64 Q1556.35 2348.95 1549.75 2348.95 Q1546.15 2348.95 1542.02 2349.73 Q1537.9 2350.51 1532.95 2352.16 L1532.95 2344.35 Q1537.94 2342.96 1542.28 2342.26 Q1546.67 2341.57 1550.53 2341.57 Q1560.51 2341.57 1566.33 2346.13 Q1572.14 2350.64 1572.14 2358.37 Q1572.14 2363.75 1569.06 2367.48 Q1565.98 2371.17 1560.3 2372.6 Z" fill="#000000" fill-rule="nonzero" fill-opacity="1" /><polyline clip-path="url(#clip750)" style="stroke:#ff00ff; stroke-linecap:round; stroke-linejoin:round; stroke-width:7.5; stroke-opacity:1; fill:none" stroke-dasharray="30, 19" points="1181.17,2472.34 1420.46,2472.34 "/>
<path clip-path="url(#clip750)" d="M1474.23 2442.33 L1474.23 2456.13 L1490.68 2456.13 L1490.68 2462.34 L1474.23 2462.34 L1474.23 2488.73 Q1474.23 2494.67 1475.83 2496.36 Q1477.48 2498.06 1482.47 2498.06 L1490.68 2498.06 L1490.68 2504.74 L1482.47 2504.74 Q1473.23 2504.74 1469.71 2501.31 Q1466.2 2497.84 1466.2 2488.73 L1466.2 2462.34 L1460.34 2462.34 L1460.34 2456.13 L1466.2 2456.13 L1466.2 2442.33 L1474.23 2442.33 Z" fill="#000000" fill-rule="nonzero" fill-opacity="1" /><path clip-path="url(#clip750)" d="M1538.12 2519.5 L1538.12 2525.7 L1491.94 2525.7 L1491.94 2519.5 L1538.12 2519.5 Z" fill="#000000" fill-rule="nonzero" fill-opacity="1" /><path clip-path="url(#clip750)" d="M1580.61 2458 L1580.61 2465.46 Q1577.22 2463.6 1573.79 2462.68 Q1570.41 2461.73 1566.94 2461.73 Q1559.17 2461.73 1554.87 2466.68 Q1550.57 2471.58 1550.57 2480.48 Q1550.57 2489.38 1554.87 2494.32 Q1559.17 2499.23 1566.94 2499.23 Q1570.41 2499.23 1573.79 2498.32 Q1577.22 2497.36 1580.61 2495.5 L1580.61 2502.87 Q1577.27 2504.44 1573.66 2505.22 Q1570.1 2506 1566.07 2506 Q1555.09 2506 1548.62 2499.1 Q1542.15 2492.2 1542.15 2480.48 Q1542.15 2468.59 1548.66 2461.77 Q1555.22 2454.96 1566.59 2454.96 Q1570.28 2454.96 1573.79 2455.74 Q1577.31 2456.48 1580.61 2458 Z" fill="#000000" fill-rule="nonzero" fill-opacity="1" /><path clip-path="url(#clip750)" d="M1602.4 2442.33 L1602.4 2456.13 L1618.85 2456.13 L1618.85 2462.34 L1602.4 2462.34 L1602.4 2488.73 Q1602.4 2494.67 1604 2496.36 Q1605.65 2498.06 1610.64 2498.06 L1618.85 2498.06 L1618.85 2504.74 L1610.64 2504.74 Q1601.4 2504.74 1597.88 2501.31 Q1594.37 2497.84 1594.37 2488.73 L1594.37 2462.34 L1588.51 2462.34 L1588.51 2456.13 L1594.37 2456.13 L1594.37 2442.33 L1602.4 2442.33 Z" fill="#000000" fill-rule="nonzero" fill-opacity="1" /></svg>
