<?xml version="1.0" encoding="utf-8"?>
<svg xmlns="http://www.w3.org/2000/svg" xmlns:xlink="http://www.w3.org/1999/xlink" width="1200" height="800" viewBox="0 0 4800 3200">
<defs>
  <clipPath id="clip710">
    <rect x="0" y="0" width="4800" height="3200"/>
  </clipPath>
</defs>
<path clip-path="url(#clip710)" d="M0 3200 L4800 3200 L4800 0 L0 0  Z" fill="#ffffff" fill-rule="evenodd" fill-opacity="1"/>
<defs>
  <clipPath id="clip711">
    <rect x="960" y="0" width="3361" height="3200"/>
  </clipPath>
</defs>
<path clip-path="url(#clip710)" d="M985.989 2645.13 L4611.02 2645.13 L4611.02 377.524 L985.989 377.524  Z" fill="#ffffff" fill-rule="evenodd" fill-opacity="1"/>
<defs>
  <clipPath id="clip712">
    <rect x="985" y="377" width="3626" height="2269"/>
  </clipPath>
</defs>
<polyline clip-path="url(#clip712)" style="stroke:#000000; stroke-linecap:round; stroke-linejoin:round; stroke-width:8; stroke-opacity:0.05; fill:none" stroke-dasharray="32, 20" points="1081.73,2645.13 1081.73,377.524 "/>
<polyline clip-path="url(#clip712)" style="stroke:#000000; stroke-linecap:round; stroke-linejoin:round; stroke-width:8; stroke-opacity:0.05; fill:none" stroke-dasharray="32, 20" points="1767.07,2645.13 1767.07,377.524 "/>
<polyline clip-path="url(#clip712)" style="stroke:#000000; stroke-linecap:round; stroke-linejoin:round; stroke-width:8; stroke-opacity:0.05; fill:none" stroke-dasharray="32, 20" points="2452.41,2645.13 2452.41,377.524 "/>
<polyline clip-path="url(#clip712)" style="stroke:#000000; stroke-linecap:round; stroke-linejoin:round; stroke-width:8; stroke-opacity:0.05; fill:none" stroke-dasharray="32, 20" points="3137.75,2645.13 3137.75,377.524 "/>
<polyline clip-path="url(#clip712)" style="stroke:#000000; stroke-linecap:round; stroke-linejoin:round; stroke-width:8; stroke-opacity:0.05; fill:none" stroke-dasharray="32, 20" points="3823.09,2645.13 3823.09,377.524 "/>
<polyline clip-path="url(#clip712)" style="stroke:#000000; stroke-linecap:round; stroke-linejoin:round; stroke-width:8; stroke-opacity:0.05; fill:none" stroke-dasharray="32, 20" points="4508.43,2645.13 4508.43,377.524 "/>
<polyline clip-path="url(#clip712)" style="stroke:#000000; stroke-linecap:round; stroke-linejoin:round; stroke-width:8; stroke-opacity:0.05; fill:none" stroke-dasharray="32, 20" points="985.989,2518.98 4611.02,2518.98 "/>
<polyline clip-path="url(#clip712)" style="stroke:#000000; stroke-linecap:round; stroke-linejoin:round; stroke-width:8; stroke-opacity:0.05; fill:none" stroke-dasharray="32, 20" points="985.989,1985.34 4611.02,1985.34 "/>
<polyline clip-path="url(#clip712)" style="stroke:#000000; stroke-linecap:round; stroke-linejoin:round; stroke-width:8; stroke-opacity:0.05; fill:none" stroke-dasharray="32, 20" points="985.989,1451.71 4611.02,1451.71 "/>
<polyline clip-path="url(#clip712)" style="stroke:#000000; stroke-linecap:round; stroke-linejoin:round; stroke-width:8; stroke-opacity:0.05; fill:none" stroke-dasharray="32, 20" points="985.989,918.071 4611.02,918.071 "/>
<polyline clip-path="url(#clip712)" style="stroke:#000000; stroke-linecap:round; stroke-linejoin:round; stroke-width:8; stroke-opacity:0.05; fill:none" stroke-dasharray="32, 20" points="985.989,384.435 4611.02,384.435 "/>
<polyline clip-path="url(#clip710)" style="stroke:#000000; stroke-linecap:round; stroke-linejoin:round; stroke-width:4; stroke-opacity:1; fill:none" points="985.989,2645.13 4611.02,2645.13 "/>
<polyline clip-path="url(#clip710)" style="stroke:#000000; stroke-linecap:round; stroke-linejoin:round; stroke-width:4; stroke-opacity:1; fill:none" points="1081.73,2645.13 1081.73,2626.23 "/>
<polyline clip-path="url(#clip710)" style="stroke:#000000; stroke-linecap:round; stroke-linejoin:round; stroke-width:4; stroke-opacity:1; fill:none" points="1767.07,2645.13 1767.07,2626.23 "/>
<polyline clip-path="url(#clip710)" style="stroke:#000000; stroke-linecap:round; stroke-linejoin:round; stroke-width:4; stroke-opacity:1; fill:none" points="2452.41,2645.13 2452.41,2626.23 "/>
<polyline clip-path="url(#clip710)" style="stroke:#000000; stroke-linecap:round; stroke-linejoin:round; stroke-width:4; stroke-opacity:1; fill:none" points="3137.75,2645.13 3137.75,2626.23 "/>
<polyline clip-path="url(#clip710)" style="stroke:#000000; stroke-linecap:round; stroke-linejoin:round; stroke-width:4; stroke-opacity:1; fill:none" points="3823.09,2645.13 3823.09,2626.23 "/>
<polyline clip-path="url(#clip710)" style="stroke:#000000; stroke-linecap:round; stroke-linejoin:round; stroke-width:4; stroke-opacity:1; fill:none" points="4508.43,2645.13 4508.43,2626.23 "/>
<path clip-path="url(#clip710)" d="M1081.73 2734.8 Q1065.93 2734.8 1057.93 2750.39 Q1050.03 2765.89 1050.03 2797.08 Q1050.03 2828.17 1057.93 2843.77 Q1065.93 2859.26 1081.73 2859.26 Q1097.63 2859.26 1105.53 2843.77 Q1113.53 2828.17 1113.53 2797.08 Q1113.53 2765.89 1105.53 2750.39 Q1097.63 2734.8 1081.73 2734.8 M1081.73 2718.59 Q1107.15 2718.59 1120.52 2738.75 Q1133.99 2758.8 1133.99 2797.08 Q1133.99 2835.26 1120.52 2855.41 Q1107.15 2875.46 1081.73 2875.46 Q1056.31 2875.46 1042.84 2855.41 Q1029.47 2835.26 1029.47 2797.08 Q1029.47 2758.8 1042.84 2738.75 Q1056.31 2718.59 1081.73 2718.59 Z" fill="#000000" fill-rule="nonzero" fill-opacity="1" /><path clip-path="url(#clip710)" d="M1724.99 2855.31 L1758.41 2855.31 L1758.41 2739.96 L1722.05 2747.25 L1722.05 2728.62 L1758.21 2721.33 L1778.67 2721.33 L1778.67 2855.31 L1812.09 2855.31 L1812.09 2872.53 L1724.99 2872.53 L1724.99 2855.31 Z" fill="#000000" fill-rule="nonzero" fill-opacity="1" /><path clip-path="url(#clip710)" d="M2429.02 2855.31 L2500.41 2855.31 L2500.41 2872.53 L2404.41 2872.53 L2404.41 2855.31 Q2416.05 2843.26 2436.1 2823.01 Q2456.26 2802.65 2461.42 2796.78 Q2471.25 2785.74 2475.09 2778.14 Q2479.04 2770.44 2479.04 2763.05 Q2479.04 2751 2470.54 2743.4 Q2462.13 2735.81 2448.56 2735.81 Q2438.94 2735.81 2428.21 2739.15 Q2417.57 2742.49 2405.42 2749.28 L2405.42 2728.62 Q2417.77 2723.66 2428.51 2721.13 Q2439.24 2718.59 2448.16 2718.59 Q2471.65 2718.59 2485.63 2730.34 Q2499.6 2742.09 2499.6 2761.74 Q2499.6 2771.05 2496.06 2779.46 Q2492.62 2787.76 2483.4 2799.1 Q2480.87 2802.04 2467.3 2816.12 Q2453.73 2830.09 2429.02 2855.31 Z" fill="#000000" fill-rule="nonzero" fill-opacity="1" /><path clip-path="url(#clip710)" d="M3156.33 2791 Q3171.02 2794.14 3179.22 2804.07 Q3187.52 2813.99 3187.52 2828.58 Q3187.52 2850.96 3172.13 2863.21 Q3156.74 2875.46 3128.38 2875.46 Q3118.86 2875.46 3108.73 2873.54 Q3098.71 2871.72 3087.97 2867.97 L3087.97 2848.22 Q3096.48 2853.18 3106.61 2855.72 Q3116.74 2858.25 3127.77 2858.25 Q3147.02 2858.25 3157.04 2850.65 Q3167.17 2843.06 3167.17 2828.58 Q3167.17 2815.21 3157.75 2807.71 Q3148.43 2800.12 3131.72 2800.12 L3114.1 2800.12 L3114.1 2783.31 L3132.53 2783.31 Q3147.62 2783.31 3155.62 2777.33 Q3163.62 2771.25 3163.62 2759.91 Q3163.62 2748.27 3155.32 2742.09 Q3147.12 2735.81 3131.72 2735.81 Q3123.32 2735.81 3113.7 2737.63 Q3104.08 2739.46 3092.53 2743.3 L3092.53 2725.07 Q3104.18 2721.83 3114.3 2720.21 Q3124.53 2718.59 3133.55 2718.59 Q3156.84 2718.59 3170.41 2729.23 Q3183.98 2739.76 3183.98 2757.79 Q3183.98 2770.34 3176.79 2779.05 Q3169.6 2787.66 3156.33 2791 Z" fill="#000000" fill-rule="nonzero" fill-opacity="1" /><path clip-path="url(#clip710)" d="M3836.25 2739.15 L3784.61 2819.87 L3836.25 2819.87 L3836.25 2739.15 M3830.89 2721.33 L3856.61 2721.33 L3856.61 2819.87 L3878.18 2819.87 L3878.18 2836.88 L3856.61 2836.88 L3856.61 2872.53 L3836.25 2872.53 L3836.25 2836.88 L3768 2836.88 L3768 2817.13 L3830.89 2721.33 Z" fill="#000000" fill-rule="nonzero" fill-opacity="1" /><path clip-path="url(#clip710)" d="M4465.89 2721.33 L4546.2 2721.33 L4546.2 2738.54 L4484.63 2738.54 L4484.63 2775.61 Q4489.09 2774.09 4493.54 2773.38 Q4498 2772.57 4502.45 2772.57 Q4527.77 2772.57 4542.56 2786.45 Q4557.34 2800.32 4557.34 2824.02 Q4557.34 2848.42 4542.15 2862 Q4526.96 2875.46 4499.31 2875.46 Q4489.79 2875.46 4479.87 2873.84 Q4470.05 2872.22 4459.51 2868.98 L4459.51 2848.42 Q4468.63 2853.39 4478.35 2855.82 Q4488.07 2858.25 4498.91 2858.25 Q4516.43 2858.25 4526.66 2849.03 Q4536.89 2839.82 4536.89 2824.02 Q4536.89 2808.22 4526.66 2799 Q4516.43 2789.79 4498.91 2789.79 Q4490.71 2789.79 4482.5 2791.61 Q4474.4 2793.43 4465.89 2797.28 L4465.89 2721.33 Z" fill="#000000" fill-rule="nonzero" fill-opacity="1" /><path clip-path="url(#clip710)" d="M2634.04 2979.74 L2634.04 3011.94 L2672.42 3011.94 L2672.42 3026.42 L2634.04 3026.42 L2634.04 3088 Q2634.04 3101.87 2637.79 3105.82 Q2641.63 3109.77 2653.28 3109.77 L2672.42 3109.77 L2672.42 3125.37 L2653.28 3125.37 Q2631.71 3125.37 2623.51 3117.37 Q2615.3 3109.27 2615.3 3088 L2615.3 3026.42 L2601.63 3026.42 L2601.63 3011.94 L2615.3 3011.94 L2615.3 2979.74 L2634.04 2979.74 Z" fill="#000000" fill-rule="nonzero" fill-opacity="1" /><path clip-path="url(#clip710)" d="M2807.62 2967.99 Q2794.05 2991.28 2787.47 3014.07 Q2780.88 3036.86 2780.88 3060.25 Q2780.88 3083.64 2787.47 3106.63 Q2794.15 3129.52 2807.62 3152.71 L2791.42 3152.71 Q2776.23 3128.91 2768.63 3105.92 Q2761.14 3082.93 2761.14 3060.25 Q2761.14 3037.67 2768.63 3014.78 Q2776.12 2991.89 2791.42 2967.99 L2807.62 2967.99 Z" fill="#000000" fill-rule="nonzero" fill-opacity="1" /><path clip-path="url(#clip710)" d="M2916.08 3015.28 L2916.08 3032.91 Q2908.18 3028.85 2899.68 3026.83 Q2891.17 3024.8 2882.06 3024.8 Q2868.18 3024.8 2861.19 3029.06 Q2854.31 3033.31 2854.31 3041.82 Q2854.31 3048.3 2859.27 3052.05 Q2864.23 3055.69 2879.22 3059.03 L2885.6 3060.45 Q2905.45 3064.71 2913.75 3072.5 Q2922.16 3080.2 2922.16 3094.07 Q2922.16 3109.87 2909.6 3119.09 Q2897.15 3128.3 2875.27 3128.3 Q2866.16 3128.3 2856.23 3126.48 Q2846.41 3124.76 2835.47 3121.22 L2835.47 3101.97 Q2845.8 3107.34 2855.83 3110.08 Q2865.85 3112.71 2875.68 3112.71 Q2888.84 3112.71 2895.93 3108.25 Q2903.02 3103.7 2903.02 3095.49 Q2903.02 3087.9 2897.85 3083.85 Q2892.79 3079.79 2875.47 3076.05 L2868.99 3074.53 Q2851.67 3070.88 2843.98 3063.39 Q2836.28 3055.79 2836.28 3042.63 Q2836.28 3026.63 2847.62 3017.92 Q2858.97 3009.21 2879.83 3009.21 Q2890.16 3009.21 2899.27 3010.73 Q2908.39 3012.25 2916.08 3015.28 Z" fill="#000000" fill-rule="nonzero" fill-opacity="1" /><path clip-path="url(#clip710)" d="M2948.9 2967.99 L2965.1 2967.99 Q2980.29 2991.89 2987.78 3014.78 Q2995.38 3037.67 2995.38 3060.25 Q2995.38 3082.93 2987.78 3105.92 Q2980.29 3128.91 2965.1 3152.71 L2948.9 3152.71 Q2962.37 3129.52 2968.95 3106.63 Q2975.63 3083.64 2975.63 3060.25 Q2975.63 3036.86 2968.95 3014.07 Q2962.37 2991.28 2948.9 2967.99 Z" fill="#000000" fill-rule="nonzero" fill-opacity="1" /><polyline clip-path="url(#clip710)" style="stroke:#000000; stroke-linecap:round; stroke-linejoin:round; stroke-width:4; stroke-opacity:1; fill:none" points="985.989,2645.13 985.989,377.524 "/>
<polyline clip-path="url(#clip710)" style="stroke:#000000; stroke-linecap:round; stroke-linejoin:round; stroke-width:4; stroke-opacity:1; fill:none" points="985.989,2518.98 1004.89,2518.98 "/>
<polyline clip-path="url(#clip710)" style="stroke:#000000; stroke-linecap:round; stroke-linejoin:round; stroke-width:4; stroke-opacity:1; fill:none" points="985.989,1985.34 1004.89,1985.34 "/>
<polyline clip-path="url(#clip710)" style="stroke:#000000; stroke-linecap:round; stroke-linejoin:round; stroke-width:4; stroke-opacity:1; fill:none" points="985.989,1451.71 1004.89,1451.71 "/>
<polyline clip-path="url(#clip710)" style="stroke:#000000; stroke-linecap:round; stroke-linejoin:round; stroke-width:4; stroke-opacity:1; fill:none" points="985.989,918.071 1004.89,918.071 "/>
<polyline clip-path="url(#clip710)" style="stroke:#000000; stroke-linecap:round; stroke-linejoin:round; stroke-width:4; stroke-opacity:1; fill:none" points="985.989,384.435 1004.89,384.435 "/>
<path clip-path="url(#clip710)" d="M399.929 2456.85 Q384.131 2456.85 376.13 2472.44 Q368.231 2487.94 368.231 2519.13 Q368.231 2550.22 376.13 2565.82 Q384.131 2581.31 399.929 2581.31 Q415.829 2581.31 423.728 2565.82 Q431.729 2550.22 431.729 2519.13 Q431.729 2487.94 423.728 2472.44 Q415.829 2456.85 399.929 2456.85 M399.929 2440.64 Q425.349 2440.64 438.717 2460.8 Q452.186 2480.85 452.186 2519.13 Q452.186 2557.31 438.717 2577.46 Q425.349 2597.52 399.929 2597.52 Q374.51 2597.52 361.04 2577.46 Q347.672 2557.31 347.672 2519.13 Q347.672 2480.85 361.04 2460.8 Q374.51 2440.64 399.929 2440.64 Z" fill="#000000" fill-rule="nonzero" fill-opacity="1" /><path clip-path="url(#clip710)" d="M488.138 2568.86 L509.506 2568.86 L509.506 2594.58 L488.138 2594.58 L488.138 2568.86 Z" fill="#000000" fill-rule="nonzero" fill-opacity="1" /><path clip-path="url(#clip710)" d="M597.816 2456.85 Q582.017 2456.85 574.017 2472.44 Q566.117 2487.94 566.117 2519.13 Q566.117 2550.22 574.017 2565.82 Q582.017 2581.31 597.816 2581.31 Q613.716 2581.31 621.615 2565.82 Q629.615 2550.22 629.615 2519.13 Q629.615 2487.94 621.615 2472.44 Q613.716 2456.85 597.816 2456.85 M597.816 2440.64 Q623.235 2440.64 636.603 2460.8 Q650.072 2480.85 650.072 2519.13 Q650.072 2557.31 636.603 2577.46 Q623.235 2597.52 597.816 2597.52 Q572.396 2597.52 558.927 2577.46 Q545.559 2557.31 545.559 2519.13 Q545.559 2480.85 558.927 2460.8 Q572.396 2440.64 597.816 2440.64 Z" fill="#000000" fill-rule="nonzero" fill-opacity="1" /><path clip-path="url(#clip710)" d="M729.774 2456.85 Q713.975 2456.85 705.975 2472.44 Q698.076 2487.94 698.076 2519.13 Q698.076 2550.22 705.975 2565.82 Q713.975 2581.31 729.774 2581.31 Q745.674 2581.31 753.573 2565.82 Q761.574 2550.22 761.574 2519.13 Q761.574 2487.94 753.573 2472.44 Q745.674 2456.85 729.774 2456.85 M729.774 2440.64 Q755.193 2440.64 768.561 2460.8 Q782.031 2480.85 782.031 2519.13 Q782.031 2557.31 768.561 2577.46 Q755.193 2597.52 729.774 2597.52 Q704.355 2597.52 690.885 2577.46 Q677.517 2557.31 677.517 2519.13 Q677.517 2480.85 690.885 2460.8 Q704.355 2440.64 729.774 2440.64 Z" fill="#000000" fill-rule="nonzero" fill-opacity="1" /><path clip-path="url(#clip710)" d="M861.732 2456.85 Q845.934 2456.85 837.933 2472.44 Q830.034 2487.94 830.034 2519.13 Q830.034 2550.22 837.933 2565.82 Q845.934 2581.31 861.732 2581.31 Q877.632 2581.31 885.531 2565.82 Q893.532 2550.22 893.532 2519.13 Q893.532 2487.94 885.531 2472.44 Q877.632 2456.85 861.732 2456.85 M861.732 2440.64 Q887.152 2440.64 900.52 2460.8 Q913.989 2480.85 913.989 2519.13 Q913.989 2557.31 900.52 2577.46 Q887.152 2597.52 861.732 2597.52 Q836.313 2597.52 822.844 2577.46 Q809.476 2557.31 809.476 2519.13 Q809.476 2480.85 822.844 2460.8 Q836.313 2440.64 861.732 2440.64 Z" fill="#000000" fill-rule="nonzero" fill-opacity="1" /><path clip-path="url(#clip710)" d="M404.284 1923.21 Q388.485 1923.21 380.485 1938.81 Q372.586 1954.3 372.586 1985.49 Q372.586 2016.59 380.485 2032.18 Q388.485 2047.68 404.284 2047.68 Q420.184 2047.68 428.083 2032.18 Q436.083 2016.59 436.083 1985.49 Q436.083 1954.3 428.083 1938.81 Q420.184 1923.21 404.284 1923.21 M404.284 1907.01 Q429.703 1907.01 443.071 1927.16 Q456.54 1947.21 456.54 1985.49 Q456.54 2023.67 443.071 2043.83 Q429.703 2063.88 404.284 2063.88 Q378.864 2063.88 365.395 2043.83 Q352.027 2023.67 352.027 1985.49 Q352.027 1947.21 365.395 1927.16 Q378.864 1907.01 404.284 1907.01 Z" fill="#000000" fill-rule="nonzero" fill-opacity="1" /><path clip-path="url(#clip710)" d="M492.492 2035.22 L513.861 2035.22 L513.861 2060.94 L492.492 2060.94 L492.492 2035.22 Z" fill="#000000" fill-rule="nonzero" fill-opacity="1" /><path clip-path="url(#clip710)" d="M602.17 1923.21 Q586.372 1923.21 578.371 1938.81 Q570.472 1954.3 570.472 1985.49 Q570.472 2016.59 578.371 2032.18 Q586.372 2047.68 602.17 2047.68 Q618.07 2047.68 625.97 2032.18 Q633.97 2016.59 633.97 1985.49 Q633.97 1954.3 625.97 1938.81 Q618.07 1923.21 602.17 1923.21 M602.17 1907.01 Q627.59 1907.01 640.958 1927.16 Q654.427 1947.21 654.427 1985.49 Q654.427 2023.67 640.958 2043.83 Q627.59 2063.88 602.17 2063.88 Q576.751 2063.88 563.282 2043.83 Q549.914 2023.67 549.914 1985.49 Q549.914 1947.21 563.282 1927.16 Q576.751 1907.01 602.17 1907.01 Z" fill="#000000" fill-rule="nonzero" fill-opacity="1" /><path clip-path="url(#clip710)" d="M708 2043.73 L779.398 2043.73 L779.398 2060.94 L683.391 2060.94 L683.391 2043.73 Q695.037 2031.67 715.089 2011.42 Q735.243 1991.06 740.408 1985.19 Q750.231 1974.15 754.079 1966.56 Q758.029 1958.86 758.029 1951.47 Q758.029 1939.42 749.522 1931.82 Q741.117 1924.22 727.546 1924.22 Q717.925 1924.22 707.19 1927.57 Q696.557 1930.91 684.404 1937.69 L684.404 1917.03 Q696.759 1912.07 707.494 1909.54 Q718.229 1907.01 727.141 1907.01 Q750.636 1907.01 764.612 1918.76 Q778.587 1930.5 778.587 1950.15 Q778.587 1959.47 775.043 1967.87 Q771.6 1976.18 762.384 1987.52 Q759.852 1990.46 746.281 2004.53 Q732.711 2018.51 708 2043.73 Z" fill="#000000" fill-rule="nonzero" fill-opacity="1" /><path clip-path="url(#clip710)" d="M822.54 1909.74 L902.849 1909.74 L902.849 1926.96 L841.275 1926.96 L841.275 1964.02 Q845.731 1962.51 850.187 1961.8 Q854.643 1960.99 859.099 1960.99 Q884.417 1960.99 899.203 1974.86 Q913.989 1988.74 913.989 2012.43 Q913.989 2036.84 898.798 2050.41 Q883.607 2063.88 855.96 2063.88 Q846.44 2063.88 836.515 2062.26 Q826.692 2060.64 816.16 2057.4 L816.16 2036.84 Q825.274 2041.8 834.996 2044.23 Q844.718 2046.66 855.555 2046.66 Q873.075 2046.66 883.303 2037.45 Q893.532 2028.23 893.532 2012.43 Q893.532 1996.63 883.303 1987.42 Q873.075 1978.2 855.555 1978.2 Q847.351 1978.2 839.148 1980.03 Q831.047 1981.85 822.54 1985.7 L822.54 1909.74 Z" fill="#000000" fill-rule="nonzero" fill-opacity="1" /><path clip-path="url(#clip710)" d="M399.929 1389.58 Q384.131 1389.58 376.13 1405.17 Q368.231 1420.67 368.231 1451.86 Q368.231 1482.95 376.13 1498.55 Q384.131 1514.04 399.929 1514.04 Q415.829 1514.04 423.728 1498.55 Q431.729 1482.95 431.729 1451.86 Q431.729 1420.67 423.728 1405.17 Q415.829 1389.58 399.929 1389.58 M399.929 1373.37 Q425.349 1373.37 438.717 1393.53 Q452.186 1413.58 452.186 1451.86 Q452.186 1490.04 438.717 1510.19 Q425.349 1530.24 399.929 1530.24 Q374.51 1530.24 361.04 1510.19 Q347.672 1490.04 347.672 1451.86 Q347.672 1413.58 361.04 1393.53 Q374.51 1373.37 399.929 1373.37 Z" fill="#000000" fill-rule="nonzero" fill-opacity="1" /><path clip-path="url(#clip710)" d="M488.138 1501.58 L509.506 1501.58 L509.506 1527.31 L488.138 1527.31 L488.138 1501.58 Z" fill="#000000" fill-rule="nonzero" fill-opacity="1" /><path clip-path="url(#clip710)" d="M597.816 1389.58 Q582.017 1389.58 574.017 1405.17 Q566.117 1420.67 566.117 1451.86 Q566.117 1482.95 574.017 1498.55 Q582.017 1514.04 597.816 1514.04 Q613.716 1514.04 621.615 1498.55 Q629.615 1482.95 629.615 1451.86 Q629.615 1420.67 621.615 1405.17 Q613.716 1389.58 597.816 1389.58 M597.816 1373.37 Q623.235 1373.37 636.603 1393.53 Q650.072 1413.58 650.072 1451.86 Q650.072 1490.04 636.603 1510.19 Q623.235 1530.24 597.816 1530.24 Q572.396 1530.24 558.927 1510.19 Q545.559 1490.04 545.559 1451.86 Q545.559 1413.58 558.927 1393.53 Q572.396 1373.37 597.816 1373.37 Z" fill="#000000" fill-rule="nonzero" fill-opacity="1" /><path clip-path="url(#clip710)" d="M686.227 1376.11 L766.536 1376.11 L766.536 1393.32 L704.962 1393.32 L704.962 1430.39 Q709.418 1428.87 713.874 1428.16 Q718.33 1427.35 722.786 1427.35 Q748.104 1427.35 762.89 1441.23 Q777.676 1455.1 777.676 1478.8 Q777.676 1503.2 762.485 1516.77 Q747.294 1530.24 719.647 1530.24 Q710.127 1530.24 700.202 1528.62 Q690.379 1527 679.847 1523.76 L679.847 1503.2 Q688.961 1508.17 698.683 1510.6 Q708.405 1513.03 719.242 1513.03 Q736.762 1513.03 746.99 1503.81 Q757.219 1494.6 757.219 1478.8 Q757.219 1463 746.99 1453.78 Q736.762 1444.57 719.242 1444.57 Q711.039 1444.57 702.835 1446.39 Q694.734 1448.21 686.227 1452.06 L686.227 1376.11 Z" fill="#000000" fill-rule="nonzero" fill-opacity="1" /><path clip-path="url(#clip710)" d="M861.732 1389.58 Q845.934 1389.58 837.933 1405.17 Q830.034 1420.67 830.034 1451.86 Q830.034 1482.95 837.933 1498.55 Q845.934 1514.04 861.732 1514.04 Q877.632 1514.04 885.531 1498.55 Q893.532 1482.95 893.532 1451.86 Q893.532 1420.67 885.531 1405.17 Q877.632 1389.58 861.732 1389.58 M861.732 1373.37 Q887.152 1373.37 900.52 1393.53 Q913.989 1413.58 913.989 1451.86 Q913.989 1490.04 900.52 1510.19 Q887.152 1530.24 861.732 1530.24 Q836.313 1530.24 822.844 1510.19 Q809.476 1490.04 809.476 1451.86 Q809.476 1413.58 822.844 1393.53 Q836.313 1373.37 861.732 1373.37 Z" fill="#000000" fill-rule="nonzero" fill-opacity="1" /><path clip-path="url(#clip710)" d="M404.284 855.94 Q388.485 855.94 380.485 871.536 Q372.586 887.031 372.586 918.223 Q372.586 949.314 380.485 964.91 Q388.485 980.404 404.284 980.404 Q420.184 980.404 428.083 964.91 Q436.083 949.314 436.083 918.223 Q436.083 887.031 428.083 871.536 Q420.184 855.94 404.284 855.94 M404.284 839.737 Q429.703 839.737 443.071 859.89 Q456.54 879.942 456.54 918.223 Q456.54 956.403 443.071 976.556 Q429.703 996.608 404.284 996.608 Q378.864 996.608 365.395 976.556 Q352.027 956.403 352.027 918.223 Q352.027 879.942 365.395 859.89 Q378.864 839.737 404.284 839.737 Z" fill="#000000" fill-rule="nonzero" fill-opacity="1" /><path clip-path="url(#clip710)" d="M492.492 967.948 L513.861 967.948 L513.861 993.671 L492.492 993.671 L492.492 967.948 Z" fill="#000000" fill-rule="nonzero" fill-opacity="1" /><path clip-path="url(#clip710)" d="M602.17 855.94 Q586.372 855.94 578.371 871.536 Q570.472 887.031 570.472 918.223 Q570.472 949.314 578.371 964.91 Q586.372 980.404 602.17 980.404 Q618.07 980.404 625.97 964.91 Q633.97 949.314 633.97 918.223 Q633.97 887.031 625.97 871.536 Q618.07 855.94 602.17 855.94 M602.17 839.737 Q627.59 839.737 640.958 859.89 Q654.427 879.942 654.427 918.223 Q654.427 956.403 640.958 976.556 Q627.59 996.608 602.17 996.608 Q576.751 996.608 563.282 976.556 Q549.914 956.403 549.914 918.223 Q549.914 879.942 563.282 859.89 Q576.751 839.737 602.17 839.737 Z" fill="#000000" fill-rule="nonzero" fill-opacity="1" /><path clip-path="url(#clip710)" d="M685.214 842.471 L782.436 842.471 L782.436 851.181 L727.546 993.671 L706.177 993.671 L757.826 859.687 L685.214 859.687 L685.214 842.471 Z" fill="#000000" fill-rule="nonzero" fill-opacity="1" /><path clip-path="url(#clip710)" d="M822.54 842.471 L902.849 842.471 L902.849 859.687 L841.275 859.687 L841.275 896.753 Q845.731 895.234 850.187 894.525 Q854.643 893.715 859.099 893.715 Q884.417 893.715 899.203 907.589 Q913.989 921.464 913.989 945.162 Q913.989 969.568 898.798 983.139 Q883.607 996.608 855.96 996.608 Q846.44 996.608 836.515 994.988 Q826.692 993.367 816.16 990.127 L816.16 969.568 Q825.274 974.531 834.996 976.961 Q844.718 979.392 855.555 979.392 Q873.075 979.392 883.303 970.176 Q893.532 960.96 893.532 945.162 Q893.532 929.363 883.303 920.147 Q873.075 910.931 855.555 910.931 Q847.351 910.931 839.148 912.754 Q831.047 914.577 822.54 918.426 L822.54 842.471 Z" fill="#000000" fill-rule="nonzero" fill-opacity="1" /><path clip-path="url(#clip710)" d="M399.929 322.305 Q384.131 322.305 376.13 337.901 Q368.231 353.395 368.231 384.587 Q368.231 415.678 376.13 431.274 Q384.131 446.769 399.929 446.769 Q415.829 446.769 423.728 431.274 Q431.729 415.678 431.729 384.587 Q431.729 353.395 423.728 337.901 Q415.829 322.305 399.929 322.305 M399.929 306.101 Q425.349 306.101 438.717 326.254 Q452.186 346.306 452.186 384.587 Q452.186 422.767 438.717 442.92 Q425.349 462.972 399.929 462.972 Q374.51 462.972 361.04 442.92 Q347.672 422.767 347.672 384.587 Q347.672 346.306 361.04 326.254 Q374.51 306.101 399.929 306.101 Z" fill="#000000" fill-rule="nonzero" fill-opacity="1" /><path clip-path="url(#clip710)" d="M488.138 434.312 L509.506 434.312 L509.506 460.035 L488.138 460.035 L488.138 434.312 Z" fill="#000000" fill-rule="nonzero" fill-opacity="1" /><path clip-path="url(#clip710)" d="M557.611 442.819 L591.031 442.819 L591.031 327.469 L554.674 334.761 L554.674 316.127 L590.828 308.835 L611.285 308.835 L611.285 442.819 L644.705 442.819 L644.705 460.035 L557.611 460.035 L557.611 442.819 Z" fill="#000000" fill-rule="nonzero" fill-opacity="1" /><path clip-path="url(#clip710)" d="M729.774 322.305 Q713.975 322.305 705.975 337.901 Q698.076 353.395 698.076 384.587 Q698.076 415.678 705.975 431.274 Q713.975 446.769 729.774 446.769 Q745.674 446.769 753.573 431.274 Q761.574 415.678 761.574 384.587 Q761.574 353.395 753.573 337.901 Q745.674 322.305 729.774 322.305 M729.774 306.101 Q755.193 306.101 768.561 326.254 Q782.031 346.306 782.031 384.587 Q782.031 422.767 768.561 442.92 Q755.193 462.972 729.774 462.972 Q704.355 462.972 690.885 442.92 Q677.517 422.767 677.517 384.587 Q677.517 346.306 690.885 326.254 Q704.355 306.101 729.774 306.101 Z" fill="#000000" fill-rule="nonzero" fill-opacity="1" /><path clip-path="url(#clip710)" d="M861.732 322.305 Q845.934 322.305 837.933 337.901 Q830.034 353.395 830.034 384.587 Q830.034 415.678 837.933 431.274 Q845.934 446.769 861.732 446.769 Q877.632 446.769 885.531 431.274 Q893.532 415.678 893.532 384.587 Q893.532 353.395 885.531 337.901 Q877.632 322.305 861.732 322.305 M861.732 306.101 Q887.152 306.101 900.52 326.254 Q913.989 346.306 913.989 384.587 Q913.989 422.767 900.52 442.92 Q887.152 462.972 861.732 462.972 Q836.313 462.972 822.844 442.92 Q809.476 422.767 809.476 384.587 Q809.476 346.306 822.844 326.254 Q836.313 306.101 861.732 306.101 Z" fill="#000000" fill-rule="nonzero" fill-opacity="1" /><path clip-path="url(#clip710)" d="M99.2657 1901.48 L213.299 1943 L213.299 1859.86 L99.2657 1901.48 M230.312 1970.75 L79.1124 1913.02 L79.1124 1889.83 L230.312 1832.21 L230.312 1970.75 Z" fill="#000000" fill-rule="nonzero" fill-opacity="1" /><path clip-path="url(#clip710)" d="M233.249 1774.79 Q233.249 1816.81 173.093 1816.81 Q149.294 1816.81 116.887 1801.12 L116.887 1781.07 Q149.294 1795.55 173.6 1795.55 Q217.451 1795.55 217.451 1773.07 Q217.451 1752.51 162.966 1752.51 L162.966 1735.29 Q217.451 1735.29 217.451 1714.73 Q217.451 1692.25 173.6 1692.25 Q149.294 1692.25 116.887 1706.73 L116.887 1686.68 Q149.294 1670.98 173.093 1670.98 Q233.249 1670.98 233.249 1713.01 Q233.249 1740.56 202.969 1743.9 Q233.249 1748.05 233.249 1774.79 Z" fill="#000000" fill-rule="nonzero" fill-opacity="1" /><path clip-path="url(#clip710)" d="M72.9348 1526.57 Q96.2275 1540.14 119.014 1546.72 Q141.8 1553.3 165.194 1553.3 Q188.588 1553.3 211.577 1546.72 Q234.465 1540.04 257.656 1526.57 L257.656 1542.77 Q233.857 1557.96 210.868 1565.56 Q187.879 1573.05 165.194 1573.05 Q142.61 1573.05 119.723 1565.56 Q96.8351 1558.06 72.9348 1542.77 L72.9348 1526.57 Z" fill="#000000" fill-rule="nonzero" fill-opacity="1" /><path clip-path="url(#clip710)" d="M213.299 1472.39 L273.455 1472.39 L273.455 1491.12 L116.887 1491.12 L116.887 1472.39 L134.103 1472.39 Q123.976 1466.51 119.115 1457.6 Q114.153 1448.59 114.153 1436.13 Q114.153 1415.47 130.559 1402.61 Q146.965 1389.65 173.701 1389.65 Q200.437 1389.65 216.843 1402.61 Q233.249 1415.47 233.249 1436.13 Q233.249 1448.59 228.388 1457.6 Q223.426 1466.51 213.299 1472.39 M173.701 1408.99 Q153.143 1408.99 141.496 1417.5 Q129.749 1425.9 129.749 1440.69 Q129.749 1455.47 141.496 1463.98 Q153.143 1472.39 173.701 1472.39 Q194.259 1472.39 206.007 1463.98 Q217.653 1455.47 217.653 1440.69 Q217.653 1425.9 206.007 1417.5 Q194.259 1408.99 173.701 1408.99 Z" fill="#000000" fill-rule="nonzero" fill-opacity="1" /><path clip-path="url(#clip710)" d="M204.589 1356.13 L204.589 1334.76 L230.312 1334.76 L230.312 1356.13 L204.589 1356.13 Z" fill="#000000" fill-rule="nonzero" fill-opacity="1" /><path clip-path="url(#clip710)" d="M185.55 1294.75 L116.887 1294.75 L116.887 1276.12 L184.841 1276.12 Q200.943 1276.12 209.045 1269.84 Q217.046 1263.56 217.046 1251 Q217.046 1235.92 207.425 1227.21 Q197.804 1218.39 181.195 1218.39 L116.887 1218.39 L116.887 1199.76 L230.312 1199.76 L230.312 1218.39 L212.894 1218.39 Q223.223 1225.18 228.287 1234.19 Q233.249 1243.11 233.249 1254.95 Q233.249 1274.5 221.097 1284.63 Q208.944 1294.75 185.55 1294.75 M114.153 1247.87 L114.153 1247.87 Z" fill="#000000" fill-rule="nonzero" fill-opacity="1" /><path clip-path="url(#clip710)" d="M204.589 1158.75 L204.589 1137.38 L230.312 1137.38 L230.312 1158.75 L204.589 1158.75 Z" fill="#000000" fill-rule="nonzero" fill-opacity="1" /><path clip-path="url(#clip710)" d="M72.9348 1098.39 L72.9348 1082.18 Q96.8351 1066.99 119.723 1059.5 Q142.61 1051.9 165.194 1051.9 Q187.879 1051.9 210.868 1059.5 Q233.857 1066.99 257.656 1082.18 L257.656 1098.39 Q234.465 1084.92 211.577 1078.33 Q188.588 1071.65 165.194 1071.65 Q141.8 1071.65 119.014 1078.33 Q96.2275 1084.92 72.9348 1098.39 Z" fill="#000000" fill-rule="nonzero" fill-opacity="1" /><path clip-path="url(#clip710)" d="M1951.52 40.2313 L1951.52 63.0321 Q1938.21 56.6664 1926.4 53.5414 Q1914.6 50.4164 1903.6 50.4164 Q1884.51 50.4164 1874.09 57.8238 Q1863.79 65.2311 1863.79 78.8885 Q1863.79 90.3467 1870.62 96.2495 Q1877.56 102.036 1896.77 105.624 L1910.9 108.518 Q1937.05 113.495 1949.44 126.11 Q1961.94 138.61 1961.94 159.675 Q1961.94 184.791 1945.04 197.754 Q1928.26 210.716 1895.73 210.716 Q1883.46 210.716 1869.58 207.939 Q1855.8 205.161 1840.99 199.721 L1840.99 175.647 Q1855.22 183.633 1868.88 187.684 Q1882.54 191.735 1895.73 191.735 Q1915.76 191.735 1926.64 183.865 Q1937.52 175.994 1937.52 161.411 Q1937.52 148.68 1929.65 141.504 Q1921.89 134.328 1904.07 130.74 L1889.83 127.962 Q1863.67 122.754 1851.98 111.643 Q1840.29 100.532 1840.29 80.7403 Q1840.29 57.8238 1856.38 44.6294 Q1872.59 31.435 1900.94 31.435 Q1913.09 31.435 1925.71 33.6341 Q1938.33 35.8331 1951.52 40.2313 Z" fill="#000000" fill-rule="nonzero" fill-opacity="1" /><path clip-path="url(#clip710)" d="M2018.07 187.916 L2018.07 256.665 L1996.66 256.665 L1996.66 77.7311 L2018.07 77.7311 L2018.07 97.4069 Q2024.78 85.8329 2034.97 80.2773 Q2045.27 74.6061 2059.51 74.6061 Q2083.12 74.6061 2097.82 93.356 Q2112.63 112.106 2112.63 142.661 Q2112.63 173.217 2097.82 191.967 Q2083.12 210.716 2059.51 210.716 Q2045.27 210.716 2034.97 205.161 Q2024.78 199.49 2018.07 187.916 M2090.52 142.661 Q2090.52 119.166 2080.8 105.856 Q2071.2 92.4301 2054.3 92.4301 Q2037.4 92.4301 2027.68 105.856 Q2018.07 119.166 2018.07 142.661 Q2018.07 166.157 2027.68 179.582 Q2037.4 192.892 2054.3 192.892 Q2071.2 192.892 2080.8 179.582 Q2090.52 166.157 2090.52 142.661 Z" fill="#000000" fill-rule="nonzero" fill-opacity="1" /><path clip-path="url(#clip710)" d="M2258.81 137.221 L2258.81 147.638 L2160.89 147.638 Q2162.28 169.629 2174.09 181.203 Q2186.01 192.661 2207.19 192.661 Q2219.46 192.661 2230.92 189.652 Q2242.49 186.643 2253.83 180.624 L2253.83 200.763 Q2242.37 205.624 2230.34 208.17 Q2218.3 210.716 2205.92 210.716 Q2174.9 210.716 2156.73 192.661 Q2138.67 174.606 2138.67 143.819 Q2138.67 111.99 2155.8 93.356 Q2173.05 74.6061 2202.21 74.6061 Q2228.37 74.6061 2243.53 91.5041 Q2258.81 108.286 2258.81 137.221 M2237.51 130.972 Q2237.28 113.495 2227.68 103.078 Q2218.19 92.6615 2202.44 92.6615 Q2184.62 92.6615 2173.86 102.731 Q2163.21 112.8 2161.59 131.087 L2237.51 130.972 Z" fill="#000000" fill-rule="nonzero" fill-opacity="1" /><path clip-path="url(#clip710)" d="M2404.64 137.221 L2404.64 147.638 L2306.73 147.638 Q2308.12 169.629 2319.92 181.203 Q2331.84 192.661 2353.02 192.661 Q2365.29 192.661 2376.75 189.652 Q2388.32 186.643 2399.67 180.624 L2399.67 200.763 Q2388.21 205.624 2376.17 208.17 Q2364.13 210.716 2351.75 210.716 Q2320.73 210.716 2302.56 192.661 Q2284.5 174.606 2284.5 143.819 Q2284.5 111.99 2301.63 93.356 Q2318.88 74.6061 2348.05 74.6061 Q2374.2 74.6061 2389.36 91.5041 Q2404.64 108.286 2404.64 137.221 M2383.35 130.972 Q2383.11 113.495 2373.51 103.078 Q2364.02 92.6615 2348.28 92.6615 Q2330.45 92.6615 2319.69 102.731 Q2309.04 112.8 2307.42 131.087 L2383.35 130.972 Z" fill="#000000" fill-rule="nonzero" fill-opacity="1" /><path clip-path="url(#clip710)" d="M2524.9 97.4069 L2524.9 27.2684 L2546.19 27.2684 L2546.19 207.36 L2524.9 207.36 L2524.9 187.916 Q2518.18 199.49 2507.88 205.161 Q2497.7 210.716 2483.35 210.716 Q2459.85 210.716 2445.04 191.967 Q2430.34 173.217 2430.34 142.661 Q2430.34 112.106 2445.04 93.356 Q2459.85 74.6061 2483.35 74.6061 Q2497.7 74.6061 2507.88 80.2773 Q2518.18 85.8329 2524.9 97.4069 M2452.33 142.661 Q2452.33 166.157 2461.93 179.582 Q2471.66 192.892 2488.55 192.892 Q2505.45 192.892 2515.17 179.582 Q2524.9 166.157 2524.9 142.661 Q2524.9 119.166 2515.17 105.856 Q2505.45 92.4301 2488.55 92.4301 Q2471.66 92.4301 2461.93 105.856 Q2452.33 119.166 2452.33 142.661 Z" fill="#000000" fill-rule="nonzero" fill-opacity="1" /><path clip-path="url(#clip710)" d="M2689.71 53.7729 L2689.71 188.147 L2717.95 188.147 Q2753.71 188.147 2770.27 171.944 Q2786.93 155.74 2786.93 120.786 Q2786.93 86.0644 2770.27 69.9765 Q2753.71 53.7729 2717.95 53.7729 L2689.71 53.7729 M2666.33 34.56 L2714.36 34.56 Q2764.59 34.56 2788.09 55.509 Q2811.58 76.3422 2811.58 120.786 Q2811.58 165.462 2787.97 186.411 Q2764.36 207.36 2714.36 207.36 L2666.33 207.36 L2666.33 34.56 Z" fill="#000000" fill-rule="nonzero" fill-opacity="1" /><path clip-path="url(#clip710)" d="M2958.81 137.221 L2958.81 147.638 L2860.89 147.638 Q2862.28 169.629 2874.08 181.203 Q2886.01 192.661 2907.19 192.661 Q2919.45 192.661 2930.91 189.652 Q2942.49 186.643 2953.83 180.624 L2953.83 200.763 Q2942.37 205.624 2930.33 208.17 Q2918.3 210.716 2905.91 210.716 Q2874.89 210.716 2856.72 192.661 Q2838.67 174.606 2838.67 143.819 Q2838.67 111.99 2855.8 93.356 Q2873.04 74.6061 2902.21 74.6061 Q2928.37 74.6061 2943.53 91.5041 Q2958.81 108.286 2958.81 137.221 M2937.51 130.972 Q2937.28 113.495 2927.67 103.078 Q2918.18 92.6615 2902.44 92.6615 Q2884.62 92.6615 2873.85 102.731 Q2863.2 112.8 2861.58 131.087 L2937.51 130.972 Z" fill="#000000" fill-rule="nonzero" fill-opacity="1" /><path clip-path="url(#clip710)" d="M2978.48 77.7311 L3001.05 77.7311 L3041.56 186.527 L3082.07 77.7311 L3104.64 77.7311 L3056.03 207.36 L3027.09 207.36 L2978.48 77.7311 Z" fill="#000000" fill-rule="nonzero" fill-opacity="1" /><path clip-path="url(#clip710)" d="M3134.04 77.7311 L3155.33 77.7311 L3155.33 207.36 L3134.04 207.36 L3134.04 77.7311 M3134.04 27.2684 L3155.33 27.2684 L3155.33 54.2358 L3134.04 54.2358 L3134.04 27.2684 Z" fill="#000000" fill-rule="nonzero" fill-opacity="1" /><path clip-path="url(#clip710)" d="M3258.8 142.198 Q3232.99 142.198 3223.04 148.101 Q3213.09 154.004 3213.09 168.24 Q3213.09 179.582 3220.49 186.295 Q3228.02 192.892 3240.86 192.892 Q3258.57 192.892 3269.22 180.393 Q3279.99 167.777 3279.99 146.944 L3279.99 142.198 L3258.8 142.198 M3301.28 133.402 L3301.28 207.36 L3279.99 207.36 L3279.99 187.684 Q3272.69 199.49 3261.81 205.161 Q3250.93 210.716 3235.19 210.716 Q3215.29 210.716 3203.48 199.605 Q3191.79 188.379 3191.79 169.629 Q3191.79 147.754 3206.37 136.643 Q3221.07 125.532 3250.12 125.532 L3279.99 125.532 L3279.99 123.448 Q3279.99 108.749 3270.26 100.763 Q3260.66 92.6615 3243.18 92.6615 Q3232.07 92.6615 3221.54 95.3236 Q3211 97.9856 3201.28 103.31 L3201.28 83.6338 Q3212.97 79.1199 3223.97 76.9209 Q3234.96 74.6061 3245.38 74.6061 Q3273.5 74.6061 3287.39 89.1893 Q3301.28 103.773 3301.28 133.402 Z" fill="#000000" fill-rule="nonzero" fill-opacity="1" /><path clip-path="url(#clip710)" d="M3366.21 40.9257 L3366.21 77.7311 L3410.08 77.7311 L3410.08 94.2819 L3366.21 94.2819 L3366.21 164.652 Q3366.21 180.508 3370.49 185.022 Q3374.89 189.536 3388.2 189.536 L3410.08 189.536 L3410.08 207.36 L3388.2 207.36 Q3363.55 207.36 3354.17 198.217 Q3344.8 188.957 3344.8 164.652 L3344.8 94.2819 L3329.17 94.2819 L3329.17 77.7311 L3344.8 77.7311 L3344.8 40.9257 L3366.21 40.9257 Z" fill="#000000" fill-rule="nonzero" fill-opacity="1" /><path clip-path="url(#clip710)" d="M3438.09 77.7311 L3459.38 77.7311 L3459.38 207.36 L3438.09 207.36 L3438.09 77.7311 M3438.09 27.2684 L3459.38 27.2684 L3459.38 54.2358 L3438.09 54.2358 L3438.09 27.2684 Z" fill="#000000" fill-rule="nonzero" fill-opacity="1" /><path clip-path="url(#clip710)" d="M3554.17 92.6615 Q3537.04 92.6615 3527.09 106.087 Q3517.14 119.398 3517.14 142.661 Q3517.14 165.925 3526.97 179.351 Q3536.93 192.661 3554.17 192.661 Q3571.19 192.661 3581.14 179.235 Q3591.09 165.809 3591.09 142.661 Q3591.09 119.629 3581.14 106.203 Q3571.19 92.6615 3554.17 92.6615 M3554.17 74.6061 Q3581.95 74.6061 3597.81 92.6615 Q3613.66 110.717 3613.66 142.661 Q3613.66 174.49 3597.81 192.661 Q3581.95 210.716 3554.17 210.716 Q3526.28 210.716 3510.42 192.661 Q3494.68 174.49 3494.68 142.661 Q3494.68 110.717 3510.42 92.6615 Q3526.28 74.6061 3554.17 74.6061 Z" fill="#000000" fill-rule="nonzero" fill-opacity="1" /><path clip-path="url(#clip710)" d="M3756.72 129.12 L3756.72 207.36 L3735.42 207.36 L3735.42 129.814 Q3735.42 111.411 3728.25 102.268 Q3721.07 93.1245 3706.72 93.1245 Q3689.47 93.1245 3679.52 104.12 Q3669.57 115.115 3669.57 134.097 L3669.57 207.36 L3648.15 207.36 L3648.15 77.7311 L3669.57 77.7311 L3669.57 97.8698 Q3677.21 86.1801 3687.51 80.3931 Q3697.92 74.6061 3711.46 74.6061 Q3733.8 74.6061 3745.26 88.4949 Q3756.72 102.268 3756.72 129.12 Z" fill="#000000" fill-rule="nonzero" fill-opacity="1" /><polyline clip-path="url(#clip712)" style="stroke:#009af9; stroke-linecap:round; stroke-linejoin:round; stroke-width:12; stroke-opacity:1; fill:none" points="1088.58,2516.46 1095.44,2511.41 1102.29,2506.35 1109.14,2501.25 1116,2496.1 1122.85,2490.89 1129.7,2485.6 1136.56,2480.23 1143.41,2474.76 1150.26,2469.17 1157.12,2463.46 1163.97,2457.62 1170.82,2451.64 1177.68,2445.5 1184.53,2439.2 1191.39,2432.73 1198.24,2426.09 1205.09,2419.28 1211.95,2412.28 1218.8,2405.11 1225.65,2397.76 1232.51,2390.24 1239.36,2382.54 1246.21,2374.68 1253.07,2366.65 1259.92,2358.48 1266.77,2350.16 1273.63,2341.71 1280.48,2333.14 1287.33,2324.46 1294.19,2315.68 1294.19,2306.46 1301.04,2296.68 1307.89,2286.62 1314.75,2276.33 1321.6,2265.84 1328.45,2255.19 1335.31,2244.4 1342.16,2233.49 1349.01,2222.49 1355.87,2211.42 1362.72,2200.3 1369.57,2189.13 1376.43,2177.95 1383.28,2166.77 1390.13,2155.59 1396.99,2144.45 1403.84,2133.35 1410.69,2122.32 1417.55,2111.36 1424.4,2100.49 1431.25,2089.72 1438.11,2079.08 1444.96,2068.57 1451.81,2058.2 1458.67,2047.99 1465.52,2037.94 1472.37,2028.05 1479.23,2018.35 1486.08,2008.82 1492.93,1999.47 1499.79,1990.32 1506.64,1981.35 1513.49,1972.59 1520.35,1964.02 1527.2,1955.66 1534.05,1947.52 1540.91,1939.6 1547.76,1931.92 1554.62,1924.49 1561.47,1917.34 1568.32,1910.47 1575.18,1903.92 1582.03,1897.71 1588.88,1891.88 1595.74,1886.44 1602.59,1881.44 1609.44,1876.9 1616.3,1872.85 1623.15,1869.31 1630,1866.32 1636.86,1863.89 1643.71,1862.04 1650.56,1860.78 1657.42,1860.12 1664.27,1860.05 1671.12,1860.58 1677.98,1861.69 1684.83,1863.37 1691.68,1865.62 1698.54,1868.4 1705.39,1871.7 1712.24,1875.49 1719.1,1879.74 1725.95,1884.43 1732.8,1889.53 1739.66,1895 1746.51,1900.81 1753.36,1906.92 1760.22,1913.3 1767.07,1919.92 1773.92,1926.75 1780.78,1933.75 1787.63,1940.9 1794.48,1948.17 1801.34,1955.53 1808.19,1962.97 1815.04,1970.48 1821.9,1978.03 1828.75,1985.62 1835.6,1993.24 1842.46,2000.87 1849.31,2008.52 1856.16,2016.17 1863.02,2023.8 1869.87,2031.42 1876.72,2038.99 1883.58,2046.5 1890.43,2053.91 1897.28,2061.2 1904.14,2068.31 1910.99,2075.21 1917.84,2081.84 1924.7,2088.13 1931.55,2094.02 1938.41,2099.44 1945.26,2104.33 1952.11,2108.62 1958.97,2112.25 1965.82,2115.16 1972.67,2117.32 1979.53,2118.67 1986.38,2119.2 1993.23,2118.9 2000.09,2117.77 2006.94,2115.8 2013.79,2113.03 2020.65,2109.49 2027.5,2105.2 2034.35,2100.21 2041.21,2094.57 2048.06,2088.32 2054.91,2081.52 2061.77,2074.21 2068.62,2066.45 2075.47,2058.29 2082.33,2049.77 2089.18,2040.93 2096.03,2031.83 2102.89,2022.51 2109.74,2012.99 2116.59,2003.32 2123.45,1993.52 2130.3,1983.63 2137.15,1973.66 2144.01,1963.63 2150.86,1953.57 2157.71,1943.49 2164.57,1933.39 2171.42,1923.3 2178.27,1913.2 2185.13,1903.12 2191.98,1893.04 2198.83,1882.98 2205.69,1872.93 2212.54,1862.9 2219.39,1852.87 2226.25,1842.86 2233.1,1832.85 2239.95,1822.86 2246.81,1812.88 2253.66,1802.92 2260.51,1792.98 2267.37,1783.06 2274.22,1773.18 2281.07,1763.36 2287.93,1753.6 2294.78,1743.92 2301.64,1734.35 2308.49,1724.91 2315.34,1715.64 2322.2,1706.56 2329.05,1697.71 2335.9,1689.13 2342.76,1680.86 2349.61,1672.95 2356.46,1665.44 2363.32,1658.38 2370.17,1651.82 2377.02,1645.81 2383.88,1640.39 2390.73,1635.61 2397.58,1631.52 2404.44,1628.14 2411.29,1625.52 2418.14,1623.67 2425,1622.62 2431.85,1622.38 2438.7,1622.94 2445.56,1624.29 2452.41,1626.41 2459.26,1629.27 2466.12,1632.83 2472.97,1637.03 2479.82,1641.83 2486.68,1647.15 2493.53,1652.95 2500.38,1659.14 2507.24,1665.68 2514.09,1672.5 2520.94,1679.55 2527.8,1686.78 2534.65,1694.15 2541.5,1701.61 2548.36,1709.15 2555.21,1716.74 2562.06,1724.36 2568.92,1732 2575.77,1739.64 2582.62,1747.27 2589.48,1754.9 2596.33,1762.5 2603.18,1770.08 2610.04,1777.62 2616.89,1785.12 2623.74,1792.55 2630.6,1799.9 2637.45,1807.14 2644.3,1814.26 2651.16,1821.22 2658.01,1827.99 2664.87,1834.53 2671.72,1840.81 2678.57,1846.79 2685.43,1852.44 2692.28,1857.7 2699.13,1862.55 2705.99,1866.95 2712.84,1870.87 2719.69,1874.26 2726.55,1877.12 2733.4,1879.4 2740.25,1881.09 2747.11,1882.17 2753.96,1882.63 2760.81,1882.47 2767.67,1881.67 2774.52,1880.25 2781.37,1878.21 2788.23,1875.57 2795.08,1872.35 2801.93,1868.56 2808.79,1864.23 2815.64,1859.4 2822.49,1854.1 2829.35,1848.36 2836.2,1842.21 2843.05,1835.69 2849.91,1828.84 2856.76,1821.67 2863.61,1814.22 2870.47,1806.51 2877.32,1798.56 2884.17,1790.39 2891.03,1782.02 2897.88,1773.46 2904.73,1764.72 2911.59,1755.8 2918.44,1746.71 2925.29,1737.46 2932.15,1728.06 2939,1718.49 2945.85,1708.77 2952.71,1698.9 2959.56,1688.89 2966.41,1678.74 2973.27,1668.45 2980.12,1658.03 2986.97,1647.49 2993.83,1636.85 3000.68,1626.1 3007.53,1615.27 3014.39,1604.36 3021.24,1593.39 3028.09,1582.38 3034.95,1571.33 3041.8,1560.28 3048.66,1549.22 3055.51,1538.19 3062.36,1527.21 3069.22,1516.28 3076.07,1505.44 3082.92,1494.71 3089.78,1484.11 3096.63,1473.68 3103.48,1463.44 3110.34,1453.44 3117.19,1443.71 3124.04,1434.3 3130.9,1425.27 3137.75,1416.67 3144.6,1408.56 3151.46,1401.02 3158.31,1394.11 3165.16,1387.9 3172.02,1382.47 3178.87,1377.89 3185.72,1374.21 3192.58,1371.48 3199.43,1369.73 3206.28,1368.98 3213.14,1369.22 3219.99,1370.42 3226.84,1372.55 3233.7,1375.54 3240.55,1379.31 3247.4,1383.8 3254.26,1388.9 3261.11,1394.54 3267.96,1400.63 3274.82,1407.09 3281.67,1413.86 3288.52,1420.87 3295.38,1428.07 3302.23,1435.42 3309.08,1442.88 3315.94,1450.43 3322.79,1458.03 3329.64,1465.66 3336.5,1473.3 3343.35,1480.93 3350.2,1488.53 3357.06,1496.08 3363.91,1503.55 3370.76,1510.92 3377.62,1518.17 3384.47,1525.28 3391.32,1532.21 3398.18,1538.94 3405.03,1545.45 3411.89,1551.72 3418.74,1557.74 3425.59,1563.48 3432.45,1568.94 3439.3,1574.1 3446.15,1578.97 3453.01,1583.53 3459.86,1587.78 3466.71,1591.73 3473.57,1595.37 3480.42,1598.69 3487.27,1601.7 3494.13,1604.38 3500.98,1606.74 3507.83,1608.77 3514.69,1610.44 3521.54,1611.76 3528.39,1612.7 3535.25,1613.26 3542.1,1613.42 3548.95,1613.18 3555.81,1612.52 3562.66,1611.45 3569.51,1609.96 3576.37,1608.06 3583.22,1605.75 3590.07,1603.04 3596.93,1599.95 3603.78,1596.47 3610.63,1592.63 3617.49,1588.42 3624.34,1583.86 3631.19,1578.95 3638.05,1573.7 3644.9,1568.1 3651.75,1562.14 3658.61,1555.83 3665.46,1549.17 3672.31,1542.14 3679.17,1534.73 3686.02,1526.96 3692.87,1518.81 3699.73,1510.28 3706.58,1501.4 3713.43,1492.15 3720.29,1482.57 3727.14,1472.66 3733.99,1462.46 3740.85,1451.99 3747.7,1441.28 3754.55,1430.37 3761.41,1419.3 3768.26,1408.09 3775.12,1396.79 3781.97,1385.43 3788.82,1374.03 3795.68,1362.64 3802.53,1351.26 3809.38,1339.93 3816.24,1328.66 3823.09,1317.45 3829.94,1306.32 3836.8,1295.27 3843.65,1284.29 3850.5,1273.38 3857.36,1262.54 3864.21,1251.75 3871.06,1241 3877.92,1230.3 3884.77,1219.61 3891.62,1208.94 3898.48,1198.27 3905.33,1187.6 3912.18,1176.93 3919.04,1166.26 3925.89,1155.61 3932.74,1144.99 3939.6,1134.43 3946.45,1123.99 3953.3,1113.7 3960.16,1103.64 3967.01,1093.89 3973.86,1084.55 3980.72,1075.73 3987.57,1067.52 3994.42,1060.05 4001.28,1053.43 4008.13,1047.74 4014.98,1043.07 4021.84,1039.45 4028.69,1036.92 4035.54,1035.46 4042.4,1035.03 4049.25,1035.59 4056.1,1037.04 4062.96,1039.31 4069.81,1042.31 4076.66,1045.95 4083.52,1050.15 4090.37,1054.84 4097.22,1059.96 4104.08,1065.45 4110.93,1071.27 4117.78,1077.39 4124.64,1083.76 4131.49,1090.34 4138.34,1097.09 4145.2,1103.97 4152.05,1110.93 4158.91,1117.91 4165.76,1124.86 4172.61,1131.72 4179.47,1138.42 4186.32,1144.92 4193.17,1151.16 4200.03,1157.09 4206.88,1162.69 4213.73,1167.93 4220.59,1172.8 4227.44,1177.28 4234.29,1181.39 4241.15,1185.14 4248,1188.55 4254.85,1191.64 4261.71,1194.45 4268.56,1197.01 4275.41,1199.34 4282.27,1201.49 4289.12,1203.49 4295.97,1205.36 4302.83,1207.14 4309.68,1208.86 4316.53,1210.53 4323.39,1212.17 4330.24,1213.8 4337.09,1215.42 4343.95,1217.03 4350.8,1218.63 4357.65,1220.21 4364.51,1221.76 4371.36,1223.26 4378.21,1224.69 4385.07,1226.01 4391.92,1227.2 4398.77,1228.23 4405.63,1229.07 4412.48,1229.69 4419.33,1230.07 4426.19,1230.18 4433.04,1229.99 4439.89,1229.5 4446.75,1228.66 4453.6,1227.48 4460.45,1225.91 4467.31,1223.95 4474.16,1221.55 4481.01,1218.69 4487.87,1215.34 4494.72,1211.46 4501.57,1207 4508.43,1201.95 "/>
<polyline clip-path="url(#clip712)" style="stroke:#e26f46; stroke-linecap:round; stroke-linejoin:round; stroke-width:12; stroke-opacity:1; fill:none" points="1088.58,2508.45 1095.44,2487.4 1102.29,2466.35 1109.14,2445.29 1116,2424.24 1122.85,2403.19 1129.7,2382.14 1136.56,2361.08 1143.41,2340.03 1150.26,2318.98 1157.12,2297.93 1163.97,2276.87 1170.82,2255.82 1177.68,2234.77 1184.53,2213.71 1191.39,2192.66 1198.24,2171.61 1205.09,2150.56 1211.95,2129.5 1218.8,2108.45 1225.65,2087.4 1232.51,2066.35 1239.36,2045.29 1246.21,2024.24 1253.07,2003.19 1259.92,1982.13 1266.77,1961.08 1273.63,1940.03 1280.48,1918.98 1287.33,1897.92 1294.19,1876.87 1294.19,1865.91 1301.04,1865.23 1307.89,1864.96 1314.75,1865.21 1321.6,1866.08 1328.45,1867.66 1335.31,1870.06 1342.16,1873.36 1349.01,1877.64 1355.87,1882.97 1362.72,1889.42 1369.57,1897.02 1376.43,1905.82 1383.28,1915.82 1390.13,1927.04 1396.99,1939.45 1403.84,1953.02 1410.69,1967.72 1417.55,1983.5 1424.4,2000.28 1431.25,2018.01 1438.11,2036.61 1444.96,2056 1451.81,2076.13 1458.67,2096.92 1465.52,2118.32 1472.37,2140.25 1479.23,2162.67 1486.08,2185.53 1492.93,2208.77 1499.79,2232.35 1506.64,2256.21 1513.49,2280.29 1520.35,2304.52 1527.2,2328.82 1534.05,2353.07 1540.91,2377.15 1547.76,2400.92 1554.62,2424.19 1561.47,2446.79 1568.32,2468.47 1575.18,2489 1582.03,2508.12 1588.88,2525.55 1595.74,2541.04 1602.59,2554.32 1609.44,2565.15 1616.3,2573.31 1623.15,2578.62 1630,2580.95 1636.86,2580.21 1643.71,2576.36 1650.56,2569.43 1657.42,2559.47 1664.27,2546.59 1671.12,2530.96 1677.98,2512.74 1684.83,2492.15 1691.68,2469.43 1698.54,2444.8 1705.39,2418.53 1712.24,2390.85 1719.1,2362.04 1725.95,2332.31 1732.8,2301.91 1739.66,2271.07 1746.51,2239.98 1753.36,2208.85 1760.22,2177.84 1767.07,2147.13 1773.92,2116.84 1780.78,2087.11 1787.63,2058.04 1794.48,2029.7 1801.34,2002.17 1808.19,1975.48 1815.04,1949.67 1821.9,1924.74 1828.75,1900.7 1835.6,1877.52 1842.46,1855.19 1849.31,1833.66 1856.16,1812.9 1863.02,1792.86 1869.87,1773.5 1876.72,1754.76 1883.58,1736.62 1890.43,1719.02 1897.28,1701.94 1904.14,1685.34 1910.99,1669.22 1917.84,1653.56 1924.7,1638.36 1931.55,1623.65 1938.41,1609.44 1945.26,1595.78 1952.11,1582.71 1958.97,1570.3 1965.82,1558.6 1972.67,1547.71 1979.53,1537.69 1986.38,1528.62 1993.23,1520.59 2000.09,1513.68 2006.94,1507.96 2013.79,1503.49 2020.65,1500.34 2027.5,1498.55 2034.35,1498.16 2041.21,1499.2 2048.06,1501.68 2054.91,1505.61 2061.77,1510.98 2068.62,1517.77 2075.47,1525.95 2082.33,1535.48 2089.18,1546.31 2096.03,1558.37 2102.89,1571.6 2109.74,1585.92 2116.59,1601.24 2123.45,1617.49 2130.3,1634.56 2137.15,1652.38 2144.01,1670.85 2150.86,1689.89 2157.71,1709.41 2164.57,1729.35 2171.42,1749.64 2178.27,1770.21 2185.13,1791.01 2191.98,1811.99 2198.83,1833.11 2205.69,1854.33 2212.54,1875.62 2219.39,1896.94 2226.25,1918.26 2233.1,1939.54 2239.95,1960.75 2246.81,1981.84 2253.66,2002.75 2260.51,2023.44 2267.37,2043.84 2274.22,2063.86 2281.07,2083.44 2287.93,2102.48 2294.78,2120.88 2301.64,2138.55 2308.49,2155.37 2315.34,2171.24 2322.2,2186.06 2329.05,2199.71 2335.9,2212.11 2342.76,2223.16 2349.61,2232.78 2356.46,2240.9 2363.32,2247.46 2370.17,2252.42 2377.02,2255.74 2383.88,2257.41 2390.73,2257.44 2397.58,2255.82 2404.44,2252.6 2411.29,2247.82 2418.14,2241.53 2425,2233.82 2431.85,2224.75 2438.7,2214.42 2445.56,2202.93 2452.41,2190.39 2459.26,2176.88 2466.12,2162.53 2472.97,2147.41 2479.82,2131.63 2486.68,2115.27 2493.53,2098.39 2500.38,2081.05 2507.24,2063.3 2514.09,2045.18 2520.94,2026.69 2527.8,2007.85 2534.65,1988.66 2541.5,1969.1 2548.36,1949.14 2555.21,1928.77 2562.06,1907.93 2568.92,1886.61 2575.77,1864.75 2582.62,1842.32 2589.48,1819.29 2596.33,1795.62 2603.18,1771.3 2610.04,1746.3 2616.89,1720.63 2623.74,1694.3 2630.6,1667.34 2637.45,1639.79 2644.3,1611.7 2651.16,1583.17 2658.01,1554.29 2664.87,1525.18 2671.72,1495.97 2678.57,1466.83 2685.43,1437.92 2692.28,1409.43 2699.13,1381.57 2705.99,1354.55 2712.84,1328.6 2719.69,1303.94 2726.55,1280.8 2733.4,1259.41 2740.25,1239.99 2747.11,1222.76 2753.96,1207.91 2760.81,1195.6 2767.67,1185.98 2774.52,1179.15 2781.37,1175.17 2788.23,1174.08 2795.08,1175.84 2801.93,1180.4 2808.79,1187.65 2815.64,1197.44 2822.49,1209.6 2829.35,1223.9 2836.2,1240.13 2843.05,1258.05 2849.91,1277.41 2856.76,1297.98 2863.61,1319.53 2870.47,1341.85 2877.32,1364.75 2884.17,1388.05 2891.03,1411.61 2897.88,1435.3 2904.73,1459.01 2911.59,1482.65 2918.44,1506.14 2925.29,1529.42 2932.15,1552.44 2939,1575.15 2945.85,1597.49 2952.71,1619.44 2959.56,1640.92 2966.41,1661.9 2973.27,1682.33 2980.12,1702.13 2986.97,1721.26 2993.83,1739.64 3000.68,1757.21 3007.53,1773.9 3014.39,1789.66 3021.24,1804.41 3028.09,1818.12 3034.95,1830.75 3041.8,1842.26 3048.66,1852.63 3055.51,1861.88 3062.36,1870 3069.22,1877.03 3076.07,1883 3082.92,1887.97 3089.78,1891.99 3096.63,1895.13 3103.48,1897.46 3110.34,1899.07 3117.19,1900.05 3124.04,1900.46 3130.9,1900.41 3137.75,1899.99 3144.6,1899.28 3151.46,1898.37 3158.31,1897.35 3165.16,1896.29 3172.02,1895.28 3178.87,1894.36 3185.72,1893.6 3192.58,1893.03 3199.43,1892.66 3206.28,1892.48 3213.14,1892.47 3219.99,1892.58 3226.84,1892.73 3233.7,1892.83 3240.55,1892.77 3247.4,1892.42 3254.26,1891.66 3261.11,1890.35 3267.96,1888.33 3274.82,1885.48 3281.67,1881.66 3288.52,1876.7 3295.38,1870.49 3302.23,1862.87 3309.08,1853.71 3315.94,1842.87 3322.79,1830.22 3329.64,1815.66 3336.5,1799.06 3343.35,1780.36 3350.2,1759.49 3357.06,1736.43 3363.91,1711.17 3370.76,1683.75 3377.62,1654.25 3384.47,1622.77 3391.32,1589.46 3398.18,1554.47 3405.03,1518 3411.89,1480.23 3418.74,1441.4 3425.59,1401.7 3432.45,1361.38 3439.3,1320.65 3446.15,1279.75 3453.01,1238.9 3459.86,1198.36 3466.71,1158.39 3473.57,1119.23 3480.42,1081.2 3487.27,1044.59 3494.13,1009.73 3500.98,976.979 3507.83,946.698 3514.69,919.257 3521.54,895.025 3528.39,874.346 3535.25,857.527 3542.1,844.817 3548.95,836.388 3555.81,832.32 3562.66,832.592 3569.51,837.076 3576.37,845.546 3583.22,857.691 3590.07,873.128 3596.93,891.432 3603.78,912.156 3610.63,934.855 3617.49,959.106 3624.34,984.522 3631.19,1010.76 3638.05,1037.53 3644.9,1064.59 3651.75,1091.75 3658.61,1118.86 3665.46,1145.79 3672.31,1172.46 3679.17,1198.79 3686.02,1224.72 3692.87,1250.19 3699.73,1275.14 3706.58,1299.49 3713.43,1323.17 3720.29,1346.07 3727.14,1368.11 3733.99,1389.14 3740.85,1409.05 3747.7,1427.71 3754.55,1444.98 3761.41,1460.74 3768.26,1474.86 3775.12,1487.25 3781.97,1497.84 3788.82,1506.58 3795.68,1513.43 3802.53,1518.42 3809.38,1521.58 3816.24,1522.98 3823.09,1522.69 3829.94,1520.84 3836.8,1517.55 3843.65,1512.94 3850.5,1507.18 3857.36,1500.41 3864.21,1492.77 3871.06,1484.43 3877.92,1475.53 3884.77,1466.22 3891.62,1456.65 3898.48,1446.96 3905.33,1437.3 3912.18,1427.83 3919.04,1418.69 3925.89,1410.06 3932.74,1402.1 3939.6,1394.99 3946.45,1388.92 3953.3,1384.07 3960.16,1380.64 3967.01,1378.8 3973.86,1378.74 3980.72,1380.6 3987.57,1384.49 3994.42,1390.47 4001.28,1398.55 4008.13,1408.67 4014.98,1420.71 4021.84,1434.48 4028.69,1449.75 4035.54,1466.22 4042.4,1483.58 4049.25,1501.52 4056.1,1519.72 4062.96,1537.86 4069.81,1555.67 4076.66,1572.88 4083.52,1589.24 4090.37,1604.52 4097.22,1618.47 4104.08,1630.85 4110.93,1641.41 4117.78,1649.86 4124.64,1655.88 4131.49,1659.14 4138.34,1659.31 4145.2,1656.04 4152.05,1649.04 4158.91,1638.06 4165.76,1622.93 4172.61,1603.58 4179.47,1580.06 4186.32,1552.52 4193.17,1521.25 4200.03,1486.57 4206.88,1448.91 4213.73,1408.69 4220.59,1366.37 4227.44,1322.35 4234.29,1277.04 4241.15,1230.76 4248,1183.8 4254.85,1136.4 4261.71,1088.76 4268.56,1041.03 4275.41,993.361 4282.27,945.874 4289.12,898.704 4295.97,852.002 4302.83,805.951 4309.68,760.781 4316.53,716.779 4323.39,674.296 4330.24,633.755 4337.09,595.646 4343.95,560.514 4350.8,528.94 4357.65,501.508 4364.51,478.764 4371.36,461.169 4378.21,449.052 4385.07,442.573 4391.92,441.702 4398.77,446.21 4405.63,455.692 4412.48,469.606 4419.33,487.319 4426.19,508.161 4433.04,531.474 4439.89,556.655 4446.75,583.176 4453.6,610.602 4460.45,638.592 4467.31,666.891 4474.16,695.319 4481.01,723.757 4487.87,752.126 4494.72,780.374 4501.57,808.455 4508.43,836.321 "/>
<polyline clip-path="url(#clip712)" style="stroke:#3da44d; stroke-linecap:round; stroke-linejoin:round; stroke-width:12; stroke-opacity:1; fill:none" points="1088.58,2503.15 1095.44,2471.55 1102.29,2440.11 1109.14,2408.93 1116,2378.13 1122.85,2347.79 1129.7,2318.02 1136.56,2288.91 1143.41,2260.55 1150.26,2233.01 1157.12,2206.37 1163.97,2180.7 1170.82,2156.05 1177.68,2132.47 1184.53,2109.98 1191.39,2088.62 1198.24,2068.39 1205.09,2049.29 1211.95,2031.31 1218.8,2014.42 1225.65,1998.58 1232.51,1983.73 1239.36,1969.83 1246.21,1956.79 1253.07,1944.53 1259.92,1932.97 1266.77,1922.01 1273.63,1911.55 1280.48,1901.48 1287.33,1891.69 1294.19,1882.08 1294.19,1899.64 1301.04,1943.93 1307.89,1987.28 1314.75,2029.37 1321.6,2069.93 1328.45,2108.72 1335.31,2145.53 1342.16,2180.18 1349.01,2212.51 1355.87,2242.36 1362.72,2269.61 1369.57,2294.14 1376.43,2315.86 1383.28,2334.68 1390.13,2350.56 1396.99,2363.47 1403.84,2373.4 1410.69,2380.37 1417.55,2384.43 1424.4,2385.66 1431.25,2384.15 1438.11,2380.01 1444.96,2373.38 1451.81,2364.4 1458.67,2353.23 1465.52,2340.04 1472.37,2325.02 1479.23,2308.36 1486.08,2290.26 1492.93,2270.93 1499.79,2250.61 1506.64,2229.52 1513.49,2207.94 1520.35,2186.14 1527.2,2164.41 1534.05,2143.06 1540.91,2122.43 1547.76,2102.87 1554.62,2084.74 1561.47,2068.39 1568.32,2054.19 1575.18,2042.47 1582.03,2033.55 1588.88,2027.68 1595.74,2025.08 1602.59,2025.9 1609.44,2030.19 1616.3,2037.92 1623.15,2048.98 1630,2063.17 1636.86,2080.18 1643.71,2099.67 1650.56,2121.19 1657.42,2144.28 1664.27,2168.43 1671.12,2193.12 1677.98,2217.82 1684.83,2242.01 1691.68,2265.19 1698.54,2286.9 1705.39,2306.69 1712.24,2324.19 1719.1,2339.03 1725.95,2350.92 1732.8,2359.61 1739.66,2364.89 1746.51,2366.6 1753.36,2364.64 1760.22,2358.94 1767.07,2349.5 1773.92,2336.33 1780.78,2319.5 1787.63,2299.1 1794.48,2275.29 1801.34,2248.2 1808.19,2218.06 1815.04,2185.06 1821.9,2149.47 1828.75,2111.55 1835.6,2071.59 1842.46,2029.92 1849.31,1986.87 1856.16,1942.82 1863.02,1898.17 1869.87,1853.31 1876.72,1808.71 1883.58,1764.83 1890.43,1722.14 1897.28,1681.16 1904.14,1642.38 1910.99,1606.31 1917.84,1573.45 1924.7,1544.27 1931.55,1519.17 1938.41,1498.52 1945.26,1482.61 1952.11,1471.64 1958.97,1465.7 1965.82,1464.8 1972.67,1468.82 1979.53,1477.54 1986.38,1490.67 1993.23,1507.8 2000.09,1528.47 2006.94,1552.19 2013.79,1578.41 2020.65,1606.57 2027.5,1636.11 2034.35,1666.49 2041.21,1697.17 2048.06,1727.67 2054.91,1757.52 2061.77,1786.31 2068.62,1813.67 2075.47,1839.28 2082.33,1862.86 2089.18,1884.19 2096.03,1903.1 2102.89,1919.46 2109.74,1933.2 2116.59,1944.3 2123.45,1952.75 2130.3,1958.63 2137.15,1962.03 2144.01,1963.05 2150.86,1961.86 2157.71,1958.62 2164.57,1953.52 2171.42,1946.76 2178.27,1938.56 2185.13,1929.14 2191.98,1918.72 2198.83,1907.52 2205.69,1895.79 2212.54,1883.75 2219.39,1871.63 2226.25,1859.66 2233.1,1848.08 2239.95,1837.13 2246.81,1827.02 2253.66,1818 2260.51,1810.29 2267.37,1804.11 2274.22,1799.67 2281.07,1797.17 2287.93,1796.79 2294.78,1798.69 2301.64,1803.01 2308.49,1809.85 2315.34,1819.26 2322.2,1831.29 2329.05,1845.9 2335.9,1863.02 2342.76,1882.53 2349.61,1904.27 2356.46,1928 2363.32,1953.44 2370.17,1980.27 2377.02,2008.11 2383.88,2036.55 2390.73,2065.12 2397.58,2093.33 2404.44,2120.68 2411.29,2146.64 2418.14,2170.67 2425,2192.26 2431.85,2210.9 2438.7,2226.14 2445.56,2237.58 2452.41,2244.87 2459.26,2247.75 2466.12,2246.04 2472.97,2239.68 2479.82,2228.66 2486.68,2213.09 2493.53,2193.17 2500.38,2169.14 2507.24,2141.34 2514.09,2110.15 2520.94,2075.96 2527.8,2039.23 2534.65,2000.39 2541.5,1959.89 2548.36,1918.18 2555.21,1875.69 2562.06,1832.85 2568.92,1790.05 2575.77,1747.67 2582.62,1706.09 2589.48,1665.64 2596.33,1626.68 2603.18,1589.49 2610.04,1554.39 2616.89,1521.66 2623.74,1491.54 2630.6,1464.29 2637.45,1440.12 2644.3,1419.22 2651.16,1401.75 2658.01,1387.85 2664.87,1377.6 2671.72,1371.06 2678.57,1368.22 2685.43,1369.05 2692.28,1373.44 2699.13,1381.25 2705.99,1392.27 2712.84,1406.26 2719.69,1422.9 2726.55,1441.85 2733.4,1462.69 2740.25,1485.01 2747.11,1508.33 2753.96,1532.16 2760.81,1556 2767.67,1579.35 2774.52,1601.72 2781.37,1622.62 2788.23,1641.64 2795.08,1658.38 2801.93,1672.51 2808.79,1683.8 2815.64,1692.04 2822.49,1697.16 2829.35,1699.12 2836.2,1697.98 2843.05,1693.87 2849.91,1686.97 2856.76,1677.51 2863.61,1665.76 2870.47,1652.01 2877.32,1636.59 2884.17,1619.79 2891.03,1601.95 2897.88,1583.36 2904.73,1564.34 2911.59,1545.16 2918.44,1526.11 2925.29,1507.43 2932.15,1489.39 2939,1472.2 2945.85,1456.1 2952.71,1441.3 2959.56,1428 2966.41,1416.4 2973.27,1406.7 2980.12,1399.06 2986.97,1393.67 2993.83,1390.67 3000.68,1390.2 3007.53,1392.4 3014.39,1397.37 3021.24,1405.18 3028.09,1415.9 3034.95,1429.55 3041.8,1446.14 3048.66,1465.65 3055.51,1488.02 3062.36,1513.18 3069.22,1541.02 3076.07,1571.42 3082.92,1604.23 3089.78,1639.27 3096.63,1676.36 3103.48,1715.25 3110.34,1755.69 3117.19,1797.37 3124.04,1839.94 3130.9,1882.99 3137.75,1926.06 3144.6,1968.59 3151.46,2009.98 3158.31,2049.54 3165.16,2086.51 3172.02,2120.09 3178.87,2149.46 3185.72,2173.78 3192.58,2192.27 3199.43,2204.24 3206.28,2209.1 3213.14,2206.45 3219.99,2196.04 3226.84,2177.87 3233.7,2152.12 3240.55,2119.17 3247.4,2079.6 3254.26,2034.09 3261.11,1983.47 3267.96,1928.61 3274.82,1870.43 3281.67,1809.86 3288.52,1747.8 3295.38,1685.14 3302.23,1622.72 3309.08,1561.32 3315.94,1501.68 3322.79,1444.47 3329.64,1390.29 3336.5,1339.68 3343.35,1293.1 3350.2,1250.94 3357.06,1213.49 3363.91,1180.98 3370.76,1153.54 3377.62,1131.22 3384.47,1114.03 3391.32,1101.87 3398.18,1094.62 3405.03,1092.11 3411.89,1094.14 3418.74,1100.47 3425.59,1110.87 3432.45,1125.09 3439.3,1142.86 3446.15,1163.93 3453.01,1188.02 3459.86,1214.85 3466.71,1244.1 3473.57,1275.43 3480.42,1308.48 3487.27,1342.82 3494.13,1377.97 3500.98,1413.38 3507.83,1448.44 3514.69,1482.46 3521.54,1514.71 3528.39,1544.42 3535.25,1570.79 3542.1,1593.05 3548.95,1610.49 3555.81,1622.52 3562.66,1628.66 3569.51,1628.62 3576.37,1622.32 3583.22,1609.85 3590.07,1591.5 3596.93,1567.72 3603.78,1539.1 3610.63,1506.32 3617.49,1470.11 3624.34,1431.24 3631.19,1390.45 3638.05,1348.46 3644.9,1305.93 3651.75,1263.49 3658.61,1221.68 3665.46,1180.98 3672.31,1141.84 3679.17,1104.61 3686.02,1069.64 3692.87,1037.19 3699.73,1007.52 3706.58,980.809 3713.43,957.249 3720.29,936.979 3727.14,920.115 3733.99,906.747 3740.85,896.936 3747.7,890.716 3754.55,888.092 3761.41,889.033 3768.26,893.48 3775.12,901.337 3781.97,912.477 3788.82,926.743 3795.68,943.952 3802.53,963.903 3809.38,986.379 3816.24,1011.16 3823.09,1038.03 3829.94,1066.79 3836.8,1097.24 3843.65,1129.23 3850.5,1162.62 3857.36,1197.31 3864.21,1233.24 3871.06,1270.36 3877.92,1308.66 3884.77,1348.16 3891.62,1388.88 3898.48,1430.84 3905.33,1474.08 3912.18,1518.57 3919.04,1564.3 3925.89,1611.16 3932.74,1658.98 3939.6,1707.49 3946.45,1756.31 3953.3,1804.91 3960.16,1852.61 3967.01,1898.58 3973.86,1941.83 3980.72,1981.24 3987.57,2015.58 3994.42,2043.59 4001.28,2064.02 4008.13,2075.74 4014.98,2077.78 4021.84,2069.47 4028.69,2050.4 4035.54,2020.55 4042.4,1980.2 4049.25,1929.98 4056.1,1870.76 4062.96,1803.6 4069.81,1729.73 4076.66,1650.41 4083.52,1566.96 4090.37,1480.69 4097.22,1392.9 4104.08,1304.85 4110.93,1217.81 4117.78,1133.02 4124.64,1051.7 4131.49,975.048 4138.34,904.203 4145.2,840.21 4152.05,783.974 4158.91,736.21 4165.76,697.398 4172.61,667.754 4179.47,647.222 4186.32,635.483 4193.17,631.995 4200.03,636.045 4206.88,646.812 4213.73,663.429 4220.59,685.04 4227.44,710.849 4234.29,740.148 4241.15,772.338 4248,806.932 4254.85,843.557 4261.71,881.934 4268.56,921.872 4275.41,963.236 4282.27,1005.93 4289.12,1049.89 4295.97,1095 4302.83,1141.13 4309.68,1188.07 4316.53,1235.5 4323.39,1282.96 4330.24,1329.83 4337.09,1375.29 4343.95,1418.36 4350.8,1457.85 4357.65,1492.47 4364.51,1520.83 4371.36,1541.59 4378.21,1553.54 4385.07,1555.71 4391.92,1547.47 4398.77,1528.58 4405.63,1499.27 4412.48,1460.12 4419.33,1412.07 4426.19,1356.32 4433.04,1294.2 4439.89,1227.09 4446.75,1156.37 4453.6,1083.34 4460.45,1009.2 4467.31,935.024 4474.16,861.79 4481.01,790.357 4487.87,721.497 4494.72,655.899 4501.57,594.187 4508.43,536.916 "/>
<polyline clip-path="url(#clip712)" style="stroke:#000000; stroke-linecap:round; stroke-linejoin:round; stroke-width:8; stroke-opacity:1; fill:none" points="1088.58,2513.7 1095.44,2503.13 1102.29,2492.57 1109.14,2482 1116,2471.44 1122.85,2460.87 1129.7,2450.3 1136.56,2439.73 1143.41,2429.16 1150.26,2418.58 1157.12,2407.99 1163.97,2397.4 1170.82,2386.8 1177.68,2376.18 1184.53,2365.55 1191.39,2354.9 1198.24,2344.23 1205.09,2333.54 1211.95,2322.83 1218.8,2312.08 1225.65,2301.31 1232.51,2290.49 1239.36,2279.65 1246.21,2268.76 1253.07,2257.82 1259.92,2246.85 1266.77,2235.82 1273.63,2224.75 1280.48,2213.63 1287.33,2202.45 1294.19,2191.22 1294.19,2184.1 1301.04,2181 1307.89,2177.71 1314.75,2174.23 1321.6,2170.59 1328.45,2166.81 1335.31,2162.9 1342.16,2158.9 1349.01,2154.8 1355.87,2150.64 1362.72,2146.41 1369.57,2142.13 1376.43,2137.81 1383.28,2133.47 1390.13,2129.09 1396.99,2124.7 1403.84,2120.29 1410.69,2115.88 1417.55,2111.47 1424.4,2107.05 1431.25,2102.65 1438.11,2098.26 1444.96,2093.9 1451.81,2089.56 1458.67,2085.27 1465.52,2081.02 1472.37,2076.83 1479.23,2072.71 1486.08,2068.67 1492.93,2064.73 1499.79,2060.89 1506.64,2057.18 1513.49,2053.61 1520.35,2050.19 1527.2,2046.93 1534.05,2043.86 1540.91,2040.98 1547.76,2038.31 1554.62,2035.85 1561.47,2033.62 1568.32,2031.61 1575.18,2029.84 1582.03,2028.29 1588.88,2026.96 1595.74,2025.83 1602.59,2024.9 1609.44,2024.14 1616.3,2023.52 1623.15,2023.03 1630,2022.63 1636.86,2022.3 1643.71,2022.01 1650.56,2021.73 1657.42,2021.42 1664.27,2021.08 1671.12,2020.68 1677.98,2020.2 1684.83,2019.62 1691.68,2018.93 1698.54,2018.13 1705.39,2017.2 1712.24,2016.15 1719.1,2014.97 1725.95,2013.65 1732.8,2012.2 1739.66,2010.62 1746.51,2008.91 1753.36,2007.07 1760.22,2005.12 1767.07,2003.04 1773.92,2000.86 1780.78,1998.58 1787.63,1996.21 1794.48,1993.75 1801.34,1991.22 1808.19,1988.63 1815.04,1985.99 1821.9,1983.33 1828.75,1980.65 1835.6,1977.97 1842.46,1975.31 1849.31,1972.69 1856.16,1970.12 1863.02,1967.64 1869.87,1965.25 1876.72,1962.98 1883.58,1960.84 1890.43,1958.84 1897.28,1957.02 1904.14,1955.36 1910.99,1953.89 1917.84,1952.6 1924.7,1951.5 1931.55,1950.58 1938.41,1949.83 1945.26,1949.23 1952.11,1948.77 1958.97,1948.42 1965.82,1948.16 1972.67,1947.95 1979.53,1947.78 1986.38,1947.6 1993.23,1947.39 2000.09,1947.12 2006.94,1946.77 2013.79,1946.31 2020.65,1945.73 2027.5,1945 2034.35,1944.13 2041.21,1943.09 2048.06,1941.88 2054.91,1940.49 2061.77,1938.93 2068.62,1937.18 2075.47,1935.26 2082.33,1933.15 2089.18,1930.88 2096.03,1928.43 2102.89,1925.81 2109.74,1923.02 2116.59,1920.08 2123.45,1916.99 2130.3,1913.76 2137.15,1910.38 2144.01,1906.88 2150.86,1903.27 2157.71,1899.54 2164.57,1895.71 2171.42,1891.8 2178.27,1887.82 2185.13,1883.78 2191.98,1879.69 2198.83,1875.56 2205.69,1871.41 2212.54,1867.26 2219.39,1863.11 2226.25,1858.99 2233.1,1854.9 2239.95,1850.86 2246.81,1846.89 2253.66,1842.99 2260.51,1839.18 2267.37,1835.48 2274.22,1831.89 2281.07,1828.42 2287.93,1825.09 2294.78,1821.91 2301.64,1818.87 2308.49,1816 2315.34,1813.3 2322.2,1810.77 2329.05,1808.41 2335.9,1806.24 2342.76,1804.24 2349.61,1802.42 2356.46,1800.79 2363.32,1799.32 2370.17,1798.04 2377.02,1796.91 2383.88,1795.95 2390.73,1795.14 2397.58,1794.47 2404.44,1793.92 2411.29,1793.48 2418.14,1793.14 2425,1792.86 2431.85,1792.62 2438.7,1792.41 2445.56,1792.2 2452.41,1791.95 2459.26,1791.64 2466.12,1791.25 2472.97,1790.75 2479.82,1790.12 2486.68,1789.34 2493.53,1788.4 2500.38,1787.29 2507.24,1786 2514.09,1784.53 2520.94,1782.88 2527.8,1781.05 2534.65,1779.07 2541.5,1776.93 2548.36,1774.66 2555.21,1772.28 2562.06,1769.79 2568.92,1767.22 2575.77,1764.6 2582.62,1761.93 2589.48,1759.24 2596.33,1756.55 2603.18,1753.87 2610.04,1751.23 2616.89,1748.63 2623.74,1746.11 2630.6,1743.66 2637.45,1741.31 2644.3,1739.06 2651.16,1736.92 2658.01,1734.9 2664.87,1733.01 2671.72,1731.25 2678.57,1729.63 2685.43,1728.14 2692.28,1726.79 2699.13,1725.58 2705.99,1724.5 2712.84,1723.55 2719.69,1722.71 2726.55,1722 2733.4,1721.39 2740.25,1720.87 2747.11,1720.43 2753.96,1720.06 2760.81,1719.73 2767.67,1719.42 2774.52,1719.12 2781.37,1718.8 2788.23,1718.43 2795.08,1717.98 2801.93,1717.44 2808.79,1716.78 2815.64,1715.98 2822.49,1715 2829.35,1713.84 2836.2,1712.49 2843.05,1710.92 2849.91,1709.13 2856.76,1707.13 2863.61,1704.9 2870.47,1702.46 2877.32,1699.8 2884.17,1696.94 2891.03,1693.89 2897.88,1690.66 2904.73,1687.27 2911.59,1683.72 2918.44,1680.04 2925.29,1676.23 2932.15,1672.31 2939,1668.3 2945.85,1664.21 2952.71,1660.05 2959.56,1655.84 2966.41,1651.58 2973.27,1647.3 2980.12,1642.98 2986.97,1638.66 2993.83,1634.33 3000.68,1630 3007.53,1625.69 3014.39,1621.39 3021.24,1617.11 3028.09,1612.87 3034.95,1608.65 3041.8,1604.49 3048.66,1600.37 3055.51,1596.3 3062.36,1592.31 3069.22,1588.39 3076.07,1584.56 3082.92,1580.84 3089.78,1577.23 3096.63,1573.75 3103.48,1570.42 3110.34,1567.26 3117.19,1564.29 3124.04,1561.52 3130.9,1558.97 3137.75,1556.65 3144.6,1554.59 3151.46,1552.79 3158.31,1551.25 3165.16,1549.97 3172.02,1548.95 3178.87,1548.17 3185.72,1547.61 3192.58,1547.23 3199.43,1547 3206.28,1546.87 3213.14,1546.79 3219.99,1546.73 3226.84,1546.62 3233.7,1546.44 3240.55,1546.12 3247.4,1545.66 3254.26,1545.02 3261.11,1544.19 3267.96,1543.15 3274.82,1541.93 3281.67,1540.51 3288.52,1538.91 3295.38,1537.15 3302.23,1535.25 3309.08,1533.22 3315.94,1531.09 3322.79,1528.87 3329.64,1526.57 3336.5,1524.21 3343.35,1521.81 3350.2,1519.36 3357.06,1516.89 3363.91,1514.38 3370.76,1511.84 3377.62,1509.28 3384.47,1506.7 3391.32,1504.1 3398.18,1501.48 3405.03,1498.85 3411.89,1496.2 3418.74,1493.56 3425.59,1490.93 3432.45,1488.32 3439.3,1485.75 3446.15,1483.23 3453.01,1480.77 3459.86,1478.41 3466.71,1476.15 3473.57,1474.03 3480.42,1472.05 3487.27,1470.24 3494.13,1468.61 3500.98,1467.18 3507.83,1465.96 3514.69,1464.94 3521.54,1464.13 3528.39,1463.5 3535.25,1463.05 3542.1,1462.73 3548.95,1462.51 3555.81,1462.35 3562.66,1462.19 3569.51,1461.99 3576.37,1461.7 3583.22,1461.27 3590.07,1460.65 3596.93,1459.81 3603.78,1458.73 3610.63,1457.39 3617.49,1455.78 3624.34,1453.9 3631.19,1451.76 3638.05,1449.36 3644.9,1446.72 3651.75,1443.85 3658.61,1440.78 3665.46,1437.52 3672.31,1434.09 3679.17,1430.51 3686.02,1426.78 3692.87,1422.93 3699.73,1418.96 3706.58,1414.89 3713.43,1410.71 3720.29,1406.45 3727.14,1402.09 3733.99,1397.65 3740.85,1393.12 3747.7,1388.51 3754.55,1383.81 3761.41,1379.03 3768.26,1374.15 3775.12,1369.18 3781.97,1364.12 3788.82,1358.96 3795.68,1353.71 3802.53,1348.36 3809.38,1342.91 3816.24,1337.37 3823.09,1331.75 3829.94,1326.05 3836.8,1320.27 3843.65,1314.44 3850.5,1308.57 3857.36,1302.66 3864.21,1296.74 3871.06,1290.82 3877.92,1284.92 3884.77,1279.07 3891.62,1273.29 3898.48,1267.61 3905.33,1262.04 3912.18,1256.63 3919.04,1251.4 3925.89,1246.37 3932.74,1241.59 3939.6,1237.08 3946.45,1232.88 3953.3,1229.01 3960.16,1225.49 3967.01,1222.35 3973.86,1219.6 3980.72,1217.23 3987.57,1215.24 3994.42,1213.61 4001.28,1212.3 4008.13,1211.26 4014.98,1210.43 4021.84,1209.75 4028.69,1209.16 4035.54,1208.59 4042.4,1207.97 4049.25,1207.27 4056.1,1206.44 4062.96,1205.46 4069.81,1204.33 4076.66,1203.04 4083.52,1201.61 4090.37,1200.06 4097.22,1198.43 4104.08,1196.74 4110.93,1195.03 4117.78,1193.31 4124.64,1191.63 4131.49,1189.99 4138.34,1188.4 4145.2,1186.86 4152.05,1185.36 4158.91,1183.87 4165.76,1182.38 4172.61,1180.84 4179.47,1179.21 4186.32,1177.45 4193.17,1175.54 4200.03,1173.44 4206.88,1171.13 4213.73,1168.61 4220.59,1165.86 4227.44,1162.89 4234.29,1159.73 4241.15,1156.38 4248,1152.87 4254.85,1149.24 4261.71,1145.52 4268.56,1141.75 4275.41,1137.95 4282.27,1134.18 4289.12,1130.48 4295.97,1126.88 4302.83,1123.44 4309.68,1120.2 4316.53,1117.19 4323.39,1114.46 4330.24,1112.04 4337.09,1109.96 4343.95,1108.23 4350.8,1106.86 4357.65,1105.83 4364.51,1105.12 4371.36,1104.68 4378.21,1104.44 4385.07,1104.33 4391.92,1104.26 4398.77,1104.15 4405.63,1103.92 4412.48,1103.49 4419.33,1102.81 4426.19,1101.85 4433.04,1100.58 4439.89,1098.98 4446.75,1097.08 4453.6,1094.89 4460.45,1092.44 4467.31,1089.76 4474.16,1086.88 4481.01,1083.84 4487.87,1080.66 4494.72,1077.38 4501.57,1074.01 4508.43,1070.58 "/>
<polyline clip-path="url(#clip712)" style="stroke:#ff00ff; stroke-linecap:round; stroke-linejoin:round; stroke-width:4; stroke-opacity:1; fill:none" stroke-dasharray="16, 10" points="1294.19,4912.73 1294.19,-1890.08 "/>
<path clip-path="url(#clip710)" d="M3969.18 2569.54 L4490.19 2569.54 L4490.19 1986.34 L3969.18 1986.34  Z" fill="#ffffff" fill-rule="evenodd" fill-opacity="1"/>
<polyline clip-path="url(#clip710)" style="stroke:#000000; stroke-linecap:round; stroke-linejoin:round; stroke-width:4; stroke-opacity:1; fill:none" points="3969.18,2569.54 4490.19,2569.54 4490.19,1986.34 3969.18,1986.34 3969.18,2569.54 "/>
<polyline clip-path="url(#clip710)" style="stroke:#009af9; stroke-linecap:round; stroke-linejoin:round; stroke-width:22.5; stroke-opacity:1; fill:none" points="4009.46,2083.54 4251.13,2083.54 "/>
<path clip-path="url(#clip710)" d="M4339.32 2106.7 L4339.32 2089.29 L4325 2089.29 L4325 2082.09 L4348 2082.09 L4348 2109.91 Q4342.92 2113.51 4336.8 2115.38 Q4330.68 2117.2 4323.74 2117.2 Q4308.55 2117.2 4299.96 2108.35 Q4291.4 2099.45 4291.4 2083.61 Q4291.4 2067.72 4299.96 2058.87 Q4308.55 2049.97 4323.74 2049.97 Q4330.08 2049.97 4335.76 2051.53 Q4341.49 2053.09 4346.31 2056.13 L4346.31 2065.46 Q4341.45 2061.34 4335.98 2059.26 Q4330.51 2057.17 4324.48 2057.17 Q4312.59 2057.17 4306.6 2063.81 Q4300.65 2070.45 4300.65 2083.61 Q4300.65 2096.71 4306.6 2103.35 Q4312.59 2109.99 4324.48 2109.99 Q4329.12 2109.99 4332.77 2109.21 Q4336.41 2108.39 4339.32 2106.7 Z" fill="#000000" fill-rule="nonzero" fill-opacity="1" /><path clip-path="url(#clip710)" d="M4366.32 2108.56 L4380.64 2108.56 L4380.64 2059.13 L4365.06 2062.25 L4365.06 2054.27 L4380.55 2051.14 L4389.32 2051.14 L4389.32 2108.56 L4403.64 2108.56 L4403.64 2115.94 L4366.32 2115.94 L4366.32 2108.56 Z" fill="#000000" fill-rule="nonzero" fill-opacity="1" /><polyline clip-path="url(#clip710)" style="stroke:#e26f46; stroke-linecap:round; stroke-linejoin:round; stroke-width:22.5; stroke-opacity:1; fill:none" points="4009.46,2180.74 4251.13,2180.74 "/>
<path clip-path="url(#clip710)" d="M4339.32 2203.9 L4339.32 2186.49 L4325 2186.49 L4325 2179.29 L4348 2179.29 L4348 2207.11 Q4342.92 2210.71 4336.8 2212.58 Q4330.68 2214.4 4323.74 2214.4 Q4308.55 2214.4 4299.96 2205.55 Q4291.4 2196.65 4291.4 2180.81 Q4291.4 2164.92 4299.96 2156.07 Q4308.55 2147.17 4323.74 2147.17 Q4330.08 2147.17 4335.76 2148.73 Q4341.49 2150.29 4346.31 2153.33 L4346.31 2162.66 Q4341.45 2158.54 4335.98 2156.46 Q4330.51 2154.37 4324.48 2154.37 Q4312.59 2154.37 4306.6 2161.01 Q4300.65 2167.65 4300.65 2180.81 Q4300.65 2193.91 4306.6 2200.55 Q4312.59 2207.19 4324.48 2207.19 Q4329.12 2207.19 4332.77 2206.41 Q4336.41 2205.59 4339.32 2203.9 Z" fill="#000000" fill-rule="nonzero" fill-opacity="1" /><path clip-path="url(#clip710)" d="M4372.35 2205.76 L4402.95 2205.76 L4402.95 2213.14 L4361.8 2213.14 L4361.8 2205.76 Q4366.8 2200.6 4375.39 2191.92 Q4384.03 2183.19 4386.24 2180.68 Q4390.45 2175.94 4392.1 2172.69 Q4393.79 2169.39 4393.79 2166.22 Q4393.79 2161.06 4390.15 2157.8 Q4386.54 2154.55 4380.73 2154.55 Q4376.6 2154.55 4372 2155.98 Q4367.45 2157.41 4362.24 2160.32 L4362.24 2151.47 Q4367.53 2149.34 4372.13 2148.25 Q4376.73 2147.17 4380.55 2147.17 Q4390.62 2147.17 4396.61 2152.2 Q4402.6 2157.24 4402.6 2165.66 Q4402.6 2169.65 4401.08 2173.25 Q4399.61 2176.81 4395.66 2181.67 Q4394.57 2182.93 4388.76 2188.97 Q4382.94 2194.96 4372.35 2205.76 Z" fill="#000000" fill-rule="nonzero" fill-opacity="1" /><polyline clip-path="url(#clip710)" style="stroke:#3da44d; stroke-linecap:round; stroke-linejoin:round; stroke-width:22.5; stroke-opacity:1; fill:none" points="4009.46,2277.94 4251.13,2277.94 "/>
<path clip-path="url(#clip710)" d="M4339.32 2301.1 L4339.32 2283.69 L4325 2283.69 L4325 2276.49 L4348 2276.49 L4348 2304.31 Q4342.92 2307.91 4336.8 2309.78 Q4330.68 2311.6 4323.74 2311.6 Q4308.55 2311.6 4299.96 2302.75 Q4291.4 2293.85 4291.4 2278.01 Q4291.4 2262.12 4299.96 2253.27 Q4308.55 2244.37 4323.74 2244.37 Q4330.08 2244.37 4335.76 2245.93 Q4341.49 2247.49 4346.31 2250.53 L4346.31 2259.86 Q4341.45 2255.74 4335.98 2253.66 Q4330.51 2251.57 4324.48 2251.57 Q4312.59 2251.57 4306.6 2258.21 Q4300.65 2264.85 4300.65 2278.01 Q4300.65 2291.11 4306.6 2297.75 Q4312.59 2304.39 4324.48 2304.39 Q4329.12 2304.39 4332.77 2303.61 Q4336.41 2302.79 4339.32 2301.1 Z" fill="#000000" fill-rule="nonzero" fill-opacity="1" /><path clip-path="url(#clip710)" d="M4391.36 2275.4 Q4397.65 2276.75 4401.17 2281 Q4404.73 2285.25 4404.73 2291.5 Q4404.73 2301.1 4398.13 2306.35 Q4391.53 2311.6 4379.38 2311.6 Q4375.3 2311.6 4370.96 2310.77 Q4366.66 2309.99 4362.06 2308.39 L4362.06 2299.92 Q4365.71 2302.05 4370.05 2303.14 Q4374.39 2304.22 4379.12 2304.22 Q4387.37 2304.22 4391.66 2300.97 Q4396.01 2297.71 4396.01 2291.5 Q4396.01 2285.77 4391.97 2282.56 Q4387.98 2279.31 4380.81 2279.31 L4373.26 2279.31 L4373.26 2272.1 L4381.16 2272.1 Q4387.63 2272.1 4391.06 2269.54 Q4394.49 2266.94 4394.49 2262.08 Q4394.49 2257.09 4390.93 2254.44 Q4387.41 2251.75 4380.81 2251.75 Q4377.21 2251.75 4373.09 2252.53 Q4368.97 2253.31 4364.02 2254.96 L4364.02 2247.15 Q4369.01 2245.76 4373.35 2245.06 Q4377.73 2244.37 4381.6 2244.37 Q4391.58 2244.37 4397.39 2248.93 Q4403.21 2253.44 4403.21 2261.17 Q4403.21 2266.55 4400.13 2270.28 Q4397.05 2273.97 4391.36 2275.4 Z" fill="#000000" fill-rule="nonzero" fill-opacity="1" /><polyline clip-path="url(#clip710)" style="stroke:#000000; stroke-linecap:round; stroke-linejoin:round; stroke-width:15; stroke-opacity:1; fill:none" points="4009.46,2375.14 4251.13,2375.14 "/>
<path clip-path="url(#clip710)" d="M4343.66 2347.73 L4343.66 2356.98 Q4339.23 2352.85 4334.2 2350.81 Q4329.21 2348.77 4323.57 2348.77 Q4312.46 2348.77 4306.55 2355.59 Q4300.65 2362.36 4300.65 2375.21 Q4300.65 2388.01 4306.55 2394.82 Q4312.46 2401.59 4323.57 2401.59 Q4329.21 2401.59 4334.2 2399.55 Q4339.23 2397.51 4343.66 2393.39 L4343.66 2402.55 Q4339.06 2405.67 4333.9 2407.24 Q4328.77 2408.8 4323.05 2408.8 Q4308.33 2408.8 4299.87 2399.82 Q4291.4 2390.79 4291.4 2375.21 Q4291.4 2359.58 4299.87 2350.6 Q4308.33 2341.57 4323.05 2341.57 Q4328.86 2341.57 4333.98 2343.13 Q4339.15 2344.65 4343.66 2347.73 Z" fill="#000000" fill-rule="nonzero" fill-opacity="1" /><path clip-path="url(#clip710)" d="M4383.51 2348.69 Q4373.96 2348.69 4368.31 2355.8 Q4362.72 2362.92 4362.72 2375.21 Q4362.72 2387.45 4368.31 2394.56 Q4373.96 2401.68 4383.51 2401.68 Q4393.05 2401.68 4398.61 2394.56 Q4404.21 2387.45 4404.21 2375.21 Q4404.21 2362.92 4398.61 2355.8 Q4393.05 2348.69 4383.51 2348.69 M4383.51 2341.57 Q4397.13 2341.57 4405.29 2350.73 Q4413.45 2359.84 4413.45 2375.21 Q4413.45 2390.53 4405.29 2399.68 Q4397.13 2408.8 4383.51 2408.8 Q4369.83 2408.8 4361.63 2399.68 Q4353.47 2390.57 4353.47 2375.21 Q4353.47 2359.84 4361.63 2350.73 Q4369.83 2341.57 4383.51 2341.57 Z" fill="#000000" fill-rule="nonzero" fill-opacity="1" /><path clip-path="url(#clip710)" d="M4427.17 2342.74 L4435.94 2342.74 L4435.94 2407.54 L4427.17 2407.54 L4427.17 2342.74 Z" fill="#000000" fill-rule="nonzero" fill-opacity="1" /><polyline clip-path="url(#clip710)" style="stroke:#ff00ff; stroke-linecap:round; stroke-linejoin:round; stroke-width:7.5; stroke-opacity:1; fill:none" stroke-dasharray="30, 19" points="4009.46,2472.34 4251.13,2472.34 "/>
<path clip-path="url(#clip710)" d="M4305.29 2442.33 L4305.29 2456.13 L4321.74 2456.13 L4321.74 2462.34 L4305.29 2462.34 L4305.29 2488.73 Q4305.29 2494.67 4306.9 2496.36 Q4308.55 2498.06 4313.54 2498.06 L4321.74 2498.06 L4321.74 2504.74 L4313.54 2504.74 Q4304.3 2504.74 4300.78 2501.31 Q4297.26 2497.84 4297.26 2488.73 L4297.26 2462.34 L4291.4 2462.34 L4291.4 2456.13 L4297.26 2456.13 L4297.26 2442.33 L4305.29 2442.33 Z" fill="#000000" fill-rule="nonzero" fill-opacity="1" /><path clip-path="url(#clip710)" d="M4369.18 2519.5 L4369.18 2525.7 L4323 2525.7 L4323 2519.5 L4369.18 2519.5 Z" fill="#000000" fill-rule="nonzero" fill-opacity="1" /><path clip-path="url(#clip710)" d="M4411.67 2458 L4411.67 2465.46 Q4408.29 2463.6 4404.86 2462.68 Q4401.47 2461.73 4398 2461.73 Q4390.23 2461.73 4385.94 2466.68 Q4381.64 2471.58 4381.64 2480.48 Q4381.64 2489.38 4385.94 2494.32 Q4390.23 2499.23 4398 2499.23 Q4401.47 2499.23 4404.86 2498.32 Q4408.29 2497.36 4411.67 2495.5 L4411.67 2502.87 Q4408.33 2504.44 4404.73 2505.22 Q4401.17 2506 4397.13 2506 Q4386.15 2506 4379.69 2499.1 Q4373.22 2492.2 4373.22 2480.48 Q4373.22 2468.59 4379.73 2461.77 Q4386.28 2454.96 4397.65 2454.96 Q4401.34 2454.96 4404.86 2455.74 Q4408.37 2456.48 4411.67 2458 Z" fill="#000000" fill-rule="nonzero" fill-opacity="1" /><path clip-path="url(#clip710)" d="M4433.46 2442.33 L4433.46 2456.13 L4449.91 2456.13 L4449.91 2462.34 L4433.46 2462.34 L4433.46 2488.73 Q4433.46 2494.67 4435.07 2496.36 Q4436.72 2498.06 4441.71 2498.06 L4449.91 2498.06 L4449.91 2504.74 L4441.71 2504.74 Q4432.46 2504.74 4428.95 2501.31 Q4425.43 2497.84 4425.43 2488.73 L4425.43 2462.34 L4419.57 2462.34 L4419.57 2456.13 L4425.43 2456.13 L4425.43 2442.33 L4433.46 2442.33 Z" fill="#000000" fill-rule="nonzero" fill-opacity="1" /></svg>
