<?xml version="1.0" encoding="utf-8"?>
<svg xmlns="http://www.w3.org/2000/svg" xmlns:xlink="http://www.w3.org/1999/xlink" width="1200" height="800" viewBox="0 0 4800 3200">
<defs>
  <clipPath id="clip230">
    <rect x="0" y="0" width="4800" height="3200"/>
  </clipPath>
</defs>
<path clip-path="url(#clip230)" d="M0 3200 L4800 3200 L4800 0 L0 0  Z" fill="#ffffff" fill-rule="evenodd" fill-opacity="1"/>
<defs>
  <clipPath id="clip231">
    <rect x="960" y="0" width="3361" height="3200"/>
  </clipPath>
</defs>
<path clip-path="url(#clip230)" d="M1381.86 2645.13 L4611.02 2645.13 L4611.02 377.524 L1381.86 377.524  Z" fill="#ffffff" fill-rule="evenodd" fill-opacity="1"/>
<defs>
  <clipPath id="clip232">
    <rect x="1381" y="377" width="3230" height="2269"/>
  </clipPath>
</defs>
<polyline clip-path="url(#clip232)" style="stroke:#000000; stroke-linecap:round; stroke-linejoin:round; stroke-width:8; stroke-opacity:0.05; fill:none" stroke-dasharray="32, 20" points="1467.15,2645.13 1467.15,377.524 "/>
<polyline clip-path="url(#clip232)" style="stroke:#000000; stroke-linecap:round; stroke-linejoin:round; stroke-width:8; stroke-opacity:0.05; fill:none" stroke-dasharray="32, 20" points="2077.65,2645.13 2077.65,377.524 "/>
<polyline clip-path="url(#clip232)" style="stroke:#000000; stroke-linecap:round; stroke-linejoin:round; stroke-width:8; stroke-opacity:0.05; fill:none" stroke-dasharray="32, 20" points="2688.14,2645.13 2688.14,377.524 "/>
<polyline clip-path="url(#clip232)" style="stroke:#000000; stroke-linecap:round; stroke-linejoin:round; stroke-width:8; stroke-opacity:0.05; fill:none" stroke-dasharray="32, 20" points="3298.64,2645.13 3298.64,377.524 "/>
<polyline clip-path="url(#clip232)" style="stroke:#000000; stroke-linecap:round; stroke-linejoin:round; stroke-width:8; stroke-opacity:0.05; fill:none" stroke-dasharray="32, 20" points="3909.14,2645.13 3909.14,377.524 "/>
<polyline clip-path="url(#clip232)" style="stroke:#000000; stroke-linecap:round; stroke-linejoin:round; stroke-width:8; stroke-opacity:0.05; fill:none" stroke-dasharray="32, 20" points="4519.63,2645.13 4519.63,377.524 "/>
<polyline clip-path="url(#clip232)" style="stroke:#000000; stroke-linecap:round; stroke-linejoin:round; stroke-width:8; stroke-opacity:0.05; fill:none" stroke-dasharray="32, 20" points="1381.86,2510.01 4611.02,2510.01 "/>
<polyline clip-path="url(#clip232)" style="stroke:#000000; stroke-linecap:round; stroke-linejoin:round; stroke-width:8; stroke-opacity:0.05; fill:none" stroke-dasharray="32, 20" points="1381.86,2021.24 4611.02,2021.24 "/>
<polyline clip-path="url(#clip232)" style="stroke:#000000; stroke-linecap:round; stroke-linejoin:round; stroke-width:8; stroke-opacity:0.05; fill:none" stroke-dasharray="32, 20" points="1381.86,1532.47 4611.02,1532.47 "/>
<polyline clip-path="url(#clip232)" style="stroke:#000000; stroke-linecap:round; stroke-linejoin:round; stroke-width:8; stroke-opacity:0.05; fill:none" stroke-dasharray="32, 20" points="1381.86,1043.7 4611.02,1043.7 "/>
<polyline clip-path="url(#clip232)" style="stroke:#000000; stroke-linecap:round; stroke-linejoin:round; stroke-width:8; stroke-opacity:0.05; fill:none" stroke-dasharray="32, 20" points="1381.86,554.926 4611.02,554.926 "/>
<polyline clip-path="url(#clip230)" style="stroke:#000000; stroke-linecap:round; stroke-linejoin:round; stroke-width:4; stroke-opacity:1; fill:none" points="1381.86,2645.13 4611.02,2645.13 "/>
<polyline clip-path="url(#clip230)" style="stroke:#000000; stroke-linecap:round; stroke-linejoin:round; stroke-width:4; stroke-opacity:1; fill:none" points="1467.15,2645.13 1467.15,2626.23 "/>
<polyline clip-path="url(#clip230)" style="stroke:#000000; stroke-linecap:round; stroke-linejoin:round; stroke-width:4; stroke-opacity:1; fill:none" points="2077.65,2645.13 2077.65,2626.23 "/>
<polyline clip-path="url(#clip230)" style="stroke:#000000; stroke-linecap:round; stroke-linejoin:round; stroke-width:4; stroke-opacity:1; fill:none" points="2688.14,2645.13 2688.14,2626.23 "/>
<polyline clip-path="url(#clip230)" style="stroke:#000000; stroke-linecap:round; stroke-linejoin:round; stroke-width:4; stroke-opacity:1; fill:none" points="3298.64,2645.13 3298.64,2626.23 "/>
<polyline clip-path="url(#clip230)" style="stroke:#000000; stroke-linecap:round; stroke-linejoin:round; stroke-width:4; stroke-opacity:1; fill:none" points="3909.14,2645.13 3909.14,2626.23 "/>
<polyline clip-path="url(#clip230)" style="stroke:#000000; stroke-linecap:round; stroke-linejoin:round; stroke-width:4; stroke-opacity:1; fill:none" points="4519.63,2645.13 4519.63,2626.23 "/>
<path clip-path="url(#clip230)" d="M1467.15 2734.8 Q1451.35 2734.8 1443.35 2750.39 Q1435.45 2765.89 1435.45 2797.08 Q1435.45 2828.17 1443.35 2843.77 Q1451.35 2859.26 1467.15 2859.26 Q1483.05 2859.26 1490.95 2843.77 Q1498.95 2828.17 1498.95 2797.08 Q1498.95 2765.89 1490.95 2750.39 Q1483.05 2734.8 1467.15 2734.8 M1467.15 2718.59 Q1492.57 2718.59 1505.94 2738.75 Q1519.41 2758.8 1519.41 2797.08 Q1519.41 2835.26 1505.94 2855.41 Q1492.57 2875.46 1467.15 2875.46 Q1441.73 2875.46 1428.26 2855.41 Q1414.89 2835.26 1414.89 2797.08 Q1414.89 2758.8 1428.26 2738.75 Q1441.73 2718.59 1467.15 2718.59 Z" fill="#000000" fill-rule="nonzero" fill-opacity="1" /><path clip-path="url(#clip230)" d="M2035.57 2855.31 L2068.99 2855.31 L2068.99 2739.96 L2032.63 2747.25 L2032.63 2728.62 L2068.78 2721.33 L2089.24 2721.33 L2089.24 2855.31 L2122.66 2855.31 L2122.66 2872.53 L2035.57 2872.53 L2035.57 2855.31 Z" fill="#000000" fill-rule="nonzero" fill-opacity="1" /><path clip-path="url(#clip230)" d="M2664.75 2855.31 L2736.15 2855.31 L2736.15 2872.53 L2640.14 2872.53 L2640.14 2855.31 Q2651.79 2843.26 2671.84 2823.01 Q2691.99 2802.65 2697.16 2796.78 Q2706.98 2785.74 2710.83 2778.14 Q2714.78 2770.44 2714.78 2763.05 Q2714.78 2751 2706.27 2743.4 Q2697.86 2735.81 2684.29 2735.81 Q2674.67 2735.81 2663.94 2739.15 Q2653.31 2742.49 2641.15 2749.28 L2641.15 2728.62 Q2653.51 2723.66 2664.24 2721.13 Q2674.98 2718.59 2683.89 2718.59 Q2707.38 2718.59 2721.36 2730.34 Q2735.34 2742.09 2735.34 2761.74 Q2735.34 2771.05 2731.79 2779.46 Q2728.35 2787.76 2719.13 2799.1 Q2716.6 2802.04 2703.03 2816.12 Q2689.46 2830.09 2664.75 2855.31 Z" fill="#000000" fill-rule="nonzero" fill-opacity="1" /><path clip-path="url(#clip230)" d="M3317.22 2791 Q3331.91 2794.14 3340.11 2804.07 Q3348.41 2813.99 3348.41 2828.58 Q3348.41 2850.96 3333.02 2863.21 Q3317.63 2875.46 3289.27 2875.46 Q3279.75 2875.46 3269.62 2873.54 Q3259.6 2871.72 3248.86 2867.97 L3248.86 2848.22 Q3257.37 2853.18 3267.5 2855.72 Q3277.63 2858.25 3288.66 2858.25 Q3307.91 2858.25 3317.93 2850.65 Q3328.06 2843.06 3328.06 2828.58 Q3328.06 2815.21 3318.64 2807.71 Q3309.32 2800.12 3292.61 2800.12 L3274.99 2800.12 L3274.99 2783.31 L3293.42 2783.31 Q3308.51 2783.31 3316.51 2777.33 Q3324.51 2771.25 3324.51 2759.91 Q3324.51 2748.27 3316.21 2742.09 Q3308.01 2735.81 3292.61 2735.81 Q3284.21 2735.81 3274.59 2737.63 Q3264.97 2739.46 3253.42 2743.3 L3253.42 2725.07 Q3265.07 2721.83 3275.19 2720.21 Q3285.42 2718.59 3294.44 2718.59 Q3317.73 2718.59 3331.3 2729.23 Q3344.87 2739.76 3344.87 2757.79 Q3344.87 2770.34 3337.68 2779.05 Q3330.49 2787.66 3317.22 2791 Z" fill="#000000" fill-rule="nonzero" fill-opacity="1" /><path clip-path="url(#clip230)" d="M3922.3 2739.15 L3870.65 2819.87 L3922.3 2819.87 L3922.3 2739.15 M3916.93 2721.33 L3942.66 2721.33 L3942.66 2819.87 L3964.23 2819.87 L3964.23 2836.88 L3942.66 2836.88 L3942.66 2872.53 L3922.3 2872.53 L3922.3 2836.88 L3854.04 2836.88 L3854.04 2817.13 L3916.93 2721.33 Z" fill="#000000" fill-rule="nonzero" fill-opacity="1" /><path clip-path="url(#clip230)" d="M4477.1 2721.33 L4557.41 2721.33 L4557.41 2738.54 L4495.83 2738.54 L4495.83 2775.61 Q4500.29 2774.09 4504.75 2773.38 Q4509.2 2772.57 4513.66 2772.57 Q4538.98 2772.57 4553.76 2786.45 Q4568.55 2800.32 4568.55 2824.02 Q4568.55 2848.42 4553.36 2862 Q4538.17 2875.46 4510.52 2875.46 Q4501 2875.46 4491.07 2873.84 Q4481.25 2872.22 4470.72 2868.98 L4470.72 2848.42 Q4479.83 2853.39 4489.55 2855.82 Q4499.28 2858.25 4510.11 2858.25 Q4527.63 2858.25 4537.86 2849.03 Q4548.09 2839.82 4548.09 2824.02 Q4548.09 2808.22 4537.86 2799 Q4527.63 2789.79 4510.11 2789.79 Q4501.91 2789.79 4493.71 2791.61 Q4485.6 2793.43 4477.1 2797.28 L4477.1 2721.33 Z" fill="#000000" fill-rule="nonzero" fill-opacity="1" /><path clip-path="url(#clip230)" d="M2831.98 2979.74 L2831.98 3011.94 L2870.36 3011.94 L2870.36 3026.42 L2831.98 3026.42 L2831.98 3088 Q2831.98 3101.87 2835.72 3105.82 Q2839.57 3109.77 2851.22 3109.77 L2870.36 3109.77 L2870.36 3125.37 L2851.22 3125.37 Q2829.65 3125.37 2821.44 3117.37 Q2813.24 3109.27 2813.24 3088 L2813.24 3026.42 L2799.57 3026.42 L2799.57 3011.94 L2813.24 3011.94 L2813.24 2979.74 L2831.98 2979.74 Z" fill="#000000" fill-rule="nonzero" fill-opacity="1" /><path clip-path="url(#clip230)" d="M3005.56 2967.99 Q2991.99 2991.28 2985.4 3014.07 Q2978.82 3036.86 2978.82 3060.25 Q2978.82 3083.64 2985.4 3106.63 Q2992.09 3129.52 3005.56 3152.71 L2989.35 3152.71 Q2974.16 3128.91 2966.57 3105.92 Q2959.07 3082.93 2959.07 3060.25 Q2959.07 3037.67 2966.57 3014.78 Q2974.06 2991.89 2989.35 2967.99 L3005.56 2967.99 Z" fill="#000000" fill-rule="nonzero" fill-opacity="1" /><path clip-path="url(#clip230)" d="M3114.02 3015.28 L3114.02 3032.91 Q3106.12 3028.85 3097.61 3026.83 Q3089.11 3024.8 3079.99 3024.8 Q3066.12 3024.8 3059.13 3029.06 Q3052.24 3033.31 3052.24 3041.82 Q3052.24 3048.3 3057.21 3052.05 Q3062.17 3055.69 3077.16 3059.03 L3083.54 3060.45 Q3103.39 3064.71 3111.69 3072.5 Q3120.1 3080.2 3120.1 3094.07 Q3120.1 3109.87 3107.54 3119.09 Q3095.08 3128.3 3073.21 3128.3 Q3064.09 3128.3 3054.17 3126.48 Q3044.35 3124.76 3033.41 3121.22 L3033.41 3101.97 Q3043.74 3107.34 3053.76 3110.08 Q3063.79 3112.71 3073.61 3112.71 Q3086.78 3112.71 3093.87 3108.25 Q3100.96 3103.7 3100.96 3095.49 Q3100.96 3087.9 3095.79 3083.85 Q3090.73 3079.79 3073.41 3076.05 L3066.93 3074.53 Q3049.61 3070.88 3041.91 3063.39 Q3034.22 3055.79 3034.22 3042.63 Q3034.22 3026.63 3045.56 3017.92 Q3056.9 3009.21 3077.77 3009.21 Q3088.1 3009.21 3097.21 3010.73 Q3106.32 3012.25 3114.02 3015.28 Z" fill="#000000" fill-rule="nonzero" fill-opacity="1" /><path clip-path="url(#clip230)" d="M3146.83 2967.99 L3163.04 2967.99 Q3178.23 2991.89 3185.72 3014.78 Q3193.32 3037.67 3193.32 3060.25 Q3193.32 3082.93 3185.72 3105.92 Q3178.23 3128.91 3163.04 3152.71 L3146.83 3152.71 Q3160.3 3129.52 3166.89 3106.63 Q3173.57 3083.64 3173.57 3060.25 Q3173.57 3036.86 3166.89 3014.07 Q3160.3 2991.28 3146.83 2967.99 Z" fill="#000000" fill-rule="nonzero" fill-opacity="1" /><polyline clip-path="url(#clip230)" style="stroke:#000000; stroke-linecap:round; stroke-linejoin:round; stroke-width:4; stroke-opacity:1; fill:none" points="1381.86,2645.13 1381.86,377.524 "/>
<polyline clip-path="url(#clip230)" style="stroke:#000000; stroke-linecap:round; stroke-linejoin:round; stroke-width:4; stroke-opacity:1; fill:none" points="1381.86,2510.01 1400.76,2510.01 "/>
<polyline clip-path="url(#clip230)" style="stroke:#000000; stroke-linecap:round; stroke-linejoin:round; stroke-width:4; stroke-opacity:1; fill:none" points="1381.86,2021.24 1400.76,2021.24 "/>
<polyline clip-path="url(#clip230)" style="stroke:#000000; stroke-linecap:round; stroke-linejoin:round; stroke-width:4; stroke-opacity:1; fill:none" points="1381.86,1532.47 1400.76,1532.47 "/>
<polyline clip-path="url(#clip230)" style="stroke:#000000; stroke-linecap:round; stroke-linejoin:round; stroke-width:4; stroke-opacity:1; fill:none" points="1381.86,1043.7 1400.76,1043.7 "/>
<polyline clip-path="url(#clip230)" style="stroke:#000000; stroke-linecap:round; stroke-linejoin:round; stroke-width:4; stroke-opacity:1; fill:none" points="1381.86,554.926 1400.76,554.926 "/>
<path clip-path="url(#clip230)" d="M404.284 2447.88 Q388.485 2447.88 380.485 2463.48 Q372.586 2478.97 372.586 2510.17 Q372.586 2541.26 380.485 2556.85 Q388.485 2572.35 404.284 2572.35 Q420.184 2572.35 428.083 2556.85 Q436.083 2541.26 436.083 2510.17 Q436.083 2478.97 428.083 2463.48 Q420.184 2447.88 404.284 2447.88 M404.284 2431.68 Q429.703 2431.68 443.071 2451.83 Q456.54 2471.89 456.54 2510.17 Q456.54 2548.35 443.071 2568.5 Q429.703 2588.55 404.284 2588.55 Q378.864 2588.55 365.395 2568.5 Q352.027 2548.35 352.027 2510.17 Q352.027 2471.89 365.395 2451.83 Q378.864 2431.68 404.284 2431.68 Z" fill="#000000" fill-rule="nonzero" fill-opacity="1" /><path clip-path="url(#clip230)" d="M492.492 2559.89 L513.861 2559.89 L513.861 2585.61 L492.492 2585.61 L492.492 2559.89 Z" fill="#000000" fill-rule="nonzero" fill-opacity="1" /><path clip-path="url(#clip230)" d="M602.17 2447.88 Q586.372 2447.88 578.371 2463.48 Q570.472 2478.97 570.472 2510.17 Q570.472 2541.26 578.371 2556.85 Q586.372 2572.35 602.17 2572.35 Q618.07 2572.35 625.97 2556.85 Q633.97 2541.26 633.97 2510.17 Q633.97 2478.97 625.97 2463.48 Q618.07 2447.88 602.17 2447.88 M602.17 2431.68 Q627.59 2431.68 640.958 2451.83 Q654.427 2471.89 654.427 2510.17 Q654.427 2548.35 640.958 2568.5 Q627.59 2588.55 602.17 2588.55 Q576.751 2588.55 563.282 2568.5 Q549.914 2548.35 549.914 2510.17 Q549.914 2471.89 563.282 2451.83 Q576.751 2431.68 602.17 2431.68 Z" fill="#000000" fill-rule="nonzero" fill-opacity="1" /><path clip-path="url(#clip230)" d="M734.129 2447.88 Q718.33 2447.88 710.33 2463.48 Q702.43 2478.97 702.43 2510.17 Q702.43 2541.26 710.33 2556.85 Q718.33 2572.35 734.129 2572.35 Q750.029 2572.35 757.928 2556.85 Q765.928 2541.26 765.928 2510.17 Q765.928 2478.97 757.928 2463.48 Q750.029 2447.88 734.129 2447.88 M734.129 2431.68 Q759.548 2431.68 772.916 2451.83 Q786.385 2471.89 786.385 2510.17 Q786.385 2548.35 772.916 2568.5 Q759.548 2588.55 734.129 2588.55 Q708.709 2588.55 695.24 2568.5 Q681.872 2548.35 681.872 2510.17 Q681.872 2471.89 695.24 2451.83 Q708.709 2431.68 734.129 2431.68 Z" fill="#000000" fill-rule="nonzero" fill-opacity="1" /><path clip-path="url(#clip230)" d="M866.087 2447.88 Q850.288 2447.88 842.288 2463.48 Q834.389 2478.97 834.389 2510.17 Q834.389 2541.26 842.288 2556.85 Q850.288 2572.35 866.087 2572.35 Q881.987 2572.35 889.886 2556.85 Q897.887 2541.26 897.887 2510.17 Q897.887 2478.97 889.886 2463.48 Q881.987 2447.88 866.087 2447.88 M866.087 2431.68 Q891.506 2431.68 904.874 2451.83 Q918.344 2471.89 918.344 2510.17 Q918.344 2548.35 904.874 2568.5 Q891.506 2588.55 866.087 2588.55 Q840.667 2588.55 827.198 2568.5 Q813.83 2548.35 813.83 2510.17 Q813.83 2471.89 827.198 2451.83 Q840.667 2431.68 866.087 2431.68 Z" fill="#000000" fill-rule="nonzero" fill-opacity="1" /><path clip-path="url(#clip230)" d="M957.84 2568.4 L991.26 2568.4 L991.26 2453.05 L954.903 2460.34 L954.903 2441.71 L991.057 2434.41 L1011.51 2434.41 L1011.51 2568.4 L1044.93 2568.4 L1044.93 2585.61 L957.84 2585.61 L957.84 2568.4 Z" fill="#000000" fill-rule="nonzero" fill-opacity="1" /><path clip-path="url(#clip230)" d="M1103.87 2568.4 L1175.27 2568.4 L1175.27 2585.61 L1079.27 2585.61 L1079.27 2568.4 Q1090.91 2556.35 1110.96 2536.09 Q1131.12 2515.74 1136.28 2509.86 Q1146.11 2498.82 1149.95 2491.23 Q1153.9 2483.53 1153.9 2476.14 Q1153.9 2464.09 1145.4 2456.49 Q1136.99 2448.9 1123.42 2448.9 Q1113.8 2448.9 1103.06 2452.24 Q1092.43 2455.58 1080.28 2462.37 L1080.28 2441.71 Q1092.63 2436.74 1103.37 2434.21 Q1114.1 2431.68 1123.02 2431.68 Q1146.51 2431.68 1160.49 2443.43 Q1174.46 2455.18 1174.46 2474.82 Q1174.46 2484.14 1170.92 2492.54 Q1167.47 2500.85 1158.26 2512.19 Q1155.73 2515.13 1142.16 2529.21 Q1128.59 2543.18 1103.87 2568.4 Z" fill="#000000" fill-rule="nonzero" fill-opacity="1" /><path clip-path="url(#clip230)" d="M1218.41 2434.41 L1298.72 2434.41 L1298.72 2451.63 L1237.15 2451.63 L1237.15 2488.7 Q1241.61 2487.18 1246.06 2486.47 Q1250.52 2485.66 1254.97 2485.66 Q1280.29 2485.66 1295.08 2499.53 Q1309.86 2513.41 1309.86 2537.1 Q1309.86 2561.51 1294.67 2575.08 Q1279.48 2588.55 1251.83 2588.55 Q1242.31 2588.55 1232.39 2586.93 Q1222.57 2585.31 1212.03 2582.07 L1212.03 2561.51 Q1221.15 2566.47 1230.87 2568.9 Q1240.59 2571.34 1251.43 2571.34 Q1268.95 2571.34 1279.18 2562.12 Q1289.41 2552.9 1289.41 2537.1 Q1289.41 2521.31 1279.18 2512.09 Q1268.95 2502.87 1251.43 2502.87 Q1243.23 2502.87 1235.02 2504.7 Q1226.92 2506.52 1218.41 2510.37 L1218.41 2434.41 Z" fill="#000000" fill-rule="nonzero" fill-opacity="1" /><path clip-path="url(#clip230)" d="M399.929 1959.11 Q384.131 1959.11 376.13 1974.71 Q368.231 1990.2 368.231 2021.39 Q368.231 2052.48 376.13 2068.08 Q384.131 2083.58 399.929 2083.58 Q415.829 2083.58 423.728 2068.08 Q431.729 2052.48 431.729 2021.39 Q431.729 1990.2 423.728 1974.71 Q415.829 1959.11 399.929 1959.11 M399.929 1942.91 Q425.349 1942.91 438.717 1963.06 Q452.186 1983.11 452.186 2021.39 Q452.186 2059.57 438.717 2079.73 Q425.349 2099.78 399.929 2099.78 Q374.51 2099.78 361.04 2079.73 Q347.672 2059.57 347.672 2021.39 Q347.672 1983.11 361.04 1963.06 Q374.51 1942.91 399.929 1942.91 Z" fill="#000000" fill-rule="nonzero" fill-opacity="1" /><path clip-path="url(#clip230)" d="M488.138 2071.12 L509.506 2071.12 L509.506 2096.84 L488.138 2096.84 L488.138 2071.12 Z" fill="#000000" fill-rule="nonzero" fill-opacity="1" /><path clip-path="url(#clip230)" d="M597.816 1959.11 Q582.017 1959.11 574.017 1974.71 Q566.117 1990.2 566.117 2021.39 Q566.117 2052.48 574.017 2068.08 Q582.017 2083.58 597.816 2083.58 Q613.716 2083.58 621.615 2068.08 Q629.615 2052.48 629.615 2021.39 Q629.615 1990.2 621.615 1974.71 Q613.716 1959.11 597.816 1959.11 M597.816 1942.91 Q623.235 1942.91 636.603 1963.06 Q650.072 1983.11 650.072 2021.39 Q650.072 2059.57 636.603 2079.73 Q623.235 2099.78 597.816 2099.78 Q572.396 2099.78 558.927 2079.73 Q545.559 2059.57 545.559 2021.39 Q545.559 1983.11 558.927 1963.06 Q572.396 1942.91 597.816 1942.91 Z" fill="#000000" fill-rule="nonzero" fill-opacity="1" /><path clip-path="url(#clip230)" d="M729.774 1959.11 Q713.975 1959.11 705.975 1974.71 Q698.076 1990.2 698.076 2021.39 Q698.076 2052.48 705.975 2068.08 Q713.975 2083.58 729.774 2083.58 Q745.674 2083.58 753.573 2068.08 Q761.574 2052.48 761.574 2021.39 Q761.574 1990.2 753.573 1974.71 Q745.674 1959.11 729.774 1959.11 M729.774 1942.91 Q755.193 1942.91 768.561 1963.06 Q782.031 1983.11 782.031 2021.39 Q782.031 2059.57 768.561 2079.73 Q755.193 2099.78 729.774 2099.78 Q704.355 2099.78 690.885 2079.73 Q677.517 2059.57 677.517 2021.39 Q677.517 1983.11 690.885 1963.06 Q704.355 1942.91 729.774 1942.91 Z" fill="#000000" fill-rule="nonzero" fill-opacity="1" /><path clip-path="url(#clip230)" d="M861.732 1959.11 Q845.934 1959.11 837.933 1974.71 Q830.034 1990.2 830.034 2021.39 Q830.034 2052.48 837.933 2068.08 Q845.934 2083.58 861.732 2083.58 Q877.632 2083.58 885.531 2068.08 Q893.532 2052.48 893.532 2021.39 Q893.532 1990.2 885.531 1974.71 Q877.632 1959.11 861.732 1959.11 M861.732 1942.91 Q887.152 1942.91 900.52 1963.06 Q913.989 1983.11 913.989 2021.39 Q913.989 2059.57 900.52 2079.73 Q887.152 2099.78 861.732 2099.78 Q836.313 2099.78 822.844 2079.73 Q809.476 2059.57 809.476 2021.39 Q809.476 1983.11 822.844 1963.06 Q836.313 1942.91 861.732 1942.91 Z" fill="#000000" fill-rule="nonzero" fill-opacity="1" /><path clip-path="url(#clip230)" d="M953.485 2079.63 L986.905 2079.63 L986.905 1964.28 L950.548 1971.57 L950.548 1952.93 L986.703 1945.64 L1007.16 1945.64 L1007.16 2079.63 L1040.58 2079.63 L1040.58 2096.84 L953.485 2096.84 L953.485 2079.63 Z" fill="#000000" fill-rule="nonzero" fill-opacity="1" /><path clip-path="url(#clip230)" d="M1082.1 1945.64 L1162.41 1945.64 L1162.41 1962.86 L1100.84 1962.86 L1100.84 1999.92 Q1105.29 1998.41 1109.75 1997.7 Q1114.2 1996.89 1118.66 1996.89 Q1143.98 1996.89 1158.76 2010.76 Q1173.55 2024.63 1173.55 2048.33 Q1173.55 2072.74 1158.36 2086.31 Q1143.17 2099.78 1115.52 2099.78 Q1106 2099.78 1096.08 2098.16 Q1086.25 2096.54 1075.72 2093.3 L1075.72 2072.74 Q1084.84 2077.7 1094.56 2080.13 Q1104.28 2082.56 1115.12 2082.56 Q1132.64 2082.56 1142.86 2073.35 Q1153.09 2064.13 1153.09 2048.33 Q1153.09 2032.53 1142.86 2023.32 Q1132.64 2014.1 1115.12 2014.1 Q1106.91 2014.1 1098.71 2015.93 Q1090.61 2017.75 1082.1 2021.6 L1082.1 1945.64 Z" fill="#000000" fill-rule="nonzero" fill-opacity="1" /><path clip-path="url(#clip230)" d="M1257.61 1959.11 Q1241.81 1959.11 1233.81 1974.71 Q1225.91 1990.2 1225.91 2021.39 Q1225.91 2052.48 1233.81 2068.08 Q1241.81 2083.58 1257.61 2083.58 Q1273.51 2083.58 1281.41 2068.08 Q1289.41 2052.48 1289.41 2021.39 Q1289.41 1990.2 1281.41 1974.71 Q1273.51 1959.11 1257.61 1959.11 M1257.61 1942.91 Q1283.03 1942.91 1296.39 1963.06 Q1309.86 1983.11 1309.86 2021.39 Q1309.86 2059.57 1296.39 2079.73 Q1283.03 2099.78 1257.61 2099.78 Q1232.19 2099.78 1218.72 2079.73 Q1205.35 2059.57 1205.35 2021.39 Q1205.35 1983.11 1218.72 1963.06 Q1232.19 1942.91 1257.61 1942.91 Z" fill="#000000" fill-rule="nonzero" fill-opacity="1" /><path clip-path="url(#clip230)" d="M404.284 1470.34 Q388.485 1470.34 380.485 1485.94 Q372.586 1501.43 372.586 1532.62 Q372.586 1563.71 380.485 1579.31 Q388.485 1594.8 404.284 1594.8 Q420.184 1594.8 428.083 1579.31 Q436.083 1563.71 436.083 1532.62 Q436.083 1501.43 428.083 1485.94 Q420.184 1470.34 404.284 1470.34 M404.284 1454.14 Q429.703 1454.14 443.071 1474.29 Q456.54 1494.34 456.54 1532.62 Q456.54 1570.8 443.071 1590.95 Q429.703 1611.01 404.284 1611.01 Q378.864 1611.01 365.395 1590.95 Q352.027 1570.8 352.027 1532.62 Q352.027 1494.34 365.395 1474.29 Q378.864 1454.14 404.284 1454.14 Z" fill="#000000" fill-rule="nonzero" fill-opacity="1" /><path clip-path="url(#clip230)" d="M492.492 1582.35 L513.861 1582.35 L513.861 1608.07 L492.492 1608.07 L492.492 1582.35 Z" fill="#000000" fill-rule="nonzero" fill-opacity="1" /><path clip-path="url(#clip230)" d="M602.17 1470.34 Q586.372 1470.34 578.371 1485.94 Q570.472 1501.43 570.472 1532.62 Q570.472 1563.71 578.371 1579.31 Q586.372 1594.8 602.17 1594.8 Q618.07 1594.8 625.97 1579.31 Q633.97 1563.71 633.97 1532.62 Q633.97 1501.43 625.97 1485.94 Q618.07 1470.34 602.17 1470.34 M602.17 1454.14 Q627.59 1454.14 640.958 1474.29 Q654.427 1494.34 654.427 1532.62 Q654.427 1570.8 640.958 1590.95 Q627.59 1611.01 602.17 1611.01 Q576.751 1611.01 563.282 1590.95 Q549.914 1570.8 549.914 1532.62 Q549.914 1494.34 563.282 1474.29 Q576.751 1454.14 602.17 1454.14 Z" fill="#000000" fill-rule="nonzero" fill-opacity="1" /><path clip-path="url(#clip230)" d="M734.129 1470.34 Q718.33 1470.34 710.33 1485.94 Q702.43 1501.43 702.43 1532.62 Q702.43 1563.71 710.33 1579.31 Q718.33 1594.8 734.129 1594.8 Q750.029 1594.8 757.928 1579.31 Q765.928 1563.71 765.928 1532.62 Q765.928 1501.43 757.928 1485.94 Q750.029 1470.34 734.129 1470.34 M734.129 1454.14 Q759.548 1454.14 772.916 1474.29 Q786.385 1494.34 786.385 1532.62 Q786.385 1570.8 772.916 1590.95 Q759.548 1611.01 734.129 1611.01 Q708.709 1611.01 695.24 1590.95 Q681.872 1570.8 681.872 1532.62 Q681.872 1494.34 695.24 1474.29 Q708.709 1454.14 734.129 1454.14 Z" fill="#000000" fill-rule="nonzero" fill-opacity="1" /><path clip-path="url(#clip230)" d="M866.087 1470.34 Q850.288 1470.34 842.288 1485.94 Q834.389 1501.43 834.389 1532.62 Q834.389 1563.71 842.288 1579.31 Q850.288 1594.8 866.087 1594.8 Q881.987 1594.8 889.886 1579.31 Q897.887 1563.71 897.887 1532.62 Q897.887 1501.43 889.886 1485.94 Q881.987 1470.34 866.087 1470.34 M866.087 1454.14 Q891.506 1454.14 904.874 1474.29 Q918.344 1494.34 918.344 1532.62 Q918.344 1570.8 904.874 1590.95 Q891.506 1611.01 866.087 1611.01 Q840.667 1611.01 827.198 1590.95 Q813.83 1570.8 813.83 1532.62 Q813.83 1494.34 827.198 1474.29 Q840.667 1454.14 866.087 1454.14 Z" fill="#000000" fill-rule="nonzero" fill-opacity="1" /><path clip-path="url(#clip230)" d="M957.84 1590.85 L991.26 1590.85 L991.26 1475.5 L954.903 1482.8 L954.903 1464.16 L991.057 1456.87 L1011.51 1456.87 L1011.51 1590.85 L1044.93 1590.85 L1044.93 1608.07 L957.84 1608.07 L957.84 1590.85 Z" fill="#000000" fill-rule="nonzero" fill-opacity="1" /><path clip-path="url(#clip230)" d="M1081.09 1456.87 L1178.31 1456.87 L1178.31 1465.58 L1123.42 1608.07 L1102.05 1608.07 L1153.7 1474.09 L1081.09 1474.09 L1081.09 1456.87 Z" fill="#000000" fill-rule="nonzero" fill-opacity="1" /><path clip-path="url(#clip230)" d="M1218.41 1456.87 L1298.72 1456.87 L1298.72 1474.09 L1237.15 1474.09 L1237.15 1511.15 Q1241.61 1509.63 1246.06 1508.92 Q1250.52 1508.11 1254.97 1508.11 Q1280.29 1508.11 1295.08 1521.99 Q1309.86 1535.86 1309.86 1559.56 Q1309.86 1583.97 1294.67 1597.54 Q1279.48 1611.01 1251.83 1611.01 Q1242.31 1611.01 1232.39 1609.39 Q1222.57 1607.77 1212.03 1604.53 L1212.03 1583.97 Q1221.15 1588.93 1230.87 1591.36 Q1240.59 1593.79 1251.43 1593.79 Q1268.95 1593.79 1279.18 1584.57 Q1289.41 1575.36 1289.41 1559.56 Q1289.41 1543.76 1279.18 1534.55 Q1268.95 1525.33 1251.43 1525.33 Q1243.23 1525.33 1235.02 1527.15 Q1226.92 1528.98 1218.41 1532.82 L1218.41 1456.87 Z" fill="#000000" fill-rule="nonzero" fill-opacity="1" /><path clip-path="url(#clip230)" d="M399.929 981.567 Q384.131 981.567 376.13 997.163 Q368.231 1012.66 368.231 1043.85 Q368.231 1074.94 376.13 1090.54 Q384.131 1106.03 399.929 1106.03 Q415.829 1106.03 423.728 1090.54 Q431.729 1074.94 431.729 1043.85 Q431.729 1012.66 423.728 997.163 Q415.829 981.567 399.929 981.567 M399.929 965.363 Q425.349 965.363 438.717 985.517 Q452.186 1005.57 452.186 1043.85 Q452.186 1082.03 438.717 1102.18 Q425.349 1122.23 399.929 1122.23 Q374.51 1122.23 361.04 1102.18 Q347.672 1082.03 347.672 1043.85 Q347.672 1005.57 361.04 985.517 Q374.51 965.363 399.929 965.363 Z" fill="#000000" fill-rule="nonzero" fill-opacity="1" /><path clip-path="url(#clip230)" d="M488.138 1093.57 L509.506 1093.57 L509.506 1119.3 L488.138 1119.3 L488.138 1093.57 Z" fill="#000000" fill-rule="nonzero" fill-opacity="1" /><path clip-path="url(#clip230)" d="M597.816 981.567 Q582.017 981.567 574.017 997.163 Q566.117 1012.66 566.117 1043.85 Q566.117 1074.94 574.017 1090.54 Q582.017 1106.03 597.816 1106.03 Q613.716 1106.03 621.615 1090.54 Q629.615 1074.94 629.615 1043.85 Q629.615 1012.66 621.615 997.163 Q613.716 981.567 597.816 981.567 M597.816 965.363 Q623.235 965.363 636.603 985.517 Q650.072 1005.57 650.072 1043.85 Q650.072 1082.03 636.603 1102.18 Q623.235 1122.23 597.816 1122.23 Q572.396 1122.23 558.927 1102.18 Q545.559 1082.03 545.559 1043.85 Q545.559 1005.57 558.927 985.517 Q572.396 965.363 597.816 965.363 Z" fill="#000000" fill-rule="nonzero" fill-opacity="1" /><path clip-path="url(#clip230)" d="M729.774 981.567 Q713.975 981.567 705.975 997.163 Q698.076 1012.66 698.076 1043.85 Q698.076 1074.94 705.975 1090.54 Q713.975 1106.03 729.774 1106.03 Q745.674 1106.03 753.573 1090.54 Q761.574 1074.94 761.574 1043.85 Q761.574 1012.66 753.573 997.163 Q745.674 981.567 729.774 981.567 M729.774 965.363 Q755.193 965.363 768.561 985.517 Q782.031 1005.57 782.031 1043.85 Q782.031 1082.03 768.561 1102.18 Q755.193 1122.23 729.774 1122.23 Q704.355 1122.23 690.885 1102.18 Q677.517 1082.03 677.517 1043.85 Q677.517 1005.57 690.885 985.517 Q704.355 965.363 729.774 965.363 Z" fill="#000000" fill-rule="nonzero" fill-opacity="1" /><path clip-path="url(#clip230)" d="M861.732 981.567 Q845.934 981.567 837.933 997.163 Q830.034 1012.66 830.034 1043.85 Q830.034 1074.94 837.933 1090.54 Q845.934 1106.03 861.732 1106.03 Q877.632 1106.03 885.531 1090.54 Q893.532 1074.94 893.532 1043.85 Q893.532 1012.66 885.531 997.163 Q877.632 981.567 861.732 981.567 M861.732 965.363 Q887.152 965.363 900.52 985.517 Q913.989 1005.57 913.989 1043.85 Q913.989 1082.03 900.52 1102.18 Q887.152 1122.23 861.732 1122.23 Q836.313 1122.23 822.844 1102.18 Q809.476 1082.03 809.476 1043.85 Q809.476 1005.57 822.844 985.517 Q836.313 965.363 861.732 965.363 Z" fill="#000000" fill-rule="nonzero" fill-opacity="1" /><path clip-path="url(#clip230)" d="M967.562 1102.08 L1038.96 1102.08 L1038.96 1119.3 L942.953 1119.3 L942.953 1102.08 Q954.599 1090.03 974.651 1069.78 Q994.804 1049.42 999.969 1043.55 Q1009.79 1032.51 1013.64 1024.91 Q1017.59 1017.21 1017.59 1009.82 Q1017.59 997.771 1009.08 990.175 Q1000.68 982.58 987.108 982.58 Q977.487 982.58 966.752 985.922 Q956.118 989.264 943.966 996.049 L943.966 975.389 Q956.321 970.427 967.056 967.895 Q977.791 965.363 986.703 965.363 Q1010.2 965.363 1024.17 977.111 Q1038.15 988.859 1038.15 1008.51 Q1038.15 1017.82 1034.6 1026.23 Q1031.16 1034.53 1021.95 1045.88 Q1019.41 1048.81 1005.84 1062.89 Q992.273 1076.86 967.562 1102.08 Z" fill="#000000" fill-rule="nonzero" fill-opacity="1" /><path clip-path="url(#clip230)" d="M1125.65 981.567 Q1109.85 981.567 1101.85 997.163 Q1093.95 1012.66 1093.95 1043.85 Q1093.95 1074.94 1101.85 1090.54 Q1109.85 1106.03 1125.65 1106.03 Q1141.55 1106.03 1149.45 1090.54 Q1157.45 1074.94 1157.45 1043.85 Q1157.45 1012.66 1149.45 997.163 Q1141.55 981.567 1125.65 981.567 M1125.65 965.363 Q1151.07 965.363 1164.44 985.517 Q1177.91 1005.57 1177.91 1043.85 Q1177.91 1082.03 1164.44 1102.18 Q1151.07 1122.23 1125.65 1122.23 Q1100.23 1122.23 1086.76 1102.18 Q1073.39 1082.03 1073.39 1043.85 Q1073.39 1005.57 1086.76 985.517 Q1100.23 965.363 1125.65 965.363 Z" fill="#000000" fill-rule="nonzero" fill-opacity="1" /><path clip-path="url(#clip230)" d="M1257.61 981.567 Q1241.81 981.567 1233.81 997.163 Q1225.91 1012.66 1225.91 1043.85 Q1225.91 1074.94 1233.81 1090.54 Q1241.81 1106.03 1257.61 1106.03 Q1273.51 1106.03 1281.41 1090.54 Q1289.41 1074.94 1289.41 1043.85 Q1289.41 1012.66 1281.41 997.163 Q1273.51 981.567 1257.61 981.567 M1257.61 965.363 Q1283.03 965.363 1296.39 985.517 Q1309.86 1005.57 1309.86 1043.85 Q1309.86 1082.03 1296.39 1102.18 Q1283.03 1122.23 1257.61 1122.23 Q1232.19 1122.23 1218.72 1102.18 Q1205.35 1082.03 1205.35 1043.85 Q1205.35 1005.57 1218.72 985.517 Q1232.19 965.363 1257.61 965.363 Z" fill="#000000" fill-rule="nonzero" fill-opacity="1" /><path clip-path="url(#clip230)" d="M404.284 492.795 Q388.485 492.795 380.485 508.391 Q372.586 523.885 372.586 555.077 Q372.586 586.168 380.485 601.764 Q388.485 617.259 404.284 617.259 Q420.184 617.259 428.083 601.764 Q436.083 586.168 436.083 555.077 Q436.083 523.885 428.083 508.391 Q420.184 492.795 404.284 492.795 M404.284 476.591 Q429.703 476.591 443.071 496.744 Q456.54 516.796 456.54 555.077 Q456.54 593.257 443.071 613.41 Q429.703 633.462 404.284 633.462 Q378.864 633.462 365.395 613.41 Q352.027 593.257 352.027 555.077 Q352.027 516.796 365.395 496.744 Q378.864 476.591 404.284 476.591 Z" fill="#000000" fill-rule="nonzero" fill-opacity="1" /><path clip-path="url(#clip230)" d="M492.492 604.802 L513.861 604.802 L513.861 630.526 L492.492 630.526 L492.492 604.802 Z" fill="#000000" fill-rule="nonzero" fill-opacity="1" /><path clip-path="url(#clip230)" d="M602.17 492.795 Q586.372 492.795 578.371 508.391 Q570.472 523.885 570.472 555.077 Q570.472 586.168 578.371 601.764 Q586.372 617.259 602.17 617.259 Q618.07 617.259 625.97 601.764 Q633.97 586.168 633.97 555.077 Q633.97 523.885 625.97 508.391 Q618.07 492.795 602.17 492.795 M602.17 476.591 Q627.59 476.591 640.958 496.744 Q654.427 516.796 654.427 555.077 Q654.427 593.257 640.958 613.41 Q627.59 633.462 602.17 633.462 Q576.751 633.462 563.282 613.41 Q549.914 593.257 549.914 555.077 Q549.914 516.796 563.282 496.744 Q576.751 476.591 602.17 476.591 Z" fill="#000000" fill-rule="nonzero" fill-opacity="1" /><path clip-path="url(#clip230)" d="M734.129 492.795 Q718.33 492.795 710.33 508.391 Q702.43 523.885 702.43 555.077 Q702.43 586.168 710.33 601.764 Q718.33 617.259 734.129 617.259 Q750.029 617.259 757.928 601.764 Q765.928 586.168 765.928 555.077 Q765.928 523.885 757.928 508.391 Q750.029 492.795 734.129 492.795 M734.129 476.591 Q759.548 476.591 772.916 496.744 Q786.385 516.796 786.385 555.077 Q786.385 593.257 772.916 613.41 Q759.548 633.462 734.129 633.462 Q708.709 633.462 695.24 613.41 Q681.872 593.257 681.872 555.077 Q681.872 516.796 695.24 496.744 Q708.709 476.591 734.129 476.591 Z" fill="#000000" fill-rule="nonzero" fill-opacity="1" /><path clip-path="url(#clip230)" d="M866.087 492.795 Q850.288 492.795 842.288 508.391 Q834.389 523.885 834.389 555.077 Q834.389 586.168 842.288 601.764 Q850.288 617.259 866.087 617.259 Q881.987 617.259 889.886 601.764 Q897.887 586.168 897.887 555.077 Q897.887 523.885 889.886 508.391 Q881.987 492.795 866.087 492.795 M866.087 476.591 Q891.506 476.591 904.874 496.744 Q918.344 516.796 918.344 555.077 Q918.344 593.257 904.874 613.41 Q891.506 633.462 866.087 633.462 Q840.667 633.462 827.198 613.41 Q813.83 593.257 813.83 555.077 Q813.83 516.796 827.198 496.744 Q840.667 476.591 866.087 476.591 Z" fill="#000000" fill-rule="nonzero" fill-opacity="1" /><path clip-path="url(#clip230)" d="M971.917 613.309 L1043.31 613.309 L1043.31 630.526 L947.308 630.526 L947.308 613.309 Q958.954 601.258 979.006 581.003 Q999.159 560.647 1004.32 554.774 Q1014.15 543.735 1018 536.139 Q1021.95 528.443 1021.95 521.05 Q1021.95 508.998 1013.44 501.403 Q1005.03 493.808 991.462 493.808 Q981.841 493.808 971.107 497.15 Q960.473 500.491 948.32 507.277 L948.32 486.617 Q960.676 481.655 971.41 479.123 Q982.145 476.591 991.057 476.591 Q1014.55 476.591 1028.53 488.339 Q1042.5 500.086 1042.5 519.733 Q1042.5 529.05 1038.96 537.456 Q1035.52 545.76 1026.3 557.103 Q1023.77 560.04 1010.2 574.117 Q996.627 588.092 971.917 613.309 Z" fill="#000000" fill-rule="nonzero" fill-opacity="1" /><path clip-path="url(#clip230)" d="M1103.87 613.309 L1175.27 613.309 L1175.27 630.526 L1079.27 630.526 L1079.27 613.309 Q1090.91 601.258 1110.96 581.003 Q1131.12 560.647 1136.28 554.774 Q1146.11 543.735 1149.95 536.139 Q1153.9 528.443 1153.9 521.05 Q1153.9 508.998 1145.4 501.403 Q1136.99 493.808 1123.42 493.808 Q1113.8 493.808 1103.06 497.15 Q1092.43 500.491 1080.28 507.277 L1080.28 486.617 Q1092.63 481.655 1103.37 479.123 Q1114.1 476.591 1123.02 476.591 Q1146.51 476.591 1160.49 488.339 Q1174.46 500.086 1174.46 519.733 Q1174.46 529.05 1170.92 537.456 Q1167.47 545.76 1158.26 557.103 Q1155.73 560.04 1142.16 574.117 Q1128.59 588.092 1103.87 613.309 Z" fill="#000000" fill-rule="nonzero" fill-opacity="1" /><path clip-path="url(#clip230)" d="M1218.41 479.326 L1298.72 479.326 L1298.72 496.542 L1237.15 496.542 L1237.15 533.608 Q1241.61 532.089 1246.06 531.38 Q1250.52 530.569 1254.97 530.569 Q1280.29 530.569 1295.08 544.444 Q1309.86 558.318 1309.86 582.016 Q1309.86 606.423 1294.67 619.993 Q1279.48 633.462 1251.83 633.462 Q1242.31 633.462 1232.39 631.842 Q1222.57 630.222 1212.03 626.981 L1212.03 606.423 Q1221.15 611.385 1230.87 613.816 Q1240.59 616.246 1251.43 616.246 Q1268.95 616.246 1279.18 607.03 Q1289.41 597.814 1289.41 582.016 Q1289.41 566.217 1279.18 557.002 Q1268.95 547.786 1251.43 547.786 Q1243.23 547.786 1235.02 549.609 Q1226.92 551.432 1218.41 555.28 L1218.41 479.326 Z" fill="#000000" fill-rule="nonzero" fill-opacity="1" /><path clip-path="url(#clip230)" d="M230.312 2212.74 L79.1124 2270.47 L79.1124 2249.1 L206.412 2201.19 L79.1124 2153.19 L79.1124 2131.92 L230.312 2189.55 L230.312 2212.74 Z" fill="#000000" fill-rule="nonzero" fill-opacity="1" /><path clip-path="url(#clip230)" d="M264.745 2024.47 L279.227 2024.47 L279.227 2132.23 L264.745 2132.23 L264.745 2024.47 Z" fill="#000000" fill-rule="nonzero" fill-opacity="1" /><path clip-path="url(#clip230)" d="M168.941 1909.93 L178.056 1909.93 L178.056 1995.61 Q197.298 1994.4 207.425 1984.07 Q217.451 1973.64 217.451 1955.1 Q217.451 1944.37 214.818 1934.34 Q212.185 1924.21 206.918 1914.29 L224.54 1914.29 Q228.793 1924.32 231.021 1934.85 Q233.249 1945.38 233.249 1956.22 Q233.249 1983.36 217.451 1999.26 Q201.652 2015.06 174.714 2015.06 Q146.864 2015.06 130.559 2000.07 Q114.153 1984.98 114.153 1959.46 Q114.153 1936.57 128.939 1923.3 Q143.623 1909.93 168.941 1909.93 M163.473 1928.57 Q148.18 1928.77 139.066 1937.18 Q129.951 1945.48 129.951 1959.25 Q129.951 1974.85 138.762 1984.27 Q147.573 1993.59 163.574 1995 L163.473 1928.57 Z" fill="#000000" fill-rule="nonzero" fill-opacity="1" /><path clip-path="url(#clip230)" d="M72.9348 1768.66 Q96.2275 1782.23 119.014 1788.81 Q141.8 1795.4 165.194 1795.4 Q188.588 1795.4 211.577 1788.81 Q234.465 1782.13 257.656 1768.66 L257.656 1784.86 Q233.857 1800.05 210.868 1807.65 Q187.879 1815.14 165.194 1815.14 Q142.61 1815.14 119.723 1807.65 Q96.8351 1800.16 72.9348 1784.86 L72.9348 1768.66 Z" fill="#000000" fill-rule="nonzero" fill-opacity="1" /><path clip-path="url(#clip230)" d="M213.299 1714.48 L273.455 1714.48 L273.455 1733.21 L116.887 1733.21 L116.887 1714.48 L134.103 1714.48 Q123.976 1708.61 119.115 1699.69 Q114.153 1690.68 114.153 1678.22 Q114.153 1657.56 130.559 1644.7 Q146.965 1631.74 173.701 1631.74 Q200.437 1631.74 216.843 1644.7 Q233.249 1657.56 233.249 1678.22 Q233.249 1690.68 228.388 1699.69 Q223.426 1708.61 213.299 1714.48 M173.701 1651.08 Q153.143 1651.08 141.496 1659.59 Q129.749 1667.99 129.749 1682.78 Q129.749 1697.57 141.496 1706.07 Q153.143 1714.48 173.701 1714.48 Q194.259 1714.48 206.007 1706.07 Q217.653 1697.57 217.653 1682.78 Q217.653 1667.99 206.007 1659.59 Q194.259 1651.08 173.701 1651.08 Z" fill="#000000" fill-rule="nonzero" fill-opacity="1" /><path clip-path="url(#clip230)" d="M204.589 1598.22 L204.589 1576.85 L230.312 1576.85 L230.312 1598.22 L204.589 1598.22 Z" fill="#000000" fill-rule="nonzero" fill-opacity="1" /><path clip-path="url(#clip230)" d="M185.55 1536.85 L116.887 1536.85 L116.887 1518.21 L184.841 1518.21 Q200.943 1518.21 209.045 1511.93 Q217.046 1505.65 217.046 1493.1 Q217.046 1478.01 207.425 1469.3 Q197.804 1460.49 181.195 1460.49 L116.887 1460.49 L116.887 1441.85 L230.312 1441.85 L230.312 1460.49 L212.894 1460.49 Q223.223 1467.27 228.287 1476.29 Q233.249 1485.2 233.249 1497.05 Q233.249 1516.59 221.097 1526.72 Q208.944 1536.85 185.55 1536.85 M114.153 1489.96 L114.153 1489.96 Z" fill="#000000" fill-rule="nonzero" fill-opacity="1" /><path clip-path="url(#clip230)" d="M204.589 1400.84 L204.589 1379.47 L230.312 1379.47 L230.312 1400.84 L204.589 1400.84 Z" fill="#000000" fill-rule="nonzero" fill-opacity="1" /><path clip-path="url(#clip230)" d="M145.446 1268.98 L145.446 1247.61 L171.169 1247.61 L171.169 1268.98 L145.446 1268.98 Z" fill="#000000" fill-rule="nonzero" fill-opacity="1" /><path clip-path="url(#clip230)" d="M134.306 1074.03 Q132.483 1077.17 131.673 1080.92 Q130.761 1084.56 130.761 1089.02 Q130.761 1104.82 141.091 1113.32 Q151.32 1121.73 170.562 1121.73 L230.312 1121.73 L230.312 1140.47 L116.887 1140.47 L116.887 1121.73 L134.509 1121.73 Q124.179 1115.86 119.216 1106.44 Q114.153 1097.02 114.153 1083.55 Q114.153 1081.63 114.457 1079.3 Q114.659 1076.97 115.165 1074.13 L134.306 1074.03 Z" fill="#000000" fill-rule="nonzero" fill-opacity="1" /><path clip-path="url(#clip230)" d="M173.296 1002.94 Q173.296 1025.52 178.461 1034.23 Q183.626 1042.94 196.082 1042.94 Q206.007 1042.94 211.881 1036.46 Q217.653 1029.88 217.653 1018.63 Q217.653 1003.14 206.716 993.823 Q195.677 984.405 177.448 984.405 L173.296 984.405 L173.296 1002.94 M165.599 965.77 L230.312 965.77 L230.312 984.405 L213.096 984.405 Q223.426 990.785 228.388 1000.3 Q233.249 1009.82 233.249 1023.6 Q233.249 1041.02 223.527 1051.35 Q213.704 1061.57 197.298 1061.57 Q178.157 1061.57 168.435 1048.81 Q158.713 1035.95 158.713 1010.53 L158.713 984.405 L156.89 984.405 Q144.028 984.405 137.04 992.912 Q129.951 1001.32 129.951 1016.61 Q129.951 1026.33 132.281 1035.55 Q134.61 1044.76 139.268 1053.27 L122.052 1053.27 Q118.102 1043.04 116.178 1033.42 Q114.153 1023.8 114.153 1014.69 Q114.153 990.076 126.913 977.923 Q139.673 965.77 165.599 965.77 Z" fill="#000000" fill-rule="nonzero" fill-opacity="1" /><path clip-path="url(#clip230)" d="M134.103 852.75 L72.7323 852.75 L72.7323 834.116 L230.312 834.116 L230.312 852.75 L213.299 852.75 Q223.426 858.624 228.388 867.637 Q233.249 876.549 233.249 889.107 Q233.249 909.665 216.843 922.628 Q200.437 935.49 173.701 935.49 Q146.965 935.49 130.559 922.628 Q114.153 909.665 114.153 889.107 Q114.153 876.549 119.115 867.637 Q123.976 858.624 134.103 852.75 M173.701 916.248 Q194.259 916.248 206.007 907.843 Q217.653 899.336 217.653 884.55 Q217.653 869.764 206.007 861.257 Q194.259 852.75 173.701 852.75 Q153.143 852.75 141.496 861.257 Q129.749 869.764 129.749 884.55 Q129.749 899.336 141.496 907.843 Q153.143 916.248 173.701 916.248 Z" fill="#000000" fill-rule="nonzero" fill-opacity="1" /><path clip-path="url(#clip230)" d="M72.9348 798.671 L72.9348 782.467 Q96.8351 767.276 119.723 759.782 Q142.61 752.187 165.194 752.187 Q187.879 752.187 210.868 759.782 Q233.857 767.276 257.656 782.467 L257.656 798.671 Q234.465 785.201 211.577 778.619 Q188.588 771.935 165.194 771.935 Q141.8 771.935 119.014 778.619 Q96.2275 785.201 72.9348 798.671 Z" fill="#000000" fill-rule="nonzero" fill-opacity="1" /><path clip-path="url(#clip230)" d="M1775.73 34.56 L1921.91 34.56 L1921.91 54.2358 L1860.57 54.2358 L1860.57 207.36 L1837.07 207.36 L1837.07 54.2358 L1775.73 54.2358 L1775.73 34.56 Z" fill="#000000" fill-rule="nonzero" fill-opacity="1" /><path clip-path="url(#clip230)" d="M1953.51 92.6615 Q1936.38 92.6615 1926.43 106.087 Q1916.47 119.398 1916.47 142.661 Q1916.47 165.925 1926.31 179.351 Q1936.26 192.661 1953.51 192.661 Q1970.52 192.661 1980.48 179.235 Q1990.43 165.809 1990.43 142.661 Q1990.43 119.629 1980.48 106.203 Q1970.52 92.6615 1953.51 92.6615 M1953.51 74.6061 Q1981.29 74.6061 1997.14 92.6615 Q2013 110.717 2013 142.661 Q2013 174.49 1997.14 192.661 Q1981.29 210.716 1953.51 210.716 Q1925.62 210.716 1909.76 192.661 Q1894.02 174.49 1894.02 142.661 Q1894.02 110.717 1909.76 92.6615 Q1925.62 74.6061 1953.51 74.6061 Z" fill="#000000" fill-rule="nonzero" fill-opacity="1" /><path clip-path="url(#clip230)" d="M2069.37 40.9257 L2069.37 77.7311 L2113.23 77.7311 L2113.23 94.2819 L2069.37 94.2819 L2069.37 164.652 Q2069.37 180.508 2073.65 185.022 Q2078.05 189.536 2091.36 189.536 L2113.23 189.536 L2113.23 207.36 L2091.36 207.36 Q2066.7 207.36 2057.33 198.217 Q2047.95 188.957 2047.95 164.652 L2047.95 94.2819 L2032.33 94.2819 L2032.33 77.7311 L2047.95 77.7311 L2047.95 40.9257 L2069.37 40.9257 Z" fill="#000000" fill-rule="nonzero" fill-opacity="1" /><path clip-path="url(#clip230)" d="M2200.15 142.198 Q2174.34 142.198 2164.39 148.101 Q2154.43 154.004 2154.43 168.24 Q2154.43 179.582 2161.84 186.295 Q2169.36 192.892 2182.21 192.892 Q2199.92 192.892 2210.57 180.393 Q2221.33 167.777 2221.33 146.944 L2221.33 142.198 L2200.15 142.198 M2242.63 133.402 L2242.63 207.36 L2221.33 207.36 L2221.33 187.684 Q2214.04 199.49 2203.16 205.161 Q2192.28 210.716 2176.54 210.716 Q2156.63 210.716 2144.83 199.605 Q2133.14 188.379 2133.14 169.629 Q2133.14 147.754 2147.72 136.643 Q2162.42 125.532 2191.47 125.532 L2221.33 125.532 L2221.33 123.448 Q2221.33 108.749 2211.61 100.763 Q2202 92.6615 2184.53 92.6615 Q2173.42 92.6615 2162.88 95.3236 Q2152.35 97.9856 2142.63 103.31 L2142.63 83.6338 Q2154.32 79.1199 2165.31 76.9209 Q2176.31 74.6061 2186.73 74.6061 Q2214.85 74.6061 2228.74 89.1893 Q2242.63 103.773 2242.63 133.402 Z" fill="#000000" fill-rule="nonzero" fill-opacity="1" /><path clip-path="url(#clip230)" d="M2286.49 27.2684 L2307.79 27.2684 L2307.79 207.36 L2286.49 207.36 L2286.49 27.2684 Z" fill="#000000" fill-rule="nonzero" fill-opacity="1" /><path clip-path="url(#clip230)" d="M2428.62 34.56 L2537.88 34.56 L2537.88 54.2358 L2452 54.2358 L2452 105.393 L2534.29 105.393 L2534.29 125.069 L2452 125.069 L2452 187.684 L2539.96 187.684 L2539.96 207.36 L2428.62 207.36 L2428.62 34.56 Z" fill="#000000" fill-rule="nonzero" fill-opacity="1" /><path clip-path="url(#clip230)" d="M2685.22 129.12 L2685.22 207.36 L2663.92 207.36 L2663.92 129.814 Q2663.92 111.411 2656.75 102.268 Q2649.57 93.1245 2635.22 93.1245 Q2617.97 93.1245 2608.02 104.12 Q2598.07 115.115 2598.07 134.097 L2598.07 207.36 L2576.65 207.36 L2576.65 77.7311 L2598.07 77.7311 L2598.07 97.8698 Q2605.7 86.1801 2616.01 80.3931 Q2626.42 74.6061 2639.96 74.6061 Q2662.3 74.6061 2673.76 88.4949 Q2685.22 102.268 2685.22 129.12 Z" fill="#000000" fill-rule="nonzero" fill-opacity="1" /><path clip-path="url(#clip230)" d="M2838.57 137.221 L2838.57 147.638 L2740.66 147.638 Q2742.05 169.629 2753.85 181.203 Q2765.77 192.661 2786.95 192.661 Q2799.22 192.661 2810.68 189.652 Q2822.25 186.643 2833.6 180.624 L2833.6 200.763 Q2822.14 205.624 2810.1 208.17 Q2798.06 210.716 2785.68 210.716 Q2754.66 210.716 2736.49 192.661 Q2718.44 174.606 2718.44 143.819 Q2718.44 111.99 2735.57 93.356 Q2752.81 74.6061 2781.98 74.6061 Q2808.13 74.6061 2823.3 91.5041 Q2838.57 108.286 2838.57 137.221 M2817.28 130.972 Q2817.05 113.495 2807.44 103.078 Q2797.95 92.6615 2782.21 92.6615 Q2764.38 92.6615 2753.62 102.731 Q2742.97 112.8 2741.35 131.087 L2817.28 130.972 Z" fill="#000000" fill-rule="nonzero" fill-opacity="1" /><path clip-path="url(#clip230)" d="M2948.64 97.6384 Q2945.05 95.555 2940.77 94.6291 Q2936.61 93.5875 2931.51 93.5875 Q2913.46 93.5875 2903.74 105.393 Q2894.13 117.083 2894.13 139.073 L2894.13 207.36 L2872.72 207.36 L2872.72 77.7311 L2894.13 77.7311 L2894.13 97.8698 Q2900.84 86.0644 2911.61 80.3931 Q2922.37 74.6061 2937.76 74.6061 Q2939.96 74.6061 2942.62 74.9533 Q2945.29 75.1848 2948.53 75.7635 L2948.64 97.6384 Z" fill="#000000" fill-rule="nonzero" fill-opacity="1" /><path clip-path="url(#clip230)" d="M3052.11 141.041 Q3052.11 117.893 3042.51 105.161 Q3033.02 92.4301 3015.77 92.4301 Q2998.64 92.4301 2989.04 105.161 Q2979.55 117.893 2979.55 141.041 Q2979.55 164.073 2989.04 176.805 Q2998.64 189.536 3015.77 189.536 Q3033.02 189.536 3042.51 176.805 Q3052.11 164.073 3052.11 141.041 M3073.41 191.272 Q3073.41 224.374 3058.71 240.462 Q3044.01 256.665 3013.69 256.665 Q3002.46 256.665 2992.51 254.929 Q2982.55 253.309 2973.18 249.837 L2973.18 229.119 Q2982.55 234.212 2991.7 236.642 Q3000.84 239.073 3010.33 239.073 Q3031.28 239.073 3041.7 228.077 Q3052.11 217.198 3052.11 195.092 L3052.11 184.559 Q3045.52 196.017 3035.22 201.689 Q3024.92 207.36 3010.56 207.36 Q2986.72 207.36 2972.14 189.189 Q2957.55 171.018 2957.55 141.041 Q2957.55 110.948 2972.14 92.7773 Q2986.72 74.6061 3010.56 74.6061 Q3024.92 74.6061 3035.22 80.2773 Q3045.52 85.9486 3052.11 97.4069 L3052.11 77.7311 L3073.41 77.7311 L3073.41 191.272 Z" fill="#000000" fill-rule="nonzero" fill-opacity="1" /><path clip-path="url(#clip230)" d="M3171.21 219.397 Q3162.18 242.545 3153.62 249.605 Q3145.05 256.665 3130.7 256.665 L3113.69 256.665 L3113.69 238.841 L3126.19 238.841 Q3134.98 238.841 3139.85 234.675 Q3144.71 230.508 3150.61 214.999 L3154.43 205.277 L3102 77.7311 L3124.57 77.7311 L3165.08 179.119 L3205.59 77.7311 L3228.16 77.7311 L3171.21 219.397 Z" fill="#000000" fill-rule="nonzero" fill-opacity="1" /><path clip-path="url(#clip230)" d="M3317.62 77.7311 L3340.19 77.7311 L3380.7 186.527 L3421.21 77.7311 L3443.78 77.7311 L3395.17 207.36 L3366.23 207.36 L3317.62 77.7311 Z" fill="#000000" fill-rule="nonzero" fill-opacity="1" /><path clip-path="url(#clip230)" d="M3555.82 81.5505 L3555.82 101.689 Q3546.79 97.0597 3537.07 94.7449 Q3527.34 92.4301 3516.93 92.4301 Q3501.07 92.4301 3493.08 97.2911 Q3485.21 102.152 3485.21 111.874 Q3485.21 119.282 3490.89 123.564 Q3496.56 127.731 3513.69 131.55 L3520.98 133.171 Q3543.66 138.032 3553.15 146.944 Q3562.76 155.74 3562.76 171.596 Q3562.76 189.652 3548.41 200.184 Q3534.17 210.716 3509.17 210.716 Q3498.76 210.716 3487.41 208.633 Q3476.19 206.666 3463.69 202.615 L3463.69 180.624 Q3475.49 186.758 3486.95 189.883 Q3498.41 192.892 3509.64 192.892 Q3524.68 192.892 3532.78 187.8 Q3540.89 182.592 3540.89 173.217 Q3540.89 164.536 3534.98 159.907 Q3529.2 155.277 3509.4 150.995 L3502 149.258 Q3482.2 145.092 3473.41 136.527 Q3464.61 127.847 3464.61 112.8 Q3464.61 94.5134 3477.58 84.5597 Q3490.54 74.6061 3514.38 74.6061 Q3526.19 74.6061 3536.6 76.3422 Q3547.02 78.0783 3555.82 81.5505 Z" fill="#000000" fill-rule="nonzero" fill-opacity="1" /><path clip-path="url(#clip230)" d="M3648.99 34.56 L3795.17 34.56 L3795.17 54.2358 L3733.82 54.2358 L3733.82 207.36 L3710.33 207.36 L3710.33 54.2358 L3648.99 54.2358 L3648.99 34.56 Z" fill="#000000" fill-rule="nonzero" fill-opacity="1" /><path clip-path="url(#clip230)" d="M3809.52 77.7311 L3830.81 77.7311 L3830.81 207.36 L3809.52 207.36 L3809.52 77.7311 M3809.52 27.2684 L3830.81 27.2684 L3830.81 54.2358 L3809.52 54.2358 L3809.52 27.2684 Z" fill="#000000" fill-rule="nonzero" fill-opacity="1" /><path clip-path="url(#clip230)" d="M3976.3 102.615 Q3984.29 88.2634 3995.4 81.4347 Q4006.51 74.6061 4021.55 74.6061 Q4041.81 74.6061 4052.8 88.8421 Q4063.8 102.962 4063.8 129.12 L4063.8 207.36 L4042.39 207.36 L4042.39 129.814 Q4042.39 111.18 4035.79 102.152 Q4029.19 93.1245 4015.65 93.1245 Q3999.1 93.1245 3989.49 104.12 Q3979.89 115.115 3979.89 134.097 L3979.89 207.36 L3958.48 207.36 L3958.48 129.814 Q3958.48 111.064 3951.88 102.152 Q3945.28 93.1245 3931.51 93.1245 Q3915.19 93.1245 3905.58 104.236 Q3895.98 115.231 3895.98 134.097 L3895.98 207.36 L3874.56 207.36 L3874.56 77.7311 L3895.98 77.7311 L3895.98 97.8698 Q3903.27 85.9486 3913.45 80.2773 Q3923.64 74.6061 3937.64 74.6061 Q3951.76 74.6061 3961.6 81.782 Q3971.55 88.9579 3976.3 102.615 Z" fill="#000000" fill-rule="nonzero" fill-opacity="1" /><path clip-path="url(#clip230)" d="M4217.15 137.221 L4217.15 147.638 L4119.24 147.638 Q4120.63 169.629 4132.43 181.203 Q4144.35 192.661 4165.53 192.661 Q4177.8 192.661 4189.26 189.652 Q4200.84 186.643 4212.18 180.624 L4212.18 200.763 Q4200.72 205.624 4188.68 208.17 Q4176.65 210.716 4164.26 210.716 Q4133.24 210.716 4115.07 192.661 Q4097.02 174.606 4097.02 143.819 Q4097.02 111.99 4114.15 93.356 Q4131.39 74.6061 4160.56 74.6061 Q4186.71 74.6061 4201.88 91.5041 Q4217.15 108.286 4217.15 137.221 M4195.86 130.972 Q4195.63 113.495 4186.02 103.078 Q4176.53 92.6615 4160.79 92.6615 Q4142.97 92.6615 4132.2 102.731 Q4121.55 112.8 4119.93 131.087 L4195.86 130.972 Z" fill="#000000" fill-rule="nonzero" fill-opacity="1" /><polyline clip-path="url(#clip232)" style="stroke:#009af9; stroke-linecap:round; stroke-linejoin:round; stroke-width:12; stroke-opacity:1; fill:none" points="1473.25,2521.9 1479.36,2521.9 1485.46,2521.9 1491.57,2521.9 1497.67,2521.9 1503.78,2521.9 1509.88,2521.9 1515.99,2521.9 1522.09,2521.9 1528.2,2521.9 1534.3,2521.9 1540.41,2521.9 1546.51,2521.9 1552.62,2521.9 1558.72,2521.9 1564.83,2521.9 1570.93,2521.9 1577.04,2521.9 1583.14,2521.9 1589.25,2521.9 1595.35,2521.9 1601.46,2521.9 1607.56,2521.9 1613.67,2521.9 1619.77,2521.9 1625.88,2521.9 1631.98,2521.9 1638.09,2521.9 1644.19,2521.9 1650.3,2521.9 1656.4,2521.9 1656.4,2521.9 1662.51,2521.9 1668.61,2521.9 1674.72,2521.9 1680.82,2521.9 1686.93,2521.9 1693.03,2521.9 1699.14,2521.9 1705.24,2521.9 1711.35,2521.9 1717.45,2521.9 1723.56,2521.9 1729.66,2521.9 1735.77,2521.9 1741.87,2521.9 1747.98,2521.9 1754.08,2521.9 1760.19,2521.9 1766.29,2521.9 1772.4,2521.9 1778.5,2521.9 1784.61,2521.9 1790.71,2521.9 1796.82,2521.9 1802.92,2521.9 1809.03,2521.9 1815.13,2521.9 1821.24,2521.9 1827.34,2521.9 1833.45,2521.9 1839.55,2521.9 1845.66,2521.9 1851.76,2521.9 1857.87,2521.9 1863.97,2521.9 1870.08,2521.9 1876.18,2521.9 1882.29,2521.9 1888.39,2521.9 1894.5,2521.9 1900.6,2521.9 1906.71,2521.9 1912.81,2521.9 1918.92,2521.9 1925.02,2521.9 1931.13,2521.9 1937.23,2521.9 1943.34,2521.9 1949.44,2521.9 1955.55,2521.9 1961.65,2521.9 1967.76,2521.9 1973.86,2521.9 1979.97,2521.9 1986.07,2521.9 1992.18,2521.9 1998.28,2521.9 2004.39,2521.9 2010.49,2521.9 2016.6,2521.9 2022.7,2521.9 2028.81,2521.9 2034.91,2521.9 2041.02,2521.9 2047.12,2521.9 2053.23,2521.9 2059.33,2521.9 2065.44,2521.9 2071.54,2521.9 2077.65,2521.9 2083.75,2521.9 2089.86,2521.9 2095.96,2521.9 2102.07,2521.9 2108.17,2521.9 2114.28,2521.9 2120.38,2521.9 2126.49,2521.9 2132.59,2521.9 2138.7,2521.9 2144.8,2521.9 2150.91,2521.9 2157.01,2521.9 2163.12,2521.9 2169.22,2521.9 2175.33,2521.9 2181.43,2521.9 2187.54,2521.9 2193.64,2521.9 2199.75,2521.9 2205.85,2521.9 2211.96,2521.9 2218.06,2521.9 2224.17,2521.9 2230.27,2521.9 2236.38,2521.9 2242.48,2521.9 2248.59,2521.9 2254.69,2521.9 2260.8,2521.9 2266.9,2521.9 2273.01,2521.9 2279.11,2521.9 2285.22,2521.9 2291.32,2521.9 2297.43,2521.9 2303.53,2521.9 2309.63,2521.9 2315.74,2521.9 2321.84,2521.9 2327.95,2521.9 2334.05,2521.9 2340.16,2521.9 2346.26,2521.9 2352.37,2521.9 2358.47,2521.9 2364.58,2521.9 2370.68,2521.9 2376.79,2521.9 2382.89,2521.9 2389,2521.9 2395.1,2521.9 2401.21,2521.9 2407.31,2521.9 2413.42,2521.9 2419.52,2521.9 2425.63,2521.9 2431.73,2521.9 2437.84,2521.9 2443.94,2521.9 2450.05,2521.9 2456.15,2521.9 2462.26,2521.9 2468.36,2521.9 2474.47,2521.9 2480.57,2521.9 2486.68,2521.9 2492.78,2521.9 2498.89,2521.9 2504.99,2521.9 2511.1,2521.9 2517.2,2521.9 2523.31,2521.9 2529.41,2521.9 2535.52,2521.9 2541.62,2521.9 2547.73,2521.9 2553.83,2521.9 2559.94,2521.9 2566.04,2521.9 2572.15,2521.9 2578.25,2521.9 2584.36,2521.9 2590.46,2521.9 2596.57,2521.9 2602.67,2521.9 2608.78,2521.9 2614.88,2521.9 2620.99,2521.9 2627.09,2521.9 2633.2,2521.9 2639.3,2521.9 2645.41,2521.9 2651.51,2521.9 2657.62,2521.9 2663.72,2521.9 2669.83,2521.9 2675.93,2521.9 2682.04,2521.9 2688.14,2521.9 2694.25,2521.9 2700.35,2521.9 2706.46,2521.9 2712.56,2521.9 2718.67,2521.9 2724.77,2521.9 2730.88,2521.9 2736.98,2521.9 2743.09,2521.9 2749.19,2521.9 2755.3,2521.9 2761.4,2521.9 2767.51,2521.9 2773.61,2521.9 2779.72,2521.9 2785.82,2521.9 2791.93,2521.9 2798.03,2521.9 2804.14,2521.9 2810.24,2521.9 2816.35,2521.9 2822.45,2521.9 2828.56,2521.9 2834.66,2521.9 2840.77,2521.9 2846.87,2521.9 2852.98,2521.9 2859.08,2521.9 2865.19,2521.9 2871.29,2521.9 2877.4,2521.9 2883.5,2521.9 2889.61,2521.9 2895.71,2521.9 2901.82,2521.9 2907.92,2521.9 2914.03,2521.9 2920.13,2521.9 2926.24,2521.9 2932.34,2521.9 2938.45,2521.9 2944.55,2521.9 2950.66,2521.9 2956.76,2521.9 2962.87,2521.9 2968.97,2521.9 2975.08,2521.9 2981.18,2521.9 2987.29,2521.9 2993.39,2521.9 2999.5,2521.9 3005.6,2521.9 3011.71,2521.9 3017.81,2521.9 3023.92,2521.9 3030.02,2521.9 3036.13,2521.9 3042.23,2521.9 3048.34,2521.9 3054.44,2521.9 3060.55,2521.9 3066.65,2521.9 3072.76,2521.9 3078.86,2521.9 3084.97,2521.9 3091.07,2521.9 3097.18,2521.9 3103.28,2521.9 3109.39,2521.9 3115.49,2521.9 3121.6,2521.9 3127.7,2521.9 3133.81,2521.9 3139.91,2521.9 3146.02,2521.9 3152.12,2521.9 3158.23,2521.9 3164.33,2521.9 3170.44,2521.9 3176.54,2521.9 3182.64,2521.9 3188.75,2521.9 3194.85,2521.9 3200.96,2521.9 3207.06,2521.9 3213.17,2521.9 3219.27,2521.9 3225.38,2521.9 3231.48,2521.9 3237.59,2521.9 3243.69,2521.9 3249.8,2521.9 3255.9,2521.9 3262.01,2521.9 3268.11,2521.9 3274.22,2521.9 3280.32,2521.9 3286.43,2521.9 3292.53,2521.9 3298.64,2521.9 3304.74,2521.9 3310.85,2521.9 3316.95,2521.9 3323.06,2521.9 3329.16,2521.9 3335.27,2521.9 3341.37,2521.9 3347.48,2521.9 3353.58,2521.9 3359.69,2521.9 3365.79,2521.9 3371.9,2521.9 3378,2521.9 3384.11,2521.9 3390.21,2521.9 3396.32,2521.9 3402.42,2521.9 3408.53,2521.9 3414.63,2521.9 3420.74,2521.9 3426.84,2521.9 3432.95,2521.9 3439.05,2521.9 3445.16,2521.9 3451.26,2521.9 3457.37,2521.9 3463.47,2521.9 3469.58,2521.9 3475.68,2521.9 3481.79,2521.9 3487.89,2521.9 3494,2521.9 3500.1,2521.9 3506.21,2521.9 3512.31,2521.9 3518.42,2521.9 3524.52,2521.9 3530.63,2521.9 3536.73,2521.9 3542.84,2521.9 3548.94,2521.9 3555.05,2521.9 3561.15,2521.9 3567.26,2521.9 3573.36,2521.9 3579.47,2521.9 3585.57,2521.9 3591.68,2521.9 3597.78,2521.9 3603.89,2521.9 3609.99,2521.9 3616.1,2521.9 3622.2,2521.9 3628.31,2521.9 3634.41,2521.9 3640.52,2521.9 3646.62,2521.9 3652.73,2521.9 3658.83,2521.9 3664.94,2521.9 3671.04,2521.9 3677.15,2521.9 3683.25,2521.9 3689.36,2521.9 3695.46,2521.9 3701.57,2521.9 3707.67,2521.9 3713.78,2521.9 3719.88,2521.9 3725.99,2521.9 3732.09,2521.9 3738.2,2521.9 3744.3,2521.9 3750.41,2521.9 3756.51,2521.9 3762.62,2521.9 3768.72,2521.9 3774.83,2521.9 3780.93,2521.9 3787.04,2521.9 3793.14,2521.9 3799.25,2521.9 3805.35,2521.9 3811.46,2521.9 3817.56,2521.9 3823.67,2521.9 3829.77,2521.9 3835.88,2521.9 3841.98,2521.9 3848.09,2521.9 3854.19,2521.9 3860.3,2521.9 3866.4,2521.9 3872.51,2521.9 3878.61,2521.9 3884.72,2521.9 3890.82,2521.9 3896.93,2521.9 3903.03,2521.9 3909.14,2521.9 3915.24,2521.9 3921.35,2521.9 3927.45,2521.9 3933.56,2521.9 3939.66,2521.9 3945.77,2521.9 3951.87,2521.9 3957.98,2521.9 3964.08,2521.9 3970.19,2521.9 3976.29,2521.9 3982.4,2521.9 3988.5,2521.9 3994.61,2521.9 4000.71,2521.9 4006.82,2521.9 4012.92,2521.9 4019.03,2521.9 4025.13,2521.9 4031.24,2521.9 4037.34,2521.9 4043.45,2521.9 4049.55,2521.9 4055.65,2521.9 4061.76,2521.9 4067.86,2521.9 4073.97,2521.9 4080.07,2521.9 4086.18,2521.9 4092.28,2521.9 4098.39,2521.9 4104.49,2521.9 4110.6,2521.9 4116.7,2521.9 4122.81,2521.9 4128.91,2521.9 4135.02,2521.9 4141.12,2521.9 4147.23,2521.9 4153.33,2521.9 4159.44,2521.9 4165.54,2521.9 4171.65,2521.9 4177.75,2521.9 4183.86,2521.9 4189.96,2521.9 4196.07,2521.9 4202.17,2521.9 4208.28,2521.9 4214.38,2521.9 4220.49,2521.9 4226.59,2521.9 4232.7,2521.9 4238.8,2521.9 4244.91,2521.9 4251.01,2521.9 4257.12,2521.9 4263.22,2521.9 4269.33,2521.9 4275.43,2521.9 4281.54,2521.9 4287.64,2521.9 4293.75,2521.9 4299.85,2521.9 4305.96,2521.9 4312.06,2521.9 4318.17,2521.9 4324.27,2521.9 4330.38,2521.9 4336.48,2521.9 4342.59,2521.9 4348.69,2521.9 4354.8,2521.9 4360.9,2521.9 4367.01,2521.9 4373.11,2521.9 4379.22,2521.9 4385.32,2521.9 4391.43,2521.9 4397.53,2521.9 4403.64,2521.9 4409.74,2521.9 4415.85,2521.9 4421.95,2521.9 4428.06,2521.9 4434.16,2521.9 4440.27,2521.9 4446.37,2521.9 4452.48,2521.9 4458.58,2521.9 4464.69,2521.9 4470.79,2521.9 4476.9,2521.9 4483,2521.9 4489.11,2521.9 4495.21,2521.9 4501.32,2521.9 4507.42,2521.9 4513.53,2521.9 4519.63,2521.9 "/>
<polyline clip-path="url(#clip232)" style="stroke:#e26f46; stroke-linecap:round; stroke-linejoin:round; stroke-width:12; stroke-opacity:1; fill:none" points="1473.25,2580.95 1479.36,2580.95 1485.46,2580.95 1491.57,2580.95 1497.67,2580.95 1503.78,2580.95 1509.88,2580.95 1515.99,2580.95 1522.09,2580.95 1528.2,2580.95 1534.3,2580.95 1540.41,2580.95 1546.51,2580.95 1552.62,2580.95 1558.72,2580.95 1564.83,2580.95 1570.93,2580.95 1577.04,2580.95 1583.14,2580.95 1589.25,2580.95 1595.35,2580.95 1601.46,2580.95 1607.56,2580.95 1613.67,2580.95 1619.77,2580.95 1625.88,2580.95 1631.98,2580.95 1638.09,2580.95 1644.19,2580.95 1650.3,2580.95 1656.4,2580.95 1662.51,2580.95 1668.61,2580.95 1674.72,2580.95 1680.82,2580.95 1686.93,2580.95 1693.03,2580.95 1699.14,2580.95 1705.24,2580.95 1711.35,2580.95 1717.45,2580.95 1723.56,2580.95 1729.66,2580.95 1735.77,2580.95 1741.87,2580.95 1747.98,2580.95 1754.08,2580.95 1760.19,2580.95 1766.29,2580.95 1772.4,2580.95 1778.5,2580.95 1784.61,2580.95 1790.71,2580.95 1796.82,2580.95 1802.92,2580.95 1809.03,2580.95 1815.13,2580.95 1821.24,2580.95 1827.34,2580.95 1833.45,2580.95 1839.55,2580.95 1845.66,2580.95 1851.76,2580.95 1857.87,2580.95 1863.97,2580.95 1870.08,2580.95 1876.18,2580.95 1882.29,2580.95 1888.39,2580.95 1894.5,2580.95 1900.6,2580.95 1906.71,2580.95 1912.81,2580.95 1918.92,2580.95 1925.02,2580.95 1931.13,2580.95 1937.23,2580.95 1943.34,2580.95 1949.44,2580.95 1955.55,2580.95 1961.65,2580.95 1967.76,2580.95 1973.86,2580.95 1979.97,2580.95 1986.07,2580.95 1992.18,2580.95 1998.28,2580.95 2004.39,2580.95 2010.49,2580.95 2016.6,2580.95 2022.7,2580.95 2028.81,2580.95 2034.91,2580.95 2041.02,2580.95 2047.12,2580.95 2053.23,2580.95 2059.33,2580.95 2065.44,2580.95 2071.54,2580.95 2077.65,2580.95 2083.75,2580.95 2089.86,2580.95 2095.96,2580.95 2102.07,2580.95 2108.17,2580.95 2114.28,2580.95 2120.38,2580.95 2126.49,2580.95 2132.59,2580.95 2138.7,2580.95 2144.8,2580.95 2150.91,2580.95 2157.01,2580.95 2163.12,2580.95 2169.22,2580.95 2175.33,2580.95 2181.43,2580.95 2187.54,2580.95 2193.64,2580.95 2199.75,2580.95 2205.85,2580.95 2211.96,2580.95 2218.06,2580.95 2224.17,2580.95 2230.27,2580.95 2236.38,2580.95 2242.48,2580.95 2248.59,2580.95 2254.69,2580.95 2260.8,2580.95 2266.9,2580.95 2273.01,2580.95 2279.11,2580.95 2285.22,2580.95 2291.32,2580.95 2297.43,2580.95 2303.53,2580.95 2309.63,2580.95 2315.74,2580.95 2321.84,2580.95 2327.95,2580.95 2334.05,2580.95 2340.16,2580.95 2346.26,2580.95 2352.37,2580.95 2358.47,2580.95 2364.58,2580.95 2370.68,2580.95 2376.79,2580.95 2382.89,2580.95 2389,2580.95 2395.1,2580.95 2401.21,2580.95 2407.31,2580.95 2413.42,2580.95 2419.52,2580.95 2425.63,2580.95 2431.73,2580.95 2437.84,2580.95 2443.94,2580.95 2450.05,2580.95 2456.15,2580.95 2462.26,2580.95 2468.36,2580.95 2474.47,2580.95 2480.57,2580.95 2486.68,2580.95 2492.78,2580.95 2498.89,2580.95 2504.99,2580.95 2511.1,2580.95 2517.2,2580.95 2523.31,2580.95 2529.41,2580.95 2535.52,2580.95 2541.62,2580.95 2547.73,2580.95 2553.83,2580.95 2559.94,2580.95 2566.04,2580.95 2572.15,2580.95 2578.25,2580.95 2584.36,2580.95 2590.46,2580.95 2596.57,2580.95 2602.67,2580.95 2608.78,2580.95 2614.88,2580.95 2620.99,2580.95 2627.09,2580.95 2633.2,2580.95 2639.3,2580.95 2645.41,2580.95 2651.51,2580.95 2657.62,2580.95 2663.72,2580.95 2669.83,2580.95 2675.93,2580.95 2682.04,2580.95 2688.14,2580.95 2694.25,2580.95 2700.35,2580.95 2706.46,2580.95 2712.56,2580.95 2718.67,2580.95 2724.77,2580.95 2730.88,2580.95 2736.98,2580.95 2743.09,2580.95 2749.19,2580.95 2755.3,2580.95 2761.4,2580.95 2767.51,2580.95 2773.61,2580.95 2779.72,2580.95 2785.82,2580.95 2791.93,2580.95 2798.03,2580.95 2804.14,2580.95 2810.24,2580.95 2816.35,2580.95 2822.45,2580.95 2828.56,2580.95 2834.66,2580.95 2840.77,2580.95 2846.87,2580.95 2852.98,2580.95 2859.08,2580.95 2865.19,2580.95 2871.29,2580.95 2877.4,2580.95 2883.5,2580.95 2889.61,2580.95 2895.71,2580.95 2901.82,2580.95 2907.92,2580.95 2914.03,2580.95 2920.13,2580.95 2926.24,2580.95 2932.34,2580.95 2938.45,2580.95 2944.55,2580.95 2950.66,2580.95 2956.76,2580.95 2962.87,2580.95 2968.97,2580.95 2975.08,2580.95 2981.18,2580.95 2987.29,2580.95 2993.39,2580.95 2999.5,2580.95 3005.6,2580.95 3011.71,2580.95 3017.81,2580.95 3023.92,2580.95 3030.02,2580.95 3036.13,2580.95 3042.23,2580.95 3048.34,2580.95 3054.44,2580.95 3060.55,2580.95 3066.65,2580.95 3072.76,2580.95 3078.86,2580.95 3084.97,2580.95 3091.07,2580.95 3097.18,2580.95 3103.28,2580.95 3109.39,2580.95 3115.49,2580.95 3121.6,2580.95 3127.7,2580.95 3133.81,2580.95 3139.91,2580.95 3146.02,2580.95 3152.12,2580.95 3158.23,2580.95 3164.33,2580.95 3170.44,2580.95 3176.54,2580.95 3182.64,2580.95 3188.75,2580.95 3194.85,2580.95 3200.96,2580.95 3207.06,2580.95 3213.17,2580.95 3219.27,2580.95 3225.38,2580.95 3231.48,2580.95 3237.59,2580.95 3243.69,2580.95 3249.8,2580.95 3255.9,2580.95 3262.01,2580.95 3268.11,2580.95 3274.22,2580.95 3280.32,2580.95 3286.43,2580.95 3292.53,2580.95 3298.64,2580.95 3304.74,2580.95 3310.85,2580.95 3316.95,2580.95 3323.06,2580.95 3329.16,2580.95 3335.27,2580.95 3341.37,2580.95 3347.48,2580.95 3353.58,2580.95 3359.69,2580.95 3365.79,2580.95 3371.9,2580.95 3378,2580.95 3384.11,2580.95 3390.21,2580.95 3396.32,2580.95 3402.42,2580.95 3408.53,2580.95 3414.63,2580.95 3420.74,2580.95 3426.84,2580.95 3432.95,2580.95 3439.05,2580.95 3445.16,2580.95 3451.26,2580.95 3457.37,2580.95 3463.47,2580.95 3469.58,2580.95 3475.68,2580.95 3481.79,2580.95 3487.89,2580.95 3494,2580.95 3500.1,2580.95 3506.21,2580.95 3512.31,2580.95 3518.42,2580.95 3524.52,2580.95 3530.63,2580.95 3536.73,2580.95 3542.84,2580.95 3548.94,2580.95 3555.05,2580.95 3561.15,2580.95 3567.26,2580.95 3573.36,2580.95 3579.47,2580.95 3585.57,2580.95 3591.68,2580.95 3597.78,2580.95 3603.89,2580.95 3609.99,2580.95 3616.1,2580.95 3622.2,2580.95 3628.31,2580.95 3634.41,2580.95 3640.52,2580.95 3646.62,2580.95 3652.73,2580.95 3658.83,2580.95 3664.94,2580.95 3671.04,2580.95 3677.15,2580.95 3683.25,2580.95 3689.36,2580.95 3695.46,2580.95 3701.57,2580.95 3707.67,2580.95 3713.78,2580.95 3719.88,2580.95 3725.99,2580.95 3732.09,2580.95 3738.2,2580.95 3744.3,2580.95 3750.41,2580.95 3756.51,2580.95 3762.62,2580.95 3768.72,2580.95 3774.83,2580.95 3780.93,2580.95 3787.04,2580.95 3793.14,2580.95 3799.25,2580.95 3805.35,2580.95 3811.46,2580.95 3817.56,2580.95 3823.67,2580.95 3829.77,2580.95 3835.88,2580.95 3841.98,2580.95 3848.09,2580.95 3854.19,2580.95 3860.3,2580.95 3866.4,2580.95 3872.51,2580.95 3878.61,2580.95 3884.72,2580.95 3890.82,2580.95 3896.93,2580.95 3903.03,2580.95 3909.14,2580.95 3915.24,2580.95 3921.35,2580.95 3927.45,2580.95 3933.56,2580.95 3939.66,2580.95 3945.77,2580.95 3951.87,2580.95 3957.98,2580.95 3964.08,2580.95 3970.19,2580.95 3976.29,2580.95 3982.4,2580.95 3988.5,2580.95 3994.61,2580.95 4000.71,2580.95 4006.82,2580.95 4012.92,2580.95 4019.03,2580.95 4025.13,2580.95 4031.24,2580.95 4037.34,2580.95 4043.45,2580.95 4049.55,2580.95 4055.65,2580.95 4061.76,2580.95 4067.86,2580.95 4073.97,2580.95 4080.07,2580.95 4086.18,2580.95 4092.28,2580.95 4098.39,2580.95 4104.49,2580.95 4110.6,2580.95 4116.7,2580.95 4122.81,2580.95 4128.91,2580.95 4135.02,2580.95 4141.12,2580.95 4147.23,2580.95 4153.33,2580.95 4159.44,2580.95 4165.54,2580.95 4171.65,2580.95 4177.75,2580.95 4183.86,2580.95 4189.96,2580.95 4196.07,2580.95 4202.17,2580.95 4208.28,2580.95 4214.38,2580.95 4220.49,2580.95 4226.59,2580.95 4232.7,2580.95 4238.8,2580.95 4244.91,2580.95 4251.01,2580.95 4257.12,2580.95 4263.22,2580.95 4269.33,2580.95 4275.43,2580.95 4281.54,2580.95 4287.64,2580.95 4293.75,2580.95 4299.85,2580.95 4305.96,2580.95 4312.06,2580.95 4318.17,2580.95 4324.27,2580.95 4330.38,2580.95 4336.48,2580.95 4342.59,2580.95 4348.69,2580.95 4354.8,2580.95 4360.9,2580.95 4367.01,2580.95 4373.11,2580.95 4379.22,2580.95 4385.32,2580.95 4391.43,2580.95 4397.53,2580.95 4403.64,2580.95 4409.74,2580.95 4415.85,2580.95 4421.95,2580.95 4428.06,2580.95 4434.16,2580.95 4440.27,2580.95 4446.37,2580.95 4452.48,2580.95 4458.58,2580.95 4464.69,2580.95 4470.79,2580.95 4476.9,2580.95 4483,2580.95 4489.11,2580.95 4495.21,2580.95 4501.32,2580.95 4507.42,2580.95 4513.53,2580.95 4519.63,2580.95 "/>
<polyline clip-path="url(#clip232)" style="stroke:#3da44d; stroke-linecap:round; stroke-linejoin:round; stroke-width:12; stroke-opacity:1; fill:none" points="1473.25,441.702 1479.36,441.702 1485.46,441.702 1491.57,441.702 1497.67,441.702 1503.78,441.702 1509.88,441.702 1515.99,441.702 1522.09,441.702 1528.2,441.702 1534.3,441.702 1540.41,441.702 1546.51,441.702 1552.62,441.702 1558.72,441.702 1564.83,441.702 1570.93,441.702 1577.04,441.702 1583.14,441.702 1589.25,441.702 1595.35,441.702 1601.46,441.702 1607.56,441.702 1613.67,441.702 1619.77,441.702 1625.88,441.702 1631.98,441.702 1638.09,441.702 1644.19,441.702 1650.3,441.702 1656.4,441.702 1656.4,441.702 1662.51,441.702 1668.61,441.702 1674.72,441.702 1680.82,441.702 1686.93,441.702 1693.03,441.702 1699.14,441.702 1705.24,441.702 1711.35,441.702 1717.45,441.702 1723.56,441.702 1729.66,441.702 1735.77,441.702 1741.87,441.702 1747.98,441.702 1754.08,441.702 1760.19,441.702 1766.29,441.702 1772.4,441.702 1778.5,441.702 1784.61,441.702 1790.71,441.702 1796.82,441.702 1802.92,441.702 1809.03,441.702 1815.13,441.702 1821.24,441.702 1827.34,441.702 1833.45,441.702 1839.55,441.702 1845.66,441.702 1851.76,441.702 1857.87,441.702 1863.97,441.702 1870.08,441.702 1876.18,441.702 1882.29,441.702 1888.39,441.702 1894.5,441.702 1900.6,441.702 1906.71,441.702 1912.81,441.702 1918.92,441.702 1925.02,441.702 1931.13,441.702 1937.23,441.702 1943.34,441.702 1949.44,441.702 1955.55,441.702 1961.65,441.702 1967.76,441.702 1973.86,441.702 1979.97,441.702 1986.07,441.702 1992.18,441.702 1998.28,441.702 2004.39,441.702 2010.49,441.702 2016.6,441.702 2022.7,441.702 2028.81,441.702 2034.91,441.702 2041.02,441.702 2047.12,441.702 2053.23,441.702 2059.33,441.702 2065.44,441.702 2071.54,441.702 2077.65,441.702 2083.75,441.702 2089.86,441.702 2095.96,441.702 2102.07,441.702 2108.17,441.702 2114.28,441.702 2120.38,441.702 2126.49,441.702 2132.59,441.702 2138.7,441.702 2144.8,441.702 2150.91,441.702 2157.01,441.702 2163.12,441.702 2169.22,441.702 2175.33,441.702 2181.43,441.702 2187.54,441.702 2193.64,441.702 2199.75,441.702 2205.85,441.702 2211.96,441.702 2218.06,441.702 2224.17,441.702 2230.27,441.702 2236.38,441.702 2242.48,441.702 2248.59,441.702 2254.69,441.702 2260.8,441.702 2266.9,441.702 2273.01,441.702 2279.11,441.702 2285.22,441.702 2291.32,441.702 2297.43,441.702 2303.53,441.702 2309.63,441.702 2315.74,441.702 2321.84,441.702 2327.95,441.702 2334.05,441.702 2340.16,441.702 2346.26,441.702 2352.37,441.702 2358.47,441.702 2364.58,441.702 2370.68,441.702 2376.79,441.702 2382.89,441.702 2389,441.702 2395.1,441.702 2401.21,441.702 2407.31,441.702 2413.42,441.702 2419.52,441.702 2425.63,441.702 2431.73,441.702 2437.84,441.702 2443.94,441.702 2450.05,441.702 2456.15,441.702 2462.26,441.702 2468.36,441.702 2474.47,441.702 2480.57,441.702 2486.68,441.702 2492.78,441.702 2498.89,441.702 2504.99,441.702 2511.1,441.702 2517.2,441.702 2523.31,441.702 2529.41,441.702 2535.52,441.702 2541.62,441.702 2547.73,441.702 2553.83,441.702 2559.94,441.702 2566.04,441.702 2572.15,441.702 2578.25,441.702 2584.36,441.702 2590.46,441.702 2596.57,441.702 2602.67,441.702 2608.78,441.702 2614.88,441.702 2620.99,441.702 2627.09,441.702 2633.2,441.702 2639.3,441.702 2645.41,441.702 2651.51,441.702 2657.62,441.702 2663.72,441.702 2669.83,441.702 2675.93,441.702 2682.04,441.702 2688.14,441.702 2694.25,441.702 2700.35,441.702 2706.46,441.702 2712.56,441.702 2718.67,441.702 2724.77,441.702 2730.88,441.702 2736.98,441.702 2743.09,441.702 2749.19,441.702 2755.3,441.702 2761.4,441.702 2767.51,441.702 2773.61,441.702 2779.72,441.702 2785.82,441.702 2791.93,441.702 2798.03,441.702 2804.14,441.702 2810.24,441.702 2816.35,441.702 2822.45,441.702 2828.56,441.702 2834.66,441.702 2840.77,441.702 2846.87,441.702 2852.98,441.702 2859.08,441.702 2865.19,441.702 2871.29,441.702 2877.4,441.702 2883.5,441.702 2889.61,441.702 2895.71,441.702 2901.82,441.702 2907.92,441.702 2914.03,441.702 2920.13,441.702 2926.24,441.702 2932.34,441.702 2938.45,441.702 2944.55,441.702 2950.66,441.702 2956.76,441.702 2962.87,441.702 2968.97,441.702 2975.08,441.702 2981.18,441.702 2987.29,441.702 2993.39,441.702 2999.5,441.702 3005.6,441.702 3011.71,441.702 3017.81,441.702 3023.92,441.702 3030.02,441.702 3036.13,441.702 3042.23,441.702 3048.34,441.702 3054.44,441.702 3060.55,441.702 3066.65,441.702 3072.76,441.702 3078.86,441.702 3084.97,441.702 3091.07,441.702 3097.18,441.702 3103.28,441.702 3109.39,441.702 3115.49,441.702 3121.6,441.702 3127.7,441.702 3133.81,441.702 3139.91,441.702 3146.02,441.702 3152.12,441.702 3158.23,441.702 3164.33,441.702 3170.44,441.702 3176.54,441.702 3182.64,441.702 3188.75,441.702 3194.85,441.702 3200.96,441.702 3207.06,441.702 3213.17,441.702 3219.27,441.702 3225.38,441.702 3231.48,441.702 3237.59,441.702 3243.69,441.702 3249.8,441.702 3255.9,441.702 3262.01,441.702 3268.11,441.702 3274.22,441.702 3280.32,441.702 3286.43,441.702 3292.53,441.702 3298.64,441.702 3304.74,441.702 3310.85,441.702 3316.95,441.702 3323.06,441.702 3329.16,441.702 3335.27,441.702 3341.37,441.702 3347.48,441.702 3353.58,441.702 3359.69,441.702 3365.79,441.702 3371.9,441.702 3378,441.702 3384.11,441.702 3390.21,441.702 3396.32,441.702 3402.42,441.702 3408.53,441.702 3414.63,441.702 3420.74,441.702 3426.84,441.702 3432.95,441.702 3439.05,441.702 3445.16,441.702 3451.26,441.702 3457.37,441.702 3463.47,441.702 3469.58,441.702 3475.68,441.702 3481.79,441.702 3487.89,441.702 3494,441.702 3500.1,441.702 3506.21,441.702 3512.31,441.702 3518.42,441.702 3524.52,441.702 3530.63,441.702 3536.73,441.702 3542.84,441.702 3548.94,441.702 3555.05,441.702 3561.15,441.702 3567.26,441.702 3573.36,441.702 3579.47,441.702 3585.57,441.702 3591.68,441.702 3597.78,441.702 3603.89,441.702 3609.99,441.702 3616.1,441.702 3622.2,441.702 3628.31,441.702 3634.41,441.702 3640.52,441.702 3646.62,441.702 3652.73,441.702 3658.83,441.702 3664.94,441.702 3671.04,441.702 3677.15,441.702 3683.25,441.702 3689.36,441.702 3695.46,441.702 3701.57,441.702 3707.67,441.702 3713.78,441.702 3719.88,441.702 3725.99,441.702 3732.09,441.702 3738.2,441.702 3744.3,441.702 3750.41,441.702 3756.51,441.702 3762.62,441.702 3768.72,441.702 3774.83,441.702 3780.93,441.702 3787.04,441.702 3793.14,441.702 3799.25,441.702 3805.35,441.702 3811.46,441.702 3817.56,441.702 3823.67,441.702 3829.77,441.702 3835.88,441.702 3841.98,441.702 3848.09,441.702 3854.19,441.702 3860.3,441.702 3866.4,441.702 3872.51,441.702 3878.61,441.702 3884.72,441.702 3890.82,441.702 3896.93,441.702 3903.03,441.702 3909.14,441.702 3915.24,441.702 3921.35,441.702 3927.45,441.702 3933.56,441.702 3939.66,441.702 3945.77,441.702 3951.87,441.702 3957.98,441.702 3964.08,441.702 3970.19,441.702 3976.29,441.702 3982.4,441.702 3988.5,441.702 3994.61,441.702 4000.71,441.702 4006.82,441.702 4012.92,441.702 4019.03,441.702 4025.13,441.702 4031.24,441.702 4037.34,441.702 4043.45,441.702 4049.55,441.702 4055.65,441.702 4061.76,441.702 4067.86,441.702 4073.97,441.702 4080.07,441.702 4086.18,441.702 4092.28,441.702 4098.39,441.702 4104.49,441.702 4110.6,441.702 4116.7,441.702 4122.81,441.702 4128.91,441.702 4135.02,441.702 4141.12,441.702 4147.23,441.702 4153.33,441.702 4159.44,441.702 4165.54,441.702 4171.65,441.702 4177.75,441.702 4183.86,441.702 4189.96,441.702 4196.07,441.702 4202.17,441.702 4208.28,441.702 4214.38,441.702 4220.49,441.702 4226.59,441.702 4232.7,441.702 4238.8,441.702 4244.91,441.702 4251.01,441.702 4257.12,441.702 4263.22,441.702 4269.33,441.702 4275.43,441.702 4281.54,441.702 4287.64,441.702 4293.75,441.702 4299.85,441.702 4305.96,441.702 4312.06,441.702 4318.17,441.702 4324.27,441.702 4330.38,441.702 4336.48,441.702 4342.59,441.702 4348.69,441.702 4354.8,441.702 4360.9,441.702 4367.01,441.702 4373.11,441.702 4379.22,441.702 4385.32,441.702 4391.43,441.702 4397.53,441.702 4403.64,441.702 4409.74,441.702 4415.85,441.702 4421.95,441.702 4428.06,441.702 4434.16,441.702 4440.27,441.702 4446.37,441.702 4452.48,441.702 4458.58,441.702 4464.69,441.702 4470.79,441.702 4476.9,441.702 4483,441.702 4489.11,441.702 4495.21,441.702 4501.32,441.702 4507.42,441.702 4513.53,441.702 4519.63,441.702 "/>
<polyline clip-path="url(#clip232)" style="stroke:#ff00ff; stroke-linecap:round; stroke-linejoin:round; stroke-width:4; stroke-opacity:1; fill:none" stroke-dasharray="16, 10" points="1656.4,4912.73 1656.4,-1890.08 "/>
<path clip-path="url(#clip230)" d="M4021.96 939.111 L4503.38 939.111 L4503.38 453.111 L4021.96 453.111  Z" fill="#ffffff" fill-rule="evenodd" fill-opacity="1"/>
<polyline clip-path="url(#clip230)" style="stroke:#000000; stroke-linecap:round; stroke-linejoin:round; stroke-width:4; stroke-opacity:1; fill:none" points="4021.96,939.111 4503.38,939.111 4503.38,453.111 4021.96,453.111 4021.96,939.111 "/>
<polyline clip-path="url(#clip230)" style="stroke:#009af9; stroke-linecap:round; stroke-linejoin:round; stroke-width:22.5; stroke-opacity:1; fill:none" points="4057.84,550.311 4273.12,550.311 "/>
<path clip-path="url(#clip230)" d="M4356.92 573.466 L4356.92 556.062 L4342.59 556.062 L4342.59 548.857 L4365.6 548.857 L4365.6 576.678 Q4360.52 580.281 4354.4 582.147 Q4348.28 583.97 4341.33 583.97 Q4326.14 583.97 4317.55 575.116 Q4309 566.218 4309 550.376 Q4309 534.491 4317.55 525.637 Q4326.14 516.739 4341.33 516.739 Q4347.67 516.739 4353.36 518.302 Q4359.09 519.864 4363.9 522.902 L4363.9 532.234 Q4359.04 528.111 4353.57 526.027 Q4348.1 523.944 4342.07 523.944 Q4330.18 523.944 4324.19 530.585 Q4318.24 537.225 4318.24 550.376 Q4318.24 563.484 4324.19 570.124 Q4330.18 576.765 4342.07 576.765 Q4346.72 576.765 4350.36 575.984 Q4354.01 575.159 4356.92 573.466 Z" fill="#000000" fill-rule="nonzero" fill-opacity="1" /><path clip-path="url(#clip230)" d="M4383.91 575.333 L4398.23 575.333 L4398.23 525.897 L4382.65 529.022 L4382.65 521.036 L4398.15 517.911 L4406.92 517.911 L4406.92 575.333 L4421.24 575.333 L4421.24 582.711 L4383.91 582.711 L4383.91 575.333 Z" fill="#000000" fill-rule="nonzero" fill-opacity="1" /><polyline clip-path="url(#clip230)" style="stroke:#e26f46; stroke-linecap:round; stroke-linejoin:round; stroke-width:22.5; stroke-opacity:1; fill:none" points="4057.84,647.511 4273.12,647.511 "/>
<path clip-path="url(#clip230)" d="M4356.92 670.666 L4356.92 653.262 L4342.59 653.262 L4342.59 646.057 L4365.6 646.057 L4365.6 673.878 Q4360.52 677.481 4354.4 679.347 Q4348.28 681.17 4341.33 681.17 Q4326.14 681.17 4317.55 672.316 Q4309 663.418 4309 647.576 Q4309 631.691 4317.55 622.837 Q4326.14 613.939 4341.33 613.939 Q4347.67 613.939 4353.36 615.502 Q4359.09 617.064 4363.9 620.102 L4363.9 629.434 Q4359.04 625.311 4353.57 623.227 Q4348.1 621.144 4342.07 621.144 Q4330.18 621.144 4324.19 627.785 Q4318.24 634.425 4318.24 647.576 Q4318.24 660.684 4324.19 667.324 Q4330.18 673.965 4342.07 673.965 Q4346.72 673.965 4350.36 673.184 Q4354.01 672.359 4356.92 670.666 Z" fill="#000000" fill-rule="nonzero" fill-opacity="1" /><path clip-path="url(#clip230)" d="M4389.95 672.533 L4420.54 672.533 L4420.54 679.911 L4379.4 679.911 L4379.4 672.533 Q4384.39 667.368 4392.98 658.687 Q4401.62 649.963 4403.83 647.446 Q4408.04 642.715 4409.69 639.46 Q4411.39 636.161 4411.39 632.993 Q4411.39 627.828 4407.74 624.573 Q4404.14 621.318 4398.32 621.318 Q4394.2 621.318 4389.6 622.75 Q4385.04 624.182 4379.83 627.09 L4379.83 618.236 Q4385.13 616.109 4389.73 615.024 Q4394.33 613.939 4398.15 613.939 Q4408.22 613.939 4414.21 618.974 Q4420.2 624.009 4420.2 632.429 Q4420.2 636.422 4418.68 640.024 Q4417.2 643.583 4413.25 648.444 Q4412.17 649.703 4406.35 655.736 Q4400.54 661.726 4389.95 672.533 Z" fill="#000000" fill-rule="nonzero" fill-opacity="1" /><polyline clip-path="url(#clip230)" style="stroke:#3da44d; stroke-linecap:round; stroke-linejoin:round; stroke-width:22.5; stroke-opacity:1; fill:none" points="4057.84,744.711 4273.12,744.711 "/>
<path clip-path="url(#clip230)" d="M4356.92 767.866 L4356.92 750.462 L4342.59 750.462 L4342.59 743.257 L4365.6 743.257 L4365.6 771.078 Q4360.52 774.681 4354.4 776.547 Q4348.28 778.37 4341.33 778.37 Q4326.14 778.37 4317.55 769.516 Q4309 760.618 4309 744.776 Q4309 728.891 4317.55 720.037 Q4326.14 711.139 4341.33 711.139 Q4347.67 711.139 4353.36 712.702 Q4359.09 714.264 4363.9 717.302 L4363.9 726.634 Q4359.04 722.511 4353.57 720.427 Q4348.1 718.344 4342.07 718.344 Q4330.18 718.344 4324.19 724.985 Q4318.24 731.625 4318.24 744.776 Q4318.24 757.884 4324.19 764.524 Q4330.18 771.165 4342.07 771.165 Q4346.72 771.165 4350.36 770.384 Q4354.01 769.559 4356.92 767.866 Z" fill="#000000" fill-rule="nonzero" fill-opacity="1" /><path clip-path="url(#clip230)" d="M4408.96 742.172 Q4415.25 743.518 4418.76 747.771 Q4422.32 752.025 4422.32 758.274 Q4422.32 767.866 4415.73 773.118 Q4409.13 778.37 4396.98 778.37 Q4392.9 778.37 4388.56 777.545 Q4384.26 776.764 4379.66 775.158 L4379.66 766.695 Q4383.3 768.821 4387.64 769.906 Q4391.98 770.991 4396.72 770.991 Q4404.96 770.991 4409.26 767.736 Q4413.6 764.481 4413.6 758.274 Q4413.6 752.545 4409.56 749.334 Q4405.57 746.078 4398.41 746.078 L4390.86 746.078 L4390.86 738.874 L4398.76 738.874 Q4405.22 738.874 4408.65 736.313 Q4412.08 733.709 4412.08 728.848 Q4412.08 723.856 4408.52 721.209 Q4405.01 718.518 4398.41 718.518 Q4394.81 718.518 4390.68 719.299 Q4386.56 720.08 4381.61 721.73 L4381.61 713.917 Q4386.6 712.528 4390.94 711.834 Q4395.33 711.139 4399.19 711.139 Q4409.17 711.139 4414.99 715.697 Q4420.8 720.21 4420.8 727.936 Q4420.8 733.318 4417.72 737.051 Q4414.64 740.74 4408.96 742.172 Z" fill="#000000" fill-rule="nonzero" fill-opacity="1" /><polyline clip-path="url(#clip230)" style="stroke:#ff00ff; stroke-linecap:round; stroke-linejoin:round; stroke-width:7.5; stroke-opacity:1; fill:none" stroke-dasharray="30, 19" points="4057.84,841.911 4273.12,841.911 "/>
<path clip-path="url(#clip230)" d="M4322.89 811.898 L4322.89 825.7 L4339.34 825.7 L4339.34 831.907 L4322.89 831.907 L4322.89 858.296 Q4322.89 864.242 4324.49 865.934 Q4326.14 867.627 4331.13 867.627 L4339.34 867.627 L4339.34 874.311 L4331.13 874.311 Q4321.89 874.311 4318.37 870.882 Q4314.86 867.41 4314.86 858.296 L4314.86 831.907 L4309 831.907 L4309 825.7 L4314.86 825.7 L4314.86 811.898 L4322.89 811.898 Z" fill="#000000" fill-rule="nonzero" fill-opacity="1" /><path clip-path="url(#clip230)" d="M4386.78 889.068 L4386.78 895.275 L4340.6 895.275 L4340.6 889.068 L4386.78 889.068 Z" fill="#000000" fill-rule="nonzero" fill-opacity="1" /><path clip-path="url(#clip230)" d="M4429.27 827.567 L4429.27 835.032 Q4425.88 833.166 4422.45 832.254 Q4419.07 831.299 4415.6 831.299 Q4407.83 831.299 4403.53 836.247 Q4399.23 841.152 4399.23 850.049 Q4399.23 858.947 4403.53 863.895 Q4407.83 868.799 4415.6 868.799 Q4419.07 868.799 4422.45 867.888 Q4425.88 866.933 4429.27 865.066 L4429.27 872.445 Q4425.93 874.007 4422.32 874.789 Q4418.76 875.57 4414.73 875.57 Q4403.75 875.57 4397.28 868.669 Q4390.81 861.768 4390.81 850.049 Q4390.81 838.157 4397.32 831.343 Q4403.88 824.528 4415.25 824.528 Q4418.94 824.528 4422.45 825.31 Q4425.97 826.048 4429.27 827.567 Z" fill="#000000" fill-rule="nonzero" fill-opacity="1" /><path clip-path="url(#clip230)" d="M4451.06 811.898 L4451.06 825.7 L4467.51 825.7 L4467.51 831.907 L4451.06 831.907 L4451.06 858.296 Q4451.06 864.242 4452.66 865.934 Q4454.31 867.627 4459.3 867.627 L4467.51 867.627 L4467.51 874.311 L4459.3 874.311 Q4450.06 874.311 4446.54 870.882 Q4443.03 867.41 4443.03 858.296 L4443.03 831.907 L4437.17 831.907 L4437.17 825.7 L4443.03 825.7 L4443.03 811.898 L4451.06 811.898 Z" fill="#000000" fill-rule="nonzero" fill-opacity="1" /></svg>
